<?xml version="1.0" encoding="iso-8859-1"?>
<!-- Uploaded to: SVG Repo, www.svgrepo.com, Generator: SVG Repo Mixer Tools -->
<svg height="800px" width="800px" version="1.1" id="Layer_1" xmlns="http://www.w3.org/2000/svg" xmlns:xlink="http://www.w3.org/1999/xlink" 
	 viewBox="0 0 512.002 512.002" xml:space="preserve">
<g>
	<path style="fill:#D9D9DB;" d="M466.998,444.155l-40.266-5.552l-18.493,6.268l-28.648,28.716
		c-6.043,6.057,0.211,16.129,8.32,13.399l80.566-27.128C476.585,457.127,475.473,445.324,466.998,444.155z"/>
	<path style="fill:#D9D9DB;" d="M85.499,437.365c-0.052,0.154-0.072,0.31-0.116,0.465l-40.379,5.568
		c-8.475,1.169-9.587,12.972-1.478,15.702l80.565,27.128c8.109,2.73,14.362-7.341,8.32-13.399l-28.634-28.702
		c0.073-0.18,0.165-0.345,0.228-0.53L85.499,437.365z"/>
</g>
<path style="fill:#F09EA0;" d="M374.274,117.997l41.59,82.584c13.287,39.46-7.93,82.221-47.39,95.507s-82.221-7.93-95.508-47.39
	l-16.833-90.921c-0.712-3.844,1.513-7.628,5.218-8.876l103.398-34.817C368.456,112.837,372.515,114.505,374.274,117.997z"/>
<path style="fill:#EF8990;" d="M415.864,200.581l-8.991-17.851c6.084,35.927-14.663,71.949-50.29,83.947
	c-32.212,10.847-66.616-1.306-85.397-27.599l1.781,9.622c13.288,39.46,56.047,60.678,95.508,47.39S429.152,240.041,415.864,200.581z
	"/>
<path style="fill:#F09EA0;" d="M137.753,117.249l-41.59,82.584c-13.287,39.46,7.93,82.221,47.39,95.507s82.221-7.93,95.507-47.39
	l16.833-90.921c0.712-3.844-1.513-7.628-5.218-8.876l-103.398-34.817C143.571,112.09,139.512,113.758,137.753,117.249z"/>
<path style="fill:#EF8990;" d="M238.845,144.172l-14.974,80.881c-13.288,39.46-56.047,60.678-95.508,47.39
	c-11.823-3.981-21.992-10.622-30.103-19.013c8.14,19.094,24.071,34.767,45.291,41.913c39.46,13.287,82.221-7.93,95.507-47.39
	l16.833-90.921c0.712-3.844-1.513-7.628-5.218-8.876L238.845,144.172z"/>
<path d="M511.959,448.338c-0.424-4.512-3.898-8.138-8.387-8.758l-79.168-10.916l-42.628-126.593
	c17.36-8.127,31.38-21.763,40.027-39.19c10.11-20.375,11.681-43.469,4.421-65.025c-0.146-0.437-0.324-0.863-0.532-1.276
	l-44.656-88.671c-2.185-4.339-7.228-6.414-11.836-4.861L256,141.167l-113.2-38.118c-4.603-1.55-9.651,0.521-11.836,4.861
	l-12.603,25.025c-2.425,4.817-0.488,10.687,4.329,13.112c4.814,2.424,10.687,0.488,13.111-4.329l8.794-17.46l100.262,33.761
	l-16.402,88.588c-9.398,27.011-34.834,44.058-62.029,44.056c-6.926-0.001-13.973-1.108-20.891-3.437
	c-16.614-5.594-30.054-17.324-37.845-33.025c-7.792-15.703-9.002-33.5-3.408-50.113c1.721-5.111-1.026-10.649-6.137-12.369
	c-5.111-1.718-10.649,1.027-12.369,6.137c-7.259,21.557-5.689,44.649,4.421,65.025c8.647,17.427,22.666,31.062,40.027,39.19
	L87.596,428.663L8.43,439.58c-4.489,0.62-7.962,4.245-8.387,8.758c-0.424,4.512,2.309,8.722,6.604,10.169l145.875,49.119
	c1.026,0.346,2.078,0.513,3.115,0.513c3.304,0,6.477-1.685,8.295-4.615c2.391-3.85,1.817-8.838-1.383-12.046l-56.44-56.576
	l42.625-126.585c5.901,1.269,11.868,1.912,17.82,1.912c12.952,0,25.83-2.993,37.772-8.919c20.375-10.11,35.594-27.55,42.852-49.106
	c0.147-0.437,0.264-0.885,0.349-1.338l8.474-45.764l8.472,45.764c0.083,0.454,0.201,0.901,0.349,1.338
	c11.961,35.522,45.207,57.987,80.771,57.987c5.854,0,11.774-0.622,17.671-1.882l42.626,126.593l-56.44,56.574
	c-3.2,3.208-3.773,8.196-1.383,12.046c1.819,2.93,4.99,4.615,8.295,4.615c1.038,0,2.088-0.167,3.115-0.513l145.876-49.119
	C509.649,457.062,512.383,452.85,511.959,448.338z M52.238,453.254l39.204-5.407l27.952,28.018L52.238,453.254z M283.545,246.607
	l-16.402-88.588l100.263-33.761l40.524,80.467c5.351,16.431,4.073,33.974-3.618,49.477c-7.792,15.703-21.233,27.433-37.845,33.027
	C332.382,298.701,295.336,280.497,283.545,246.607z M392.608,475.866l27.953-28.018l39.204,5.407L392.608,475.866z"/>
<path d="M384.924,240.221c5.17-10.417,5.973-22.224,2.26-33.245c-0.146-0.437-0.324-0.864-0.532-1.276l-20.004-39.721
	c-2.425-4.816-8.294-6.755-13.111-4.329c-4.817,2.425-6.754,8.295-4.329,13.112l19.666,39.05c1.819,5.904,1.315,12.174-1.441,17.729
	c-2.85,5.745-7.767,10.035-13.845,12.081c-5.11,1.721-7.858,7.259-6.138,12.369c1.373,4.077,5.176,6.651,9.252,6.651
	c1.034,0,2.084-0.165,3.118-0.514C370.84,258.418,379.756,250.637,384.924,240.221z"/>
<path d="M162.796,174.762c2.425-4.817,0.488-10.687-4.329-13.112c-4.813-2.427-10.686-0.488-13.111,4.329l-20.004,39.721
	c-0.208,0.411-0.387,0.838-0.532,1.276c-3.713,11.021-2.908,22.828,2.26,33.245c5.168,10.416,14.085,18.197,25.105,21.909
	c1.034,0.349,2.084,0.514,3.118,0.514c4.076-0.001,7.88-2.575,9.252-6.651c1.72-5.11-1.028-10.648-6.138-12.369
	c-6.078-2.047-10.994-6.337-13.845-12.081c-2.756-5.555-3.261-11.825-1.441-17.729L162.796,174.762z"/>
<path d="M252.504,57.804c0.204,15.713-0.978,31.554-3.516,47.083c-0.871,5.322,2.739,10.342,8.06,11.212
	c0.532,0.087,1.062,0.129,1.587,0.129c4.698,0,8.842-3.402,9.625-8.19c2.723-16.652,3.991-33.638,3.77-50.488
	c-0.198-15.233-1.617-30.57-4.218-45.587c-0.919-5.313-5.972-8.873-11.286-7.954c-5.314,0.92-8.875,5.973-7.954,11.287
	C250.995,29.298,252.319,43.6,252.504,57.804z"/>
<path d="M187.327,67.46c5.032,1.707,14.445,6.085,20.956,16.244c4.905,7.655,6.087,15.359,6.214,20.475
	c0.134,5.308,4.477,9.52,9.756,9.52c0.082,0,0.167-0.001,0.249-0.003c5.391-0.135,9.652-4.614,9.518-10.005
	c-0.19-7.603-1.958-19.071-9.297-30.523c-9.722-15.172-23.675-21.676-31.126-24.203c-5.101-1.729-10.649,1.005-12.382,6.112
	C179.484,60.185,182.22,65.729,187.327,67.46z"/>
<path d="M292.701,115.342c0.616,0.116,1.228,0.173,1.832,0.173c4.597,0,8.692-3.262,9.58-7.945
	c0.825-4.344,3.357-12.627,11.053-19.282c8.889-7.685,19.097-8.282,23.048-8.172c0.086,0.001,0.172,0.003,0.258,0.003
	c5.275,0,9.618-4.206,9.755-9.511c0.139-5.391-4.116-9.873-9.507-10.014c-6.246-0.156-22.276,0.773-36.325,12.922
	c-12.174,10.525-16.168,23.571-17.466,30.411C283.924,109.227,287.404,114.337,292.701,115.342z"/>
<path d="M302.327,33.82c5.746,0,10.421-4.675,10.421-10.421s-4.675-10.421-10.421-10.421c-5.746,0-10.421,4.675-10.421,10.421
	S296.581,33.82,302.327,33.82z"/>
<path d="M221.648,40.13c5.746,0,10.421-4.675,10.421-10.421s-4.675-10.421-10.421-10.421c-5.746,0-10.421,4.675-10.421,10.421
	S215.901,40.13,221.648,40.13z"/>
</svg>