<?xml version="1.0" encoding="utf-8"?>
<!-- Generator: Adobe Illustrator 21.0.0, SVG Export Plug-In . SVG Version: 6.00 Build 0)  -->
<svg version="1.1" id="图层_1" xmlns="http://www.w3.org/2000/svg" xmlns:xlink="http://www.w3.org/1999/xlink" x="0px" y="0px"
	 viewBox="0 0 800 800" style="enable-background:new 0 0 800 800;" xml:space="preserve">
<path d="M517.6,317.8v450.1c0,17.7-14.4,32.1-32.1,32.1H32.1C14.4,800,0,785.6,0,767.9V314.5c0-17.7,14.4-32.1,32.1-32.1h450.1
	C501.8,282.4,517.6,298.2,517.6,317.8z M376.5,611.8H141.2v47.1h235.3V611.8L376.5,611.8z M658.8,141.2v489.9
	c0,15.3-12.4,27.7-27.7,27.7h-38.7c-15.3,0-27.7-12.4-27.7-27.7V263c0-15.3-12.4-27.7-27.7-27.7H168.9c-15.3,0-27.7-12.4-27.7-27.7
	v-38.7c0-15.3,12.4-27.7,27.7-27.7L658.8,141.2L658.8,141.2z M329.5,517.6H141.2v47.1h188.3L329.5,517.6L329.5,517.6z M800,0v491.6
	c0,14.4-11.6,26-26,26h-42.1c-14.4,0-26-11.6-26-26V120.1c0-14.4-11.6-26-26-26H308.4c-14.4,0-26-11.6-26-26V26
	c0-14.4,11.6-26,26-26L800,0L800,0z M376.5,423.5H141.2v47.1h235.3L376.5,423.5L376.5,423.5z"/>
</svg>
