<?xml version="1.0" encoding="utf-8"?>
<!-- Generator: Adobe Illustrator 21.0.0, SVG Export Plug-In . SVG Version: 6.00 Build 0)  -->
<svg version="1.1" id="图层_1" xmlns="http://www.w3.org/2000/svg" xmlns:xlink="http://www.w3.org/1999/xlink" x="0px" y="0px"
	 viewBox="0 0 800 800" style="enable-background:new 0 0 800 800;" xml:space="preserve">
<style type="text/css">
	.st0{fill:#FF8398;}
	.st1{fill:#54E360;}
	.st2{fill:#008ADF;}
	.st3{fill:#FFD400;}
	.st4{fill:#0065A3;}
	.st5{fill:#FF9100;}
	.st6{fill:#FF4949;}
	.st7{fill:#005183;}
	.st8{fill:#00AB5E;}
	.st9{fill:#FF9F04;}
	.st10{fill:#FF4B00;}
	.st11{fill:#E80048;}
</style>
<title>design-and-ux/color-wheel</title>
<desc>Created with Sketch.</desc>
<g id="color-wheel-_x28_1_x29_" transform="translate(11.000000, 11.000000)">
	<path id="Shape" class="st0" d="M146.9,528.8c12.1,20.9,27,40.3,44.5,57.8c52.8,52.8,123,81.8,197.6,81.8
		c74.6,0,144.8-29.1,197.6-81.8c17.5-17.5,32.4-37,44.5-57.8c24.4-42,37.4-89.9,37.4-139.8s-13-97.7-37.4-139.8
		c-12.1-20.9-27-40.3-44.5-57.8c-52.8-52.8-123-81.8-197.6-81.8c-74.6,0-144.8,29.1-197.6,81.8c-17.5,17.5-32.4,37-44.5,57.8
		c-24.4,42-37.4,89.9-37.4,139.8S122.5,486.7,146.9,528.8z M317.7,389c0-13,3.5-25.1,9.6-35.6c12.3-21.3,35.4-35.7,61.7-35.7
		s49.4,14.4,61.7,35.7c6.1,10.5,9.6,22.7,9.6,35.6s-3.5,25.1-9.6,35.6c-12.3,21.3-35.4,35.7-61.7,35.7s-49.4-14.4-61.7-35.7
		C321.2,414.1,317.7,402,317.7,389z"/>
	<path id="Shape_1_" class="st1" d="M389,564.4v104.1c74.6,0,144.8-29.1,197.6-81.8c17.5-17.5,32.4-37,44.5-57.8l-90.2-52.1
		C510.6,529.1,453.9,564.4,389,564.4z"/>
	<path id="Shape_2_" class="st2" d="M564.4,389c0,32-8.5,61.9-23.5,87.7l90.2,52.1c24.4-42,37.4-89.9,37.4-139.8
		s-13-97.7-37.4-139.8l-90.2,52.1C555.8,327.1,564.4,357,564.4,389z"/>
	<path id="Shape_3_" class="st3" d="M237.1,476.7l-90.2,52.1c12.1,20.9,27,40.3,44.5,57.8c52.8,52.8,123,81.8,197.6,81.8V564.4
		C324.1,564.4,267.4,529.1,237.1,476.7z"/>
	<path id="Shape_4_" class="st4" d="M540.9,301.3l90.2-52.1c-12.1-20.9-27-40.3-44.5-57.8c-52.8-52.8-123-81.8-197.6-81.8v104.1
		C453.9,213.6,510.6,248.9,540.9,301.3z"/>
	<path id="Shape_5_" class="st5" d="M146.9,528.8l90.2-52.1c-14.9-25.8-23.5-55.8-23.5-87.7s8.5-61.9,23.5-87.7l-90.2-52.1
		c-24.4,42-37.4,89.9-37.4,139.8S122.5,486.7,146.9,528.8z"/>
	<path id="Shape_6_" class="st6" d="M389,213.6V109.5c-74.6,0-144.8,29.1-197.6,81.8c-17.5,17.5-32.4,37-44.5,57.8l90.2,52.1
		C267.4,248.9,324.1,213.6,389,213.6z"/>
	<path id="Shape_7_" class="st4" d="M460.3,389c0,13-3.5,25.1-9.6,35.6l90.2,52.1c14.9-25.8,23.5-55.8,23.5-87.7
		c0-32-8.5-61.9-23.5-87.7l-90.2,52.1C456.8,363.9,460.3,376,460.3,389z"/>
	<path id="Shape_8_" class="st7" d="M450.7,353.4l90.2-52.1c-30.3-52.4-87-87.7-151.9-87.7v104.1
		C415.3,317.7,438.4,332.1,450.7,353.4z"/>
	<path id="Shape_9_" class="st8" d="M389,460.3v104.1c64.9,0,121.6-35.3,151.9-87.7l-90.2-52.1C438.4,445.9,415.3,460.3,389,460.3z"
		/>
	<path id="Shape_10_" class="st9" d="M389,564.4V460.3c-26.3,0-49.4-14.4-61.7-35.7l-90.2,52.1C267.4,529.1,324.1,564.4,389,564.4z"
		/>
	<path id="Shape_11_" class="st10" d="M317.7,389c0-13,3.5-25.1,9.6-35.6l-90.2-52.1c-14.9,25.8-23.5,55.8-23.5,87.7
		s8.5,61.9,23.5,87.7l90.2-52.1C321.2,414.1,317.7,402,317.7,389z"/>
	<path id="Shape_12_" class="st11" d="M389,317.7V213.6c-64.9,0-121.6,35.3-151.9,87.7l90.2,52.1C339.6,332.1,362.7,317.7,389,317.7
		z"/>
</g>
</svg>
