<?xml version="1.0" encoding="iso-8859-1"?>
<!-- Uploaded to: SVG Repo, www.svgrepo.com, Generator: SVG Repo Mixer Tools -->
<svg fill="#000000" height="800px" width="800px" version="1.1" id="Layer_1" xmlns="http://www.w3.org/2000/svg" xmlns:xlink="http://www.w3.org/1999/xlink" 
	 viewBox="0 0 380 380" xml:space="preserve">
<g id="XMLID_169_">
	<path id="XMLID_197_" d="M40,380h300c8.284,0,15-6.716,15-15v-50c0-8.284-6.716-15-15-15h-2.914H335H45h-5c-8.284,0-15,6.716-15,15
		v50C25,373.284,31.716,380,40,380z"/>
	<path id="XMLID_221_" d="M40,150h25v80h-5c-8.284,0-15,6.716-15,15v25h290v-25c0-8.284-6.716-15-15-15h-5v-80h25
		c8.284,0,15-6.716,15-15s-6.716-15-15-15c-19.578,0-36.267-12.571-42.441-30.063C298.371,89.965,299.182,90,300,90
		c8.284,0,15-6.716,15-15s-6.716-15-15-15c-24.814,0-45-20.187-45-45c0-8.284-6.716-15-15-15H140c-8.284,0-15,6.716-15,15
		c0,24.813-20.187,45-45,45c-8.284,0-15,6.716-15,15s6.716,15,15,15c0.817,0,1.627-0.028,2.438-0.055
		C76.262,107.433,59.575,120,40,120c-8.284,0-15,6.716-15,15S31.716,150,40,150z M255,150h30v80h-30V150z M155,150h70v80h-70V150z
		 M95,150h30v80H95V150z"/>
</g>
</svg>