<?xml version="1.0" encoding="iso-8859-1"?>
<!-- Uploaded to: SVG Repo, www.svgrepo.com, Generator: SVG Repo Mixer Tools -->
<svg fill="#000000" height="800px" width="800px" version="1.1" id="Layer_1" xmlns="http://www.w3.org/2000/svg" xmlns:xlink="http://www.w3.org/1999/xlink" 
	 viewBox="0 0 512 512" xml:space="preserve">
<g>
	<g>
		<path d="M496.327,226.671L279.444,9.789c-13.052-13.052-34.196-13.052-47.248,0L15.673,226.313
			c-13.019,13.019-13.019,34.228,0,47.248c13.052,13.051,34.195,13.051,47.248,0c70.636-70.636,118.056-118.056,192.9-192.9
			c109.732,109.732,82.476,82.476,193.258,193.258c13.058,13.058,34.19,13.058,47.248,0
			C509.346,260.9,509.346,239.691,496.327,226.671z"/>
	</g>
</g>
<g>
	<g>
		<path d="M255.821,127.908L72.41,311.318v183.976c0,9.234,7.472,16.706,16.706,16.706h116.944V395.056
			c0-9.229,7.48-16.706,16.706-16.706h66.825c9.226,0,16.706,7.478,16.706,16.706V512h116.944c9.234,0,16.706-7.472,16.706-16.706
			v-183.26L255.821,127.908z M256.179,300.387c-27.637,0-50.119-22.482-50.119-50.119s22.482-50.119,50.119-50.119
			s50.119,22.482,50.119,50.119S283.816,300.387,256.179,300.387z"/>
	</g>
</g>
</svg>