<?xml version="1.0" encoding="utf-8"?>
<!-- Generator: Adobe Illustrator 21.0.0, SVG Export Plug-In . SVG Version: 6.00 Build 0)  -->
<svg version="1.1" id="Capa_1" xmlns="http://www.w3.org/2000/svg" xmlns:xlink="http://www.w3.org/1999/xlink" x="0px" y="0px"
	 viewBox="0 0 800 800" style="enable-background:new 0 0 800 800;" xml:space="preserve">
<path d="M483.2,230.2l-69.6-73.5c-7.3-7.7-17.5-12.3-28.1-12.5c-10.6-0.3-21,3.7-28.8,11l-37.3,35.3l-41.2,39.1L35.4,459.7
	c-16.1,15.3-16.8,40.8-1.5,56.9l256.7,270.9c7.9,8.3,18.5,12.6,29.2,12.6c9.9,0,19.9-3.7,27.7-11l246.7-233.8l105.5,3.6
	c16.2,0.6,31.4-8.8,38.1-23.7c6.7-14.9,3.7-32.4-7.5-44.2L521.5,270.7L483.2,230.2z M769.3,729.3c-10.4,18.1-29.1,28.8-49.9,28.8
	c-20.8,0-39.5-10.8-49.9-28.8c-10.4-18.1-10.4-39.6,0-57.7l32.5-56.3c3.6-6.2,10.2-10.1,17.4-10.1c7.2,0,13.8,3.8,17.4,10.1
	l32.5,56.3C779.8,689.7,779.8,711.3,769.3,729.3z"/>
</svg>
