<?xml version="1.0" encoding="iso-8859-1"?>
<!-- Uploaded to: SVG Repo, www.svgrepo.com, Generator: SVG Repo Mixer Tools -->
<svg fill="#000000" height="800px" width="800px" version="1.1" id="Layer_1" xmlns="http://www.w3.org/2000/svg" xmlns:xlink="http://www.w3.org/1999/xlink" 
	 viewBox="0 0 511.998 511.998" xml:space="preserve">
<g>
	<g>
		<path d="M458.866,203.03h-0.995c-7.46-33.171-22.89-63.681-45.24-89.492l19.195-19.2l-10.753-10.753
			C376.98,39.492,318.356,15.209,256,15.209S135.019,39.492,90.926,83.585L80.172,94.338l19.198,19.197
			c-22.351,25.812-37.781,56.323-45.242,89.493h-0.995C23.835,203.03,0,226.865,0,256.163v70.649
			c0,29.298,23.835,53.133,53.133,53.133h57.153V203.03H85.444c6.656-24.975,18.704-48.03,35.5-67.919l18.279,18.278l10.753-10.753
			c28.37-28.37,66.023-43.994,106.023-43.994c40.004,0,77.658,15.625,106.028,43.998l10.755,10.757l18.276-18.282
			c16.794,19.89,28.841,42.943,35.496,67.915h-24.842v176.915h25.434c-6.415,33.264-33.44,59.266-67.22,64.142
			c-5.962-12.192-18.49-20.611-32.95-20.611H278.46c-20.212,0-36.656,16.445-36.656,36.657c0,20.212,16.443,36.657,36.656,36.657
			h48.516c15.051,0,28.007-9.121,33.645-22.123c50.254-5.539,90.471-44.878,97.356-94.72h0.887
			c29.298,0,53.133-23.835,53.133-53.133v-70.649C512,226.865,488.164,203.03,458.866,203.03z"/>
	</g>
</g>
<g>
	<g>
		<path d="M161.003,281.262c2.549-4.405,6.123-5.218,8.302-5.713c20.272-4.608,32.865-18.756,32.865-36.921
			c0-20.567-16.732-37.299-37.3-37.299s-37.3,16.732-37.3,37.299h30.417c0-3.795,3.087-6.882,6.882-6.882s6.882,3.087,6.882,6.882
			c0,1.28,0,5.172-9.19,7.261c-10.936,2.486-19.903,8.393-25.934,17.082c-6.01,8.661-9.058,19.932-9.058,33.5v15.209h75.34v-30.417
			H161.003z"/>
	</g>
</g>
<g>
	<g>
		<path d="M254.535,203.456v37.84h-6.882c-3.795,0-6.882-3.087-6.882-6.882v-30.958h-30.417v30.958c0,20.567,16.732,37.3,37.3,37.3
			h6.882v37.839h30.417V203.456H254.535z"/>
	</g>
</g>
<g>
	<g>
		<path d="M347.129,241.296h-6.882v-37.84h-30.417v106.096h30.417v-37.839h6.882c3.795,0,6.882,3.087,6.882,6.882v30.958h30.417
			v-30.958C384.428,258.028,367.696,241.296,347.129,241.296z"/>
	</g>
</g>
</svg>