<?xml version="1.0" encoding="iso-8859-1"?>
<!-- Uploaded to: SVG Repo, www.svgrepo.com, Generator: SVG Repo Mixer Tools -->
<svg fill="#000000" height="800px" width="800px" version="1.1" id="Layer_1" xmlns="http://www.w3.org/2000/svg" xmlns:xlink="http://www.w3.org/1999/xlink" 
	 viewBox="0 0 512 512" xml:space="preserve">
<g>
	<g>
		<path d="M346.821,327.81c-1.598-3.888-6.049-5.742-9.935-4.145c-2.642,1.086-5.379,2.032-8.133,2.813
			c-4.045,1.146-6.395,5.354-5.249,9.4c0.95,3.352,4,5.539,7.32,5.539c0.687,0,1.385-0.093,2.08-0.29
			c3.309-0.938,6.597-2.075,9.771-3.38C346.563,336.147,348.419,331.698,346.821,327.81z"/>
	</g>
</g>
<g>
	<g>
		<path d="M440.961,445.195c-5.939-28.062-30.872-48.612-60.056-48.612c-33.279,0-60.461,26.613-61.385,59.674
			c-12.388,7.415-20.152,20.865-20.152,35.541c0,5.311,1.002,10.5,2.979,15.423c1.159,2.885,3.955,4.776,7.065,4.776h148.612
			c2.629,0,5.072-1.357,6.462-3.588c4.204-6.751,6.426-14.533,6.426-22.503C470.914,466.978,458.606,450.647,440.961,445.195z
			 M453.443,496.77H315.069c-0.316-1.63-0.474-3.292-0.474-4.973c0-10.382,6.146-19.794,15.658-23.981
			c2.896-1.274,4.701-4.206,4.535-7.365c-0.044-0.835-0.065-1.663-0.065-2.459c0-25.465,20.717-46.183,46.182-46.183
			c23.302,0,43.002,17.421,45.824,40.521c0.406,3.333,2.95,6.006,6.26,6.578c13.153,2.274,22.699,13.627,22.699,26.995
			C455.688,489.664,454.92,493.358,453.443,496.77z"/>
	</g>
</g>
<g>
	<g>
		<path d="M158.915,451.535c-9.336-20.555-29.878-33.994-52.823-33.994c-4.205,0-7.613,3.409-7.613,7.613
			c0,4.204,3.407,7.613,7.613,7.613c18.401,0,34.705,11.717,40.573,29.157c1.171,3.487,4.669,5.633,8.311,5.106
			c1.233-0.18,2.474-0.27,3.686-0.27c13.988,0,25.369,11.381,25.369,25.369c0,1.462-0.124,2.909-0.37,4.333H68.72
			c-3.567-6.361-5.436-13.507-5.436-20.885c0-10.46,3.812-20.53,10.734-28.353c2.785-3.149,2.492-7.96-0.657-10.746
			c-3.149-2.785-7.96-2.491-10.746,0.657c-9.387,10.609-14.557,24.262-14.557,38.443c0,11.776,3.515,23.119,10.165,32.806
			c1.42,2.068,3.768,3.304,6.277,3.304h124.905c3.14,0,5.956-1.927,7.095-4.853c1.83-4.705,2.758-9.653,2.758-14.706
			C199.256,469.829,181.183,451.672,158.915,451.535z"/>
	</g>
</g>
<g>
	<g>
		<path d="M307.892,329.36c-16.878,0-33.146-5.563-46.432-15.746c11.444-13.516,18.365-30.978,18.365-50.033
			c0-3.441-0.232-6.869-0.681-10.26l-8.427-9.499l-7.219,8.033c0.731,3.846,1.101,7.775,1.101,11.727
			c0,34.367-27.959,62.327-62.327,62.327c-17.688,0-34.612-7.568-46.431-20.764c-1.973-2.203-5.043-3.063-7.877-2.207
			c-5.066,1.534-10.326,2.311-15.632,2.311c-29.706,0-53.872-24.168-53.872-53.873c0-1.242,0.056-2.557,0.176-4.138
			c0.23-3.035-1.37-5.915-4.068-7.323c-11.93-6.229-19.342-18.443-19.342-31.877c0-19.82,16.125-35.945,35.945-35.945
			c4.674,0,9.201,0.89,13.478,2.626l6.2-6.516l-10.311-10.466c-3.068-0.568-6.193-0.87-9.367-0.87
			c-28.215,0-51.17,22.955-51.17,51.17c0,17.461,8.788,33.471,23.236,42.87c-0.001,0.157-0.002,0.314-0.002,0.469
			c0,23.669,11.967,44.59,30.163,57.047c-0.205,2.127-0.311,4.274-0.311,6.413c0,36.303,29.535,65.838,65.838,65.838
			c6.069,0,12.078-0.834,17.908-2.484c7.598,3.718,15.996,5.669,24.489,5.669c6.728,0,13.312-1.203,19.502-3.515v103.288
			c0,15.643,12.726,28.369,28.368,28.369c15.643,0,28.368-12.727,28.368-28.369V339.408c9.66,3.387,19.897,5.178,30.332,5.178
			c4.205,0,7.613-3.409,7.613-7.613S312.096,329.36,307.892,329.36z M220.822,363.621c-5.953,3.277-12.619,5.011-19.502,5.011
			c-6.997,0-13.902-1.821-19.972-5.268c-1.888-1.072-4.145-1.287-6.198-0.592c-5.244,1.774-10.704,2.674-16.226,2.674
			c-27.459,0-49.864-21.984-50.578-49.273c7.476,2.776,15.557,4.3,23.987,4.3c5.207,0,10.38-0.585,15.434-1.741
			c14.469,14.29,34.077,22.401,54.506,22.401c6.394,0,12.603-0.793,18.55-2.258V363.621z M262.335,483.631h-0.001
			c0,7.247-5.896,13.144-13.143,13.144c-7.246,0-13.143-5.896-13.143-13.144V333.38c5.135-2.495,9.945-5.553,14.374-9.071
			c3.769,3.039,7.756,5.749,11.913,8.134V483.631z"/>
	</g>
</g>
<g>
	<g>
		<path d="M436.672,175.697c1.474-6,2.218-12.159,2.218-18.396c0-42.52-34.593-77.113-77.113-77.113
			c-9.975,0-19.661,1.895-28.824,5.593l-0.004,0.048c-1.804-1.267-3.655-2.481-5.562-3.627c0.123-1.758,0.185-3.499,0.185-5.211
			C327.572,34.538,293.034,0,250.581,0c-38.595,0-70.816,28.44-76.198,65.923c-41.735,3.477-74.635,38.555-74.635,81.173
			c0,44.916,36.542,81.456,81.456,81.456c10.485,0,20.624-1.947,30.218-5.795c17.489,19.501,42.143,30.571,68.524,30.571
			c50.808,0,92.141-41.334,92.141-92.141c0-24.255-9.449-46.985-25.728-63.881l0.089,0.017c4.974-1.269,10.103-1.908,15.33-1.908
			c34.125,0,61.887,27.762,61.887,61.887c0,7.151-1.217,14.175-3.618,20.874c-0.734,2.048-0.556,4.314,0.488,6.222
			c1.044,1.909,2.855,3.28,4.977,3.766c18.406,4.219,31.26,20.368,31.26,39.272c0,22.223-18.081,40.304-40.303,40.304
			c-7.743,0-15.271-2.212-21.772-6.395c-2.142-1.379-4.833-1.594-7.165-0.576c-2.335,1.019-4.004,3.138-4.451,5.646
			c-3.311,18.641-13.425,35.331-28.478,46.992c-3.323,2.575-3.93,7.357-1.355,10.68c1.5,1.937,3.749,2.951,6.023,2.951
			c1.628,0,3.27-0.521,4.658-1.596c15.341-11.885,26.406-28.138,31.818-46.487c6.55,2.639,13.571,4.009,20.722,4.009
			c30.619,0,55.529-24.911,55.529-55.53C471.997,204.136,457.821,183.873,436.672,175.697z M356.861,161.187
			c-0.001,42.411-34.505,76.916-76.918,76.916c-23.682,0-45.699-10.692-60.407-29.336c-1.483-1.88-3.707-2.898-5.981-2.898
			c-1.129,0-2.27,0.252-3.337,0.772c-9.084,4.437-18.846,6.686-29.017,6.686c-36.52,0-66.23-29.711-66.23-66.23
			c0-36.484,29.654-66.173,66.126-66.23c0.082,0.002,0.145,0.003,0.209,0.003c4.039,0,7.385-3.162,7.6-7.21
			c1.74-32.767,28.829-58.434,61.675-58.434c34.058,0,61.765,27.708,61.765,61.765c0,2.708-0.196,5.525-0.582,8.37
			c-0.43,3.168,1.164,6.267,3.993,7.758C341.111,106.488,356.861,132.57,356.861,161.187z"/>
	</g>
</g>
<g>
	<g>
		<path d="M361.852,254.922c-4.138-0.741-8.091,2.024-8.827,6.164c-3.053,17.19-15.875,31.357-32.667,36.093
			c-4.047,1.141-6.402,5.347-5.261,9.393c0.947,3.356,4.001,5.548,7.323,5.548c0.683,0,1.379-0.093,2.071-0.287
			c22.373-6.309,39.457-25.184,43.525-48.085C368.751,259.609,365.991,255.656,361.852,254.922z"/>
	</g>
</g>
<g>
	<g>
		<path d="M334.021,153.574c-4.205,0-7.613,3.409-7.613,7.613c0,25.621-20.844,46.465-46.465,46.465
			c-4.205,0-7.613,3.409-7.613,7.613s3.407,7.613,7.613,7.613c34.016,0,61.69-27.674,61.69-61.69
			C341.634,156.982,338.226,153.574,334.021,153.574z"/>
	</g>
</g>
</svg>