<svg id="template" xmlns="http://www.w3.org/2000/svg" width="655" height="493" viewBox="0 0 655 493"><title>04 BRUNCH</title><path d="M480.307,225.744c-.266-1.753-.362-3.671-1.445-5.075,1.781-.214,3.347.328,5.083.489a7.486,7.486,0,0,0,2.112-.144c.381-.073,1.635-.717,1.927-.627a8.391,8.391,0,0,1-3.721-2.379,17.138,17.138,0,0,0,4.525-.206,6.978,6.978,0,0,0,3.9-2.165,1.2,1.2,0,0,0,.29-.507,1.348,1.348,0,0,0-.122-.725c-.869-2.364-1.686-4.872-3.853-6.156a10.146,10.146,0,0,0,5.892-3.287,7.423,7.423,0,0,0,1.144-1.5c1.148-2.091.652-4.717.12-7.042a36.517,36.517,0,0,0-11.257-.264,21,21,0,0,0-4.748.84c-1.264.424-1.769,1.2-2.794-.175-1.149-1.544-1.708-3.214-.27-4.509a12.026,12.026,0,0,1,4.877-2.892c-.549-2.733-2.575-4.9-4.55-6.863a52.965,52.965,0,0,0-4.648-4.664q-4.655-3.687-9.268-7.425a18.6,18.6,0,0,1-2.5-2.274c-1.819-2.113-2.534-5.083-4.647-6.9a12.061,12.061,0,0,0,4.759-1.144c.288-.136.561-.337.835-.5a26.789,26.789,0,0,0-3.415-4.313,5.658,5.658,0,0,0-2.218-1.572,6.61,6.61,0,0,0,2.767-.321,8.6,8.6,0,0,1,1.9-.637,9.389,9.389,0,0,0-2.018-3.623,6.365,6.365,0,0,0,3.312.193,2.157,2.157,0,0,0,.858-.377l.583-.36a31.045,31.045,0,0,0-4.6-6.135c1.631-.647,2.483-2.566,3.063-4.122a.341.341,0,0,0,.026-.238.352.352,0,0,0-.2-.164,22.216,22.216,0,0,1-5.266-3.754,1.109,1.109,0,0,1-.428-.589c-.171-.966,2.175-.621,2.682-.723a9.78,9.78,0,0,0,7.594-7.18c.184-.707.141-6.338.219-6.356-.179.041-.158-.113-.321-.03-3.647,1.86-7.736.379-11.579,1.059-3.323.588-6.873,3.338-6.769,7a12.854,12.854,0,0,0,.948,3.949.241.241,0,0,1,.017.176.235.235,0,0,1-.166.106,4.243,4.243,0,0,1-2.594-.12,2.581,2.581,0,0,1-1.267-.923,3.588,3.588,0,0,1-.4-2.112c.022-.855-.129-1.771.51-2.339a12.446,12.446,0,0,0,3.236-13.451.731.731,0,0,0-.237-.363.744.744,0,0,0-.472-.073,25.387,25.387,0,0,0-8.631,2.179,13.3,13.3,0,0,0-4.165,3.064,3.8,3.8,0,0,0-.977,3.512,10.736,10.736,0,0,0-7.191-2.269,1.235,1.235,0,0,1-.522-.041,1.034,1.034,0,0,1-.373-.294,7.992,7.992,0,0,1-1.581-5.061,13,13,0,0,1,.326-4.066c.363-1.316.624-2.981,1.944-3.331a12.355,12.355,0,0,0,7.218-5.318.566.566,0,0,0,.12-.345c-.019-.18-.194-.3-.351-.385a33.828,33.828,0,0,1-6.435-4.34c-3.582-3.359-12.459-4.32-13.648,2.016A5.546,5.546,0,0,0,414.79,102a.914.914,0,0,1,.321,1.329,2.055,2.055,0,0,1-1.326.766c-1.3.295-2.691.154-3.947.6a8.839,8.839,0,0,0-3.146,2.371c-.351.359-.4.137-.588.6a21.934,21.934,0,0,0-1.545,11.9,20.023,20.023,0,0,0-5.922.818,26.364,26.364,0,0,0-5.032,1.374,6.021,6.021,0,0,0,3.1-3.921c-2.669-.817-5.33-1.746-8.042-2.412-.724-.178-8.153-1.655-8.287-1.068.141-.618,1.061-.917,1.006-1.548-.032-.369-.393-.606-.716-.787l-2.329-1.3c-1.873-1.048-2.1-3.376.136-4.172a8.117,8.117,0,0,1,8.693,2.532,8.748,8.748,0,0,0,4.7,2.734,15.8,15.8,0,0,0,5.5.176,8.522,8.522,0,0,0,5.167-2.056,8.375,8.375,0,0,0,1.338-1.929,27.038,27.038,0,0,0,2.61-7.358,10.293,10.293,0,0,0-2.626-2.349,17.775,17.775,0,0,0-3.5-1.452c1.92-.577,3.91-.891,5.835-1.449a16.312,16.312,0,0,0,4.782-2.441,4.954,4.954,0,0,0,2.121-4.848,7.409,7.409,0,0,0-.863-2.282c-1.8-3.316-4.756-5.809-6.6-9.1a33.446,33.446,0,0,0-2.928,2.277,43.255,43.255,0,0,0-8.137,11.1,24.17,24.17,0,0,0-4.687.054.4.4,0,0,0-.265.1.425.425,0,0,0-.079.229c-.263,1.764-1.508,2.489-2.943,3.3-4.149,2.341-6.576,5.876-9.471,9.659a31.452,31.452,0,0,1-5.057,5.225,1.865,1.865,0,0,1-.616.379,4.183,4.183,0,0,1-.869.062c-1.062.089-1.766,1.015-2.755,1.285-.808.22-1.631-.184-2.268.5-.459.49-.608.408-.739,1.068a6.4,6.4,0,0,0-.176,2.267,2.172,2.172,0,0,0,1.3,1.748c.8.274,1.752-.092,2.474.341.888.532.8,1.826.592,2.841a8.607,8.607,0,0,0-1.841-.574,22.148,22.148,0,0,1,.79,6.824,35.928,35.928,0,0,1-5.882-6.035c-1.654-2.151-2.8-4.625-4.452-6.742a15.458,15.458,0,0,0-5.565-4.4c-1.732-.868-3.282-.858-5.181-1.051,0-1.265.137-2.575.136-3.84a7.649,7.649,0,0,0,4.406.542q2.191-.186,4.37-.489a8.557,8.557,0,0,0,2.189-.514,4.544,4.544,0,0,0,2.173-1.955,1.411,1.411,0,0,0,1.842.353,6.333,6.333,0,0,1,4.128-1.094c1.452.049,2.882.366,4.331.478a15.665,15.665,0,0,0,9.724-2.541,4.369,4.369,0,0,0,2.364-2.976,11.791,11.791,0,0,0,.366-5.428c-.615-2.684-3.327-4.884-5.928-5.544-.786-.2-3.478-.678-4.106.067a5.13,5.13,0,0,0,.829-5.107c-2.491-.185-4.959-.624-7.45-.815-3.946-.3-7.984-.027-10.961,2.8a14.74,14.74,0,0,0-2.1,2.52,5.13,5.13,0,0,1-1.878,2.036.428.428,0,0,1-.253.052c-.173-.034-.247-.235-.294-.4a13.155,13.155,0,0,0-1.889-4.069,19.175,19.175,0,0,0-11.336-7.806c-.273,2.622.044,5.2-.665,7.8a6.122,6.122,0,0,1-1.74,2.737,18.271,18.271,0,0,1-2.62,1.971c-.375.248-.329.42-.775.365a8.145,8.145,0,0,0-6.461,2.094,2.884,2.884,0,0,0-.918,1.365,3.026,3.026,0,0,0-.025,1.025,11.328,11.328,0,0,0,.586,2.595c.221.624.7,1.233.289,1.754a4.515,4.515,0,0,0-2.586,2.5,8.976,8.976,0,0,0-.965,7,16.973,16.973,0,0,0-4.155.094c0-.252-.044-.44-.026-.691a7.41,7.41,0,0,0-1.648-5.167c-.733-.892-1.667-1.6-2.411-2.483a28.025,28.025,0,0,1-3.484-5.473c-.912-1.776-2.351-4.755-4.689-4.791A13.43,13.43,0,0,1,306,84.344a10.164,10.164,0,0,0,.7-2.519c-.007.047,3.127-.175,3.341-.211a3.241,3.241,0,0,0,2.4-1.448c.752.984,1.554,1.331,2.31,2.312.92,1.192,2.586,1.472,4.091,1.543a12.737,12.737,0,0,0,3.867-.3A6.077,6.077,0,0,0,325.96,81.7c1.721-2.195,2.02-6.215,1.219-8.785a9.6,9.6,0,0,0-11.453,3.563,5.656,5.656,0,0,0-.67,1.267,1.516,1.516,0,0,1-.38.714c-.212.172-.546-.063-.6-.331a7.142,7.142,0,0,0,.936-5.711c-.513-1.921-1.715-2.277-2.971-3.818a7.381,7.381,0,0,0-3.9-2.168,22.029,22.029,0,0,0-7.7-.689,2.782,2.782,0,0,0-1.8.634c.448.534.369.671.829,1.194a3.734,3.734,0,0,1,.469,3.629,16.228,16.228,0,0,1-1.877,3.331,22.867,22.867,0,0,0-3.407,10.077c-.152,1.643.042,3.318-.117,4.923-.157,1.582-.185,3.054,1,4.292a7.71,7.71,0,0,0,2.32,1.564c.267.126.691.122.7.417a4.4,4.4,0,0,0-.266,4.028.38.38,0,0,1-.1.352,17.1,17.1,0,0,0-2.685-.121,5.722,5.722,0,0,0-2.569.711.112.112,0,0,1-.093.022c-.034-.013-.045-.055-.05-.091-.021-.143,0,.027.016-.117a4.353,4.353,0,0,0-2.322-4.167,8.839,8.839,0,0,0-4.918-.88,9.274,9.274,0,0,0-3.447.769,12.292,12.292,0,0,0-3.367,2.734c-2.455,2.531-5.03,5.291-5.6,8.771a17.431,17.431,0,0,0-.129,3.185,4.157,4.157,0,0,1-.872-3.454,8.226,8.226,0,0,1,1.519-2.951c2.464-3.516,5.441-6.429,7.125-10.379a7.379,7.379,0,0,0-.242-6.7c-3.783-6.061-12.7-4.888-18.12-1.933-.588.321-1.218.806-1.209,1.476.006.517.393,1.089.081,1.5-.074-.137-.079.306-.126.157a10.015,10.015,0,0,0-2.037-3.471,15.226,15.226,0,0,0-4.671-3.646c-.568-.287-3.95-2.147-4.386-1.313a.206.206,0,0,0-.005.132,8.576,8.576,0,0,1-.364,4.231c-.522,1.541-1.3,2.924-1.682,4.515a9.107,9.107,0,0,0,.157,4.82c.852,2.782,3.612,4.307,6.4,4.533a2.045,2.045,0,0,1,1.041.274.694.694,0,0,1,.22.947.927.927,0,0,1-.672.256c-1.808.131-3.7-.641-5.39.026a3.5,3.5,0,0,1-1.534.476,2.59,2.59,0,0,1-1.063-.472,10.419,10.419,0,0,0-12.924,2.03,2.971,2.971,0,0,0-.712,1.234,3.1,3.1,0,0,0,.036,1.219c.226,1.273.061,2.115.694,3.242l4.69,8.354c1.388,2.473,3.116,4.482,4.21,7.12a7.813,7.813,0,0,1,.49,6.081c-.968,4.58-.455,9.111-3.972,12.2a16.814,16.814,0,0,1-5.44,2.8,3.933,3.933,0,0,1-1.079.285.566.566,0,0,1-.448-.118.611.611,0,0,1-.13-.255c-.409-1.314-.647-1.89.058-3.072l2.265-3.794a14.2,14.2,0,0,0,1.705-3.579,14.209,14.209,0,0,0,.157-4.733c-.261-3.307-.359-7.143-1.788-10.2a19.52,19.52,0,0,0-6.05-6.788.969.969,0,0,0-.547-.244c-.485,0-.67.625-.712,1.108a10.655,10.655,0,0,1-1.047,4.716,32.492,32.492,0,0,1-2.189,3.386,5.906,5.906,0,0,1-3.823,2.256c-3.8.956-6.378,2.728-9.494,5.11a1.722,1.722,0,0,0-.223,2.2,5.846,5.846,0,0,0,1.769,1.617,5.169,5.169,0,0,1,1.866,1.918,25.386,25.386,0,0,0-7.944-.91,8.028,8.028,0,0,0-2.562.44,33.252,33.252,0,0,0,.4,9.072c.19,1.325.676,2.61.219,3.886a17.517,17.517,0,0,0-1.022,3.646c-.359,2.793.637,5.562,1.617,8.2l3.411,9.192c.537,1.448,1.208,2.9,1.691,4.354.435,1.311.463,2.77.837,4.124.158.572.838.8,1.425.887.919.137,1.85.155,2.774.234.439.038,2.336.093,2.479.6.126.45-1.761,1.436-2.11,1.675a16.616,16.616,0,0,0-2.371,1.624.4.4,0,0,1-.235.095c-.14-.007-.228-.152-.282-.282a3.257,3.257,0,0,1-.213-1.693,13.392,13.392,0,0,0-2.982,2.163,15.406,15.406,0,0,0-2.627,3.245c-1.121,1.708-1.687,3.612-2.678,5.378a6.361,6.361,0,0,1-3.038,3,13,13,0,0,0-3.757,2.463,25.255,25.255,0,0,0-4.251,5.447,1.932,1.932,0,0,0-.331.781c-.03.284-.086.559.18.662a10.267,10.267,0,0,0,6.855,4.172c.54.076,1.192-.049,1.436.439a9.589,9.589,0,0,0,3.857,3.528,15.387,15.387,0,0,0,2.452.926,8.632,8.632,0,0,0-1.155,3.532,13.819,13.819,0,0,0,.463,3.91c.228.962,1.179,2.317,2.3,1.329a5.952,5.952,0,0,1,2.277-1.079,3.4,3.4,0,0,1,1.8-.189c.926.239.938,1.013,1.1,1.783a3.755,3.755,0,0,0,1.242,2.2c.576.477,1.325.8,1.672,1.464a.371.371,0,0,1,.056.224.389.389,0,0,1-.124.2c-1.238,1.256-3.009.518-4.505.2a40.433,40.433,0,0,1-4.82-1.607,13.965,13.965,0,0,1-1.871-.758c-3.452-1.8-3.157-5.647-5.611-8.192a8.174,8.174,0,0,0-5.158-2.43,21.386,21.386,0,0,0-3.03.3,10.286,10.286,0,0,1-3.155-.289c-1.3-.334-2.232-1.318-3.482-1.815-3.07-1.22-6.535-.6-9.806-1.057a6.944,6.944,0,0,0-3.33-.139.527.527,0,0,0-.609.271,1.537,1.537,0,0,0-.145.7c-.1,2.151-.163,4.435.911,6.3a17.056,17.056,0,0,0,6.077,5.482,4.445,4.445,0,0,1-.908,1.529,16.2,16.2,0,0,0-1.607,2.8,5.143,5.143,0,0,0-.672,2.1c-.015.777.386,1.025,1.011,1.487a6.68,6.68,0,0,0,2.132.909l3.884,1.144-2.348,1.71a.328.328,0,0,0-.148.175c-.032.148.138.254.281.305a14.158,14.158,0,0,0,4.051.642c1.253.068,2.446-.021,3.7.014a.6.6,0,0,1,.4.109.563.563,0,0,1,.1.53,7.223,7.223,0,0,1-.431,1.254,15.68,15.68,0,0,0-.4,10.5.515.515,0,0,0,.253.331.5.5,0,0,0,.336-.033c.62-.223,1.182-.581,1.787-.843,2.352-1.016,5.065-.654,7.5-1.422.24-.076.48-.151.714-.244a5.135,5.135,0,0,0,2.119-1.582,2.055,2.055,0,0,1,1.2-.7,1.678,1.678,0,0,1,.788-.092,1.707,1.707,0,0,1,.964.608,6.137,6.137,0,0,1,1.182,3.541,45.607,45.607,0,0,0,.732,6.615,3.107,3.107,0,0,0,.555,1.3,2.861,2.861,0,0,0,2.323.516,5.284,5.284,0,0,0,1.527-.651,38.76,38.76,0,0,0,4.565-3.033,22.491,22.491,0,0,0,4.661-4.241,4.957,4.957,0,0,1,2-1.876,3.843,3.843,0,0,1,2.864.381c1.492.684,1.5,2.487.788,3.827a9.048,9.048,0,0,1-2.461,2.645,11.146,11.146,0,0,0-2.566,2.555,3.51,3.51,0,0,0-.33,3.454c1.1,2.023.855,4.791,2.582,6.485a9.394,9.394,0,0,0-2.76,2.43,19.278,19.278,0,0,0-1.326,2.126,15.991,15.991,0,0,0-1.784,5.114,19.8,19.8,0,0,0-.071,7.968.139.139,0,0,0,.138.128,13.948,13.948,0,0,0,3,.09q1.673-.016,3.339-.2a33.84,33.84,0,0,0,6.455-1.347c.756-.237,1.534-.377,2.306-.547a19.8,19.8,0,0,0,2.272-.738,1.515,1.515,0,0,1,.284-.077c.7-.1,1.009.534,1.388,1,.415.511.818,1.031,1.236,1.54a12.1,12.1,0,0,0,2.816,2.66q.116.073.234.141a10.956,10.956,0,0,0,4.581-2.978c.388-.435.741-.9,1.086-1.369a18.368,18.368,0,0,0,5.8,3.335,27.629,27.629,0,0,0,4.738,1.623,1.714,1.714,0,0,0,.826.072c-.029-.178-.067-.353-.108-.528a6.481,6.481,0,0,1-.279-1.752c.095-2.263.448-4.187.6-6.446a16.932,16.932,0,0,0,0-3.385,6.17,6.17,0,0,0-1.437-3.372,8.05,8.05,0,0,0-3.637-1.63,10.322,10.322,0,0,0-2.7-.261c-.7.026-1.834.472-2.447,0a1.323,1.323,0,0,1-.262-.3c-1.524-2.169-2.539-4.5-4.854-6a5.974,5.974,0,0,0-3.248-1.084,1.155,1.155,0,0,1-.844-.183c-.856-.835,1.19-2.657,1.717-3.175a6.966,6.966,0,0,1,3.344-1.961,8.567,8.567,0,0,1,3.622.171,10.9,10.9,0,0,1,4.148,1.686,10.716,10.716,0,0,1,3.116,4.049c.757,1.545,1.329,3.176,2.1,4.712a7.824,7.824,0,0,0,1.467,2.333,11.1,11.1,0,0,0,6.01,2.939c.375.055,1.153.235,1.427-.027a3.438,3.438,0,0,0,1.217-1.769,13.794,13.794,0,0,0,.341-6.127,8.479,8.479,0,0,0-3.372-5.184c-.951-.707-2.03-1.23-2.965-1.958a1.864,1.864,0,0,1-.663-.784c-.118-.326-.285-.807.049-.9a25.984,25.984,0,0,0,6.775-2.994,2.8,2.8,0,0,0,.893-.765c.219-.329.462-.6.241-.926a13.107,13.107,0,0,0-1.636-2.081c-1.232-1.209-2.841-1.941-4.082-3.138a26.573,26.573,0,0,1-3.391-4.94,6.851,6.851,0,0,0-2.848-2.995,7.152,7.152,0,0,0-4.159-.435,4.227,4.227,0,0,0-2.306,1.023,3.641,3.641,0,0,0-.959,2.443,11.273,11.273,0,0,0,.316,2.662c.13.66.3,1.944-.6,2.192s-1.21-.767-1.3-1.428c-.34-2.484-1.923-3.744-4.216-4.223-2.016-.422-4.259-.552-5.779-2.123a9.145,9.145,0,0,1-.9-1.167c-.881-1.267-1.995-1.979-2.748-3.325a2.777,2.777,0,0,0-3.043-1.019c-.9.2-1.9.626-2.665.113a2.868,2.868,0,0,1-.6-.632,12.179,12.179,0,0,0-3.006-2.64c-.8-.512-2.96-1.027-2.877-2.19.036-.5.5-.842.93-1.093A15.376,15.376,0,0,1,224,223.569c2.115-.677,3.616-2.316,5.022-3.949,1.5-1.743,2.851-3.462,5.161-4.072,2.531-.669,5.6.059,7.959,1.076a6.832,6.832,0,0,0,2,.675,1.811,1.811,0,0,0,1.812-.827,2.478,2.478,0,0,0,.084-1.514,6.109,6.109,0,0,0-1.619-3.676c-1.012-.9-1.4-2.281-2.663-2.772a3.05,3.05,0,0,0-3.62,1,4.909,4.909,0,0,0-.563,1.784l-.226,1.257c.147.241-.018.267-.266.4a1.271,1.271,0,0,1-.827.066,2.6,2.6,0,0,1-2.175-1.77,5.57,5.57,0,0,1,.007-1.457c.074-1.644-.325-3.25-.017-4.892.208-1.109.849-2,1.138-3.025a5.644,5.644,0,0,0-.6-3.637,7.736,7.736,0,0,0-2.127-2.671c-1.689-1.352-2.121-3.883-2.1-5.92a8.1,8.1,0,0,1,.565-3.19,21.97,21.97,0,0,0,1.669-3.487,9.118,9.118,0,0,0,.119-2.709c-.024-.423-.056-.187.18-.539a2.4,2.4,0,0,1,.982-.784,1.971,1.971,0,0,1,.74-.216c1.684-.086,2.823,2.968,3.884,4a10.528,10.528,0,0,0,4.2,2.474,8.408,8.408,0,0,0,5.069-.53,5.335,5.335,0,0,0,3.5-3.135c4.543,1.461,9.561-1.7,9.257-6.654-.092-1.5-.282-3.011-.407-4.506a8.765,8.765,0,0,1,.959-5.083q-2.434.191-4.853.53a16.859,16.859,0,0,0-3.125.6c-.182-.092.418-.31.223-.249a.663.663,0,0,1-.267.06c-.251-.03-.276-.385-.221-.633.217-.969.572-1.907.739-2.886a4.152,4.152,0,0,0-.4-2.887,4.84,4.84,0,0,0-2.579-2.4c-.548-.208-1.136-.295-1.687-.495-1.086-.395-1.982-1.212-3.076-1.583a4.565,4.565,0,0,0-5.049,1.782,5.424,5.424,0,0,0-.231,5.466c1.346,2.579,4.38,3.838,6.051,6.219a2.634,2.634,0,0,1,.584,1.595,1.191,1.191,0,0,1-1.05,1.168,2,2,0,0,1-1.092-.489,9.987,9.987,0,0,0-5.541-1.765c-2.1-.022-3.685.149-4.347-2.3a17.92,17.92,0,0,1-.331-3.332,13.822,13.822,0,0,0-1.124-4.486c-.732-1.666-1.981-3.309-3.77-3.64-.861-.159-.04-1.387.585-2a3.456,3.456,0,0,1,2.468-.672,29.747,29.747,0,0,1,3.625.172c1.868.224,3.7.719,5.563.954a10.049,10.049,0,0,0,5.536-.611c2.259-1.065,3.377-3.442,4.632-5.444,2.121-3.385,2.267-7.072,1.959-10.992-.056-.718-.271-1.523-.276-2.225a.673.673,0,0,1,.555-.6,2.135,2.135,0,0,1,.873.052,19.787,19.787,0,0,0,6.646-.09,5.025,5.025,0,0,1,4.77,1.476,2.3,2.3,0,0,1,.764,1.541c-.025.969-1.039,1.565-1.92,1.971l-1.842.847c-.449.207-.971.527-.945,1.02a1.2,1.2,0,0,0,.2.529,22.427,22.427,0,0,0,8.884,8.817c0,.1-.16.187-.161.291q-1.432.279-2.871.515a4.58,4.58,0,0,0,.525,2.378,39.3,39.3,0,0,0,3.388,7.167c1.664,2.44,3.965,4.485,7.009,4.79,3.73.374,7.14-2.782,9.076-5.639a22.286,22.286,0,0,0,6.505.678,16.422,16.422,0,0,0,8.313-2.831,8.819,8.819,0,0,0,2.407-3.4c.684-1.317,1.795-1.657,3.3-1.66a13.156,13.156,0,0,1,3.717.531c1.145.335,2.16,1.14,3.254,1.46a20.006,20.006,0,0,0,4.108.276,24.444,24.444,0,0,0,4.251-.064c2.91-.344,5.938-1.119,8.018-3.183a8.079,8.079,0,0,0,2.359-6c-.086-2.018-.954-5.157-3.093-5.875a.6.6,0,0,0-.26-.042.66.66,0,0,0-.316.17c-1.035.835-2.034,1.691-3.031,2.57a3.7,3.7,0,0,1-2.213,1.18,3.394,3.394,0,0,1-1.169-.246,16.23,16.23,0,0,1-7.355-5.345c-1.173-1.457-2.231-2.792-4.17-3.05a6.322,6.322,0,0,0-4.593,1.171,5.255,5.255,0,0,1-2.1,1.3c-1.376.23-5.056-3.252-3.259-4.054a1.324,1.324,0,0,1,.563-.073l5.612.085a9.621,9.621,0,0,0,3.774-.447,3.277,3.277,0,0,0,2.193-2.856,3.873,3.873,0,0,0-1.047-2.333,9.745,9.745,0,0,0-7.554-3.46c-1.671.03-3.3.488-4.977.4a8.389,8.389,0,0,1-4.391-1.857c-1.808-1.211-4.255-1.8-6.309-2.577a17.293,17.293,0,0,0-5.636-1.433,5.861,5.861,0,0,0-5.089,2.324c-1.011,1.556-.918,3.567-.659,5.4a7.931,7.931,0,0,0,1.42,3.853,2.185,2.185,0,0,1,.4.878,1.792,1.792,0,0,1-.268.995,8.955,8.955,0,0,1-2.01,2.577,4.166,4.166,0,0,0-.785.8,2.5,2.5,0,0,0-.343,1.038,4.847,4.847,0,0,0,1.355,4.007c.465.465,1.085,1.012.89,1.639a1.563,1.563,0,0,1-1.74-.11,4.586,4.586,0,0,1-1.181-1.416l-2.417-3.857c-.964-1.539.27-2.788.561-4.58.584-3.6,1.2-7.286,3-10.457a28.012,28.012,0,0,0,2.272-4.462c.159-.457,1.444-3.919,1.066-4.093.472.217.613.647.919,1.021a5.929,5.929,0,0,0,1.093.983,9.47,9.47,0,0,0,2.645,1.324,24.342,24.342,0,0,0,5.029.9,23.773,23.773,0,0,0,3.951.032c1.148,2.148,2.193,4.538,4.494,5.334a10.534,10.534,0,0,0,2.1.419,11.563,11.563,0,0,0,5.271-.133c1.676-.582,3.125-2.231,2.855-3.985.214,1.386,2.107,1.93,3.14,2.373a19.349,19.349,0,0,0,4.866,1.79,11.793,11.793,0,0,0,3.921-.425,14.183,14.183,0,0,1,4.46.282,49.116,49.116,0,0,1,8.889,2.7c2.04.765,3.616,3.6,4.481,5.487a12.047,12.047,0,0,0,.719,1.462,8.409,8.409,0,0,0,1.936,1.956c1.517,1.217,3.37,2.463,5.255,1.986,2.716-.688,5.2,1.336,7.993,1.14a9.257,9.257,0,0,0,7.182-3.764,9.746,9.746,0,0,0,1.191-2.842c.141-.532.078-2.387.451-2.734.933-.868,1.937.929,2.363,1.465.367.461.842.828,1.205,1.292a3.567,3.567,0,0,1,.63,3.063,14.679,14.679,0,0,0-4.683,2.174.66.66,0,0,0-.271.292.652.652,0,0,0,.027.393,9.594,9.594,0,0,0,4.37,5.574c.411.237.112,1.124-.2,1.479a1.117,1.117,0,0,1-1.3.248,2.7,2.7,0,0,1-.838-.878,4.313,4.313,0,0,0-1.712-1.4,6.871,6.871,0,0,0-2.068-.413c-2.777-.263-5.559-.526-8.348-.516-.251-.245-.623-.053-.826.233a1.841,1.841,0,0,0-.237,1.009,15.971,15.971,0,0,0,.129,3.579,8.032,8.032,0,0,0,2.22,4.186,10.033,10.033,0,0,0,6.05,2.661c1.34.139,2.914-.283,4.167-.094,1.306.2,1.785,1.467,2.427,2.6a14.558,14.558,0,0,0,21.67,4.261,2.979,2.979,0,0,0,.961-1.092,2.781,2.781,0,0,0,.1-1.522,8.588,8.588,0,0,0-3.038-5.3,3.937,3.937,0,0,0,.923-1.151c.806-1.236.895-2.786,1.251-4.218a11.092,11.092,0,0,1,.958-2.5,8.2,8.2,0,0,1,2.346-3.192c.256-.217.553-.52.431-.833a.7.7,0,0,0-.192-.248c-1.1-1.015-2.641-1.108-4.032-1.389a16.953,16.953,0,0,0-5.022-.252c-.584.058-2.044.625-2.444,0-.259-.4.067-1.2.289-1.556a2.9,2.9,0,0,1,.941-.848c1.741-1.123,3.946-2.326,6.06-1.87.814.176,1.6.467,2.423.6a9.786,9.786,0,0,0,2.726-.016,20.949,20.949,0,0,0,5.475-1.436,8.16,8.16,0,0,1,9.81,3.408,1.967,1.967,0,0,1,.352,1.173c-.115,1.034-1.427,1.337-2.414,1.664a5.914,5.914,0,0,0-3.945,5.244c-.106,2.692,2.589,5.183,4.28,7.031l7.036,7.688a19.188,19.188,0,0,1,2.6,3.781c1.756,3.145.683,6.6,3.163,9.549a15.355,15.355,0,0,0,5.591,3.931c.968.433,1.007.668,2.063.759.343.029.6.333.913.194a.764.764,0,0,0,.3-.3,12.633,12.633,0,0,0,1.7-3.988,23.061,23.061,0,0,0,1.078-4.5,20.762,20.762,0,0,0,.034-4.578,7.082,7.082,0,0,0,4.266,1.609c-.013-.093-.085.072-.145.145a9.007,9.007,0,0,0-1.784,3.581,5.292,5.292,0,0,0,.478,3.982c.821,1.308,2.255,2.4,3.227,3.622.99,1.244,1.947,2.744,1.67,4.31a8.855,8.855,0,0,0-1.969,2.375,14.035,14.035,0,0,0-2.569,6.308,6.492,6.492,0,0,0,2.555,6.03,5.351,5.351,0,0,0-2.031,3.358,2.385,2.385,0,0,0,.3,2.279,21.029,21.029,0,0,1-6.041,1.22,9.776,9.776,0,0,0,2.3-4.361,27.587,27.587,0,0,0,1.1-8.162,9.666,9.666,0,0,0-6.356-.311,9.3,9.3,0,0,0-5.079,3.814c-.471-2.842-2.555-4.923-5.082-6.305a20.827,20.827,0,0,0-8.31-2.131c.53,2.911-.24,6.131-.521,9.077a13.021,13.021,0,0,0,.52,5.789,5.72,5.72,0,0,0,1.021,1.923,2.8,2.8,0,0,0,1.88,1.012c1.207.075,3.7-.308,3.876,1.523.295,3.064-6.935,3.051-8.583,2.991-2.762-.1-5.49-.887-8.248-.72-1.531-.126-2.662.936-3.571,2.175a11.794,11.794,0,0,0-1.715,4.244,19.551,19.551,0,0,1-1.385,4.382c-.159.308-.337.606-.515.9a4.679,4.679,0,0,0,2.965,1.108c1.6.127,3.323.225,4.677-.633,2.157-1.367,2.368-4.432,3.9-6.473a5,5,0,0,1,3.575-2.035,5.133,5.133,0,0,1,3.687,1.372c1.9,1.706,3.975,3.247,5.382,5.461a14.6,14.6,0,0,1,2.3,7.731,6.164,6.164,0,0,1-1.217,4.116,7.8,7.8,0,0,1-4.237,2,27.014,27.014,0,0,1-10.967.512,10.182,10.182,0,0,0,6.08,8.177A20.147,20.147,0,0,0,401.689,246c-1.573,2.377-2.146,5.6-.776,8.1a7.971,7.971,0,0,0,1.759,2.355,10.47,10.47,0,0,1,7.293-2.323c.3.017.5.036.792.075a17.688,17.688,0,0,0-2.608,9.083,37.907,37.907,0,0,1-.021,5.661,1.808,1.808,0,0,1-.764,1.17,1.806,1.806,0,0,0,1.161.434,14.063,14.063,0,0,0,5.753-.419,8.457,8.457,0,0,0,4.612-3.339,11.645,11.645,0,0,0,3.089,8.857,12,12,0,0,0,8.685,3.917,11.222,11.222,0,0,0-.117-3.721,7.537,7.537,0,0,0,3.11,3.157,30.7,30.7,0,0,0,4.088,1.879,11.067,11.067,0,0,1,1.739.861,8.744,8.744,0,0,1,2.775,3.153c1.96-2.449,3.776-5.371,4.019-8.5a15.609,15.609,0,0,0-.2-3.25,14.794,14.794,0,0,0-2.874-6.614,7.03,7.03,0,0,0,2.6-1.242,7.479,7.479,0,0,0,4.3,3.067,13.707,13.707,0,0,0,9.377-.4c.357-.149.53-.152.767-.457-.257.33-1.154-2.476-1.17-2.557-.179-.907-.353-1.824-.591-2.717a10.412,10.412,0,0,0-.636-2.5,10.745,10.745,0,0,0,8.418-.363c.818-.4,1.585-.9,2.43-1.233a6.756,6.756,0,0,1,2.731-.463c.786.029,1.614.5,2.4.386.472-.066.427-.172.359-.639a6.109,6.109,0,0,0-.3-1.118,14.889,14.889,0,0,0-5.348-7.544,9.945,9.945,0,0,0-10.514-.439,7.516,7.516,0,0,0-2,1.773c-.07-.7-.556-1.017-.95-1.594l-1.221-1.788a4.575,4.575,0,0,0-1.393-1.353,3.175,3.175,0,0,0,1.111-3.37,7.466,7.466,0,0,1,7.149,1.474,27.654,27.654,0,0,1,.7-6.33c.459-1.687,1.391-3.416,1.466-5.173a7.9,7.9,0,0,0-.38-2.7c-.166-.526-.949-1.57.078-1.74a1.188,1.188,0,0,1,.974.372,7.739,7.739,0,0,1,.674.843,6.757,6.757,0,0,0,2.918,1.939,15.642,15.642,0,0,0,3.8.959c1.087.132,2.188.15,3.265.35a8.493,8.493,0,0,1,2.694.769l2.074,1.2c.293.169.817.922,1.2.82.62-.165.5-1.885.5-2.356A39.67,39.67,0,0,0,480.307,225.744Z" fill="#e6e6e6"/><path d="M319.14,413.591l-.028,0C319.125,413.646,319.133,413.625,319.14,413.591Z" fill="none" stroke="#000" stroke-linecap="round" stroke-linejoin="round"/><path d="M58.244,124.116c1.071-1.5,5.781-2.357,5.781-2.357s.738,4.73-.333,6.235a3.344,3.344,0,1,1-5.449-3.878Z" fill="none" stroke="#000" stroke-linecap="round" stroke-linejoin="round" stroke-dasharray="2 4"/><path d="M72.321,124.116c1.071-1.5,5.781-2.357,5.781-2.357s.738,4.73-.333,6.235a3.344,3.344,0,1,1-5.449-3.878Z" fill="none" stroke="#000" stroke-linecap="round" stroke-linejoin="round" stroke-dasharray="2 4"/><path d="M65.581,136.62c1.071-1.5,5.781-2.357,5.781-2.357s.738,4.73-.333,6.235a3.344,3.344,0,1,1-5.449-3.878Z" fill="none" stroke="#000" stroke-linecap="round" stroke-linejoin="round" stroke-dasharray="2 4"/><path d="M86.4,124.115c1.071-1.5,5.781-2.357,5.781-2.357s.738,4.73-.333,6.235a3.344,3.344,0,1,1-5.449-3.878Z" fill="none" stroke="#000" stroke-linecap="round" stroke-linejoin="round" stroke-dasharray="2 4"/><path d="M78.42,136.62c1.071-1.5,5.781-2.357,5.781-2.357s.738,4.73-.333,6.235a3.344,3.344,0,1,1-5.449-3.878Z" fill="none" stroke="#000" stroke-linecap="round" stroke-linejoin="round" stroke-dasharray="2 4"/><path d="M91.259,136.62c1.071-1.5,5.781-2.357,5.781-2.357s.738,4.73-.333,6.235a3.344,3.344,0,1,1-5.449-3.878Z" fill="none" stroke="#000" stroke-linecap="round" stroke-linejoin="round" stroke-dasharray="2 4"/><polyline points="118.254 119.481 115.37 124.855 125.637 127.451 96.453 156.482 110.218 130.835 99.952 128.24 108.869 119.368" fill="none" stroke="#000" stroke-linecap="round" stroke-linejoin="round" stroke-dasharray="2 4"/><path d="M123.256,119.339a13.4,13.4,0,1,0,0-26.8c-.081,0-.162,0-.243.006A23.449,23.449,0,0,0,80.5,75.881a13.4,13.4,0,0,0-17.442,18.4,13.4,13.4,0,0,0,6.6,25.064h53.6Z" fill="none" stroke="#000" stroke-linecap="round" stroke-linejoin="round" stroke-dasharray="2 4"/><path d="M319.14,413.591l-.028,0C319.125,413.646,319.133,413.625,319.14,413.591Z" fill="none" stroke="#000" stroke-linecap="round" stroke-linejoin="round" stroke-dasharray="2 4"/><path d="M409.306,125.494a40.485,40.485,0,0,1-.721,11.994,26.042,26.042,0,0,1-8.6,13.691c-3.566,2.916-6.754,5.747-11.024,7.475a19.786,19.786,0,0,1-5.587,1.771c-1.791.13-3.585.128-5.378.2-.742.029-1.206.231-1.372-.635a5.226,5.226,0,0,1,.253-1.83l.6-3.252c.841-4.593.369-9.471.067-14.122-.2-3.007-.449-6.01-.682-9.015-.218-2.808-.68-5.595.318-8.282l1.008-2.714a21.151,21.151,0,0,1,3.741-6.784,36.842,36.842,0,0,1,3.8-4.036c.784-.7,1.553-1.508,2.37-2.162a15.139,15.139,0,0,1,2.209-1.705c-.17.091-.7.06-.941.142-.416.141-.821.292-1.23.453a15.509,15.509,0,0,0-4.73,2.937c-.677.615-1.3,1.288-1.915,1.963q-1.083,1.186-2.153,2.383c-.252.282-1.226,1.69-1.583,1.467-.16-.1-.175-.537-.2-.7a15.381,15.381,0,0,1-.056-2.454,18.586,18.586,0,0,1,2.295-8.291,19.177,19.177,0,0,1,4.58-6.006c3.114-2.681,6.51-5.2,10.459-6.338-.116-.2-.41-.194-.642-.156a35.3,35.3,0,0,0-7.306,1.735,17.634,17.634,0,0,0-1.685.769q-.411.214-.81.45c-.158.093-.549.467-.648.2a2.528,2.528,0,0,1,.022-.807q.014-.414.014-.829,0-.8-.064-1.605a27.551,27.551,0,0,0-.466-3.236.965.965,0,0,0-.331-.663,1.926,1.926,0,0,0-.141.86,16.878,16.878,0,0,1-1.265,6.1c-1.717,4.169-5.391,6.75-8.5,10.014-.808.848-1.875,1.753-3.008,1.455a3.057,3.057,0,0,1-1.188-.731c-2.419-2.124-4.139-4.909-5.938-7.579-.687-1.018-1.633-2.145-2.855-2.021l1.874,3.769a81.5,81.5,0,0,1,4.779,10.927,40.368,40.368,0,0,1,2.068,9.364c.227,2.97.725,5.926.688,8.928,0,.392-.24.652-.626.578a1.906,1.906,0,0,1-.948-.663,52.672,52.672,0,0,0-6.226-5.623,6.033,6.033,0,0,0-1.721-1.024,3.2,3.2,0,0,0-1.423-.264c.029.359.4.568.711.755a8.544,8.544,0,0,1,.971.722,23.386,23.386,0,0,1,4.387,4.319,51.059,51.059,0,0,1,3.052,4.765c1.392,2.417,1.4,5.364,1.129,8.067a34.953,34.953,0,0,1-2.259,8.319c-1.123,3.11-2.363,6.255-3.744,9.251A47.969,47.969,0,0,1,357.4,166.1c-1.382,1.863-2.922,3.6-4.424,5.362-1.433,1.684-2.568,3.62-3.994,5.278a1.182,1.182,0,0,1-1.418.418,1.482,1.482,0,0,1-.351-.343l-4.488-5.488a132.081,132.081,0,0,0-9.457-10.633c-1.052-1.045-2.192-1.994-3.322-2.952a27.684,27.684,0,0,1-2.941-2.343,5.6,5.6,0,0,1-1.095-2.907c-.92-5.757-.52-10.961.251-16.74a40.069,40.069,0,0,1,3.47-11.319,24.039,24.039,0,0,1,11.729-11.644.95.95,0,0,0,.575-.471,11.534,11.534,0,0,0-5.336,1.726c-.612.373-1.385,1.2-2.092,1.31-.959.154-.873-.694-.606-1.284a41.649,41.649,0,0,1,1.992-3.712l2.4-4.14c1.646-2.834,3.717-5.4,5.1-8.381.079-.169.12-.429-.057-.487a.333.333,0,0,0-.249.054c-2.98,1.567-4.652,4.315-6.546,6.971a58.042,58.042,0,0,0-5.356,8.64,5.912,5.912,0,0,1-1.4,1.914.9.9,0,0,1-.271-.761c-.072-2.617-.223-5.231-.241-7.849a41.871,41.871,0,0,1,.531-7.578,25.124,25.124,0,0,1,.929-3.676q.309-.913.7-1.8a8.207,8.207,0,0,0,.688-1.426.721.721,0,0,0-.49.154c-.237.163-.467.338-.693.517a14.761,14.761,0,0,0-3.458,3.923c-.059.1-.205-.087-.319-.084-.92-2.511-2.225-4.775-3.384-7.181a3.013,3.013,0,0,0-1.122-1.455c-.092-.05-.235-.074-.277.022a.206.206,0,0,0,.01.142c1.528,4.791,3.528,9.481,4.285,14.477a20.8,20.8,0,0,1-1.469,10.5c-1.982,5.091-3.473,10.392-5.534,15.445a76.717,76.717,0,0,0-2.7,7.4c-.737,2.52-1.167,5.081-1.892,7.6a.64.64,0,0,1-.266.429.613.613,0,0,1-.505-.056c-2.82-1.234-5.056-4-7.041-6.263a53.817,53.817,0,0,1-5.829-7.939,25.559,25.559,0,0,1-3.4-7.7c-.641-3.274-1.17-6.713-.449-10.02.731-3.352,2.875-6.378,5.064-8.935.462-.539.978-.99,1.458-1.462a7.194,7.194,0,0,0,.779-1.52,7.771,7.771,0,0,0-3.129,2.492c-1.674,1.894-3.507,3.638-5.279,5.451a3.514,3.514,0,0,1-.913-1.9A102.264,102.264,0,0,0,293.2,94.762a66.03,66.03,0,0,0-2.718-8.142,2.263,2.263,0,0,0-1.1-1.487c.078.029.477,3.286.518,3.556a56.789,56.789,0,0,1,.792,5.662,57.835,57.835,0,0,1,.333,8.076c-.006.193-.108.014-.284.093-1.6-1.631-3.3-3.208-4.832-4.906A6.744,6.744,0,0,0,281.44,95.5c-.172-.024-.418.017-.414.191a.312.312,0,0,0,.141.21c1.776,1.483,3.335,3.242,4.986,4.881a14.974,14.974,0,0,1,3.353,5.441,18.317,18.317,0,0,1,.613,6.552c-.035,1.673-.17,3.341-.29,5.01a41.127,41.127,0,0,0-.045,7.588c.039.345.36,1.243.017,1.457-.248.155-.669-.065-.888-.175a13.348,13.348,0,0,1-1.678-1.176,34.637,34.637,0,0,1-2.729-2.181,50.83,50.83,0,0,1-4.771-4.843,119.3,119.3,0,0,1-7.638-9.334,41.034,41.034,0,0,1-3.085-5.068c-.463-.913-.885-1.846-1.258-2.8-.165-.421-.231-.82-.354-1.243-.072-.248-.563-1-.517-1.213-.605,2.708,1.013,5.654,2.444,7.838,2.287,3.49,4.665,6.9,6.9,10.424-.5.282-1.121-.019-1.627-.3a21.817,21.817,0,0,0-3.126-1.287,2.831,2.831,0,0,0-.906-.223c-.654-.013.077.687.225.865a10.347,10.347,0,0,0,1.593,1.445c1.8,1.418,3.746,2.626,5.516,4.109,1.83,1.533,3.566,3.173,5.277,4.837a47.919,47.919,0,0,1,4.916,5.772c2.443,3.254,4.136,7.017,6.5,10.365,3.367,4.761,7.914,8.606,12.25,12.451,5.594,4.959,11.291,10.464,15.294,16.79a48.011,48.011,0,0,1,6.54,15.329c1.1,5.091.952,10.227.755,15.394a53.741,53.741,0,0,1-2.707,15.4,32.478,32.478,0,0,1-2.147,4.924,5.634,5.634,0,0,1-1.479,1.989c-1.034.759-1.547.213-2.331-.425-4.829-3.929-10.691-5.762-15.8-9.2a38.943,38.943,0,0,1-12.3-13.187c-1.3-2.348-1.59-5.738-1.933-8.385a64.723,64.723,0,0,1-.488-8.9c.058-6.321.716-12.664.779-18.946q.02-1.985-.032-3.969c-.071-2.645-.243-5.287-.532-7.917-.184-1.668-.5-3.5-1.8-4.562a.336.336,0,0,0-.244-.1c-.119.017-.185.145-.227.258a4.751,4.751,0,0,0-.151,2.658c.681,6.465-.114,12.688-1.4,19-.215,1.057-.458,2.108-.74,3.149-.168.622-.362,1.981-1.1,2.219-.351.114-.654-.266-.813-.6-.9-1.875-1.64-3.811-2.545-5.684a29,29,0,0,0-2.567-4.411c-1.784-2.465-3.923-4.739-5.888-7-2.226-2.555-4.8-4.753-7.077-7.236a50.061,50.061,0,0,1-4.647-5.1,23.607,23.607,0,0,1-2.8-5.638,46.083,46.083,0,0,1-2.192-12.311c-.021-.332-.194-.783-.516-.7a.506.506,0,0,0-.258.213,1.581,1.581,0,0,0-.389,1.168c-.2,3.353.021,6.737.09,10.092.026,1.26-.583.642-1.2.024a18.049,18.049,0,0,1-1.261-1.437c-1.276-1.576-2.466-3.234-3.791-4.769-1.15-1.332-2.6-2.394-3.66-3.832a8.47,8.47,0,0,1-1.645-5.057c-.069-1.2-.881-.036-1.089.428a11.7,11.7,0,0,0-.82,3.5.4.4,0,0,1-.105.274.367.367,0,0,1-.216.065,7.892,7.892,0,0,1-2.4-.668,23.587,23.587,0,0,0-2.866-.6c-.56-.08-3.552-.77-3.031.311.158.327.736.557,1.016.74q1.589,1.042,3.122,2.165a41.143,41.143,0,0,1,5.7,4.965c.742.794,1.428,1.638,2.113,2.482l4.878,6.007c2.564,3.157,4.794,6.819,7.83,9.632.117.108.241.282.144.408a.325.325,0,0,1-.258.087c-3.429.1-6.6-1.151-9.943-1.744a51.787,51.787,0,0,0-7.193-.765c-1.416-.051-2.83-.162-4.247-.2a14.4,14.4,0,0,1-3.653-.133,7.176,7.176,0,0,1-3.167-2.253,22.667,22.667,0,0,1-2.539-3.142,30.183,30.183,0,0,1-2.27-3.9c-.532-1.227-1.169-2.408-1.24-.17-.089,2.783,1.812,5.225,3.116,7.528.692,1.223.419,2.3-1.156,2.064l-6.758-1.01a29.424,29.424,0,0,0-7.49-.228c-2.3.247-4.527.316-6.6,1.5-.306.175-.639.557-.408.823a.623.623,0,0,0,.466.149c3.909.131,7.769.039,11.646.459.683.074,5.808.862,4.259,2.216a4.673,4.673,0,0,1-1.035.6,18.04,18.04,0,0,0-4.277,3.338,12.543,12.543,0,0,0-3.088,5.291,1.276,1.276,0,0,0-.073.7c.257,0,.453-.217.616-.417,5.976-7.326,15.064-9.393,24.108-8.064a68.469,68.469,0,0,1,11.183,2.765l.185.06c4.334,1.422,8.91,2.738,12.662,5.431a39.656,39.656,0,0,1,10.087,11.107c3.769,5.885,4.733,12.954,6.336,19.615a118.636,118.636,0,0,0,8.106,22.978c.214.452.453.907.645,1.365.2.476,2.088,4.405,1.45,4.628a19.707,19.707,0,0,1-4.513.44q-2.414.22-4.84.256a64.279,64.279,0,0,1-9.469-.557,30.1,30.1,0,0,1-8.031-1.851,28.121,28.121,0,0,1-6.337-4.141,37.742,37.742,0,0,1-6.775-7.193c-2.629-3.73-5.228-7.981-6.069-12.528-.1-.561-.221-2.032-.929-1.441-.335.28-.356,1.067-.39,1.455a18.724,18.724,0,0,0,.115,3.093,30.724,30.724,0,0,0,2.476,8.944c.266.681.533,1.363.862,2.015.266.527.973,1.814-.294,1.542a15.137,15.137,0,0,1-2.717-1.1c-1.177-.508-2.3-1.255-3.426-1.87a29.326,29.326,0,0,1-7.344-5.983,42.248,42.248,0,0,1-4.211-5.4" fill="none" stroke="#87b26b" stroke-linecap="round" stroke-linejoin="round"/><path d="M413.7,126.87q-.31.866-.7,1.7c-.053.112-.518,1.213-.642.584-.121-.611-.224-1.213-.308-1.832-.121-.894-.274-1.775-.47-2.645" fill="none" stroke="#87b26b" stroke-linecap="round" stroke-linejoin="round"/><path d="M352.15,254.784a74.684,74.684,0,0,1,1.727-14.035l.565-1.9q.181-.725.394-1.441.41-1.383.939-2.727a45.7,45.7,0,0,1,13.955-19.022,33.058,33.058,0,0,1,40.78-.173c2.78,2.148,5.3,4.334,5.748,7.956.435,3.506.485,8.005-1.287,11.147-1.553,2.753-4.524,4.468-5.806,7.388,1.108-.062,1.914-1.023,2.663-1.841,2.708-2.959,6.856-4.162,8.031-8.364.135-.482.089,0,.256-.474a.629.629,0,0,1,.253-.371c.342-.182.652.291.753.665,1.664,6.2,2.812,13.556,1.5,19.919l-1.466,7.132c.263.1.523-.144.692-.37,4.3-5.762,4.353-14.048,4.287-20.92-.008-.809.277-.989,1.048-1.236a2.68,2.68,0,0,1,2.291.483c3.638,2.547,6.64,5.848,9.772,8.965a57.648,57.648,0,0,0,5.014,4.552,11.687,11.687,0,0,0,3.55,2.091.441.441,0,0,0,.315.02c.229-.1.132-.449,0-.661-1.54-2.4-3.831-4.291-5.485-6.667a66.784,66.784,0,0,1-4.46-7.571c-2.663-5.157-4.947-10.518-7.982-15.477-1.671-2.73-4.128-5.61-5.26-8.557a.57.57,0,0,1-.054-.355c.055-.189.277-.264.47-.3,1.363-.286,2.89-.239,4.312-.452a35.6,35.6,0,0,0,7.9-2.632,19.786,19.786,0,0,1,6.427-1.778c4.412-.191,7.819,4.565,9.921,7.905a.936.936,0,0,0,.305.344.314.314,0,0,0,.414-.071.447.447,0,0,0,.042-.24,12.452,12.452,0,0,0-3.746-8.48c-3.282-3.08,5.581-3.374,6.931-3.4,5.114-.109,11.488.68,15.888,3.5.168-.6-.321-1.171-.785-1.588-4.648-4.179-11.485-6.379-17.6-7.283a.691.691,0,0,1-.453-.185c-.6-.736,1.694-2.546,2.129-2.936q2.545-2.287,4.959-4.715a16.292,16.292,0,0,0,3.214-5.019c.273-.564.384-1.458-.221-1.619l-2.779,2.708c-1.793,1.747-3.591,3.5-5.529,5.085-.58.475-5.184,4.14-5.617,3.625a.661.661,0,0,1-.1-.468c.1-1.765,1.252-3.116,2.009-4.669a23.435,23.435,0,0,0,2.467-10.725c-.027-.666-.117-1.328-.208-1.989a34.894,34.894,0,0,0-.736-4.131c-.371.123-.482.584-.535.971-.461,3.367-.131,7.571-1.8,10.623a45.586,45.586,0,0,1-4.059,6c-1.69,2.188-3.853,5.316-6.169,6.826a28.136,28.136,0,0,1-8.343,3.262c-1.208.317-2.421.621-3.65.843a27.832,27.832,0,0,1-7.711.538,57.558,57.558,0,0,1-8.275-1.616c-5.481-1.437-10.83-3.364-16.379-4.546-4.977-1.061-8.913-2.027-14-1.9a58.956,58.956,0,0,0-18.332,3.311c-1.19.432-2.379,1.27-3.694,1.125-3.642-.4,1.247-12.986,1.942-14.435a15.574,15.574,0,0,1,1.711-2.98c1.9-2.4,5.559-2.749,8.256-3.725a67.155,67.155,0,0,0,12.189-6.355,91.379,91.379,0,0,0,11.607-8.469,100.306,100.306,0,0,0,7.552-7.745c.664-.708,1.328-1.416,2.02-2.1a55.593,55.593,0,0,1,5.793-4.667,29.715,29.715,0,0,1,20.209-6.157,3.777,3.777,0,0,0,.457.064.367.367,0,0,0,.248-.057c.158-.134,0-.386-.169-.511a7.6,7.6,0,0,0-4.741-1.057c-3.951.058-8.028.584-11.421,2.607-.211.126.159-.21-.081-.16a5.2,5.2,0,0,1,1.442-2.072,25.721,25.721,0,0,1,7.145-4.994,28,28,0,0,1,5.813-2.029,57.209,57.209,0,0,1,5.776-.51.292.292,0,0,0,.2-.083c.108-.139-.088-.313-.255-.368a14.156,14.156,0,0,0-5.518-.136,19.3,19.3,0,0,0-5.7,1.553c-.125.056.085-.115-.052-.109-.095-.144-.019-.335.059-.489a25.346,25.346,0,0,1,3.274-4.9,30.753,30.753,0,0,1,4.554-4.541c.747-.574,1.562-1.033,2.276-1.642.324-.277,1.6-1.832,1.91-1.805-1.091-.093-2.571.756-3.5,1.32a33.326,33.326,0,0,0-6.019,4.381,40.379,40.379,0,0,0-4.241,5.486,25.877,25.877,0,0,1-3.909,3.846c-1.675,1.5-3.391,2.959-5.085,4.412a15.1,15.1,0,0,1-3.737,2.462c-.413.18-.461.176-.762-.16a1.464,1.464,0,0,1-.266-1.275,4.741,4.741,0,0,1,.533-1.237,39.124,39.124,0,0,0,3.237-8.255c.7-2.546,1.676-4.781,2.012-7.427" fill="none" stroke="#87b26b" stroke-linecap="round" stroke-linejoin="round"/><path d="M221.25,201.341a12.88,12.88,0,0,0,1.019,2.274,35.172,35.172,0,0,0,6.9,8.4c1.11.986,2.258,1.926,3.382,2.895a31.826,31.826,0,0,1,3.371,2.952c.151.171.937,1.009.307.993a46.228,46.228,0,0,1-6.506-1.041c-1.76-.3-3.525-.589-5.3-.779a53.136,53.136,0,0,0-9.7-.148c-3.321.255-7.156,1.321-9.58,3.733-.933.929-2.276,2.322-2.585,3.631a.276.276,0,0,0,0,.178c.061.131.256.089.384.023,1.692-.871,3.376-1.789,5.1-2.633a12.754,12.754,0,0,1,3.444-1.418,25.992,25.992,0,0,1,6.4-.129,23.4,23.4,0,0,1,2.9.453q.718.159,1.425.363c.2.056,1.155.217,1.082.5a.209.209,0,0,1-.109.119,3.01,3.01,0,0,1-.52.2,40.641,40.641,0,0,0-13.549,8.867c-.208.206-.932,1.027-.224,1.171,1.01.205,2.5-1.288,3.284-1.783,1.138-.716,2.3-1.389,3.5-2.008a38.21,38.21,0,0,1,7.467-2.966,32.239,32.239,0,0,1,13.529-.533c4.5.657,9.171,2.824,13.051,5.148,2,1.2,3.9,2.516,5.832,3.81,1.857,1.245,3.429,2.963,5.167,4.366a.771.771,0,0,1,.3.37c.144.549-7.655,2.724-8.467,2.95a87.684,87.684,0,0,1-9.622,2.109c-3.455.556-6.62,1.12-10.11.444a11.659,11.659,0,0,1-5.206-2.284c-1.212-.993-2.314-2.166-3.421-3.273-.313-.308-.759-.745-1.226-.683a7.1,7.1,0,0,0,1.115,2.129,13.709,13.709,0,0,0,2.53,2.965c.493.452,1.073.842,1.539,1.318.239.244.928.832.964,1.152.032.286-.345.416-.632.441a62.307,62.307,0,0,0-9.346,1.164c-2.807.688-5.587,1.778-8.342,2.7a17.045,17.045,0,0,0-6.923,3.971.744.744,0,0,0-.236.383.279.279,0,0,0,.231.33.391.391,0,0,0,.162-.046,42.472,42.472,0,0,1,7.589-3.024,25.975,25.975,0,0,1,8.365-.663,4.4,4.4,0,0,1,2,.528,13.849,13.849,0,0,0-5.574,3.9,23.27,23.27,0,0,0-2.243,2.707,6.471,6.471,0,0,0-.833,1.529c-.105.307-.076,1.266-.242,1.462a29.19,29.19,0,0,1,6.229-5.652,41.021,41.021,0,0,1,9.836-4.494,39.288,39.288,0,0,1,8.086-1.659,27.661,27.661,0,0,1,7.457,0c1.735.311-.3.948-1.044,1.357a23.144,23.144,0,0,0-4.929,3.671,41.823,41.823,0,0,0-7.2,10.044,31.454,31.454,0,0,0-3.36,8.283,11.1,11.1,0,0,0-.342,2.711,20.917,20.917,0,0,1,.423,2.091,43.247,43.247,0,0,1,8.614-15.976,18.808,18.808,0,0,1,3.747-3.409,19.144,19.144,0,0,1,2.181-1.3c.572-.291,1.456-.79,1.469.1.007.462-.811,1.338-1.045,1.741a20.8,20.8,0,0,0-1.063,2.058,9.942,9.942,0,0,0-.987,4.578c.01.213.1.5.31.477a20.411,20.411,0,0,1,2.178-4.3c.987-1.744,2-3.477,3.126-5.135,2.18-3.207,4.867-6.276,8.467-7.9a49.456,49.456,0,0,1,17.453-4.27,95.552,95.552,0,0,1,17.988.568,25.6,25.6,0,0,1,8.5,2.518,11.018,11.018,0,0,1,4.664,4.873l1.02,2.729" fill="none" stroke="#87b26b" stroke-linecap="round" stroke-linejoin="round"/><path d="M319.14,413.591c-.007.034-.015.054-.028,0Z" fill="none" stroke="#000" stroke-linecap="round" stroke-linejoin="round" stroke-dasharray="2 4"/><path d="M208.828,266.887a5.986,5.986,0,0,0-5.986-10.367,5.986,5.986,0,0,0-11.971,0,5.986,5.986,0,0,0-5.986,10.367,5.986,5.986,0,0,0,5.986,10.367,5.986,5.986,0,0,0,11.971,0,5.986,5.986,0,0,0,5.986-10.368Z" fill="none" stroke="#000" stroke-linecap="round" stroke-linejoin="round" stroke-dasharray="1 3"/><path d="M226.493,187.535a5.986,5.986,0,0,0-5.986-10.367,5.986,5.986,0,0,0-11.971,0,5.986,5.986,0,0,0-5.986,10.367,5.986,5.986,0,0,0,5.986,10.367,5.986,5.986,0,0,0,11.971,0,5.986,5.986,0,0,0,5.986-10.368Z" fill="none" stroke="#000" stroke-linecap="round" stroke-linejoin="round" stroke-dasharray="1 3"/><path d="M201.29,153.157a4.564,4.564,0,0,0-4.563-7.9,4.564,4.564,0,0,0-9.127,0,4.564,4.564,0,0,0-4.563,7.9,4.564,4.564,0,0,0,4.563,7.9,4.564,4.564,0,0,0,9.126,0,4.564,4.564,0,0,0,4.563-7.9Z" fill="none" stroke="#000" stroke-linecap="round" stroke-linejoin="round" stroke-dasharray="1 3"/><path d="M250.049,112.237a4.564,4.564,0,0,0-2.642-8.736,4.564,4.564,0,0,0-8.886-2.08,4.564,4.564,0,0,0-6.244,6.656,4.564,4.564,0,0,0,2.642,8.736,4.564,4.564,0,0,0,8.886,2.08,4.564,4.564,0,0,0,6.244-6.656Z" fill="none" stroke="#000" stroke-linecap="round" stroke-linejoin="round" stroke-dasharray="1 3"/><path d="M293.327,73.165a5.466,5.466,0,0,0-5.843-9.237,5.466,5.466,0,0,0-10.921.442,5.466,5.466,0,0,0-5.078,9.679,5.466,5.466,0,0,0,5.844,9.237,5.466,5.466,0,0,0,10.921-.442,5.466,5.466,0,0,0,5.078-9.679Z" fill="none" stroke="#000" stroke-linecap="round" stroke-linejoin="round" stroke-dasharray="1 3"/><path d="M351.565,81.017a5,5,0,0,0-5-8.652,5,5,0,0,0-9.991,0,5,5,0,0,0-5,8.652,5,5,0,0,0,5,8.652,5,5,0,0,0,9.991,0,5,5,0,0,0,5-8.652Z" fill="none" stroke="#000" stroke-linecap="round" stroke-linejoin="round" stroke-dasharray="1 3"/><path d="M428.325,113.629a4.975,4.975,0,0,0-4.975-8.617,4.975,4.975,0,0,0-9.95,0,4.975,4.975,0,0,0-4.975,8.617,4.976,4.976,0,0,0,4.975,8.617,4.975,4.975,0,0,0,9.95,0,4.976,4.976,0,0,0,4.975-8.617Z" fill="none" stroke="#000" stroke-linecap="round" stroke-linejoin="round" stroke-dasharray="1 3"/><path d="M460.99,167.387a3.6,3.6,0,0,0,.012-7.2,3.6,3.6,0,0,0-6.227-3.609,3.6,3.6,0,0,0-6.239,3.588,3.6,3.6,0,0,0-.012,7.2,3.6,3.6,0,0,0,6.227,3.609,3.6,3.6,0,0,0,6.239-3.588Z" fill="none" stroke="#000" stroke-linecap="round" stroke-linejoin="round" stroke-dasharray="1 3"/><path d="M449.781,265.355a5.807,5.807,0,0,0-7-9.27,5.807,5.807,0,0,0-11.526,1.424,5.807,5.807,0,0,0-4.53,10.693,5.807,5.807,0,0,0,7,9.27,5.807,5.807,0,0,0,11.526-1.423,5.807,5.807,0,0,0,4.53-10.693Z" fill="none" stroke="#000" stroke-linecap="round" stroke-linejoin="round" stroke-dasharray="1 3"/><path d="M225.879,297.974c.157-.1.309-.2.463-.317q.327-.248.642-.51.386-.32.755-.66.423-.39.823-.8.44-.456.848-.943.436-.521.828-1.075c.274-.388.529-.789.764-1.2a12.892,12.892,0,0,0,.655-1.324,11.527,11.527,0,0,0,.5-1.439,10.618,10.618,0,0,0,.306-1.549,10.289,10.289,0,0,0,.065-1.653,10.667,10.667,0,0,0-.22-1.751,11.921,11.921,0,0,0-.549-1.843,14.291,14.291,0,0,0-.923-1.93,18.108,18.108,0,0,0-1.34-2.011,23.408,23.408,0,0,0-1.55-1.821s-15.011,9.563-3.12,20.49c.2.186.421.365.625.556a.041.041,0,0,0,.062,0C225.641,298.118,225.761,298.047,225.879,297.974Z" fill="none" stroke="#000" stroke-linecap="round" stroke-linejoin="round" stroke-dasharray="1 3"/><path d="M191.554,247.169c.181.037.362.069.553.09q.407.046.817.074.5.035,1,.043.575.01,1.151-.014.633-.027,1.264-.1.674-.076,1.341-.207c.466-.092.928-.206,1.383-.343a12.892,12.892,0,0,0,1.388-.506,11.527,11.527,0,0,0,1.357-.694,10.618,10.618,0,0,0,1.291-.909,10.289,10.289,0,0,0,1.188-1.151,10.667,10.667,0,0,0,1.049-1.419,11.921,11.921,0,0,0,.875-1.713,14.291,14.291,0,0,0,.664-2.033,18.108,18.108,0,0,0,.418-2.38,23.408,23.408,0,0,0,.135-2.388s-17.463-3.44-16.4,12.674c.018.275.053.555.068.833a.041.041,0,0,0,.042.046C191.282,247.109,191.418,247.141,191.554,247.169Z" fill="none" stroke="#000" stroke-linecap="round" stroke-linejoin="round" stroke-dasharray="1 3"/><path d="M180.608,218.626c.077.168.159.333.254.5q.2.356.423.7.268.424.557.833.332.47.692.92.4.5.826.962.46.5.96.959c.35.321.715.626,1.094.912a12.892,12.892,0,0,0,1.228.82,11.527,11.527,0,0,0,1.362.684,10.618,10.618,0,0,0,1.5.5,10.289,10.289,0,0,0,1.631.277,10.667,10.667,0,0,0,1.765.007,11.921,11.921,0,0,0,1.9-.308,14.291,14.291,0,0,0,2.033-.667A18.108,18.108,0,0,0,199,224.66a23.408,23.408,0,0,0,2.006-1.3s-7.554-16.116-19.918-5.728c-.211.177-.416.37-.632.548a.041.041,0,0,0-.012.061C180.495,218.371,180.55,218.5,180.608,218.626Z" fill="none" stroke="#000" stroke-linecap="round" stroke-linejoin="round" stroke-dasharray="1 3"/><path d="M240.7,196.662c.137-.021.272-.046.411-.08q.3-.073.592-.16.36-.106.714-.229.406-.142.8-.308.437-.183.861-.4.453-.228.887-.493c.3-.186.6-.385.881-.6a9.639,9.639,0,0,0,.842-.714,8.618,8.618,0,0,0,.772-.839,7.939,7.939,0,0,0,.669-.973,7.693,7.693,0,0,0,.535-1.115,7.976,7.976,0,0,0,.368-1.267,8.913,8.913,0,0,0,.169-1.428,10.685,10.685,0,0,0-.062-1.6,13.539,13.539,0,0,0-.324-1.778,17.5,17.5,0,0,0-.525-1.71s-13.138,2.118-8.212,13.141c.084.188.181.375.264.567a.031.031,0,0,0,.042.021C240.492,196.69,240.6,196.677,240.7,196.662Z" fill="none" stroke="#000" stroke-linecap="round" stroke-linejoin="round" stroke-dasharray="1 3"/><path d="M243.355,199.125c.066.193.137.381.224.574q.184.412.386.815.247.493.518.973.312.551.656,1.082.379.585.8,1.143.449.6.945,1.155c.348.39.713.764,1.1,1.118a14.176,14.176,0,0,0,1.254,1.032,12.675,12.675,0,0,0,1.416.9,11.676,11.676,0,0,0,1.582.714,11.314,11.314,0,0,0,1.754.482,11.73,11.73,0,0,0,1.93.2,13.109,13.109,0,0,0,2.111-.128,15.714,15.714,0,0,0,2.3-.507,19.912,19.912,0,0,0,2.488-.934,25.739,25.739,0,0,0,2.337-1.206s-6.5-18.462-21.165-8.452c-.25.171-.5.36-.751.53a.045.045,0,0,0-.02.066C243.26,198.834,243.306,198.98,243.355,199.125Z" fill="none" stroke="#000" stroke-linecap="round" stroke-linejoin="round" stroke-dasharray="1 3"/><path d="M200.9,126.007c0,.2.015.4.038.615q.05.448.12.894.085.545.2,1.085.129.619.3,1.231.183.673.412,1.332.246.7.549,1.388c.212.477.447.945.705,1.4a14.176,14.176,0,0,0,.881,1.365,12.675,12.675,0,0,0,1.075,1.286,11.676,11.676,0,0,0,1.29,1.162,11.314,11.314,0,0,0,1.524.993,11.73,11.73,0,0,0,1.777.779,13.109,13.109,0,0,0,2.05.52,15.714,15.714,0,0,0,2.342.216,19.912,19.912,0,0,0,2.654-.132,25.739,25.739,0,0,0,2.593-.437s-.571-19.563-17.589-14.492c-.29.087-.582.192-.877.277a.045.045,0,0,0-.039.057C200.9,125.7,200.9,125.854,200.9,126.007Z" fill="none" stroke="#000" stroke-linecap="round" stroke-linejoin="round" stroke-dasharray="1 3"/><path d="M247.3,77.466c-.043.228-.078.456-.1.7q-.048.512-.074,1.026-.032.628-.031,1.258,0,.722.044,1.443.048.794.151,1.583.111.844.291,1.678c.127.582.28,1.159.463,1.726a16.174,16.174,0,0,0,.667,1.729,14.462,14.462,0,0,0,.9,1.686,13.322,13.322,0,0,0,1.171,1.6,12.909,12.909,0,0,0,1.472,1.463,13.384,13.384,0,0,0,1.8,1.283,14.957,14.957,0,0,0,2.169,1.057,17.929,17.929,0,0,0,2.566.786,22.719,22.719,0,0,0,3,.468,29.368,29.368,0,0,0,3,.114s3.906-21.987-16.283-20.274c-.344.029-.694.079-1.044.105a.052.052,0,0,0-.056.054C247.37,77.123,247.333,77.295,247.3,77.466Z" fill="none" stroke="#000" stroke-linecap="round" stroke-linejoin="round" stroke-dasharray="1 3"/><path d="M314.117,70.106c-.066.148-.127.3-.182.455q-.117.339-.219.683-.125.421-.228.847-.118.49-.207.986-.1.546-.157,1.1-.063.591-.078,1.185c-.01.416,0,.832.03,1.246a11.283,11.283,0,0,0,.168,1.282,10.089,10.089,0,0,0,.335,1.292,9.294,9.294,0,0,0,.531,1.276,9.006,9.006,0,0,0,.757,1.234,9.337,9.337,0,0,0,1.012,1.166,10.434,10.434,0,0,0,1.3,1.073,12.508,12.508,0,0,0,1.611.954,15.849,15.849,0,0,0,1.954.81,20.488,20.488,0,0,0,2.014.57S329.016,72,315.047,69.844c-.238-.037-.484-.061-.725-.1a.036.036,0,0,0-.047.027C314.219,69.885,314.166,70,314.117,70.106Z" fill="none" stroke="#000" stroke-linecap="round" stroke-linejoin="round" stroke-dasharray="1 3"/><path d="M358.9,120.1c0-.162-.013-.322-.033-.49q-.041-.356-.1-.711-.07-.433-.161-.863-.105-.493-.24-.978-.148-.535-.333-1.058-.2-.56-.442-1.1c-.171-.379-.359-.75-.566-1.111a11.283,11.283,0,0,0-.706-1.083,10.089,10.089,0,0,0-.861-1.02,9.294,9.294,0,0,0-1.031-.92,9.006,9.006,0,0,0-1.217-.785,9.337,9.337,0,0,0-1.417-.614,10.434,10.434,0,0,0-1.634-.407,12.508,12.508,0,0,0-1.865-.164,15.849,15.849,0,0,0-2.112.115,20.488,20.488,0,0,0-2.063.358s.526,15.569,14.053,11.471c.231-.07.462-.155.7-.223a.036.036,0,0,0,.031-.045C358.906,120.343,358.906,120.221,358.9,120.1Z" fill="none" stroke="#000" stroke-linecap="round" stroke-linejoin="round" stroke-dasharray="1 3"/><path d="M396.537,91.9c.1.131.194.257.305.384q.237.27.485.529.3.317.624.617.367.345.754.668.426.355.876.681.482.348.991.655c.356.214.722.413,1.1.591a11.283,11.283,0,0,0,1.2.489,10.089,10.089,0,0,0,1.288.349,9.294,9.294,0,0,0,1.371.17,9.006,9.006,0,0,0,1.447-.047,9.337,9.337,0,0,0,1.515-.3,10.434,10.434,0,0,0,1.575-.6,12.508,12.508,0,0,0,1.627-.927,15.849,15.849,0,0,0,1.671-1.3,20.488,20.488,0,0,0,1.493-1.468s-9.292-12.5-18.083-1.436c-.15.189-.292.39-.446.58a.036.036,0,0,0,0,.055C396.4,91.7,396.465,91.8,396.537,91.9Z" fill="none" stroke="#000" stroke-linecap="round" stroke-linejoin="round" stroke-dasharray="1 3"/><path d="M438.549,133.194c.1.131.194.257.305.384q.237.27.485.529.3.317.624.617.367.345.754.668.426.355.876.681.482.348.991.655c.356.214.722.413,1.1.591a11.283,11.283,0,0,0,1.2.489,10.089,10.089,0,0,0,1.288.349,9.294,9.294,0,0,0,1.371.17,9.006,9.006,0,0,0,1.447-.047,9.337,9.337,0,0,0,1.515-.3,10.434,10.434,0,0,0,1.575-.6,12.508,12.508,0,0,0,1.627-.927,15.849,15.849,0,0,0,1.671-1.3,20.488,20.488,0,0,0,1.493-1.468s-9.292-12.5-18.083-1.436c-.15.189-.292.39-.446.58a.036.036,0,0,0,0,.055C438.408,133,438.477,133.1,438.549,133.194Z" fill="none" stroke="#000" stroke-linecap="round" stroke-linejoin="round" stroke-dasharray="1 3"/><path d="M439.462,120.333c.215.015.429.024.653.02q.478-.009.955-.039.583-.037,1.164-.1.666-.076,1.327-.192.728-.128,1.445-.306.767-.191,1.518-.444c.524-.178,1.04-.38,1.544-.608a15.021,15.021,0,0,0,1.526-.8,13.431,13.431,0,0,0,1.461-1.01,12.372,12.372,0,0,0,1.352-1.248,11.989,11.989,0,0,0,1.2-1.511,12.429,12.429,0,0,0,1-1.8,13.891,13.891,0,0,0,.749-2.112,16.651,16.651,0,0,0,.456-2.45,21.1,21.1,0,0,0,.119-2.813,27.275,27.275,0,0,0-.209-2.779s-20.7-1.3-17,17.149c.063.315.146.632.206.952a.048.048,0,0,0,.056.046C439.139,120.306,439.3,120.321,439.462,120.333Z" fill="none" stroke="#000" stroke-linecap="round" stroke-linejoin="round" stroke-dasharray="1 3"/><path d="M408.812,243.947c-.162,0-.322.008-.49.025q-.357.036-.712.088-.434.063-.865.148-.494.1-.982.225-.537.14-1.063.317-.563.19-1.109.425c-.382.165-.756.348-1.119.549a11.283,11.283,0,0,0-1.094.689,10.089,10.089,0,0,0-1.032.845,9.294,9.294,0,0,0-.936,1.017,9.006,9.006,0,0,0-.8,1.2,9.337,9.337,0,0,0-.635,1.408,10.434,10.434,0,0,0-.431,1.627,12.508,12.508,0,0,0-.192,1.862,15.849,15.849,0,0,0,.083,2.114,20.488,20.488,0,0,0,.326,2.068s15.576-.29,11.683-13.877c-.066-.232-.148-.465-.213-.7a.036.036,0,0,0-.045-.031C409.055,243.948,408.933,243.946,408.812,243.947Z" fill="none" stroke="#000" stroke-linecap="round" stroke-linejoin="round" stroke-dasharray="1 3"/><path d="M468.211,184.055c.252.055.5.1.768.135q.566.071,1.135.117.7.056,1.393.077.8.024,1.6,0,.882-.027,1.76-.115.94-.095,1.87-.266c.65-.121,1.294-.271,1.929-.455a17.94,17.94,0,0,0,1.939-.681,16.04,16.04,0,0,0,1.9-.944,14.777,14.777,0,0,0,1.811-1.245,14.319,14.319,0,0,0,1.672-1.582,14.845,14.845,0,0,0,1.483-1.957,16.59,16.59,0,0,0,1.245-2.369,19.887,19.887,0,0,0,.958-2.819,25.2,25.2,0,0,0,.62-3.305,32.575,32.575,0,0,0,.227-3.321s-24.244-5.07-23.025,17.37c.021.383.064.772.082,1.161a.057.057,0,0,0,.058.064C467.833,183.967,468.022,184.013,468.211,184.055Z" fill="none" stroke="#000" stroke-linecap="round" stroke-linejoin="round" stroke-dasharray="1 3"/><path d="M455.05,218.143c-.114.112-.223.226-.331.353q-.229.269-.446.549-.265.341-.513.7-.284.407-.544.83-.286.466-.539.952-.27.519-.5,1.06c-.158.378-.3.763-.42,1.155a11.119,11.119,0,0,0-.306,1.237,9.942,9.942,0,0,0-.156,1.306,9.159,9.159,0,0,0,.03,1.361,8.875,8.875,0,0,0,.252,1.4,9.2,9.2,0,0,0,.511,1.434,10.282,10.282,0,0,0,.805,1.45,12.326,12.326,0,0,0,1.136,1.454,15.619,15.619,0,0,0,1.5,1.444,20.19,20.19,0,0,0,1.644,1.246s10.865-10.846-1.182-17.838c-.206-.119-.422-.229-.629-.352a.036.036,0,0,0-.053.008C455.224,217.977,455.136,218.059,455.05,218.143Z" fill="none" stroke="#000" stroke-linecap="round" stroke-linejoin="round" stroke-dasharray="1 3"/><path d="M382.646,84.869c.117-.111.23-.226.341-.352q.237-.27.462-.55.275-.342.532-.7.3-.408.566-.834.3-.468.562-.957.283-.523.522-1.067c.167-.381.316-.769.445-1.165a11.283,11.283,0,0,0,.331-1.25,10.089,10.089,0,0,0,.18-1.322,9.294,9.294,0,0,0-.008-1.382,9.006,9.006,0,0,0-.233-1.429,9.337,9.337,0,0,0-.495-1.463,10.434,10.434,0,0,0-.793-1.485,12.508,12.508,0,0,0-1.129-1.494,15.849,15.849,0,0,0-1.5-1.49,20.488,20.488,0,0,0-1.648-1.291s-11.2,10.826.906,18.118c.207.124.425.239.633.368a.036.036,0,0,0,.054-.008C382.467,85.035,382.558,84.953,382.646,84.869Z" fill="none" stroke="#000" stroke-linecap="round" stroke-linejoin="round" stroke-dasharray="1 3"/><path d="M317.587,114.322c.048-.155.09-.31.124-.475q.074-.351.132-.705.071-.433.121-.869.056-.5.083-1,.029-.554.02-1.109-.011-.594-.069-1.186-.063-.62-.185-1.233a11.283,11.283,0,0,0-.326-1.251,10.089,10.089,0,0,0-.493-1.24,9.294,9.294,0,0,0-.686-1.2,9.006,9.006,0,0,0-.9-1.13,9.337,9.337,0,0,0-1.15-1.032,10.434,10.434,0,0,0-1.42-.9,12.508,12.508,0,0,0-1.717-.747,15.849,15.849,0,0,0-2.04-.561,20.488,20.488,0,0,0-2.07-.315s-4.44,14.932,9.689,15.336c.241.007.488,0,.732.009a.036.036,0,0,0,.043-.033C317.513,114.554,317.552,114.438,317.587,114.322Z" fill="none" stroke="#000" stroke-linecap="round" stroke-linejoin="round" stroke-dasharray="1 3"/><path id="primary" d="M477.565,212.31a4.023,4.023,0,0,0-1.241-1.689A.977.977,0,0,1,477.4,209a5.928,5.928,0,0,1,2.252,3.476l.009.074a3.984,3.984,0,0,0,.443-.182,5.293,5.293,0,0,1,4.463-.215c2.353.977,3.349,3.32,2.93,6.923-.469,4.5-2.6,9.287-5.566,9.287a3.711,3.711,0,0,1-1.953-.6,2.07,2.07,0,0,0-1.162-.381,2.041,2.041,0,0,0-1.133.371,3.75,3.75,0,0,1-1.953.6c-2.93,0-5.1-4.785-5.586-9.287s1.309-6.23,2.93-6.914a5.3,5.3,0,0,1,4.463.215Z" fill="none" stroke="#000" stroke-linecap="round" stroke-linejoin="round" stroke-dasharray="1 3"/><path id="primary-2" data-name="primary" d="M394.79,215.381a6.228,6.228,0,0,1,5.225.489c1.772,1.063,3.575,3.371,2.262,8.525s-4.626,10.36-8.033,9.874a4.4,4.4,0,0,1-2.173-1.016,2.4,2.4,0,0,0-1.256-.619,2.432,2.432,0,0,0-1.414.25,4.359,4.359,0,0,1-2.37.369c-3.452-.492-5.135-6.408-4.935-11.721.108-4.26,1.655-6.82,4.553-7.566a6.217,6.217,0,0,1,5.154.989,4.68,4.68,0,0,0,.485.285l.023-.085a6.963,6.963,0,0,1,3.195-3.67,1.147,1.147,0,0,1,.981,2.063,4.725,4.725,0,0,0-1.723,1.758Z" fill="none" stroke="#000" stroke-linecap="round" stroke-linejoin="round" stroke-dasharray="1 3"/><path id="primary-3" data-name="primary" d="M422.622,150.863a4.536,4.536,0,0,0-1.4-1.9,1.1,1.1,0,0,1,1.211-1.828,6.685,6.685,0,0,1,2.54,3.92l.011.084a4.493,4.493,0,0,0,.5-.205,5.969,5.969,0,0,1,5.033-.242c2.654,1.1,3.777,3.744,3.3,7.808-.529,5.077-2.929,10.473-6.277,10.473a4.185,4.185,0,0,1-2.2-.672,2.335,2.335,0,0,0-1.31-.429,2.3,2.3,0,0,0-1.277.418,4.229,4.229,0,0,1-2.2.672c-3.3,0-5.748-5.4-6.3-10.473s1.476-7.026,3.3-7.8a5.98,5.98,0,0,1,5.033.242Z" fill="none" stroke="#000" stroke-linecap="round" stroke-linejoin="round" stroke-dasharray="1 3"/><path id="primary-4" data-name="primary" d="M393.1,110.749a3.717,3.717,0,0,0-1.147-1.56.9.9,0,0,1,.993-1.5,5.477,5.477,0,0,1,2.081,3.212l.009.069a3.681,3.681,0,0,0,.409-.168,4.89,4.89,0,0,1,4.124-.2c2.175.9,3.095,3.068,2.707,6.4-.433,4.16-2.4,8.581-5.143,8.581a3.429,3.429,0,0,1-1.8-.55,1.913,1.913,0,0,0-1.074-.352,1.886,1.886,0,0,0-1.047.343,3.465,3.465,0,0,1-1.8.55c-2.707,0-4.71-4.421-5.161-8.581s1.209-5.757,2.707-6.388a4.9,4.9,0,0,1,4.124.2Z" fill="none" stroke="#000" stroke-linecap="round" stroke-linejoin="round" stroke-dasharray="1 3"/><path id="primary-5" data-name="primary" d="M267.763,120.53a4.465,4.465,0,0,1,3.758-.181c1.365.576,2.878,2.031,2.467,5.822s-2.237,7.821-4.7,7.821a3.158,3.158,0,0,1-1.645-.5,1.719,1.719,0,0,0-.954-.312,1.743,1.743,0,0,0-.979.321,3.125,3.125,0,0,1-1.645.5c-2.5,0-4.293-4.03-4.688-7.821-.354-3.035.485-5.008,2.467-5.831a4.457,4.457,0,0,1,3.758.181,3.355,3.355,0,0,0,.373.153l.008-.063a4.992,4.992,0,0,1,1.9-2.928.822.822,0,0,1,.9,1.365,3.388,3.388,0,0,0-1.045,1.422Z" fill="none" stroke="#000" stroke-linecap="round" stroke-linejoin="round" stroke-dasharray="1 3"/><path id="primary-6" data-name="primary" d="M246.588,266.837a4.981,4.981,0,0,0-1.537-2.091,1.209,1.209,0,0,1,1.33-2.007,7.34,7.34,0,0,1,2.789,4.3l.012.092a4.933,4.933,0,0,0,.549-.225,6.554,6.554,0,0,1,5.526-.266c2.914,1.209,4.148,4.111,3.628,8.573-.58,5.574-3.216,11.5-6.892,11.5a4.6,4.6,0,0,1-2.418-.738,2.563,2.563,0,0,0-1.439-.472,2.527,2.527,0,0,0-1.4.459,4.643,4.643,0,0,1-2.418.738c-3.628,0-6.312-5.925-6.917-11.5s1.62-7.715,3.628-8.561a6.566,6.566,0,0,1,5.526.266Z" fill="none" stroke="#000" stroke-linecap="round" stroke-linejoin="round" stroke-dasharray="1 3"/><path d="M340.368,252.922h-5.1a10.8,10.8,0,0,0-1-3.5,7.82,7.82,0,0,0,3.1-6.1v-.4a1,1,0,1,0-2,0v.4a5.637,5.637,0,0,1-2.2,4.5,7.725,7.725,0,0,0-1.9-1.7v-.2a4,4,0,1,0-8,0v.2a10.081,10.081,0,0,0-1.9,1.7,6.11,6.11,0,0,1-2-4.5v-.4a1,1,0,1,0-2,0v.4a7.4,7.4,0,0,0,3.1,6.1,9.532,9.532,0,0,0-1,3.5h-5.1a1,1,0,0,0,0,2h5.1a10.8,10.8,0,0,0,1,3.5,7.4,7.4,0,0,0-3.1,6.1v.4a1,1,0,0,0,2,0v-.4a5.637,5.637,0,0,1,2.2-4.5,7.491,7.491,0,0,0,5.8,2.9,7.342,7.342,0,0,0,5.8-2.9,5.637,5.637,0,0,1,2.2,4.5v.4a1,1,0,0,0,2,0v-.4a7.4,7.4,0,0,0-3.1-6.1,9.532,9.532,0,0,0,1-3.5h5.1a1,1,0,0,0,0-2Z" fill="none" stroke="#000" stroke-linecap="round" stroke-linejoin="round" stroke-dasharray="1 2"/><path d="M343.25,283.25h-3.825a8.1,8.1,0,0,0-.75-2.625A5.865,5.865,0,0,0,341,276.05v-.3a.75.75,0,0,0-1.5,0v.3a4.228,4.228,0,0,1-1.65,3.375,5.794,5.794,0,0,0-1.425-1.275V278a3,3,0,0,0-6,0v.15A7.561,7.561,0,0,0,329,279.425a4.582,4.582,0,0,1-1.5-3.375v-.3a.75.75,0,0,0-1.5,0v.3a5.549,5.549,0,0,0,2.325,4.575,7.149,7.149,0,0,0-.75,2.625H323.75a.75.75,0,0,0,0,1.5h3.825a8.1,8.1,0,0,0,.75,2.625A5.549,5.549,0,0,0,326,291.95v.3a.75.75,0,0,0,1.5,0v-.3a4.228,4.228,0,0,1,1.65-3.375,5.619,5.619,0,0,0,4.35,2.175,5.507,5.507,0,0,0,4.35-2.175,4.228,4.228,0,0,1,1.65,3.375v.3a.75.75,0,0,0,1.5,0v-.3a5.549,5.549,0,0,0-2.325-4.575,7.149,7.149,0,0,0,.75-2.625h3.825a.75.75,0,0,0,0-1.5Z" fill="none" stroke="#000" stroke-linecap="round" stroke-linejoin="round" stroke-dasharray="1 2"/><rect x="38" y="224" width="129" height="31" rx="6" ry="6" fill="#87b26b"/><path d="M147.7,229.518a.336.336,0,0,1-.288-.128.542.542,0,0,1-.1-.336c0-.32.129-.48.385-.48h.527v-1.16a.561.561,0,0,1,.093-.364.361.361,0,0,1,.292-.108.41.41,0,0,1,.315.108.531.531,0,0,1,.1.364v1.16h.424a.351.351,0,0,1,.319.136.621.621,0,0,1,.089.344.582.582,0,0,1-.089.336.36.36,0,0,1-.319.128h-.32c.08.144.146.268.2.372l.147.288c.046.088.087.171.124.248s.078.164.12.26a1.185,1.185,0,0,1,.116.428.288.288,0,0,1-.156.268.42.42,0,0,1-.292.092c-.082-.013-.153-.092-.212-.236q-.056-.176-.088-.264c-.021-.059-.043-.115-.063-.168v3.32a.561.561,0,0,1-.093.364.385.385,0,0,1-.308.108.389.389,0,0,1-.3-.108.526.526,0,0,1-.1-.364v-2.832c-.048.139-.089.267-.124.384a1.659,1.659,0,0,1-.14.336.793.793,0,0,1-.3.408.28.28,0,0,1-.328-.04.336.336,0,0,1-.16-.284,1.018,1.018,0,0,1,.144-.444q.24-.5.477-1.06a7.847,7.847,0,0,0,.372-1.076Zm6.664-.224v4.176a2.737,2.737,0,0,1-.044.54.754.754,0,0,1-.152.34.551.551,0,0,1-.28.176,1.508,1.508,0,0,1-.436.04c-.123-.005-.235-.015-.336-.028a2.7,2.7,0,0,1-.312-.06.5.5,0,0,1-.344-.2.519.519,0,0,1-.024-.356.436.436,0,0,1,.185-.3.529.529,0,0,1,.416.008,1.718,1.718,0,0,0,.216.052.938.938,0,0,0,.144.012c.086,0,.128-.083.128-.248v-4.152H152.5a.391.391,0,0,1-.28-.08,10.428,10.428,0,0,1-.128,1.22,8.134,8.134,0,0,1-.28,1.148q.152.36.292.736t.276.768a.936.936,0,0,1,.064.42.354.354,0,0,1-.232.26.336.336,0,0,1-.312.02.668.668,0,0,1-.24-.364q-.081-.208-.152-.412c-.048-.136-.1-.265-.152-.388a5.758,5.758,0,0,1-.451.692,8.137,8.137,0,0,1-.6.692.722.722,0,0,1-.4.264.315.315,0,0,1-.288-.136.417.417,0,0,1-.132-.344.979.979,0,0,1,.275-.424,6.5,6.5,0,0,0,.721-.9,5.7,5.7,0,0,0,.472-.872q-.208-.48-.42-.908t-.46-.9a.629.629,0,0,1-.116-.392.423.423,0,0,1,.22-.3.371.371,0,0,1,.288-.056.418.418,0,0,1,.264.256c.091.176.185.359.28.548s.192.386.288.588q.064-.336.1-.68t.067-.752a.225.225,0,0,0-.008-.116q-.016-.028-.088-.028H150.2a.331.331,0,0,1-.292-.132.512.512,0,0,1-.092-.3.5.5,0,0,1,.092-.308A.34.34,0,0,1,150.2,228h1.319a.828.828,0,0,1,.5.116.575.575,0,0,1,.192.4.389.389,0,0,1,.288-.1h1.023V227.4q0-.44.416-.44a.431.431,0,0,1,.313.108.444.444,0,0,1,.112.332v1.008h.1a.339.339,0,0,1,.312.128.607.607,0,0,1,.08.328.555.555,0,0,1-.08.308.344.344,0,0,1-.312.124Zm-1.009,2.528a1.053,1.053,0,0,1,0,.4c-.024.072-.105.124-.244.156a.354.354,0,0,1-.292-.032.618.618,0,0,1-.141-.368q-.032-.208-.067-.4c-.024-.128-.051-.257-.08-.388s-.062-.265-.1-.4l-.12-.448a.54.54,0,0,1-.02-.332.323.323,0,0,1,.2-.212.334.334,0,0,1,.315.008.567.567,0,0,1,.173.312c.09.336.165.64.224.912S153.314,231.566,153.352,231.822Z" fill="#fff"/><path d="M155.616,229.182a.425.425,0,0,1-.34-.124.486.486,0,0,1-.108-.332.4.4,0,0,1,.448-.456h.7v-.816q0-.535.465-.536a.387.387,0,0,1,.348.14.719.719,0,0,1,.092.4v.816h.473a.4.4,0,0,1,.359.136.576.576,0,0,1,.088.32.562.562,0,0,1-.088.332.418.418,0,0,1-.359.124h-.473v.056q.272.4.477.716t.436.668a.857.857,0,0,1,.18.5.4.4,0,0,1-.18.328.477.477,0,0,1-.384.1q-.168-.044-.344-.38c-.038-.075-.069-.143-.1-.2a1.417,1.417,0,0,0-.088-.172v3.4a.545.545,0,0,1-.092.36.456.456,0,0,1-.348.1.508.508,0,0,1-.349-.1.467.467,0,0,1-.116-.36v-2.96q-.072.232-.147.44c-.051.139-.1.27-.156.392q-.144.336-.328.392a.459.459,0,0,1-.376-.056q-.368-.208-.08-.76.129-.272.252-.54t.24-.564c.077-.2.155-.407.232-.628s.155-.465.235-.732Zm4.352-1.76a.436.436,0,0,1,.128-.376.54.54,0,0,1,.313-.088.531.531,0,0,1,.315.088.442.442,0,0,1,.124.376v.592h1.513a.405.405,0,0,1,.332.116.558.558,0,0,1,.092.348.522.522,0,0,1-.092.316.391.391,0,0,1-.332.124h-1.513v.9h.992a.8.8,0,0,1,.5.14.591.591,0,0,1,.184.5,1.464,1.464,0,0,1-.035.3,1.4,1.4,0,0,1-.133.352,6.147,6.147,0,0,1-.544.952,6.015,6.015,0,0,1-.687.824,3.96,3.96,0,0,0,.612.372c.221.109.468.22.739.332a.492.492,0,0,1,.336.688.368.368,0,0,1-.231.284.815.815,0,0,1-.464-.068,7.436,7.436,0,0,1-.944-.444,5.478,5.478,0,0,1-.776-.532,7.642,7.642,0,0,1-.863.544,10.164,10.164,0,0,1-.984.456h.008a.91.91,0,0,1-.412.092.357.357,0,0,1-.283-.22.472.472,0,0,1-.024-.452.661.661,0,0,1,.376-.308,7.647,7.647,0,0,0,.8-.352,6.835,6.835,0,0,0,.724-.432,5.45,5.45,0,0,1-.628-.952,11.809,11.809,0,0,1-.531-1.184.309.309,0,0,1-.229-.128.578.578,0,0,1-.067-.312.527.527,0,0,1,.088-.344.427.427,0,0,1,.336-.1h1.271v-.9H158.7a.4.4,0,0,1-.336-.124.5.5,0,0,1-.1-.316.533.533,0,0,1,.1-.348.415.415,0,0,1,.336-.116h1.264Zm-.5,3.3a6.526,6.526,0,0,0,.452.88,4.675,4.675,0,0,0,.532.712,4.24,4.24,0,0,0,.624-.716,6.067,6.067,0,0,0,.416-.732c.026-.053.03-.091.012-.112a.088.088,0,0,0-.068-.032Z" fill="#fff"/><path d="M129.92,243.286a.722.722,0,0,1-.172.54.762.762,0,0,1-.54.164H124.8a.762.762,0,0,1-.54-.164.722.722,0,0,1-.172-.54v-5.432a.722.722,0,0,1,.172-.54.762.762,0,0,1,.54-.164h4.408a.762.762,0,0,1,.54.164.722.722,0,0,1,.172.54Zm-.647-5.392c0-.085-.035-.128-.1-.128H124.84c-.063,0-.1.043-.1.128v1.3h4.528Zm0,1.88h-4.528v1.488h4.528Zm0,2.064h-4.528v1.4a.155.155,0,0,0,.028.1.083.083,0,0,0,.067.036h4.328c.069,0,.1-.045.1-.136Z" fill="#fff"/><path d="M133.1,238.142h.7q.344,0,.344.3t-.344.3h-.7v.416q.3.376.557.7t.491.672c.166.229.16.405-.016.528s-.325.062-.464-.168q-.136-.216-.276-.424t-.292-.416v3.888a.3.3,0,0,1-.084.236.313.313,0,0,1-.22.076.338.338,0,0,1-.228-.072.3.3,0,0,1-.084-.24v-3.472q-.136.368-.3.7t-.376.72a.482.482,0,0,1-.228.232.275.275,0,0,1-.244-.04q-.256-.152-.056-.5c.111-.2.219-.4.319-.6s.2-.419.292-.648.183-.475.269-.736.173-.549.264-.864h-.712q-.344,0-.344-.3t.344-.3h.769V236.9q0-.328.312-.328t.3.328Zm2.017,2.816q-.1.32-.188.6t-.2.552c-.069.181-.141.36-.216.536s-.157.357-.248.544a.525.525,0,0,1-.224.268.349.349,0,0,1-.272-.028.21.21,0,0,1-.147-.184.791.791,0,0,1,.092-.328c.1-.213.19-.4.269-.568s.146-.328.208-.488.118-.324.172-.492.109-.361.168-.58a.458.458,0,0,1,.155-.276.362.362,0,0,1,.261-.012q.176.04.2.156A.623.623,0,0,1,135.112,240.958Zm-.96-1.136q-.353,0-.353-.3a.3.3,0,0,1,.08-.232.409.409,0,0,1,.272-.072h4.271a.374.374,0,0,1,.26.072.308.308,0,0,1,.076.232c0,.2-.111.3-.336.3h-1.808v3.312a1.513,1.513,0,0,1-.084.548.575.575,0,0,1-.284.312,1.119,1.119,0,0,1-.536.088,4.156,4.156,0,0,1-.84-.14c-.262-.064-.344-.219-.248-.464a.243.243,0,0,1,.144-.16.639.639,0,0,1,.328.032,3.707,3.707,0,0,0,.464.092.663.663,0,0,0,.272-.012.2.2,0,0,0,.132-.112A.528.528,0,0,0,136,243.1v-3.28Zm4.128-2.264q0,.3-.36.3H134.7a.356.356,0,0,1-.252-.084.293.293,0,0,1-.093-.228.252.252,0,0,1,.1-.228.428.428,0,0,1,.24-.068h3.224a.429.429,0,0,1,.264.072A.271.271,0,0,1,138.28,237.558Zm.344,5.392a.493.493,0,0,1,.012.284.23.23,0,0,1-.147.164.338.338,0,0,1-.284-.012.4.4,0,0,1-.18-.26q-.1-.328-.177-.6t-.164-.512q-.083-.244-.168-.484t-.187-.5a.754.754,0,0,1-.061-.308c.009-.072.065-.129.173-.172a.329.329,0,0,1,.243-.016.391.391,0,0,1,.188.24q.1.288.2.548t.188.516c.062.171.121.347.181.528S138.56,242.742,138.624,242.95Z" fill="#fff"/><path d="M145.272,241.534a.356.356,0,0,1-.064.216.259.259,0,0,1-.224.088h-5.416a.3.3,0,0,1-.217-.076.279.279,0,0,1-.079-.212.354.354,0,0,1,.067-.228.276.276,0,0,1,.229-.084h5.416a.271.271,0,0,1,.228.08A.352.352,0,0,1,145.272,241.534Zm-4.521-2.2c0,.075.04.112.136.112h4.752a.944.944,0,0,1,.292.04.417.417,0,0,1,.2.14.71.71,0,0,1,.124.276,1.853,1.853,0,0,1,.044.44,10.62,10.62,0,0,1-.155,2.12,3.069,3.069,0,0,1-.4,1.112,1.6,1.6,0,0,1-.588.416,1.983,1.983,0,0,1-.788.152,3.2,3.2,0,0,1-1.44-.352.544.544,0,0,1-.271-.2.281.281,0,0,1,0-.244.263.263,0,0,1,.18-.168.5.5,0,0,1,.332.072,4.315,4.315,0,0,0,.6.232,1.993,1.993,0,0,0,.567.088,1.276,1.276,0,0,0,.528-.108,1.155,1.155,0,0,0,.4-.292,2.219,2.219,0,0,0,.312-.944,10.045,10.045,0,0,0,.112-1.832.687.687,0,0,0-.053-.284.136.136,0,0,0-.124-.076h-4.56a1.446,1.446,0,0,1-.66-.112.4.4,0,0,1-.164-.44q.088-.68.188-1.3t.188-1.244a.41.41,0,0,1,.1-.244.294.294,0,0,1,.224-.044c.134.011.212.042.236.1a.527.527,0,0,1,.02.248l-.1.624h5.32a.288.288,0,0,1,.224.072.328.328,0,0,1,.064.224.352.352,0,0,1-.064.22.265.265,0,0,1-.224.084h-5.408l-.16,1.112Z" fill="#fff"/><path d="M147.656,237.91a.251.251,0,0,1-.3-.288.31.31,0,0,1,.064-.224.343.343,0,0,1,.24-.064h1.271v-.48a.288.288,0,0,1,.072-.228.418.418,0,0,1,.432,0,.284.284,0,0,1,.072.228v.48h.912a.345.345,0,0,1,.236.064.3.3,0,0,1,.067.224.306.306,0,0,1-.067.216.318.318,0,0,1-.236.072h-.768q.335.281.571.5a5.37,5.37,0,0,1,.429.456.553.553,0,0,1,.128.232.309.309,0,0,1-.064.24.324.324,0,0,1-.22.088.3.3,0,0,1-.244-.1q-.176-.223-.36-.42t-.384-.388v1.472a.284.284,0,0,1-.072.228.418.418,0,0,1-.432,0,.288.288,0,0,1-.072-.228v-1.216a5.682,5.682,0,0,1-.479.56q-.272.28-.656.648-.328.312-.536.032a.288.288,0,0,1-.048-.268.666.666,0,0,1,.208-.244,8.865,8.865,0,0,0,.688-.66,9.928,9.928,0,0,0,.776-.932Zm.464,4.5a.5.5,0,0,1-.316.1.254.254,0,0,1-.228-.168.205.205,0,0,1,0-.232.762.762,0,0,1,.231-.216,6.74,6.74,0,0,0,1.017-.764,4.221,4.221,0,0,0,.8-1.028.438.438,0,0,1,.228-.216.367.367,0,0,1,.213,0,.289.289,0,0,1,.128.456h3.256a.786.786,0,0,1,.3.052.437.437,0,0,1,.2.156.432.432,0,0,1,.071.252.733.733,0,0,1-.088.324,5.984,5.984,0,0,1-.859,1.288,4.432,4.432,0,0,1-1.225.96,6.32,6.32,0,0,1-1.716.6,11.848,11.848,0,0,1-2.336.216.872.872,0,0,1-.38-.056.226.226,0,0,1-.1-.216.308.308,0,0,1,.1-.26.492.492,0,0,1,.3-.076q.529-.008.977-.036c.3-.019.581-.048.848-.088a7.8,7.8,0,0,0,.775-.156,5.872,5.872,0,0,0,.753-.248c-.177-.112-.35-.217-.521-.316s-.344-.194-.52-.288-.359-.188-.549-.284l-.611-.312Q148.511,242.142,148.12,242.406Zm1.632-1.472a5.17,5.17,0,0,1-.432.488l.611.32c.2.1.387.2.576.308s.38.212.572.324.4.234.616.368a4.536,4.536,0,0,0,.815-.632,3.887,3.887,0,0,0,.7-.912.429.429,0,0,0,.048-.216c-.011-.032-.051-.048-.12-.048Zm1.48-3a.293.293,0,0,1-.229-.076.369.369,0,0,1,0-.428.3.3,0,0,1,.229-.072h1.176v-.472a.272.272,0,0,1,.08-.224.335.335,0,0,1,.216-.064.309.309,0,0,1,.2.064.281.281,0,0,1,.076.224v.472h1.376a.3.3,0,0,1,.228.072.369.369,0,0,1,0,.428.292.292,0,0,1-.228.076h-1.217q.441.592.772.956a4.221,4.221,0,0,0,.644.588.281.281,0,0,1,.152.232.422.422,0,0,1-.063.256.249.249,0,0,1-.2.1.385.385,0,0,1-.256-.1,5.092,5.092,0,0,1-.6-.584q-.28-.32-.607-.76v1.352a.268.268,0,0,1-.076.216.309.309,0,0,1-.2.064q-.3,0-.3-.28v-1.3a5.194,5.194,0,0,1-.54.652,7.635,7.635,0,0,1-.748.66.615.615,0,0,1-.3.152.272.272,0,0,1-.225-.112.268.268,0,0,1-.063-.268.529.529,0,0,1,.216-.236c.149-.112.29-.225.424-.34s.26-.235.38-.36.239-.26.356-.4.237-.307.359-.488Z" fill="#fff"/><path d="M155.624,238.286a.348.348,0,0,1-.236-.068.293.293,0,0,1-.076-.228.272.272,0,0,1,.313-.3h1.248v-.848a.279.279,0,0,1,.084-.228.365.365,0,0,1,.424,0,.279.279,0,0,1,.084.228v.848h.984q.319,0,.319.3a.287.287,0,0,1-.079.228.364.364,0,0,1-.24.068h-.824q.272.3.52.6t.473.612a.818.818,0,0,1,.16.312.284.284,0,0,1-.1.232.3.3,0,0,1-.231.1c-.08-.005-.176-.085-.288-.24l-.312-.408q-.183-.24-.384-.488v2.056a.278.278,0,0,1-.084.228.365.365,0,0,1-.424,0,.278.278,0,0,1-.084-.228v-1.856a8.342,8.342,0,0,1-.552.772q-.289.356-.616.7a.343.343,0,0,1-.28.124.309.309,0,0,1-.24-.14q-.127-.192.128-.448a8.3,8.3,0,0,0,.753-.868,9.768,9.768,0,0,0,.7-1.068Zm.944,3.68a8.7,8.7,0,0,1-.272.928,6.4,6.4,0,0,1-.344.8.44.44,0,0,1-.22.228.3.3,0,0,1-.261-.036q-.248-.144-.04-.52a4.066,4.066,0,0,0,.309-.716c.093-.28.172-.553.235-.82a.559.559,0,0,1,.137-.288.269.269,0,0,1,.256-.04Q156.68,241.558,156.568,241.966Zm4.84.728a3.528,3.528,0,0,1-.052.676.864.864,0,0,1-.173.392.61.61,0,0,1-.308.192,2.615,2.615,0,0,1-.46.076c-.16.011-.333.019-.52.024s-.375.008-.564.008-.375,0-.556-.012-.347-.017-.5-.028a2.452,2.452,0,0,1-.46-.076.607.607,0,0,1-.284-.164.619.619,0,0,1-.145-.288,2.092,2.092,0,0,1-.04-.448v-1.4q0-.368.3-.368a.306.306,0,0,1,.228.084.391.391,0,0,1,.084.284v1.472a.336.336,0,0,0,.072.232.443.443,0,0,0,.3.1c.154.016.324.028.508.036s.365.012.544.012.349,0,.509-.008a3.815,3.815,0,0,0,.407-.032,1.922,1.922,0,0,0,.248-.04.253.253,0,0,0,.148-.1.465.465,0,0,0,.067-.216,3.8,3.8,0,0,0,.017-.4.554.554,0,0,1,.06-.284.253.253,0,0,1,.236-.1.3.3,0,0,1,.256.1A.462.462,0,0,1,161.408,242.694Zm-1.456-.08c.112.2.082.354-.088.456-.187.106-.342.045-.464-.184q-.057-.1-.152-.268t-.208-.344l-.22-.352c-.072-.115-.135-.212-.188-.292q-.224-.328.057-.488a.333.333,0,0,1,.228-.052.366.366,0,0,1,.2.172q.208.312.432.676T159.952,242.614Zm2.32-2.128a.782.782,0,0,1-.145.528.667.667,0,0,1-.512.16h-2.128a.637.637,0,0,1-.508-.16.826.826,0,0,1-.133-.528v-2.872a.826.826,0,0,1,.133-.528.637.637,0,0,1,.508-.16h2.128a.667.667,0,0,1,.512.16.782.782,0,0,1,.145.528Zm-.593-2.824c0-.09-.037-.136-.111-.136h-2.032c-.064,0-.1.045-.1.136v.472h2.239Zm0,1.048H159.44v.616h2.239Zm0,1.192H159.44v.536a.179.179,0,0,0,.027.1.082.082,0,0,0,.068.04h2.032c.074,0,.111-.048.111-.144Zm.944,3.288a.6.6,0,0,1,.076.3.263.263,0,0,1-.164.2.3.3,0,0,1-.26.024.433.433,0,0,1-.2-.232,8.447,8.447,0,0,0-.408-.776,8.626,8.626,0,0,0-.48-.728q-.271-.368-.04-.52a.343.343,0,0,1,.269-.084.492.492,0,0,1,.236.2q.248.335.508.768T162.624,243.19Z" fill="#fff"/><path d="M52.276,247.651v2.532a1.309,1.309,0,0,1-.033.309.521.521,0,0,1-.12.231.573.573,0,0,1-.234.147,1.164,1.164,0,0,1-.369.051,1.179,1.179,0,0,1-.264-.019,2.608,2.608,0,0,1-.264-.06c-.084-.024-.16-.051-.228-.078a.581.581,0,0,1-.144-.078.115.115,0,0,1-.051-.09.152.152,0,0,1,.024-.094.129.129,0,0,1,.078-.051.154.154,0,0,1,.117.03,2.006,2.006,0,0,0,.714.175,1.172,1.172,0,0,0,.24-.021.311.311,0,0,0,.153-.075.3.3,0,0,0,.081-.149A1.1,1.1,0,0,0,52,250.16v-2.509H49.42c-.076,0-.114-.042-.114-.126s.038-.132.114-.132H54.6c.076,0,.114.044.114.132s-.038.126-.114.126Zm-1.536.522a3,3,0,0,1-.234.648q-.114.275-.243.53t-.267.5a3.867,3.867,0,0,1-.372.559c-.056.059-.1.09-.135.09a.139.139,0,0,1-.093-.037.076.076,0,0,1-.042-.071.73.73,0,0,1,.126-.216c.12-.172.228-.336.324-.489a4.8,4.8,0,0,0,.246-.44c.068-.141.135-.289.2-.447s.129-.327.189-.508c.052-.147.112-.222.18-.222S50.74,248.1,50.74,248.174Zm3.288-2.28q.114,0,.114.126t-.114.12H50q-.114,0-.114-.12t.114-.126Zm.57,4.5a.1.1,0,0,1-.042.087.189.189,0,0,1-.1.027.129.129,0,0,1-.1-.057,1.633,1.633,0,0,1-.141-.285q-.27-.612-.477-1.041c-.138-.287-.259-.52-.363-.7a.4.4,0,0,1-.069-.189.11.11,0,0,1,.039-.09.119.119,0,0,1,.087-.021.121.121,0,0,1,.069.024.572.572,0,0,1,.072.1.9.9,0,0,1,.078.138c.036.071.086.17.15.294.124.24.268.533.432.882.084.172.151.312.2.417s.085.182.1.225A.5.5,0,0,1,54.6,250.394Z" fill="#fff"/><path d="M55.81,247.478c-.04.1-.081.192-.123.288s-.087.191-.135.288a3.216,3.216,0,0,1-.174.33.1.1,0,0,1-.078.048.128.128,0,0,1-.111-.057c-.026-.039-.011-.115.045-.231a8.622,8.622,0,0,0,.93-2.592c.012-.1.054-.144.126-.144s.114.032.114.1a3.6,3.6,0,0,1-.12.534q-.06.222-.117.423t-.117.375v4.1a.073.073,0,0,1-.024.09.167.167,0,0,1-.192,0,.073.073,0,0,1-.024-.09Zm1.428-1.512h-.546c-.072,0-.108-.038-.108-.114s.036-.12.108-.12H59q.132,0,.132.12c0,.076-.044.114-.132.114H57.46c-.008.144-.017.288-.027.432s-.023.286-.039.426H58.51a.572.572,0,0,1,.162.021.269.269,0,0,1,.123.075.357.357,0,0,1,.078.15.964.964,0,0,1,.027.253,4.2,4.2,0,0,1-.366,1.812,3.773,3.773,0,0,1-.978,1.3q-.606.51-.8.51c-.076,0-.114-.036-.114-.107,0-.053.064-.119.192-.2a3.74,3.74,0,0,0,1.3-1.248,7.949,7.949,0,0,0-1.044-1.278,2.806,2.806,0,0,1-.4.678c-.18.229-.306.342-.378.342a.087.087,0,0,1-.06-.029.153.153,0,0,1-.018-.081c0-.034.042-.1.126-.194a4.38,4.38,0,0,0,.39-.525,2.459,2.459,0,0,0,.246-.547,4.177,4.177,0,0,0,.15-.723Q57.2,246.608,57.238,245.965Zm-.06,1.9a8.374,8.374,0,0,1,.576.612,7.284,7.284,0,0,1,.51.679,3.947,3.947,0,0,0,.4-1.807.364.364,0,0,0-.051-.234.315.315,0,0,0-.219-.054H57.364A4.456,4.456,0,0,1,57.178,247.867ZM60.6,250.43a.635.635,0,0,1-.126.354.513.513,0,0,1-.474.187,2.4,2.4,0,0,1-.576-.078,1.845,1.845,0,0,1-.4-.114c-.052-.027-.078-.06-.078-.1a.124.124,0,0,1,.066-.126.283.283,0,0,1,.186,0,3.147,3.147,0,0,0,.744.155.481.481,0,0,0,.318-.08.373.373,0,0,0,.09-.285V245.5c0-.072.04-.108.12-.108s.126.036.126.108Zm-.948-.612a.075.075,0,0,1-.024.091.172.172,0,0,1-.192,0,.075.075,0,0,1-.024-.091v-3.8a.128.128,0,0,1,.021-.084c.014-.016.047-.024.1-.024s.085.008.1.024a.128.128,0,0,1,.021.084Z" fill="#fff"/><path d="M62.4,247.058a.264.264,0,0,1,.189.078.25.25,0,0,1,0,.368.257.257,0,0,1-.189.082.261.261,0,0,1-.183-.45A.259.259,0,0,1,62.4,247.058Zm0,2.25a.264.264,0,0,1,.189.078.25.25,0,0,1,0,.368.257.257,0,0,1-.189.082.261.261,0,0,1-.183-.45A.259.259,0,0,1,62.4,249.308Z" fill="#fff"/><path d="M70.474,246.308H72.61a.126.126,0,1,1,0,.252h-2.1a11.463,11.463,0,0,0,.738,2.616,4.038,4.038,0,0,0,.468-.828,4.707,4.707,0,0,0,.27-1.158c.016-.107.056-.162.12-.162.1,0,.144.045.144.133a3.658,3.658,0,0,1-.09.558,4.173,4.173,0,0,1-.8,1.728,4,4,0,0,0,.594.895c.216.236.358.354.426.354.036,0,.062-.031.078-.1a2.487,2.487,0,0,0,.09-.391,6.016,6.016,0,0,0,.078-.7.13.13,0,0,1,.051-.1.157.157,0,0,1,.093-.033.154.154,0,0,1,.09.03.1.1,0,0,1,.042.085c0,.055,0,.125-.012.206s-.02.177-.036.285-.033.207-.051.31-.039.2-.063.3a2.191,2.191,0,0,1-.1.342.2.2,0,0,1-.186.1.555.555,0,0,1-.33-.132,2.611,2.611,0,0,1-.45-.479,4.448,4.448,0,0,1-.486-.738,4.081,4.081,0,0,1-1.188.953,2.649,2.649,0,0,1-.828.343.1.1,0,0,1-.093-.048.187.187,0,0,1-.027-.09c0-.068.058-.125.174-.168a3.943,3.943,0,0,0,1.842-1.242,9.118,9.118,0,0,1-.462-1.275,14.9,14.9,0,0,1-.354-1.587h-2.1a.167.167,0,0,0-.126.039.21.21,0,0,0-.036.141v.738h1.458a.913.913,0,0,1,.183.015.21.21,0,0,1,.1.051.194.194,0,0,1,.048.1.994.994,0,0,1,.012.168,6.665,6.665,0,0,1-.186,1.985.649.649,0,0,1-.618.48,1.546,1.546,0,0,1-.492-.1c-.1-.036-.173-.067-.231-.094a.921.921,0,0,1-.132-.068.178.178,0,0,1-.06-.057.116.116,0,0,1-.015-.058.125.125,0,0,1,.081-.132.192.192,0,0,1,.165.018,2.96,2.96,0,0,0,.528.211.394.394,0,0,0,.342-.043.633.633,0,0,0,.2-.356,4.351,4.351,0,0,0,.114-.729c.016-.211.028-.386.036-.521s.012-.238.012-.307a.469.469,0,0,0-.045-.258.238.238,0,0,0-.183-.054H67.99v.7q0,.3-.021.572t-.063.525a5.924,5.924,0,0,1-.216.9,2.79,2.79,0,0,1-.18.474c-.032.056-.066.085-.1.085a.159.159,0,0,1-.1-.031.085.085,0,0,1-.042-.08.6.6,0,0,1,.048-.184c.076-.191.14-.378.192-.558a5.325,5.325,0,0,0,.126-.54q.048-.27.072-.567t.024-.627v-1.656a.465.465,0,0,1,.1-.333.426.426,0,0,1,.318-.1h2.064c-.016-.092-.031-.182-.045-.27s-.027-.178-.039-.27q-.036-.276-.036-.312c0-.076.04-.114.12-.114s.142.04.15.12ZM72.04,246a.131.131,0,0,1-.033.087.122.122,0,0,1-.1.039.327.327,0,0,1-.168-.06c-.032-.02-.076-.044-.132-.072l-.2-.1q-.12-.06-.213-.1l-.159-.072a.206.206,0,0,1-.12-.084.112.112,0,0,1-.009-.09.139.139,0,0,1,.057-.069.147.147,0,0,1,.078-.027,2.262,2.262,0,0,1,.456.192,4.924,4.924,0,0,1,.468.252C72.014,245.923,72.04,245.959,72.04,246Z" fill="#fff"/><path d="M75.574,246.782q.042-.306.066-.621t.036-.645a.324.324,0,0,1,.03-.138.157.157,0,0,1,.111-.03c.054,0,.089.012.1.036a.2.2,0,0,1,.024.12c0,.028,0,.082-.009.162s-.013.184-.021.312-.018.259-.03.393-.028.271-.048.411h1.806a1.2,1.2,0,0,1,.666.12q.144.12.144.57,0,.324-.021.646c-.014.213-.035.433-.063.656s-.062.428-.1.624-.086.38-.138.552a2.959,2.959,0,0,1-.165.43,1.135,1.135,0,0,1-.195.287.64.64,0,0,1-.252.162.983.983,0,0,1-.33.051,3.2,3.2,0,0,1-.684-.1c-.14-.031-.251-.061-.333-.087a.731.731,0,0,1-.159-.063.126.126,0,0,1-.072-.113.128.128,0,0,1,.144-.145.355.355,0,0,1,.126.024,3.577,3.577,0,0,0,.942.2.555.555,0,0,0,.474-.217,2.258,2.258,0,0,0,.294-.726c.044-.172.082-.354.114-.546s.058-.4.078-.611.035-.414.045-.595.015-.342.015-.485a.549.549,0,0,0-.048-.273c-.032-.051-.116-.075-.252-.075H75.8a6.888,6.888,0,0,1-.492,1.765,5.454,5.454,0,0,1-.972,1.5q-.63.694-.8.7a.188.188,0,0,1-.078-.029.14.14,0,0,1-.051-.061.115.115,0,0,1,.006-.087.26.26,0,0,1,.1-.1,5.566,5.566,0,0,0,.765-.744,5.086,5.086,0,0,0,.579-.85,5.746,5.746,0,0,0,.414-.972,8.145,8.145,0,0,0,.27-1.113h-1.92a.122.122,0,0,1-.138-.138c0-.1.046-.144.138-.144Zm-.612-.384a.135.135,0,0,1-.039.087.125.125,0,0,1-.1.045.3.3,0,0,1-.156-.084,1.473,1.473,0,0,0-.147-.123q-.1-.075-.249-.177L74,245.957q-.126-.087-.234-.153a.113.113,0,0,1-.063-.069.115.115,0,0,1,.006-.075.151.151,0,0,1,.051-.063.128.128,0,0,1,.078-.027.485.485,0,0,1,.15.072l.372.246.219.153q.1.069.177.129c.052.04.092.072.12.1a.657.657,0,0,1,.063.06.1.1,0,0,1,.024.039A.17.17,0,0,1,74.962,246.4Zm2.436,3.108a.113.113,0,0,1-.027.074.131.131,0,0,1-.069.045.149.149,0,0,1-.09,0,.188.188,0,0,1-.09-.069,9.362,9.362,0,0,0-1.116-1.386.2.2,0,0,1-.069-.127.109.109,0,0,1,.033-.092.134.134,0,0,1,.1-.033.161.161,0,0,1,.108.041,3.954,3.954,0,0,1,.294.313c.08.088.159.18.237.273s.155.19.231.291A2.563,2.563,0,0,1,77.4,249.506Z" fill="#fff"/><path d="M83.944,246.049v.822h.588c.08,0,.12.034.12.1s-.04.1-.12.1h-.588v.815h.779q.12,0,.12.1c0,.067-.04.1-.12.1h-4.11a2.046,2.046,0,0,1-.1.252q-.057.12-.123.234h1.134q.312,0,.312.281a1.807,1.807,0,0,1-.186.637,1.966,1.966,0,0,1-.579.75,2.7,2.7,0,0,1-.951.479,3.2,3.2,0,0,1-.7.168q-.144,0-.144-.108c0-.063.054-.105.162-.125a3.354,3.354,0,0,0,1.428-.535,6.486,6.486,0,0,0-1.068-.779,1.8,1.8,0,0,1-.15.123c-.052.038-.1.072-.147.1a.837.837,0,0,1-.126.069.239.239,0,0,1-.081.024.115.115,0,0,1-.051-.021.108.108,0,0,1-.045-.051.094.094,0,0,1,.006-.072.245.245,0,0,1,.09-.09,2.639,2.639,0,0,0,1.092-1.338h-1.05c-.08,0-.12-.034-.12-.1s.04-.1.12-.1h.8v-.815h-.54c-.08,0-.12-.035-.12-.1s.04-.1.12-.1h.54v-.822h-.072q-.516.468-.66.468a.077.077,0,0,1-.069-.03.1.1,0,0,1-.021-.06c0-.04.06-.1.18-.18a2.542,2.542,0,0,0,.438-.354,1.74,1.74,0,0,0,.336-.4c.06-.1.1-.15.132-.15a.193.193,0,0,1,.093.024.073.073,0,0,1,.045.066q0,.108-.276.408H84.49c.076,0,.113.034.113.1s-.037.1-.113.1Zm-3.99,3.138q.288.174.561.375t.537.423a1.609,1.609,0,0,0,.432-.606,1.427,1.427,0,0,0,.126-.426c0-.072-.015-.117-.045-.138a.474.474,0,0,0-.219-.03h-1.08a2.291,2.291,0,0,1-.147.2Zm1.386-2.316v-.822h-.99v.822Zm0,1.02v-.815h-.99v.815Zm1.218-1.02v-.822H81.544v.822Zm0,1.02v-.815H81.544v.815Zm1.219,2.124h.9c.08,0,.12.033.12.1s-.04.114-.12.114h-.9v.7a.1.1,0,0,1-.108.107c-.068,0-.1-.035-.1-.107v-.7h-1.1c-.348,0-.522-.075-.522-.228a.437.437,0,0,1,.066-.2l.342-.595c.036-.067.069-.1.1-.1a.183.183,0,0,1,.081.018c.052.024.056.072.012.145l-.312.559a.234.234,0,0,0-.036.107c0,.053.073.078.222.078h1.146v-1.044h-1.41q-.12,0-.12-.1c0-.072.04-.107.12-.107h1.41v-.469c0-.067.025-.1.077-.1a.183.183,0,0,1,.108.021.106.106,0,0,1,.024.08v.469h.815c.076,0,.114.035.114.107s-.038.1-.114.1h-.815Zm-.036-3.144v-.822h-.979v.822Zm0,1.02v-.815h-.979v.815Z" fill="#fff"/><path d="M88.06,247.5H85.312a.1.1,0,0,1-.113-.108.1.1,0,0,1,.113-.114H87.7v-1.026H85.84c-.076,0-.114-.036-.114-.108a.1.1,0,0,1,.114-.114H87.7v-.57c0-.076.042-.114.126-.114s.126.038.126.114v.57h1.626a.1.1,0,0,1,.114.114c0,.072-.038.108-.114.108H87.952v1.026h.45a13.122,13.122,0,0,0,1.979-1.56.327.327,0,0,1,.123-.087.139.139,0,0,1,.084,0,.08.08,0,0,1,.048.045.157.157,0,0,1,.016.063.185.185,0,0,1-.036.1,5.6,5.6,0,0,1-.534.486q-.252.216-.57.453t-.7.507h1.938a.1.1,0,0,1,.114.114c0,.071-.038.108-.114.108H88.48c-.173.111-.363.229-.573.351s-.443.251-.7.387H89.8a.4.4,0,0,1,.3.093.456.456,0,0,1,.091.321v1.817a.468.468,0,0,1-.091.328.4.4,0,0,1-.3.093h-3a.4.4,0,0,1-.3-.093.484.484,0,0,1-.087-.328v-1.842a5.884,5.884,0,0,1-1.158.469.077.077,0,0,1-.075-.045.21.21,0,0,1-.021-.088c0-.055.06-.105.18-.149a10.822,10.822,0,0,0,1.29-.534A15.979,15.979,0,0,0,88.06,247.5Zm1.872,1.883v-.7c0-.145-.063-.217-.191-.217H86.854c-.124,0-.186.072-.186.217v.7Zm0,1.045V249.6H86.668v.822a.232.232,0,0,0,.054.158.165.165,0,0,0,.132.063H89.74C89.868,250.646,89.932,250.571,89.932,250.424Z" fill="#fff"/><path d="M93.148,250.789c-.009.017-.019.039-.03.066a.151.151,0,0,1-.054.066.115.115,0,0,1-.1.006.4.4,0,0,1-.149-.114c-.168-.151-.328-.291-.48-.417a3.894,3.894,0,0,0-.456-.327.346.346,0,0,1-.129-.11.117.117,0,0,1-.012-.094.127.127,0,0,1,.054-.066.245.245,0,0,1,.063-.029,2.443,2.443,0,0,1,.7.45Q93.148,250.669,93.148,250.789Z" fill="#fff"/><path d="M101.824,250.334c-.141-.205-.3-.418-.486-.643s-.39-.458-.618-.7a.088.088,0,0,1-.042-.07.175.175,0,0,1,.019-.077.193.193,0,0,1,.048-.066.129.129,0,0,1,.06-.032c.017,0,.059.029.126.09a4.534,4.534,0,0,1,.391.443q.144.174.288.36t.281.378c.093.132.175.252.249.359s.138.2.189.283a.963.963,0,0,1,.162.3.1.1,0,0,1-.055.1.2.2,0,0,1-.113.036c-.036,0-.078-.047-.126-.139s-.122-.222-.223-.39l-3.876.222c-.231.017-.348-.027-.348-.131a.422.422,0,0,1,.156-.252q.324-.325.756-.834t.978-1.219H97.288q-.114,0-.114-.12c0-.079.038-.12.114-.12h2.586v-1.338H97.666c-.076,0-.114-.04-.114-.12s.038-.126.114-.126h2.208v-1.062q0-.114.126-.114t.132.114v1.062h2.22q.114,0,.114.126c0,.08-.038.12-.114.12h-2.22v1.344h2.586c.076,0,.114.033.114.1s-.008.1-.024.117a.136.136,0,0,1-.09.021H99.934q-.516.672-.95,1.188t-.8.895a.117.117,0,0,0-.042.075c0,.022.026.03.078.026Z" fill="#fff"/><path d="M106.108,247.406v1.176c0,.076-.04.113-.12.113s-.12-.037-.12-.113v-1.1a8.047,8.047,0,0,1-1.645,1.092,3.707,3.707,0,0,1-.894.337c-.061,0-.09-.043-.09-.127,0-.06.062-.109.186-.15a7.287,7.287,0,0,0,2.244-1.248h-2.346a.114.114,0,1,1,0-.228h2.544v-1.1q-.463.018-.912.018c-.152,0-.3,0-.435,0s-.271,0-.4-.009a1.684,1.684,0,0,1-.408-.042.148.148,0,0,1-.03-.072.113.113,0,0,1,.013-.075.116.116,0,0,1,.06-.051.214.214,0,0,1,.114-.006l.39.012q.12.006.258.009c.093,0,.194,0,.307,0a28.115,28.115,0,0,0,3.132-.2.493.493,0,0,1,.09-.006c.108,0,.162.044.162.132a.091.091,0,0,1-.072.09,7.046,7.046,0,0,1-.75.09l-.657.057q-.315.027-.62.039v1.116H108.7a.114.114,0,1,1,0,.228h-2.347a11.3,11.3,0,0,0,1.164.76,6.908,6.908,0,0,0,1.057.488c.12.045.18.095.18.15a.25.25,0,0,1-.021.084.077.077,0,0,1-.075.055,3.852,3.852,0,0,1-.96-.42,7.456,7.456,0,0,1-.8-.48A8.923,8.923,0,0,1,106.108,247.406Zm-1.95,1.787a2.241,2.241,0,0,1-.1.408,4.433,4.433,0,0,1-.21.555,1.3,1.3,0,0,1-.174.3c-.04.053-.074.078-.1.078a.129.129,0,0,1-.084-.035.1.1,0,0,1-.036-.084.5.5,0,0,1,.084-.2,3.335,3.335,0,0,0,.378-.99.45.45,0,0,1,.045-.132.08.08,0,0,1,.069-.03Q104.158,249.067,104.158,249.193Zm.149-2.97c.049,0,.122.05.223.15l.323.306q.079.084.117.132a.193.193,0,0,1,.045.081.072.072,0,0,1-.012.057.46.46,0,0,1-.042.048.141.141,0,0,1-.09.042c-.028,0-.056-.02-.084-.06a2.862,2.862,0,0,0-.261-.294,3.53,3.53,0,0,0-.3-.258c-.036-.016-.056-.035-.058-.057a.11.11,0,0,1,.016-.066.136.136,0,0,1,.054-.054A.221.221,0,0,1,104.308,246.224Zm.727,3.569a.887.887,0,0,0,.048.291.8.8,0,0,0,.354.438.634.634,0,0,0,.276.087q.1.012.258.018c.1,0,.227.007.366.007a2.838,2.838,0,0,0,.726-.078.634.634,0,0,0,.408-.222,1.153,1.153,0,0,0,.1-.582.217.217,0,0,1,.023-.121.113.113,0,0,1,.09-.029.138.138,0,0,1,.1.027.189.189,0,0,1,.026.123,1.7,1.7,0,0,1-.084.611.586.586,0,0,1-.252.307,1.136,1.136,0,0,1-.39.149,3.894,3.894,0,0,1-.786.054c-.187,0-.346,0-.474-.008a1.839,1.839,0,0,1-.294-.033.835.835,0,0,1-.378-.174,1,1,0,0,1-.268-.349,1.036,1.036,0,0,1-.1-.444v-.888a.2.2,0,0,1,.027-.123.112.112,0,0,1,.093-.032.136.136,0,0,1,.1.026.2.2,0,0,1,.027.129Zm1-.989q.083,0,.138.114l.288.552a1.929,1.929,0,0,1,.229.552.094.094,0,0,1-.046.087.162.162,0,0,1-.087.027q-.089,0-.126-.126a2.931,2.931,0,0,0-.177-.459,4.471,4.471,0,0,0-.261-.465c-.068-.1-.089-.178-.063-.219A.119.119,0,0,1,106.036,248.8Zm1.758-2.682a.116.116,0,0,1,.081.039.119.119,0,0,1,.039.087c0,.028-.028.071-.084.129a3.183,3.183,0,0,1-.288.249q-.2.162-.354.258a.539.539,0,0,1-.2.1.1.1,0,0,1-.061-.021.109.109,0,0,1-.042-.057.119.119,0,0,1,0-.078.165.165,0,0,1,.075-.078,3.978,3.978,0,0,0,.411-.279,3.719,3.719,0,0,0,.351-.309A.1.1,0,0,1,107.794,246.122Zm.858,4.128a.148.148,0,0,1-.049.107.139.139,0,0,1-.1.042c-.04,0-.088-.075-.144-.228-.064-.172-.136-.344-.214-.514s-.167-.341-.267-.513c-.048-.084-.059-.146-.033-.183a.122.122,0,0,1,.105-.057.077.077,0,0,1,.042.018.28.28,0,0,1,.06.072c.024.035.055.086.09.149s.08.147.133.252.1.2.149.3.088.179.12.255.058.141.078.192A.385.385,0,0,1,108.652,250.25Z" fill="#fff"/><path d="M114.364,246.884a.483.483,0,0,1-.087.327.4.4,0,0,1-.3.093H110.1V248.8a4.809,4.809,0,0,1-.245,1.5q-.24.744-.391.744a.18.18,0,0,1-.084-.021.143.143,0,0,1-.062-.058.142.142,0,0,1-.021-.077.128.128,0,0,1,.036-.084,2.877,2.877,0,0,0,.366-.906,5.019,5.019,0,0,0,.144-1.218v-2.508a.448.448,0,0,1,.09-.315.426.426,0,0,1,.313-.093h3.732a.4.4,0,0,1,.3.093.458.458,0,0,1,.087.315Zm-.246-.048v-.612a.276.276,0,0,0-.039-.168.183.183,0,0,0-.147-.048H110.29a.182.182,0,0,0-.15.048.294.294,0,0,0-.036.168v.834h3.828a.174.174,0,0,0,.147-.054A.3.3,0,0,0,114.118,246.835Zm-2.838,2.34V250a.428.428,0,0,0,.186.42,1.063,1.063,0,0,0,.243.078,2.553,2.553,0,0,0,.345.041c.136.009.262.016.375.021s.22.01.315.01a5.075,5.075,0,0,0,1-.072.585.585,0,0,0,.42-.258,1.45,1.45,0,0,0,.108-.637q.006-.24.132-.24c.088,0,.132.064.132.192a3.652,3.652,0,0,1-.039.474,1.075,1.075,0,0,1-.12.363.659.659,0,0,1-.234.243.982.982,0,0,1-.387.12,7.263,7.263,0,0,1-1.056.054q-.378,0-.646-.009c-.178-.006-.324-.018-.44-.033a.991.991,0,0,1-.282-.066.414.414,0,0,1-.18-.138.6.6,0,0,1-.1-.222,1.525,1.525,0,0,1-.029-.324v-2.395c0-.075.042-.113.126-.113s.126.038.126.113v1.291a9.534,9.534,0,0,0,2.735-.828.231.231,0,0,1,.192-.027.135.135,0,0,1,.066.135c0,.036-.028.072-.084.108s-.227.106-.534.233a10.514,10.514,0,0,1-1.041.349A11.726,11.726,0,0,1,111.28,249.176Z" fill="#fff"/><path d="M117.148,250.789c-.009.017-.019.039-.03.066a.151.151,0,0,1-.054.066.115.115,0,0,1-.1.006.4.4,0,0,1-.149-.114c-.168-.151-.328-.291-.48-.417a3.894,3.894,0,0,0-.456-.327.346.346,0,0,1-.129-.11.117.117,0,0,1-.012-.094.127.127,0,0,1,.054-.066.245.245,0,0,1,.063-.029,2.443,2.443,0,0,1,.7.45Q117.148,250.669,117.148,250.789Z" fill="#fff"/><path d="M123.3,245.558a2,2,0,0,1-.246.558,11.293,11.293,0,0,1-.81,1.259q-.229.313-.417.531t-.327.357a.2.2,0,0,1-.12.072.117.117,0,0,1-.09-.049.152.152,0,0,1-.042-.1c0-.038.038-.093.114-.165a7.2,7.2,0,0,0,.918-1.134,7.465,7.465,0,0,0,.726-1.3c.04-.1.092-.15.156-.15Q123.3,245.438,123.3,245.558Zm2.532,4.86-3.672.216c-.284.02-.426-.048-.426-.2a.432.432,0,0,1,.132-.27,13.558,13.558,0,0,0,1-1.363,17.255,17.255,0,0,0,.912-1.577c.056-.1.117-.156.186-.156a.108.108,0,0,1,.1.06.176.176,0,0,1-.019.156c-.008.021-.041.084-.1.189s-.144.255-.255.447-.23.387-.354.584-.256.4-.4.615-.278.407-.414.6-.274.373-.414.549a.124.124,0,0,0-.03.061q0,.059.126.047l3.51-.2q-.167-.366-.369-.75t-.446-.793a.176.176,0,0,1-.019-.168A.123.123,0,0,1,125,248.4c.044,0,.094.046.15.138q.444.781.81,1.561a3.964,3.964,0,0,1,.366.888.124.124,0,0,1-.045.1.145.145,0,0,1-.087.035c-.061,0-.11-.054-.15-.162C125.978,250.777,125.906,250.6,125.83,250.418Zm.954-2.178a.157.157,0,0,1-.042.1.116.116,0,0,1-.078.048c-.061,0-.17-.091-.33-.271a7.356,7.356,0,0,1-.543-.692q-.286-.406-.6-.945a3.943,3.943,0,0,1-.492-.99.1.1,0,0,1,.048-.1.173.173,0,0,1,.054-.027.106.106,0,0,1,.061,0,.147.147,0,0,1,.063.045.437.437,0,0,1,.069.12,6.481,6.481,0,0,0,.327.678q.195.354.453.75t.491.672a3.482,3.482,0,0,0,.433.456A.2.2,0,0,1,126.784,248.24Z" fill="#fff"/><path d="M128.578,248.6h.815q.091,0,.091.12t-.091.12h-.815V250.3c.24-.068.43-.128.57-.181a1.179,1.179,0,0,1,.258-.078c.067,0,.1.049.1.145,0,.032-.021.059-.065.078-.021.008-.075.027-.165.057s-.213.067-.369.111-.312.1-.48.145-.344.094-.527.138a4.176,4.176,0,0,1-.648.144q-.108,0-.108-.132a.086.086,0,0,1,.061-.084,1.962,1.962,0,0,1,.324-.078v-2.315c0-.061.038-.09.113-.09s.12.029.12.09v2.268l.582-.15V247.58h-.521a.411.411,0,0,1-.282-.078.333.333,0,0,1-.084-.252v-1.236a.352.352,0,0,1,.084-.261.4.4,0,0,1,.282-.081h1.128a.4.4,0,0,1,.278.078.354.354,0,0,1,.081.264v1.236a.33.33,0,0,1-.081.254.4.4,0,0,1-.278.076h-.372Zm.5-1.41v-1.122c0-.12-.068-.18-.2-.18h-.984c-.132,0-.2.06-.2.18v1.122c0,.116.065.174.2.174h.984a.219.219,0,0,0,.146-.048A.156.156,0,0,0,129.076,247.189Zm1.284-1.35h1.571a.654.654,0,0,1,.34.075.229.229,0,0,1,.122.2,1.391,1.391,0,0,1-.359.642,4.146,4.146,0,0,1-.72.739,4.508,4.508,0,0,0,1.386.8c.116.045.174.093.174.145a.179.179,0,0,1-.024.078.08.08,0,0,1-.077.048,2.137,2.137,0,0,1-.624-.233,4.6,4.6,0,0,1-1.026-.7q-.246.174-.5.323t-.522.283a2.4,2.4,0,0,1-.672.252c-.092,0-.138-.035-.138-.1s.074-.134.222-.174a5.71,5.71,0,0,0,1.44-.731,5.441,5.441,0,0,1-.882-1l-.1.177q-.054.093-.12.189l-.1.141a.53.53,0,0,1-.066.076.133.133,0,0,1-.045.029.112.112,0,0,1-.036.006c-.063,0-.1-.029-.1-.09a.257.257,0,0,1,.066-.15,3.165,3.165,0,0,0,.365-.606,3.649,3.649,0,0,0,.252-.63,1.8,1.8,0,0,1,.1-.288.1.1,0,0,1,.072-.03.151.151,0,0,1,.081.018.083.083,0,0,1,.026.072.716.716,0,0,1-.026.159C130.423,245.637,130.4,245.728,130.36,245.839Zm1.962,4.7a.339.339,0,0,1-.081.256.413.413,0,0,1-.279.074H130.24a.462.462,0,0,1-.285-.065.334.334,0,0,1-.081-.265v-1.637a.352.352,0,0,1,.084-.262.4.4,0,0,1,.282-.081h1.722a.4.4,0,0,1,.279.078.357.357,0,0,1,.081.265Zm-.229-.06v-1.524c0-.119-.067-.18-.2-.18h-1.584c-.132,0-.2.061-.2.18v1.524c0,.116.065.175.2.175h1.584a.22.22,0,0,0,.147-.049A.155.155,0,0,0,132.094,250.483Zm-.954-3.138a3.611,3.611,0,0,0,.69-.684,3.126,3.126,0,0,0,.213-.3.4.4,0,0,0,.069-.18.088.088,0,0,0-.066-.087.611.611,0,0,0-.2-.024h-1.571c-.021.044-.037.081-.052.111s-.024.055-.032.075a3.687,3.687,0,0,0,.4.558A4.945,4.945,0,0,0,131.14,247.346Z" fill="#fff"/><path d="M134.116,247.25h.846a.425.425,0,0,1,.342.119.839.839,0,0,1,.1.5c0,.252-.013.621-.036,1.1s-.048.808-.072.983a1.18,1.18,0,0,1-.138.445.792.792,0,0,1-.276.293.6.6,0,0,1-.342.108.96.96,0,0,1-.372-.084c-.124-.052-.186-.1-.186-.156a.137.137,0,0,1,.054-.126.092.092,0,0,1,.126.006.645.645,0,0,0,.513.084.487.487,0,0,0,.315-.318,3.817,3.817,0,0,0,.114-.791q.053-.636.054-1.213a4.063,4.063,0,0,0-.024-.653c-.016-.052-.069-.078-.162-.078h-.857v.33a8.278,8.278,0,0,1-.1,1.41,4.046,4.046,0,0,1-.123.536,3.847,3.847,0,0,1-.177.478,2.542,2.542,0,0,1-.27.522.177.177,0,0,1-.12.078.167.167,0,0,1-.1-.03.078.078,0,0,1-.042-.069.47.47,0,0,1,.072-.171,4.244,4.244,0,0,0,.475-1.2,7.28,7.28,0,0,0,.138-1.548V246.4h-.51a.139.139,0,0,1-.1-.024.155.155,0,0,1-.021-.1.129.129,0,0,1,.023-.093.158.158,0,0,1,.1-.021h1a4.249,4.249,0,0,0-.288-.636c-.044-.048-.051-.09-.019-.126a.2.2,0,0,1,.126-.066.127.127,0,0,1,.09.054.892.892,0,0,1,.066.1c.028.048.058.107.09.177s.066.148.1.234.069.173.1.261h.894a.106.106,0,0,1,.12.12c0,.076-.04.114-.12.114h-1.4Zm2.3-1.351h2.316a.12.12,0,0,1,.084.024.194.194,0,0,1,.023.12c0,.06-.036.09-.107.09h-2.412c-.053.116-.106.229-.162.339a3.513,3.513,0,0,1-.187.321,2.28,2.28,0,0,1-.252.367.176.176,0,0,1-.1.047.167.167,0,0,1-.084-.029c-.012-.012-.023-.021-.033-.03a.036.036,0,0,1-.009-.039.232.232,0,0,1,.033-.071c.018-.031.045-.074.081-.129a4.333,4.333,0,0,0,.672-1.344q.054-.2.138-.2a.164.164,0,0,1,.084.024.079.079,0,0,1,.048.084A2.853,2.853,0,0,1,136.42,245.9Zm.468,1.374-.272.039c-.074.01-.131.018-.171.021a.224.224,0,0,0-.171.093.46.46,0,0,0-.058.261V250.4c0,.1.028.156.084.156a1.068,1.068,0,0,0,.366-.162,4.788,4.788,0,0,0,.546-.349.3.3,0,0,1,.15-.06.114.114,0,0,1,.087.03.108.108,0,0,1,.023.081.145.145,0,0,1-.032.087.859.859,0,0,1-.165.139,4.18,4.18,0,0,1-.382.221q-.246.132-.446.229a.829.829,0,0,1-.268.1q-.209,0-.21-.437v-2.809a.676.676,0,0,1,.081-.375.368.368,0,0,1,.273-.141q.539-.06,1.1-.18c.192-.044.351-.083.475-.117a2.6,2.6,0,0,0,.288-.093.868.868,0,0,1,.261-.09.088.088,0,0,1,.087.054.208.208,0,0,1,.03.1c0,.028-.028.056-.084.084a4.174,4.174,0,0,1-.5.168c-.141.04-.281.077-.423.111s-.289.064-.441.093c.044.257.095.5.153.718a5.568,5.568,0,0,0,.2.62,5.951,5.951,0,0,0,.646-.317,3.8,3.8,0,0,0,.471-.318.159.159,0,0,1,.162-.036.113.113,0,0,1,.078.114.159.159,0,0,1-.072.107,3.468,3.468,0,0,1-.443.3,5.732,5.732,0,0,1-.75.377c.084.209.176.408.275.6s.2.371.307.537a5.373,5.373,0,0,0,.314.453,2.883,2.883,0,0,0,.315.348.372.372,0,0,1,.093.13.138.138,0,0,1,.006.1.112.112,0,0,1-.1.074c-.093,0-.28-.189-.564-.57a6.35,6.35,0,0,1-.405-.635q-.195-.349-.375-.763c-.115-.276-.22-.563-.312-.86A9.448,9.448,0,0,1,136.888,247.273Z" fill="#fff"/><path d="M140,248.287c-.044.053-.094.11-.15.174s-.119.137-.191.217a2.469,2.469,0,0,1-.271.258.213.213,0,0,1-.1.023.1.1,0,0,1-.072-.029.146.146,0,0,1-.029-.084c0-.032.052-.1.155-.2a6.519,6.519,0,0,0,1.206-1.524c.064-.111.114-.167.15-.167a.155.155,0,0,1,.1.03.093.093,0,0,1,.039.078.215.215,0,0,1-.036.108c-.02.043-.086.151-.2.324-.057.084-.115.168-.178.252s-.127.17-.194.258v2.939c0,.072-.04.107-.12.107s-.114-.035-.114-.107Zm.774-2.777a.806.806,0,0,1-.129.273c-.087.142-.191.3-.315.471-.064.088-.131.175-.2.261s-.145.173-.225.261a3.589,3.589,0,0,1-.33.342.279.279,0,0,1-.145.078.118.118,0,0,1-.084-.035.138.138,0,0,1-.026-.039.09.09,0,0,1,0-.052.212.212,0,0,1,.032-.069.983.983,0,0,1,.094-.1,5.465,5.465,0,0,0,1.031-1.32c.061-.1.108-.156.145-.156a.238.238,0,0,1,.107.024A.074.074,0,0,1,140.776,245.51Zm2.682,2.25h-2.346q-.114,0-.114-.126c0-.085.038-.126.114-.126h3.666c.071,0,.107.041.107.126s-.036.126-.107.126H143.7v2.55q0,.642-.714.642a2.606,2.606,0,0,1-.63-.09,2.108,2.108,0,0,1-.45-.144c-.061-.028-.09-.064-.09-.108a.135.135,0,0,1,.068-.132.282.282,0,0,1,.226.03,2.761,2.761,0,0,0,.647.2,1.042,1.042,0,0,0,.411-.006.335.335,0,0,0,.216-.15.5.5,0,0,0,.069-.233Zm.984-1.9c.075,0,.113.042.113.126s-.038.12-.113.12H141.49c-.076,0-.114-.04-.114-.12s.038-.126.114-.126Z" fill="#fff"/><path d="M147.148,250.789c-.009.017-.019.039-.03.066a.151.151,0,0,1-.054.066.115.115,0,0,1-.1.006.4.4,0,0,1-.149-.114c-.168-.151-.328-.291-.48-.417a3.894,3.894,0,0,0-.456-.327.346.346,0,0,1-.129-.11.117.117,0,0,1-.012-.094.127.127,0,0,1,.054-.066.245.245,0,0,1,.063-.029,2.443,2.443,0,0,1,.7.45Q147.148,250.669,147.148,250.789Z" fill="#fff"/><path d="M152.326,248.131a.107.107,0,0,1-.042.084.132.132,0,0,1-.09.037c-.032,0-.086-.047-.162-.139s-.185-.212-.336-.371-.268-.273-.346-.34-.116-.115-.116-.146a.113.113,0,0,1,.065-.114.111.111,0,0,1,.126.019.426.426,0,0,1,.087.074c.042.042.1.1.178.172s.146.139.21.2l.18.18.129.139a.756.756,0,0,1,.075.09.331.331,0,0,1,.033.063A.168.168,0,0,1,152.326,248.131Zm.072.511a3.555,3.555,0,0,1-.187.672q-.1.289-.192.531c-.063.161-.13.313-.2.452s-.126.256-.174.346a1.279,1.279,0,0,1-.114.184c-.057.067-.1.1-.126.1a.16.16,0,0,1-.084-.024.1.1,0,0,1-.036-.087.554.554,0,0,1,.1-.225,6.191,6.191,0,0,0,.757-1.932c.023-.093.065-.139.126-.139Q152.4,248.521,152.4,248.642Zm.09-2.022a.165.165,0,0,1-.027.06.129.129,0,0,1-.054.045.087.087,0,0,1-.075-.006.3.3,0,0,1-.1-.1c-.044-.064-.095-.132-.15-.2s-.118-.15-.186-.234-.129-.156-.181-.216-.1-.108-.132-.144c-.072-.076-.107-.128-.107-.156a.111.111,0,0,1,.035-.078.105.105,0,0,1,.078-.042c.028,0,.072.03.132.09a4.408,4.408,0,0,1,.307.342q.221.258.339.42A.523.523,0,0,1,152.488,246.62Zm.762.732h.564a.574.574,0,0,1,.329.072.277.277,0,0,1,.12.216,1.928,1.928,0,0,1,.019.219q.006.148.006.369a8.185,8.185,0,0,1-.174,2.052c-.116.381-.309.57-.576.57a1.459,1.459,0,0,1-.432-.1c-.185-.064-.276-.133-.276-.205a.131.131,0,0,1,.023-.071.081.081,0,0,1,.072-.036.733.733,0,0,1,.234.078.8.8,0,0,0,.317.084c.208,0,.354-.191.438-.576a9.5,9.5,0,0,0,.132-1.908,1.589,1.589,0,0,0-.036-.455c-.02-.057-.08-.084-.18-.084h-.582a8.364,8.364,0,0,1-.2,1.649,5.132,5.132,0,0,1-.2.69,5.058,5.058,0,0,1-.261.582q-.283.533-.4.533a.117.117,0,0,1-.105-.066c-.026-.043-.011-.107.045-.191a4.51,4.51,0,0,0,.657-1.473,7.534,7.534,0,0,0,.225-1.9v-1.116h-.432q-.1,0-.1-.114t.1-.12h.8a1.692,1.692,0,0,0-.15-.438.1.1,0,0,1,0-.129.173.173,0,0,1,.111-.075q.163,0,.3.642h.912q.108,0,.108.12t-.108.114h-1.3Zm1.89-1.26h1.513c.063,0,.1.04.1.12s-.032.114-.1.114h-1.608a4.506,4.506,0,0,1-.3.588c-.057.092-.105.168-.147.228s-.072.1-.093.126a.182.182,0,0,1-.107.066.167.167,0,0,1-.061-.012.076.076,0,0,1-.042-.043.126.126,0,0,1,0-.08.384.384,0,0,1,.069-.123,4.228,4.228,0,0,0,.689-1.435c.028-.12.076-.18.145-.18s.1.042.1.126A2.713,2.713,0,0,1,155.14,246.092Zm1.11,3.107a2.737,2.737,0,0,1,.036.432,1.681,1.681,0,0,1-.24.931.752.752,0,0,1-.672.384,1.446,1.446,0,0,1-.5-.119c-.2-.076-.294-.152-.294-.229a.107.107,0,0,1,.065-.1.185.185,0,0,1,.175.033,1.031,1.031,0,0,0,.521.162.59.59,0,0,0,.528-.318,1.407,1.407,0,0,0,.191-.744,2.212,2.212,0,0,0-.048-.432h-1.476c-.068,0-.1-.037-.1-.113s.034-.121.1-.121h1.4a1.851,1.851,0,0,0-.533-.575.22.22,0,0,1-.1-.175c0-.062.048-.131.145-.2q.779-.564.779-.666c0-.036-.05-.055-.149-.055h-1.177a.131.131,0,0,1-.09-.023.23.23,0,0,1-.018-.114c0-.063.036-.1.107-.1h1.429a.25.25,0,0,1,.165.054.168.168,0,0,1,.063.133.315.315,0,0,1-.048.155,1.55,1.55,0,0,1-.306.294c-.088.068-.174.137-.258.2s-.171.136-.259.2c-.056.044-.084.084-.084.12a.137.137,0,0,0,.061.1,1.58,1.58,0,0,1,.534.641h.575c.072,0,.108.041.108.121s-.036.113-.108.113Z" fill="#fff"/><path d="M158.734,248.791a2.278,2.278,0,0,1-.271.612q-.132.253-.288.5t-.33.51c-.231.34-.382.51-.449.51a.129.129,0,0,1-.085-.049.23.23,0,0,1-.032-.041.071.071,0,0,1-.01-.055.326.326,0,0,1,.036-.08.722.722,0,0,1,.1-.123,3.839,3.839,0,0,0,.27-.334c.092-.125.184-.267.276-.422a8.2,8.2,0,0,0,.5-.973c.048-.116.1-.174.156-.174a.16.16,0,0,1,.077.029A.1.1,0,0,1,158.734,248.791Zm-.061-.768a.11.11,0,0,1-.021.061.132.132,0,0,1-.058.045.12.12,0,0,1-.081,0,.235.235,0,0,1-.1-.065,4.575,4.575,0,0,0-.438-.33q-.27-.186-.485-.306c-.12-.064-.181-.122-.181-.174q0-.12.1-.12a.744.744,0,0,1,.3.12,5.814,5.814,0,0,1,.522.348,3.343,3.343,0,0,1,.378.3A.172.172,0,0,1,158.674,248.023Zm.15-1.5a.262.262,0,0,1-.024.057.11.11,0,0,1-.048.048.116.116,0,0,1-.084,0,.337.337,0,0,1-.132-.093,6.81,6.81,0,0,0-.853-.666.216.216,0,0,1-.1-.087.11.11,0,0,1-.009-.081.117.117,0,0,1,.045-.06.167.167,0,0,1,.063-.03.655.655,0,0,1,.249.126q.189.126.478.36.149.114.237.189a1.088,1.088,0,0,1,.116.111A.194.194,0,0,1,158.824,246.523Zm1.218,1.206a.3.3,0,0,1,.348.336,3.087,3.087,0,0,1-.281.942,4.476,4.476,0,0,1-.318.639,3.81,3.81,0,0,1-.408.555c-.3.348-.494.522-.582.522a.118.118,0,0,1-.062-.021.123.123,0,0,1-.048-.061.13.13,0,0,1,0-.094.292.292,0,0,1,.1-.119,3.808,3.808,0,0,0,1.032-1.362,3.514,3.514,0,0,0,.324-.924c0-.116-.1-.174-.312-.174h-.846q-.1,0-.1-.12t.1-.12Zm1.074-.09v2.735c0,.393-.188.588-.564.588a1.866,1.866,0,0,1-.437-.065c-.084-.021-.15-.038-.2-.054a.4.4,0,0,1-.108-.051.136.136,0,0,1-.045-.051.165.165,0,0,1-.009-.055q0-.126.108-.126a.244.244,0,0,1,.1.024,3.431,3.431,0,0,0,.45.1.62.62,0,0,0,.272-.009.218.218,0,0,0,.139-.13.8.8,0,0,0,.045-.264v-3.27a.248.248,0,0,0-.069-.183.225.225,0,0,0-.165-.069H159.3c-.076,0-.114-.032-.114-.1a.208.208,0,0,1,.024-.123.117.117,0,0,1,.09-.027h1.38a.421.421,0,0,1,.352.117.717.717,0,0,1,.087.41c.067.213.141.418.219.619s.159.4.243.588a6.2,6.2,0,0,0,.465-.52,5.012,5.012,0,0,0,.387-.561.312.312,0,0,1,.1-.123.1.1,0,0,1,.084-.012.114.114,0,0,1,.057.051.307.307,0,0,1,.027.054,1.817,1.817,0,0,1-.4.63q-.2.252-.356.423a2.656,2.656,0,0,1-.279.267c.148.324.309.639.483.942a10.54,10.54,0,0,0,.572.894.777.777,0,0,1,.145.265.105.105,0,0,1-.042.09.134.134,0,0,1-.078.03c-.024,0-.058-.021-.1-.066a1.759,1.759,0,0,1-.133-.174c-.067-.1-.158-.23-.27-.4a8.654,8.654,0,0,1-.639-1.137A9.043,9.043,0,0,1,161.116,247.64Zm.87-1.716c0,.088-.042.132-.126.132a.675.675,0,0,1-.156-.03,9.374,9.374,0,0,0-1.812-.234c-.132,0-.2-.046-.2-.126s.042-.12.126-.12c.044,0,.133.007.267.021s.315.035.543.063l.579.069c.158.018.283.035.375.051a1.279,1.279,0,0,1,.336.078A.108.108,0,0,1,161.986,245.923Z" fill="#fff"/></svg>