<svg id="template" xmlns="http://www.w3.org/2000/svg" width="655" height="493" viewBox="0 0 655 493"><title>03 TRUNK</title><path d="M480.307,225.744c-.266-1.753-.362-3.671-1.445-5.075,1.781-.214,3.347.328,5.083.489a7.486,7.486,0,0,0,2.112-.144c.381-.073,1.635-.717,1.927-.627a8.391,8.391,0,0,1-3.721-2.379,17.138,17.138,0,0,0,4.525-.206,6.978,6.978,0,0,0,3.9-2.165,1.2,1.2,0,0,0,.29-.507,1.348,1.348,0,0,0-.122-.725c-.869-2.364-1.686-4.872-3.853-6.156a10.146,10.146,0,0,0,5.892-3.287,7.423,7.423,0,0,0,1.144-1.5c1.148-2.091.652-4.717.12-7.042a36.517,36.517,0,0,0-11.257-.264,21,21,0,0,0-4.748.84c-1.264.424-1.769,1.2-2.794-.175-1.149-1.544-1.708-3.214-.27-4.509a12.026,12.026,0,0,1,4.877-2.892c-.549-2.733-2.575-4.9-4.55-6.863a52.965,52.965,0,0,0-4.648-4.664q-4.655-3.687-9.268-7.425a18.6,18.6,0,0,1-2.5-2.274c-1.819-2.113-2.534-5.083-4.647-6.9a12.061,12.061,0,0,0,4.759-1.144c.288-.136.561-.337.835-.5a26.789,26.789,0,0,0-3.415-4.313,5.658,5.658,0,0,0-2.218-1.572,6.61,6.61,0,0,0,2.767-.321,8.6,8.6,0,0,1,1.9-.637,9.389,9.389,0,0,0-2.018-3.623,6.365,6.365,0,0,0,3.312.193,2.157,2.157,0,0,0,.858-.377l.583-.36a31.045,31.045,0,0,0-4.6-6.135c1.631-.647,2.483-2.566,3.063-4.122a.341.341,0,0,0,.026-.238.352.352,0,0,0-.2-.164,22.216,22.216,0,0,1-5.266-3.754,1.109,1.109,0,0,1-.428-.589c-.171-.966,2.175-.621,2.682-.723a9.78,9.78,0,0,0,7.594-7.18c.184-.707.141-6.338.219-6.356-.179.041-.158-.113-.321-.03-3.647,1.86-7.736.379-11.579,1.059-3.323.588-6.873,3.338-6.769,7a12.854,12.854,0,0,0,.948,3.949.241.241,0,0,1,.017.176.235.235,0,0,1-.166.106,4.243,4.243,0,0,1-2.594-.12,2.581,2.581,0,0,1-1.267-.923,3.588,3.588,0,0,1-.4-2.112c.022-.855-.129-1.771.51-2.339a12.446,12.446,0,0,0,3.236-13.451.731.731,0,0,0-.237-.363.744.744,0,0,0-.472-.073,25.387,25.387,0,0,0-8.631,2.179,13.3,13.3,0,0,0-4.165,3.064,3.8,3.8,0,0,0-.977,3.512,10.736,10.736,0,0,0-7.191-2.269,1.235,1.235,0,0,1-.522-.041,1.034,1.034,0,0,1-.373-.294,7.992,7.992,0,0,1-1.581-5.061,13,13,0,0,1,.326-4.066c.363-1.316.624-2.981,1.944-3.331a12.355,12.355,0,0,0,7.218-5.318.566.566,0,0,0,.12-.345c-.019-.18-.194-.3-.351-.385a33.828,33.828,0,0,1-6.435-4.34c-3.582-3.359-12.459-4.32-13.648,2.016A5.546,5.546,0,0,0,414.79,102a.914.914,0,0,1,.321,1.329,2.055,2.055,0,0,1-1.326.766c-1.3.295-2.691.154-3.947.6a8.839,8.839,0,0,0-3.146,2.371c-.351.359-.4.137-.588.6a21.934,21.934,0,0,0-1.545,11.9,20.023,20.023,0,0,0-5.922.818,26.364,26.364,0,0,0-5.032,1.374,6.021,6.021,0,0,0,3.1-3.921c-2.669-.817-5.33-1.746-8.042-2.412-.724-.178-8.153-1.655-8.287-1.068.141-.618,1.061-.917,1.006-1.548-.032-.369-.393-.606-.716-.787l-2.329-1.3c-1.873-1.048-2.1-3.376.136-4.172a8.117,8.117,0,0,1,8.693,2.532,8.748,8.748,0,0,0,4.7,2.734,15.8,15.8,0,0,0,5.5.176,8.522,8.522,0,0,0,5.167-2.056,8.375,8.375,0,0,0,1.338-1.929,27.038,27.038,0,0,0,2.61-7.358,10.293,10.293,0,0,0-2.626-2.349,17.775,17.775,0,0,0-3.5-1.452c1.92-.577,3.91-.891,5.835-1.449a16.312,16.312,0,0,0,4.782-2.441,4.954,4.954,0,0,0,2.121-4.848,7.409,7.409,0,0,0-.863-2.282c-1.8-3.316-4.756-5.809-6.6-9.1a33.446,33.446,0,0,0-2.928,2.277,43.255,43.255,0,0,0-8.137,11.1,24.17,24.17,0,0,0-4.687.054.4.4,0,0,0-.265.1.425.425,0,0,0-.079.229c-.263,1.764-1.508,2.489-2.943,3.3-4.149,2.341-6.576,5.876-9.471,9.659a31.452,31.452,0,0,1-5.057,5.225,1.865,1.865,0,0,1-.616.379,4.183,4.183,0,0,1-.869.062c-1.062.089-1.766,1.015-2.755,1.285-.808.22-1.631-.184-2.268.5-.459.49-.608.408-.739,1.068a6.4,6.4,0,0,0-.176,2.267,2.172,2.172,0,0,0,1.3,1.748c.8.274,1.752-.092,2.474.341.888.532.8,1.826.592,2.841a8.607,8.607,0,0,0-1.841-.574,22.148,22.148,0,0,1,.79,6.824,35.928,35.928,0,0,1-5.882-6.035c-1.654-2.151-2.8-4.625-4.452-6.742a15.458,15.458,0,0,0-5.565-4.4c-1.732-.868-3.282-.858-5.181-1.051,0-1.265.137-2.575.136-3.84a7.649,7.649,0,0,0,4.406.542q2.191-.186,4.37-.489a8.557,8.557,0,0,0,2.189-.514,4.544,4.544,0,0,0,2.173-1.955,1.411,1.411,0,0,0,1.842.353,6.333,6.333,0,0,1,4.128-1.094c1.452.049,2.882.366,4.331.478a15.665,15.665,0,0,0,9.724-2.541,4.369,4.369,0,0,0,2.364-2.976,11.791,11.791,0,0,0,.366-5.428c-.615-2.684-3.327-4.884-5.928-5.544-.786-.2-3.478-.678-4.106.067a5.13,5.13,0,0,0,.829-5.107c-2.491-.185-4.959-.624-7.45-.815-3.946-.3-7.984-.027-10.961,2.8a14.74,14.74,0,0,0-2.1,2.52,5.13,5.13,0,0,1-1.878,2.036.428.428,0,0,1-.253.052c-.173-.034-.247-.235-.294-.4a13.155,13.155,0,0,0-1.889-4.069,19.175,19.175,0,0,0-11.336-7.806c-.273,2.622.044,5.2-.665,7.8a6.122,6.122,0,0,1-1.74,2.737,18.271,18.271,0,0,1-2.62,1.971c-.375.248-.329.42-.775.365a8.145,8.145,0,0,0-6.461,2.094,2.884,2.884,0,0,0-.918,1.365,3.026,3.026,0,0,0-.025,1.025,11.328,11.328,0,0,0,.586,2.595c.221.624.7,1.233.289,1.754a4.515,4.515,0,0,0-2.586,2.5,8.976,8.976,0,0,0-.965,7,16.973,16.973,0,0,0-4.155.094c0-.252-.044-.44-.026-.691a7.41,7.41,0,0,0-1.648-5.167c-.733-.892-1.667-1.6-2.411-2.483a28.025,28.025,0,0,1-3.484-5.473c-.912-1.776-2.351-4.755-4.689-4.791A13.43,13.43,0,0,1,306,84.344a10.164,10.164,0,0,0,.7-2.519c-.007.047,3.127-.175,3.341-.211a3.241,3.241,0,0,0,2.4-1.448c.752.984,1.554,1.331,2.31,2.312.92,1.192,2.586,1.472,4.091,1.543a12.737,12.737,0,0,0,3.867-.3A6.077,6.077,0,0,0,325.96,81.7c1.721-2.195,2.02-6.215,1.219-8.785a9.6,9.6,0,0,0-11.453,3.563,5.656,5.656,0,0,0-.67,1.267,1.516,1.516,0,0,1-.38.714c-.212.172-.546-.063-.6-.331a7.142,7.142,0,0,0,.936-5.711c-.513-1.921-1.715-2.277-2.971-3.818a7.381,7.381,0,0,0-3.9-2.168,22.029,22.029,0,0,0-7.7-.689,2.782,2.782,0,0,0-1.8.634c.448.534.369.671.829,1.194a3.734,3.734,0,0,1,.469,3.629,16.228,16.228,0,0,1-1.877,3.331,22.867,22.867,0,0,0-3.407,10.077c-.152,1.643.042,3.318-.117,4.923-.157,1.582-.185,3.054,1,4.292a7.71,7.71,0,0,0,2.32,1.564c.267.126.691.122.7.417a4.4,4.4,0,0,0-.266,4.028.38.38,0,0,1-.1.352,17.1,17.1,0,0,0-2.685-.121,5.722,5.722,0,0,0-2.569.711.112.112,0,0,1-.093.022c-.034-.013-.045-.055-.05-.091-.021-.143,0,.027.016-.117a4.353,4.353,0,0,0-2.322-4.167,8.839,8.839,0,0,0-4.918-.88,9.274,9.274,0,0,0-3.447.769,12.292,12.292,0,0,0-3.367,2.734c-2.455,2.531-5.03,5.291-5.6,8.771a17.431,17.431,0,0,0-.129,3.185,4.157,4.157,0,0,1-.872-3.454,8.226,8.226,0,0,1,1.519-2.951c2.464-3.516,5.441-6.429,7.125-10.379a7.379,7.379,0,0,0-.242-6.7c-3.783-6.061-12.7-4.888-18.12-1.933-.588.321-1.218.806-1.209,1.476.006.517.393,1.089.081,1.5-.074-.137-.079.306-.126.157a10.015,10.015,0,0,0-2.037-3.471,15.226,15.226,0,0,0-4.671-3.646c-.568-.287-3.95-2.147-4.386-1.313a.206.206,0,0,0-.005.132,8.576,8.576,0,0,1-.364,4.231c-.522,1.541-1.3,2.924-1.682,4.515a9.107,9.107,0,0,0,.157,4.82c.852,2.782,3.612,4.307,6.4,4.533a2.045,2.045,0,0,1,1.041.274.694.694,0,0,1,.22.947.927.927,0,0,1-.672.256c-1.808.131-3.7-.641-5.39.026a3.5,3.5,0,0,1-1.534.476,2.59,2.59,0,0,1-1.063-.472,10.419,10.419,0,0,0-12.924,2.03,2.971,2.971,0,0,0-.712,1.234,3.1,3.1,0,0,0,.036,1.219c.226,1.273.061,2.115.694,3.242l4.69,8.354c1.388,2.473,3.116,4.482,4.21,7.12a7.813,7.813,0,0,1,.49,6.081c-.968,4.58-.455,9.111-3.972,12.2a16.814,16.814,0,0,1-5.44,2.8,3.933,3.933,0,0,1-1.079.285.566.566,0,0,1-.448-.118.611.611,0,0,1-.13-.255c-.409-1.314-.647-1.89.058-3.072l2.265-3.794a14.2,14.2,0,0,0,1.705-3.579,14.209,14.209,0,0,0,.157-4.733c-.261-3.307-.359-7.143-1.788-10.2a19.52,19.52,0,0,0-6.05-6.788.969.969,0,0,0-.547-.244c-.485,0-.67.625-.712,1.108a10.655,10.655,0,0,1-1.047,4.716,32.492,32.492,0,0,1-2.189,3.386,5.906,5.906,0,0,1-3.823,2.256c-3.8.956-6.378,2.728-9.494,5.11a1.722,1.722,0,0,0-.223,2.2,5.846,5.846,0,0,0,1.769,1.617,5.169,5.169,0,0,1,1.866,1.918,25.386,25.386,0,0,0-7.944-.91,8.028,8.028,0,0,0-2.562.44,33.252,33.252,0,0,0,.4,9.072c.19,1.325.676,2.61.219,3.886a17.517,17.517,0,0,0-1.022,3.646c-.359,2.793.637,5.562,1.617,8.2l3.411,9.192c.537,1.448,1.208,2.9,1.691,4.354.435,1.311.463,2.77.837,4.124.158.572.838.8,1.425.887.919.137,1.85.155,2.774.234.439.038,2.336.093,2.479.6.126.45-1.761,1.436-2.11,1.675a16.616,16.616,0,0,0-2.371,1.624.4.4,0,0,1-.235.095c-.14-.007-.228-.152-.282-.282a3.257,3.257,0,0,1-.213-1.693,13.392,13.392,0,0,0-2.982,2.163,15.406,15.406,0,0,0-2.627,3.245c-1.121,1.708-1.687,3.612-2.678,5.378a6.361,6.361,0,0,1-3.038,3,13,13,0,0,0-3.757,2.463,25.255,25.255,0,0,0-4.251,5.447,1.932,1.932,0,0,0-.331.781c-.03.284-.086.559.18.662a10.267,10.267,0,0,0,6.855,4.172c.54.076,1.192-.049,1.436.439a9.589,9.589,0,0,0,3.857,3.528,15.387,15.387,0,0,0,2.452.926,8.632,8.632,0,0,0-1.155,3.532,13.819,13.819,0,0,0,.463,3.91c.228.962,1.179,2.317,2.3,1.329a5.952,5.952,0,0,1,2.277-1.079,3.4,3.4,0,0,1,1.8-.189c.926.239.938,1.013,1.1,1.783a3.755,3.755,0,0,0,1.242,2.2c.576.477,1.325.8,1.672,1.464a.371.371,0,0,1,.056.224.389.389,0,0,1-.124.2c-1.238,1.256-3.009.518-4.505.2a40.433,40.433,0,0,1-4.82-1.607,13.965,13.965,0,0,1-1.871-.758c-3.452-1.8-3.157-5.647-5.611-8.192a8.174,8.174,0,0,0-5.158-2.43,21.386,21.386,0,0,0-3.03.3,10.286,10.286,0,0,1-3.155-.289c-1.3-.334-2.232-1.318-3.482-1.815-3.07-1.22-6.535-.6-9.806-1.057a6.944,6.944,0,0,0-3.33-.139.527.527,0,0,0-.609.271,1.537,1.537,0,0,0-.145.7c-.1,2.151-.163,4.435.911,6.3a17.056,17.056,0,0,0,6.077,5.482,4.445,4.445,0,0,1-.908,1.529,16.2,16.2,0,0,0-1.607,2.8,5.143,5.143,0,0,0-.672,2.1c-.015.777.386,1.025,1.011,1.487a6.68,6.68,0,0,0,2.132.909l3.884,1.144-2.348,1.71a.328.328,0,0,0-.148.175c-.032.148.138.254.281.305a14.158,14.158,0,0,0,4.051.642c1.253.068,2.446-.021,3.7.014a.6.6,0,0,1,.4.109.563.563,0,0,1,.1.53,7.223,7.223,0,0,1-.431,1.254,15.68,15.68,0,0,0-.4,10.5.515.515,0,0,0,.253.331.5.5,0,0,0,.336-.033c.62-.223,1.182-.581,1.787-.843,2.352-1.016,5.065-.654,7.5-1.422.24-.076.48-.151.714-.244a5.135,5.135,0,0,0,2.119-1.582,2.055,2.055,0,0,1,1.2-.7,1.678,1.678,0,0,1,.788-.092,1.707,1.707,0,0,1,.964.608,6.137,6.137,0,0,1,1.182,3.541,45.607,45.607,0,0,0,.732,6.615,3.107,3.107,0,0,0,.555,1.3,2.861,2.861,0,0,0,2.323.516,5.284,5.284,0,0,0,1.527-.651,38.76,38.76,0,0,0,4.565-3.033,22.491,22.491,0,0,0,4.661-4.241,4.957,4.957,0,0,1,2-1.876,3.843,3.843,0,0,1,2.864.381c1.492.684,1.5,2.487.788,3.827a9.048,9.048,0,0,1-2.461,2.645,11.146,11.146,0,0,0-2.566,2.555,3.51,3.51,0,0,0-.33,3.454c1.1,2.023.855,4.791,2.582,6.485a9.394,9.394,0,0,0-2.76,2.43,19.278,19.278,0,0,0-1.326,2.126,15.991,15.991,0,0,0-1.784,5.114,19.8,19.8,0,0,0-.071,7.968.139.139,0,0,0,.138.128,13.948,13.948,0,0,0,3,.09q1.673-.016,3.339-.2a33.84,33.84,0,0,0,6.455-1.347c.756-.237,1.534-.377,2.306-.547a19.8,19.8,0,0,0,2.272-.738,1.515,1.515,0,0,1,.284-.077c.7-.1,1.009.534,1.388,1,.415.511.818,1.031,1.236,1.54a12.1,12.1,0,0,0,2.816,2.66q.116.073.234.141a10.956,10.956,0,0,0,4.581-2.978c.388-.435.741-.9,1.086-1.369a18.368,18.368,0,0,0,5.8,3.335,27.629,27.629,0,0,0,4.738,1.623,1.714,1.714,0,0,0,.826.072c-.029-.178-.067-.353-.108-.528a6.481,6.481,0,0,1-.279-1.752c.095-2.263.448-4.187.6-6.446a16.932,16.932,0,0,0,0-3.385,6.17,6.17,0,0,0-1.437-3.372,8.05,8.05,0,0,0-3.637-1.63,10.322,10.322,0,0,0-2.7-.261c-.7.026-1.834.472-2.447,0a1.323,1.323,0,0,1-.262-.3c-1.524-2.169-2.539-4.5-4.854-6a5.974,5.974,0,0,0-3.248-1.084,1.155,1.155,0,0,1-.844-.183c-.856-.835,1.19-2.657,1.717-3.175a6.966,6.966,0,0,1,3.344-1.961,8.567,8.567,0,0,1,3.622.171,10.9,10.9,0,0,1,4.148,1.686,10.716,10.716,0,0,1,3.116,4.049c.757,1.545,1.329,3.176,2.1,4.712a7.824,7.824,0,0,0,1.467,2.333,11.1,11.1,0,0,0,6.01,2.939c.375.055,1.153.235,1.427-.027a3.438,3.438,0,0,0,1.217-1.769,13.794,13.794,0,0,0,.341-6.127,8.479,8.479,0,0,0-3.372-5.184c-.951-.707-2.03-1.23-2.965-1.958a1.864,1.864,0,0,1-.663-.784c-.118-.326-.285-.807.049-.9a25.984,25.984,0,0,0,6.775-2.994,2.8,2.8,0,0,0,.893-.765c.219-.329.462-.6.241-.926a13.107,13.107,0,0,0-1.636-2.081c-1.232-1.209-2.841-1.941-4.082-3.138a26.573,26.573,0,0,1-3.391-4.94,6.851,6.851,0,0,0-2.848-2.995,7.152,7.152,0,0,0-4.159-.435,4.227,4.227,0,0,0-2.306,1.023,3.641,3.641,0,0,0-.959,2.443,11.273,11.273,0,0,0,.316,2.662c.13.66.3,1.944-.6,2.192s-1.21-.767-1.3-1.428c-.34-2.484-1.923-3.744-4.216-4.223-2.016-.422-4.259-.552-5.779-2.123a9.145,9.145,0,0,1-.9-1.167c-.881-1.267-1.995-1.979-2.748-3.325a2.777,2.777,0,0,0-3.043-1.019c-.9.2-1.9.626-2.665.113a2.868,2.868,0,0,1-.6-.632,12.179,12.179,0,0,0-3.006-2.64c-.8-.512-2.96-1.027-2.877-2.19.036-.5.5-.842.93-1.093A15.376,15.376,0,0,1,224,223.569c2.115-.677,3.616-2.316,5.022-3.949,1.5-1.743,2.851-3.462,5.161-4.072,2.531-.669,5.6.059,7.959,1.076a6.832,6.832,0,0,0,2,.675,1.811,1.811,0,0,0,1.812-.827,2.478,2.478,0,0,0,.084-1.514,6.109,6.109,0,0,0-1.619-3.676c-1.012-.9-1.4-2.281-2.663-2.772a3.05,3.05,0,0,0-3.62,1,4.909,4.909,0,0,0-.563,1.784l-.226,1.257c.147.241-.018.267-.266.4a1.271,1.271,0,0,1-.827.066,2.6,2.6,0,0,1-2.175-1.77,5.57,5.57,0,0,1,.007-1.457c.074-1.644-.325-3.25-.017-4.892.208-1.109.849-2,1.138-3.025a5.644,5.644,0,0,0-.6-3.637,7.736,7.736,0,0,0-2.127-2.671c-1.689-1.352-2.121-3.883-2.1-5.92a8.1,8.1,0,0,1,.565-3.19,21.97,21.97,0,0,0,1.669-3.487,9.118,9.118,0,0,0,.119-2.709c-.024-.423-.056-.187.18-.539a2.4,2.4,0,0,1,.982-.784,1.971,1.971,0,0,1,.74-.216c1.684-.086,2.823,2.968,3.884,4a10.528,10.528,0,0,0,4.2,2.474,8.408,8.408,0,0,0,5.069-.53,5.335,5.335,0,0,0,3.5-3.135c4.543,1.461,9.561-1.7,9.257-6.654-.092-1.5-.282-3.011-.407-4.506a8.765,8.765,0,0,1,.959-5.083q-2.434.191-4.853.53a16.859,16.859,0,0,0-3.125.6c-.182-.092.418-.31.223-.249a.663.663,0,0,1-.267.06c-.251-.03-.276-.385-.221-.633.217-.969.572-1.907.739-2.886a4.152,4.152,0,0,0-.4-2.887,4.84,4.84,0,0,0-2.579-2.4c-.548-.208-1.136-.295-1.687-.495-1.086-.395-1.982-1.212-3.076-1.583a4.565,4.565,0,0,0-5.049,1.782,5.424,5.424,0,0,0-.231,5.466c1.346,2.579,4.38,3.838,6.051,6.219a2.634,2.634,0,0,1,.584,1.595,1.191,1.191,0,0,1-1.05,1.168,2,2,0,0,1-1.092-.489,9.987,9.987,0,0,0-5.541-1.765c-2.1-.022-3.685.149-4.347-2.3a17.92,17.92,0,0,1-.331-3.332,13.822,13.822,0,0,0-1.124-4.486c-.732-1.666-1.981-3.309-3.77-3.64-.861-.159-.04-1.387.585-2a3.456,3.456,0,0,1,2.468-.672,29.747,29.747,0,0,1,3.625.172c1.868.224,3.7.719,5.563.954a10.049,10.049,0,0,0,5.536-.611c2.259-1.065,3.377-3.442,4.632-5.444,2.121-3.385,2.267-7.072,1.959-10.992-.056-.718-.271-1.523-.276-2.225a.673.673,0,0,1,.555-.6,2.135,2.135,0,0,1,.873.052,19.787,19.787,0,0,0,6.646-.09,5.025,5.025,0,0,1,4.77,1.476,2.3,2.3,0,0,1,.764,1.541c-.025.969-1.039,1.565-1.92,1.971l-1.842.847c-.449.207-.971.527-.945,1.02a1.2,1.2,0,0,0,.2.529,22.427,22.427,0,0,0,8.884,8.817c0,.1-.16.187-.161.291q-1.432.279-2.871.515a4.58,4.58,0,0,0,.525,2.378,39.3,39.3,0,0,0,3.388,7.167c1.664,2.44,3.965,4.485,7.009,4.79,3.73.374,7.14-2.782,9.076-5.639a22.286,22.286,0,0,0,6.505.678,16.422,16.422,0,0,0,8.313-2.831,8.819,8.819,0,0,0,2.407-3.4c.684-1.317,1.795-1.657,3.3-1.66a13.156,13.156,0,0,1,3.717.531c1.145.335,2.16,1.14,3.254,1.46a20.006,20.006,0,0,0,4.108.276,24.444,24.444,0,0,0,4.251-.064c2.91-.344,5.938-1.119,8.018-3.183a8.079,8.079,0,0,0,2.359-6c-.086-2.018-.954-5.157-3.093-5.875a.6.6,0,0,0-.26-.042.66.66,0,0,0-.316.17c-1.035.835-2.034,1.691-3.031,2.57a3.7,3.7,0,0,1-2.213,1.18,3.394,3.394,0,0,1-1.169-.246,16.23,16.23,0,0,1-7.355-5.345c-1.173-1.457-2.231-2.792-4.17-3.05a6.322,6.322,0,0,0-4.593,1.171,5.255,5.255,0,0,1-2.1,1.3c-1.376.23-5.056-3.252-3.259-4.054a1.324,1.324,0,0,1,.563-.073l5.612.085a9.621,9.621,0,0,0,3.774-.447,3.277,3.277,0,0,0,2.193-2.856,3.873,3.873,0,0,0-1.047-2.333,9.745,9.745,0,0,0-7.554-3.46c-1.671.03-3.3.488-4.977.4a8.389,8.389,0,0,1-4.391-1.857c-1.808-1.211-4.255-1.8-6.309-2.577a17.293,17.293,0,0,0-5.636-1.433,5.861,5.861,0,0,0-5.089,2.324c-1.011,1.556-.918,3.567-.659,5.4a7.931,7.931,0,0,0,1.42,3.853,2.185,2.185,0,0,1,.4.878,1.792,1.792,0,0,1-.268.995,8.955,8.955,0,0,1-2.01,2.577,4.166,4.166,0,0,0-.785.8,2.5,2.5,0,0,0-.343,1.038,4.847,4.847,0,0,0,1.355,4.007c.465.465,1.085,1.012.89,1.639a1.563,1.563,0,0,1-1.74-.11,4.586,4.586,0,0,1-1.181-1.416l-2.417-3.857c-.964-1.539.27-2.788.561-4.58.584-3.6,1.2-7.286,3-10.457a28.012,28.012,0,0,0,2.272-4.462c.159-.457,1.444-3.919,1.066-4.093.472.217.613.647.919,1.021a5.929,5.929,0,0,0,1.093.983,9.47,9.47,0,0,0,2.645,1.324,24.342,24.342,0,0,0,5.029.9,23.773,23.773,0,0,0,3.951.032c1.148,2.148,2.193,4.538,4.494,5.334a10.534,10.534,0,0,0,2.1.419,11.563,11.563,0,0,0,5.271-.133c1.676-.582,3.125-2.231,2.855-3.985.214,1.386,2.107,1.93,3.14,2.373a19.349,19.349,0,0,0,4.866,1.79,11.793,11.793,0,0,0,3.921-.425,14.183,14.183,0,0,1,4.46.282,49.116,49.116,0,0,1,8.889,2.7c2.04.765,3.616,3.6,4.481,5.487a12.047,12.047,0,0,0,.719,1.462,8.409,8.409,0,0,0,1.936,1.956c1.517,1.217,3.37,2.463,5.255,1.986,2.716-.688,5.2,1.336,7.993,1.14a9.257,9.257,0,0,0,7.182-3.764,9.746,9.746,0,0,0,1.191-2.842c.141-.532.078-2.387.451-2.734.933-.868,1.937.929,2.363,1.465.367.461.842.828,1.205,1.292a3.567,3.567,0,0,1,.63,3.063,14.679,14.679,0,0,0-4.683,2.174.66.66,0,0,0-.271.292.652.652,0,0,0,.027.393,9.594,9.594,0,0,0,4.37,5.574c.411.237.112,1.124-.2,1.479a1.117,1.117,0,0,1-1.3.248,2.7,2.7,0,0,1-.838-.878,4.313,4.313,0,0,0-1.712-1.4,6.871,6.871,0,0,0-2.068-.413c-2.777-.263-5.559-.526-8.348-.516-.251-.245-.623-.053-.826.233a1.841,1.841,0,0,0-.237,1.009,15.971,15.971,0,0,0,.129,3.579,8.032,8.032,0,0,0,2.22,4.186,10.033,10.033,0,0,0,6.05,2.661c1.34.139,2.914-.283,4.167-.094,1.306.2,1.785,1.467,2.427,2.6a14.558,14.558,0,0,0,21.67,4.261,2.979,2.979,0,0,0,.961-1.092,2.781,2.781,0,0,0,.1-1.522,8.588,8.588,0,0,0-3.038-5.3,3.937,3.937,0,0,0,.923-1.151c.806-1.236.895-2.786,1.251-4.218a11.092,11.092,0,0,1,.958-2.5,8.2,8.2,0,0,1,2.346-3.192c.256-.217.553-.52.431-.833a.7.7,0,0,0-.192-.248c-1.1-1.015-2.641-1.108-4.032-1.389a16.953,16.953,0,0,0-5.022-.252c-.584.058-2.044.625-2.444,0-.259-.4.067-1.2.289-1.556a2.9,2.9,0,0,1,.941-.848c1.741-1.123,3.946-2.326,6.06-1.87.814.176,1.6.467,2.423.6a9.786,9.786,0,0,0,2.726-.016,20.949,20.949,0,0,0,5.475-1.436,8.16,8.16,0,0,1,9.81,3.408,1.967,1.967,0,0,1,.352,1.173c-.115,1.034-1.427,1.337-2.414,1.664a5.914,5.914,0,0,0-3.945,5.244c-.106,2.692,2.589,5.183,4.28,7.031l7.036,7.688a19.188,19.188,0,0,1,2.6,3.781c1.756,3.145.683,6.6,3.163,9.549a15.355,15.355,0,0,0,5.591,3.931c.968.433,1.007.668,2.063.759.343.029.6.333.913.194a.764.764,0,0,0,.3-.3,12.633,12.633,0,0,0,1.7-3.988,23.061,23.061,0,0,0,1.078-4.5,20.762,20.762,0,0,0,.034-4.578,7.082,7.082,0,0,0,4.266,1.609c-.013-.093-.085.072-.145.145a9.007,9.007,0,0,0-1.784,3.581,5.292,5.292,0,0,0,.478,3.982c.821,1.308,2.255,2.4,3.227,3.622.99,1.244,1.947,2.744,1.67,4.31a8.855,8.855,0,0,0-1.969,2.375,14.035,14.035,0,0,0-2.569,6.308,6.492,6.492,0,0,0,2.555,6.03,5.351,5.351,0,0,0-2.031,3.358,2.385,2.385,0,0,0,.3,2.279,21.029,21.029,0,0,1-6.041,1.22,9.776,9.776,0,0,0,2.3-4.361,27.587,27.587,0,0,0,1.1-8.162,9.666,9.666,0,0,0-6.356-.311,9.3,9.3,0,0,0-5.079,3.814c-.471-2.842-2.555-4.923-5.082-6.305a20.827,20.827,0,0,0-8.31-2.131c.53,2.911-.24,6.131-.521,9.077a13.021,13.021,0,0,0,.52,5.789,5.72,5.72,0,0,0,1.021,1.923,2.8,2.8,0,0,0,1.88,1.012c1.207.075,3.7-.308,3.876,1.523.295,3.064-6.935,3.051-8.583,2.991-2.762-.1-5.49-.887-8.248-.72-1.531-.126-2.662.936-3.571,2.175a11.794,11.794,0,0,0-1.715,4.244,19.551,19.551,0,0,1-1.385,4.382c-.159.308-.337.606-.515.9a4.679,4.679,0,0,0,2.965,1.108c1.6.127,3.323.225,4.677-.633,2.157-1.367,2.368-4.432,3.9-6.473a5,5,0,0,1,3.575-2.035,5.133,5.133,0,0,1,3.687,1.372c1.9,1.706,3.975,3.247,5.382,5.461a14.6,14.6,0,0,1,2.3,7.731,6.164,6.164,0,0,1-1.217,4.116,7.8,7.8,0,0,1-4.237,2,27.014,27.014,0,0,1-10.967.512,10.182,10.182,0,0,0,6.08,8.177A20.147,20.147,0,0,0,401.689,246c-1.573,2.377-2.146,5.6-.776,8.1a7.971,7.971,0,0,0,1.759,2.355,10.47,10.47,0,0,1,7.293-2.323c.3.017.5.036.792.075a17.688,17.688,0,0,0-2.608,9.083,37.907,37.907,0,0,1-.021,5.661,1.808,1.808,0,0,1-.764,1.17,1.806,1.806,0,0,0,1.161.434,14.063,14.063,0,0,0,5.753-.419,8.457,8.457,0,0,0,4.612-3.339,11.645,11.645,0,0,0,3.089,8.857,12,12,0,0,0,8.685,3.917,11.222,11.222,0,0,0-.117-3.721,7.537,7.537,0,0,0,3.11,3.157,30.7,30.7,0,0,0,4.088,1.879,11.067,11.067,0,0,1,1.739.861,8.744,8.744,0,0,1,2.775,3.153c1.96-2.449,3.776-5.371,4.019-8.5a15.609,15.609,0,0,0-.2-3.25,14.794,14.794,0,0,0-2.874-6.614,7.03,7.03,0,0,0,2.6-1.242,7.479,7.479,0,0,0,4.3,3.067,13.707,13.707,0,0,0,9.377-.4c.357-.149.53-.152.767-.457-.257.33-1.154-2.476-1.17-2.557-.179-.907-.353-1.824-.591-2.717a10.412,10.412,0,0,0-.636-2.5,10.745,10.745,0,0,0,8.418-.363c.818-.4,1.585-.9,2.43-1.233a6.756,6.756,0,0,1,2.731-.463c.786.029,1.614.5,2.4.386.472-.066.427-.172.359-.639a6.109,6.109,0,0,0-.3-1.118,14.889,14.889,0,0,0-5.348-7.544,9.945,9.945,0,0,0-10.514-.439,7.516,7.516,0,0,0-2,1.773c-.07-.7-.556-1.017-.95-1.594l-1.221-1.788a4.575,4.575,0,0,0-1.393-1.353,3.175,3.175,0,0,0,1.111-3.37,7.466,7.466,0,0,1,7.149,1.474,27.654,27.654,0,0,1,.7-6.33c.459-1.687,1.391-3.416,1.466-5.173a7.9,7.9,0,0,0-.38-2.7c-.166-.526-.949-1.57.078-1.74a1.188,1.188,0,0,1,.974.372,7.739,7.739,0,0,1,.674.843,6.757,6.757,0,0,0,2.918,1.939,15.642,15.642,0,0,0,3.8.959c1.087.132,2.188.15,3.265.35a8.493,8.493,0,0,1,2.694.769l2.074,1.2c.293.169.817.922,1.2.82.62-.165.5-1.885.5-2.356A39.67,39.67,0,0,0,480.307,225.744Z" fill="#e6e6e6"/><path d="M319.14,413.591l-.028,0C319.125,413.646,319.133,413.625,319.14,413.591Z" fill="none" stroke="#000" stroke-linecap="round" stroke-linejoin="round"/><path d="M58.244,124.116c1.071-1.5,5.781-2.357,5.781-2.357s.738,4.73-.333,6.235a3.344,3.344,0,1,1-5.449-3.878Z" fill="none" stroke="#000" stroke-linecap="round" stroke-linejoin="round" stroke-dasharray="2 4"/><path d="M72.321,124.116c1.071-1.5,5.781-2.357,5.781-2.357s.738,4.73-.333,6.235a3.344,3.344,0,1,1-5.449-3.878Z" fill="none" stroke="#000" stroke-linecap="round" stroke-linejoin="round" stroke-dasharray="2 4"/><path d="M65.581,136.62c1.071-1.5,5.781-2.357,5.781-2.357s.738,4.73-.333,6.235a3.344,3.344,0,1,1-5.449-3.878Z" fill="none" stroke="#000" stroke-linecap="round" stroke-linejoin="round" stroke-dasharray="2 4"/><path d="M86.4,124.115c1.071-1.5,5.781-2.357,5.781-2.357s.738,4.73-.333,6.235a3.344,3.344,0,1,1-5.449-3.878Z" fill="none" stroke="#000" stroke-linecap="round" stroke-linejoin="round" stroke-dasharray="2 4"/><path d="M78.42,136.62c1.071-1.5,5.781-2.357,5.781-2.357s.738,4.73-.333,6.235a3.344,3.344,0,1,1-5.449-3.878Z" fill="none" stroke="#000" stroke-linecap="round" stroke-linejoin="round" stroke-dasharray="2 4"/><path d="M91.259,136.62c1.071-1.5,5.781-2.357,5.781-2.357s.738,4.73-.333,6.235a3.344,3.344,0,1,1-5.449-3.878Z" fill="none" stroke="#000" stroke-linecap="round" stroke-linejoin="round" stroke-dasharray="2 4"/><polyline points="118.254 119.481 115.37 124.855 125.637 127.451 96.453 156.482 110.218 130.835 99.952 128.24 108.869 119.368" fill="none" stroke="#000" stroke-linecap="round" stroke-linejoin="round" stroke-dasharray="2 4"/><path d="M123.256,119.339a13.4,13.4,0,1,0,0-26.8c-.081,0-.162,0-.243.006A23.449,23.449,0,0,0,80.5,75.881a13.4,13.4,0,0,0-17.442,18.4,13.4,13.4,0,0,0,6.6,25.064h53.6Z" fill="none" stroke="#000" stroke-linecap="round" stroke-linejoin="round" stroke-dasharray="2 4"/><path d="M319.14,413.591l-.028,0C319.125,413.646,319.133,413.625,319.14,413.591Z" fill="none" stroke="#000" stroke-linecap="round" stroke-linejoin="round" stroke-dasharray="2 4"/><path d="M409.306,125.494a40.485,40.485,0,0,1-.721,11.994,26.042,26.042,0,0,1-8.6,13.691c-3.566,2.916-6.754,5.747-11.024,7.475a19.786,19.786,0,0,1-5.587,1.771c-1.791.13-3.585.128-5.378.2-.742.029-1.206.231-1.372-.635a5.226,5.226,0,0,1,.253-1.83l.6-3.252c.841-4.593.369-9.471.067-14.122-.2-3.007-.449-6.01-.682-9.015-.218-2.808-.68-5.595.318-8.282l1.008-2.714a21.151,21.151,0,0,1,3.741-6.784,36.842,36.842,0,0,1,3.8-4.036c.784-.7,1.553-1.508,2.37-2.162a15.139,15.139,0,0,1,2.209-1.705c-.17.091-.7.06-.941.142-.416.141-.821.292-1.23.453a15.509,15.509,0,0,0-4.73,2.937c-.677.615-1.3,1.288-1.915,1.963q-1.083,1.186-2.153,2.383c-.252.282-1.226,1.69-1.583,1.467-.16-.1-.175-.537-.2-.7a15.381,15.381,0,0,1-.056-2.454,18.586,18.586,0,0,1,2.295-8.291,19.177,19.177,0,0,1,4.58-6.006c3.114-2.681,6.51-5.2,10.459-6.338-.116-.2-.41-.194-.642-.156a35.3,35.3,0,0,0-7.306,1.735,17.634,17.634,0,0,0-1.685.769q-.411.214-.81.45c-.158.093-.549.467-.648.2a2.528,2.528,0,0,1,.022-.807q.014-.414.014-.829,0-.8-.064-1.605a27.551,27.551,0,0,0-.466-3.236.965.965,0,0,0-.331-.663,1.926,1.926,0,0,0-.141.86,16.878,16.878,0,0,1-1.265,6.1c-1.717,4.169-5.391,6.75-8.5,10.014-.808.848-1.875,1.753-3.008,1.455a3.057,3.057,0,0,1-1.188-.731c-2.419-2.124-4.139-4.909-5.938-7.579-.687-1.018-1.633-2.145-2.855-2.021l1.874,3.769a81.5,81.5,0,0,1,4.779,10.927,40.368,40.368,0,0,1,2.068,9.364c.227,2.97.725,5.926.688,8.928,0,.392-.24.652-.626.578a1.906,1.906,0,0,1-.948-.663,52.672,52.672,0,0,0-6.226-5.623,6.033,6.033,0,0,0-1.721-1.024,3.2,3.2,0,0,0-1.423-.264c.029.359.4.568.711.755a8.544,8.544,0,0,1,.971.722,23.386,23.386,0,0,1,4.387,4.319,51.059,51.059,0,0,1,3.052,4.765c1.392,2.417,1.4,5.364,1.129,8.067a34.953,34.953,0,0,1-2.259,8.319c-1.123,3.11-2.363,6.255-3.744,9.251A47.969,47.969,0,0,1,357.4,166.1c-1.382,1.863-2.922,3.6-4.424,5.362-1.433,1.684-2.568,3.62-3.994,5.278a1.182,1.182,0,0,1-1.418.418,1.482,1.482,0,0,1-.351-.343l-4.488-5.488a132.081,132.081,0,0,0-9.457-10.633c-1.052-1.045-2.192-1.994-3.322-2.952a27.684,27.684,0,0,1-2.941-2.343,5.6,5.6,0,0,1-1.095-2.907c-.92-5.757-.52-10.961.251-16.74a40.069,40.069,0,0,1,3.47-11.319,24.039,24.039,0,0,1,11.729-11.644.95.95,0,0,0,.575-.471,11.534,11.534,0,0,0-5.336,1.726c-.612.373-1.385,1.2-2.092,1.31-.959.154-.873-.694-.606-1.284a41.649,41.649,0,0,1,1.992-3.712l2.4-4.14c1.646-2.834,3.717-5.4,5.1-8.381.079-.169.12-.429-.057-.487a.333.333,0,0,0-.249.054c-2.98,1.567-4.652,4.315-6.546,6.971a58.042,58.042,0,0,0-5.356,8.64,5.912,5.912,0,0,1-1.4,1.914.9.9,0,0,1-.271-.761c-.072-2.617-.223-5.231-.241-7.849a41.871,41.871,0,0,1,.531-7.578,25.124,25.124,0,0,1,.929-3.676q.309-.913.7-1.8a8.207,8.207,0,0,0,.688-1.426.721.721,0,0,0-.49.154c-.237.163-.467.338-.693.517a14.761,14.761,0,0,0-3.458,3.923c-.059.1-.205-.087-.319-.084-.92-2.511-2.225-4.775-3.384-7.181a3.013,3.013,0,0,0-1.122-1.455c-.092-.05-.235-.074-.277.022a.206.206,0,0,0,.01.142c1.528,4.791,3.528,9.481,4.285,14.477a20.8,20.8,0,0,1-1.469,10.5c-1.982,5.091-3.473,10.392-5.534,15.445a76.717,76.717,0,0,0-2.7,7.4c-.737,2.52-1.167,5.081-1.892,7.6a.64.64,0,0,1-.266.429.613.613,0,0,1-.505-.056c-2.82-1.234-5.056-4-7.041-6.263a53.817,53.817,0,0,1-5.829-7.939,25.559,25.559,0,0,1-3.4-7.7c-.641-3.274-1.17-6.713-.449-10.02.731-3.352,2.875-6.378,5.064-8.935.462-.539.978-.99,1.458-1.462a7.194,7.194,0,0,0,.779-1.52,7.771,7.771,0,0,0-3.129,2.492c-1.674,1.894-3.507,3.638-5.279,5.451a3.514,3.514,0,0,1-.913-1.9A102.264,102.264,0,0,0,293.2,94.762a66.03,66.03,0,0,0-2.718-8.142,2.263,2.263,0,0,0-1.1-1.487c.078.029.477,3.286.518,3.556a56.789,56.789,0,0,1,.792,5.662,57.835,57.835,0,0,1,.333,8.076c-.006.193-.108.014-.284.093-1.6-1.631-3.3-3.208-4.832-4.906A6.744,6.744,0,0,0,281.44,95.5c-.172-.024-.418.017-.414.191a.312.312,0,0,0,.141.21c1.776,1.483,3.335,3.242,4.986,4.881a14.974,14.974,0,0,1,3.353,5.441,18.317,18.317,0,0,1,.613,6.552c-.035,1.673-.17,3.341-.29,5.01a41.127,41.127,0,0,0-.045,7.588c.039.345.36,1.243.017,1.457-.248.155-.669-.065-.888-.175a13.348,13.348,0,0,1-1.678-1.176,34.637,34.637,0,0,1-2.729-2.181,50.83,50.83,0,0,1-4.771-4.843,119.3,119.3,0,0,1-7.638-9.334,41.034,41.034,0,0,1-3.085-5.068c-.463-.913-.885-1.846-1.258-2.8-.165-.421-.231-.82-.354-1.243-.072-.248-.563-1-.517-1.213-.605,2.708,1.013,5.654,2.444,7.838,2.287,3.49,4.665,6.9,6.9,10.424-.5.282-1.121-.019-1.627-.3a21.817,21.817,0,0,0-3.126-1.287,2.831,2.831,0,0,0-.906-.223c-.654-.013.077.687.225.865a10.347,10.347,0,0,0,1.593,1.445c1.8,1.418,3.746,2.626,5.516,4.109,1.83,1.533,3.566,3.173,5.277,4.837a47.919,47.919,0,0,1,4.916,5.772c2.443,3.254,4.136,7.017,6.5,10.365,3.367,4.761,7.914,8.606,12.25,12.451,5.594,4.959,11.291,10.464,15.294,16.79a48.011,48.011,0,0,1,6.54,15.329c1.1,5.091.952,10.227.755,15.394a53.741,53.741,0,0,1-2.707,15.4,32.478,32.478,0,0,1-2.147,4.924,5.634,5.634,0,0,1-1.479,1.989c-1.034.759-1.547.213-2.331-.425-4.829-3.929-10.691-5.762-15.8-9.2a38.943,38.943,0,0,1-12.3-13.187c-1.3-2.348-1.59-5.738-1.933-8.385a64.723,64.723,0,0,1-.488-8.9c.058-6.321.716-12.664.779-18.946q.02-1.985-.032-3.969c-.071-2.645-.243-5.287-.532-7.917-.184-1.668-.5-3.5-1.8-4.562a.336.336,0,0,0-.244-.1c-.119.017-.185.145-.227.258a4.751,4.751,0,0,0-.151,2.658c.681,6.465-.114,12.688-1.4,19-.215,1.057-.458,2.108-.74,3.149-.168.622-.362,1.981-1.1,2.219-.351.114-.654-.266-.813-.6-.9-1.875-1.64-3.811-2.545-5.684a29,29,0,0,0-2.567-4.411c-1.784-2.465-3.923-4.739-5.888-7-2.226-2.555-4.8-4.753-7.077-7.236a50.061,50.061,0,0,1-4.647-5.1,23.607,23.607,0,0,1-2.8-5.638,46.083,46.083,0,0,1-2.192-12.311c-.021-.332-.194-.783-.516-.7a.506.506,0,0,0-.258.213,1.581,1.581,0,0,0-.389,1.168c-.2,3.353.021,6.737.09,10.092.026,1.26-.583.642-1.2.024a18.049,18.049,0,0,1-1.261-1.437c-1.276-1.576-2.466-3.234-3.791-4.769-1.15-1.332-2.6-2.394-3.66-3.832a8.47,8.47,0,0,1-1.645-5.057c-.069-1.2-.881-.036-1.089.428a11.7,11.7,0,0,0-.82,3.5.4.4,0,0,1-.105.274.367.367,0,0,1-.216.065,7.892,7.892,0,0,1-2.4-.668,23.587,23.587,0,0,0-2.866-.6c-.56-.08-3.552-.77-3.031.311.158.327.736.557,1.016.74q1.589,1.042,3.122,2.165a41.143,41.143,0,0,1,5.7,4.965c.742.794,1.428,1.638,2.113,2.482l4.878,6.007c2.564,3.157,4.794,6.819,7.83,9.632.117.108.241.282.144.408a.325.325,0,0,1-.258.087c-3.429.1-6.6-1.151-9.943-1.744a51.787,51.787,0,0,0-7.193-.765c-1.416-.051-2.83-.162-4.247-.2a14.4,14.4,0,0,1-3.653-.133,7.176,7.176,0,0,1-3.167-2.253,22.667,22.667,0,0,1-2.539-3.142,30.183,30.183,0,0,1-2.27-3.9c-.532-1.227-1.169-2.408-1.24-.17-.089,2.783,1.812,5.225,3.116,7.528.692,1.223.419,2.3-1.156,2.064l-6.758-1.01a29.424,29.424,0,0,0-7.49-.228c-2.3.247-4.527.316-6.6,1.5-.306.175-.639.557-.408.823a.623.623,0,0,0,.466.149c3.909.131,7.769.039,11.646.459.683.074,5.808.862,4.259,2.216a4.673,4.673,0,0,1-1.035.6,18.04,18.04,0,0,0-4.277,3.338,12.543,12.543,0,0,0-3.088,5.291,1.276,1.276,0,0,0-.073.7c.257,0,.453-.217.616-.417,5.976-7.326,15.064-9.393,24.108-8.064a68.469,68.469,0,0,1,11.183,2.765l.185.06c4.334,1.422,8.91,2.738,12.662,5.431a39.656,39.656,0,0,1,10.087,11.107c3.769,5.885,4.733,12.954,6.336,19.615a118.636,118.636,0,0,0,8.106,22.978c.214.452.453.907.645,1.365.2.476,2.088,4.405,1.45,4.628a19.707,19.707,0,0,1-4.513.44q-2.414.22-4.84.256a64.279,64.279,0,0,1-9.469-.557,30.1,30.1,0,0,1-8.031-1.851,28.121,28.121,0,0,1-6.337-4.141,37.742,37.742,0,0,1-6.775-7.193c-2.629-3.73-5.228-7.981-6.069-12.528-.1-.561-.221-2.032-.929-1.441-.335.28-.356,1.067-.39,1.455a18.724,18.724,0,0,0,.115,3.093,30.724,30.724,0,0,0,2.476,8.944c.266.681.533,1.363.862,2.015.266.527.973,1.814-.294,1.542a15.137,15.137,0,0,1-2.717-1.1c-1.177-.508-2.3-1.255-3.426-1.87a29.326,29.326,0,0,1-7.344-5.983,42.248,42.248,0,0,1-4.211-5.4" fill="none" stroke="#000" stroke-linecap="round" stroke-linejoin="round" stroke-dasharray="2 4"/><path d="M413.7,126.87q-.31.866-.7,1.7c-.053.112-.518,1.213-.642.584-.121-.611-.224-1.213-.308-1.832-.121-.894-.274-1.775-.47-2.645" fill="none" stroke="#000" stroke-linecap="round" stroke-linejoin="round" stroke-dasharray="2 4"/><path d="M352.15,254.784a74.684,74.684,0,0,1,1.727-14.035l.565-1.9q.181-.725.394-1.441.41-1.383.939-2.727a45.7,45.7,0,0,1,13.955-19.022,33.058,33.058,0,0,1,40.78-.173c2.78,2.148,5.3,4.334,5.748,7.956.435,3.506.485,8.005-1.287,11.147-1.553,2.753-4.524,4.468-5.806,7.388,1.108-.062,1.914-1.023,2.663-1.841,2.708-2.959,6.856-4.162,8.031-8.364.135-.482.089,0,.256-.474a.629.629,0,0,1,.253-.371c.342-.182.652.291.753.665,1.664,6.2,2.812,13.556,1.5,19.919l-1.466,7.132c.263.1.523-.144.692-.37,4.3-5.762,4.353-14.048,4.287-20.92-.008-.809.277-.989,1.048-1.236a2.68,2.68,0,0,1,2.291.483c3.638,2.547,6.64,5.848,9.772,8.965a57.648,57.648,0,0,0,5.014,4.552,11.687,11.687,0,0,0,3.55,2.091.441.441,0,0,0,.315.02c.229-.1.132-.449,0-.661-1.54-2.4-3.831-4.291-5.485-6.667a66.784,66.784,0,0,1-4.46-7.571c-2.663-5.157-4.947-10.518-7.982-15.477-1.671-2.73-4.128-5.61-5.26-8.557a.57.57,0,0,1-.054-.355c.055-.189.277-.264.47-.3,1.363-.286,2.89-.239,4.312-.452a35.6,35.6,0,0,0,7.9-2.632,19.786,19.786,0,0,1,6.427-1.778c4.412-.191,7.819,4.565,9.921,7.905a.936.936,0,0,0,.305.344.314.314,0,0,0,.414-.071.447.447,0,0,0,.042-.24,12.452,12.452,0,0,0-3.746-8.48c-3.282-3.08,5.581-3.374,6.931-3.4,5.114-.109,11.488.68,15.888,3.5.168-.6-.321-1.171-.785-1.588-4.648-4.179-11.485-6.379-17.6-7.283a.691.691,0,0,1-.453-.185c-.6-.736,1.694-2.546,2.129-2.936q2.545-2.287,4.959-4.715a16.292,16.292,0,0,0,3.214-5.019c.273-.564.384-1.458-.221-1.619l-2.779,2.708c-1.793,1.747-3.591,3.5-5.529,5.085-.58.475-5.184,4.14-5.617,3.625a.661.661,0,0,1-.1-.468c.1-1.765,1.252-3.116,2.009-4.669a23.435,23.435,0,0,0,2.467-10.725c-.027-.666-.117-1.328-.208-1.989a34.894,34.894,0,0,0-.736-4.131c-.371.123-.482.584-.535.971-.461,3.367-.131,7.571-1.8,10.623a45.586,45.586,0,0,1-4.059,6c-1.69,2.188-3.853,5.316-6.169,6.826a28.136,28.136,0,0,1-8.343,3.262c-1.208.317-2.421.621-3.65.843a27.832,27.832,0,0,1-7.711.538,57.558,57.558,0,0,1-8.275-1.616c-5.481-1.437-10.83-3.364-16.379-4.546-4.977-1.061-8.913-2.027-14-1.9a58.956,58.956,0,0,0-18.332,3.311c-1.19.432-2.379,1.27-3.694,1.125-3.642-.4,1.247-12.986,1.942-14.435a15.574,15.574,0,0,1,1.711-2.98c1.9-2.4,5.559-2.749,8.256-3.725a67.155,67.155,0,0,0,12.189-6.355,91.379,91.379,0,0,0,11.607-8.469,100.306,100.306,0,0,0,7.552-7.745c.664-.708,1.328-1.416,2.02-2.1a55.593,55.593,0,0,1,5.793-4.667,29.715,29.715,0,0,1,20.209-6.157,3.777,3.777,0,0,0,.457.064.367.367,0,0,0,.248-.057c.158-.134,0-.386-.169-.511a7.6,7.6,0,0,0-4.741-1.057c-3.951.058-8.028.584-11.421,2.607-.211.126.159-.21-.081-.16a5.2,5.2,0,0,1,1.442-2.072,25.721,25.721,0,0,1,7.145-4.994,28,28,0,0,1,5.813-2.029,57.209,57.209,0,0,1,5.776-.51.292.292,0,0,0,.2-.083c.108-.139-.088-.313-.255-.368a14.156,14.156,0,0,0-5.518-.136,19.3,19.3,0,0,0-5.7,1.553c-.125.056.085-.115-.052-.109-.095-.144-.019-.335.059-.489a25.346,25.346,0,0,1,3.274-4.9,30.753,30.753,0,0,1,4.554-4.541c.747-.574,1.562-1.033,2.276-1.642.324-.277,1.6-1.832,1.91-1.805-1.091-.093-2.571.756-3.5,1.32a33.326,33.326,0,0,0-6.019,4.381,40.379,40.379,0,0,0-4.241,5.486,25.877,25.877,0,0,1-3.909,3.846c-1.675,1.5-3.391,2.959-5.085,4.412a15.1,15.1,0,0,1-3.737,2.462c-.413.18-.461.176-.762-.16a1.464,1.464,0,0,1-.266-1.275,4.741,4.741,0,0,1,.533-1.237,39.124,39.124,0,0,0,3.237-8.255c.7-2.546,1.676-4.781,2.012-7.427" fill="none" stroke="#000" stroke-linecap="round" stroke-linejoin="round" stroke-dasharray="2 4"/><path d="M360.125,352.031q-.3-.3-.587-.6l-4.74-6.822a46.1,46.1,0,0,1-2.414-5.581A32.085,32.085,0,0,1,350.6,324.7q.442-5.448,1.114-10.874c2.017-16.287.423-32.374.328-48.715-.02-3.354-.027-6.726.1-10.09" fill="none" stroke="#87b26b" stroke-linecap="round" stroke-linejoin="round"/><path d="M305.309,255.768c1.5,7.435.479,15.857-1.2,23.136-.935,4.066-1.563,8.221-2.217,12.34-.738,4.649-.526,9.176-.484,13.812.116,12.9.158,25.76-3.026,38.345a26.7,26.7,0,0,1-4.114,8.625" fill="none" stroke="#87b26b" stroke-linecap="round" stroke-linejoin="round"/><path d="M221.25,201.341a12.88,12.88,0,0,0,1.019,2.274,35.172,35.172,0,0,0,6.9,8.4c1.11.986,2.258,1.926,3.382,2.895a31.826,31.826,0,0,1,3.371,2.952c.151.171.937,1.009.307.993a46.228,46.228,0,0,1-6.506-1.041c-1.76-.3-3.525-.589-5.3-.779a53.136,53.136,0,0,0-9.7-.148c-3.321.255-7.156,1.321-9.58,3.733-.933.929-2.276,2.322-2.585,3.631a.276.276,0,0,0,0,.178c.061.131.256.089.384.023,1.692-.871,3.376-1.789,5.1-2.633a12.754,12.754,0,0,1,3.444-1.418,25.992,25.992,0,0,1,6.4-.129,23.4,23.4,0,0,1,2.9.453q.718.159,1.425.363c.2.056,1.155.217,1.082.5a.209.209,0,0,1-.109.119,3.01,3.01,0,0,1-.52.2,40.641,40.641,0,0,0-13.549,8.867c-.208.206-.932,1.027-.224,1.171,1.01.205,2.5-1.288,3.284-1.783,1.138-.716,2.3-1.389,3.5-2.008a38.21,38.21,0,0,1,7.467-2.966,32.239,32.239,0,0,1,13.529-.533c4.5.657,9.171,2.824,13.051,5.148,2,1.2,3.9,2.516,5.832,3.81,1.857,1.245,3.429,2.963,5.167,4.366a.771.771,0,0,1,.3.37c.144.549-7.655,2.724-8.467,2.95a87.684,87.684,0,0,1-9.622,2.109c-3.455.556-6.62,1.12-10.11.444a11.659,11.659,0,0,1-5.206-2.284c-1.212-.993-2.314-2.166-3.421-3.273-.313-.308-.759-.745-1.226-.683a7.1,7.1,0,0,0,1.115,2.129,13.709,13.709,0,0,0,2.53,2.965c.493.452,1.073.842,1.539,1.318.239.244.928.832.964,1.152.032.286-.345.416-.632.441a62.307,62.307,0,0,0-9.346,1.164c-2.807.688-5.587,1.778-8.342,2.7a17.045,17.045,0,0,0-6.923,3.971.744.744,0,0,0-.236.383.279.279,0,0,0,.231.33.391.391,0,0,0,.162-.046,42.472,42.472,0,0,1,7.589-3.024,25.975,25.975,0,0,1,8.365-.663,4.4,4.4,0,0,1,2,.528,13.849,13.849,0,0,0-5.574,3.9,23.27,23.27,0,0,0-2.243,2.707,6.471,6.471,0,0,0-.833,1.529c-.105.307-.076,1.266-.242,1.462a29.19,29.19,0,0,1,6.229-5.652,41.021,41.021,0,0,1,9.836-4.494,39.288,39.288,0,0,1,8.086-1.659,27.661,27.661,0,0,1,7.457,0c1.735.311-.3.948-1.044,1.357a23.144,23.144,0,0,0-4.929,3.671,41.823,41.823,0,0,0-7.2,10.044,31.454,31.454,0,0,0-3.36,8.283,11.1,11.1,0,0,0-.342,2.711,20.917,20.917,0,0,1,.423,2.091,43.247,43.247,0,0,1,8.614-15.976,18.808,18.808,0,0,1,3.747-3.409,19.144,19.144,0,0,1,2.181-1.3c.572-.291,1.456-.79,1.469.1.007.462-.811,1.338-1.045,1.741a20.8,20.8,0,0,0-1.063,2.058,9.942,9.942,0,0,0-.987,4.578c.01.213.1.5.31.477a20.411,20.411,0,0,1,2.178-4.3c.987-1.744,2-3.477,3.126-5.135,2.18-3.207,4.867-6.276,8.467-7.9a49.456,49.456,0,0,1,17.453-4.27,95.552,95.552,0,0,1,17.988.568,25.6,25.6,0,0,1,8.5,2.518,11.018,11.018,0,0,1,4.664,4.873l1.02,2.729" fill="none" stroke="#000" stroke-linecap="round" stroke-linejoin="round" stroke-dasharray="2 4"/><path d="M319.14,413.591c-.007.034-.015.054-.028,0Z" fill="none" stroke="#000" stroke-linecap="round" stroke-linejoin="round" stroke-dasharray="2 4"/><path d="M208.828,266.887a5.986,5.986,0,0,0-5.986-10.367,5.986,5.986,0,0,0-11.971,0,5.986,5.986,0,0,0-5.986,10.367,5.986,5.986,0,0,0,5.986,10.367,5.986,5.986,0,0,0,11.971,0,5.986,5.986,0,0,0,5.986-10.368Z" fill="none" stroke="#000" stroke-linecap="round" stroke-linejoin="round" stroke-dasharray="1 3"/><path d="M226.493,187.535a5.986,5.986,0,0,0-5.986-10.367,5.986,5.986,0,0,0-11.971,0,5.986,5.986,0,0,0-5.986,10.367,5.986,5.986,0,0,0,5.986,10.367,5.986,5.986,0,0,0,11.971,0,5.986,5.986,0,0,0,5.986-10.368Z" fill="none" stroke="#000" stroke-linecap="round" stroke-linejoin="round" stroke-dasharray="1 3"/><path d="M201.29,153.157a4.564,4.564,0,0,0-4.563-7.9,4.564,4.564,0,0,0-9.127,0,4.564,4.564,0,0,0-4.563,7.9,4.564,4.564,0,0,0,4.563,7.9,4.564,4.564,0,0,0,9.126,0,4.564,4.564,0,0,0,4.563-7.9Z" fill="none" stroke="#000" stroke-linecap="round" stroke-linejoin="round" stroke-dasharray="1 3"/><path d="M250.049,112.237a4.564,4.564,0,0,0-2.642-8.736,4.564,4.564,0,0,0-8.886-2.08,4.564,4.564,0,0,0-6.244,6.656,4.564,4.564,0,0,0,2.642,8.736,4.564,4.564,0,0,0,8.886,2.08,4.564,4.564,0,0,0,6.244-6.656Z" fill="none" stroke="#000" stroke-linecap="round" stroke-linejoin="round" stroke-dasharray="1 3"/><path d="M293.327,73.165a5.466,5.466,0,0,0-5.843-9.237,5.466,5.466,0,0,0-10.921.442,5.466,5.466,0,0,0-5.078,9.679,5.466,5.466,0,0,0,5.844,9.237,5.466,5.466,0,0,0,10.921-.442,5.466,5.466,0,0,0,5.078-9.679Z" fill="none" stroke="#000" stroke-linecap="round" stroke-linejoin="round" stroke-dasharray="1 3"/><path d="M351.565,81.017a5,5,0,0,0-5-8.652,5,5,0,0,0-9.991,0,5,5,0,0,0-5,8.652,5,5,0,0,0,5,8.652,5,5,0,0,0,9.991,0,5,5,0,0,0,5-8.652Z" fill="none" stroke="#000" stroke-linecap="round" stroke-linejoin="round" stroke-dasharray="1 3"/><path d="M428.325,113.629a4.975,4.975,0,0,0-4.975-8.617,4.975,4.975,0,0,0-9.95,0,4.975,4.975,0,0,0-4.975,8.617,4.976,4.976,0,0,0,4.975,8.617,4.975,4.975,0,0,0,9.95,0,4.976,4.976,0,0,0,4.975-8.617Z" fill="none" stroke="#000" stroke-linecap="round" stroke-linejoin="round" stroke-dasharray="1 3"/><path d="M460.99,167.387a3.6,3.6,0,0,0,.012-7.2,3.6,3.6,0,0,0-6.227-3.609,3.6,3.6,0,0,0-6.239,3.588,3.6,3.6,0,0,0-.012,7.2,3.6,3.6,0,0,0,6.227,3.609,3.6,3.6,0,0,0,6.239-3.588Z" fill="none" stroke="#000" stroke-linecap="round" stroke-linejoin="round" stroke-dasharray="1 3"/><path d="M449.781,265.355a5.807,5.807,0,0,0-7-9.27,5.807,5.807,0,0,0-11.526,1.424,5.807,5.807,0,0,0-4.53,10.693,5.807,5.807,0,0,0,7,9.27,5.807,5.807,0,0,0,11.526-1.423,5.807,5.807,0,0,0,4.53-10.693Z" fill="none" stroke="#000" stroke-linecap="round" stroke-linejoin="round" stroke-dasharray="1 3"/><path d="M225.879,297.974c.157-.1.309-.2.463-.317q.327-.248.642-.51.386-.32.755-.66.423-.39.823-.8.44-.456.848-.943.436-.521.828-1.075c.274-.388.529-.789.764-1.2a12.892,12.892,0,0,0,.655-1.324,11.527,11.527,0,0,0,.5-1.439,10.618,10.618,0,0,0,.306-1.549,10.289,10.289,0,0,0,.065-1.653,10.667,10.667,0,0,0-.22-1.751,11.921,11.921,0,0,0-.549-1.843,14.291,14.291,0,0,0-.923-1.93,18.108,18.108,0,0,0-1.34-2.011,23.408,23.408,0,0,0-1.55-1.821s-15.011,9.563-3.12,20.49c.2.186.421.365.625.556a.041.041,0,0,0,.062,0C225.641,298.118,225.761,298.047,225.879,297.974Z" fill="none" stroke="#000" stroke-linecap="round" stroke-linejoin="round" stroke-dasharray="1 3"/><path d="M191.554,247.169c.181.037.362.069.553.09q.407.046.817.074.5.035,1,.043.575.01,1.151-.014.633-.027,1.264-.1.674-.076,1.341-.207c.466-.092.928-.206,1.383-.343a12.892,12.892,0,0,0,1.388-.506,11.527,11.527,0,0,0,1.357-.694,10.618,10.618,0,0,0,1.291-.909,10.289,10.289,0,0,0,1.188-1.151,10.667,10.667,0,0,0,1.049-1.419,11.921,11.921,0,0,0,.875-1.713,14.291,14.291,0,0,0,.664-2.033,18.108,18.108,0,0,0,.418-2.38,23.408,23.408,0,0,0,.135-2.388s-17.463-3.44-16.4,12.674c.018.275.053.555.068.833a.041.041,0,0,0,.042.046C191.282,247.109,191.418,247.141,191.554,247.169Z" fill="none" stroke="#000" stroke-linecap="round" stroke-linejoin="round" stroke-dasharray="1 3"/><path d="M180.608,218.626c.077.168.159.333.254.5q.2.356.423.7.268.424.557.833.332.47.692.92.4.5.826.962.46.5.96.959c.35.321.715.626,1.094.912a12.892,12.892,0,0,0,1.228.82,11.527,11.527,0,0,0,1.362.684,10.618,10.618,0,0,0,1.5.5,10.289,10.289,0,0,0,1.631.277,10.667,10.667,0,0,0,1.765.007,11.921,11.921,0,0,0,1.9-.308,14.291,14.291,0,0,0,2.033-.667A18.108,18.108,0,0,0,199,224.66a23.408,23.408,0,0,0,2.006-1.3s-7.554-16.116-19.918-5.728c-.211.177-.416.37-.632.548a.041.041,0,0,0-.012.061C180.495,218.371,180.55,218.5,180.608,218.626Z" fill="none" stroke="#000" stroke-linecap="round" stroke-linejoin="round" stroke-dasharray="1 3"/><path d="M240.7,196.662c.137-.021.272-.046.411-.08q.3-.073.592-.16.36-.106.714-.229.406-.142.8-.308.437-.183.861-.4.453-.228.887-.493c.3-.186.6-.385.881-.6a9.639,9.639,0,0,0,.842-.714,8.618,8.618,0,0,0,.772-.839,7.939,7.939,0,0,0,.669-.973,7.693,7.693,0,0,0,.535-1.115,7.976,7.976,0,0,0,.368-1.267,8.913,8.913,0,0,0,.169-1.428,10.685,10.685,0,0,0-.062-1.6,13.539,13.539,0,0,0-.324-1.778,17.5,17.5,0,0,0-.525-1.71s-13.138,2.118-8.212,13.141c.084.188.181.375.264.567a.031.031,0,0,0,.042.021C240.492,196.69,240.6,196.677,240.7,196.662Z" fill="none" stroke="#000" stroke-linecap="round" stroke-linejoin="round" stroke-dasharray="1 3"/><path d="M243.355,199.125c.066.193.137.381.224.574q.184.412.386.815.247.493.518.973.312.551.656,1.082.379.585.8,1.143.449.6.945,1.155c.348.39.713.764,1.1,1.118a14.176,14.176,0,0,0,1.254,1.032,12.675,12.675,0,0,0,1.416.9,11.676,11.676,0,0,0,1.582.714,11.314,11.314,0,0,0,1.754.482,11.73,11.73,0,0,0,1.93.2,13.109,13.109,0,0,0,2.111-.128,15.714,15.714,0,0,0,2.3-.507,19.912,19.912,0,0,0,2.488-.934,25.739,25.739,0,0,0,2.337-1.206s-6.5-18.462-21.165-8.452c-.25.171-.5.36-.751.53a.045.045,0,0,0-.02.066C243.26,198.834,243.306,198.98,243.355,199.125Z" fill="none" stroke="#000" stroke-linecap="round" stroke-linejoin="round" stroke-dasharray="1 3"/><path d="M200.9,126.007c0,.2.015.4.038.615q.05.448.12.894.085.545.2,1.085.129.619.3,1.231.183.673.412,1.332.246.7.549,1.388c.212.477.447.945.705,1.4a14.176,14.176,0,0,0,.881,1.365,12.675,12.675,0,0,0,1.075,1.286,11.676,11.676,0,0,0,1.29,1.162,11.314,11.314,0,0,0,1.524.993,11.73,11.73,0,0,0,1.777.779,13.109,13.109,0,0,0,2.05.52,15.714,15.714,0,0,0,2.342.216,19.912,19.912,0,0,0,2.654-.132,25.739,25.739,0,0,0,2.593-.437s-.571-19.563-17.589-14.492c-.29.087-.582.192-.877.277a.045.045,0,0,0-.039.057C200.9,125.7,200.9,125.854,200.9,126.007Z" fill="none" stroke="#000" stroke-linecap="round" stroke-linejoin="round" stroke-dasharray="1 3"/><path d="M247.3,77.466c-.043.228-.078.456-.1.7q-.048.512-.074,1.026-.032.628-.031,1.258,0,.722.044,1.443.048.794.151,1.583.111.844.291,1.678c.127.582.28,1.159.463,1.726a16.174,16.174,0,0,0,.667,1.729,14.462,14.462,0,0,0,.9,1.686,13.322,13.322,0,0,0,1.171,1.6,12.909,12.909,0,0,0,1.472,1.463,13.384,13.384,0,0,0,1.8,1.283,14.957,14.957,0,0,0,2.169,1.057,17.929,17.929,0,0,0,2.566.786,22.719,22.719,0,0,0,3,.468,29.368,29.368,0,0,0,3,.114s3.906-21.987-16.283-20.274c-.344.029-.694.079-1.044.105a.052.052,0,0,0-.056.054C247.37,77.123,247.333,77.295,247.3,77.466Z" fill="none" stroke="#000" stroke-linecap="round" stroke-linejoin="round" stroke-dasharray="1 3"/><path d="M314.117,70.106c-.066.148-.127.3-.182.455q-.117.339-.219.683-.125.421-.228.847-.118.49-.207.986-.1.546-.157,1.1-.063.591-.078,1.185c-.01.416,0,.832.03,1.246a11.283,11.283,0,0,0,.168,1.282,10.089,10.089,0,0,0,.335,1.292,9.294,9.294,0,0,0,.531,1.276,9.006,9.006,0,0,0,.757,1.234,9.337,9.337,0,0,0,1.012,1.166,10.434,10.434,0,0,0,1.3,1.073,12.508,12.508,0,0,0,1.611.954,15.849,15.849,0,0,0,1.954.81,20.488,20.488,0,0,0,2.014.57S329.016,72,315.047,69.844c-.238-.037-.484-.061-.725-.1a.036.036,0,0,0-.047.027C314.219,69.885,314.166,70,314.117,70.106Z" fill="none" stroke="#000" stroke-linecap="round" stroke-linejoin="round" stroke-dasharray="1 3"/><path d="M358.9,120.1c0-.162-.013-.322-.033-.49q-.041-.356-.1-.711-.07-.433-.161-.863-.105-.493-.24-.978-.148-.535-.333-1.058-.2-.56-.442-1.1c-.171-.379-.359-.75-.566-1.111a11.283,11.283,0,0,0-.706-1.083,10.089,10.089,0,0,0-.861-1.02,9.294,9.294,0,0,0-1.031-.92,9.006,9.006,0,0,0-1.217-.785,9.337,9.337,0,0,0-1.417-.614,10.434,10.434,0,0,0-1.634-.407,12.508,12.508,0,0,0-1.865-.164,15.849,15.849,0,0,0-2.112.115,20.488,20.488,0,0,0-2.063.358s.526,15.569,14.053,11.471c.231-.07.462-.155.7-.223a.036.036,0,0,0,.031-.045C358.906,120.343,358.906,120.221,358.9,120.1Z" fill="none" stroke="#000" stroke-linecap="round" stroke-linejoin="round" stroke-dasharray="1 3"/><path d="M396.537,91.9c.1.131.194.257.305.384q.237.27.485.529.3.317.624.617.367.345.754.668.426.355.876.681.482.348.991.655c.356.214.722.413,1.1.591a11.283,11.283,0,0,0,1.2.489,10.089,10.089,0,0,0,1.288.349,9.294,9.294,0,0,0,1.371.17,9.006,9.006,0,0,0,1.447-.047,9.337,9.337,0,0,0,1.515-.3,10.434,10.434,0,0,0,1.575-.6,12.508,12.508,0,0,0,1.627-.927,15.849,15.849,0,0,0,1.671-1.3,20.488,20.488,0,0,0,1.493-1.468s-9.292-12.5-18.083-1.436c-.15.189-.292.39-.446.58a.036.036,0,0,0,0,.055C396.4,91.7,396.465,91.8,396.537,91.9Z" fill="none" stroke="#000" stroke-linecap="round" stroke-linejoin="round" stroke-dasharray="1 3"/><path d="M438.549,133.194c.1.131.194.257.305.384q.237.27.485.529.3.317.624.617.367.345.754.668.426.355.876.681.482.348.991.655c.356.214.722.413,1.1.591a11.283,11.283,0,0,0,1.2.489,10.089,10.089,0,0,0,1.288.349,9.294,9.294,0,0,0,1.371.17,9.006,9.006,0,0,0,1.447-.047,9.337,9.337,0,0,0,1.515-.3,10.434,10.434,0,0,0,1.575-.6,12.508,12.508,0,0,0,1.627-.927,15.849,15.849,0,0,0,1.671-1.3,20.488,20.488,0,0,0,1.493-1.468s-9.292-12.5-18.083-1.436c-.15.189-.292.39-.446.58a.036.036,0,0,0,0,.055C438.408,133,438.477,133.1,438.549,133.194Z" fill="none" stroke="#000" stroke-linecap="round" stroke-linejoin="round" stroke-dasharray="1 3"/><path d="M439.462,120.333c.215.015.429.024.653.02q.478-.009.955-.039.583-.037,1.164-.1.666-.076,1.327-.192.728-.128,1.445-.306.767-.191,1.518-.444c.524-.178,1.04-.38,1.544-.608a15.021,15.021,0,0,0,1.526-.8,13.431,13.431,0,0,0,1.461-1.01,12.372,12.372,0,0,0,1.352-1.248,11.989,11.989,0,0,0,1.2-1.511,12.429,12.429,0,0,0,1-1.8,13.891,13.891,0,0,0,.749-2.112,16.651,16.651,0,0,0,.456-2.45,21.1,21.1,0,0,0,.119-2.813,27.275,27.275,0,0,0-.209-2.779s-20.7-1.3-17,17.149c.063.315.146.632.206.952a.048.048,0,0,0,.056.046C439.139,120.306,439.3,120.321,439.462,120.333Z" fill="none" stroke="#000" stroke-linecap="round" stroke-linejoin="round" stroke-dasharray="1 3"/><path d="M408.812,243.947c-.162,0-.322.008-.49.025q-.357.036-.712.088-.434.063-.865.148-.494.1-.982.225-.537.14-1.063.317-.563.19-1.109.425c-.382.165-.756.348-1.119.549a11.283,11.283,0,0,0-1.094.689,10.089,10.089,0,0,0-1.032.845,9.294,9.294,0,0,0-.936,1.017,9.006,9.006,0,0,0-.8,1.2,9.337,9.337,0,0,0-.635,1.408,10.434,10.434,0,0,0-.431,1.627,12.508,12.508,0,0,0-.192,1.862,15.849,15.849,0,0,0,.083,2.114,20.488,20.488,0,0,0,.326,2.068s15.576-.29,11.683-13.877c-.066-.232-.148-.465-.213-.7a.036.036,0,0,0-.045-.031C409.055,243.948,408.933,243.946,408.812,243.947Z" fill="none" stroke="#000" stroke-linecap="round" stroke-linejoin="round" stroke-dasharray="1 3"/><path d="M468.211,184.055c.252.055.5.1.768.135q.566.071,1.135.117.7.056,1.393.077.8.024,1.6,0,.882-.027,1.76-.115.94-.095,1.87-.266c.65-.121,1.294-.271,1.929-.455a17.94,17.94,0,0,0,1.939-.681,16.04,16.04,0,0,0,1.9-.944,14.777,14.777,0,0,0,1.811-1.245,14.319,14.319,0,0,0,1.672-1.582,14.845,14.845,0,0,0,1.483-1.957,16.59,16.59,0,0,0,1.245-2.369,19.887,19.887,0,0,0,.958-2.819,25.2,25.2,0,0,0,.62-3.305,32.575,32.575,0,0,0,.227-3.321s-24.244-5.07-23.025,17.37c.021.383.064.772.082,1.161a.057.057,0,0,0,.058.064C467.833,183.967,468.022,184.013,468.211,184.055Z" fill="none" stroke="#000" stroke-linecap="round" stroke-linejoin="round" stroke-dasharray="1 3"/><path d="M455.05,218.143c-.114.112-.223.226-.331.353q-.229.269-.446.549-.265.341-.513.7-.284.407-.544.83-.286.466-.539.952-.27.519-.5,1.06c-.158.378-.3.763-.42,1.155a11.119,11.119,0,0,0-.306,1.237,9.942,9.942,0,0,0-.156,1.306,9.159,9.159,0,0,0,.03,1.361,8.875,8.875,0,0,0,.252,1.4,9.2,9.2,0,0,0,.511,1.434,10.282,10.282,0,0,0,.805,1.45,12.326,12.326,0,0,0,1.136,1.454,15.619,15.619,0,0,0,1.5,1.444,20.19,20.19,0,0,0,1.644,1.246s10.865-10.846-1.182-17.838c-.206-.119-.422-.229-.629-.352a.036.036,0,0,0-.053.008C455.224,217.977,455.136,218.059,455.05,218.143Z" fill="none" stroke="#000" stroke-linecap="round" stroke-linejoin="round" stroke-dasharray="1 3"/><path d="M382.646,84.869c.117-.111.23-.226.341-.352q.237-.27.462-.55.275-.342.532-.7.3-.408.566-.834.3-.468.562-.957.283-.523.522-1.067c.167-.381.316-.769.445-1.165a11.283,11.283,0,0,0,.331-1.25,10.089,10.089,0,0,0,.18-1.322,9.294,9.294,0,0,0-.008-1.382,9.006,9.006,0,0,0-.233-1.429,9.337,9.337,0,0,0-.495-1.463,10.434,10.434,0,0,0-.793-1.485,12.508,12.508,0,0,0-1.129-1.494,15.849,15.849,0,0,0-1.5-1.49,20.488,20.488,0,0,0-1.648-1.291s-11.2,10.826.906,18.118c.207.124.425.239.633.368a.036.036,0,0,0,.054-.008C382.467,85.035,382.558,84.953,382.646,84.869Z" fill="none" stroke="#000" stroke-linecap="round" stroke-linejoin="round" stroke-dasharray="1 3"/><path d="M317.587,114.322c.048-.155.09-.31.124-.475q.074-.351.132-.705.071-.433.121-.869.056-.5.083-1,.029-.554.02-1.109-.011-.594-.069-1.186-.063-.62-.185-1.233a11.283,11.283,0,0,0-.326-1.251,10.089,10.089,0,0,0-.493-1.24,9.294,9.294,0,0,0-.686-1.2,9.006,9.006,0,0,0-.9-1.13,9.337,9.337,0,0,0-1.15-1.032,10.434,10.434,0,0,0-1.42-.9,12.508,12.508,0,0,0-1.717-.747,15.849,15.849,0,0,0-2.04-.561,20.488,20.488,0,0,0-2.07-.315s-4.44,14.932,9.689,15.336c.241.007.488,0,.732.009a.036.036,0,0,0,.043-.033C317.513,114.554,317.552,114.438,317.587,114.322Z" fill="none" stroke="#000" stroke-linecap="round" stroke-linejoin="round" stroke-dasharray="1 3"/><path id="primary" d="M477.565,212.31a4.023,4.023,0,0,0-1.241-1.689A.977.977,0,0,1,477.4,209a5.928,5.928,0,0,1,2.252,3.476l.009.074a3.984,3.984,0,0,0,.443-.182,5.293,5.293,0,0,1,4.463-.215c2.353.977,3.349,3.32,2.93,6.923-.469,4.5-2.6,9.287-5.566,9.287a3.711,3.711,0,0,1-1.953-.6,2.07,2.07,0,0,0-1.162-.381,2.041,2.041,0,0,0-1.133.371,3.75,3.75,0,0,1-1.953.6c-2.93,0-5.1-4.785-5.586-9.287s1.309-6.23,2.93-6.914a5.3,5.3,0,0,1,4.463.215Z" fill="none" stroke="#000" stroke-linecap="round" stroke-linejoin="round" stroke-dasharray="1 3"/><path id="primary-2" data-name="primary" d="M394.79,215.381a6.228,6.228,0,0,1,5.225.489c1.772,1.063,3.575,3.371,2.262,8.525s-4.626,10.36-8.033,9.874a4.4,4.4,0,0,1-2.173-1.016,2.4,2.4,0,0,0-1.256-.619,2.432,2.432,0,0,0-1.414.25,4.359,4.359,0,0,1-2.37.369c-3.452-.492-5.135-6.408-4.935-11.721.108-4.26,1.655-6.82,4.553-7.566a6.217,6.217,0,0,1,5.154.989,4.68,4.68,0,0,0,.485.285l.023-.085a6.963,6.963,0,0,1,3.195-3.67,1.147,1.147,0,0,1,.981,2.063,4.725,4.725,0,0,0-1.723,1.758Z" fill="none" stroke="#000" stroke-linecap="round" stroke-linejoin="round" stroke-dasharray="1 3"/><path id="primary-3" data-name="primary" d="M422.622,150.863a4.536,4.536,0,0,0-1.4-1.9,1.1,1.1,0,0,1,1.211-1.828,6.685,6.685,0,0,1,2.54,3.92l.011.084a4.493,4.493,0,0,0,.5-.205,5.969,5.969,0,0,1,5.033-.242c2.654,1.1,3.777,3.744,3.3,7.808-.529,5.077-2.929,10.473-6.277,10.473a4.185,4.185,0,0,1-2.2-.672,2.335,2.335,0,0,0-1.31-.429,2.3,2.3,0,0,0-1.277.418,4.229,4.229,0,0,1-2.2.672c-3.3,0-5.748-5.4-6.3-10.473s1.476-7.026,3.3-7.8a5.98,5.98,0,0,1,5.033.242Z" fill="none" stroke="#000" stroke-linecap="round" stroke-linejoin="round" stroke-dasharray="1 3"/><path id="primary-4" data-name="primary" d="M393.1,110.749a3.717,3.717,0,0,0-1.147-1.56.9.9,0,0,1,.993-1.5,5.477,5.477,0,0,1,2.081,3.212l.009.069a3.681,3.681,0,0,0,.409-.168,4.89,4.89,0,0,1,4.124-.2c2.175.9,3.095,3.068,2.707,6.4-.433,4.16-2.4,8.581-5.143,8.581a3.429,3.429,0,0,1-1.8-.55,1.913,1.913,0,0,0-1.074-.352,1.886,1.886,0,0,0-1.047.343,3.465,3.465,0,0,1-1.8.55c-2.707,0-4.71-4.421-5.161-8.581s1.209-5.757,2.707-6.388a4.9,4.9,0,0,1,4.124.2Z" fill="none" stroke="#000" stroke-linecap="round" stroke-linejoin="round" stroke-dasharray="1 3"/><path id="primary-5" data-name="primary" d="M267.763,120.53a4.465,4.465,0,0,1,3.758-.181c1.365.576,2.878,2.031,2.467,5.822s-2.237,7.821-4.7,7.821a3.158,3.158,0,0,1-1.645-.5,1.719,1.719,0,0,0-.954-.312,1.743,1.743,0,0,0-.979.321,3.125,3.125,0,0,1-1.645.5c-2.5,0-4.293-4.03-4.688-7.821-.354-3.035.485-5.008,2.467-5.831a4.457,4.457,0,0,1,3.758.181,3.355,3.355,0,0,0,.373.153l.008-.063a4.992,4.992,0,0,1,1.9-2.928.822.822,0,0,1,.9,1.365,3.388,3.388,0,0,0-1.045,1.422Z" fill="none" stroke="#000" stroke-linecap="round" stroke-linejoin="round" stroke-dasharray="1 3"/><path id="primary-6" data-name="primary" d="M246.588,266.837a4.981,4.981,0,0,0-1.537-2.091,1.209,1.209,0,0,1,1.33-2.007,7.34,7.34,0,0,1,2.789,4.3l.012.092a4.933,4.933,0,0,0,.549-.225,6.554,6.554,0,0,1,5.526-.266c2.914,1.209,4.148,4.111,3.628,8.573-.58,5.574-3.216,11.5-6.892,11.5a4.6,4.6,0,0,1-2.418-.738,2.563,2.563,0,0,0-1.439-.472,2.527,2.527,0,0,0-1.4.459,4.643,4.643,0,0,1-2.418.738c-3.628,0-6.312-5.925-6.917-11.5s1.62-7.715,3.628-8.561a6.566,6.566,0,0,1,5.526.266Z" fill="none" stroke="#000" stroke-linecap="round" stroke-linejoin="round" stroke-dasharray="1 3"/><path d="M340.368,252.922h-5.1a10.8,10.8,0,0,0-1-3.5,7.82,7.82,0,0,0,3.1-6.1v-.4a1,1,0,1,0-2,0v.4a5.637,5.637,0,0,1-2.2,4.5,7.725,7.725,0,0,0-1.9-1.7v-.2a4,4,0,1,0-8,0v.2a10.081,10.081,0,0,0-1.9,1.7,6.11,6.11,0,0,1-2-4.5v-.4a1,1,0,1,0-2,0v.4a7.4,7.4,0,0,0,3.1,6.1,9.532,9.532,0,0,0-1,3.5h-5.1a1,1,0,0,0,0,2h5.1a10.8,10.8,0,0,0,1,3.5,7.4,7.4,0,0,0-3.1,6.1v.4a1,1,0,0,0,2,0v-.4a5.637,5.637,0,0,1,2.2-4.5,7.491,7.491,0,0,0,5.8,2.9,7.342,7.342,0,0,0,5.8-2.9,5.637,5.637,0,0,1,2.2,4.5v.4a1,1,0,0,0,2,0v-.4a7.4,7.4,0,0,0-3.1-6.1,9.532,9.532,0,0,0,1-3.5h5.1a1,1,0,0,0,0-2Z" fill="none" stroke="#000" stroke-linecap="round" stroke-linejoin="round" stroke-dasharray="1 2"/><path d="M343.25,283.25h-3.825a8.1,8.1,0,0,0-.75-2.625A5.865,5.865,0,0,0,341,276.05v-.3a.75.75,0,0,0-1.5,0v.3a4.228,4.228,0,0,1-1.65,3.375,5.794,5.794,0,0,0-1.425-1.275V278a3,3,0,0,0-6,0v.15A7.561,7.561,0,0,0,329,279.425a4.582,4.582,0,0,1-1.5-3.375v-.3a.75.75,0,0,0-1.5,0v.3a5.549,5.549,0,0,0,2.325,4.575,7.149,7.149,0,0,0-.75,2.625H323.75a.75.75,0,0,0,0,1.5h3.825a8.1,8.1,0,0,0,.75,2.625A5.549,5.549,0,0,0,326,291.95v.3a.75.75,0,0,0,1.5,0v-.3a4.228,4.228,0,0,1,1.65-3.375,5.619,5.619,0,0,0,4.35,2.175,5.507,5.507,0,0,0,4.35-2.175,4.228,4.228,0,0,1,1.65,3.375v.3a.75.75,0,0,0,1.5,0v-.3a5.549,5.549,0,0,0-2.325-4.575,7.149,7.149,0,0,0,.75-2.625h3.825a.75.75,0,0,0,0-1.5Z" fill="none" stroke="#000" stroke-linecap="round" stroke-linejoin="round" stroke-dasharray="1 2"/><rect x="156" y="306" width="129" height="31" rx="6" ry="6" fill="#87b26b"/><path d="M265.7,311.518a.338.338,0,0,1-.288-.128.542.542,0,0,1-.1-.336c0-.319.129-.479.385-.479h.527v-1.16a.561.561,0,0,1,.093-.364.361.361,0,0,1,.292-.108.41.41,0,0,1,.315.108.531.531,0,0,1,.1.364v1.16h.424a.351.351,0,0,1,.319.136.622.622,0,0,1,.089.344.582.582,0,0,1-.089.336.361.361,0,0,1-.319.128h-.32c.08.145.146.268.2.372s.1.2.147.288.087.171.124.248.078.164.12.26a1.185,1.185,0,0,1,.116.428.288.288,0,0,1-.156.269.417.417,0,0,1-.292.092c-.082-.013-.153-.092-.212-.235-.037-.117-.066-.205-.088-.265s-.043-.114-.063-.168v3.32a.563.563,0,0,1-.093.364.386.386,0,0,1-.308.107.39.39,0,0,1-.3-.107.528.528,0,0,1-.1-.364v-2.832c-.048.139-.089.267-.124.384a1.659,1.659,0,0,1-.14.336.8.8,0,0,1-.3.408.281.281,0,0,1-.328-.04.336.336,0,0,1-.16-.284,1.013,1.013,0,0,1,.144-.443q.24-.5.477-1.061a7.847,7.847,0,0,0,.372-1.076Zm6.664-.224v4.176a2.737,2.737,0,0,1-.044.54.759.759,0,0,1-.152.34.54.54,0,0,1-.28.176,1.521,1.521,0,0,1-.436.041c-.123-.006-.235-.016-.336-.029a2.7,2.7,0,0,1-.312-.06.5.5,0,0,1-.344-.2.518.518,0,0,1-.024-.355.438.438,0,0,1,.185-.3.529.529,0,0,1,.416.009,1.718,1.718,0,0,0,.216.052,1,1,0,0,0,.144.012c.086,0,.128-.082.128-.248v-4.151H270.5a.389.389,0,0,1-.28-.08,10.417,10.417,0,0,1-.128,1.22,8.19,8.19,0,0,1-.28,1.148c.1.24.2.484.292.736s.186.506.276.768a.935.935,0,0,1,.064.42.354.354,0,0,1-.232.26.335.335,0,0,1-.312.02.664.664,0,0,1-.24-.363c-.054-.139-.1-.275-.152-.412s-.1-.266-.152-.389a5.848,5.848,0,0,1-.451.693,8.211,8.211,0,0,1-.6.691.722.722,0,0,1-.4.264.316.316,0,0,1-.288-.136.417.417,0,0,1-.132-.345.988.988,0,0,1,.275-.424,6.436,6.436,0,0,0,.721-.9,5.72,5.72,0,0,0,.472-.872q-.208-.48-.42-.908t-.46-.9a.626.626,0,0,1-.116-.391.423.423,0,0,1,.22-.3.371.371,0,0,1,.288-.056.417.417,0,0,1,.264.256q.136.264.28.548c.1.189.192.386.288.588q.064-.335.1-.68t.067-.752a.224.224,0,0,0-.008-.116c-.011-.019-.04-.028-.088-.028H268.2a.33.33,0,0,1-.292-.131.514.514,0,0,1-.092-.3.5.5,0,0,1,.092-.309A.34.34,0,0,1,268.2,310h1.319a.836.836,0,0,1,.5.115.578.578,0,0,1,.192.4.389.389,0,0,1,.288-.1h1.023V309.4q0-.441.416-.441a.432.432,0,0,1,.313.109.441.441,0,0,1,.112.332v1.008h.1a.341.341,0,0,1,.312.127.61.61,0,0,1,.08.328.556.556,0,0,1-.08.309.345.345,0,0,1-.312.124Zm-1.009,2.528a1.05,1.05,0,0,1,0,.4c-.024.072-.105.124-.244.156a.354.354,0,0,1-.292-.032.616.616,0,0,1-.141-.367c-.021-.139-.044-.272-.067-.4s-.051-.258-.08-.389-.062-.265-.1-.4l-.12-.447a.54.54,0,0,1-.02-.332.322.322,0,0,1,.2-.212.334.334,0,0,1,.315.008.569.569,0,0,1,.173.312c.09.336.165.641.224.912S271.314,313.566,271.352,313.822Z" fill="#fff"/><path d="M274.056,310.533a.523.523,0,0,1-.367-.111.484.484,0,0,1-.12-.368.434.434,0,0,1,.487-.5h5.809a.519.519,0,0,1,.363.12.481.481,0,0,1,.133.376.455.455,0,0,1-.133.368.546.546,0,0,1-.363.111H277.5v2.088h2.888a.476.476,0,0,1,.376.137.536.536,0,0,1,.12.368.5.5,0,0,1-.132.36.486.486,0,0,1-.364.135H277.5v2.584a.486.486,0,0,1-.132.377.522.522,0,0,1-.364.119.441.441,0,0,1-.5-.5v-2.584h-2.9a.485.485,0,0,1-.363-.135.5.5,0,0,1-.133-.36.536.536,0,0,1,.12-.368.477.477,0,0,1,.376-.137h2.9v-2.088Z" fill="#fff"/><path d="M211.216,318.613a.254.254,0,0,1,.212.16.761.761,0,0,1-.036.385,12.832,12.832,0,0,1-.487,1.447v5.32q0,.328-.3.328t-.3-.328v-4.08c-.069.123-.14.24-.212.352l-.22.345a.835.835,0,0,1-.28.3.261.261,0,0,1-.264-.04.246.246,0,0,1-.128-.231.911.911,0,0,1,.191-.408,10.2,10.2,0,0,0,.864-1.557,9.979,9.979,0,0,0,.544-1.588.862.862,0,0,1,.156-.336A.248.248,0,0,1,211.216,318.613Zm.561,3.009a.441.441,0,0,1-.24.22.321.321,0,0,1-.256-.061.262.262,0,0,1-.112-.2.427.427,0,0,1,.1-.3,5.851,5.851,0,0,0,.607-1.14,7.411,7.411,0,0,0,.344-1.155.491.491,0,0,1,.137-.289.293.293,0,0,1,.231-.063.272.272,0,0,1,.225.128.534.534,0,0,1,0,.368c-.021.075-.04.147-.057.22s-.034.143-.056.212h3.12a.781.781,0,0,1,.584.185.766.766,0,0,1,.151.592,3.284,3.284,0,0,1-.075.472,2.819,2.819,0,0,1-.188.544.5.5,0,0,1-.228.272.263.263,0,0,1-.244-.024.365.365,0,0,1-.176-.191.508.508,0,0,1,.063-.32c.054-.117.105-.245.156-.385a1.3,1.3,0,0,0,.084-.327q.016-.152-.032-.185a.435.435,0,0,0-.208-.031h-1.32v5.088a.985.985,0,0,1-.216.736.776.776,0,0,1-.6.176,2.993,2.993,0,0,1-.388-.045,3.226,3.226,0,0,1-.549-.164.477.477,0,0,1-.26-.184.28.28,0,0,1,0-.279.25.25,0,0,1,.192-.172.571.571,0,0,1,.312.06c.176.063.314.108.416.136a1.03,1.03,0,0,0,.264.04.188.188,0,0,0,.177-.08.485.485,0,0,0,.048-.239v-5.072H212.5a7.583,7.583,0,0,1-.312.711Q212.015,321.222,211.776,321.622Zm1.208.384a12.5,12.5,0,0,1-.48,1.6,10.6,10.6,0,0,1-.656,1.44.493.493,0,0,1-.212.228.3.3,0,0,1-.244-.02.3.3,0,0,1-.184-.2.425.425,0,0,1,.064-.284c.106-.2.214-.418.323-.664s.212-.5.309-.752.184-.512.264-.768.144-.494.192-.713a.5.5,0,0,1,.14-.26.251.251,0,0,1,.244-.076.316.316,0,0,1,.236.152.5.5,0,0,1,0,.328Zm2.615-.137q.321.744.572,1.445t.437,1.4a.68.68,0,0,1,.023.332.287.287,0,0,1-.191.18c-.225.08-.374-.021-.448-.3a11.653,11.653,0,0,0-.416-1.4q-.256-.7-.544-1.348a.494.494,0,0,1-.048-.336.31.31,0,0,1,.436-.187A.438.438,0,0,1,215.6,321.869Z" fill="#fff"/><path d="M223.456,319.79a.711.711,0,0,1,.524.155.767.767,0,0,1,.147.533v4.791a1.01,1.01,0,0,1-.192.664.832.832,0,0,1-.672.232,2.831,2.831,0,0,1-.523-.057,5.369,5.369,0,0,1-.692-.191c-.187-.064-.3-.139-.336-.225a.326.326,0,0,1,.016-.279.286.286,0,0,1,.177-.168.653.653,0,0,1,.352.048q.376.144.612.208a1.552,1.552,0,0,0,.4.064.214.214,0,0,0,.2-.093.523.523,0,0,0,.056-.268v-4.673a.143.143,0,0,0-.027-.1.087.087,0,0,0-.068-.031h-2.16q-.032.352-.071.656a5.423,5.423,0,0,1-.1.535q.624.584,1.152,1.1t1.008,1.037a.739.739,0,0,1,.168.295.262.262,0,0,1-.088.256.354.354,0,0,1-.244.113c-.083,0-.177-.062-.284-.185q-.456-.52-.911-1t-1.017-1a4.491,4.491,0,0,1-.68,1.12,7.377,7.377,0,0,1-1.088,1.04.542.542,0,0,1-.353.168.353.353,0,0,1-.231-.151.251.251,0,0,1-.036-.252.738.738,0,0,1,.228-.269,8.035,8.035,0,0,0,.872-.78,3.708,3.708,0,0,0,.561-.756,3.327,3.327,0,0,0,.323-.855,7.328,7.328,0,0,0,.156-1.08H218.44c-.011,0-.021.014-.028.039a.319.319,0,0,0-.012.088v5.336a.388.388,0,0,1-.084.265.3.3,0,0,1-.236.1.279.279,0,0,1-.248-.1.467.467,0,0,1-.064-.265v-5.391q0-.688.633-.688h2.271c.006-.134.01-.27.012-.408s0-.248,0-.328a.579.579,0,0,1,.072-.4.291.291,0,0,1,.248-.092.3.3,0,0,1,.232.1.586.586,0,0,1,.079.336v.4c0,.131,0,.26-.008.388Z" fill="#fff"/><path d="M225.336,323.422a12.883,12.883,0,0,0,1.32-1.484,7.5,7.5,0,0,0,.976-1.724h-1.96c-.224,0-.336-.1-.336-.3a.3.3,0,0,1,.084-.221.343.343,0,0,1,.252-.084h2.185c.031-.106.063-.215.092-.324s.057-.223.084-.34a.583.583,0,0,1,.168-.344.336.336,0,0,1,.264-.04.232.232,0,0,1,.2.169.652.652,0,0,1-.012.327c-.027.091-.054.183-.08.276l-.08.275h3.9a.388.388,0,0,1,.269.084.285.285,0,0,1,.092.221c0,.2-.12.3-.36.3H228.28a10.53,10.53,0,0,1-1.2,2.16v3.575a.3.3,0,0,1-.084.244.349.349,0,0,1-.229.068.325.325,0,0,1-.212-.068.3.3,0,0,1-.084-.244v-2.807q-.167.19-.34.375c-.114.123-.233.24-.355.352a.588.588,0,0,1-.312.188.277.277,0,0,1-.24-.124.259.259,0,0,1-.08-.207A.56.56,0,0,1,225.336,323.422Zm4.36,1.936v-2.408H227.88q-.352,0-.352-.3a.3.3,0,0,1,.084-.221.362.362,0,0,1,.268-.084H229.7v-1.488a.355.355,0,0,1,.084-.256.289.289,0,0,1,.22-.088.317.317,0,0,1,.232.088.348.348,0,0,1,.088.256v1.488h1.8a.3.3,0,0,1,.24.084.328.328,0,0,1,.071.221.264.264,0,0,1-.312.3h-1.8v2.408h1.991a.371.371,0,0,1,.265.084.3.3,0,0,1,.088.229q0,.3-.353.3h-4.68c-.24,0-.359-.1-.359-.3a.3.3,0,0,1,.092-.229.384.384,0,0,1,.268-.084Z" fill="#fff"/><path d="M236.376,325.086a.816.816,0,0,1-.14.531.658.658,0,0,1-.517.164h-1.647a.628.628,0,0,1-.508-.164.843.843,0,0,1-.133-.531v-4.84a.826.826,0,0,1,.133-.528.639.639,0,0,1,.508-.16h.439c.048-.128.09-.247.124-.356s.065-.209.092-.3a.418.418,0,0,1,.156-.252.309.309,0,0,1,.292-.028c.117.042.185.1.2.18a.777.777,0,0,1-.04.341c-.026.074-.051.146-.072.215s-.045.137-.071.2h.527a.669.669,0,0,1,.517.16.8.8,0,0,1,.14.528Zm-.64-4.752c0-.091-.035-.137-.1-.137H234.16c-.059,0-.088.046-.088.137v1.88h1.664Zm0,2.52h-1.664V325a.2.2,0,0,0,.023.1.073.073,0,0,0,.064.041h1.472c.069,0,.1-.049.1-.145Zm1.359-1.312a.536.536,0,0,1-.268.252.315.315,0,0,1-.276-.044.236.236,0,0,1-.107-.221.656.656,0,0,1,.124-.332,4.374,4.374,0,0,0,.508-1.039,8.019,8.019,0,0,0,.308-1.225.364.364,0,0,1,.136-.26.338.338,0,0,1,.232-.052.292.292,0,0,1,.216.116.351.351,0,0,1,.04.275c-.021.1-.04.2-.056.288a2.5,2.5,0,0,1-.064.272h1.624a1.6,1.6,0,0,1,.433.048.521.521,0,0,1,.271.18.826.826,0,0,1,.145.376,4.756,4.756,0,0,1,.048.628q.007.432,0,.952c-.008.347-.02.684-.032,1.012s-.029.63-.048.9-.036.489-.052.645a5.439,5.439,0,0,1-.173.912,1.611,1.611,0,0,1-.279.567.853.853,0,0,1-.408.28,1.3,1.3,0,0,1-.548.031c-.139-.016-.263-.033-.372-.052s-.214-.038-.312-.06-.2-.047-.292-.076-.2-.065-.3-.107a.592.592,0,0,1-.328-.221.333.333,0,0,1,.017-.283.233.233,0,0,1,.2-.164.732.732,0,0,1,.313.051q.248.1.523.177a4.648,4.648,0,0,0,.517.12.648.648,0,0,0,.332-.021.5.5,0,0,0,.244-.228,1.751,1.751,0,0,0,.176-.5,6.347,6.347,0,0,0,.112-.836c.021-.229.038-.457.052-.68s.023-.463.032-.717.013-.53.016-.832,0-.648,0-1.044a.607.607,0,0,0-.084-.368.37.37,0,0,0-.3-.1h-1.681a7.576,7.576,0,0,1-.279.72A5.61,5.61,0,0,1,237.1,321.542Zm2.008,1.776a.751.751,0,0,1,.1.363.288.288,0,0,1-.172.221c-.2.1-.357,0-.48-.3a8.923,8.923,0,0,0-.443-.92q-.261-.472-.549-.928a.477.477,0,0,1-.084-.271.273.273,0,0,1,.133-.225.287.287,0,0,1,.231-.056.4.4,0,0,1,.232.208A20.5,20.5,0,0,1,239.1,323.318Z" fill="#fff"/><path d="M246.968,319.949a3.62,3.62,0,0,1,.632.045.712.712,0,0,1,.368.164.566.566,0,0,1,.164.336,3.466,3.466,0,0,1,.036.56q0,.649-.016,1.252c-.011.4-.023.769-.036,1.1s-.028.607-.044.84a3.6,3.6,0,0,1-.057.484,2.685,2.685,0,0,1-.187.571,1.225,1.225,0,0,1-.3.4,1.2,1.2,0,0,1-.44.244,1.972,1.972,0,0,1-.611.084,3.3,3.3,0,0,1-.608-.06c-.214-.04-.472-.1-.776-.18a.514.514,0,0,1-.312-.2.344.344,0,0,1-.024-.283.264.264,0,0,1,.185-.177.579.579,0,0,1,.336.024,6.509,6.509,0,0,0,.66.168,2.823,2.823,0,0,0,.523.056.827.827,0,0,0,.645-.235,1.314,1.314,0,0,0,.292-.613c.01-.08.022-.231.035-.455s.027-.5.04-.812.027-.672.04-1.064.023-.8.028-1.228a1.5,1.5,0,0,0-.012-.208.152.152,0,0,0-.072-.115.426.426,0,0,0-.176-.049q-.116-.012-.316-.012h-2.023a14.265,14.265,0,0,1-.261,1.809,5.786,5.786,0,0,1-.5,1.42,5.091,5.091,0,0,1-.836,1.172,7.834,7.834,0,0,1-1.268,1.056.484.484,0,0,1-.316.1.287.287,0,0,1-.22-.177q-.152-.28.176-.464a6.649,6.649,0,0,0,1.092-.884,4.422,4.422,0,0,0,.769-1.056,5.789,5.789,0,0,0,.484-1.316,11.253,11.253,0,0,0,.256-1.664h-2.152c-.219,0-.328-.1-.328-.312a.334.334,0,0,1,.084-.239.32.32,0,0,1,.244-.089h2.192c.011-.144.019-.295.023-.455a4.469,4.469,0,0,0-.008-.473q-.023-.368.32-.367a.294.294,0,0,1,.26.1.632.632,0,0,1,.068.34c0,.154,0,.3-.009.444s-.013.278-.023.411Z" fill="#fff"/><path d="M250.656,324.342a.8.8,0,0,1-.521-.128.669.669,0,0,1-.144-.5v-1.144a.433.433,0,0,1,.147-.369.889.889,0,0,1,.517-.111h4.72a.879.879,0,0,1,.524.12.426.426,0,0,1,.155.36v1.144a.636.636,0,0,1-.155.5.839.839,0,0,1-.524.128H253.3v.3h2.521a.4.4,0,0,1,.239.056.254.254,0,0,1,.072.209.228.228,0,0,1-.072.2.415.415,0,0,1-.239.053H253.3v.375h3.248c.213,0,.32.092.32.272s-.107.256-.32.256h-7.08a.385.385,0,0,1-.24-.06.244.244,0,0,1-.071-.2.265.265,0,0,1,.071-.208.359.359,0,0,1,.24-.064h3.264v-.375h-2.592a.4.4,0,0,1-.231-.053.228.228,0,0,1-.072-.2.254.254,0,0,1,.072-.209.38.38,0,0,1,.231-.056h2.592v-.3Zm6.2-2.8a.218.218,0,0,1-.08.2.487.487,0,0,1-.24.048h-7.072a.434.434,0,0,1-.24-.048.246.246,0,0,1-.063-.2.24.24,0,0,1,.072-.2.375.375,0,0,1,.239-.061h7.064C256.749,321.285,256.856,321.371,256.856,321.542Zm-.809-1.1a.6.6,0,0,1-.172.48.848.848,0,0,1-.548.145H250.56a1.01,1.01,0,0,1-.3-.037.337.337,0,0,1-.172-.115.419.419,0,0,1-.076-.2,2.043,2.043,0,0,1-.016-.276v-.824a2.048,2.048,0,0,1,.016-.275.36.36,0,0,1,.076-.187.335.335,0,0,1,.172-.1,1.142,1.142,0,0,1,.3-.032h4.769a.9.9,0,0,1,.548.133.556.556,0,0,1,.172.467Zm-.567-.808c0-.075-.03-.112-.089-.112h-4.76c-.048,0-.072.037-.072.112v.151h4.921Zm0,.655H250.56v.137c0,.091.024.136.072.136h4.76c.059,0,.089-.045.089-.136ZM250.64,322.6c-.048,0-.071.04-.071.12v.248h2.159V322.6Zm-.071,1.1c0,.086.023.129.071.129h2.088v-.352h-2.159Zm2.728-1.1v.368h2.185v-.248c0-.08-.03-.12-.089-.12Zm2.1,1.232c.059,0,.089-.043.089-.129v-.223H253.3v.352Z" fill="#fff"/><path d="M263.272,323.533a.357.357,0,0,1-.064.217.259.259,0,0,1-.224.088h-5.416a.3.3,0,0,1-.217-.076.28.28,0,0,1-.079-.212.351.351,0,0,1,.067-.228.275.275,0,0,1,.229-.084h5.416a.269.269,0,0,1,.228.08A.349.349,0,0,1,263.272,323.533Zm-4.521-2.2c0,.074.04.111.136.111h4.752a.928.928,0,0,1,.292.041.41.41,0,0,1,.2.14.713.713,0,0,1,.124.276,1.849,1.849,0,0,1,.044.439,10.626,10.626,0,0,1-.155,2.12,3.072,3.072,0,0,1-.4,1.112,1.612,1.612,0,0,1-.588.416,1.983,1.983,0,0,1-.788.152,3.272,3.272,0,0,1-.692-.08,3.319,3.319,0,0,1-.748-.272.539.539,0,0,1-.271-.2.281.281,0,0,1,0-.244.263.263,0,0,1,.18-.168.5.5,0,0,1,.332.072,4.381,4.381,0,0,0,.6.232,1.993,1.993,0,0,0,.567.088,1.284,1.284,0,0,0,.528-.108,1.148,1.148,0,0,0,.4-.292,2.222,2.222,0,0,0,.312-.944,10.048,10.048,0,0,0,.112-1.832.692.692,0,0,0-.053-.284.136.136,0,0,0-.124-.076h-4.56a1.454,1.454,0,0,1-.66-.111.4.4,0,0,1-.164-.439c.059-.454.121-.887.188-1.3s.129-.828.188-1.244a.413.413,0,0,1,.1-.244.294.294,0,0,1,.224-.043c.134.01.212.042.236.1a.525.525,0,0,1,.02.248l-.1.623h5.32a.29.29,0,0,1,.224.072.332.332,0,0,1,.064.225.352.352,0,0,1-.064.22.266.266,0,0,1-.224.084h-5.408l-.16,1.112Z" fill="#fff"/><path d="M268.688,325.174a1.472,1.472,0,0,1-.032.34.379.379,0,0,1-.116.2.5.5,0,0,1-.236.1,2.352,2.352,0,0,1-.392.027h-1.656a2.344,2.344,0,0,1-.392-.027.479.479,0,0,1-.232-.1.37.37,0,0,1-.107-.2,1.623,1.623,0,0,1-.028-.34V323.23a1.347,1.347,0,0,1,.036-.349.394.394,0,0,1,.12-.2.458.458,0,0,1,.231-.1,2.429,2.429,0,0,1,.372-.024h1.656a2.166,2.166,0,0,1,.388.028.52.52,0,0,1,.236.1.37.37,0,0,1,.12.2,1.487,1.487,0,0,1,.032.341Zm-.6-1.96c0-.048-.051-.071-.152-.071h-1.7c-.091,0-.137.023-.137.071v1.968c0,.043.046.064.137.064h1.7q.152,0,.152-.064Zm3.632-2.063a1.829,1.829,0,0,1-.027.348.431.431,0,0,1-.112.224.479.479,0,0,1-.232.12,1.769,1.769,0,0,1-.4.036h-3.92a2.4,2.4,0,0,1-.376-.024.445.445,0,0,1-.232-.1.412.412,0,0,1-.12-.221,1.763,1.763,0,0,1-.031-.379v-1.265a1.789,1.789,0,0,1,.031-.376.424.424,0,0,1,.12-.225.481.481,0,0,1,.232-.107,2.052,2.052,0,0,1,.376-.027h3.92a2.2,2.2,0,0,1,.384.027.447.447,0,0,1,.236.112.455.455,0,0,1,.116.228,1.807,1.807,0,0,1,.031.368Zm-.607-1.3c0-.068-.048-.1-.145-.1h-3.952c-.091,0-.136.035-.136.1v1.32c0,.069.045.1.136.1h3.952a.162.162,0,0,0,.1-.031.092.092,0,0,0,.04-.072Zm-1.809,5.32V323.23a1.487,1.487,0,0,1,.032-.341.37.37,0,0,1,.12-.2.516.516,0,0,1,.236-.1,2.166,2.166,0,0,1,.388-.028h1.656a2.447,2.447,0,0,1,.372.024.458.458,0,0,1,.231.1.4.4,0,0,1,.12.2,1.347,1.347,0,0,1,.036.349v1.943a1.692,1.692,0,0,1-.028.34.37.37,0,0,1-.107.2.479.479,0,0,1-.232.1,2.352,2.352,0,0,1-.392.027H270.08a2.344,2.344,0,0,1-.392-.027.5.5,0,0,1-.236-.1.379.379,0,0,1-.116-.2A1.472,1.472,0,0,1,269.3,325.174Zm.6.008c0,.043.051.064.151.064h1.7c.091,0,.137-.021.137-.064v-1.968c0-.048-.046-.071-.137-.071h-1.7c-.1,0-.151.023-.151.071Z" fill="#fff"/><path d="M280.368,319q.088.368-.424.439-.48.088-1.064.156t-1.184.116a.376.376,0,0,1,.063.28l-.08.632H280.4a.356.356,0,0,1,.26.084.331.331,0,0,1,0,.44.361.361,0,0,1-.26.084h-2.8l-.088.672h2a1.46,1.46,0,0,1,.284.023.342.342,0,0,1,.185.1.45.45,0,0,1,.1.192,1.518,1.518,0,0,1,.04.312v2.152a.279.279,0,0,1-.084.229.328.328,0,0,1-.212.067.359.359,0,0,1-.225-.067.272.272,0,0,1-.088-.229v-2.1c-.011-.064-.031-.1-.063-.1h-3.912a.06.06,0,0,0-.052.027.1.1,0,0,0-.021.061v2.168a.264.264,0,0,1-.092.228.362.362,0,0,1-.424,0,.275.275,0,0,1-.084-.228V322.51a.666.666,0,0,1,.132-.492.752.752,0,0,1,.484-.115H276.9l.088-.672h-2.057a.331.331,0,0,1-.252-.084.356.356,0,0,1,0-.44.328.328,0,0,1,.252-.084h2.137l.088-.688c0-.037.011-.07.016-.1a.4.4,0,0,1,.024-.084q-.385.032-.757.052t-.7.032q-.328.012-.608.02c-.187.006-.347.008-.479.008a.2.2,0,0,0-.148.041.282.282,0,0,0-.036.176v1.384c0,.64-.012,1.188-.036,1.644a11.287,11.287,0,0,1-.116,1.188,5.124,5.124,0,0,1-.208.876,5.048,5.048,0,0,1-.3.708.449.449,0,0,1-.224.224c-.08.027-.179-.008-.3-.1a.236.236,0,0,1-.084-.229,1.08,1.08,0,0,1,.14-.355,3.178,3.178,0,0,0,.212-.536,5.357,5.357,0,0,0,.16-.756q.067-.453.1-1.08t.036-1.5v-1.56a.752.752,0,0,1,.185-.549.7.7,0,0,1,.544-.18q.256.009.64-.008t.844-.04q.46-.025.973-.063c.341-.027.679-.06,1.012-.1s.657-.077.972-.12.6-.088.856-.136a.6.6,0,0,1,.324.008A.271.271,0,0,1,280.368,319Zm-2.944,3.615a.258.258,0,0,1,.24.108.788.788,0,0,1,.048.4,6.4,6.4,0,0,1-.168,1.14,1.925,1.925,0,0,1-.416.8,2.687,2.687,0,0,1-.828.6,10.4,10.4,0,0,1-1.4.544c-.272.091-.437.034-.5-.168a.275.275,0,0,1,.027-.236.427.427,0,0,1,.269-.172q.52-.152.9-.288a4.076,4.076,0,0,0,.641-.288,1.744,1.744,0,0,0,.424-.327,1.423,1.423,0,0,0,.256-.408,2.062,2.062,0,0,0,.132-.524c.024-.194.041-.42.052-.677a.783.783,0,0,1,.093-.411A.286.286,0,0,1,277.424,322.613Zm3.088,3.553a.244.244,0,0,1-.216.1.426.426,0,0,1-.24-.1q-.256-.176-.5-.336c-.159-.107-.317-.208-.472-.3s-.311-.189-.468-.279-.321-.184-.492-.28-.276-.185-.3-.268a.319.319,0,0,1,.036-.253.235.235,0,0,1,.2-.143.675.675,0,0,1,.341.111c.213.117.405.226.575.324s.332.194.484.287.3.191.448.293l.483.336Q280.72,325.9,280.512,326.166Z" fill="#fff"/><path d="M170.276,329.651v2.532a1.309,1.309,0,0,1-.033.309.521.521,0,0,1-.12.231.573.573,0,0,1-.234.147,1.164,1.164,0,0,1-.369.051,1.179,1.179,0,0,1-.264-.019,2.608,2.608,0,0,1-.264-.06c-.084-.024-.16-.051-.228-.078a.581.581,0,0,1-.144-.078.115.115,0,0,1-.051-.09.152.152,0,0,1,.024-.094.129.129,0,0,1,.078-.051.154.154,0,0,1,.117.03,2.006,2.006,0,0,0,.714.175,1.172,1.172,0,0,0,.24-.021.311.311,0,0,0,.153-.075.3.3,0,0,0,.081-.149,1.1,1.1,0,0,0,.024-.252v-2.509h-2.58c-.076,0-.114-.042-.114-.126s.038-.132.114-.132H172.6c.076,0,.114.044.114.132s-.038.126-.114.126Zm-1.536.522a3,3,0,0,1-.234.648q-.114.275-.243.53t-.267.5a3.867,3.867,0,0,1-.372.559c-.056.059-.1.09-.135.09a.139.139,0,0,1-.093-.037.076.076,0,0,1-.042-.071.73.73,0,0,1,.126-.216c.12-.172.228-.336.324-.489a4.8,4.8,0,0,0,.246-.44c.068-.141.135-.289.2-.447s.129-.327.189-.508c.052-.147.112-.222.18-.222S168.74,330.1,168.74,330.174Zm3.288-2.28q.114,0,.114.126t-.114.12H168q-.114,0-.114-.12t.114-.126Zm.57,4.5a.1.1,0,0,1-.042.087.189.189,0,0,1-.1.027.129.129,0,0,1-.1-.057,1.633,1.633,0,0,1-.141-.285q-.27-.612-.477-1.041c-.138-.287-.259-.52-.363-.7a.4.4,0,0,1-.069-.189.11.11,0,0,1,.039-.09.119.119,0,0,1,.087-.021.121.121,0,0,1,.069.024.572.572,0,0,1,.072.1.9.9,0,0,1,.078.138c.036.071.086.17.15.294.124.24.268.533.432.882.084.172.151.312.2.417s.085.182.1.225A.5.5,0,0,1,172.6,332.394Z" fill="#fff"/><path d="M173.81,329.478c-.04.1-.081.192-.123.288s-.087.191-.135.288a3.216,3.216,0,0,1-.174.33.1.1,0,0,1-.078.048.128.128,0,0,1-.111-.057c-.026-.039-.011-.115.045-.231a8.617,8.617,0,0,0,.93-2.592c.012-.1.054-.144.126-.144s.114.031.114.1a3.583,3.583,0,0,1-.12.533c-.04.148-.079.289-.117.424s-.077.259-.117.375v4.1a.073.073,0,0,1-.024.09.167.167,0,0,1-.192,0,.073.073,0,0,1-.024-.09Zm1.428-1.513h-.546c-.072,0-.108-.037-.108-.113s.036-.12.108-.12H177q.132,0,.132.12c0,.076-.044.113-.132.113H175.46c-.008.145-.017.289-.027.433s-.023.286-.039.427h1.116a.556.556,0,0,1,.162.021.266.266,0,0,1,.123.075.349.349,0,0,1,.078.149.964.964,0,0,1,.027.253,4.2,4.2,0,0,1-.366,1.812,3.773,3.773,0,0,1-.978,1.3q-.606.51-.8.51c-.076,0-.114-.036-.114-.107,0-.053.064-.119.192-.2a3.74,3.74,0,0,0,1.3-1.248,7.949,7.949,0,0,0-1.044-1.278,2.806,2.806,0,0,1-.4.678c-.18.229-.306.342-.378.342a.087.087,0,0,1-.06-.029.153.153,0,0,1-.018-.081c0-.034.042-.1.126-.194a4.38,4.38,0,0,0,.39-.525,2.459,2.459,0,0,0,.246-.547,4.177,4.177,0,0,0,.15-.723Q175.2,328.608,175.238,327.965Zm-.06,1.9a8.374,8.374,0,0,1,.576.612,7.284,7.284,0,0,1,.51.679,3.947,3.947,0,0,0,.4-1.807.364.364,0,0,0-.051-.234.315.315,0,0,0-.219-.054h-1.026A4.456,4.456,0,0,1,175.178,329.867Zm3.426,2.563a.635.635,0,0,1-.126.354.513.513,0,0,1-.474.187,2.4,2.4,0,0,1-.576-.078,1.845,1.845,0,0,1-.4-.114c-.052-.027-.078-.06-.078-.1a.124.124,0,0,1,.066-.126.283.283,0,0,1,.186,0,3.147,3.147,0,0,0,.744.155.481.481,0,0,0,.318-.08.373.373,0,0,0,.09-.285V327.5q0-.108.12-.108t.126.108Zm-.948-.612a.075.075,0,0,1-.024.091.172.172,0,0,1-.192,0,.075.075,0,0,1-.024-.091v-3.8a.127.127,0,0,1,.021-.084.141.141,0,0,1,.1-.023.139.139,0,0,1,.1.023.127.127,0,0,1,.021.084Z" fill="#fff"/><path d="M180.4,329.058a.264.264,0,0,1,.189.078.25.25,0,0,1,0,.368.257.257,0,0,1-.189.082.261.261,0,0,1-.183-.45A.259.259,0,0,1,180.4,329.058Zm0,2.25a.264.264,0,0,1,.189.078.25.25,0,0,1,0,.368.257.257,0,0,1-.189.082.261.261,0,0,1-.183-.45A.259.259,0,0,1,180.4,331.308Z" fill="#fff"/><path d="M185.84,328.2h-.588c-.072,0-.108-.033-.108-.1a.1.1,0,0,1,.108-.107h.588v-.438q0-.1.108-.1c.076,0,.114.036.114.108v.433h1.356v-.438c0-.076.036-.114.108-.114s.114.036.114.107v.445h.588a.1.1,0,0,1,.108.107c0,.068-.036.1-.108.1h-.588v.271c0,.228-.028.364-.084.407a.6.6,0,0,1-.342.066h-.378v.4h.882a.4.4,0,0,1,.279.078.347.347,0,0,1,.081.258v.372a.344.344,0,0,1-.078.255.409.409,0,0,1-.282.075h-.882v.45h1.224c.072,0,.108.033.108.1s-.036.1-.108.1h-1.224v.517h1.146c.072,0,.108.028.108.084a.15.15,0,0,1-.021.1.128.128,0,0,1-.087.021h-1.146v.582l1.11-.2c.1-.017.144.012.144.084a.113.113,0,0,1-.033.093.314.314,0,0,1-.129.045l-2.652.463a.183.183,0,0,1-.054.006c-.048,0-.072-.041-.072-.121,0-.047.03-.077.09-.09l1.374-.246v-.617H185.42c-.072,0-.108-.032-.108-.1a.1.1,0,0,1,.108-.108h1.194v-.517H185.4c-.072,0-.108-.033-.108-.1s.036-.1.108-.1h1.212v-.45h-.888a.409.409,0,0,1-.282-.075.344.344,0,0,1-.078-.255v-.372a.347.347,0,0,1,.081-.258.4.4,0,0,1,.279-.078h.888v-.4h-.372a.512.512,0,0,1-.336-.072.759.759,0,0,1-.066-.4Zm.774,1.986v-.643H185.8c-.14,0-.21.063-.21.187v.276c0,.119.07.18.21.18Zm.8-1.986h-1.356v.313q0,.229.174.229h.984q.2,0,.2-.229Zm-.582,1.344v.643h.8a.234.234,0,0,0,.159-.051.166.166,0,0,0,.057-.129v-.276c0-.124-.072-.187-.216-.187Zm2.568-.894q-.006.769-.06,1.359a5.98,5.98,0,0,1-.168,1.011,3.888,3.888,0,0,1-.69,1.422q-.462.589-.612.588l-.06-.029a.1.1,0,0,1-.051-.051.115.115,0,0,1,.009-.091.447.447,0,0,1,.12-.141,3.579,3.579,0,0,0,.99-1.572,8.992,8.992,0,0,0,.282-2.5h-.786c-.076,0-.114-.036-.114-.108a.1.1,0,0,1,.114-.113h.786v-.906a.107.107,0,0,1,.027-.105.15.15,0,0,1,.186,0,.107.107,0,0,1,.027.105v.906h.6c.136.008.242.018.318.027a.252.252,0,0,1,.168.078.345.345,0,0,1,.066.194q.012.132.024.372,0,.888-.021,1.5t-.063.966a3.081,3.081,0,0,1-.249,1.032.515.515,0,0,1-.459.324,1.083,1.083,0,0,1-.474-.133c-.088-.043-.159-.08-.213-.107a.78.78,0,0,1-.123-.075.2.2,0,0,1-.054-.058.1.1,0,0,1-.012-.047.117.117,0,0,1,.057-.114.181.181,0,0,1,.165.024,1.485,1.485,0,0,0,.624.239.34.34,0,0,0,.288-.21,2.982,2.982,0,0,0,.21-.9q.048-.347.072-.891t.024-1.3a4.2,4.2,0,0,0-.018-.5.22.22,0,0,0-.084-.162.473.473,0,0,0-.234-.042Z" fill="#fff"/><path d="M193.958,328.109h2.688a.111.111,0,0,1,.126.126q0,.12-.126.12h-2.088q.234.264.468.48a5.126,5.126,0,0,0,.486.4,4.175,4.175,0,0,0,.537.324,5.5,5.5,0,0,0,.615.264c.116.044.174.1.174.162q0,.126-.12.126a3.153,3.153,0,0,1-.942-.414,5.231,5.231,0,0,1-1.512-1.338h-.444a3.419,3.419,0,0,1-.72.816,4.769,4.769,0,0,1-1.05.66,2.862,2.862,0,0,1-.75.293.122.122,0,0,1-.1-.047.145.145,0,0,1-.039-.084c0-.064.06-.119.18-.162a4.312,4.312,0,0,0,2.19-1.477H191.42c-.076,0-.114-.04-.114-.12s.038-.126.114-.126h2.262c.04-.068.076-.135.108-.2a1.3,1.3,0,0,0,.078-.2,1.278,1.278,0,0,1,.1-.242.113.113,0,0,1,.1-.045c.072,0,.108.037.108.113A1.591,1.591,0,0,1,193.958,328.109Zm2.076,4.35a.435.435,0,0,1-.09.31.407.407,0,0,1-.3.093H192.4a.45.45,0,0,1-.318-.093.417.417,0,0,1-.1-.31v-2.172c0-.3.138-.449.414-.449h3.246c.26,0,.39.15.39.449Zm-2.142-1.26v-1.121h-1.464c-.128,0-.192.078-.192.233v.888Zm0,1.422v-1.193h-1.656v.99c0,.136.064.2.192.2Zm1.89-1.422v-.888a.264.264,0,0,0-.051-.171.165.165,0,0,0-.135-.062h-1.458V331.2Zm0,1.219v-.99h-1.644v1.193H195.6C195.72,332.621,195.782,332.554,195.782,332.418Z" fill="#fff"/><path d="M199.148,332.789c-.008.017-.018.039-.03.066a.152.152,0,0,1-.054.066.114.114,0,0,1-.1.006.4.4,0,0,1-.15-.114c-.168-.151-.328-.291-.48-.417a3.854,3.854,0,0,0-.456-.327.346.346,0,0,1-.129-.11.113.113,0,0,1-.012-.094.13.13,0,0,1,.054-.066.243.243,0,0,1,.063-.029,2.434,2.434,0,0,1,.7.45Q199.148,332.669,199.148,332.789Z" fill="#fff"/><path d="M205.028,328.56h-1.6q-.114,0-.114-.132c0-.088.038-.133.114-.133h1.645c.036-.215.065-.449.09-.7q.023-.234.149-.234c.084,0,.126.055.126.162a2.553,2.553,0,0,1-.023.275c-.017.129-.04.295-.072.5h3.3c.08,0,.12.043.12.127s-.04.138-.12.138h-3.348c-.028.151-.059.3-.093.45s-.071.3-.111.449h2.586a.561.561,0,0,1,.36.105.346.346,0,0,1,.132.285,2.116,2.116,0,0,1-.33.756,4.373,4.373,0,0,1-.99,1.116,9,9,0,0,0,1.854,1.026c.111.047.168.1.168.144a.179.179,0,0,1-.024.078.08.08,0,0,1-.078.048,3.744,3.744,0,0,1-.821-.33,7.324,7.324,0,0,1-1.3-.8,5.818,5.818,0,0,1-1.476.792,4.356,4.356,0,0,1-.942.294q-.149,0-.149-.114a.087.087,0,0,1,.045-.08.8.8,0,0,1,.171-.063c.228-.064.439-.132.636-.2s.38-.149.552-.23a5.392,5.392,0,0,0,.489-.265c.154-.094.308-.194.459-.3A5.488,5.488,0,0,1,205,329.766a8.663,8.663,0,0,1-.486,1.23,5.917,5.917,0,0,1-.594.983,4.119,4.119,0,0,1-.414.517.245.245,0,0,1-.129.071.145.145,0,0,1-.087-.03.1.1,0,0,1-.042-.09.312.312,0,0,1,.1-.168,6.652,6.652,0,0,0,1.128-1.775A8.933,8.933,0,0,0,205.028,328.56Zm1.607,2.994a4.029,4.029,0,0,0,.942-1.021,1.92,1.92,0,0,0,.324-.678.115.115,0,0,0-.078-.111.714.714,0,0,0-.252-.033h-2.316A4.957,4.957,0,0,0,206.636,331.554Z" fill="#fff"/><path d="M211.874,329.886h-2.526a.114.114,0,0,1,0-.228h2.526v-.564H209.72c-.076,0-.113-.034-.113-.1s.037-.121.113-.121h2.154v-.558h-2.388q-.108,0-.108-.12c0-.08.036-.119.108-.119h3.407a1.951,1.951,0,0,0,.181-.273c.056-.1.111-.213.168-.333a.166.166,0,0,1,.072-.081.111.111,0,0,1,.077-.012.122.122,0,0,1,.063.039.1.1,0,0,1,.027.071,1.724,1.724,0,0,1-.3.589h1.345c.071,0,.107.039.107.119s-.036.12-.107.12h-2.4v.558h2.136c.076,0,.114.041.114.121s-.038.1-.114.1h-2.136v.564h2.58c.072,0,.108.037.108.113s-.036.114-.108.114h-2.58v.876h.918a3.927,3.927,0,0,0,.36-.648c.031-.08.073-.119.126-.119a.133.133,0,0,1,.071.021.08.08,0,0,1,.036.075,1.227,1.227,0,0,1-.1.252c-.032.068-.069.137-.111.207s-.087.141-.135.213h1.464q.108,0,.108.126t-.108.12h-5.508q-.108,0-.108-.12t.108-.126h2.628Zm2.3,2.6a.385.385,0,0,1-.09.288.452.452,0,0,1-.312.084H210.23a.44.44,0,0,1-.31-.084.394.394,0,0,1-.087-.288v-.714a.413.413,0,0,1,.087-.3.43.43,0,0,1,.31-.087h3.539a.441.441,0,0,1,.313.087.4.4,0,0,1,.09.3Zm-.252-.042v-.63c0-.128-.072-.192-.216-.192H210.3c-.14,0-.21.064-.21.192v.63c0,.12.07.18.21.18H213.7a.233.233,0,0,0,.156-.051A.159.159,0,0,0,213.92,332.441Zm-3.432-2.472c.04,0,.077.03.11.093s.089.15.165.268a.709.709,0,0,1,.108.188.15.15,0,0,1,0,.1.072.072,0,0,1-.048.041.168.168,0,0,0-.051.021.119.119,0,0,1-.072-.036c-.012-.017-.03-.041-.054-.075a1.26,1.26,0,0,1-.084-.135l-.084-.146a.7.7,0,0,0-.066-.1c-.056-.068-.068-.119-.036-.152A.2.2,0,0,1,210.488,329.97Zm.222-2.593q.054,0,.123.088c.046.058.1.137.165.236a.6.6,0,0,1,.1.192.107.107,0,0,1-.045.081.148.148,0,0,1-.1.039c-.032,0-.078-.049-.138-.145a1.4,1.4,0,0,0-.162-.24.265.265,0,0,1-.066-.1.108.108,0,0,1,0-.075.1.1,0,0,1,.048-.045Z" fill="#fff"/><path d="M217.148,332.789c-.009.017-.019.039-.03.066a.151.151,0,0,1-.054.066.115.115,0,0,1-.1.006.4.4,0,0,1-.149-.114c-.168-.151-.328-.291-.48-.417a3.894,3.894,0,0,0-.456-.327.346.346,0,0,1-.129-.11.117.117,0,0,1-.012-.094.127.127,0,0,1,.054-.066.245.245,0,0,1,.063-.029,2.443,2.443,0,0,1,.7.45Q217.148,332.669,217.148,332.789Z" fill="#fff"/><path d="M222.536,329.7q.149.2.275.381c.085.123.162.242.234.357a4.815,4.815,0,0,1,.264.45.383.383,0,0,1,.055.144.113.113,0,0,1-.024.063.122.122,0,0,1-.06.045.118.118,0,0,1-.081-.006.172.172,0,0,1-.081-.091c-.092-.18-.187-.346-.285-.5s-.2-.295-.3-.424v2.844c0,.076-.04.115-.12.115s-.12-.039-.12-.115v-3.084q-.12.325-.255.621c-.09.2-.183.39-.279.574a5.122,5.122,0,0,1-.348.611.182.182,0,0,1-.114.066.118.118,0,0,1-.12-.072.2.2,0,0,1,.036-.18,12.261,12.261,0,0,0,.618-1.107,8,8,0,0,0,.4-.975h-.973c-.067,0-.1-.039-.1-.114s.034-.12.1-.12H222.3V328.1a5.019,5.019,0,0,1-.852.168.11.11,0,0,1-.105-.048.178.178,0,0,1-.027-.078c0-.048.066-.084.2-.108a6.425,6.425,0,0,0,1.513-.4c.1-.051.178-.049.222.007a.181.181,0,0,1,.033.065c.006.024-.012.053-.052.084a.855.855,0,0,1-.219.108q-.158.06-.471.144v1.146h.87c.067,0,.1.04.1.12s-.034.114-.1.114h-.87Zm1.979,1.26a.881.881,0,0,1-.093.256c-.062.134-.151.309-.267.525-.057.1-.115.207-.178.309s-.127.2-.194.3-.123.188-.177.264-.1.143-.147.2a.89.89,0,0,1-.162.181.139.139,0,0,1-.072.018.12.12,0,0,1-.062-.021.118.118,0,0,1-.048-.057.122.122,0,0,1,0-.084.256.256,0,0,1,.065-.107,5.14,5.14,0,0,0,.543-.757,9.338,9.338,0,0,0,.531-1.038.148.148,0,0,1,.145-.113.121.121,0,0,1,.084.033A.119.119,0,0,1,224.516,330.959Zm2.034-.93a.458.458,0,0,1-.087.318.409.409,0,0,1-.3.09h-2.076a.4.4,0,0,1-.3-.09.464.464,0,0,1-.087-.324v-1.914a.448.448,0,0,1,.084-.314.407.407,0,0,1,.3-.088h2.076a.418.418,0,0,1,.3.088.442.442,0,0,1,.087.314Zm-.246-.054v-1.817c0-.145-.063-.217-.191-.217h-1.98c-.124,0-.186.072-.186.217v1.817a.236.236,0,0,0,.054.159.167.167,0,0,0,.132.063h1.98C226.24,330.2,226.3,330.123,226.3,329.976Zm-.66.821a.12.12,0,0,1,.075.033,1.1,1.1,0,0,1,.142.2c.071.108.159.254.264.438s.21.378.318.582.2.389.272.543a1.015,1.015,0,0,1,.111.291.124.124,0,0,1-.027.069.147.147,0,0,1-.068.054.107.107,0,0,1-.091-.013.256.256,0,0,1-.09-.123q-.252-.545-.5-.986t-.471-.8c-.06-.092-.077-.163-.051-.213A.12.12,0,0,1,225.644,330.8Z" fill="#fff"/><path d="M228.47,328.584h.78c.08,0,.12.037.12.113s-.04.114-.12.114h-.78v.2a10.111,10.111,0,0,1,.606.93c.2.332.3.508.3.528a.163.163,0,0,1,.018.071.113.113,0,0,1-.038.076.132.132,0,0,1-.094.039.123.123,0,0,1-.087-.039,1.161,1.161,0,0,1-.129-.22q-.426-.8-.576-1.044v3.564c0,.072-.042.107-.126.107s-.126-.035-.126-.107v-3.336q-.078.258-.156.479c-.052.147-.105.286-.161.414s-.112.246-.168.354-.108.2-.156.285-.09.148-.126.2a1.165,1.165,0,0,1-.072.1.114.114,0,0,1-.075.033.1.1,0,0,1-.113-.109.247.247,0,0,1,.051-.141,3.743,3.743,0,0,0,.264-.437q.132-.252.264-.576a10.934,10.934,0,0,0,.45-1.374h-.876a.114.114,0,1,1,0-.228h.876V327.5q0-.1.126-.1t.126.1Zm3.114,3.479a4.141,4.141,0,0,1-.918.679,2.424,2.424,0,0,1-.672.3c-.084,0-.126-.043-.126-.131,0-.057.034-.1.1-.121a4.138,4.138,0,0,0,1.429-.93,7.478,7.478,0,0,1-1.177-2.07,8.936,8.936,0,0,1-.168,1.129,5.46,5.46,0,0,1-.27.875c-.057.133-.116.263-.181.391s-.134.256-.21.385a3.027,3.027,0,0,1-.287.432.186.186,0,0,1-.111.051.13.13,0,0,1-.093-.027.113.113,0,0,1-.039-.087.2.2,0,0,1,.051-.129,5.079,5.079,0,0,0,.894-1.944,14.759,14.759,0,0,0,.252-2.988h-.75c-.067,0-.1-.041-.1-.125s.036-.127.108-.127H231.6a.4.4,0,0,1,.226.045.312.312,0,0,1,.153.268.194.194,0,0,1-.024.107l-.384,1.261a.164.164,0,0,0-.006.048c0,.049.046.072.138.072h.624c.172,0,.258.1.258.288a3.966,3.966,0,0,1-.186.948,3.32,3.32,0,0,1-.648,1.205,4.367,4.367,0,0,0,.462.444,7.048,7.048,0,0,0,.57.427.311.311,0,0,1,.12.11.105.105,0,0,1,.006.09.162.162,0,0,1-.058.066.211.211,0,0,1-.062.032.207.207,0,0,1-.1-.035,1.2,1.2,0,0,1-.1-.069l-.183-.135c-.148-.112-.291-.23-.43-.354S231.708,332.2,231.584,332.063Zm-.012-.4a3.079,3.079,0,0,0,.588-1.074,3.331,3.331,0,0,0,.174-.8c0-.088-.04-.131-.12-.131h-.546a.391.391,0,0,1-.222-.031.231.231,0,0,1-.108-.107.275.275,0,0,1-.023-.141.754.754,0,0,1,.023-.141l.336-1.087a.438.438,0,0,0,.027-.222c-.015-.032-.077-.049-.189-.049h-1.206q-.012.48-.023.832c-.008.234-.017.427-.024.578A8.643,8.643,0,0,0,231.572,331.668Z" fill="#fff"/><path d="M235.322,328.127h2.7q.413,0,.413.445v3.9q0,.5-.647.5a2.052,2.052,0,0,1-.258-.019c-.093-.012-.19-.027-.294-.048a1.373,1.373,0,0,1-.372-.108.1.1,0,0,1-.061-.09c0-.088.036-.131.108-.131a.61.61,0,0,1,.149.023,3.166,3.166,0,0,0,.732.12q.384,0,.384-.222V328.59a.217.217,0,0,0-.057-.156.181.181,0,0,0-.135-.061h-3.925a.174.174,0,0,0-.135.066.222.222,0,0,0-.057.15V332.9a.112.112,0,0,1-.03.084.181.181,0,0,1-.126.03c-.068,0-.1-.038-.1-.114v-4.325a.483.483,0,0,1,.1-.343.445.445,0,0,1,.327-.1h.978a3.552,3.552,0,0,0,.207-.314,2.246,2.246,0,0,0,.159-.327q.06-.144.129-.144a.192.192,0,0,1,.111.029.109.109,0,0,1,.042.1.337.337,0,0,1-.027.108,1.405,1.405,0,0,1-.075.162c-.031.06-.067.123-.107.191A1.579,1.579,0,0,1,235.322,328.127Zm1.943,3.1a.48.48,0,0,1-.1.336.4.4,0,0,1-.306.1h-1.716a.407.407,0,0,1-.307-.1.484.484,0,0,1-.1-.336v-1.47a.474.474,0,0,1,.1-.33.4.4,0,0,1,.307-.1h1.716a.4.4,0,0,1,.306.1.47.47,0,0,1,.1.33Zm-.252-.024v-1.422c0-.144-.062-.216-.186-.216h-1.645c-.124,0-.186.072-.186.216V331.2a.235.235,0,0,0,.054.159.168.168,0,0,0,.132.063h1.645C236.952,331.422,237.014,331.348,237.014,331.2Z" fill="#fff"/><path d="M241.586,329.711v2.82h3.12a.112.112,0,0,1,.126.127c0,.088-.042.131-.126.131h-5.424c-.084,0-.126-.043-.126-.131a.112.112,0,0,1,.126-.127h2.04v-4.937q0-.126.132-.126t.132.126v1.859h2.682a.118.118,0,0,1,.133.133c0,.084-.038.125-.114.125Z" fill="#fff"/><path d="M247.148,332.789c-.009.017-.019.039-.03.066a.151.151,0,0,1-.054.066.115.115,0,0,1-.1.006.4.4,0,0,1-.149-.114c-.168-.151-.328-.291-.48-.417a3.894,3.894,0,0,0-.456-.327.346.346,0,0,1-.129-.11.117.117,0,0,1-.012-.094.127.127,0,0,1,.054-.066.245.245,0,0,1,.063-.029,2.443,2.443,0,0,1,.7.45Q247.148,332.669,247.148,332.789Z" fill="#fff"/><path d="M251.588,328.008h-.24c-.071,0-.107-.032-.107-.1s.008-.1.023-.117a.132.132,0,0,1,.084-.021h2.04a.106.106,0,0,1,.12.12q0,.114-.12.114h-.264V331.6a1.114,1.114,0,0,1,.144-.075.51.51,0,0,1,.088-.026.061.061,0,0,1,.048.006.4.4,0,0,1,.032.029.325.325,0,0,0,.027.061.051.051,0,0,1-.006.057.319.319,0,0,1-.1.081,2.4,2.4,0,0,1-.237.126v1.086q0,.108-.114.108c-.076,0-.113-.036-.113-.108v-.978c-.116.056-.254.116-.411.183s-.337.139-.537.219a4.645,4.645,0,0,1-.66.234.088.088,0,0,1-.084-.042.136.136,0,0,1-.015-.123c.014-.046.061-.081.141-.1l.258-.084Zm1.309,0h-1.08v1.17h1.08Zm0,1.386h-1.08v1.158h1.08Zm-1.08,2.772a10.56,10.56,0,0,0,1.08-.451v-.947h-1.08Zm2.166-1.291a3.079,3.079,0,0,1-.078.475c-.053.244-.112.486-.181.727a1.776,1.776,0,0,1-.144.407.133.133,0,0,1-.087.063.106.106,0,0,1-.087-.019.131.131,0,0,1-.048-.084.187.187,0,0,1,.035-.135,5.062,5.062,0,0,0,.337-1.338c.016-.136.056-.2.119-.2C253.938,330.768,253.982,330.8,253.982,330.875Zm1.374-2.556c.067-.124.136-.256.2-.4s.137-.29.2-.45a.239.239,0,0,1,.075-.1.165.165,0,0,1,.084-.037.1.1,0,0,1,.069.021.088.088,0,0,1,.03.072,1.245,1.245,0,0,1-.15.414c-.052.1-.1.2-.145.275a2.01,2.01,0,0,1-.126.2h.391a.437.437,0,0,1,.314.093.446.446,0,0,1,.094.321v1.032a.453.453,0,0,1-.094.327.437.437,0,0,1-.314.093h-1.86a.4.4,0,0,1-.3-.093.479.479,0,0,1-.087-.327v-1.032a.466.466,0,0,1,.087-.323.4.4,0,0,1,.3-.091Zm-.673-.186a.115.115,0,0,1-.021.057.118.118,0,0,1-.057.048.11.11,0,0,1-.084,0,.245.245,0,0,1-.1-.1c-.048-.067-.105-.144-.174-.226s-.148-.172-.24-.272a.145.145,0,0,1-.036-.153.113.113,0,0,1,.114-.074.172.172,0,0,1,.111.063c.042.042.1.111.183.207s.151.186.213.27A.387.387,0,0,1,254.684,328.134Zm1.482,1.6v-.966c0-.141-.064-.21-.192-.21h-1.806c-.124,0-.186.071-.186.216v.96a.236.236,0,0,0,.054.159.167.167,0,0,0,.132.063h1.806C256.1,329.951,256.166,329.877,256.166,329.729Zm-1.518,2.46a.839.839,0,0,0,.035.279.218.218,0,0,0,.15.129,1.415,1.415,0,0,0,.426.042,1.97,1.97,0,0,0,.48-.048.312.312,0,0,0,.219-.172.862.862,0,0,0,.051-.326,1.48,1.48,0,0,1,.006-.15.168.168,0,0,1,.021-.074.05.05,0,0,1,.036-.024.365.365,0,0,1,.051,0c.084,0,.126.056.126.168a1.467,1.467,0,0,1-.084.594.451.451,0,0,1-.282.229,2.325,2.325,0,0,1-.653.065,1.171,1.171,0,0,1-.648-.132.629.629,0,0,1-.186-.54v-1.272c0-.088.042-.131.126-.131s.126.043.126.131Zm.384-1.878a.137.137,0,0,1,.078.048,2,2,0,0,1,.18.391c.048.115.094.23.138.345s.086.229.126.345a3.058,3.058,0,0,1,.12.4c0,.031-.021.058-.065.078a.3.3,0,0,1-.105.023c-.03,0-.051-.023-.062-.072-.028-.092-.062-.2-.1-.317s-.088-.254-.144-.4-.107-.276-.153-.387-.089-.2-.129-.279a.073.073,0,0,1,0-.108A.17.17,0,0,1,255.032,330.312Zm1.1.408a.1.1,0,0,1,.084.048,2.7,2.7,0,0,1,.18.354c.049.1.1.215.145.334s.1.246.15.387a2.212,2.212,0,0,1,.149.51q0,.12-.132.12c-.068,0-.122-.084-.162-.252a5.594,5.594,0,0,0-.479-1.229.351.351,0,0,1-.058-.142.123.123,0,0,1,.016-.078.081.081,0,0,1,.051-.036Z" fill="#fff"/><path d="M259.316,331.463a.457.457,0,0,1-.091.322.4.4,0,0,1-.294.092h-1.067a.385.385,0,0,1-.291-.092.468.468,0,0,1-.087-.322v-3.3a.452.452,0,0,1,.087-.318.389.389,0,0,1,.291-.09h1.067a.4.4,0,0,1,.3.09.451.451,0,0,1,.088.318Zm-.24-1.883v-1.375c0-.147-.066-.222-.2-.222h-.96c-.128,0-.192.074-.192.222v1.375Zm0,1.836v-1.59h-1.351v1.59a.233.233,0,0,0,.058.164.174.174,0,0,0,.135.063h.96C259.01,331.644,259.076,331.567,259.076,331.416Zm1.109-.408a2.763,2.763,0,0,1-.294,1.044,1.852,1.852,0,0,1-.617.678,1.435,1.435,0,0,1-.534.271.088.088,0,0,1-.084-.043.14.14,0,0,1-.03-.041.075.075,0,0,1,0-.055.161.161,0,0,1,.048-.066.605.605,0,0,1,.123-.077,2.44,2.44,0,0,0,.621-.441,1.6,1.6,0,0,0,.351-.543,2.6,2.6,0,0,0,.159-.705c.026-.266.041-.577.045-.933v-2.047a1.133,1.133,0,0,1,.016-.209.248.248,0,0,1,.063-.135.255.255,0,0,1,.132-.072,1,1,0,0,1,.229-.021h1.68a.957.957,0,0,1,.222.021.257.257,0,0,1,.133.074.29.29,0,0,1,.063.142,1.305,1.305,0,0,1,.015.213v4.183a.846.846,0,0,1-.119.477.473.473,0,0,1-.42.177,2.218,2.218,0,0,1-.612-.09,1.041,1.041,0,0,1-.36-.126.117.117,0,0,1-.048-.087.12.12,0,0,1,.03-.081.131.131,0,0,1,.081-.045.136.136,0,0,1,.1.021,3.039,3.039,0,0,0,.732.174.369.369,0,0,0,.291-.1.57.57,0,0,0,.081-.354v-1.205Zm.03-1.614v.905q0,.1,0,.214c0,.077,0,.167-.009.267h2.07v-1.386Zm2.059-.233v-1.117a.173.173,0,0,0-.192-.2H260.4a.163.163,0,0,0-.123.061.192.192,0,0,0-.058.137v1.117Z" fill="#fff"/><path d="M265.148,332.789c-.009.017-.019.039-.03.066a.151.151,0,0,1-.054.066.115.115,0,0,1-.1.006.4.4,0,0,1-.149-.114c-.168-.151-.328-.291-.48-.417a3.894,3.894,0,0,0-.456-.327.346.346,0,0,1-.129-.11.117.117,0,0,1-.012-.094.127.127,0,0,1,.054-.066.245.245,0,0,1,.063-.029,2.443,2.443,0,0,1,.7.45Q265.148,332.669,265.148,332.789Z" fill="#fff"/><path d="M271.784,331.565a1.691,1.691,0,0,1-.636.828,3.1,3.1,0,0,1-1.009.485,3.4,3.4,0,0,1-.72.15c-.1,0-.156-.044-.156-.132a.093.093,0,0,1,.048-.09.556.556,0,0,1,.181-.036,3.067,3.067,0,0,0,1.3-.414,1.6,1.6,0,0,0,.744-.792H269.6a.184.184,0,0,1-.1-.021c-.019-.014-.027-.043-.027-.088,0-.084.044-.125.132-.125h1.986a1.091,1.091,0,0,1,.081-.279.132.132,0,0,1,.123-.069c.056,0,.084.032.084.1a1.161,1.161,0,0,1-.036.252h1.92a1.269,1.269,0,0,1,.576.084.311.311,0,0,1,.144.293,2.249,2.249,0,0,1-.09.547.693.693,0,0,1-.765.617,5.156,5.156,0,0,1-.729-.06,2.925,2.925,0,0,1-.474-.09.085.085,0,0,1-.054-.084q0-.126.138-.126l.054,0c.021,0,.04,0,.061.009.3.057.543.092.729.108a1.5,1.5,0,0,0,.444-.015.393.393,0,0,0,.243-.154,1.05,1.05,0,0,0,.132-.3,1.729,1.729,0,0,0,.06-.379.2.2,0,0,0-.06-.168.6.6,0,0,0-.306-.048Zm.372-2.993c.18-.045.369-.094.566-.148s.407-.114.627-.182q.661-.211.66-.265c0-.024-.086-.036-.258-.036h-3.894c-.064,0-.1-.035-.1-.107s.032-.108.1-.108H274a.394.394,0,0,1,.243.069.2.2,0,0,1,.093.158.2.2,0,0,1-.066.145,2.677,2.677,0,0,1-.569.229q-.5.173-1.134.342c.188.039.324.072.41.1a.749.749,0,0,1,.175.069c.029.02.041.037.032.051a.081.081,0,0,0-.012.039h.822a.4.4,0,0,1,.291.087.434.434,0,0,1,.087.31v1.686c0,.076-.03.113-.09.113a.171.171,0,0,1-.117-.026.119.119,0,0,1-.027-.087v-.469h-2v.24c0,.08-.036.12-.107.12s-.126-.04-.126-.12v-.24H269.93v.5q0,.114-.12.114a.1.1,0,0,1-.113-.114v-1.715a.439.439,0,0,1,.084-.312.384.384,0,0,1,.281-.084h2.755l-1.65-.379-.357-.08a1.2,1.2,0,0,1-.135-.033.12.12,0,0,1-.048-.027.073.073,0,0,1-.024-.057q0-.114.108-.114Q270.764,328.235,272.156,328.572Zm-2.227,1.055H271.9v-.485h-1.771a.186.186,0,0,0-.144.06.243.243,0,0,0-.055.168Zm1.969.205H269.93v.5H271.9Zm.233-.205h2v-.258a.233.233,0,0,0-.057-.164.193.193,0,0,0-.153-.063h-1.794Zm2,.205h-2v.5h2Z" fill="#fff"/><path d="M277.652,331.871c.128-.027.237-.054.33-.078a1.185,1.185,0,0,1,.161-.035q.12,0,.12.132a.11.11,0,0,1-.084.108,5.23,5.23,0,0,1-.527.107v.773a.126.126,0,1,1-.252,0v-.726c-.3.056-.572.1-.816.142l-.654.1c-.191.028-.341.048-.446.06s-.169.019-.189.019a.132.132,0,0,1-.1-.03.134.134,0,0,1-.024-.1.1.1,0,0,1,.066-.1.446.446,0,0,1,.162-.037c.063,0,.159-.014.288-.029v-3.162h-.372q-.126,0-.126-.12a.111.111,0,0,1,.126-.126h1.926l.186-.576a.465.465,0,0,0,.03-.145q0-.161-.234-.161h-1.668c-.067,0-.1-.04-.1-.12s.042-.12.126-.12h1.776c.256,0,.384.093.384.276a.679.679,0,0,1-.03.18l-.2.666h.624a.111.111,0,0,1,.126.126q0,.12-.126.12h-.485Zm-.252-2.855h-1.458v.816H277.4Zm-1.458,1.891H277.4v-.822h-1.458Zm0,1.241c.208-.028.433-.06.675-.1s.5-.08.783-.132v-.762h-1.458Zm2.85-4h1.9q.126,0,.126.132a.111.111,0,0,1-.126.126h-.433c0,.384-.02.729-.048,1.035a6.748,6.748,0,0,1-.12.813,3.983,3.983,0,0,1-.2.66,3.124,3.124,0,0,1-.312.576,5.23,5.23,0,0,0,1.109,1.092c.108.084.162.146.162.186a.179.179,0,0,1-.036.113.1.1,0,0,1-.084.049.312.312,0,0,1-.132-.066c-.027-.02-.073-.056-.135-.107l-.243-.205a6.148,6.148,0,0,1-.477-.446,3.6,3.6,0,0,1-.327-.4,4.482,4.482,0,0,1-.882.877,1.862,1.862,0,0,1-.588.359.082.082,0,0,1-.075-.048.172.172,0,0,1-.027-.084c0-.056.064-.124.192-.2a4.246,4.246,0,0,0,1.235-1.115,5.3,5.3,0,0,1-.756-2.221q-.089.252-.246.636a3.254,3.254,0,0,1-.2.444c-.035.052-.069.078-.1.078a.53.53,0,0,0-.066-.021.079.079,0,0,1-.054-.045.175.175,0,0,1,0-.111.992.992,0,0,1,.1-.225,5.187,5.187,0,0,0,.426-1.1,6.164,6.164,0,0,0,.228-1.291.627.627,0,0,1,.039-.2c.019-.036.062-.055.129-.055s.108.059.108.174A3.924,3.924,0,0,1,278.792,328.146Zm1.218.258h-1.266a1.947,1.947,0,0,1-.061.276,5.748,5.748,0,0,0,.738,2.586,3.208,3.208,0,0,0,.441-1.141A9.069,9.069,0,0,0,280.01,328.4Z" fill="#fff"/></svg>