<svg id="template" xmlns="http://www.w3.org/2000/svg" width="655" height="493" viewBox="0 0 655 493"><title>06 FLOWER</title><path d="M480.307,225.744c-.266-1.753-.362-3.671-1.445-5.075,1.781-.214,3.347.328,5.083.489a7.486,7.486,0,0,0,2.112-.144c.381-.073,1.635-.717,1.927-.627a8.391,8.391,0,0,1-3.721-2.379,17.138,17.138,0,0,0,4.525-.206,6.978,6.978,0,0,0,3.9-2.165,1.2,1.2,0,0,0,.29-.507,1.348,1.348,0,0,0-.122-.725c-.869-2.364-1.686-4.872-3.853-6.156a10.146,10.146,0,0,0,5.892-3.287,7.423,7.423,0,0,0,1.144-1.5c1.148-2.091.652-4.717.12-7.042a36.517,36.517,0,0,0-11.257-.264,21,21,0,0,0-4.748.84c-1.264.424-1.769,1.2-2.794-.175-1.149-1.544-1.708-3.214-.27-4.509a12.026,12.026,0,0,1,4.877-2.892c-.549-2.733-2.575-4.9-4.55-6.863a52.965,52.965,0,0,0-4.648-4.664q-4.655-3.687-9.268-7.425a18.6,18.6,0,0,1-2.5-2.274c-1.819-2.113-2.534-5.083-4.647-6.9a12.061,12.061,0,0,0,4.759-1.144c.288-.136.561-.337.835-.5a26.789,26.789,0,0,0-3.415-4.313,5.658,5.658,0,0,0-2.218-1.572,6.61,6.61,0,0,0,2.767-.321,8.6,8.6,0,0,1,1.9-.637,9.389,9.389,0,0,0-2.018-3.623,6.365,6.365,0,0,0,3.312.193,2.157,2.157,0,0,0,.858-.377l.583-.36a31.045,31.045,0,0,0-4.6-6.135c1.631-.647,2.483-2.566,3.063-4.122a.341.341,0,0,0,.026-.238.352.352,0,0,0-.2-.164,22.216,22.216,0,0,1-5.266-3.754,1.109,1.109,0,0,1-.428-.589c-.171-.966,2.175-.621,2.682-.723a9.78,9.78,0,0,0,7.594-7.18c.184-.707.141-6.338.219-6.356-.179.041-.158-.113-.321-.03-3.647,1.86-7.736.379-11.579,1.059-3.323.588-6.873,3.338-6.769,7a12.854,12.854,0,0,0,.948,3.949.241.241,0,0,1,.017.176.235.235,0,0,1-.166.106,4.243,4.243,0,0,1-2.594-.12,2.581,2.581,0,0,1-1.267-.923,3.588,3.588,0,0,1-.4-2.112c.022-.855-.129-1.771.51-2.339a12.446,12.446,0,0,0,3.236-13.451.731.731,0,0,0-.237-.363.744.744,0,0,0-.472-.073,25.387,25.387,0,0,0-8.631,2.179,13.3,13.3,0,0,0-4.165,3.064,3.8,3.8,0,0,0-.977,3.512,10.736,10.736,0,0,0-7.191-2.269,1.235,1.235,0,0,1-.522-.041,1.034,1.034,0,0,1-.373-.294,7.992,7.992,0,0,1-1.581-5.061,13,13,0,0,1,.326-4.066c.363-1.316.624-2.981,1.944-3.331a12.355,12.355,0,0,0,7.218-5.318.566.566,0,0,0,.12-.345c-.019-.18-.194-.3-.351-.385a33.828,33.828,0,0,1-6.435-4.34c-3.582-3.359-12.459-4.32-13.648,2.016A5.546,5.546,0,0,0,414.79,102a.914.914,0,0,1,.321,1.329,2.055,2.055,0,0,1-1.326.766c-1.3.295-2.691.154-3.947.6a8.839,8.839,0,0,0-3.146,2.371c-.351.359-.4.137-.588.6a21.934,21.934,0,0,0-1.545,11.9,20.023,20.023,0,0,0-5.922.818,26.364,26.364,0,0,0-5.032,1.374,6.021,6.021,0,0,0,3.1-3.921c-2.669-.817-5.33-1.746-8.042-2.412-.724-.178-8.153-1.655-8.287-1.068.141-.618,1.061-.917,1.006-1.548-.032-.369-.393-.606-.716-.787l-2.329-1.3c-1.873-1.048-2.1-3.376.136-4.172a8.117,8.117,0,0,1,8.693,2.532,8.748,8.748,0,0,0,4.7,2.734,15.8,15.8,0,0,0,5.5.176,8.522,8.522,0,0,0,5.167-2.056,8.375,8.375,0,0,0,1.338-1.929,27.038,27.038,0,0,0,2.61-7.358,10.293,10.293,0,0,0-2.626-2.349,17.775,17.775,0,0,0-3.5-1.452c1.92-.577,3.91-.891,5.835-1.449a16.312,16.312,0,0,0,4.782-2.441,4.954,4.954,0,0,0,2.121-4.848,7.409,7.409,0,0,0-.863-2.282c-1.8-3.316-4.756-5.809-6.6-9.1a33.446,33.446,0,0,0-2.928,2.277,43.255,43.255,0,0,0-8.137,11.1,24.17,24.17,0,0,0-4.687.054.4.4,0,0,0-.265.1.425.425,0,0,0-.079.229c-.263,1.764-1.508,2.489-2.943,3.3-4.149,2.341-6.576,5.876-9.471,9.659a31.452,31.452,0,0,1-5.057,5.225,1.865,1.865,0,0,1-.616.379,4.183,4.183,0,0,1-.869.062c-1.062.089-1.766,1.015-2.755,1.285-.808.22-1.631-.184-2.268.5-.459.49-.608.408-.739,1.068a6.4,6.4,0,0,0-.176,2.267,2.172,2.172,0,0,0,1.3,1.748c.8.274,1.752-.092,2.474.341.888.532.8,1.826.592,2.841a8.607,8.607,0,0,0-1.841-.574,22.148,22.148,0,0,1,.79,6.824,35.928,35.928,0,0,1-5.882-6.035c-1.654-2.151-2.8-4.625-4.452-6.742a15.458,15.458,0,0,0-5.565-4.4c-1.732-.868-3.282-.858-5.181-1.051,0-1.265.137-2.575.136-3.84a7.649,7.649,0,0,0,4.406.542q2.191-.186,4.37-.489a8.557,8.557,0,0,0,2.189-.514,4.544,4.544,0,0,0,2.173-1.955,1.411,1.411,0,0,0,1.842.353,6.333,6.333,0,0,1,4.128-1.094c1.452.049,2.882.366,4.331.478a15.665,15.665,0,0,0,9.724-2.541,4.369,4.369,0,0,0,2.364-2.976,11.791,11.791,0,0,0,.366-5.428c-.615-2.684-3.327-4.884-5.928-5.544-.786-.2-3.478-.678-4.106.067a5.13,5.13,0,0,0,.829-5.107c-2.491-.185-4.959-.624-7.45-.815-3.946-.3-7.984-.027-10.961,2.8a14.74,14.74,0,0,0-2.1,2.52,5.13,5.13,0,0,1-1.878,2.036.428.428,0,0,1-.253.052c-.173-.034-.247-.235-.294-.4a13.155,13.155,0,0,0-1.889-4.069,19.175,19.175,0,0,0-11.336-7.806c-.273,2.622.044,5.2-.665,7.8a6.122,6.122,0,0,1-1.74,2.737,18.271,18.271,0,0,1-2.62,1.971c-.375.248-.329.42-.775.365a8.145,8.145,0,0,0-6.461,2.094,2.884,2.884,0,0,0-.918,1.365,3.026,3.026,0,0,0-.025,1.025,11.328,11.328,0,0,0,.586,2.595c.221.624.7,1.233.289,1.754a4.515,4.515,0,0,0-2.586,2.5,8.976,8.976,0,0,0-.965,7,16.973,16.973,0,0,0-4.155.094c0-.252-.044-.44-.026-.691a7.41,7.41,0,0,0-1.648-5.167c-.733-.892-1.667-1.6-2.411-2.483a28.025,28.025,0,0,1-3.484-5.473c-.912-1.776-2.351-4.755-4.689-4.791A13.43,13.43,0,0,1,306,84.344a10.164,10.164,0,0,0,.7-2.519c-.007.047,3.127-.175,3.341-.211a3.241,3.241,0,0,0,2.4-1.448c.752.984,1.554,1.331,2.31,2.312.92,1.192,2.586,1.472,4.091,1.543a12.737,12.737,0,0,0,3.867-.3A6.077,6.077,0,0,0,325.96,81.7c1.721-2.195,2.02-6.215,1.219-8.785a9.6,9.6,0,0,0-11.453,3.563,5.656,5.656,0,0,0-.67,1.267,1.516,1.516,0,0,1-.38.714c-.212.172-.546-.063-.6-.331a7.142,7.142,0,0,0,.936-5.711c-.513-1.921-1.715-2.277-2.971-3.818a7.381,7.381,0,0,0-3.9-2.168,22.029,22.029,0,0,0-7.7-.689,2.782,2.782,0,0,0-1.8.634c.448.534.369.671.829,1.194a3.734,3.734,0,0,1,.469,3.629,16.228,16.228,0,0,1-1.877,3.331,22.867,22.867,0,0,0-3.407,10.077c-.152,1.643.042,3.318-.117,4.923-.157,1.582-.185,3.054,1,4.292a7.71,7.71,0,0,0,2.32,1.564c.267.126.691.122.7.417a4.4,4.4,0,0,0-.266,4.028.38.38,0,0,1-.1.352,17.1,17.1,0,0,0-2.685-.121,5.722,5.722,0,0,0-2.569.711.112.112,0,0,1-.093.022c-.034-.013-.045-.055-.05-.091-.021-.143,0,.027.016-.117a4.353,4.353,0,0,0-2.322-4.167,8.839,8.839,0,0,0-4.918-.88,9.274,9.274,0,0,0-3.447.769,12.292,12.292,0,0,0-3.367,2.734c-2.455,2.531-5.03,5.291-5.6,8.771a17.431,17.431,0,0,0-.129,3.185,4.157,4.157,0,0,1-.872-3.454,8.226,8.226,0,0,1,1.519-2.951c2.464-3.516,5.441-6.429,7.125-10.379a7.379,7.379,0,0,0-.242-6.7c-3.783-6.061-12.7-4.888-18.12-1.933-.588.321-1.218.806-1.209,1.476.006.517.393,1.089.081,1.5-.074-.137-.079.306-.126.157a10.015,10.015,0,0,0-2.037-3.471,15.226,15.226,0,0,0-4.671-3.646c-.568-.287-3.95-2.147-4.386-1.313a.206.206,0,0,0-.005.132,8.576,8.576,0,0,1-.364,4.231c-.522,1.541-1.3,2.924-1.682,4.515a9.107,9.107,0,0,0,.157,4.82c.852,2.782,3.612,4.307,6.4,4.533a2.045,2.045,0,0,1,1.041.274.694.694,0,0,1,.22.947.927.927,0,0,1-.672.256c-1.808.131-3.7-.641-5.39.026a3.5,3.5,0,0,1-1.534.476,2.59,2.59,0,0,1-1.063-.472,10.419,10.419,0,0,0-12.924,2.03,2.971,2.971,0,0,0-.712,1.234,3.1,3.1,0,0,0,.036,1.219c.226,1.273.061,2.115.694,3.242l4.69,8.354c1.388,2.473,3.116,4.482,4.21,7.12a7.813,7.813,0,0,1,.49,6.081c-.968,4.58-.455,9.111-3.972,12.2a16.814,16.814,0,0,1-5.44,2.8,3.933,3.933,0,0,1-1.079.285.566.566,0,0,1-.448-.118.611.611,0,0,1-.13-.255c-.409-1.314-.647-1.89.058-3.072l2.265-3.794a14.2,14.2,0,0,0,1.705-3.579,14.209,14.209,0,0,0,.157-4.733c-.261-3.307-.359-7.143-1.788-10.2a19.52,19.52,0,0,0-6.05-6.788.969.969,0,0,0-.547-.244c-.485,0-.67.625-.712,1.108a10.655,10.655,0,0,1-1.047,4.716,32.492,32.492,0,0,1-2.189,3.386,5.906,5.906,0,0,1-3.823,2.256c-3.8.956-6.378,2.728-9.494,5.11a1.722,1.722,0,0,0-.223,2.2,5.846,5.846,0,0,0,1.769,1.617,5.169,5.169,0,0,1,1.866,1.918,25.386,25.386,0,0,0-7.944-.91,8.028,8.028,0,0,0-2.562.44,33.252,33.252,0,0,0,.4,9.072c.19,1.325.676,2.61.219,3.886a17.517,17.517,0,0,0-1.022,3.646c-.359,2.793.637,5.562,1.617,8.2l3.411,9.192c.537,1.448,1.208,2.9,1.691,4.354.435,1.311.463,2.77.837,4.124.158.572.838.8,1.425.887.919.137,1.85.155,2.774.234.439.038,2.336.093,2.479.6.126.45-1.761,1.436-2.11,1.675a16.616,16.616,0,0,0-2.371,1.624.4.4,0,0,1-.235.095c-.14-.007-.228-.152-.282-.282a3.257,3.257,0,0,1-.213-1.693,13.392,13.392,0,0,0-2.982,2.163,15.406,15.406,0,0,0-2.627,3.245c-1.121,1.708-1.687,3.612-2.678,5.378a6.361,6.361,0,0,1-3.038,3,13,13,0,0,0-3.757,2.463,25.255,25.255,0,0,0-4.251,5.447,1.932,1.932,0,0,0-.331.781c-.03.284-.086.559.18.662a10.267,10.267,0,0,0,6.855,4.172c.54.076,1.192-.049,1.436.439a9.589,9.589,0,0,0,3.857,3.528,15.387,15.387,0,0,0,2.452.926,8.632,8.632,0,0,0-1.155,3.532,13.819,13.819,0,0,0,.463,3.91c.228.962,1.179,2.317,2.3,1.329a5.952,5.952,0,0,1,2.277-1.079,3.4,3.4,0,0,1,1.8-.189c.926.239.938,1.013,1.1,1.783a3.755,3.755,0,0,0,1.242,2.2c.576.477,1.325.8,1.672,1.464a.371.371,0,0,1,.056.224.389.389,0,0,1-.124.2c-1.238,1.256-3.009.518-4.505.2a40.433,40.433,0,0,1-4.82-1.607,13.965,13.965,0,0,1-1.871-.758c-3.452-1.8-3.157-5.647-5.611-8.192a8.174,8.174,0,0,0-5.158-2.43,21.386,21.386,0,0,0-3.03.3,10.286,10.286,0,0,1-3.155-.289c-1.3-.334-2.232-1.318-3.482-1.815-3.07-1.22-6.535-.6-9.806-1.057a6.944,6.944,0,0,0-3.33-.139.527.527,0,0,0-.609.271,1.537,1.537,0,0,0-.145.7c-.1,2.151-.163,4.435.911,6.3a17.056,17.056,0,0,0,6.077,5.482,4.445,4.445,0,0,1-.908,1.529,16.2,16.2,0,0,0-1.607,2.8,5.143,5.143,0,0,0-.672,2.1c-.015.777.386,1.025,1.011,1.487a6.68,6.68,0,0,0,2.132.909l3.884,1.144-2.348,1.71a.328.328,0,0,0-.148.175c-.032.148.138.254.281.305a14.158,14.158,0,0,0,4.051.642c1.253.068,2.446-.021,3.7.014a.6.6,0,0,1,.4.109.563.563,0,0,1,.1.53,7.223,7.223,0,0,1-.431,1.254,15.68,15.68,0,0,0-.4,10.5.515.515,0,0,0,.253.331.5.5,0,0,0,.336-.033c.62-.223,1.182-.581,1.787-.843,2.352-1.016,5.065-.654,7.5-1.422.24-.076.48-.151.714-.244a5.135,5.135,0,0,0,2.119-1.582,2.055,2.055,0,0,1,1.2-.7,1.678,1.678,0,0,1,.788-.092,1.707,1.707,0,0,1,.964.608,6.137,6.137,0,0,1,1.182,3.541,45.607,45.607,0,0,0,.732,6.615,3.107,3.107,0,0,0,.555,1.3,2.861,2.861,0,0,0,2.323.516,5.284,5.284,0,0,0,1.527-.651,38.76,38.76,0,0,0,4.565-3.033,22.491,22.491,0,0,0,4.661-4.241,4.957,4.957,0,0,1,2-1.876,3.843,3.843,0,0,1,2.864.381c1.492.684,1.5,2.487.788,3.827a9.048,9.048,0,0,1-2.461,2.645,11.146,11.146,0,0,0-2.566,2.555,3.51,3.51,0,0,0-.33,3.454c1.1,2.023.855,4.791,2.582,6.485a9.394,9.394,0,0,0-2.76,2.43,19.278,19.278,0,0,0-1.326,2.126,15.991,15.991,0,0,0-1.784,5.114,19.8,19.8,0,0,0-.071,7.968.139.139,0,0,0,.138.128,13.948,13.948,0,0,0,3,.09q1.673-.016,3.339-.2a33.84,33.84,0,0,0,6.455-1.347c.756-.237,1.534-.377,2.306-.547a19.8,19.8,0,0,0,2.272-.738,1.515,1.515,0,0,1,.284-.077c.7-.1,1.009.534,1.388,1,.415.511.818,1.031,1.236,1.54a12.1,12.1,0,0,0,2.816,2.66q.116.073.234.141a10.956,10.956,0,0,0,4.581-2.978c.388-.435.741-.9,1.086-1.369a18.368,18.368,0,0,0,5.8,3.335,27.629,27.629,0,0,0,4.738,1.623,1.714,1.714,0,0,0,.826.072c-.029-.178-.067-.353-.108-.528a6.481,6.481,0,0,1-.279-1.752c.095-2.263.448-4.187.6-6.446a16.932,16.932,0,0,0,0-3.385,6.17,6.17,0,0,0-1.437-3.372,8.05,8.05,0,0,0-3.637-1.63,10.322,10.322,0,0,0-2.7-.261c-.7.026-1.834.472-2.447,0a1.323,1.323,0,0,1-.262-.3c-1.524-2.169-2.539-4.5-4.854-6a5.974,5.974,0,0,0-3.248-1.084,1.155,1.155,0,0,1-.844-.183c-.856-.835,1.19-2.657,1.717-3.175a6.966,6.966,0,0,1,3.344-1.961,8.567,8.567,0,0,1,3.622.171,10.9,10.9,0,0,1,4.148,1.686,10.716,10.716,0,0,1,3.116,4.049c.757,1.545,1.329,3.176,2.1,4.712a7.824,7.824,0,0,0,1.467,2.333,11.1,11.1,0,0,0,6.01,2.939c.375.055,1.153.235,1.427-.027a3.438,3.438,0,0,0,1.217-1.769,13.794,13.794,0,0,0,.341-6.127,8.479,8.479,0,0,0-3.372-5.184c-.951-.707-2.03-1.23-2.965-1.958a1.864,1.864,0,0,1-.663-.784c-.118-.326-.285-.807.049-.9a25.984,25.984,0,0,0,6.775-2.994,2.8,2.8,0,0,0,.893-.765c.219-.329.462-.6.241-.926a13.107,13.107,0,0,0-1.636-2.081c-1.232-1.209-2.841-1.941-4.082-3.138a26.573,26.573,0,0,1-3.391-4.94,6.851,6.851,0,0,0-2.848-2.995,7.152,7.152,0,0,0-4.159-.435,4.227,4.227,0,0,0-2.306,1.023,3.641,3.641,0,0,0-.959,2.443,11.273,11.273,0,0,0,.316,2.662c.13.66.3,1.944-.6,2.192s-1.21-.767-1.3-1.428c-.34-2.484-1.923-3.744-4.216-4.223-2.016-.422-4.259-.552-5.779-2.123a9.145,9.145,0,0,1-.9-1.167c-.881-1.267-1.995-1.979-2.748-3.325a2.777,2.777,0,0,0-3.043-1.019c-.9.2-1.9.626-2.665.113a2.868,2.868,0,0,1-.6-.632,12.179,12.179,0,0,0-3.006-2.64c-.8-.512-2.96-1.027-2.877-2.19.036-.5.5-.842.93-1.093A15.376,15.376,0,0,1,224,223.569c2.115-.677,3.616-2.316,5.022-3.949,1.5-1.743,2.851-3.462,5.161-4.072,2.531-.669,5.6.059,7.959,1.076a6.832,6.832,0,0,0,2,.675,1.811,1.811,0,0,0,1.812-.827,2.478,2.478,0,0,0,.084-1.514,6.109,6.109,0,0,0-1.619-3.676c-1.012-.9-1.4-2.281-2.663-2.772a3.05,3.05,0,0,0-3.62,1,4.909,4.909,0,0,0-.563,1.784l-.226,1.257c.147.241-.018.267-.266.4a1.271,1.271,0,0,1-.827.066,2.6,2.6,0,0,1-2.175-1.77,5.57,5.57,0,0,1,.007-1.457c.074-1.644-.325-3.25-.017-4.892.208-1.109.849-2,1.138-3.025a5.644,5.644,0,0,0-.6-3.637,7.736,7.736,0,0,0-2.127-2.671c-1.689-1.352-2.121-3.883-2.1-5.92a8.1,8.1,0,0,1,.565-3.19,21.97,21.97,0,0,0,1.669-3.487,9.118,9.118,0,0,0,.119-2.709c-.024-.423-.056-.187.18-.539a2.4,2.4,0,0,1,.982-.784,1.971,1.971,0,0,1,.74-.216c1.684-.086,2.823,2.968,3.884,4a10.528,10.528,0,0,0,4.2,2.474,8.408,8.408,0,0,0,5.069-.53,5.335,5.335,0,0,0,3.5-3.135c4.543,1.461,9.561-1.7,9.257-6.654-.092-1.5-.282-3.011-.407-4.506a8.765,8.765,0,0,1,.959-5.083q-2.434.191-4.853.53a16.859,16.859,0,0,0-3.125.6c-.182-.092.418-.31.223-.249a.663.663,0,0,1-.267.06c-.251-.03-.276-.385-.221-.633.217-.969.572-1.907.739-2.886a4.152,4.152,0,0,0-.4-2.887,4.84,4.84,0,0,0-2.579-2.4c-.548-.208-1.136-.295-1.687-.495-1.086-.395-1.982-1.212-3.076-1.583a4.565,4.565,0,0,0-5.049,1.782,5.424,5.424,0,0,0-.231,5.466c1.346,2.579,4.38,3.838,6.051,6.219a2.634,2.634,0,0,1,.584,1.595,1.191,1.191,0,0,1-1.05,1.168,2,2,0,0,1-1.092-.489,9.987,9.987,0,0,0-5.541-1.765c-2.1-.022-3.685.149-4.347-2.3a17.92,17.92,0,0,1-.331-3.332,13.822,13.822,0,0,0-1.124-4.486c-.732-1.666-1.981-3.309-3.77-3.64-.861-.159-.04-1.387.585-2a3.456,3.456,0,0,1,2.468-.672,29.747,29.747,0,0,1,3.625.172c1.868.224,3.7.719,5.563.954a10.049,10.049,0,0,0,5.536-.611c2.259-1.065,3.377-3.442,4.632-5.444,2.121-3.385,2.267-7.072,1.959-10.992-.056-.718-.271-1.523-.276-2.225a.673.673,0,0,1,.555-.6,2.135,2.135,0,0,1,.873.052,19.787,19.787,0,0,0,6.646-.09,5.025,5.025,0,0,1,4.77,1.476,2.3,2.3,0,0,1,.764,1.541c-.025.969-1.039,1.565-1.92,1.971l-1.842.847c-.449.207-.971.527-.945,1.02a1.2,1.2,0,0,0,.2.529,22.427,22.427,0,0,0,8.884,8.817c0,.1-.16.187-.161.291q-1.432.279-2.871.515a4.58,4.58,0,0,0,.525,2.378,39.3,39.3,0,0,0,3.388,7.167c1.664,2.44,3.965,4.485,7.009,4.79,3.73.374,7.14-2.782,9.076-5.639a22.286,22.286,0,0,0,6.505.678,16.422,16.422,0,0,0,8.313-2.831,8.819,8.819,0,0,0,2.407-3.4c.684-1.317,1.795-1.657,3.3-1.66a13.156,13.156,0,0,1,3.717.531c1.145.335,2.16,1.14,3.254,1.46a20.006,20.006,0,0,0,4.108.276,24.444,24.444,0,0,0,4.251-.064c2.91-.344,5.938-1.119,8.018-3.183a8.079,8.079,0,0,0,2.359-6c-.086-2.018-.954-5.157-3.093-5.875a.6.6,0,0,0-.26-.042.66.66,0,0,0-.316.17c-1.035.835-2.034,1.691-3.031,2.57a3.7,3.7,0,0,1-2.213,1.18,3.394,3.394,0,0,1-1.169-.246,16.23,16.23,0,0,1-7.355-5.345c-1.173-1.457-2.231-2.792-4.17-3.05a6.322,6.322,0,0,0-4.593,1.171,5.255,5.255,0,0,1-2.1,1.3c-1.376.23-5.056-3.252-3.259-4.054a1.324,1.324,0,0,1,.563-.073l5.612.085a9.621,9.621,0,0,0,3.774-.447,3.277,3.277,0,0,0,2.193-2.856,3.873,3.873,0,0,0-1.047-2.333,9.745,9.745,0,0,0-7.554-3.46c-1.671.03-3.3.488-4.977.4a8.389,8.389,0,0,1-4.391-1.857c-1.808-1.211-4.255-1.8-6.309-2.577a17.293,17.293,0,0,0-5.636-1.433,5.861,5.861,0,0,0-5.089,2.324c-1.011,1.556-.918,3.567-.659,5.4a7.931,7.931,0,0,0,1.42,3.853,2.185,2.185,0,0,1,.4.878,1.792,1.792,0,0,1-.268.995,8.955,8.955,0,0,1-2.01,2.577,4.166,4.166,0,0,0-.785.8,2.5,2.5,0,0,0-.343,1.038,4.847,4.847,0,0,0,1.355,4.007c.465.465,1.085,1.012.89,1.639a1.563,1.563,0,0,1-1.74-.11,4.586,4.586,0,0,1-1.181-1.416l-2.417-3.857c-.964-1.539.27-2.788.561-4.58.584-3.6,1.2-7.286,3-10.457a28.012,28.012,0,0,0,2.272-4.462c.159-.457,1.444-3.919,1.066-4.093.472.217.613.647.919,1.021a5.929,5.929,0,0,0,1.093.983,9.47,9.47,0,0,0,2.645,1.324,24.342,24.342,0,0,0,5.029.9,23.773,23.773,0,0,0,3.951.032c1.148,2.148,2.193,4.538,4.494,5.334a10.534,10.534,0,0,0,2.1.419,11.563,11.563,0,0,0,5.271-.133c1.676-.582,3.125-2.231,2.855-3.985.214,1.386,2.107,1.93,3.14,2.373a19.349,19.349,0,0,0,4.866,1.79,11.793,11.793,0,0,0,3.921-.425,14.183,14.183,0,0,1,4.46.282,49.116,49.116,0,0,1,8.889,2.7c2.04.765,3.616,3.6,4.481,5.487a12.047,12.047,0,0,0,.719,1.462,8.409,8.409,0,0,0,1.936,1.956c1.517,1.217,3.37,2.463,5.255,1.986,2.716-.688,5.2,1.336,7.993,1.14a9.257,9.257,0,0,0,7.182-3.764,9.746,9.746,0,0,0,1.191-2.842c.141-.532.078-2.387.451-2.734.933-.868,1.937.929,2.363,1.465.367.461.842.828,1.205,1.292a3.567,3.567,0,0,1,.63,3.063,14.679,14.679,0,0,0-4.683,2.174.66.66,0,0,0-.271.292.652.652,0,0,0,.027.393,9.594,9.594,0,0,0,4.37,5.574c.411.237.112,1.124-.2,1.479a1.117,1.117,0,0,1-1.3.248,2.7,2.7,0,0,1-.838-.878,4.313,4.313,0,0,0-1.712-1.4,6.871,6.871,0,0,0-2.068-.413c-2.777-.263-5.559-.526-8.348-.516-.251-.245-.623-.053-.826.233a1.841,1.841,0,0,0-.237,1.009,15.971,15.971,0,0,0,.129,3.579,8.032,8.032,0,0,0,2.22,4.186,10.033,10.033,0,0,0,6.05,2.661c1.34.139,2.914-.283,4.167-.094,1.306.2,1.785,1.467,2.427,2.6a14.558,14.558,0,0,0,21.67,4.261,2.979,2.979,0,0,0,.961-1.092,2.781,2.781,0,0,0,.1-1.522,8.588,8.588,0,0,0-3.038-5.3,3.937,3.937,0,0,0,.923-1.151c.806-1.236.895-2.786,1.251-4.218a11.092,11.092,0,0,1,.958-2.5,8.2,8.2,0,0,1,2.346-3.192c.256-.217.553-.52.431-.833a.7.7,0,0,0-.192-.248c-1.1-1.015-2.641-1.108-4.032-1.389a16.953,16.953,0,0,0-5.022-.252c-.584.058-2.044.625-2.444,0-.259-.4.067-1.2.289-1.556a2.9,2.9,0,0,1,.941-.848c1.741-1.123,3.946-2.326,6.06-1.87.814.176,1.6.467,2.423.6a9.786,9.786,0,0,0,2.726-.016,20.949,20.949,0,0,0,5.475-1.436,8.16,8.16,0,0,1,9.81,3.408,1.967,1.967,0,0,1,.352,1.173c-.115,1.034-1.427,1.337-2.414,1.664a5.914,5.914,0,0,0-3.945,5.244c-.106,2.692,2.589,5.183,4.28,7.031l7.036,7.688a19.188,19.188,0,0,1,2.6,3.781c1.756,3.145.683,6.6,3.163,9.549a15.355,15.355,0,0,0,5.591,3.931c.968.433,1.007.668,2.063.759.343.029.6.333.913.194a.764.764,0,0,0,.3-.3,12.633,12.633,0,0,0,1.7-3.988,23.061,23.061,0,0,0,1.078-4.5,20.762,20.762,0,0,0,.034-4.578,7.082,7.082,0,0,0,4.266,1.609c-.013-.093-.085.072-.145.145a9.007,9.007,0,0,0-1.784,3.581,5.292,5.292,0,0,0,.478,3.982c.821,1.308,2.255,2.4,3.227,3.622.99,1.244,1.947,2.744,1.67,4.31a8.855,8.855,0,0,0-1.969,2.375,14.035,14.035,0,0,0-2.569,6.308,6.492,6.492,0,0,0,2.555,6.03,5.351,5.351,0,0,0-2.031,3.358,2.385,2.385,0,0,0,.3,2.279,21.029,21.029,0,0,1-6.041,1.22,9.776,9.776,0,0,0,2.3-4.361,27.587,27.587,0,0,0,1.1-8.162,9.666,9.666,0,0,0-6.356-.311,9.3,9.3,0,0,0-5.079,3.814c-.471-2.842-2.555-4.923-5.082-6.305a20.827,20.827,0,0,0-8.31-2.131c.53,2.911-.24,6.131-.521,9.077a13.021,13.021,0,0,0,.52,5.789,5.72,5.72,0,0,0,1.021,1.923,2.8,2.8,0,0,0,1.88,1.012c1.207.075,3.7-.308,3.876,1.523.295,3.064-6.935,3.051-8.583,2.991-2.762-.1-5.49-.887-8.248-.72-1.531-.126-2.662.936-3.571,2.175a11.794,11.794,0,0,0-1.715,4.244,19.551,19.551,0,0,1-1.385,4.382c-.159.308-.337.606-.515.9a4.679,4.679,0,0,0,2.965,1.108c1.6.127,3.323.225,4.677-.633,2.157-1.367,2.368-4.432,3.9-6.473a5,5,0,0,1,3.575-2.035,5.133,5.133,0,0,1,3.687,1.372c1.9,1.706,3.975,3.247,5.382,5.461a14.6,14.6,0,0,1,2.3,7.731,6.164,6.164,0,0,1-1.217,4.116,7.8,7.8,0,0,1-4.237,2,27.014,27.014,0,0,1-10.967.512,10.182,10.182,0,0,0,6.08,8.177A20.147,20.147,0,0,0,401.689,246c-1.573,2.377-2.146,5.6-.776,8.1a7.971,7.971,0,0,0,1.759,2.355,10.47,10.47,0,0,1,7.293-2.323c.3.017.5.036.792.075a17.688,17.688,0,0,0-2.608,9.083,37.907,37.907,0,0,1-.021,5.661,1.808,1.808,0,0,1-.764,1.17,1.806,1.806,0,0,0,1.161.434,14.063,14.063,0,0,0,5.753-.419,8.457,8.457,0,0,0,4.612-3.339,11.645,11.645,0,0,0,3.089,8.857,12,12,0,0,0,8.685,3.917,11.222,11.222,0,0,0-.117-3.721,7.537,7.537,0,0,0,3.11,3.157,30.7,30.7,0,0,0,4.088,1.879,11.067,11.067,0,0,1,1.739.861,8.744,8.744,0,0,1,2.775,3.153c1.96-2.449,3.776-5.371,4.019-8.5a15.609,15.609,0,0,0-.2-3.25,14.794,14.794,0,0,0-2.874-6.614,7.03,7.03,0,0,0,2.6-1.242,7.479,7.479,0,0,0,4.3,3.067,13.707,13.707,0,0,0,9.377-.4c.357-.149.53-.152.767-.457-.257.33-1.154-2.476-1.17-2.557-.179-.907-.353-1.824-.591-2.717a10.412,10.412,0,0,0-.636-2.5,10.745,10.745,0,0,0,8.418-.363c.818-.4,1.585-.9,2.43-1.233a6.756,6.756,0,0,1,2.731-.463c.786.029,1.614.5,2.4.386.472-.066.427-.172.359-.639a6.109,6.109,0,0,0-.3-1.118,14.889,14.889,0,0,0-5.348-7.544,9.945,9.945,0,0,0-10.514-.439,7.516,7.516,0,0,0-2,1.773c-.07-.7-.556-1.017-.95-1.594l-1.221-1.788a4.575,4.575,0,0,0-1.393-1.353,3.175,3.175,0,0,0,1.111-3.37,7.466,7.466,0,0,1,7.149,1.474,27.654,27.654,0,0,1,.7-6.33c.459-1.687,1.391-3.416,1.466-5.173a7.9,7.9,0,0,0-.38-2.7c-.166-.526-.949-1.57.078-1.74a1.188,1.188,0,0,1,.974.372,7.739,7.739,0,0,1,.674.843,6.757,6.757,0,0,0,2.918,1.939,15.642,15.642,0,0,0,3.8.959c1.087.132,2.188.15,3.265.35a8.493,8.493,0,0,1,2.694.769l2.074,1.2c.293.169.817.922,1.2.82.62-.165.5-1.885.5-2.356A39.67,39.67,0,0,0,480.307,225.744Z" fill="#e6e6e6"/><path d="M319.14,413.591l-.028,0C319.125,413.646,319.133,413.625,319.14,413.591Z" fill="none" stroke="#000" stroke-linecap="round" stroke-linejoin="round"/><path d="M58.244,124.116c1.071-1.5,5.781-2.357,5.781-2.357s.738,4.73-.333,6.235a3.344,3.344,0,1,1-5.449-3.878Z" fill="none" stroke="#000" stroke-linecap="round" stroke-linejoin="round" stroke-dasharray="2 4"/><path d="M72.321,124.116c1.071-1.5,5.781-2.357,5.781-2.357s.738,4.73-.333,6.235a3.344,3.344,0,1,1-5.449-3.878Z" fill="none" stroke="#000" stroke-linecap="round" stroke-linejoin="round" stroke-dasharray="2 4"/><path d="M65.581,136.62c1.071-1.5,5.781-2.357,5.781-2.357s.738,4.73-.333,6.235a3.344,3.344,0,1,1-5.449-3.878Z" fill="none" stroke="#000" stroke-linecap="round" stroke-linejoin="round" stroke-dasharray="2 4"/><path d="M86.4,124.115c1.071-1.5,5.781-2.357,5.781-2.357s.738,4.73-.333,6.235a3.344,3.344,0,1,1-5.449-3.878Z" fill="none" stroke="#000" stroke-linecap="round" stroke-linejoin="round" stroke-dasharray="2 4"/><path d="M78.42,136.62c1.071-1.5,5.781-2.357,5.781-2.357s.738,4.73-.333,6.235a3.344,3.344,0,1,1-5.449-3.878Z" fill="none" stroke="#000" stroke-linecap="round" stroke-linejoin="round" stroke-dasharray="2 4"/><path d="M91.259,136.62c1.071-1.5,5.781-2.357,5.781-2.357s.738,4.73-.333,6.235a3.344,3.344,0,1,1-5.449-3.878Z" fill="none" stroke="#000" stroke-linecap="round" stroke-linejoin="round" stroke-dasharray="2 4"/><polyline points="118.254 119.481 115.37 124.855 125.637 127.451 96.453 156.482 110.218 130.835 99.952 128.24 108.869 119.368" fill="none" stroke="#000" stroke-linecap="round" stroke-linejoin="round" stroke-dasharray="2 4"/><path d="M123.256,119.339a13.4,13.4,0,1,0,0-26.8c-.081,0-.162,0-.243.006A23.449,23.449,0,0,0,80.5,75.881a13.4,13.4,0,0,0-17.442,18.4,13.4,13.4,0,0,0,6.6,25.064h53.6Z" fill="none" stroke="#000" stroke-linecap="round" stroke-linejoin="round" stroke-dasharray="2 4"/><path d="M319.14,413.591l-.028,0C319.125,413.646,319.133,413.625,319.14,413.591Z" fill="none" stroke="#000" stroke-linecap="round" stroke-linejoin="round" stroke-dasharray="2 4"/><path d="M319.14,413.591c-.007.034-.015.054-.028,0Z" fill="none" stroke="#000" stroke-linecap="round" stroke-linejoin="round" stroke-dasharray="2 4"/><path d="M208.828,266.887a5.986,5.986,0,0,0-5.986-10.367,5.986,5.986,0,0,0-11.971,0,5.986,5.986,0,0,0-5.986,10.367,5.986,5.986,0,0,0,5.986,10.367,5.986,5.986,0,0,0,11.971,0,5.986,5.986,0,0,0,5.986-10.368Z" fill="none" stroke="#87b26b" stroke-linecap="round" stroke-linejoin="round"/><path d="M226.493,187.535a5.986,5.986,0,0,0-5.986-10.367,5.986,5.986,0,0,0-11.971,0,5.986,5.986,0,0,0-5.986,10.367,5.986,5.986,0,0,0,5.986,10.367,5.986,5.986,0,0,0,11.971,0,5.986,5.986,0,0,0,5.986-10.368Z" fill="none" stroke="#87b26b" stroke-linecap="round" stroke-linejoin="round"/><path d="M201.29,153.157a4.564,4.564,0,0,0-4.563-7.9,4.564,4.564,0,0,0-9.127,0,4.564,4.564,0,0,0-4.563,7.9,4.564,4.564,0,0,0,4.563,7.9,4.564,4.564,0,0,0,9.126,0,4.564,4.564,0,0,0,4.563-7.9Z" fill="none" stroke="#87b26b" stroke-linecap="round" stroke-linejoin="round"/><path d="M250.049,112.237a4.564,4.564,0,0,0-2.642-8.736,4.564,4.564,0,0,0-8.886-2.08,4.564,4.564,0,0,0-6.244,6.656,4.564,4.564,0,0,0,2.642,8.736,4.564,4.564,0,0,0,8.886,2.08,4.564,4.564,0,0,0,6.244-6.656Z" fill="none" stroke="#87b26b" stroke-linecap="round" stroke-linejoin="round"/><path d="M293.327,73.165a5.466,5.466,0,0,0-5.843-9.237,5.466,5.466,0,0,0-10.921.442,5.466,5.466,0,0,0-5.078,9.679,5.466,5.466,0,0,0,5.844,9.237,5.466,5.466,0,0,0,10.921-.442,5.466,5.466,0,0,0,5.078-9.679Z" fill="none" stroke="#87b26b" stroke-linecap="round" stroke-linejoin="round"/><path d="M351.565,81.017a5,5,0,0,0-5-8.652,5,5,0,0,0-9.991,0,5,5,0,0,0-5,8.652,5,5,0,0,0,5,8.652,5,5,0,0,0,9.991,0,5,5,0,0,0,5-8.652Z" fill="none" stroke="#87b26b" stroke-linecap="round" stroke-linejoin="round"/><path d="M428.325,113.629a4.975,4.975,0,0,0-4.975-8.617,4.975,4.975,0,0,0-9.95,0,4.975,4.975,0,0,0-4.975,8.617,4.976,4.976,0,0,0,4.975,8.617,4.975,4.975,0,0,0,9.95,0,4.976,4.976,0,0,0,4.975-8.617Z" fill="none" stroke="#87b26b" stroke-linecap="round" stroke-linejoin="round"/><path d="M460.99,167.387a3.6,3.6,0,0,0,.012-7.2,3.6,3.6,0,0,0-6.227-3.609,3.6,3.6,0,0,0-6.239,3.588,3.6,3.6,0,0,0-.012,7.2,3.6,3.6,0,0,0,6.227,3.609,3.6,3.6,0,0,0,6.239-3.588Z" fill="none" stroke="#87b26b" stroke-linecap="round" stroke-linejoin="round"/><path d="M449.781,265.355a5.807,5.807,0,0,0-7-9.27,5.807,5.807,0,0,0-11.526,1.424,5.807,5.807,0,0,0-4.53,10.693,5.807,5.807,0,0,0,7,9.27,5.807,5.807,0,0,0,11.526-1.423,5.807,5.807,0,0,0,4.53-10.693Z" fill="none" stroke="#87b26b" stroke-linecap="round" stroke-linejoin="round"/><path id="primary" d="M477.565,212.31a4.023,4.023,0,0,0-1.241-1.689A.977.977,0,0,1,477.4,209a5.928,5.928,0,0,1,2.252,3.476l.009.074a3.984,3.984,0,0,0,.443-.182,5.293,5.293,0,0,1,4.463-.215c2.353.977,3.349,3.32,2.93,6.923-.469,4.5-2.6,9.287-5.566,9.287a3.711,3.711,0,0,1-1.953-.6,2.07,2.07,0,0,0-1.162-.381,2.041,2.041,0,0,0-1.133.371,3.75,3.75,0,0,1-1.953.6c-2.93,0-5.1-4.785-5.586-9.287s1.309-6.23,2.93-6.914a5.3,5.3,0,0,1,4.463.215Z" fill="none" stroke="#87b26b" stroke-linecap="round" stroke-linejoin="round"/><path id="primary-2" data-name="primary" d="M394.79,215.381a6.228,6.228,0,0,1,5.225.489c1.772,1.063,3.575,3.371,2.262,8.525s-4.626,10.36-8.033,9.874a4.4,4.4,0,0,1-2.173-1.016,2.4,2.4,0,0,0-1.256-.619,2.432,2.432,0,0,0-1.414.25,4.359,4.359,0,0,1-2.37.369c-3.452-.492-5.135-6.408-4.935-11.721.108-4.26,1.655-6.82,4.553-7.566a6.217,6.217,0,0,1,5.154.989,4.68,4.68,0,0,0,.485.285l.023-.085a6.963,6.963,0,0,1,3.195-3.67,1.147,1.147,0,0,1,.981,2.063,4.725,4.725,0,0,0-1.723,1.758Z" fill="none" stroke="#87b26b" stroke-linecap="round" stroke-linejoin="round"/><path id="primary-3" data-name="primary" d="M422.622,150.863a4.536,4.536,0,0,0-1.4-1.9,1.1,1.1,0,0,1,1.211-1.828,6.685,6.685,0,0,1,2.54,3.92l.011.084a4.493,4.493,0,0,0,.5-.205,5.969,5.969,0,0,1,5.033-.242c2.654,1.1,3.777,3.744,3.3,7.808-.529,5.077-2.929,10.473-6.277,10.473a4.185,4.185,0,0,1-2.2-.672,2.335,2.335,0,0,0-1.31-.429,2.3,2.3,0,0,0-1.277.418,4.229,4.229,0,0,1-2.2.672c-3.3,0-5.748-5.4-6.3-10.473s1.476-7.026,3.3-7.8a5.98,5.98,0,0,1,5.033.242Z" fill="none" stroke="#87b26b" stroke-linecap="round" stroke-linejoin="round"/><path id="primary-4" data-name="primary" d="M393.1,110.749a3.717,3.717,0,0,0-1.147-1.56.9.9,0,0,1,.993-1.5,5.477,5.477,0,0,1,2.081,3.212l.009.069a3.681,3.681,0,0,0,.409-.168,4.89,4.89,0,0,1,4.124-.2c2.175.9,3.095,3.068,2.707,6.4-.433,4.16-2.4,8.581-5.143,8.581a3.429,3.429,0,0,1-1.8-.55,1.913,1.913,0,0,0-1.074-.352,1.886,1.886,0,0,0-1.047.343,3.465,3.465,0,0,1-1.8.55c-2.707,0-4.71-4.421-5.161-8.581s1.209-5.757,2.707-6.388a4.9,4.9,0,0,1,4.124.2Z" fill="none" stroke="#87b26b" stroke-linecap="round" stroke-linejoin="round"/><path id="primary-5" data-name="primary" d="M267.763,120.53a4.465,4.465,0,0,1,3.758-.181c1.365.576,2.878,2.031,2.467,5.822s-2.237,7.821-4.7,7.821a3.158,3.158,0,0,1-1.645-.5,1.719,1.719,0,0,0-.954-.312,1.743,1.743,0,0,0-.979.321,3.125,3.125,0,0,1-1.645.5c-2.5,0-4.293-4.03-4.688-7.821-.354-3.035.485-5.008,2.467-5.831a4.457,4.457,0,0,1,3.758.181,3.355,3.355,0,0,0,.373.153l.008-.063a4.992,4.992,0,0,1,1.9-2.928.822.822,0,0,1,.9,1.365,3.388,3.388,0,0,0-1.045,1.422Z" fill="none" stroke="#87b26b" stroke-linecap="round" stroke-linejoin="round"/><path id="primary-6" data-name="primary" d="M246.588,266.837a4.981,4.981,0,0,0-1.537-2.091,1.209,1.209,0,0,1,1.33-2.007,7.34,7.34,0,0,1,2.789,4.3l.012.092a4.933,4.933,0,0,0,.549-.225,6.554,6.554,0,0,1,5.526-.266c2.914,1.209,4.148,4.111,3.628,8.573-.58,5.574-3.216,11.5-6.892,11.5a4.6,4.6,0,0,1-2.418-.738,2.563,2.563,0,0,0-1.439-.472,2.527,2.527,0,0,0-1.4.459,4.643,4.643,0,0,1-2.418.738c-3.628,0-6.312-5.925-6.917-11.5s1.62-7.715,3.628-8.561a6.566,6.566,0,0,1,5.526.266Z" fill="none" stroke="#87b26b" stroke-linecap="round" stroke-linejoin="round"/><path d="M340.368,252.922h-5.1a10.8,10.8,0,0,0-1-3.5,7.82,7.82,0,0,0,3.1-6.1v-.4a1,1,0,1,0-2,0v.4a5.637,5.637,0,0,1-2.2,4.5,7.725,7.725,0,0,0-1.9-1.7v-.2a4,4,0,1,0-8,0v.2a10.081,10.081,0,0,0-1.9,1.7,6.11,6.11,0,0,1-2-4.5v-.4a1,1,0,1,0-2,0v.4a7.4,7.4,0,0,0,3.1,6.1,9.532,9.532,0,0,0-1,3.5h-5.1a1,1,0,0,0,0,2h5.1a10.8,10.8,0,0,0,1,3.5,7.4,7.4,0,0,0-3.1,6.1v.4a1,1,0,0,0,2,0v-.4a5.637,5.637,0,0,1,2.2-4.5,7.491,7.491,0,0,0,5.8,2.9,7.342,7.342,0,0,0,5.8-2.9,5.637,5.637,0,0,1,2.2,4.5v.4a1,1,0,0,0,2,0v-.4a7.4,7.4,0,0,0-3.1-6.1,9.532,9.532,0,0,0,1-3.5h5.1a1,1,0,0,0,0-2Z" fill="none" stroke="#000" stroke-linecap="round" stroke-linejoin="round" stroke-dasharray="1 2"/><path d="M343.25,283.25h-3.825a8.1,8.1,0,0,0-.75-2.625A5.865,5.865,0,0,0,341,276.05v-.3a.75.75,0,0,0-1.5,0v.3a4.228,4.228,0,0,1-1.65,3.375,5.794,5.794,0,0,0-1.425-1.275V278a3,3,0,0,0-6,0v.15A7.561,7.561,0,0,0,329,279.425a4.582,4.582,0,0,1-1.5-3.375v-.3a.75.75,0,0,0-1.5,0v.3a5.549,5.549,0,0,0,2.325,4.575,7.149,7.149,0,0,0-.75,2.625H323.75a.75.75,0,0,0,0,1.5h3.825a8.1,8.1,0,0,0,.75,2.625A5.549,5.549,0,0,0,326,291.95v.3a.75.75,0,0,0,1.5,0v-.3a4.228,4.228,0,0,1,1.65-3.375,5.619,5.619,0,0,0,4.35,2.175,5.507,5.507,0,0,0,4.35-2.175,4.228,4.228,0,0,1,1.65,3.375v.3a.75.75,0,0,0,1.5,0v-.3a5.549,5.549,0,0,0-2.325-4.575,7.149,7.149,0,0,0,.75-2.625h3.825a.75.75,0,0,0,0-1.5Z" fill="none" stroke="#000" stroke-linecap="round" stroke-linejoin="round" stroke-dasharray="1 2"/><rect x="476" y="128" width="129" height="31" rx="6" ry="6" fill="#87b26b"/><path d="M485.152,136.126a7.865,7.865,0,0,0,1.076.724,10.425,10.425,0,0,0,1.147.564.911.911,0,0,1,.468.324.449.449,0,0,1-.027.4.525.525,0,0,1-.289.292.774.774,0,0,1-.535-.116,9.226,9.226,0,0,1-1.355-.788,13.583,13.583,0,0,1-1.156-.916v1.592a.505.505,0,0,1-.1.368.593.593,0,0,1-.384.088.621.621,0,0,1-.376-.088.456.456,0,0,1-.112-.368v-1.6a13.836,13.836,0,0,1-1.168.924,12.421,12.421,0,0,1-1.392.844.727.727,0,0,1-.476.1.375.375,0,0,1-.3-.248.6.6,0,0,1-.031-.4.574.574,0,0,1,.352-.3,8.3,8.3,0,0,0,1.191-.62,10.994,10.994,0,0,0,1.064-.772h-2.111a.593.593,0,0,1-.381-.088.509.509,0,0,1-.1-.376,1.126,1.126,0,0,1,.02-.236.261.261,0,0,1,.072-.14.279.279,0,0,1,.145-.064,1.4,1.4,0,0,1,.235-.016h2.88v-.5h-1.656a.854.854,0,0,1-.64-.2.941.941,0,0,1-.184-.652v-1.776a.943.943,0,0,1,.184-.652.856.856,0,0,1,.64-.2h4.225a.843.843,0,0,1,.641.2.97.97,0,0,1,.176.652v1.776a.969.969,0,0,1-.176.652.841.841,0,0,1-.641.2h-1.6v.5h2.9a.578.578,0,0,1,.376.088.505.505,0,0,1,.1.368,1.063,1.063,0,0,1-.023.252.265.265,0,0,1-.08.14.27.27,0,0,1-.145.06,1.66,1.66,0,0,1-.215.012ZM482,132.582h1.512v-.544h-1.439c-.049,0-.072.038-.072.112Zm0,1.192c0,.08.023.12.072.12h1.439v-.536H482Zm3.928-1.624a.223.223,0,0,0-.012-.092c-.008-.013-.031-.02-.068-.02H484.48v.544h1.447Zm-.08,1.744c.054,0,.08-.04.08-.12v-.416H484.48v.536Z" fill="#fff"/><path d="M492.072,135.59c.031-.091.06-.18.084-.268a2.49,2.49,0,0,0,.06-.3c.017-.114.028-.249.036-.4s.012-.344.012-.568v-.292c0-.1,0-.2-.008-.316.006-.352.16-.542.465-.568a.461.461,0,0,1,.383.112.637.637,0,0,1,.121.44v.3q0,.376-.013.648t-.032.488a3.622,3.622,0,0,1-.056.392c-.024.118-.052.232-.084.344h2.208a.453.453,0,0,1,.352.1.518.518,0,0,1,.088.336.438.438,0,0,1-.107.324.475.475,0,0,1-.348.108H493.5q.527.312,1.027.66t.916.652a.659.659,0,0,1,.293.392.431.431,0,0,1-.108.352.574.574,0,0,1-.368.184.681.681,0,0,1-.393-.176q-.271-.216-.531-.412t-.527-.4l-.564-.436q-.3-.229-.641-.508a4.471,4.471,0,0,1-1.392,1.124,7.473,7.473,0,0,1-2.1.74.988.988,0,0,1-.424,0c-.106-.029-.182-.129-.224-.3a.424.424,0,0,1,.044-.364.626.626,0,0,1,.389-.2h-.009a8.069,8.069,0,0,0,1.744-.568,3.609,3.609,0,0,0,1.071-.736h-2.887a.478.478,0,0,1-.349-.108.442.442,0,0,1-.108-.324.453.453,0,0,1,.108-.336.491.491,0,0,1,.349-.1h2.159a.815.815,0,0,1-.288-.12c-.17-.117-.354-.23-.552-.34s-.382-.207-.552-.292a.388.388,0,0,1-.184-.64c.139-.2.354-.237.647-.1q.312.152.66.336a4.728,4.728,0,0,1,.6.368q.4.3.128.632a.482.482,0,0,1-.232.16Zm3.568-3.408a1.486,1.486,0,0,1,.075.272,1.216,1.216,0,0,1,.017.236,1.343,1.343,0,0,1-.028.232,2.4,2.4,0,0,1-.072.26.729.729,0,0,1-.272.416.424.424,0,0,1-.416.008.538.538,0,0,1-.191-.112.282.282,0,0,1-.08-.156.586.586,0,0,1,.008-.212c.016-.08.041-.176.072-.288a.2.2,0,0,0,0-.172.152.152,0,0,0-.148-.068h-5.039a.244.244,0,0,0-.2.064.369.369,0,0,0-.052.224v.216a.471.471,0,0,1-.129.356.46.46,0,0,1-.336.124.535.535,0,0,1-.355-.1.449.449,0,0,1-.124-.36v-.432a.982.982,0,0,1,.224-.7.966.966,0,0,1,.721-.232H491.5a.244.244,0,0,1-.016-.036c-.006-.013-.012-.025-.016-.036a.532.532,0,0,1-.08-.376.439.439,0,0,1,.248-.312.5.5,0,0,1,.168-.056.491.491,0,0,1,.2.008.5.5,0,0,1,.2.1.559.559,0,0,1,.159.22,2.091,2.091,0,0,1,.084.22c.029.088.059.177.084.268h2.08c.15,0,.275,0,.377.012a.909.909,0,0,1,.264.056.622.622,0,0,1,.2.128A1.585,1.585,0,0,1,495.641,132.182Zm-3.705,2.064a.726.726,0,0,1-.164.14.381.381,0,0,1-.147.052.31.31,0,0,1-.156-.028,1.16,1.16,0,0,1-.188-.108c-.2-.123-.391-.235-.584-.336s-.4-.205-.639-.312a.6.6,0,0,1-.289-.244.4.4,0,0,1,.057-.34.522.522,0,0,1,.283-.228.617.617,0,0,1,.389.076q.111.048.264.12c.1.048.209.1.324.164s.234.127.359.2l.373.208a.5.5,0,0,1,.184.26A.575.575,0,0,1,491.936,134.246Z" fill="#fff"/><path d="M499.072,130.934a.571.571,0,0,1,.283.2.383.383,0,0,1,.021.368l-2.16,6.608a.354.354,0,0,1-.26.252.658.658,0,0,1-.372-.02.625.625,0,0,1-.145-.072.451.451,0,0,1-.187-.264.308.308,0,0,1,.012-.176l2.16-6.624a.409.409,0,0,1,.244-.292A.612.612,0,0,1,499.072,130.934Z" fill="#fff"/><path d="M502.68,132.79a.415.415,0,0,1-.24.424.476.476,0,0,1,.272.24.552.552,0,0,1-.072.432l.009-.008a4.78,4.78,0,0,1-.261.532q-.148.26-.323.516v3.312a.446.446,0,0,1-.133.364.529.529,0,0,1-.348.108.542.542,0,0,1-.36-.108.454.454,0,0,1-.128-.364v-2.2c-.048.043-.1.085-.148.128s-.1.085-.147.128v-.008a.659.659,0,0,1-.476.208.492.492,0,0,1-.349-.232.473.473,0,0,1-.075-.384.853.853,0,0,1,.291-.368,4.978,4.978,0,0,0,.953-.956,5.712,5.712,0,0,0,.615-1.06.7.7,0,0,1,.092-.172.514.514,0,0,1,.108-.108.415.415,0,0,1-.24-.424v-.056h-1.36a.437.437,0,0,1-.348-.132.5.5,0,0,1-.115-.34.527.527,0,0,1,.1-.348.447.447,0,0,1,.359-.124h1.36v-.408a.425.425,0,0,1,.132-.348.616.616,0,0,1,.7,0,.425.425,0,0,1,.132.348v.408h2v-.408a.412.412,0,0,1,.141-.348.539.539,0,0,1,.34-.108.554.554,0,0,1,.348.108.412.412,0,0,1,.141.348v.408h1.375a.467.467,0,0,1,.356.124.492.492,0,0,1,.116.348.471.471,0,0,1-.125.34.451.451,0,0,1-.348.132h-1.375v.152a.44.44,0,0,1-.141.348.506.506,0,0,1-.348.124.493.493,0,0,1-.34-.124.44.44,0,0,1-.141-.348v-.152h-2Zm.225,4.16a.562.562,0,0,1-.461.036.454.454,0,0,1-.244-.292.492.492,0,0,1,.049-.416.544.544,0,0,1,.312-.216,4.578,4.578,0,0,0,.5-.22c.173-.088.356-.188.548-.3v-1.848a.453.453,0,0,1,.145-.368.554.554,0,0,1,.367-.12.484.484,0,0,1,.377.12.557.557,0,0,1,.1.368v1.2c.288-.2.553-.4.8-.6a7.3,7.3,0,0,0,.627-.584.488.488,0,0,1,.185-.128.517.517,0,0,1,.208-.036.562.562,0,0,1,.2.044.45.45,0,0,1,.276.46.559.559,0,0,1-.172.348,10.667,10.667,0,0,1-.884.748q-.564.436-1.236.876v1.1a1.552,1.552,0,0,0,.012.22.2.2,0,0,0,.053.116.24.24,0,0,0,.1.06l.176.052a1.2,1.2,0,0,0,.232.032c.1.005.2.007.3,0s.2-.006.3-.012.17-.011.229-.016a.9.9,0,0,0,.256-.06.372.372,0,0,0,.168-.14.659.659,0,0,0,.092-.256,2.284,2.284,0,0,0,.028-.4.664.664,0,0,1,.1-.436.509.509,0,0,1,.359-.132.4.4,0,0,1,.372.14.661.661,0,0,1,.116.4,4.393,4.393,0,0,1-.049.8,1.326,1.326,0,0,1-.2.532.9.9,0,0,1-.4.316,2.226,2.226,0,0,1-.636.148c-.122.011-.256.016-.4.016s-.29,0-.437-.008-.288-.012-.425-.02-.254-.017-.355-.028a1.721,1.721,0,0,1-.476-.112.776.776,0,0,1-.3-.22.812.812,0,0,1-.164-.352,2.356,2.356,0,0,1-.049-.516v-.616c-.123.064-.242.123-.359.176s-.238.1-.36.144Z" fill="#fff"/><path d="M512.16,134.974h2.92a.465.465,0,0,1,.359.116.515.515,0,0,1,.1.356.479.479,0,0,1-.1.36.527.527,0,0,1-.359.1h-2.336a6.79,6.79,0,0,0,1.127.856,7.836,7.836,0,0,0,1.2.584q.656.272.424.744-.136.264-.3.292a.846.846,0,0,1-.472-.124q-.353-.168-.668-.348t-.624-.4q-.308-.216-.62-.48t-.647-.592v1.776a.5.5,0,0,1-.1.36.681.681,0,0,1-.724,0,.447.447,0,0,1-.124-.36V136.67a8.99,8.99,0,0,1-1.132.888,11.08,11.08,0,0,1-1.3.736,1.116,1.116,0,0,1-.592.152.411.411,0,0,1-.312-.28.484.484,0,0,1-.016-.4.632.632,0,0,1,.377-.288c.207-.08.424-.174.647-.284s.446-.232.668-.368.437-.281.644-.436a7.175,7.175,0,0,0,.592-.488h-2.424a.527.527,0,0,1-.359-.1.484.484,0,0,1-.1-.36.52.52,0,0,1,.1-.356.465.465,0,0,1,.359-.116h2.849v-.768a.444.444,0,0,1,.124-.368.57.57,0,0,1,.355-.1.552.552,0,0,1,.356.1.463.463,0,0,1,.116.368Zm3.224-1.016a1.089,1.089,0,0,1-.017.2.308.308,0,0,1-.071.156.38.38,0,0,1-.164.1,1.086,1.086,0,0,1-.284.044,2.141,2.141,0,0,1-.279.016c-.107,0-.215,0-.324,0s-.215-.008-.316-.016l-.256-.02a1.6,1.6,0,0,1-.443-.092.622.622,0,0,1-.273-.2.779.779,0,0,1-.135-.348,3.337,3.337,0,0,1-.037-.544v-.968a.282.282,0,0,0-.023-.144.127.127,0,0,0-.1-.032h-2.24a.082.082,0,0,0-.084.048.588.588,0,0,0-.02.192,4.269,4.269,0,0,1-.064.788,2.2,2.2,0,0,1-.2.6,1.885,1.885,0,0,1-.345.472,2.816,2.816,0,0,1-.5.392.884.884,0,0,1-.508.184.416.416,0,0,1-.324-.272.461.461,0,0,1-.043-.388.8.8,0,0,1,.315-.316,2.388,2.388,0,0,0,.349-.272,1.029,1.029,0,0,0,.224-.328,1.662,1.662,0,0,0,.116-.468,6.356,6.356,0,0,0,.031-.708,1.31,1.31,0,0,1,.053-.392.6.6,0,0,1,.172-.276.754.754,0,0,1,.324-.16,2.089,2.089,0,0,1,.508-.052h2.248a2.382,2.382,0,0,1,.52.048.691.691,0,0,1,.332.168.667.667,0,0,1,.176.332,2.254,2.254,0,0,1,.053.532v1.008a.38.38,0,0,0,.031.2.282.282,0,0,0,.16.052,3.288,3.288,0,0,0,.4.008l.4-.016a.842.842,0,0,1,.5.084A.441.441,0,0,1,515.384,133.958Z" fill="#fff"/><path d="M481.057,141.646a.289.289,0,0,1-.225-.072.315.315,0,0,1-.064-.216.351.351,0,0,1,.061-.216.269.269,0,0,1,.229-.08h5.9a.278.278,0,0,1,.235.08.344.344,0,0,1,.061.216.253.253,0,0,1-.3.288h-2.624v1.224h3.216a.27.27,0,0,1,.228.088.352.352,0,0,1,.068.224.324.324,0,0,1-.068.212.277.277,0,0,1-.228.084h-7.112a.278.278,0,0,1-.228-.084.324.324,0,0,1-.067-.212.351.351,0,0,1,.067-.224.271.271,0,0,1,.228-.088h3.289v-1.224Zm3.176,3.4a4.764,4.764,0,0,1-.252,1.2,2.338,2.338,0,0,1-.576.88,3.154,3.154,0,0,1-1.012.624,9.144,9.144,0,0,1-1.561.444.924.924,0,0,1-.348.024c-.078-.016-.13-.083-.156-.2a.314.314,0,0,1,.031-.28.469.469,0,0,1,.313-.152,6.612,6.612,0,0,0,1.32-.312,2.845,2.845,0,0,0,.9-.508,1.913,1.913,0,0,0,.523-.744,3.271,3.271,0,0,0,.2-1.028.515.515,0,0,1,.088-.3.3.3,0,0,1,.231-.08.324.324,0,0,1,.229.084A.413.413,0,0,1,484.232,145.046Zm2.552,1.552a.286.286,0,0,1-.084.216.3.3,0,0,1-.212.08.32.32,0,0,1-.229-.08.286.286,0,0,1-.084-.216V144.71a.275.275,0,0,0-.027-.148.123.123,0,0,0-.1-.036h-4.1c-.091,0-.136.062-.136.184v1.912a.284.284,0,0,1-.088.228.354.354,0,0,1-.24.076.306.306,0,0,1-.213-.076.3.3,0,0,1-.084-.228v-1.984a.6.6,0,0,1,.713-.7h4.176a.752.752,0,0,1,.548.16.765.765,0,0,1,.156.544Zm.743,1.488a.265.265,0,0,1-.215.144.566.566,0,0,1-.28-.1q-.28-.176-.608-.364c-.219-.125-.439-.248-.664-.368s-.446-.233-.668-.34-.428-.2-.619-.28a.394.394,0,0,1-.229-.192.275.275,0,0,1,.027-.24.373.373,0,0,1,.188-.176.379.379,0,0,1,.261.04q.655.3,1.352.676t1.3.732C487.586,147.755,487.641,147.91,487.527,148.086Z" fill="#fff"/><path d="M491.8,142.6a.672.672,0,0,1,.513.16.77.77,0,0,1,.144.52v4.032a1.111,1.111,0,0,1-.16.676.705.705,0,0,1-.584.2,2.882,2.882,0,0,1-.512-.048.544.544,0,0,1-.32-.148.327.327,0,0,1-.04-.284c.049-.208.208-.267.48-.176a1.183,1.183,0,0,0,.367.072.132.132,0,0,0,.133-.088.784.784,0,0,0,.035-.272v-3.92a.143.143,0,0,0-.027-.1.088.088,0,0,0-.068-.032h-.16a.318.318,0,0,1,.021.136,1.4,1.4,0,0,1-.021.168q-.04.16-.123.392t-.188.488h.12c.2,0,.3.093.3.28a.359.359,0,0,1-.06.216.3.3,0,0,1-.244.08h-.687v.808h.76a.316.316,0,0,1,.228.068.312.312,0,0,1,.067.228.285.285,0,0,1-.067.216.328.328,0,0,1-.228.064h-.76v1.448a.412.412,0,0,1-.057.224c-.037.059-.117.088-.24.088s-.216-.025-.248-.076a.461.461,0,0,1-.048-.236v-1.448h-.72q-.3,0-.3-.28a.3.3,0,0,1,.072-.228.331.331,0,0,1,.232-.068h.72v-.808h-.672q-.312,0-.312-.288a.28.28,0,0,1,.076-.224.36.36,0,0,1,.235-.064h.272c-.043-.133-.088-.265-.137-.4l-.119-.324q-.152-.344.071-.464h-.472a.082.082,0,0,0-.068.04.151.151,0,0,0-.027.088v4.584a.3.3,0,1,1-.608,0v-4.632a.819.819,0,0,1,.132-.52.64.64,0,0,1,.508-.16h.984c.021-.123.041-.241.06-.356s.034-.23.044-.348h-1.527a.355.355,0,0,1-.248-.08.278.278,0,0,1-.088-.216c0-.2.111-.3.336-.3h1.592a1.859,1.859,0,0,0,.02-.2c0-.066.01-.137.021-.212a.412.412,0,0,1,.1-.3.324.324,0,0,1,.247-.056.272.272,0,0,1,.22.112.456.456,0,0,1,.045.28,1.422,1.422,0,0,0-.021.192,1.227,1.227,0,0,1-.021.184h1.537q.328,0,.328.3a.3.3,0,0,1-.084.22.335.335,0,0,1-.244.084H490.7c-.017.117-.034.234-.052.352s-.039.234-.061.352Zm-1.792.8a9.732,9.732,0,0,1,.313.984h.384a4.279,4.279,0,0,0,.185-.524c.047-.173.09-.334.127-.484a.788.788,0,0,1,.057-.176h-1.184a.249.249,0,0,1,.063.084C489.968,143.316,489.986,143.355,490.008,143.4Zm2.816-.2a.344.344,0,0,1-.24-.068.3.3,0,0,1-.072-.228.264.264,0,0,1,.313-.312h.888q0-.408,0-.832c0-.283-.009-.536-.021-.76a.588.588,0,0,1,.08-.276.247.247,0,0,1,.225-.116c.2,0,.3.125.313.376q.015.352.012.764t-.021.844h1.216a.264.264,0,0,1,.313.312.3.3,0,0,1-.072.228.344.344,0,0,1-.24.068h-1.24a1.168,1.168,0,0,0-.008.132v.132q.144.752.3,1.36t.332,1.1a8.48,8.48,0,0,0,.367.9,6.565,6.565,0,0,0,.428.76q.265.408-.031.592a.266.266,0,0,1-.275.032.659.659,0,0,1-.229-.256,10.171,10.171,0,0,1-.637-1.272,10.751,10.751,0,0,1-.451-1.368c-.043.256-.1.5-.156.724s-.133.449-.216.668-.177.436-.28.652-.22.438-.348.668a.412.412,0,0,1-.244.22.348.348,0,0,1-.268-.06.249.249,0,0,1-.129-.22.778.778,0,0,1,.112-.308,8.027,8.027,0,0,0,.456-.932,8.189,8.189,0,0,0,.344-1.028,10.129,10.129,0,0,0,.232-1.164q.088-.62.119-1.34Zm2.863-1.144q.145.32-.1.432a.358.358,0,0,1-.252.032.361.361,0,0,1-.2-.216c-.033-.069-.072-.148-.121-.236s-.1-.177-.156-.268-.111-.177-.168-.26-.107-.153-.155-.212a.505.505,0,0,1-.108-.24q-.021-.128.141-.24a.24.24,0,0,1,.248-.056.489.489,0,0,1,.2.168c.059.075.119.159.18.252s.123.188.185.284.117.192.168.288S495.645,141.969,495.688,142.054Z" fill="#fff"/><path d="M502.271,145.534a.362.362,0,0,1-.063.216.259.259,0,0,1-.224.088h-5.416a.3.3,0,0,1-.217-.076.28.28,0,0,1-.08-.212.355.355,0,0,1,.068-.228.276.276,0,0,1,.229-.084h5.416a.271.271,0,0,1,.228.08A.352.352,0,0,1,502.271,145.534Zm-4.52-2.2c-.006.075.04.112.137.112h4.752a.942.942,0,0,1,.291.04.429.429,0,0,1,.205.14.725.725,0,0,1,.123.276,1.848,1.848,0,0,1,.045.44,10.682,10.682,0,0,1-.156,2.12,3.069,3.069,0,0,1-.4,1.112,1.6,1.6,0,0,1-.588.416,1.983,1.983,0,0,1-.788.152,3.2,3.2,0,0,1-1.44-.352.544.544,0,0,1-.271-.2.281.281,0,0,1,0-.244.263.263,0,0,1,.18-.168.5.5,0,0,1,.332.072,4.3,4.3,0,0,0,.6.232,1.994,1.994,0,0,0,.568.088,1.276,1.276,0,0,0,.528-.108,1.142,1.142,0,0,0,.4-.292,2.217,2.217,0,0,0,.313-.944,9.883,9.883,0,0,0,.111-1.832.678.678,0,0,0-.051-.284.138.138,0,0,0-.125-.076h-4.56a1.446,1.446,0,0,1-.66-.112.4.4,0,0,1-.163-.44q.088-.68.188-1.3t.188-1.244a.41.41,0,0,1,.1-.244.294.294,0,0,1,.224-.044c.133.011.212.042.236.1a.527.527,0,0,1,.02.248l-.1.624h5.32a.286.286,0,0,1,.224.072.333.333,0,0,1,.063.224.358.358,0,0,1-.063.22.263.263,0,0,1-.224.084h-5.408l-.16,1.112Z" fill="#fff"/><path d="M508.52,140.966c.012.139.025.276.045.412s.038.271.06.4h1.552q-.111-.072-.252-.144l-.279-.14-.261-.124c-.079-.038-.144-.067-.192-.088a.446.446,0,0,1-.252-.192.35.35,0,0,1,.021-.264c.042-.107.1-.167.181-.18a.554.554,0,0,1,.283.044q.1.04.229.1c.088.043.178.088.271.136s.188.1.28.148.18.095.26.132q.208.112.24.2a.353.353,0,0,1-.032.244.455.455,0,0,1-.08.12h.672a.433.433,0,0,1,.252.064.284.284,0,0,1,.092.248q0,.312-.344.312h-2.543a13.718,13.718,0,0,0,.379,1.52,11.929,11.929,0,0,0,.549,1.424,6,6,0,0,0,.711-2.256.45.45,0,0,1,.113-.3.311.311,0,0,1,.239-.056.289.289,0,0,1,.236.124.644.644,0,0,1,.012.356,9.1,9.1,0,0,1-.388,1.528,5.666,5.666,0,0,1-.612,1.232,7.4,7.4,0,0,0,.4.7c.147.224.3.448.469.672.064.085.11.121.141.108s.057-.081.084-.2c.037-.171.064-.339.084-.5s.033-.352.043-.56a.414.414,0,0,1,.1-.248.278.278,0,0,1,.243-.072.287.287,0,0,1,.24.112.553.553,0,0,1,.041.3c-.012.149-.024.29-.041.42s-.034.259-.056.384-.047.25-.075.376-.063.254-.1.388a.622.622,0,0,1-.181.316.468.468,0,0,1-.279.12.575.575,0,0,1-.324-.08,1.008,1.008,0,0,1-.312-.284,15.558,15.558,0,0,1-.92-1.376,6.438,6.438,0,0,1-2.416,1.552.751.751,0,0,1-.379.072.254.254,0,0,1-.2-.192.325.325,0,0,1,.009-.276.537.537,0,0,1,.3-.188,5.092,5.092,0,0,0,2.384-1.536q-.192-.384-.353-.784c-.105-.267-.205-.545-.295-.836s-.176-.6-.252-.92-.148-.666-.213-1.028h-2.631q-.064,0-.064.088v.816h1.76a1.783,1.783,0,0,1,.3.02.349.349,0,0,1,.185.084.331.331,0,0,1,.092.18,1.567,1.567,0,0,1,.023.3c0,.219,0,.441-.008.668s-.014.438-.023.636a5.772,5.772,0,0,1-.164,1.1,1.91,1.91,0,0,1-.284.636.74.74,0,0,1-.38.28,1.113,1.113,0,0,1-.452.028,2.075,2.075,0,0,1-.324-.072,3.253,3.253,0,0,1-.468-.192.431.431,0,0,1-.248-.212.329.329,0,0,1,.032-.26.3.3,0,0,1,.192-.176.443.443,0,0,1,.264.04,2.652,2.652,0,0,0,.56.2.377.377,0,0,0,.349-.076.805.805,0,0,0,.2-.436,7,7,0,0,0,.1-.884c.012-.181.021-.358.029-.532s.012-.345.012-.516a.283.283,0,0,0-.032-.16.149.149,0,0,0-.12-.04h-1.592v.768a8.648,8.648,0,0,1-.156,1.644,8.9,8.9,0,0,1-.436,1.524.547.547,0,0,1-.209.3.306.306,0,0,1-.264-.008c-.182-.075-.213-.259-.1-.552a8.638,8.638,0,0,0,.4-1.38,8.132,8.132,0,0,0,.14-1.564V142.5a.819.819,0,0,1,.151-.54.673.673,0,0,1,.537-.18H508c-.021-.123-.041-.245-.061-.368s-.035-.248-.051-.376a.617.617,0,0,1,.023-.344.3.3,0,0,1,.256-.136.287.287,0,0,1,.248.076A.53.53,0,0,1,508.52,140.966Z" fill="#fff"/><path d="M513.279,145.206a.331.331,0,0,1,.221.156.494.494,0,0,1-.012.308,10.371,10.371,0,0,1-.332,1.032,8.042,8.042,0,0,1-.381.832.483.483,0,0,1-.243.244.3.3,0,0,1-.269-.044.249.249,0,0,1-.136-.2.6.6,0,0,1,.1-.284q.135-.24.235-.44c.067-.133.126-.268.181-.4a4.227,4.227,0,0,0,.139-.42c.041-.144.082-.31.125-.5a.422.422,0,0,1,.14-.24A.244.244,0,0,1,513.279,145.206Zm.713-3.848-.08-.172a1.666,1.666,0,0,0-.08-.148.49.49,0,0,1-.076-.256.334.334,0,0,1,.408-.252.489.489,0,0,1,.244.26c.031.064.068.145.107.244s.082.207.125.324h1.279a.369.369,0,0,1,.252.08.27.27,0,0,1,.092.216q0,.312-.344.312h-3.344a.343.343,0,0,1-.248-.084.3.3,0,0,1-.088-.228c0-.2.111-.3.336-.3Zm.624,3.512v2.584a.878.878,0,0,1-.112.448.653.653,0,0,1-.384.28.922.922,0,0,1-.2.032,1.427,1.427,0,0,1-.256-.008q-.136-.016-.284-.048a1.463,1.463,0,0,1-.276-.088.34.34,0,0,1-.2-.168.325.325,0,0,1,0-.24.294.294,0,0,1,.168-.2.38.38,0,0,1,.271.024,2.675,2.675,0,0,0,.348.12.481.481,0,0,0,.2.016.124.124,0,0,0,.092-.088.637.637,0,0,0,.023-.192V144.87h-.7a.728.728,0,0,1-.58-.18.921.921,0,0,1-.148-.588v-.928a1.96,1.96,0,0,1,.031-.392.4.4,0,0,1,.341-.34,1.875,1.875,0,0,1,.356-.028h1.9a1.812,1.812,0,0,1,.352.028.4.4,0,0,1,.216.112.473.473,0,0,1,.112.232,1.892,1.892,0,0,1,.032.388v.928a1.836,1.836,0,0,1-.032.38.473.473,0,0,1-.112.232.448.448,0,0,1-.22.12,1.509,1.509,0,0,1-.364.036Zm.72-1.728c0-.091-.035-.136-.1-.136h-1.977c-.069,0-.1.045-.1.136v.992c0,.1.034.144.1.144h1.977c.068,0,.1-.048.1-.144Zm.656,3.68a.531.531,0,0,1,0,.288.247.247,0,0,1-.176.16q-.3.088-.393-.288c-.031-.149-.062-.281-.092-.4s-.059-.221-.088-.32-.062-.2-.1-.3-.076-.22-.125-.348a.4.4,0,0,1-.016-.244.3.3,0,0,1,.192-.172q.271-.1.392.224c.086.24.157.464.217.672S515.928,146.544,515.992,146.822Zm.943-4.048v-1.9q0-.336.3-.336a.269.269,0,0,1,.224.08.408.408,0,0,1,.063.256v1.9H519.3a.34.34,0,0,1,.256.084.288.288,0,0,1,.08.2c0,.2-.113.3-.336.3h-1.049v3.784a.984.984,0,0,0,.012.164.175.175,0,0,0,.061.108.294.294,0,0,0,.14.056,1.612,1.612,0,0,0,.253.016,1.181,1.181,0,0,0,.215-.016.264.264,0,0,0,.129-.06.284.284,0,0,0,.072-.116,1.127,1.127,0,0,0,.039-.192,2.779,2.779,0,0,0,.028-.44c0-.139,0-.285,0-.44q0-.32.3-.32c.191,0,.291.1.3.3q0,.512-.024.92a2.29,2.29,0,0,1-.08.464.623.623,0,0,1-.176.292.682.682,0,0,1-.308.152,2.1,2.1,0,0,1-.468.044,2.415,2.415,0,0,1-.557-.052.765.765,0,0,1-.332-.16.534.534,0,0,1-.16-.284,1.918,1.918,0,0,1-.039-.416v-3.808h-.121q-.015.728-.088,1.364a7.938,7.938,0,0,1-.228,1.212,7.216,7.216,0,0,1-.392,1.092,6.672,6.672,0,0,1-.572,1,.523.523,0,0,1-.26.224.28.28,0,0,1-.244-.056.312.312,0,0,1-.148-.224.587.587,0,0,1,.156-.352,5.3,5.3,0,0,0,.876-1.836,10.135,10.135,0,0,0,.3-2.428h-.472q-.353,0-.353-.3a.269.269,0,0,1,.092-.2.375.375,0,0,1,.261-.084Zm2.256-.264a.255.255,0,0,1-.26.064.545.545,0,0,1-.228-.224,4.931,4.931,0,0,0-.332-.476c-.12-.152-.257-.316-.412-.492a.367.367,0,0,1-.088-.22.267.267,0,0,1,.128-.228c.133-.1.27-.08.408.064a6.305,6.305,0,0,1,.432.508q.185.244.368.532a.477.477,0,0,1,.1.284A.274.274,0,0,1,519.191,142.51Z" fill="#fff"/><path d="M483.275,151.651v2.532a1.29,1.29,0,0,1-.032.309.522.522,0,0,1-.12.231.562.562,0,0,1-.234.147,1.146,1.146,0,0,1-.369.051,1.2,1.2,0,0,1-.264-.018,2.482,2.482,0,0,1-.264-.06,2.343,2.343,0,0,1-.229-.078.569.569,0,0,1-.144-.078.117.117,0,0,1-.052-.09.149.149,0,0,1,.024-.093.127.127,0,0,1,.078-.051.154.154,0,0,1,.117.03,2.006,2.006,0,0,0,.714.174,1.179,1.179,0,0,0,.24-.021.307.307,0,0,0,.152-.075.3.3,0,0,0,.082-.15,1.1,1.1,0,0,0,.023-.252v-2.508h-2.58c-.076,0-.113-.042-.113-.126s.037-.132.113-.132H485.6q.114,0,.114.132t-.114.126Zm-1.535.522a2.985,2.985,0,0,1-.234.648c-.076.184-.156.361-.242.531s-.176.335-.268.5a3.881,3.881,0,0,1-.372.558c-.056.06-.1.09-.136.09a.137.137,0,0,1-.092-.036.078.078,0,0,1-.043-.072.765.765,0,0,1,.127-.216q.179-.258.324-.489a4.681,4.681,0,0,0,.245-.441q.1-.21.2-.447c.065-.158.129-.327.188-.507.053-.148.112-.222.181-.222S481.74,152.1,481.74,152.173Zm3.287-2.28c.076,0,.115.042.115.126s-.039.12-.115.12H481q-.114,0-.114-.12t.114-.126Zm.57,4.5a.1.1,0,0,1-.041.087.189.189,0,0,1-.1.027.124.124,0,0,1-.1-.057,1.5,1.5,0,0,1-.142-.285q-.27-.612-.478-1.041t-.362-.7a.408.408,0,0,1-.069-.189.114.114,0,0,1,.039-.09.118.118,0,0,1,.088-.021.12.12,0,0,1,.068.024.643.643,0,0,1,.072.1,1.115,1.115,0,0,1,.078.138c.035.072.086.17.149.294q.186.36.433.882c.084.172.15.311.2.417l.1.225A.5.5,0,0,1,485.6,154.394Z" fill="#fff"/><path d="M486.811,151.478l-.123.288c-.043.1-.088.192-.136.288a3.169,3.169,0,0,1-.174.33.1.1,0,0,1-.078.048.125.125,0,0,1-.11-.057c-.026-.038-.012-.115.045-.231a8.615,8.615,0,0,0,.93-2.592c.012-.1.054-.144.126-.144s.114.032.114.1a3.7,3.7,0,0,1-.12.534q-.06.222-.117.423t-.117.375v4.1a.073.073,0,0,1-.024.09.159.159,0,0,1-.1.03.161.161,0,0,1-.1-.03.074.074,0,0,1-.023-.09Zm1.428-1.512h-.547c-.071,0-.107-.038-.107-.114s.036-.12.107-.12H490q.132,0,.132.12c0,.076-.044.114-.132.114H488.46q-.012.216-.026.432c-.011.144-.023.286-.039.426h1.115a.57.57,0,0,1,.162.021.267.267,0,0,1,.123.075.351.351,0,0,1,.078.15.981.981,0,0,1,.027.252,4.211,4.211,0,0,1-.366,1.812,3.787,3.787,0,0,1-.978,1.3q-.606.51-.8.51c-.076,0-.113-.036-.113-.108,0-.052.063-.118.191-.2a3.727,3.727,0,0,0,1.3-1.248,7.855,7.855,0,0,0-1.044-1.278,2.814,2.814,0,0,1-.4.678q-.27.342-.377.342a.085.085,0,0,1-.061-.03.16.16,0,0,1-.018-.081c0-.034.041-.1.125-.195a4.3,4.3,0,0,0,.391-.525,2.461,2.461,0,0,0,.246-.546,4.237,4.237,0,0,0,.15-.723Q488.2,150.608,488.238,149.965Zm-.061,1.9a8.174,8.174,0,0,1,.576.612,7.359,7.359,0,0,1,.51.678,3.942,3.942,0,0,0,.4-1.806.368.368,0,0,0-.051-.234.311.311,0,0,0-.219-.054h-1.027A4.35,4.35,0,0,1,488.178,151.868Zm3.426,2.562a.636.636,0,0,1-.125.354.516.516,0,0,1-.475.186,2.4,2.4,0,0,1-.576-.078,1.847,1.847,0,0,1-.4-.114c-.052-.028-.078-.06-.078-.1a.125.125,0,0,1,.065-.126.292.292,0,0,1,.187,0,3.192,3.192,0,0,0,.744.156.476.476,0,0,0,.317-.081.368.368,0,0,0,.09-.285V149.5c0-.072.041-.108.121-.108s.125.036.125.108Zm-.947-.612a.074.074,0,0,1-.024.09.16.16,0,0,1-.1.03.163.163,0,0,1-.1-.03.075.075,0,0,1-.023-.09v-3.8a.125.125,0,0,1,.021-.084c.014-.016.047-.024.1-.024s.085.008.1.024a.131.131,0,0,1,.021.084Z" fill="#fff"/><path d="M493.4,151.058a.261.261,0,0,1,.188.078.25.25,0,0,1,.081.186.253.253,0,0,1-.081.183.256.256,0,0,1-.188.081.278.278,0,0,1-.265-.264.25.25,0,0,1,.081-.186A.258.258,0,0,1,493.4,151.058Zm0,2.25a.261.261,0,0,1,.188.078.25.25,0,0,1,.081.186.253.253,0,0,1-.081.183.256.256,0,0,1-.188.081.278.278,0,0,1-.265-.264.25.25,0,0,1,.081-.186A.258.258,0,0,1,493.4,153.308Z" fill="#fff"/><path d="M498.948,151.454a6.745,6.745,0,0,1-.306.648,2.888,2.888,0,0,1-.234.408.135.135,0,0,1-.1.054.179.179,0,0,1-.066-.012.084.084,0,0,1-.045-.045.134.134,0,0,1,0-.087.545.545,0,0,1,.06-.138c.116-.2.225-.4.327-.6a6.218,6.218,0,0,0,.272-.63c.084-.22.166-.459.244-.717s.15-.537.219-.837c.023-.112.072-.168.144-.168s.108.044.108.132a3.511,3.511,0,0,1-.108.462,9.1,9.1,0,0,1-.271.882v4.14c0,.068-.041.1-.125.1s-.12-.034-.12-.1Zm1.56-.882h-.857q-.1,0-.1-.114c0-.076.034-.114.1-.114h.857v-.84c0-.068.04-.1.12-.1s.12.034.12.1v.84h.816c.072,0,.107.038.107.114s-.035.114-.107.114h-.816v1.194h.275a.562.562,0,0,1,.36.084.544.544,0,0,1,.091.378V154.2a1.123,1.123,0,0,1-.021.237.285.285,0,0,1-.072.144.282.282,0,0,1-.138.072,1.011,1.011,0,0,1-.226.021h-.857c-.184,0-.3-.032-.354-.1a.633.633,0,0,1-.078-.378v-1.974a.675.675,0,0,1,.071-.366c.048-.063.17-.1.366-.1h.342Zm.727,3.642v-2q0-.222-.205-.222h-.869c-.129,0-.192.074-.192.222v2a.26.26,0,0,0,.054.168.173.173,0,0,0,.139.066h.869Q501.234,154.448,501.234,154.213Zm1.1-4.122h1.4c.072,0,.107.038.107.114s-.035.114-.107.114h-.223a8.392,8.392,0,0,1-.672,3.18,3.243,3.243,0,0,0,.918,1.206.261.261,0,0,1,.133.2.157.157,0,0,1-.031.087.094.094,0,0,1-.084.045q-.144,0-.485-.408a4.69,4.69,0,0,1-.582-.888,3.932,3.932,0,0,1-.653.846c-.285.3-.477.45-.576.45-.061,0-.09-.032-.09-.1s.045-.118.137-.2a4.3,4.3,0,0,0,1.063-1.26,7.443,7.443,0,0,1-.624-2.2,2.845,2.845,0,0,1-.2.417c-.052.082-.1.123-.131.123l-.078-.021a.081.081,0,0,1-.052-.033.09.09,0,0,1-.006-.066.316.316,0,0,1,.063-.114,3.572,3.572,0,0,0,.4-.918,6.285,6.285,0,0,0,.24-1.092.823.823,0,0,1,.038-.171.081.081,0,0,1,.082-.051c.076,0,.113.042.113.126A4.065,4.065,0,0,1,502.338,150.092Zm.948.228h-1c-.024.092-.052.186-.081.282s-.061.2-.094.3a8.665,8.665,0,0,0,.606,2.334A8.113,8.113,0,0,0,503.286,150.319Z" fill="#fff"/><path d="M506.189,150.062H507.8a3.81,3.81,0,0,0,.23-.471q.069-.182.123-.183a.229.229,0,0,1,.105.027.1.1,0,0,1,.051.093,1.425,1.425,0,0,1-.252.534h1.529a.118.118,0,0,1,.084.024.179.179,0,0,1,.024.114c0,.06-.036.09-.108.09H504.33c-.068,0-.1-.03-.1-.09s.008-.1.023-.117a.116.116,0,0,1,.078-.021h1.607a2.7,2.7,0,0,0-.168-.219c-.056-.066-.109-.127-.162-.183s-.063-.1-.035-.147a.124.124,0,0,1,.107-.063.145.145,0,0,1,.084.036,1.377,1.377,0,0,1,.18.222c.049.064.094.125.136.183A1.732,1.732,0,0,1,506.189,150.062Zm-.959,3.378a1.42,1.42,0,0,1-.139.36,3.667,3.667,0,0,1-.342.588,3.008,3.008,0,0,1-.252.354c-.064.06-.124.064-.18.012a.107.107,0,0,1-.036-.078.384.384,0,0,1,.1-.162,3.634,3.634,0,0,0,.6-1.026.209.209,0,0,1,.068-.105.174.174,0,0,1,.084-.036.093.093,0,0,1,.1.093Zm1.277-.72a3.98,3.98,0,0,0-.3-.456.2.2,0,0,1-.048-.1.1.1,0,0,1,.042-.072.121.121,0,0,1,.071-.036.1.1,0,0,1,.072.036,2.1,2.1,0,0,1,.187.252,4.579,4.579,0,0,1,.27.456,1.1,1.1,0,0,1,.12.294.088.088,0,0,1-.042.084.143.143,0,0,1-.084.03c-.017,0-.032-.011-.048-.033a.829.829,0,0,1-.048-.075.593.593,0,0,1-.042-.087.52.52,0,0,0-.036-.075l-1.771.138q-.24,0-.24-.15a.312.312,0,0,1,.133-.222q.173-.144.369-.324t.4-.4h-.611c-.225,0-.336-.058-.336-.174a.276.276,0,0,1,.084-.174q.287-.306.5-.585a5.64,5.64,0,0,0,.371-.537c.053-.084.1-.126.156-.126a.121.121,0,0,1,.076.027.092.092,0,0,1,.032.075.2.2,0,0,1-.036.1c-.012.02-.042.063-.09.129l-.191.267q-.12.168-.246.318t-.246.288a.211.211,0,0,0-.078.132q0,.048.258.048h.552a10.791,10.791,0,0,0,.774-.918.308.308,0,0,1,.1-.1.091.091,0,0,1,.075-.012.114.114,0,0,1,.051.045.226.226,0,0,1,.027.057.2.2,0,0,1-.042.114q-.031.053-.288.366t-.588.66q-.337.354-.768.75c-.033.032-.049.057-.049.075s.028.027.084.027c.032,0,.094,0,.186-.009l.379-.021.449-.036C506.246,152.75,506.38,152.735,506.508,152.72Zm-.432,1.422a.391.391,0,0,0,.145.36.874.874,0,0,0,.293.12c.049.008.12.015.217.021s.217.009.365.009q.438,0,.684-.018a1.664,1.664,0,0,0,.4-.057.523.523,0,0,0,.211-.111.281.281,0,0,0,.053-.072.3.3,0,0,0,.027-.1,1.35,1.35,0,0,0,.012-.147c0-.058,0-.129,0-.213,0-.1.033-.156.1-.156s.111.016.132.048a.88.88,0,0,1,.024.288c0,.324-.1.532-.3.624a1.168,1.168,0,0,1-.306.114,3.963,3.963,0,0,1-.852.036,5.06,5.06,0,0,1-.966-.06.6.6,0,0,1-.385-.213.733.733,0,0,1-.113-.435v-.792c0-.072.041-.108.125-.108s.133.036.133.108Zm1.063-.852a.109.109,0,0,1,.063.024.939.939,0,0,1,.129.168c.044.064.092.136.145.216s.1.158.144.234.081.144.11.2a.354.354,0,0,1,.045.12.115.115,0,0,1-.026.072.131.131,0,0,1-.063.048.108.108,0,0,1-.074,0,.145.145,0,0,1-.069-.075,6.009,6.009,0,0,0-.479-.8.12.12,0,0,1-.024-.141A.112.112,0,0,1,507.139,153.29Zm1-1.278h-.619c-.224,0-.336-.058-.336-.174a.281.281,0,0,1,.084-.174,5.8,5.8,0,0,0,.858-1.158c.052-.1.1-.15.156-.15a.1.1,0,0,1,.108.108.218.218,0,0,1-.024.1,2.989,2.989,0,0,1-.162.264q-.139.209-.282.4c-.1.126-.2.259-.324.4a.236.236,0,0,0-.078.138q0,.042.258.042h.559c.172-.192.318-.366.438-.522s.219-.294.295-.414a.242.242,0,0,1,.093-.1.122.122,0,0,1,.081-.012.1.1,0,0,1,.057.039.1.1,0,0,1,.021.054.314.314,0,0,1-.03.1.817.817,0,0,1-.078.123c-.044.062-.106.145-.187.249s-.17.215-.27.333-.212.243-.336.375-.247.258-.369.378-.244.236-.369.348c-.039.032-.06.057-.06.075s.04.027.12.027c.044,0,.115,0,.213-.006l.381-.018q.469-.024.906-.072a4.114,4.114,0,0,0-.348-.588.18.18,0,0,1-.049-.087.1.1,0,0,1,.012-.069.117.117,0,0,1,.049-.045.229.229,0,0,1,.054-.021c.021,0,.046.018.078.054a3.848,3.848,0,0,1,.228.36c.061.1.116.2.168.3s.1.195.145.291a1.173,1.173,0,0,1,.132.342c0,.068-.04.1-.12.1-.048,0-.085-.035-.111-.1s-.068-.177-.129-.321c-.184.021-.373.037-.569.051l-.606.045c-.208.016-.371.027-.488.033s-.191.009-.22.009a.281.281,0,0,1-.114-.027.175.175,0,0,1-.086-.078.155.155,0,0,1-.006-.123.348.348,0,0,1,.122-.156q.168-.132.357-.309T508.141,152.012Zm.731,1.266q.072,0,.149.114l.192.276.159.237c.054.082.109.169.165.261l.132.219c.032.054.053.089.061.1a.261.261,0,0,1,.018.09.1.1,0,0,1-.023.06.136.136,0,0,1-.061.042.109.109,0,0,1-.081-.009.211.211,0,0,1-.087-.1q-.132-.24-.294-.5c-.108-.17-.228-.345-.36-.525a.386.386,0,0,1-.066-.126.164.164,0,0,1,0-.087.094.094,0,0,1,.039-.048A.121.121,0,0,1,508.872,153.277Z" fill="#fff"/><path d="M512.874,151.886h-2.526a.114.114,0,0,1,0-.228h2.526v-.564h-2.153c-.076,0-.115-.034-.115-.1s.039-.12.115-.12h2.153v-.558h-2.388q-.108,0-.108-.12c0-.08.036-.12.108-.12h3.408a2.033,2.033,0,0,0,.18-.273c.056-.1.111-.213.168-.333a.166.166,0,0,1,.072-.081.111.111,0,0,1,.078-.012.123.123,0,0,1,.063.039.106.106,0,0,1,.027.072,1.719,1.719,0,0,1-.3.588h1.344c.072,0,.108.04.108.12s-.036.12-.108.12h-2.4v.558h2.136q.114,0,.114.12c0,.068-.038.1-.114.1h-2.136v.564h2.58c.071,0,.108.038.108.114s-.037.114-.108.114h-2.58v.876h.918a3.92,3.92,0,0,0,.36-.648c.031-.08.074-.12.125-.12a.136.136,0,0,1,.072.021.079.079,0,0,1,.037.075,1.226,1.226,0,0,1-.1.252q-.048.1-.111.207c-.042.07-.087.141-.135.213h1.464c.072,0,.107.042.107.126s-.035.12-.107.12h-5.508c-.072,0-.107-.04-.107-.12s.035-.126.107-.126h2.628Zm2.3,2.6a.38.38,0,0,1-.09.288.456.456,0,0,1-.312.084H511.23a.443.443,0,0,1-.31-.084.392.392,0,0,1-.087-.288v-.714a.413.413,0,0,1,.087-.3.432.432,0,0,1,.31-.087h3.539a.445.445,0,0,1,.313.087.4.4,0,0,1,.09.3Zm-.252-.042v-.63c0-.128-.072-.192-.216-.192H511.3c-.14,0-.21.064-.21.192v.63c0,.12.07.18.21.18H514.7a.231.231,0,0,0,.155-.051A.16.16,0,0,0,514.92,154.441Zm-3.432-2.472c.039,0,.076.031.111.093s.088.151.164.267a.739.739,0,0,1,.108.189.148.148,0,0,1,0,.1.071.071,0,0,1-.048.042.174.174,0,0,0-.052.021.122.122,0,0,1-.071-.036c-.013-.016-.03-.041-.054-.075a1.368,1.368,0,0,1-.084-.135l-.084-.147a.782.782,0,0,0-.066-.1c-.057-.068-.068-.119-.036-.153A.2.2,0,0,1,511.488,151.97Zm.222-2.592c.036,0,.077.029.123.087s.1.137.165.237a.6.6,0,0,1,.1.192.108.108,0,0,1-.045.081.146.146,0,0,1-.1.039c-.032,0-.078-.048-.138-.144a1.367,1.367,0,0,0-.162-.24.27.27,0,0,1-.066-.1.106.106,0,0,1,0-.075.1.1,0,0,1,.048-.045A.731.731,0,0,1,511.71,149.377Z" fill="#fff"/><path d="M518.148,154.79c-.008.016-.019.038-.03.066a.153.153,0,0,1-.054.066.113.113,0,0,1-.1.006.4.4,0,0,1-.149-.114q-.252-.228-.48-.417a3.838,3.838,0,0,0-.456-.327.346.346,0,0,1-.129-.111.108.108,0,0,1-.012-.093.126.126,0,0,1,.054-.066.246.246,0,0,1,.063-.03,2.426,2.426,0,0,1,.7.45Q518.148,154.669,518.148,154.79Z" fill="#fff"/><path d="M525.474,150.308h2.137a.126.126,0,0,1,0,.252h-2.1a11.463,11.463,0,0,0,.738,2.616,4.051,4.051,0,0,0,.468-.828,4.733,4.733,0,0,0,.271-1.158c.016-.108.056-.162.12-.162.1,0,.144.044.144.132a3.728,3.728,0,0,1-.09.558,4.385,4.385,0,0,1-.273.852,4.447,4.447,0,0,1-.524.876,3.975,3.975,0,0,0,.594.894q.324.354.426.354c.036,0,.063-.032.078-.1a2.49,2.49,0,0,0,.09-.39,5.943,5.943,0,0,0,.078-.7.132.132,0,0,1,.051-.1.15.15,0,0,1,.184,0,.1.1,0,0,1,.042.084,1.97,1.97,0,0,1-.013.207q-.012.123-.035.285c-.017.1-.033.207-.052.309s-.039.2-.062.3a2.054,2.054,0,0,1-.1.342.2.2,0,0,1-.186.1.555.555,0,0,1-.33-.132,2.6,2.6,0,0,1-.45-.48,4.436,4.436,0,0,1-.485-.738,4.108,4.108,0,0,1-1.188.954,2.651,2.651,0,0,1-.828.342.1.1,0,0,1-.093-.048.179.179,0,0,1-.027-.09c0-.068.059-.124.174-.168a3.946,3.946,0,0,0,1.843-1.242,8.966,8.966,0,0,1-.462-1.275,14.628,14.628,0,0,1-.354-1.587h-2.1a.165.165,0,0,0-.126.039.207.207,0,0,0-.036.141v.738h1.458a.87.87,0,0,1,.183.015.21.21,0,0,1,.105.051.19.19,0,0,1,.048.1.99.99,0,0,1,.012.168,6.677,6.677,0,0,1-.186,1.986.649.649,0,0,1-.618.48,1.567,1.567,0,0,1-.492-.1q-.144-.054-.231-.093a.971.971,0,0,1-.132-.069.186.186,0,0,1-.06-.057.12.12,0,0,1-.016-.057.126.126,0,0,1,.081-.132.187.187,0,0,1,.165.018,2.924,2.924,0,0,0,.528.21.391.391,0,0,0,.342-.042.637.637,0,0,0,.2-.357,4.395,4.395,0,0,0,.114-.729c.016-.212.028-.386.036-.522s.012-.238.012-.306a.461.461,0,0,0-.045-.258.234.234,0,0,0-.183-.054H522.99v.7q0,.3-.021.573c-.014.182-.035.357-.062.525a6.051,6.051,0,0,1-.216.9,2.773,2.773,0,0,1-.181.474c-.032.056-.065.084-.1.084a.164.164,0,0,1-.1-.03.087.087,0,0,1-.042-.081.6.6,0,0,1,.049-.183c.075-.192.14-.378.191-.558a5.424,5.424,0,0,0,.126-.54q.048-.27.072-.567c.016-.2.024-.407.024-.627v-1.656a.462.462,0,0,1,.1-.333.427.427,0,0,1,.318-.1h2.063c-.016-.092-.031-.182-.045-.27s-.027-.178-.039-.27c-.023-.184-.036-.288-.036-.312,0-.076.04-.114.12-.114s.143.04.15.12ZM527.04,150a.128.128,0,0,1-.033.087.121.121,0,0,1-.1.039.329.329,0,0,1-.168-.06q-.048-.03-.132-.072l-.2-.1c-.08-.04-.151-.074-.213-.1l-.159-.072a.206.206,0,0,1-.12-.084.106.106,0,0,1-.009-.09.133.133,0,0,1,.057-.069.147.147,0,0,1,.078-.027,2.25,2.25,0,0,1,.456.192,4.857,4.857,0,0,1,.468.252C527.014,149.923,527.04,149.959,527.04,150Z" fill="#fff"/><path d="M530.574,150.782c.027-.2.05-.411.065-.621s.028-.425.036-.645a.324.324,0,0,1,.03-.138.156.156,0,0,1,.111-.03c.054,0,.089.012.1.036a.207.207,0,0,1,.024.12c0,.028,0,.082-.01.162s-.013.184-.021.312-.018.259-.03.393-.027.271-.048.411h1.806a1.2,1.2,0,0,1,.666.12q.145.12.145.57,0,.324-.021.645c-.014.214-.035.433-.062.657s-.062.428-.1.624-.086.38-.138.552a2.977,2.977,0,0,1-.165.429,1.1,1.1,0,0,1-.2.288.64.64,0,0,1-.252.162.991.991,0,0,1-.329.051,3.213,3.213,0,0,1-.685-.1c-.14-.032-.251-.061-.333-.087a.758.758,0,0,1-.159-.063.137.137,0,0,1,.072-.258.365.365,0,0,1,.126.024,3.575,3.575,0,0,0,.942.2.556.556,0,0,0,.474-.216,2.283,2.283,0,0,0,.294-.726q.066-.258.114-.546c.032-.192.058-.4.078-.612s.034-.414.045-.594.015-.342.015-.486a.544.544,0,0,0-.048-.273q-.048-.075-.252-.075H530.8a6.849,6.849,0,0,1-.492,1.764,5.4,5.4,0,0,1-.972,1.5q-.63.7-.8.7a.186.186,0,0,1-.078-.03.13.13,0,0,1-.051-.06.106.106,0,0,1,.006-.087.259.259,0,0,1,.1-.1,5.479,5.479,0,0,0,.765-.744,5.053,5.053,0,0,0,.579-.849,5.668,5.668,0,0,0,.414-.972,8.039,8.039,0,0,0,.271-1.113h-1.92a.122.122,0,0,1-.139-.138c0-.1.046-.144.139-.144Zm-.612-.384a.132.132,0,0,1-.039.087.125.125,0,0,1-.1.045.3.3,0,0,1-.156-.084,1.514,1.514,0,0,0-.146-.123q-.1-.075-.249-.177l-.276-.189q-.126-.087-.234-.153a.112.112,0,0,1-.062-.069.122.122,0,0,1,.006-.075.155.155,0,0,1,.051-.063.128.128,0,0,1,.078-.027.49.49,0,0,1,.15.072l.372.246.219.153c.065.046.125.089.177.129s.092.072.12.1a.545.545,0,0,1,.063.06.091.091,0,0,1,.024.039A.17.17,0,0,1,529.962,150.4Zm2.437,3.108a.118.118,0,0,1-.027.075.136.136,0,0,1-.069.045.15.15,0,0,1-.09,0,.189.189,0,0,1-.09-.069,9.394,9.394,0,0,0-1.116-1.386.206.206,0,0,1-.069-.126.113.113,0,0,1,.033-.093.139.139,0,0,1,.1-.033.161.161,0,0,1,.107.042,3.812,3.812,0,0,1,.294.312c.08.088.159.179.237.273s.155.191.23.291A2.585,2.585,0,0,1,532.4,153.505Z" fill="#fff"/><path d="M535.362,151.01q-.229.318-.486.612c-.088.1-.159.178-.213.234s-.091.094-.111.114a.205.205,0,0,1-.107.048.251.251,0,0,1-.061-.027.12.12,0,0,1-.051-.057.14.14,0,0,1,0-.09.292.292,0,0,1,.1-.126,7.866,7.866,0,0,0,1.519-2.124c.048-.1.1-.144.168-.144a.11.11,0,0,1,.072.033.107.107,0,0,1,.035.081.376.376,0,0,1-.029.114q-.031.066-.234.414c-.068.116-.136.229-.2.339s-.138.217-.21.321a6.989,6.989,0,0,0,1.5,2.43,6.131,6.131,0,0,0,1.519-2.514q-.205-.288-.375-.51t-.321-.39a.327.327,0,0,1-.084-.129.133.133,0,0,1,0-.084.109.109,0,0,1,.045-.051.207.207,0,0,1,.054-.024.138.138,0,0,1,.078.03,2.027,2.027,0,0,1,.216.24c.057.068.123.152.2.252s.167.218.268.354l.306.42c.1.144.208.294.312.45s.192.28.252.372.1.152.114.18q.1.144,0,.216a.12.12,0,0,1-.174-.006c-.012-.016-.04-.057-.084-.123s-.106-.159-.186-.279-.157-.242-.231-.354-.147-.22-.219-.324a6.164,6.164,0,0,1-1.494,2.448,7.178,7.178,0,0,0,2.412,1.326c.128.044.191.1.191.162q0,.132-.138.132a4.047,4.047,0,0,1-1.074-.4,6.61,6.61,0,0,1-1.59-1.038,6.4,6.4,0,0,1-1.032.756,6.481,6.481,0,0,1-1.05.522,2.18,2.18,0,0,1-.636.186c-.1,0-.15-.042-.15-.126s.072-.13.217-.162a3.6,3.6,0,0,0,.594-.2q.312-.135.672-.327a6.818,6.818,0,0,0,.657-.4,5.277,5.277,0,0,0,.543-.426A6.821,6.821,0,0,1,535.362,151.01Z" fill="#fff"/><path d="M542.9,152.881h-2.311c-.088,0-.132-.04-.132-.12s.044-.12.132-.12H542.9v-.888h-2.58c-.088,0-.132-.04-.132-.12s.044-.12.132-.12H543.7a.24.24,0,0,1,.054-.162q.138-.228.255-.444t.2-.414a.244.244,0,0,1,.087-.12.094.094,0,0,1,.138.036.121.121,0,0,1,.021.06,6.1,6.1,0,0,1-.528,1.044h1.746q.132,0,.132.12c0,.08-.044.12-.132.12H543.15v.888h2.226q.132,0,.132.12c0,.08-.044.12-.132.12H543.15v1.488q0,.612-.589.612a2.128,2.128,0,0,1-.462-.066,1.253,1.253,0,0,1-.312-.1.107.107,0,0,1-.048-.09.148.148,0,0,1,.06-.135.177.177,0,0,1,.187,0,1.75,1.75,0,0,0,.563.126.316.316,0,0,0,.354-.36Zm-1.044.33a.229.229,0,0,1-.036.114q-.037.066-.234.324t-.393.477c-.135.15-.251.279-.352.387a1.683,1.683,0,0,1-.117.126.5.5,0,0,1-.074.06.179.179,0,0,1-.048.021l-.036,0a.333.333,0,0,1-.055-.027.137.137,0,0,1-.054-.057.113.113,0,0,1,0-.09.346.346,0,0,1,.111-.126,6,6,0,0,0,.546-.576c.092-.112.177-.22.255-.324a3.522,3.522,0,0,0,.207-.306c.048-.084.1-.126.156-.126a.123.123,0,0,1,.12.12Zm1.313-3.228h2.082q.132,0,.132.12t-.132.12H540.69c-.089,0-.133-.04-.133-.12s.044-.12.133-.12h2.237a2.893,2.893,0,0,0-.093-.288c-.03-.076-.054-.137-.072-.183a.259.259,0,0,1-.023-.1c0-.022.019-.039.051-.051a.2.2,0,0,1,.1-.03c.028,0,.055.02.078.06a1.12,1.12,0,0,1,.105.237A3.41,3.41,0,0,1,543.174,149.983Zm-1.025,1.338a.084.084,0,0,1-.042.078.251.251,0,0,1-.039.021.065.065,0,0,1-.049,0,.162.162,0,0,1-.06-.042.585.585,0,0,1-.081-.117q-.234-.4-.4-.666a.151.151,0,0,1-.024-.15.112.112,0,0,1,.114-.066c.036,0,.069.024.1.072.016.02.046.065.09.135s.1.163.168.279A1.318,1.318,0,0,1,542.148,151.322Zm3.4,3.21a.151.151,0,0,1-.018.066.1.1,0,0,1-.055.051.126.126,0,0,1-.087,0,.245.245,0,0,1-.11-.087,7.618,7.618,0,0,0-.559-.606q-.378-.4-.618-.6c-.071-.06-.1-.118-.071-.174a.115.115,0,0,1,.107-.084.438.438,0,0,1,.216.132,2.871,2.871,0,0,1,.217.195q.132.13.317.321l.315.324c.086.088.152.16.2.216A.522.522,0,0,1,545.544,154.532Z" fill="#fff"/><path d="M548.148,154.79c-.009.016-.019.038-.03.066a.147.147,0,0,1-.054.066.113.113,0,0,1-.1.006.4.4,0,0,1-.149-.114q-.252-.228-.48-.417a3.838,3.838,0,0,0-.456-.327.338.338,0,0,1-.129-.111.115.115,0,0,1-.012-.093.122.122,0,0,1,.054-.066.249.249,0,0,1,.063-.03,2.431,2.431,0,0,1,.7.45Q548.148,154.669,548.148,154.79Z" fill="#fff"/><path d="M552.774,150.056h-.444q-.114,0-.114-.12t.114-.126h2.718q.114,0,.114.126t-.114.12h-.216v3.618a5.14,5.14,0,0,1,.54-.15c.068,0,.1.04.1.12,0,.056-.033.1-.1.12-.032.012-.093.032-.183.06l-.357.108v1c0,.076-.03.114-.09.114a.189.189,0,0,1-.117-.024.119.119,0,0,1-.027-.09V154q-.642.18-1.476.36t-.882.18a.1.1,0,0,1-.081-.045.141.141,0,0,1-.033-.081c0-.068.057-.112.171-.132s.273-.05.478-.09Zm.245,1.1H554.6v-1.1H553.02Zm1.578.234H553.02v1.152H554.6Zm-1.578,2.742q.432-.1.822-.2t.756-.2v-.96H553.02Zm2.425-3.948h-.1c-.076,0-.113-.04-.113-.12s.037-.126.113-.126h1.914a.331.331,0,0,1,.372.378,5.864,5.864,0,0,1-.264,1.182,7.781,7.781,0,0,1-.756,1.758q.138.252.264.459t.258.387a4.043,4.043,0,0,0,.271.333,3.667,3.667,0,0,0,.3.3.391.391,0,0,1,.1.135.126.126,0,0,1,.007.093.116.116,0,0,1-.045.054.1.1,0,0,1-.049.018q-.12,0-.5-.45a5.71,5.71,0,0,1-.737-1.11,7.276,7.276,0,0,1-.757,1.032q-.45.528-.552.528a.109.109,0,0,1-.075-.045.135.135,0,0,1-.039-.069c0-.036.061-.114.181-.234a6.6,6.6,0,0,0,1.109-1.464,8.38,8.38,0,0,1-.611-1.476q-.1-.33-.171-.717T555.444,150.188ZM556.476,153a7.487,7.487,0,0,0,.7-1.668,6.588,6.588,0,0,0,.21-.912.2.2,0,0,0-.081-.189.566.566,0,0,0-.261-.045h-1.38A7.8,7.8,0,0,0,556.476,153Z" fill="#fff"/><path d="M559.122,152.2q-.12.138-.234.261c-.076.082-.153.161-.233.237s-.14.136-.189.18-.085.074-.1.09a.2.2,0,0,1-.1.048.2.2,0,0,1-.048-.027.119.119,0,0,1-.045-.063.146.146,0,0,1,.009-.1.418.418,0,0,1,.126-.144q.174-.15.354-.339c.12-.126.238-.257.356-.393s.23-.276.336-.42.205-.286.3-.426c.064-.1.112-.15.145-.15a.139.139,0,0,1,.093.033.1.1,0,0,1,.039.081,2.809,2.809,0,0,1-.552.834v3.03c0,.076-.042.114-.126.114s-.12-.038-.12-.114Zm.768-2.622a.73.73,0,0,1-.1.228,3.7,3.7,0,0,1-.336.486c-.08.1-.159.194-.237.282s-.156.172-.236.252a2.045,2.045,0,0,1-.33.3.264.264,0,0,1-.139.06.11.11,0,0,1-.084-.042.341.341,0,0,1-.029-.048.065.065,0,0,1,0-.054.221.221,0,0,1,.048-.075,1.116,1.116,0,0,1,.123-.117,5.181,5.181,0,0,0,.618-.615,3.427,3.427,0,0,0,.438-.639.233.233,0,0,1,.09-.114.114.114,0,0,1,.087-.012.12.12,0,0,1,.063.045A.11.11,0,0,1,559.89,149.576Zm2.964,2.718H560.01q-.126,0-.126-.12a.111.111,0,0,1,.126-.126h3.685a.111.111,0,0,1,.126.126q0,.12-.126.12h-.606v.618h.685c.079,0,.119.042.119.126a.106.106,0,0,1-.119.12h-.685v1.362a.417.417,0,0,1-.171.363.748.748,0,0,1-.447.123,2.172,2.172,0,0,1-.521-.06,1.307,1.307,0,0,1-.312-.1c-.044-.028-.065-.058-.065-.09q0-.132.12-.132a.486.486,0,0,1,.084.012,4.158,4.158,0,0,0,.53.108.9.9,0,0,0,.327-.009.243.243,0,0,0,.165-.126.7.7,0,0,0,.057-.249v-1.2H559.9a.106.106,0,0,1-.12-.12q0-.126.12-.126h2.957Zm.624-1.11a.487.487,0,0,1-.09.336.415.415,0,0,1-.312.1h-2.454a.418.418,0,0,1-.312-.1.492.492,0,0,1-.09-.336v-1.134a.479.479,0,0,1,.09-.333.426.426,0,0,1,.313-.093h2.454a.423.423,0,0,1,.312.093.474.474,0,0,1,.09.333Zm-.239-.7v-.426a.224.224,0,0,0-.048-.147.164.164,0,0,0-.133-.057h-2.424a.157.157,0,0,0-.126.057.219.219,0,0,0-.048.147v.426Zm0,.678v-.444H560.46v.444a.232.232,0,0,0,.051.156.162.162,0,0,0,.129.06h2.412C563.176,151.381,563.238,151.31,563.238,151.166Zm-2.592,2.172q.144,0,.432.558a2.343,2.343,0,0,1,.288.7.093.093,0,0,1-.039.084.156.156,0,0,1-.081.024c-.052,0-.1-.05-.132-.15a3.677,3.677,0,0,0-.54-.978.151.151,0,0,1-.048-.081.12.12,0,0,1,.009-.072.123.123,0,0,1,.045-.054A.16.16,0,0,1,560.646,153.337Z" fill="#fff"/><path d="M565.014,149.99h-.737a.1.1,0,0,1-.075-.036.118.118,0,0,1-.033-.084q0-.12.108-.12h1.674a.106.106,0,0,1,.12.12.124.124,0,0,1-.12.12h-.7v1.83h.643c.075,0,.113.042.113.126a.124.124,0,0,1-.036.087.1.1,0,0,1-.077.039h-.643v2.094a6.036,6.036,0,0,0,.7-.36.238.238,0,0,1,.141-.057.12.12,0,0,1,.087.036.108.108,0,0,1,.027.084.127.127,0,0,1-.039.087,3.961,3.961,0,0,1-.426.222q-.192.1-.405.192t-.465.192a3.317,3.317,0,0,1-.57.2.1.1,0,0,1-.1-.054.213.213,0,0,1-.027-.1c0-.06.052-.1.156-.12s.213-.054.327-.09.232-.08.356-.132v-2.2h-.672c-.072,0-.107-.042-.107-.126s.035-.126.107-.126h.672Zm2.964,3.324h1.41q.114,0,.114.12t-.114.12h-1.41v1.02h1.765c.076,0,.114.04.114.12s-.038.12-.114.12h-3.774c-.071,0-.107-.04-.107-.12s.036-.12.107-.12h1.765v-1.02H566.28q-.108,0-.108-.12t.108-.12h1.452v-.858h-1.038q-.438,0-.438-.42v-1.992a.48.48,0,0,1,.087-.33.394.394,0,0,1,.291-.09H569a.416.416,0,0,1,.309.1.455.455,0,0,1,.094.324v1.992a.455.455,0,0,1-.094.324.414.414,0,0,1-.309.1h-1.021Zm-.245-2.382v-1.074h-1.051c-.124,0-.186.072-.186.216v.858Zm0,1.29v-1.068H566.5v.84a.244.244,0,0,0,.054.165.168.168,0,0,0,.132.063Zm.245-2.364v1.074h1.183v-.858a.229.229,0,0,0-.054-.156.185.185,0,0,0-.145-.06Zm0,1.3v1.068h.984c.132,0,.2-.076.2-.228v-.84Z" fill="#fff"/><path d="M571.5,150.235v-.762a.1.1,0,0,1,.114-.114q.12,0,.12.114v.762h.882q.114,0,.114.12a.1.1,0,0,1-.114.114h-.882v.024q.456.546.7.837l.288.339a.27.27,0,0,1,.091.147.152.152,0,0,1-.042.1.116.116,0,0,1-.091.042c-.035,0-.09-.05-.162-.15s-.334-.44-.785-1v1.9q0,.114-.12.114a.1.1,0,0,1-.114-.114v-1.83c-.064.124-.131.242-.2.354s-.143.22-.219.324-.152.2-.229.3-.151.183-.228.267a2.438,2.438,0,0,1-.264.264.142.142,0,0,1-.072.018.11.11,0,0,1-.078-.036.128.128,0,0,1-.036-.084c0-.028.034-.076.1-.144a6.736,6.736,0,0,0,1.212-1.674H570.42a.1.1,0,0,1-.114-.114q0-.12.114-.12Zm-.42,2.976a4.529,4.529,0,0,1-.192.654,4.333,4.333,0,0,1-.288.726q-.089.162-.144.162a.176.176,0,0,1-.1-.03.078.078,0,0,1-.042-.072.869.869,0,0,1,.1-.222,4.923,4.923,0,0,0,.4-1.122c.028-.132.07-.2.126-.2C571.032,153.109,571.08,153.144,571.08,153.211Zm1.038.9a.5.5,0,0,0,.126.36.581.581,0,0,0,.387.153q.261.021.735.021a4.19,4.19,0,0,0,.72-.048c.164-.032.264-.088.3-.168a1.269,1.269,0,0,0,.061-.486.106.106,0,0,1,.039-.09.152.152,0,0,1,.087-.033.119.119,0,0,1,.087.03.125.125,0,0,1,.039.1,1.585,1.585,0,0,1-.084.612.545.545,0,0,1-.369.255,3.131,3.131,0,0,1-.813.081,8.3,8.3,0,0,1-.857-.036.823.823,0,0,1-.525-.225.758.758,0,0,1-.183-.549v-1.014q0-.114.126-.114t.126.114Zm.773-1.392a.112.112,0,0,1,.036.006.135.135,0,0,1,.045.03.443.443,0,0,1,.063.075c.023.034.058.081.1.141q.132.18.252.375t.229.381a.672.672,0,0,1,.107.249.1.1,0,0,1-.054.093.324.324,0,0,1-.048.03.065.065,0,0,1-.051,0,.149.149,0,0,1-.061-.048.509.509,0,0,1-.068-.123,5.2,5.2,0,0,0-.582-.948.312.312,0,0,1-.078-.12.115.115,0,0,1,0-.078.08.08,0,0,1,.048-.042A.567.567,0,0,0,572.892,152.72Zm2.521-.456a.468.468,0,0,1-.09.327.4.4,0,0,1-.3.093h-1.65a.4.4,0,0,1-.291-.09.479.479,0,0,1-.087-.33v-2.2a.473.473,0,0,1,.084-.327.4.4,0,0,1,.294-.087h1.65a.406.406,0,0,1,.3.093.458.458,0,0,1,.09.321Zm-.234-1.686V150.1c0-.144-.063-.216-.191-.216h-1.572c-.124,0-.187.072-.187.216v.474Zm0,.912v-.69h-1.95v.69Zm0,.738v-.516h-1.95v.516a.236.236,0,0,0,.055.159.168.168,0,0,0,.132.063h1.572C575.114,152.45,575.178,152.375,575.178,152.228Zm-.359.822a.133.133,0,0,1,.084.048,1.282,1.282,0,0,1,.1.129c.048.07.112.167.192.291s.159.236.228.348.126.213.174.3a2.492,2.492,0,0,1,.111.234.481.481,0,0,1,.039.141c0,.08-.048.12-.145.12q-.072,0-.132-.162t-.144-.312c-.053-.1-.11-.212-.174-.324s-.128-.214-.189-.306-.121-.174-.177-.246a.348.348,0,0,1-.09-.132.08.08,0,0,1,.006-.072.105.105,0,0,1,.057-.036A.436.436,0,0,0,574.818,153.049Z" fill="#fff"/><path d="M579.474,150.308h2.137a.126.126,0,0,1,0,.252h-2.1a11.463,11.463,0,0,0,.738,2.616,4.051,4.051,0,0,0,.468-.828,4.733,4.733,0,0,0,.271-1.158c.016-.108.056-.162.12-.162.1,0,.144.044.144.132a3.728,3.728,0,0,1-.09.558,4.385,4.385,0,0,1-.273.852,4.447,4.447,0,0,1-.524.876,3.975,3.975,0,0,0,.594.894q.324.354.426.354c.036,0,.063-.032.078-.1a2.49,2.49,0,0,0,.09-.39,5.943,5.943,0,0,0,.078-.7.132.132,0,0,1,.051-.1.15.15,0,0,1,.184,0,.1.1,0,0,1,.042.084,1.97,1.97,0,0,1-.013.207q-.012.123-.035.285c-.017.1-.033.207-.052.309s-.039.2-.062.3a2.054,2.054,0,0,1-.1.342.2.2,0,0,1-.186.1.555.555,0,0,1-.33-.132,2.6,2.6,0,0,1-.45-.48,4.436,4.436,0,0,1-.485-.738,4.108,4.108,0,0,1-1.188.954,2.651,2.651,0,0,1-.828.342.1.1,0,0,1-.093-.048.179.179,0,0,1-.027-.09c0-.068.059-.124.174-.168a3.946,3.946,0,0,0,1.843-1.242,8.966,8.966,0,0,1-.462-1.275,14.628,14.628,0,0,1-.354-1.587h-2.1a.165.165,0,0,0-.126.039.207.207,0,0,0-.036.141v.738h1.458a.87.87,0,0,1,.183.015.21.21,0,0,1,.105.051.19.19,0,0,1,.048.1.99.99,0,0,1,.012.168,6.677,6.677,0,0,1-.186,1.986.649.649,0,0,1-.618.48,1.567,1.567,0,0,1-.492-.1q-.144-.054-.231-.093a.971.971,0,0,1-.132-.069.186.186,0,0,1-.06-.057.12.12,0,0,1-.016-.057.126.126,0,0,1,.081-.132.187.187,0,0,1,.165.018,2.924,2.924,0,0,0,.528.21.391.391,0,0,0,.342-.042.637.637,0,0,0,.2-.357,4.395,4.395,0,0,0,.114-.729c.016-.212.028-.386.036-.522s.012-.238.012-.306a.461.461,0,0,0-.045-.258.234.234,0,0,0-.183-.054H576.99v.7q0,.3-.021.573c-.014.182-.035.357-.062.525a6.051,6.051,0,0,1-.216.9,2.773,2.773,0,0,1-.181.474c-.032.056-.065.084-.1.084a.164.164,0,0,1-.1-.03.087.087,0,0,1-.042-.081.6.6,0,0,1,.049-.183c.075-.192.14-.378.191-.558a5.424,5.424,0,0,0,.126-.54q.048-.27.072-.567c.016-.2.024-.407.024-.627v-1.656a.462.462,0,0,1,.1-.333.427.427,0,0,1,.318-.1h2.063c-.016-.092-.031-.182-.045-.27s-.027-.178-.039-.27c-.023-.184-.036-.288-.036-.312,0-.076.04-.114.12-.114s.143.04.15.12ZM581.04,150a.128.128,0,0,1-.033.087.121.121,0,0,1-.1.039.329.329,0,0,1-.168-.06q-.048-.03-.132-.072l-.2-.1c-.08-.04-.151-.074-.213-.1l-.159-.072a.206.206,0,0,1-.12-.084.106.106,0,0,1-.009-.09.133.133,0,0,1,.057-.069.147.147,0,0,1,.078-.027,2.25,2.25,0,0,1,.456.192,4.857,4.857,0,0,1,.468.252C581.014,149.923,581.04,149.959,581.04,150Z" fill="#fff"/><path d="M584.166,153.782a.119.119,0,0,1,.093.036.128.128,0,0,1,.033.09.125.125,0,0,1-.042.09,5.142,5.142,0,0,1-.474.2c-.145.056-.291.111-.441.165s-.3.1-.459.147a3.19,3.19,0,0,1-.552.144.158.158,0,0,1-.126-.042.135.135,0,0,1-.036-.09c0-.06.04-.1.12-.12a8.03,8.03,0,0,0,1.746-.582A.293.293,0,0,1,584.166,153.782Zm-.822-2.244-.857.042c-.172,0-.259-.046-.259-.15a.233.233,0,0,1,.055-.138q.324-.474.582-.912t.456-.852q.072-.144.155-.144a.106.106,0,0,1,.069.027.09.09,0,0,1,.033.075.455.455,0,0,1-.03.126,1.2,1.2,0,0,1-.087.18q-.075.138-.213.384t-.273.468q-.135.228-.272.438a.706.706,0,0,0-.1.2c0,.028.018.045.052.051a.964.964,0,0,0,.188,0l.654-.036q.275-.42.54-.9c.056-.1.109-.156.162-.156.075,0,.113.032.113.1a.207.207,0,0,1-.023.09,1.592,1.592,0,0,1-.084.15l-.2.342q-.27.438-.6.909t-.657.885a.517.517,0,0,0-.126.2c0,.032.058.048.174.048a6.251,6.251,0,0,0,1.242-.174.288.288,0,0,1,.065-.006c.076,0,.114.034.114.1a.132.132,0,0,1-.084.132,5.382,5.382,0,0,1-.72.126c-.216.028-.4.049-.543.063s-.261.021-.345.021c-.164,0-.246-.058-.246-.174a.353.353,0,0,1,.1-.228Q582.99,152.059,583.344,151.538Zm2.73-1.656h1.41a.1.1,0,0,1,.113.114c0,.072-.038.108-.113.108h-1.41v.51h1.284a.128.128,0,0,1,.09.024.179.179,0,0,1,.023.114c0,.056-.038.084-.113.084h-1.284v.576h1.584a.1.1,0,0,1,.114.114q0,.108-.114.108H584.3q-.114,0-.114-.108a.1.1,0,0,1,.114-.114h1.548v-.576h-1.271q-.114,0-.114-.12c0-.068.038-.1.114-.1h1.271v-.51H584.43c-.076,0-.113-.036-.113-.108a.1.1,0,0,1,.113-.114h1.416v-.432c0-.068.038-.1.114-.1s.114.034.114.1Zm.018,2.892a2.6,2.6,0,0,1-.24,1.2,1.761,1.761,0,0,1-.785.762,2.141,2.141,0,0,1-.715.294c-.067,0-.1-.036-.1-.108s.056-.122.168-.162a3.091,3.091,0,0,0,.744-.36,1.6,1.6,0,0,0,.492-.54,2.291,2.291,0,0,0,.191-1.068.317.317,0,0,1,.033-.168.113.113,0,0,1,.1-.048.1.1,0,0,1,.091.039A.351.351,0,0,1,586.092,152.773Zm1.368,1.356a.114.114,0,1,1-.228,0v-1.662c-.009-.116-.062-.174-.162-.174h-2.124a.152.152,0,0,0-.111.054.17.17,0,0,0-.051.12v1.68a.114.114,0,1,1-.229,0v-1.716a.435.435,0,0,1,.066-.279.4.4,0,0,1,.294-.075H587.1a.647.647,0,0,1,.2.024.221.221,0,0,1,.108.072.247.247,0,0,1,.045.114,1.2,1.2,0,0,1,.009.156Zm-1.308-.336a1.6,1.6,0,0,1,.359.186c.1.06.212.127.324.2s.226.155.342.243a4.273,4.273,0,0,1,.433.342.24.24,0,0,1,.078.126.112.112,0,0,1-.036.078.1.1,0,0,1-.081.036.243.243,0,0,1-.136-.072,9.438,9.438,0,0,0-1.218-.882c-.1-.068-.156-.114-.156-.138a.138.138,0,0,1,.027-.084A.079.079,0,0,1,586.152,153.793Z" fill="#fff"/></svg>