<svg id="template" xmlns="http://www.w3.org/2000/svg" width="655" height="493" viewBox="0 0 655 493"><title>05 LEAF</title><path d="M480.307,225.744c-.266-1.753-.362-3.671-1.445-5.075,1.781-.214,3.347.328,5.083.489a7.486,7.486,0,0,0,2.112-.144c.381-.073,1.635-.717,1.927-.627a8.391,8.391,0,0,1-3.721-2.379,17.138,17.138,0,0,0,4.525-.206,6.978,6.978,0,0,0,3.9-2.165,1.2,1.2,0,0,0,.29-.507,1.348,1.348,0,0,0-.122-.725c-.869-2.364-1.686-4.872-3.853-6.156a10.146,10.146,0,0,0,5.892-3.287,7.423,7.423,0,0,0,1.144-1.5c1.148-2.091.652-4.717.12-7.042a36.517,36.517,0,0,0-11.257-.264,21,21,0,0,0-4.748.84c-1.264.424-1.769,1.2-2.794-.175-1.149-1.544-1.708-3.214-.27-4.509a12.026,12.026,0,0,1,4.877-2.892c-.549-2.733-2.575-4.9-4.55-6.863a52.965,52.965,0,0,0-4.648-4.664q-4.655-3.687-9.268-7.425a18.6,18.6,0,0,1-2.5-2.274c-1.819-2.113-2.534-5.083-4.647-6.9a12.061,12.061,0,0,0,4.759-1.144c.288-.136.561-.337.835-.5a26.789,26.789,0,0,0-3.415-4.313,5.658,5.658,0,0,0-2.218-1.572,6.61,6.61,0,0,0,2.767-.321,8.6,8.6,0,0,1,1.9-.637,9.389,9.389,0,0,0-2.018-3.623,6.365,6.365,0,0,0,3.312.193,2.157,2.157,0,0,0,.858-.377l.583-.36a31.045,31.045,0,0,0-4.6-6.135c1.631-.647,2.483-2.566,3.063-4.122a.341.341,0,0,0,.026-.238.352.352,0,0,0-.2-.164,22.216,22.216,0,0,1-5.266-3.754,1.109,1.109,0,0,1-.428-.589c-.171-.966,2.175-.621,2.682-.723a9.78,9.78,0,0,0,7.594-7.18c.184-.707.141-6.338.219-6.356-.179.041-.158-.113-.321-.03-3.647,1.86-7.736.379-11.579,1.059-3.323.588-6.873,3.338-6.769,7a12.854,12.854,0,0,0,.948,3.949.241.241,0,0,1,.017.176.235.235,0,0,1-.166.106,4.243,4.243,0,0,1-2.594-.12,2.581,2.581,0,0,1-1.267-.923,3.588,3.588,0,0,1-.4-2.112c.022-.855-.129-1.771.51-2.339a12.446,12.446,0,0,0,3.236-13.451.731.731,0,0,0-.237-.363.744.744,0,0,0-.472-.073,25.387,25.387,0,0,0-8.631,2.179,13.3,13.3,0,0,0-4.165,3.064,3.8,3.8,0,0,0-.977,3.512,10.736,10.736,0,0,0-7.191-2.269,1.235,1.235,0,0,1-.522-.041,1.034,1.034,0,0,1-.373-.294,7.992,7.992,0,0,1-1.581-5.061,13,13,0,0,1,.326-4.066c.363-1.316.624-2.981,1.944-3.331a12.355,12.355,0,0,0,7.218-5.318.566.566,0,0,0,.12-.345c-.019-.18-.194-.3-.351-.385a33.828,33.828,0,0,1-6.435-4.34c-3.582-3.359-12.459-4.32-13.648,2.016A5.546,5.546,0,0,0,414.79,102a.914.914,0,0,1,.321,1.329,2.055,2.055,0,0,1-1.326.766c-1.3.295-2.691.154-3.947.6a8.839,8.839,0,0,0-3.146,2.371c-.351.359-.4.137-.588.6a21.934,21.934,0,0,0-1.545,11.9,20.023,20.023,0,0,0-5.922.818,26.364,26.364,0,0,0-5.032,1.374,6.021,6.021,0,0,0,3.1-3.921c-2.669-.817-5.33-1.746-8.042-2.412-.724-.178-8.153-1.655-8.287-1.068.141-.618,1.061-.917,1.006-1.548-.032-.369-.393-.606-.716-.787l-2.329-1.3c-1.873-1.048-2.1-3.376.136-4.172a8.117,8.117,0,0,1,8.693,2.532,8.748,8.748,0,0,0,4.7,2.734,15.8,15.8,0,0,0,5.5.176,8.522,8.522,0,0,0,5.167-2.056,8.375,8.375,0,0,0,1.338-1.929,27.038,27.038,0,0,0,2.61-7.358,10.293,10.293,0,0,0-2.626-2.349,17.775,17.775,0,0,0-3.5-1.452c1.92-.577,3.91-.891,5.835-1.449a16.312,16.312,0,0,0,4.782-2.441,4.954,4.954,0,0,0,2.121-4.848,7.409,7.409,0,0,0-.863-2.282c-1.8-3.316-4.756-5.809-6.6-9.1a33.446,33.446,0,0,0-2.928,2.277,43.255,43.255,0,0,0-8.137,11.1,24.17,24.17,0,0,0-4.687.054.4.4,0,0,0-.265.1.425.425,0,0,0-.079.229c-.263,1.764-1.508,2.489-2.943,3.3-4.149,2.341-6.576,5.876-9.471,9.659a31.452,31.452,0,0,1-5.057,5.225,1.865,1.865,0,0,1-.616.379,4.183,4.183,0,0,1-.869.062c-1.062.089-1.766,1.015-2.755,1.285-.808.22-1.631-.184-2.268.5-.459.49-.608.408-.739,1.068a6.4,6.4,0,0,0-.176,2.267,2.172,2.172,0,0,0,1.3,1.748c.8.274,1.752-.092,2.474.341.888.532.8,1.826.592,2.841a8.607,8.607,0,0,0-1.841-.574,22.148,22.148,0,0,1,.79,6.824,35.928,35.928,0,0,1-5.882-6.035c-1.654-2.151-2.8-4.625-4.452-6.742a15.458,15.458,0,0,0-5.565-4.4c-1.732-.868-3.282-.858-5.181-1.051,0-1.265.137-2.575.136-3.84a7.649,7.649,0,0,0,4.406.542q2.191-.186,4.37-.489a8.557,8.557,0,0,0,2.189-.514,4.544,4.544,0,0,0,2.173-1.955,1.411,1.411,0,0,0,1.842.353,6.333,6.333,0,0,1,4.128-1.094c1.452.049,2.882.366,4.331.478a15.665,15.665,0,0,0,9.724-2.541,4.369,4.369,0,0,0,2.364-2.976,11.791,11.791,0,0,0,.366-5.428c-.615-2.684-3.327-4.884-5.928-5.544-.786-.2-3.478-.678-4.106.067a5.13,5.13,0,0,0,.829-5.107c-2.491-.185-4.959-.624-7.45-.815-3.946-.3-7.984-.027-10.961,2.8a14.74,14.74,0,0,0-2.1,2.52,5.13,5.13,0,0,1-1.878,2.036.428.428,0,0,1-.253.052c-.173-.034-.247-.235-.294-.4a13.155,13.155,0,0,0-1.889-4.069,19.175,19.175,0,0,0-11.336-7.806c-.273,2.622.044,5.2-.665,7.8a6.122,6.122,0,0,1-1.74,2.737,18.271,18.271,0,0,1-2.62,1.971c-.375.248-.329.42-.775.365a8.145,8.145,0,0,0-6.461,2.094,2.884,2.884,0,0,0-.918,1.365,3.026,3.026,0,0,0-.025,1.025,11.328,11.328,0,0,0,.586,2.595c.221.624.7,1.233.289,1.754a4.515,4.515,0,0,0-2.586,2.5,8.976,8.976,0,0,0-.965,7,16.973,16.973,0,0,0-4.155.094c0-.252-.044-.44-.026-.691a7.41,7.41,0,0,0-1.648-5.167c-.733-.892-1.667-1.6-2.411-2.483a28.025,28.025,0,0,1-3.484-5.473c-.912-1.776-2.351-4.755-4.689-4.791A13.43,13.43,0,0,1,306,84.344a10.164,10.164,0,0,0,.7-2.519c-.007.047,3.127-.175,3.341-.211a3.241,3.241,0,0,0,2.4-1.448c.752.984,1.554,1.331,2.31,2.312.92,1.192,2.586,1.472,4.091,1.543a12.737,12.737,0,0,0,3.867-.3A6.077,6.077,0,0,0,325.96,81.7c1.721-2.195,2.02-6.215,1.219-8.785a9.6,9.6,0,0,0-11.453,3.563,5.656,5.656,0,0,0-.67,1.267,1.516,1.516,0,0,1-.38.714c-.212.172-.546-.063-.6-.331a7.142,7.142,0,0,0,.936-5.711c-.513-1.921-1.715-2.277-2.971-3.818a7.381,7.381,0,0,0-3.9-2.168,22.029,22.029,0,0,0-7.7-.689,2.782,2.782,0,0,0-1.8.634c.448.534.369.671.829,1.194a3.734,3.734,0,0,1,.469,3.629,16.228,16.228,0,0,1-1.877,3.331,22.867,22.867,0,0,0-3.407,10.077c-.152,1.643.042,3.318-.117,4.923-.157,1.582-.185,3.054,1,4.292a7.71,7.71,0,0,0,2.32,1.564c.267.126.691.122.7.417a4.4,4.4,0,0,0-.266,4.028.38.38,0,0,1-.1.352,17.1,17.1,0,0,0-2.685-.121,5.722,5.722,0,0,0-2.569.711.112.112,0,0,1-.093.022c-.034-.013-.045-.055-.05-.091-.021-.143,0,.027.016-.117a4.353,4.353,0,0,0-2.322-4.167,8.839,8.839,0,0,0-4.918-.88,9.274,9.274,0,0,0-3.447.769,12.292,12.292,0,0,0-3.367,2.734c-2.455,2.531-5.03,5.291-5.6,8.771a17.431,17.431,0,0,0-.129,3.185,4.157,4.157,0,0,1-.872-3.454,8.226,8.226,0,0,1,1.519-2.951c2.464-3.516,5.441-6.429,7.125-10.379a7.379,7.379,0,0,0-.242-6.7c-3.783-6.061-12.7-4.888-18.12-1.933-.588.321-1.218.806-1.209,1.476.006.517.393,1.089.081,1.5-.074-.137-.079.306-.126.157a10.015,10.015,0,0,0-2.037-3.471,15.226,15.226,0,0,0-4.671-3.646c-.568-.287-3.95-2.147-4.386-1.313a.206.206,0,0,0-.005.132,8.576,8.576,0,0,1-.364,4.231c-.522,1.541-1.3,2.924-1.682,4.515a9.107,9.107,0,0,0,.157,4.82c.852,2.782,3.612,4.307,6.4,4.533a2.045,2.045,0,0,1,1.041.274.694.694,0,0,1,.22.947.927.927,0,0,1-.672.256c-1.808.131-3.7-.641-5.39.026a3.5,3.5,0,0,1-1.534.476,2.59,2.59,0,0,1-1.063-.472,10.419,10.419,0,0,0-12.924,2.03,2.971,2.971,0,0,0-.712,1.234,3.1,3.1,0,0,0,.036,1.219c.226,1.273.061,2.115.694,3.242l4.69,8.354c1.388,2.473,3.116,4.482,4.21,7.12a7.813,7.813,0,0,1,.49,6.081c-.968,4.58-.455,9.111-3.972,12.2a16.814,16.814,0,0,1-5.44,2.8,3.933,3.933,0,0,1-1.079.285.566.566,0,0,1-.448-.118.611.611,0,0,1-.13-.255c-.409-1.314-.647-1.89.058-3.072l2.265-3.794a14.2,14.2,0,0,0,1.705-3.579,14.209,14.209,0,0,0,.157-4.733c-.261-3.307-.359-7.143-1.788-10.2a19.52,19.52,0,0,0-6.05-6.788.969.969,0,0,0-.547-.244c-.485,0-.67.625-.712,1.108a10.655,10.655,0,0,1-1.047,4.716,32.492,32.492,0,0,1-2.189,3.386,5.906,5.906,0,0,1-3.823,2.256c-3.8.956-6.378,2.728-9.494,5.11a1.722,1.722,0,0,0-.223,2.2,5.846,5.846,0,0,0,1.769,1.617,5.169,5.169,0,0,1,1.866,1.918,25.386,25.386,0,0,0-7.944-.91,8.028,8.028,0,0,0-2.562.44,33.252,33.252,0,0,0,.4,9.072c.19,1.325.676,2.61.219,3.886a17.517,17.517,0,0,0-1.022,3.646c-.359,2.793.637,5.562,1.617,8.2l3.411,9.192c.537,1.448,1.208,2.9,1.691,4.354.435,1.311.463,2.77.837,4.124.158.572.838.8,1.425.887.919.137,1.85.155,2.774.234.439.038,2.336.093,2.479.6.126.45-1.761,1.436-2.11,1.675a16.616,16.616,0,0,0-2.371,1.624.4.4,0,0,1-.235.095c-.14-.007-.228-.152-.282-.282a3.257,3.257,0,0,1-.213-1.693,13.392,13.392,0,0,0-2.982,2.163,15.406,15.406,0,0,0-2.627,3.245c-1.121,1.708-1.687,3.612-2.678,5.378a6.361,6.361,0,0,1-3.038,3,13,13,0,0,0-3.757,2.463,25.255,25.255,0,0,0-4.251,5.447,1.932,1.932,0,0,0-.331.781c-.03.284-.086.559.18.662a10.267,10.267,0,0,0,6.855,4.172c.54.076,1.192-.049,1.436.439a9.589,9.589,0,0,0,3.857,3.528,15.387,15.387,0,0,0,2.452.926,8.632,8.632,0,0,0-1.155,3.532,13.819,13.819,0,0,0,.463,3.91c.228.962,1.179,2.317,2.3,1.329a5.952,5.952,0,0,1,2.277-1.079,3.4,3.4,0,0,1,1.8-.189c.926.239.938,1.013,1.1,1.783a3.755,3.755,0,0,0,1.242,2.2c.576.477,1.325.8,1.672,1.464a.371.371,0,0,1,.056.224.389.389,0,0,1-.124.2c-1.238,1.256-3.009.518-4.505.2a40.433,40.433,0,0,1-4.82-1.607,13.965,13.965,0,0,1-1.871-.758c-3.452-1.8-3.157-5.647-5.611-8.192a8.174,8.174,0,0,0-5.158-2.43,21.386,21.386,0,0,0-3.03.3,10.286,10.286,0,0,1-3.155-.289c-1.3-.334-2.232-1.318-3.482-1.815-3.07-1.22-6.535-.6-9.806-1.057a6.944,6.944,0,0,0-3.33-.139.527.527,0,0,0-.609.271,1.537,1.537,0,0,0-.145.7c-.1,2.151-.163,4.435.911,6.3a17.056,17.056,0,0,0,6.077,5.482,4.445,4.445,0,0,1-.908,1.529,16.2,16.2,0,0,0-1.607,2.8,5.143,5.143,0,0,0-.672,2.1c-.015.777.386,1.025,1.011,1.487a6.68,6.68,0,0,0,2.132.909l3.884,1.144-2.348,1.71a.328.328,0,0,0-.148.175c-.032.148.138.254.281.305a14.158,14.158,0,0,0,4.051.642c1.253.068,2.446-.021,3.7.014a.6.6,0,0,1,.4.109.563.563,0,0,1,.1.53,7.223,7.223,0,0,1-.431,1.254,15.68,15.68,0,0,0-.4,10.5.515.515,0,0,0,.253.331.5.5,0,0,0,.336-.033c.62-.223,1.182-.581,1.787-.843,2.352-1.016,5.065-.654,7.5-1.422.24-.076.48-.151.714-.244a5.135,5.135,0,0,0,2.119-1.582,2.055,2.055,0,0,1,1.2-.7,1.678,1.678,0,0,1,.788-.092,1.707,1.707,0,0,1,.964.608,6.137,6.137,0,0,1,1.182,3.541,45.607,45.607,0,0,0,.732,6.615,3.107,3.107,0,0,0,.555,1.3,2.861,2.861,0,0,0,2.323.516,5.284,5.284,0,0,0,1.527-.651,38.76,38.76,0,0,0,4.565-3.033,22.491,22.491,0,0,0,4.661-4.241,4.957,4.957,0,0,1,2-1.876,3.843,3.843,0,0,1,2.864.381c1.492.684,1.5,2.487.788,3.827a9.048,9.048,0,0,1-2.461,2.645,11.146,11.146,0,0,0-2.566,2.555,3.51,3.51,0,0,0-.33,3.454c1.1,2.023.855,4.791,2.582,6.485a9.394,9.394,0,0,0-2.76,2.43,19.278,19.278,0,0,0-1.326,2.126,15.991,15.991,0,0,0-1.784,5.114,19.8,19.8,0,0,0-.071,7.968.139.139,0,0,0,.138.128,13.948,13.948,0,0,0,3,.09q1.673-.016,3.339-.2a33.84,33.84,0,0,0,6.455-1.347c.756-.237,1.534-.377,2.306-.547a19.8,19.8,0,0,0,2.272-.738,1.515,1.515,0,0,1,.284-.077c.7-.1,1.009.534,1.388,1,.415.511.818,1.031,1.236,1.54a12.1,12.1,0,0,0,2.816,2.66q.116.073.234.141a10.956,10.956,0,0,0,4.581-2.978c.388-.435.741-.9,1.086-1.369a18.368,18.368,0,0,0,5.8,3.335,27.629,27.629,0,0,0,4.738,1.623,1.714,1.714,0,0,0,.826.072c-.029-.178-.067-.353-.108-.528a6.481,6.481,0,0,1-.279-1.752c.095-2.263.448-4.187.6-6.446a16.932,16.932,0,0,0,0-3.385,6.17,6.17,0,0,0-1.437-3.372,8.05,8.05,0,0,0-3.637-1.63,10.322,10.322,0,0,0-2.7-.261c-.7.026-1.834.472-2.447,0a1.323,1.323,0,0,1-.262-.3c-1.524-2.169-2.539-4.5-4.854-6a5.974,5.974,0,0,0-3.248-1.084,1.155,1.155,0,0,1-.844-.183c-.856-.835,1.19-2.657,1.717-3.175a6.966,6.966,0,0,1,3.344-1.961,8.567,8.567,0,0,1,3.622.171,10.9,10.9,0,0,1,4.148,1.686,10.716,10.716,0,0,1,3.116,4.049c.757,1.545,1.329,3.176,2.1,4.712a7.824,7.824,0,0,0,1.467,2.333,11.1,11.1,0,0,0,6.01,2.939c.375.055,1.153.235,1.427-.027a3.438,3.438,0,0,0,1.217-1.769,13.794,13.794,0,0,0,.341-6.127,8.479,8.479,0,0,0-3.372-5.184c-.951-.707-2.03-1.23-2.965-1.958a1.864,1.864,0,0,1-.663-.784c-.118-.326-.285-.807.049-.9a25.984,25.984,0,0,0,6.775-2.994,2.8,2.8,0,0,0,.893-.765c.219-.329.462-.6.241-.926a13.107,13.107,0,0,0-1.636-2.081c-1.232-1.209-2.841-1.941-4.082-3.138a26.573,26.573,0,0,1-3.391-4.94,6.851,6.851,0,0,0-2.848-2.995,7.152,7.152,0,0,0-4.159-.435,4.227,4.227,0,0,0-2.306,1.023,3.641,3.641,0,0,0-.959,2.443,11.273,11.273,0,0,0,.316,2.662c.13.66.3,1.944-.6,2.192s-1.21-.767-1.3-1.428c-.34-2.484-1.923-3.744-4.216-4.223-2.016-.422-4.259-.552-5.779-2.123a9.145,9.145,0,0,1-.9-1.167c-.881-1.267-1.995-1.979-2.748-3.325a2.777,2.777,0,0,0-3.043-1.019c-.9.2-1.9.626-2.665.113a2.868,2.868,0,0,1-.6-.632,12.179,12.179,0,0,0-3.006-2.64c-.8-.512-2.96-1.027-2.877-2.19.036-.5.5-.842.93-1.093A15.376,15.376,0,0,1,224,223.569c2.115-.677,3.616-2.316,5.022-3.949,1.5-1.743,2.851-3.462,5.161-4.072,2.531-.669,5.6.059,7.959,1.076a6.832,6.832,0,0,0,2,.675,1.811,1.811,0,0,0,1.812-.827,2.478,2.478,0,0,0,.084-1.514,6.109,6.109,0,0,0-1.619-3.676c-1.012-.9-1.4-2.281-2.663-2.772a3.05,3.05,0,0,0-3.62,1,4.909,4.909,0,0,0-.563,1.784l-.226,1.257c.147.241-.018.267-.266.4a1.271,1.271,0,0,1-.827.066,2.6,2.6,0,0,1-2.175-1.77,5.57,5.57,0,0,1,.007-1.457c.074-1.644-.325-3.25-.017-4.892.208-1.109.849-2,1.138-3.025a5.644,5.644,0,0,0-.6-3.637,7.736,7.736,0,0,0-2.127-2.671c-1.689-1.352-2.121-3.883-2.1-5.92a8.1,8.1,0,0,1,.565-3.19,21.97,21.97,0,0,0,1.669-3.487,9.118,9.118,0,0,0,.119-2.709c-.024-.423-.056-.187.18-.539a2.4,2.4,0,0,1,.982-.784,1.971,1.971,0,0,1,.74-.216c1.684-.086,2.823,2.968,3.884,4a10.528,10.528,0,0,0,4.2,2.474,8.408,8.408,0,0,0,5.069-.53,5.335,5.335,0,0,0,3.5-3.135c4.543,1.461,9.561-1.7,9.257-6.654-.092-1.5-.282-3.011-.407-4.506a8.765,8.765,0,0,1,.959-5.083q-2.434.191-4.853.53a16.859,16.859,0,0,0-3.125.6c-.182-.092.418-.31.223-.249a.663.663,0,0,1-.267.06c-.251-.03-.276-.385-.221-.633.217-.969.572-1.907.739-2.886a4.152,4.152,0,0,0-.4-2.887,4.84,4.84,0,0,0-2.579-2.4c-.548-.208-1.136-.295-1.687-.495-1.086-.395-1.982-1.212-3.076-1.583a4.565,4.565,0,0,0-5.049,1.782,5.424,5.424,0,0,0-.231,5.466c1.346,2.579,4.38,3.838,6.051,6.219a2.634,2.634,0,0,1,.584,1.595,1.191,1.191,0,0,1-1.05,1.168,2,2,0,0,1-1.092-.489,9.987,9.987,0,0,0-5.541-1.765c-2.1-.022-3.685.149-4.347-2.3a17.92,17.92,0,0,1-.331-3.332,13.822,13.822,0,0,0-1.124-4.486c-.732-1.666-1.981-3.309-3.77-3.64-.861-.159-.04-1.387.585-2a3.456,3.456,0,0,1,2.468-.672,29.747,29.747,0,0,1,3.625.172c1.868.224,3.7.719,5.563.954a10.049,10.049,0,0,0,5.536-.611c2.259-1.065,3.377-3.442,4.632-5.444,2.121-3.385,2.267-7.072,1.959-10.992-.056-.718-.271-1.523-.276-2.225a.673.673,0,0,1,.555-.6,2.135,2.135,0,0,1,.873.052,19.787,19.787,0,0,0,6.646-.09,5.025,5.025,0,0,1,4.77,1.476,2.3,2.3,0,0,1,.764,1.541c-.025.969-1.039,1.565-1.92,1.971l-1.842.847c-.449.207-.971.527-.945,1.02a1.2,1.2,0,0,0,.2.529,22.427,22.427,0,0,0,8.884,8.817c0,.1-.16.187-.161.291q-1.432.279-2.871.515a4.58,4.58,0,0,0,.525,2.378,39.3,39.3,0,0,0,3.388,7.167c1.664,2.44,3.965,4.485,7.009,4.79,3.73.374,7.14-2.782,9.076-5.639a22.286,22.286,0,0,0,6.505.678,16.422,16.422,0,0,0,8.313-2.831,8.819,8.819,0,0,0,2.407-3.4c.684-1.317,1.795-1.657,3.3-1.66a13.156,13.156,0,0,1,3.717.531c1.145.335,2.16,1.14,3.254,1.46a20.006,20.006,0,0,0,4.108.276,24.444,24.444,0,0,0,4.251-.064c2.91-.344,5.938-1.119,8.018-3.183a8.079,8.079,0,0,0,2.359-6c-.086-2.018-.954-5.157-3.093-5.875a.6.6,0,0,0-.26-.042.66.66,0,0,0-.316.17c-1.035.835-2.034,1.691-3.031,2.57a3.7,3.7,0,0,1-2.213,1.18,3.394,3.394,0,0,1-1.169-.246,16.23,16.23,0,0,1-7.355-5.345c-1.173-1.457-2.231-2.792-4.17-3.05a6.322,6.322,0,0,0-4.593,1.171,5.255,5.255,0,0,1-2.1,1.3c-1.376.23-5.056-3.252-3.259-4.054a1.324,1.324,0,0,1,.563-.073l5.612.085a9.621,9.621,0,0,0,3.774-.447,3.277,3.277,0,0,0,2.193-2.856,3.873,3.873,0,0,0-1.047-2.333,9.745,9.745,0,0,0-7.554-3.46c-1.671.03-3.3.488-4.977.4a8.389,8.389,0,0,1-4.391-1.857c-1.808-1.211-4.255-1.8-6.309-2.577a17.293,17.293,0,0,0-5.636-1.433,5.861,5.861,0,0,0-5.089,2.324c-1.011,1.556-.918,3.567-.659,5.4a7.931,7.931,0,0,0,1.42,3.853,2.185,2.185,0,0,1,.4.878,1.792,1.792,0,0,1-.268.995,8.955,8.955,0,0,1-2.01,2.577,4.166,4.166,0,0,0-.785.8,2.5,2.5,0,0,0-.343,1.038,4.847,4.847,0,0,0,1.355,4.007c.465.465,1.085,1.012.89,1.639a1.563,1.563,0,0,1-1.74-.11,4.586,4.586,0,0,1-1.181-1.416l-2.417-3.857c-.964-1.539.27-2.788.561-4.58.584-3.6,1.2-7.286,3-10.457a28.012,28.012,0,0,0,2.272-4.462c.159-.457,1.444-3.919,1.066-4.093.472.217.613.647.919,1.021a5.929,5.929,0,0,0,1.093.983,9.47,9.47,0,0,0,2.645,1.324,24.342,24.342,0,0,0,5.029.9,23.773,23.773,0,0,0,3.951.032c1.148,2.148,2.193,4.538,4.494,5.334a10.534,10.534,0,0,0,2.1.419,11.563,11.563,0,0,0,5.271-.133c1.676-.582,3.125-2.231,2.855-3.985.214,1.386,2.107,1.93,3.14,2.373a19.349,19.349,0,0,0,4.866,1.79,11.793,11.793,0,0,0,3.921-.425,14.183,14.183,0,0,1,4.46.282,49.116,49.116,0,0,1,8.889,2.7c2.04.765,3.616,3.6,4.481,5.487a12.047,12.047,0,0,0,.719,1.462,8.409,8.409,0,0,0,1.936,1.956c1.517,1.217,3.37,2.463,5.255,1.986,2.716-.688,5.2,1.336,7.993,1.14a9.257,9.257,0,0,0,7.182-3.764,9.746,9.746,0,0,0,1.191-2.842c.141-.532.078-2.387.451-2.734.933-.868,1.937.929,2.363,1.465.367.461.842.828,1.205,1.292a3.567,3.567,0,0,1,.63,3.063,14.679,14.679,0,0,0-4.683,2.174.66.66,0,0,0-.271.292.652.652,0,0,0,.027.393,9.594,9.594,0,0,0,4.37,5.574c.411.237.112,1.124-.2,1.479a1.117,1.117,0,0,1-1.3.248,2.7,2.7,0,0,1-.838-.878,4.313,4.313,0,0,0-1.712-1.4,6.871,6.871,0,0,0-2.068-.413c-2.777-.263-5.559-.526-8.348-.516-.251-.245-.623-.053-.826.233a1.841,1.841,0,0,0-.237,1.009,15.971,15.971,0,0,0,.129,3.579,8.032,8.032,0,0,0,2.22,4.186,10.033,10.033,0,0,0,6.05,2.661c1.34.139,2.914-.283,4.167-.094,1.306.2,1.785,1.467,2.427,2.6a14.558,14.558,0,0,0,21.67,4.261,2.979,2.979,0,0,0,.961-1.092,2.781,2.781,0,0,0,.1-1.522,8.588,8.588,0,0,0-3.038-5.3,3.937,3.937,0,0,0,.923-1.151c.806-1.236.895-2.786,1.251-4.218a11.092,11.092,0,0,1,.958-2.5,8.2,8.2,0,0,1,2.346-3.192c.256-.217.553-.52.431-.833a.7.7,0,0,0-.192-.248c-1.1-1.015-2.641-1.108-4.032-1.389a16.953,16.953,0,0,0-5.022-.252c-.584.058-2.044.625-2.444,0-.259-.4.067-1.2.289-1.556a2.9,2.9,0,0,1,.941-.848c1.741-1.123,3.946-2.326,6.06-1.87.814.176,1.6.467,2.423.6a9.786,9.786,0,0,0,2.726-.016,20.949,20.949,0,0,0,5.475-1.436,8.16,8.16,0,0,1,9.81,3.408,1.967,1.967,0,0,1,.352,1.173c-.115,1.034-1.427,1.337-2.414,1.664a5.914,5.914,0,0,0-3.945,5.244c-.106,2.692,2.589,5.183,4.28,7.031l7.036,7.688a19.188,19.188,0,0,1,2.6,3.781c1.756,3.145.683,6.6,3.163,9.549a15.355,15.355,0,0,0,5.591,3.931c.968.433,1.007.668,2.063.759.343.029.6.333.913.194a.764.764,0,0,0,.3-.3,12.633,12.633,0,0,0,1.7-3.988,23.061,23.061,0,0,0,1.078-4.5,20.762,20.762,0,0,0,.034-4.578,7.082,7.082,0,0,0,4.266,1.609c-.013-.093-.085.072-.145.145a9.007,9.007,0,0,0-1.784,3.581,5.292,5.292,0,0,0,.478,3.982c.821,1.308,2.255,2.4,3.227,3.622.99,1.244,1.947,2.744,1.67,4.31a8.855,8.855,0,0,0-1.969,2.375,14.035,14.035,0,0,0-2.569,6.308,6.492,6.492,0,0,0,2.555,6.03,5.351,5.351,0,0,0-2.031,3.358,2.385,2.385,0,0,0,.3,2.279,21.029,21.029,0,0,1-6.041,1.22,9.776,9.776,0,0,0,2.3-4.361,27.587,27.587,0,0,0,1.1-8.162,9.666,9.666,0,0,0-6.356-.311,9.3,9.3,0,0,0-5.079,3.814c-.471-2.842-2.555-4.923-5.082-6.305a20.827,20.827,0,0,0-8.31-2.131c.53,2.911-.24,6.131-.521,9.077a13.021,13.021,0,0,0,.52,5.789,5.72,5.72,0,0,0,1.021,1.923,2.8,2.8,0,0,0,1.88,1.012c1.207.075,3.7-.308,3.876,1.523.295,3.064-6.935,3.051-8.583,2.991-2.762-.1-5.49-.887-8.248-.72-1.531-.126-2.662.936-3.571,2.175a11.794,11.794,0,0,0-1.715,4.244,19.551,19.551,0,0,1-1.385,4.382c-.159.308-.337.606-.515.9a4.679,4.679,0,0,0,2.965,1.108c1.6.127,3.323.225,4.677-.633,2.157-1.367,2.368-4.432,3.9-6.473a5,5,0,0,1,3.575-2.035,5.133,5.133,0,0,1,3.687,1.372c1.9,1.706,3.975,3.247,5.382,5.461a14.6,14.6,0,0,1,2.3,7.731,6.164,6.164,0,0,1-1.217,4.116,7.8,7.8,0,0,1-4.237,2,27.014,27.014,0,0,1-10.967.512,10.182,10.182,0,0,0,6.08,8.177A20.147,20.147,0,0,0,401.689,246c-1.573,2.377-2.146,5.6-.776,8.1a7.971,7.971,0,0,0,1.759,2.355,10.47,10.47,0,0,1,7.293-2.323c.3.017.5.036.792.075a17.688,17.688,0,0,0-2.608,9.083,37.907,37.907,0,0,1-.021,5.661,1.808,1.808,0,0,1-.764,1.17,1.806,1.806,0,0,0,1.161.434,14.063,14.063,0,0,0,5.753-.419,8.457,8.457,0,0,0,4.612-3.339,11.645,11.645,0,0,0,3.089,8.857,12,12,0,0,0,8.685,3.917,11.222,11.222,0,0,0-.117-3.721,7.537,7.537,0,0,0,3.11,3.157,30.7,30.7,0,0,0,4.088,1.879,11.067,11.067,0,0,1,1.739.861,8.744,8.744,0,0,1,2.775,3.153c1.96-2.449,3.776-5.371,4.019-8.5a15.609,15.609,0,0,0-.2-3.25,14.794,14.794,0,0,0-2.874-6.614,7.03,7.03,0,0,0,2.6-1.242,7.479,7.479,0,0,0,4.3,3.067,13.707,13.707,0,0,0,9.377-.4c.357-.149.53-.152.767-.457-.257.33-1.154-2.476-1.17-2.557-.179-.907-.353-1.824-.591-2.717a10.412,10.412,0,0,0-.636-2.5,10.745,10.745,0,0,0,8.418-.363c.818-.4,1.585-.9,2.43-1.233a6.756,6.756,0,0,1,2.731-.463c.786.029,1.614.5,2.4.386.472-.066.427-.172.359-.639a6.109,6.109,0,0,0-.3-1.118,14.889,14.889,0,0,0-5.348-7.544,9.945,9.945,0,0,0-10.514-.439,7.516,7.516,0,0,0-2,1.773c-.07-.7-.556-1.017-.95-1.594l-1.221-1.788a4.575,4.575,0,0,0-1.393-1.353,3.175,3.175,0,0,0,1.111-3.37,7.466,7.466,0,0,1,7.149,1.474,27.654,27.654,0,0,1,.7-6.33c.459-1.687,1.391-3.416,1.466-5.173a7.9,7.9,0,0,0-.38-2.7c-.166-.526-.949-1.57.078-1.74a1.188,1.188,0,0,1,.974.372,7.739,7.739,0,0,1,.674.843,6.757,6.757,0,0,0,2.918,1.939,15.642,15.642,0,0,0,3.8.959c1.087.132,2.188.15,3.265.35a8.493,8.493,0,0,1,2.694.769l2.074,1.2c.293.169.817.922,1.2.82.62-.165.5-1.885.5-2.356A39.67,39.67,0,0,0,480.307,225.744Z" fill="#e6e6e6"/><path d="M319.14,413.591l-.028,0C319.125,413.646,319.133,413.625,319.14,413.591Z" fill="none" stroke="#000" stroke-linecap="round" stroke-linejoin="round"/><path d="M58.244,124.116c1.071-1.5,5.781-2.357,5.781-2.357s.738,4.73-.333,6.235a3.344,3.344,0,1,1-5.449-3.878Z" fill="none" stroke="#000" stroke-linecap="round" stroke-linejoin="round" stroke-dasharray="2 4"/><path d="M72.321,124.116c1.071-1.5,5.781-2.357,5.781-2.357s.738,4.73-.333,6.235a3.344,3.344,0,1,1-5.449-3.878Z" fill="none" stroke="#000" stroke-linecap="round" stroke-linejoin="round" stroke-dasharray="2 4"/><path d="M65.581,136.62c1.071-1.5,5.781-2.357,5.781-2.357s.738,4.73-.333,6.235a3.344,3.344,0,1,1-5.449-3.878Z" fill="none" stroke="#000" stroke-linecap="round" stroke-linejoin="round" stroke-dasharray="2 4"/><path d="M86.4,124.115c1.071-1.5,5.781-2.357,5.781-2.357s.738,4.73-.333,6.235a3.344,3.344,0,1,1-5.449-3.878Z" fill="none" stroke="#000" stroke-linecap="round" stroke-linejoin="round" stroke-dasharray="2 4"/><path d="M78.42,136.62c1.071-1.5,5.781-2.357,5.781-2.357s.738,4.73-.333,6.235a3.344,3.344,0,1,1-5.449-3.878Z" fill="none" stroke="#000" stroke-linecap="round" stroke-linejoin="round" stroke-dasharray="2 4"/><path d="M91.259,136.62c1.071-1.5,5.781-2.357,5.781-2.357s.738,4.73-.333,6.235a3.344,3.344,0,1,1-5.449-3.878Z" fill="none" stroke="#000" stroke-linecap="round" stroke-linejoin="round" stroke-dasharray="2 4"/><polyline points="118.254 119.481 115.37 124.855 125.637 127.451 96.453 156.482 110.218 130.835 99.952 128.24 108.869 119.368" fill="none" stroke="#000" stroke-linecap="round" stroke-linejoin="round" stroke-dasharray="2 4"/><path d="M123.256,119.339a13.4,13.4,0,1,0,0-26.8c-.081,0-.162,0-.243.006A23.449,23.449,0,0,0,80.5,75.881a13.4,13.4,0,0,0-17.442,18.4,13.4,13.4,0,0,0,6.6,25.064h53.6Z" fill="none" stroke="#000" stroke-linecap="round" stroke-linejoin="round" stroke-dasharray="2 4"/><path d="M319.14,413.591l-.028,0C319.125,413.646,319.133,413.625,319.14,413.591Z" fill="none" stroke="#000" stroke-linecap="round" stroke-linejoin="round" stroke-dasharray="2 4"/><path d="M319.14,413.591c-.007.034-.015.054-.028,0Z" fill="none" stroke="#000" stroke-linecap="round" stroke-linejoin="round" stroke-dasharray="2 4"/><path d="M208.828,266.887a5.986,5.986,0,0,0-5.986-10.367,5.986,5.986,0,0,0-11.971,0,5.986,5.986,0,0,0-5.986,10.367,5.986,5.986,0,0,0,5.986,10.367,5.986,5.986,0,0,0,11.971,0,5.986,5.986,0,0,0,5.986-10.368Z" fill="none" stroke="#000" stroke-linecap="round" stroke-linejoin="round" stroke-dasharray="1 3"/><path d="M226.493,187.535a5.986,5.986,0,0,0-5.986-10.367,5.986,5.986,0,0,0-11.971,0,5.986,5.986,0,0,0-5.986,10.367,5.986,5.986,0,0,0,5.986,10.367,5.986,5.986,0,0,0,11.971,0,5.986,5.986,0,0,0,5.986-10.368Z" fill="none" stroke="#000" stroke-linecap="round" stroke-linejoin="round" stroke-dasharray="1 3"/><path d="M201.29,153.157a4.564,4.564,0,0,0-4.563-7.9,4.564,4.564,0,0,0-9.127,0,4.564,4.564,0,0,0-4.563,7.9,4.564,4.564,0,0,0,4.563,7.9,4.564,4.564,0,0,0,9.126,0,4.564,4.564,0,0,0,4.563-7.9Z" fill="none" stroke="#000" stroke-linecap="round" stroke-linejoin="round" stroke-dasharray="1 3"/><path d="M250.049,112.237a4.564,4.564,0,0,0-2.642-8.736,4.564,4.564,0,0,0-8.886-2.08,4.564,4.564,0,0,0-6.244,6.656,4.564,4.564,0,0,0,2.642,8.736,4.564,4.564,0,0,0,8.886,2.08,4.564,4.564,0,0,0,6.244-6.656Z" fill="none" stroke="#000" stroke-linecap="round" stroke-linejoin="round" stroke-dasharray="1 3"/><path d="M293.327,73.165a5.466,5.466,0,0,0-5.843-9.237,5.466,5.466,0,0,0-10.921.442,5.466,5.466,0,0,0-5.078,9.679,5.466,5.466,0,0,0,5.844,9.237,5.466,5.466,0,0,0,10.921-.442,5.466,5.466,0,0,0,5.078-9.679Z" fill="none" stroke="#000" stroke-linecap="round" stroke-linejoin="round" stroke-dasharray="1 3"/><path d="M351.565,81.017a5,5,0,0,0-5-8.652,5,5,0,0,0-9.991,0,5,5,0,0,0-5,8.652,5,5,0,0,0,5,8.652,5,5,0,0,0,9.991,0,5,5,0,0,0,5-8.652Z" fill="none" stroke="#000" stroke-linecap="round" stroke-linejoin="round" stroke-dasharray="1 3"/><path d="M428.325,113.629a4.975,4.975,0,0,0-4.975-8.617,4.975,4.975,0,0,0-9.95,0,4.975,4.975,0,0,0-4.975,8.617,4.976,4.976,0,0,0,4.975,8.617,4.975,4.975,0,0,0,9.95,0,4.976,4.976,0,0,0,4.975-8.617Z" fill="none" stroke="#000" stroke-linecap="round" stroke-linejoin="round" stroke-dasharray="1 3"/><path d="M460.99,167.387a3.6,3.6,0,0,0,.012-7.2,3.6,3.6,0,0,0-6.227-3.609,3.6,3.6,0,0,0-6.239,3.588,3.6,3.6,0,0,0-.012,7.2,3.6,3.6,0,0,0,6.227,3.609,3.6,3.6,0,0,0,6.239-3.588Z" fill="none" stroke="#000" stroke-linecap="round" stroke-linejoin="round" stroke-dasharray="1 3"/><path d="M449.781,265.355a5.807,5.807,0,0,0-7-9.27,5.807,5.807,0,0,0-11.526,1.424,5.807,5.807,0,0,0-4.53,10.693,5.807,5.807,0,0,0,7,9.27,5.807,5.807,0,0,0,11.526-1.423,5.807,5.807,0,0,0,4.53-10.693Z" fill="none" stroke="#000" stroke-linecap="round" stroke-linejoin="round" stroke-dasharray="1 3"/><path d="M225.879,297.974c.157-.1.309-.2.463-.317q.327-.248.642-.51.386-.32.755-.66.423-.39.823-.8.44-.456.848-.943.436-.521.828-1.075c.274-.388.529-.789.764-1.2a12.892,12.892,0,0,0,.655-1.324,11.527,11.527,0,0,0,.5-1.439,10.618,10.618,0,0,0,.306-1.549,10.289,10.289,0,0,0,.065-1.653,10.667,10.667,0,0,0-.22-1.751,11.921,11.921,0,0,0-.549-1.843,14.291,14.291,0,0,0-.923-1.93,18.108,18.108,0,0,0-1.34-2.011,23.408,23.408,0,0,0-1.55-1.821s-15.011,9.563-3.12,20.49c.2.186.421.365.625.556a.041.041,0,0,0,.062,0C225.641,298.118,225.761,298.047,225.879,297.974Z" fill="none" stroke="#87b26b" stroke-linecap="round" stroke-linejoin="round"/><path d="M191.554,247.169c.181.037.362.069.553.09q.407.046.817.074.5.035,1,.043.575.01,1.151-.014.633-.027,1.264-.1.674-.076,1.341-.207c.466-.092.928-.206,1.383-.343a12.892,12.892,0,0,0,1.388-.506,11.527,11.527,0,0,0,1.357-.694,10.618,10.618,0,0,0,1.291-.909,10.289,10.289,0,0,0,1.188-1.151,10.667,10.667,0,0,0,1.049-1.419,11.921,11.921,0,0,0,.875-1.713,14.291,14.291,0,0,0,.664-2.033,18.108,18.108,0,0,0,.418-2.38,23.408,23.408,0,0,0,.135-2.388s-17.463-3.44-16.4,12.674c.018.275.053.555.068.833a.041.041,0,0,0,.042.046C191.282,247.109,191.418,247.141,191.554,247.169Z" fill="none" stroke="#87b26b" stroke-linecap="round" stroke-linejoin="round"/><path d="M180.608,218.626c.077.168.159.333.254.5q.2.356.423.7.268.424.557.833.332.47.692.92.4.5.826.962.46.5.96.959c.35.321.715.626,1.094.912a12.892,12.892,0,0,0,1.228.82,11.527,11.527,0,0,0,1.362.684,10.618,10.618,0,0,0,1.5.5,10.289,10.289,0,0,0,1.631.277,10.667,10.667,0,0,0,1.765.007,11.921,11.921,0,0,0,1.9-.308,14.291,14.291,0,0,0,2.033-.667A18.108,18.108,0,0,0,199,224.66a23.408,23.408,0,0,0,2.006-1.3s-7.554-16.116-19.918-5.728c-.211.177-.416.37-.632.548a.041.041,0,0,0-.012.061C180.495,218.371,180.55,218.5,180.608,218.626Z" fill="none" stroke="#87b26b" stroke-linecap="round" stroke-linejoin="round"/><path d="M240.7,196.662c.137-.021.272-.046.411-.08q.3-.073.592-.16.36-.106.714-.229.406-.142.8-.308.437-.183.861-.4.453-.228.887-.493c.3-.186.6-.385.881-.6a9.639,9.639,0,0,0,.842-.714,8.618,8.618,0,0,0,.772-.839,7.939,7.939,0,0,0,.669-.973,7.693,7.693,0,0,0,.535-1.115,7.976,7.976,0,0,0,.368-1.267,8.913,8.913,0,0,0,.169-1.428,10.685,10.685,0,0,0-.062-1.6,13.539,13.539,0,0,0-.324-1.778,17.5,17.5,0,0,0-.525-1.71s-13.138,2.118-8.212,13.141c.084.188.181.375.264.567a.031.031,0,0,0,.042.021C240.492,196.69,240.6,196.677,240.7,196.662Z" fill="none" stroke="#87b26b" stroke-linecap="round" stroke-linejoin="round"/><path d="M243.355,199.125c.066.193.137.381.224.574q.184.412.386.815.247.493.518.973.312.551.656,1.082.379.585.8,1.143.449.6.945,1.155c.348.39.713.764,1.1,1.118a14.176,14.176,0,0,0,1.254,1.032,12.675,12.675,0,0,0,1.416.9,11.676,11.676,0,0,0,1.582.714,11.314,11.314,0,0,0,1.754.482,11.73,11.73,0,0,0,1.93.2,13.109,13.109,0,0,0,2.111-.128,15.714,15.714,0,0,0,2.3-.507,19.912,19.912,0,0,0,2.488-.934,25.739,25.739,0,0,0,2.337-1.206s-6.5-18.462-21.165-8.452c-.25.171-.5.36-.751.53a.045.045,0,0,0-.02.066C243.26,198.834,243.306,198.98,243.355,199.125Z" fill="none" stroke="#87b26b" stroke-linecap="round" stroke-linejoin="round"/><path d="M200.9,126.007c0,.2.015.4.038.615q.05.448.12.894.085.545.2,1.085.129.619.3,1.231.183.673.412,1.332.246.7.549,1.388c.212.477.447.945.705,1.4a14.176,14.176,0,0,0,.881,1.365,12.675,12.675,0,0,0,1.075,1.286,11.676,11.676,0,0,0,1.29,1.162,11.314,11.314,0,0,0,1.524.993,11.73,11.73,0,0,0,1.777.779,13.109,13.109,0,0,0,2.05.52,15.714,15.714,0,0,0,2.342.216,19.912,19.912,0,0,0,2.654-.132,25.739,25.739,0,0,0,2.593-.437s-.571-19.563-17.589-14.492c-.29.087-.582.192-.877.277a.045.045,0,0,0-.039.057C200.9,125.7,200.9,125.854,200.9,126.007Z" fill="none" stroke="#87b26b" stroke-linecap="round" stroke-linejoin="round"/><path d="M247.3,77.466c-.043.228-.078.456-.1.7q-.048.512-.074,1.026-.032.628-.031,1.258,0,.722.044,1.443.048.794.151,1.583.111.844.291,1.678c.127.582.28,1.159.463,1.726a16.174,16.174,0,0,0,.667,1.729,14.462,14.462,0,0,0,.9,1.686,13.322,13.322,0,0,0,1.171,1.6,12.909,12.909,0,0,0,1.472,1.463,13.384,13.384,0,0,0,1.8,1.283,14.957,14.957,0,0,0,2.169,1.057,17.929,17.929,0,0,0,2.566.786,22.719,22.719,0,0,0,3,.468,29.368,29.368,0,0,0,3,.114s3.906-21.987-16.283-20.274c-.344.029-.694.079-1.044.105a.052.052,0,0,0-.056.054C247.37,77.123,247.333,77.295,247.3,77.466Z" fill="none" stroke="#87b26b" stroke-linecap="round" stroke-linejoin="round"/><path d="M314.117,70.106c-.066.148-.127.3-.182.455q-.117.339-.219.683-.125.421-.228.847-.118.49-.207.986-.1.546-.157,1.1-.063.591-.078,1.185c-.01.416,0,.832.03,1.246a11.283,11.283,0,0,0,.168,1.282,10.089,10.089,0,0,0,.335,1.292,9.294,9.294,0,0,0,.531,1.276,9.006,9.006,0,0,0,.757,1.234,9.337,9.337,0,0,0,1.012,1.166,10.434,10.434,0,0,0,1.3,1.073,12.508,12.508,0,0,0,1.611.954,15.849,15.849,0,0,0,1.954.81,20.488,20.488,0,0,0,2.014.57S329.016,72,315.047,69.844c-.238-.037-.484-.061-.725-.1a.036.036,0,0,0-.047.027C314.219,69.885,314.166,70,314.117,70.106Z" fill="none" stroke="#87b26b" stroke-linecap="round" stroke-linejoin="round"/><path d="M358.9,120.1c0-.162-.013-.322-.033-.49q-.041-.356-.1-.711-.07-.433-.161-.863-.105-.493-.24-.978-.148-.535-.333-1.058-.2-.56-.442-1.1c-.171-.379-.359-.75-.566-1.111a11.283,11.283,0,0,0-.706-1.083,10.089,10.089,0,0,0-.861-1.02,9.294,9.294,0,0,0-1.031-.92,9.006,9.006,0,0,0-1.217-.785,9.337,9.337,0,0,0-1.417-.614,10.434,10.434,0,0,0-1.634-.407,12.508,12.508,0,0,0-1.865-.164,15.849,15.849,0,0,0-2.112.115,20.488,20.488,0,0,0-2.063.358s.526,15.569,14.053,11.471c.231-.07.462-.155.7-.223a.036.036,0,0,0,.031-.045C358.906,120.343,358.906,120.221,358.9,120.1Z" fill="none" stroke="#87b26b" stroke-linecap="round" stroke-linejoin="round"/><path d="M396.537,91.9c.1.131.194.257.305.384q.237.27.485.529.3.317.624.617.367.345.754.668.426.355.876.681.482.348.991.655c.356.214.722.413,1.1.591a11.283,11.283,0,0,0,1.2.489,10.089,10.089,0,0,0,1.288.349,9.294,9.294,0,0,0,1.371.17,9.006,9.006,0,0,0,1.447-.047,9.337,9.337,0,0,0,1.515-.3,10.434,10.434,0,0,0,1.575-.6,12.508,12.508,0,0,0,1.627-.927,15.849,15.849,0,0,0,1.671-1.3,20.488,20.488,0,0,0,1.493-1.468s-9.292-12.5-18.083-1.436c-.15.189-.292.39-.446.58a.036.036,0,0,0,0,.055C396.4,91.7,396.465,91.8,396.537,91.9Z" fill="none" stroke="#87b26b" stroke-linecap="round" stroke-linejoin="round"/><path d="M438.549,133.194c.1.131.194.257.305.384q.237.27.485.529.3.317.624.617.367.345.754.668.426.355.876.681.482.348.991.655c.356.214.722.413,1.1.591a11.283,11.283,0,0,0,1.2.489,10.089,10.089,0,0,0,1.288.349,9.294,9.294,0,0,0,1.371.17,9.006,9.006,0,0,0,1.447-.047,9.337,9.337,0,0,0,1.515-.3,10.434,10.434,0,0,0,1.575-.6,12.508,12.508,0,0,0,1.627-.927,15.849,15.849,0,0,0,1.671-1.3,20.488,20.488,0,0,0,1.493-1.468s-9.292-12.5-18.083-1.436c-.15.189-.292.39-.446.58a.036.036,0,0,0,0,.055C438.408,133,438.477,133.1,438.549,133.194Z" fill="none" stroke="#87b26b" stroke-linecap="round" stroke-linejoin="round"/><path d="M439.462,120.333c.215.015.429.024.653.02q.478-.009.955-.039.583-.037,1.164-.1.666-.076,1.327-.192.728-.128,1.445-.306.767-.191,1.518-.444c.524-.178,1.04-.38,1.544-.608a15.021,15.021,0,0,0,1.526-.8,13.431,13.431,0,0,0,1.461-1.01,12.372,12.372,0,0,0,1.352-1.248,11.989,11.989,0,0,0,1.2-1.511,12.429,12.429,0,0,0,1-1.8,13.891,13.891,0,0,0,.749-2.112,16.651,16.651,0,0,0,.456-2.45,21.1,21.1,0,0,0,.119-2.813,27.275,27.275,0,0,0-.209-2.779s-20.7-1.3-17,17.149c.063.315.146.632.206.952a.048.048,0,0,0,.056.046C439.139,120.306,439.3,120.321,439.462,120.333Z" fill="none" stroke="#87b26b" stroke-linecap="round" stroke-linejoin="round"/><path d="M408.812,243.947c-.162,0-.322.008-.49.025q-.357.036-.712.088-.434.063-.865.148-.494.1-.982.225-.537.14-1.063.317-.563.19-1.109.425c-.382.165-.756.348-1.119.549a11.283,11.283,0,0,0-1.094.689,10.089,10.089,0,0,0-1.032.845,9.294,9.294,0,0,0-.936,1.017,9.006,9.006,0,0,0-.8,1.2,9.337,9.337,0,0,0-.635,1.408,10.434,10.434,0,0,0-.431,1.627,12.508,12.508,0,0,0-.192,1.862,15.849,15.849,0,0,0,.083,2.114,20.488,20.488,0,0,0,.326,2.068s15.576-.29,11.683-13.877c-.066-.232-.148-.465-.213-.7a.036.036,0,0,0-.045-.031C409.055,243.948,408.933,243.946,408.812,243.947Z" fill="none" stroke="#87b26b" stroke-linecap="round" stroke-linejoin="round"/><path d="M468.211,184.055c.252.055.5.1.768.135q.566.071,1.135.117.7.056,1.393.077.8.024,1.6,0,.882-.027,1.76-.115.94-.095,1.87-.266c.65-.121,1.294-.271,1.929-.455a17.94,17.94,0,0,0,1.939-.681,16.04,16.04,0,0,0,1.9-.944,14.777,14.777,0,0,0,1.811-1.245,14.319,14.319,0,0,0,1.672-1.582,14.845,14.845,0,0,0,1.483-1.957,16.59,16.59,0,0,0,1.245-2.369,19.887,19.887,0,0,0,.958-2.819,25.2,25.2,0,0,0,.62-3.305,32.575,32.575,0,0,0,.227-3.321s-24.244-5.07-23.025,17.37c.021.383.064.772.082,1.161a.057.057,0,0,0,.058.064C467.833,183.967,468.022,184.013,468.211,184.055Z" fill="none" stroke="#87b26b" stroke-linecap="round" stroke-linejoin="round"/><path d="M455.05,218.143c-.114.112-.223.226-.331.353q-.229.269-.446.549-.265.341-.513.7-.284.407-.544.83-.286.466-.539.952-.27.519-.5,1.06c-.158.378-.3.763-.42,1.155a11.119,11.119,0,0,0-.306,1.237,9.942,9.942,0,0,0-.156,1.306,9.159,9.159,0,0,0,.03,1.361,8.875,8.875,0,0,0,.252,1.4,9.2,9.2,0,0,0,.511,1.434,10.282,10.282,0,0,0,.805,1.45,12.326,12.326,0,0,0,1.136,1.454,15.619,15.619,0,0,0,1.5,1.444,20.19,20.19,0,0,0,1.644,1.246s10.865-10.846-1.182-17.838c-.206-.119-.422-.229-.629-.352a.036.036,0,0,0-.053.008C455.224,217.977,455.136,218.059,455.05,218.143Z" fill="none" stroke="#87b26b" stroke-linecap="round" stroke-linejoin="round"/><path d="M382.646,84.869c.117-.111.23-.226.341-.352q.237-.27.462-.55.275-.342.532-.7.3-.408.566-.834.3-.468.562-.957.283-.523.522-1.067c.167-.381.316-.769.445-1.165a11.283,11.283,0,0,0,.331-1.25,10.089,10.089,0,0,0,.18-1.322,9.294,9.294,0,0,0-.008-1.382,9.006,9.006,0,0,0-.233-1.429,9.337,9.337,0,0,0-.495-1.463,10.434,10.434,0,0,0-.793-1.485,12.508,12.508,0,0,0-1.129-1.494,15.849,15.849,0,0,0-1.5-1.49,20.488,20.488,0,0,0-1.648-1.291s-11.2,10.826.906,18.118c.207.124.425.239.633.368a.036.036,0,0,0,.054-.008C382.467,85.035,382.558,84.953,382.646,84.869Z" fill="none" stroke="#87b26b" stroke-linecap="round" stroke-linejoin="round"/><path d="M317.587,114.322c.048-.155.09-.31.124-.475q.074-.351.132-.705.071-.433.121-.869.056-.5.083-1,.029-.554.02-1.109-.011-.594-.069-1.186-.063-.62-.185-1.233a11.283,11.283,0,0,0-.326-1.251,10.089,10.089,0,0,0-.493-1.24,9.294,9.294,0,0,0-.686-1.2,9.006,9.006,0,0,0-.9-1.13,9.337,9.337,0,0,0-1.15-1.032,10.434,10.434,0,0,0-1.42-.9,12.508,12.508,0,0,0-1.717-.747,15.849,15.849,0,0,0-2.04-.561,20.488,20.488,0,0,0-2.07-.315s-4.44,14.932,9.689,15.336c.241.007.488,0,.732.009a.036.036,0,0,0,.043-.033C317.513,114.554,317.552,114.438,317.587,114.322Z" fill="none" stroke="#87b26b" stroke-linecap="round" stroke-linejoin="round"/><path id="primary" d="M477.565,212.31a4.023,4.023,0,0,0-1.241-1.689A.977.977,0,0,1,477.4,209a5.928,5.928,0,0,1,2.252,3.476l.009.074a3.984,3.984,0,0,0,.443-.182,5.293,5.293,0,0,1,4.463-.215c2.353.977,3.349,3.32,2.93,6.923-.469,4.5-2.6,9.287-5.566,9.287a3.711,3.711,0,0,1-1.953-.6,2.07,2.07,0,0,0-1.162-.381,2.041,2.041,0,0,0-1.133.371,3.75,3.75,0,0,1-1.953.6c-2.93,0-5.1-4.785-5.586-9.287s1.309-6.23,2.93-6.914a5.3,5.3,0,0,1,4.463.215Z" fill="none" stroke="#000" stroke-linecap="round" stroke-linejoin="round" stroke-dasharray="1 3"/><path id="primary-2" data-name="primary" d="M394.79,215.381a6.228,6.228,0,0,1,5.225.489c1.772,1.063,3.575,3.371,2.262,8.525s-4.626,10.36-8.033,9.874a4.4,4.4,0,0,1-2.173-1.016,2.4,2.4,0,0,0-1.256-.619,2.432,2.432,0,0,0-1.414.25,4.359,4.359,0,0,1-2.37.369c-3.452-.492-5.135-6.408-4.935-11.721.108-4.26,1.655-6.82,4.553-7.566a6.217,6.217,0,0,1,5.154.989,4.68,4.68,0,0,0,.485.285l.023-.085a6.963,6.963,0,0,1,3.195-3.67,1.147,1.147,0,0,1,.981,2.063,4.725,4.725,0,0,0-1.723,1.758Z" fill="none" stroke="#000" stroke-linecap="round" stroke-linejoin="round" stroke-dasharray="1 3"/><path id="primary-3" data-name="primary" d="M422.622,150.863a4.536,4.536,0,0,0-1.4-1.9,1.1,1.1,0,0,1,1.211-1.828,6.685,6.685,0,0,1,2.54,3.92l.011.084a4.493,4.493,0,0,0,.5-.205,5.969,5.969,0,0,1,5.033-.242c2.654,1.1,3.777,3.744,3.3,7.808-.529,5.077-2.929,10.473-6.277,10.473a4.185,4.185,0,0,1-2.2-.672,2.335,2.335,0,0,0-1.31-.429,2.3,2.3,0,0,0-1.277.418,4.229,4.229,0,0,1-2.2.672c-3.3,0-5.748-5.4-6.3-10.473s1.476-7.026,3.3-7.8a5.98,5.98,0,0,1,5.033.242Z" fill="none" stroke="#000" stroke-linecap="round" stroke-linejoin="round" stroke-dasharray="1 3"/><path id="primary-4" data-name="primary" d="M393.1,110.749a3.717,3.717,0,0,0-1.147-1.56.9.9,0,0,1,.993-1.5,5.477,5.477,0,0,1,2.081,3.212l.009.069a3.681,3.681,0,0,0,.409-.168,4.89,4.89,0,0,1,4.124-.2c2.175.9,3.095,3.068,2.707,6.4-.433,4.16-2.4,8.581-5.143,8.581a3.429,3.429,0,0,1-1.8-.55,1.913,1.913,0,0,0-1.074-.352,1.886,1.886,0,0,0-1.047.343,3.465,3.465,0,0,1-1.8.55c-2.707,0-4.71-4.421-5.161-8.581s1.209-5.757,2.707-6.388a4.9,4.9,0,0,1,4.124.2Z" fill="none" stroke="#000" stroke-linecap="round" stroke-linejoin="round" stroke-dasharray="1 3"/><path id="primary-5" data-name="primary" d="M267.763,120.53a4.465,4.465,0,0,1,3.758-.181c1.365.576,2.878,2.031,2.467,5.822s-2.237,7.821-4.7,7.821a3.158,3.158,0,0,1-1.645-.5,1.719,1.719,0,0,0-.954-.312,1.743,1.743,0,0,0-.979.321,3.125,3.125,0,0,1-1.645.5c-2.5,0-4.293-4.03-4.688-7.821-.354-3.035.485-5.008,2.467-5.831a4.457,4.457,0,0,1,3.758.181,3.355,3.355,0,0,0,.373.153l.008-.063a4.992,4.992,0,0,1,1.9-2.928.822.822,0,0,1,.9,1.365,3.388,3.388,0,0,0-1.045,1.422Z" fill="none" stroke="#000" stroke-linecap="round" stroke-linejoin="round" stroke-dasharray="1 3"/><path id="primary-6" data-name="primary" d="M246.588,266.837a4.981,4.981,0,0,0-1.537-2.091,1.209,1.209,0,0,1,1.33-2.007,7.34,7.34,0,0,1,2.789,4.3l.012.092a4.933,4.933,0,0,0,.549-.225,6.554,6.554,0,0,1,5.526-.266c2.914,1.209,4.148,4.111,3.628,8.573-.58,5.574-3.216,11.5-6.892,11.5a4.6,4.6,0,0,1-2.418-.738,2.563,2.563,0,0,0-1.439-.472,2.527,2.527,0,0,0-1.4.459,4.643,4.643,0,0,1-2.418.738c-3.628,0-6.312-5.925-6.917-11.5s1.62-7.715,3.628-8.561a6.566,6.566,0,0,1,5.526.266Z" fill="none" stroke="#000" stroke-linecap="round" stroke-linejoin="round" stroke-dasharray="1 3"/><path d="M340.368,252.922h-5.1a10.8,10.8,0,0,0-1-3.5,7.82,7.82,0,0,0,3.1-6.1v-.4a1,1,0,1,0-2,0v.4a5.637,5.637,0,0,1-2.2,4.5,7.725,7.725,0,0,0-1.9-1.7v-.2a4,4,0,1,0-8,0v.2a10.081,10.081,0,0,0-1.9,1.7,6.11,6.11,0,0,1-2-4.5v-.4a1,1,0,1,0-2,0v.4a7.4,7.4,0,0,0,3.1,6.1,9.532,9.532,0,0,0-1,3.5h-5.1a1,1,0,0,0,0,2h5.1a10.8,10.8,0,0,0,1,3.5,7.4,7.4,0,0,0-3.1,6.1v.4a1,1,0,0,0,2,0v-.4a5.637,5.637,0,0,1,2.2-4.5,7.491,7.491,0,0,0,5.8,2.9,7.342,7.342,0,0,0,5.8-2.9,5.637,5.637,0,0,1,2.2,4.5v.4a1,1,0,0,0,2,0v-.4a7.4,7.4,0,0,0-3.1-6.1,9.532,9.532,0,0,0,1-3.5h5.1a1,1,0,0,0,0-2Z" fill="none" stroke="#000" stroke-linecap="round" stroke-linejoin="round" stroke-dasharray="1 2"/><path d="M343.25,283.25h-3.825a8.1,8.1,0,0,0-.75-2.625A5.865,5.865,0,0,0,341,276.05v-.3a.75.75,0,0,0-1.5,0v.3a4.228,4.228,0,0,1-1.65,3.375,5.794,5.794,0,0,0-1.425-1.275V278a3,3,0,0,0-6,0v.15A7.561,7.561,0,0,0,329,279.425a4.582,4.582,0,0,1-1.5-3.375v-.3a.75.75,0,0,0-1.5,0v.3a5.549,5.549,0,0,0,2.325,4.575,7.149,7.149,0,0,0-.75,2.625H323.75a.75.75,0,0,0,0,1.5h3.825a8.1,8.1,0,0,0,.75,2.625A5.549,5.549,0,0,0,326,291.95v.3a.75.75,0,0,0,1.5,0v-.3a4.228,4.228,0,0,1,1.65-3.375,5.619,5.619,0,0,0,4.35,2.175,5.507,5.507,0,0,0,4.35-2.175,4.228,4.228,0,0,1,1.65,3.375v.3a.75.75,0,0,0,1.5,0v-.3a5.549,5.549,0,0,0-2.325-4.575,7.149,7.149,0,0,0,.75-2.625h3.825a.75.75,0,0,0,0-1.5Z" fill="none" stroke="#000" stroke-linecap="round" stroke-linejoin="round" stroke-dasharray="1 2"/><rect x="34" y="184" width="129" height="31" rx="6" ry="6" fill="#87b26b"/><path d="M143.7,189.518a.336.336,0,0,1-.288-.128.542.542,0,0,1-.1-.336c0-.32.129-.48.385-.48h.527v-1.16a.561.561,0,0,1,.093-.364.361.361,0,0,1,.292-.108.41.41,0,0,1,.315.108.531.531,0,0,1,.1.364v1.16h.424a.351.351,0,0,1,.319.136.621.621,0,0,1,.089.344.582.582,0,0,1-.089.336.36.36,0,0,1-.319.128h-.32c.08.144.146.268.2.372l.147.288c.046.088.087.171.124.248s.078.164.12.26a1.185,1.185,0,0,1,.116.428.288.288,0,0,1-.156.268.42.42,0,0,1-.292.092c-.082-.013-.153-.092-.212-.236q-.056-.176-.088-.264c-.021-.059-.043-.115-.063-.168v3.32a.561.561,0,0,1-.093.364.385.385,0,0,1-.308.108.389.389,0,0,1-.3-.108.526.526,0,0,1-.1-.364v-2.832c-.048.139-.089.267-.124.384a1.659,1.659,0,0,1-.14.336.793.793,0,0,1-.3.408.28.28,0,0,1-.328-.04.336.336,0,0,1-.16-.284,1.018,1.018,0,0,1,.144-.444q.24-.5.477-1.06a7.847,7.847,0,0,0,.372-1.076Zm6.664-.224v4.176a2.737,2.737,0,0,1-.044.54.754.754,0,0,1-.152.34.551.551,0,0,1-.28.176,1.508,1.508,0,0,1-.436.04c-.123-.005-.235-.015-.336-.028a2.7,2.7,0,0,1-.312-.06.5.5,0,0,1-.344-.2.519.519,0,0,1-.024-.356.436.436,0,0,1,.185-.3.529.529,0,0,1,.416.008,1.718,1.718,0,0,0,.216.052.938.938,0,0,0,.144.012c.086,0,.128-.083.128-.248v-4.152H148.5a.391.391,0,0,1-.28-.08,10.428,10.428,0,0,1-.128,1.22,8.134,8.134,0,0,1-.28,1.148q.152.36.292.736t.276.768a.936.936,0,0,1,.064.42.354.354,0,0,1-.232.26.336.336,0,0,1-.312.02.668.668,0,0,1-.24-.364q-.081-.208-.152-.412c-.048-.136-.1-.265-.152-.388a5.758,5.758,0,0,1-.451.692,8.137,8.137,0,0,1-.6.692.722.722,0,0,1-.4.264.315.315,0,0,1-.288-.136.417.417,0,0,1-.132-.344.979.979,0,0,1,.275-.424,6.5,6.5,0,0,0,.721-.9,5.7,5.7,0,0,0,.472-.872q-.208-.48-.42-.908t-.46-.9a.629.629,0,0,1-.116-.392.423.423,0,0,1,.22-.3.371.371,0,0,1,.288-.056.418.418,0,0,1,.264.256c.091.176.185.359.28.548s.192.386.288.588q.064-.336.1-.68t.067-.752a.225.225,0,0,0-.008-.116q-.016-.028-.088-.028H146.2a.331.331,0,0,1-.292-.132.512.512,0,0,1-.092-.3.5.5,0,0,1,.092-.308A.34.34,0,0,1,146.2,188h1.319a.828.828,0,0,1,.5.116.575.575,0,0,1,.192.4.389.389,0,0,1,.288-.1h1.023V187.4q0-.44.416-.44a.431.431,0,0,1,.313.108.444.444,0,0,1,.112.332v1.008h.1a.339.339,0,0,1,.312.128.607.607,0,0,1,.08.328.555.555,0,0,1-.08.308.344.344,0,0,1-.312.124Zm-1.009,2.528a1.053,1.053,0,0,1,0,.4c-.024.072-.105.124-.244.156a.354.354,0,0,1-.292-.032.618.618,0,0,1-.141-.368q-.032-.208-.067-.4c-.024-.128-.051-.257-.08-.388s-.062-.265-.1-.4l-.12-.448a.54.54,0,0,1-.02-.332.323.323,0,0,1,.2-.212.334.334,0,0,1,.315.008.567.567,0,0,1,.173.312c.09.336.165.64.224.912S149.314,191.566,149.352,191.822Z" fill="#fff"/><path d="M154.1,193.182a2.486,2.486,0,0,1-.031.428.6.6,0,0,1-.124.28.5.5,0,0,1-.256.152,1.689,1.689,0,0,1-.42.044h-.992a2.076,2.076,0,0,1-.4-.032.455.455,0,0,1-.252-.132.59.59,0,0,1-.132-.276,2.195,2.195,0,0,1-.04-.464V188.27a1.948,1.948,0,0,1,.036-.408.553.553,0,0,1,.128-.268.52.52,0,0,1,.248-.144,1.484,1.484,0,0,1,.4-.044h1.024a1.535,1.535,0,0,1,.4.044.525.525,0,0,1,.248.144.571.571,0,0,1,.128.268,2.024,2.024,0,0,1,.035.408Zm-.88-4.728c0-.048-.008-.079-.023-.092a.145.145,0,0,0-.088-.02h-.648c-.043,0-.069.007-.08.02a.168.168,0,0,0-.016.092v4.576a.2.2,0,0,0,.016.092c.011.019.037.028.08.028h.648a.128.128,0,0,0,.088-.024.143.143,0,0,0,.023-.1Zm2.792,1.088v-2.088a.59.59,0,0,1,.1-.368.447.447,0,0,1,.376-.136.462.462,0,0,1,.376.136.563.563,0,0,1,.112.368v2.088h1.392a.454.454,0,0,1,.368.12.589.589,0,0,1,.1.368.574.574,0,0,1-.1.356.446.446,0,0,1-.368.124h-1.392v3.648a.565.565,0,0,1-.112.368.475.475,0,0,1-.384.136.453.453,0,0,1-.364-.128.568.568,0,0,1-.108-.376V190.51h-1.271a.431.431,0,0,1-.368-.132.576.576,0,0,1-.1-.348.582.582,0,0,1,.1-.368.454.454,0,0,1,.368-.12Z" fill="#fff"/><path d="M98.672,199.422v-1.136h-3.04a.328.328,0,0,1-.248-.084.3.3,0,0,1-.08-.212.32.32,0,0,1,.08-.228.33.33,0,0,1,.248-.084h3.04v-.8a.359.359,0,0,1,.088-.264.3.3,0,0,1,.225-.088q.319,0,.319.352v.8h3.048q.328,0,.328.3t-.328.3H99.3v1.136h2.2a.8.8,0,0,1,.348.068.524.524,0,0,1,.213.176.391.391,0,0,1,.067.236.477.477,0,0,1-.092.256,7.5,7.5,0,0,1-2.376,2.36,9.719,9.719,0,0,0,1.232.58,15.1,15.1,0,0,0,1.472.484.5.5,0,0,1,.324.2.322.322,0,0,1,.012.292.215.215,0,0,1-.188.156,1.313,1.313,0,0,1-.355-.06,15.793,15.793,0,0,1-1.668-.588,9.7,9.7,0,0,1-1.4-.724,14.308,14.308,0,0,1-3.479,1.288.437.437,0,0,1-.328-.008.29.29,0,0,1-.12-.208.285.285,0,0,1,.048-.256.591.591,0,0,1,.313-.136,13.124,13.124,0,0,0,1.647-.444,11.2,11.2,0,0,0,1.4-.588,9.458,9.458,0,0,1-1.18-1.024,12.676,12.676,0,0,1-1.108-1.312.524.524,0,0,1-.1-.136h-.168a.3.3,0,0,1-.24-.084.315.315,0,0,1-.072-.212.343.343,0,0,1,.072-.224.294.294,0,0,1,.24-.088Zm-1.752.608a10.267,10.267,0,0,0,1.04,1.208,8.24,8.24,0,0,0,1.176.96,7.028,7.028,0,0,0,1.288-.964,6.027,6.027,0,0,0,.9-1.076c.031-.053.037-.088.016-.1a.279.279,0,0,0-.144-.024Z" fill="#fff"/><path d="M104.272,196.854a.278.278,0,0,1,.075-.228.336.336,0,0,1,.212-.06.365.365,0,0,1,.229.06.278.278,0,0,1,.076.228V198.1h.552a.265.265,0,0,1,.3.3.336.336,0,0,1-.067.228.306.306,0,0,1-.236.076h-.552v1.76c.074-.042.146-.088.216-.136s.139-.1.208-.152a.479.479,0,0,1,.292-.116.233.233,0,0,1,.2.14.317.317,0,0,1,.036.264.447.447,0,0,1-.172.2,3.792,3.792,0,0,1-.381.248q-.195.112-.4.224v2.256a.861.861,0,0,1-.148.568.64.64,0,0,1-.5.168,1.544,1.544,0,0,1-.319-.04,3.8,3.8,0,0,1-.4-.112.274.274,0,0,1-.185-.144.316.316,0,0,1,.017-.256.279.279,0,0,1,.156-.164.371.371,0,0,1,.228.02c.059.021.116.042.172.06a1.3,1.3,0,0,0,.172.044.237.237,0,0,0,.168-.008c.032-.021.049-.075.049-.16v-1.952c-.1.042-.2.083-.309.12l-.315.112a.572.572,0,0,1-.276.036.209.209,0,0,1-.156-.156.341.341,0,0,1,.017-.292.458.458,0,0,1,.271-.188,6.712,6.712,0,0,0,.769-.288V198.7h-.8c-.122,0-.2-.025-.235-.076a.4.4,0,0,1-.053-.228.345.345,0,0,1,.061-.224.288.288,0,0,1,.228-.072h.8Zm1.584,2.912a.3.3,0,0,1,0-.608h1.983V198.11h-1.5a.3.3,0,0,1,0-.608h1.5v-.6q0-.328.313-.328a.365.365,0,0,1,.244.072.325.325,0,0,1,.084.256v.6h1.5a.3.3,0,0,1,0,.608h-1.5v1.048h1.976a.3.3,0,0,1,0,.608Zm3.8.848h.64a.3.3,0,0,1,0,.608h-.64v1.936a1.1,1.1,0,0,1-.229.756,1.063,1.063,0,0,1-.812.252,3.408,3.408,0,0,1-1.008-.192q-.256-.088-.3-.2a.364.364,0,0,1,.017-.276.252.252,0,0,1,.184-.164.463.463,0,0,1,.272.028,2.671,2.671,0,0,0,.5.152,2.05,2.05,0,0,0,.367.04.4.4,0,0,0,.3-.084.635.635,0,0,0,.071-.372v-1.872h-3a.3.3,0,0,1,0-.608h3v-.376a.375.375,0,0,1,.08-.28.349.349,0,0,1,.24-.072.367.367,0,0,1,.24.068.375.375,0,0,1,.08.284Zm-2.729.824q.233.264.44.528t.392.536a.476.476,0,0,1,.1.3.3.3,0,0,1-.564.108q-.185-.288-.4-.564t-.416-.516a.371.371,0,0,1-.116-.26.343.343,0,0,1,.332-.276A.363.363,0,0,1,106.928,201.438Z" fill="#fff"/><path d="M113.216,196.614a.253.253,0,0,1,.212.16.757.757,0,0,1-.036.384,12.816,12.816,0,0,1-.487,1.448v5.32q0,.328-.3.328t-.3-.328v-4.08c-.069.123-.14.24-.212.352l-.22.344a.83.83,0,0,1-.28.3.26.26,0,0,1-.264-.04.247.247,0,0,1-.128-.232.915.915,0,0,1,.191-.408,10.191,10.191,0,0,0,.864-1.556,9.984,9.984,0,0,0,.544-1.588.862.862,0,0,1,.156-.336A.246.246,0,0,1,113.216,196.614Zm.561,3.008a.441.441,0,0,1-.24.22.325.325,0,0,1-.256-.06.265.265,0,0,1-.112-.2.425.425,0,0,1,.1-.3,5.868,5.868,0,0,0,.607-1.14,7.417,7.417,0,0,0,.344-1.156.487.487,0,0,1,.137-.288.292.292,0,0,1,.231-.064.271.271,0,0,1,.225.128.534.534,0,0,1,0,.368c-.021.075-.04.148-.057.22s-.034.143-.056.212h3.12a.783.783,0,0,1,.584.184.767.767,0,0,1,.151.592,3.284,3.284,0,0,1-.075.472,2.831,2.831,0,0,1-.188.544.5.5,0,0,1-.228.272.266.266,0,0,1-.244-.024.363.363,0,0,1-.176-.192.507.507,0,0,1,.063-.32c.054-.117.105-.245.156-.384a1.3,1.3,0,0,0,.084-.328c.011-.1,0-.163-.032-.184a.432.432,0,0,0-.208-.032h-1.32v5.088a.984.984,0,0,1-.216.736.772.772,0,0,1-.6.176,2.985,2.985,0,0,1-.388-.044,3.319,3.319,0,0,1-.549-.164.48.48,0,0,1-.26-.184.281.281,0,0,1,0-.28.251.251,0,0,1,.192-.172.572.572,0,0,1,.312.06c.176.064.314.109.416.136a1.052,1.052,0,0,0,.264.04.189.189,0,0,0,.177-.08.483.483,0,0,0,.048-.24v-5.072H114.5a7.6,7.6,0,0,1-.312.712Q114.015,199.222,113.776,199.622Zm1.208.384a12.581,12.581,0,0,1-.48,1.6,10.6,10.6,0,0,1-.656,1.44.493.493,0,0,1-.212.228.3.3,0,0,1-.244-.02.3.3,0,0,1-.184-.2.425.425,0,0,1,.064-.284q.16-.3.323-.664t.309-.752q.144-.384.264-.768c.08-.256.144-.494.192-.712a.5.5,0,0,1,.14-.26.249.249,0,0,1,.244-.076.314.314,0,0,1,.236.152.5.5,0,0,1,0,.328Zm2.615-.136q.321.744.572,1.444t.437,1.4a.68.68,0,0,1,.023.332.288.288,0,0,1-.191.18q-.337.12-.448-.3a11.627,11.627,0,0,0-.416-1.4q-.256-.7-.544-1.348a.494.494,0,0,1-.048-.336.31.31,0,0,1,.436-.188A.437.437,0,0,1,117.6,199.87Z" fill="#fff"/><path d="M122.376,203.086a.818.818,0,0,1-.14.532.658.658,0,0,1-.517.164h-1.647a.628.628,0,0,1-.508-.164.845.845,0,0,1-.133-.532v-4.84a.828.828,0,0,1,.133-.528.639.639,0,0,1,.508-.16h.439c.048-.128.09-.247.124-.356s.065-.209.092-.3a.421.421,0,0,1,.156-.252.312.312,0,0,1,.292-.028c.117.042.185.1.2.18a.773.773,0,0,1-.04.34c-.026.075-.051.146-.072.216s-.045.136-.071.2h.527a.669.669,0,0,1,.517.16.8.8,0,0,1,.14.528Zm-.64-4.752c0-.091-.035-.136-.1-.136H120.16q-.088,0-.088.136v1.88h1.664Zm0,2.52h-1.664V203a.2.2,0,0,0,.023.1.074.074,0,0,0,.064.04h1.472c.069,0,.1-.048.1-.144Zm1.359-1.312a.536.536,0,0,1-.268.252.315.315,0,0,1-.276-.044.236.236,0,0,1-.107-.22.653.653,0,0,1,.124-.332,4.381,4.381,0,0,0,.508-1.04,7.977,7.977,0,0,0,.308-1.224.365.365,0,0,1,.136-.26.336.336,0,0,1,.232-.052.292.292,0,0,1,.216.116.352.352,0,0,1,.04.276q-.032.152-.056.288a2.467,2.467,0,0,1-.064.272h1.624a1.6,1.6,0,0,1,.433.048.518.518,0,0,1,.271.18.824.824,0,0,1,.145.376,4.756,4.756,0,0,1,.048.628q.007.432,0,.952c-.008.347-.02.684-.032,1.012s-.029.629-.048.9-.036.489-.052.644a5.42,5.42,0,0,1-.173.912,1.609,1.609,0,0,1-.279.568.845.845,0,0,1-.408.28,1.3,1.3,0,0,1-.548.032c-.139-.016-.263-.033-.372-.052s-.214-.039-.312-.06-.2-.047-.292-.076-.2-.065-.3-.108a.587.587,0,0,1-.328-.22.334.334,0,0,1,.017-.284.233.233,0,0,1,.2-.164.734.734,0,0,1,.313.052q.248.1.523.176a4.534,4.534,0,0,0,.517.12.643.643,0,0,0,.332-.02.5.5,0,0,0,.244-.228,1.757,1.757,0,0,0,.176-.5,6.344,6.344,0,0,0,.112-.836c.021-.229.038-.456.052-.68s.023-.463.032-.716.013-.53.016-.832,0-.649,0-1.044a.6.6,0,0,0-.084-.368.367.367,0,0,0-.3-.1h-1.681a7.628,7.628,0,0,1-.279.72A5.532,5.532,0,0,1,123.1,199.542Zm2.008,1.776a.753.753,0,0,1,.1.364.286.286,0,0,1-.172.22q-.3.152-.48-.3a8.923,8.923,0,0,0-.443-.92q-.261-.472-.549-.928a.477.477,0,0,1-.084-.272.274.274,0,0,1,.133-.224.287.287,0,0,1,.231-.056.4.4,0,0,1,.232.208A20.49,20.49,0,0,1,125.1,201.318Z" fill="#fff"/><path d="M131.4,197.1q0,.256-.021.572c-.014.211-.03.417-.052.62a9.138,9.138,0,0,0,1.228,3.072,7.519,7.519,0,0,0,2.013,2.1,1.5,1.5,0,0,1,.208.172.431.431,0,0,1,.1.14.18.18,0,0,1,0,.128.665.665,0,0,1-.08.144c-.075.106-.154.152-.24.136a1.142,1.142,0,0,1-.384-.208,8.043,8.043,0,0,1-1.9-1.884,9.313,9.313,0,0,1-1.208-2.356,7.517,7.517,0,0,1-3.328,4.344.648.648,0,0,1-.376.144.3.3,0,0,1-.216-.176.275.275,0,0,1-.023-.276.748.748,0,0,1,.271-.244,6.206,6.206,0,0,0,1.368-1.1,7.168,7.168,0,0,0,1.1-1.512,7.594,7.594,0,0,0,.7-1.812,6.459,6.459,0,0,0,.181-1.988.53.53,0,0,1,.067-.344.274.274,0,0,1,.269-.1.351.351,0,0,1,.256.108A.544.544,0,0,1,131.4,197.1Z" fill="#fff"/><path d="M137.8,201.566a1.188,1.188,0,0,1-.26.828.985.985,0,0,1-.764.284,2.077,2.077,0,0,1-.593-.1.268.268,0,0,1-.119-.056v1.432a.262.262,0,0,1-.072.216.321.321,0,0,1-.2.056.411.411,0,0,1-.22-.052c-.057-.035-.084-.108-.084-.22v-6.24a.87.87,0,0,1,.14-.572.569.569,0,0,1,.444-.156h1.12a.568.568,0,0,1,.544.232.656.656,0,0,1-.032.592l-.7,1.536a.36.36,0,0,0-.028.216.4.4,0,0,0,.1.2A2.665,2.665,0,0,1,137.8,201.566Zm-1.735.48a.183.183,0,0,1,.111-.056.393.393,0,0,1,.136.008c.118.026.21.049.276.068a.727.727,0,0,0,.2.028.4.4,0,0,0,.336-.144.639.639,0,0,0,.112-.4,2.005,2.005,0,0,0-.148-.7,2.1,2.1,0,0,0-.452-.712.906.906,0,0,1-.248-.44.639.639,0,0,1,.048-.4l.736-1.608c.037-.08.021-.12-.048-.12h-.992c-.043,0-.063.043-.063.128Zm3.048-1.088q-.1.32-.188.6t-.2.552c-.069.181-.141.36-.216.536s-.157.357-.248.544a.525.525,0,0,1-.224.268.349.349,0,0,1-.272-.028.21.21,0,0,1-.147-.184.791.791,0,0,1,.092-.328c.1-.213.19-.4.269-.568s.146-.328.208-.488.118-.324.172-.492.109-.361.168-.58a.458.458,0,0,1,.155-.276.362.362,0,0,1,.261-.012q.176.04.2.156A.623.623,0,0,1,139.112,200.958Zm-.96-1.136q-.353,0-.353-.3a.3.3,0,0,1,.08-.232.409.409,0,0,1,.272-.072h4.271a.374.374,0,0,1,.26.072.308.308,0,0,1,.076.232c0,.2-.111.3-.336.3h-1.808v3.312a1.513,1.513,0,0,1-.084.548.575.575,0,0,1-.284.312,1.119,1.119,0,0,1-.536.088,4.156,4.156,0,0,1-.84-.14c-.262-.064-.344-.219-.248-.464a.243.243,0,0,1,.144-.16.639.639,0,0,1,.328.032,3.707,3.707,0,0,0,.464.092.663.663,0,0,0,.272-.012.2.2,0,0,0,.132-.112A.528.528,0,0,0,140,203.1v-3.28Zm4.128-2.264q0,.3-.36.3H138.7a.356.356,0,0,1-.252-.084.293.293,0,0,1-.093-.228.252.252,0,0,1,.1-.228.428.428,0,0,1,.24-.068h3.224a.429.429,0,0,1,.264.072A.271.271,0,0,1,142.28,197.558Zm.344,5.392a.493.493,0,0,1,.012.284.23.23,0,0,1-.147.164.338.338,0,0,1-.284-.012.4.4,0,0,1-.18-.26q-.1-.328-.177-.6t-.164-.512q-.083-.244-.168-.484t-.187-.5a.754.754,0,0,1-.061-.308c.009-.072.065-.129.173-.172a.329.329,0,0,1,.243-.016.391.391,0,0,1,.188.24q.1.288.2.548t.188.516c.062.171.121.347.181.528S142.56,202.742,142.624,202.95Z" fill="#fff"/><path d="M143.528,203.574a8.4,8.4,0,0,0,1-.516,5.083,5.083,0,0,0,.771-.576,3.7,3.7,0,0,0,.576-.668,3.836,3.836,0,0,0,.4-.792h-2.7a.321.321,0,0,1-.248-.08.35.35,0,0,1-.072-.24.32.32,0,0,1,.072-.232.344.344,0,0,1,.248-.072h2.88a8.753,8.753,0,0,0,.176-1.64h-2.688a.318.318,0,0,1-.247-.08.344.344,0,0,1-.072-.24.269.269,0,0,1,.319-.312h1.217a5.15,5.15,0,0,0-.5-.96.454.454,0,0,1-.129-.292.32.32,0,0,1,.145-.228q.264-.208.488.136a5.792,5.792,0,0,1,.34.6q.155.316.324.748h2.208a7.512,7.512,0,0,0,.367-.708,6.5,6.5,0,0,0,.24-.612.453.453,0,0,1,.16-.232.269.269,0,0,1,.264-.008.313.313,0,0,1,.2.164.5.5,0,0,1-.027.3,4.041,4.041,0,0,1-.2.5q-.136.292-.312.6h1.393a.268.268,0,0,1,.319.312.349.349,0,0,1-.071.24.322.322,0,0,1-.248.08h-2.84a9.7,9.7,0,0,1-.152,1.64h3.28a.347.347,0,0,1,.248.072.319.319,0,0,1,.071.232.35.35,0,0,1-.071.24.324.324,0,0,1-.248.08h-2.929a6.254,6.254,0,0,0,1.284,1.548,5.025,5.025,0,0,0,1.58.932.583.583,0,0,1,.332.212.321.321,0,0,1,0,.276c-.043.117-.1.186-.176.2a.685.685,0,0,1-.368-.076,5.837,5.837,0,0,1-1.8-1.128,7.613,7.613,0,0,1-1.416-1.76,4.156,4.156,0,0,1-.437.892,4.259,4.259,0,0,1-.644.768,5.743,5.743,0,0,1-.876.672,9.719,9.719,0,0,1-1.148.612.637.637,0,0,1-.344.076q-.136-.021-.208-.2a.3.3,0,0,1,0-.276A.585.585,0,0,1,143.528,203.574Z" fill="#fff"/><path d="M152.1,197.854a.447.447,0,0,1-.279-.08.354.354,0,0,1,0-.448.436.436,0,0,1,.288-.072q.655.008,1.38-.012t1.456-.064c.487-.029.967-.068,1.436-.116s.9-.1,1.3-.16a.712.712,0,0,1,.355,0,.273.273,0,0,1,.132.22.267.267,0,0,1-.044.244.6.6,0,0,1-.34.124q-.248.04-.556.076l-.652.076c-.229.026-.461.051-.7.072s-.461.04-.68.056q-.527.376-1,.676t-.908.556c.336-.011.666-.024.988-.04s.646-.029.972-.04c.315-.155.6-.3.864-.444s.478-.265.648-.372a.834.834,0,0,1,.3-.132.261.261,0,0,1,.235.1.27.27,0,0,1,.072.264.464.464,0,0,1-.224.248q-.368.216-.84.464t-1,.512q-.533.264-1.108.528t-1.152.5q1.049-.04,2.108-.076t2.108-.076q-.152-.208-.3-.4c-.1-.128-.205-.253-.312-.376a.6.6,0,0,1-.152-.264.263.263,0,0,1,.088-.216.325.325,0,0,1,.24-.108.411.411,0,0,1,.271.164q.393.448.748.944t.645.984a.451.451,0,0,1,.088.3.328.328,0,0,1-.16.208.3.3,0,0,1-.24.04.406.406,0,0,1-.224-.216q-.072-.128-.144-.252c-.049-.083-.1-.164-.152-.244l-2.184.088v2.12a1.056,1.056,0,0,1-.156.628.785.785,0,0,1-.484.284,1.346,1.346,0,0,1-.532-.012,3.131,3.131,0,0,1-.676-.22c-.144-.075-.223-.148-.235-.22a.4.4,0,0,1,.027-.228.264.264,0,0,1,.192-.184.522.522,0,0,1,.312.064,2.079,2.079,0,0,0,.393.156,1.18,1.18,0,0,0,.3.044q.231,0,.231-.264v-2.144l-2.575.1a.973.973,0,0,1-.521-.088.366.366,0,0,1-.208-.252.378.378,0,0,1,.116-.308,1.069,1.069,0,0,1,.452-.272q.416-.152.888-.348t.952-.412l-1.168.056a1.375,1.375,0,0,1-.528-.08c-.123-.053-.191-.123-.208-.208a.355.355,0,0,1,.1-.284,1.34,1.34,0,0,1,.416-.308q.28-.144.68-.376t.832-.5c-.331.011-.665.019-1,.024S152.413,197.865,152.1,197.854Zm1.5,3.928q-.161.312-.32.584a5.818,5.818,0,0,1-.34.516c-.12.163-.246.32-.376.472s-.273.308-.429.468a.462.462,0,0,1-.283.164.283.283,0,0,1-.229-.124q-.192-.224.08-.48a5.819,5.819,0,0,0,.74-.844,7.523,7.523,0,0,0,.62-1.052.465.465,0,0,1,.188-.208.28.28,0,0,1,.26,0,.258.258,0,0,1,.169.192A.584.584,0,0,1,153.608,201.782Zm4.888,1.632q.224.36-.056.552a.34.34,0,0,1-.244.056c-.072-.016-.151-.093-.236-.232q-.328-.568-.7-1.088t-.647-.848a.78.78,0,0,1-.185-.292.283.283,0,0,1,.1-.244.245.245,0,0,1,.248-.084.724.724,0,0,1,.288.2c.1.118.212.252.332.4s.241.313.363.484.247.349.372.536S158.384,203.227,158.5,203.414Z" fill="#fff"/><path d="M60.276,207.651v2.532a1.314,1.314,0,0,1-.033.309.522.522,0,0,1-.12.231.557.557,0,0,1-.234.147,1.151,1.151,0,0,1-.369.051,1.207,1.207,0,0,1-.264-.018,2.482,2.482,0,0,1-.264-.06,2.287,2.287,0,0,1-.228-.078.565.565,0,0,1-.144-.078.116.116,0,0,1-.051-.09.149.149,0,0,1,.024-.093.127.127,0,0,1,.078-.051.154.154,0,0,1,.117.03,2,2,0,0,0,.714.174,1.176,1.176,0,0,0,.24-.021.315.315,0,0,0,.153-.075.3.3,0,0,0,.081-.15A1.093,1.093,0,0,0,60,210.16v-2.508H57.42c-.076,0-.114-.042-.114-.126s.038-.132.114-.132H62.6c.076,0,.114.044.114.132s-.038.126-.114.126Zm-1.536.522a2.985,2.985,0,0,1-.234.648q-.114.275-.243.531t-.267.5a3.881,3.881,0,0,1-.372.558c-.056.06-.1.09-.135.09a.14.14,0,0,1-.093-.036.078.078,0,0,1-.042-.072.748.748,0,0,1,.126-.216q.18-.258.324-.489a4.8,4.8,0,0,0,.246-.441q.1-.21.2-.447t.189-.507q.078-.222.18-.222C58.7,208.065,58.74,208.1,58.74,208.173Zm3.288-2.28q.114,0,.114.126t-.114.12H58q-.114,0-.114-.12t.114-.126Zm.57,4.5a.1.1,0,0,1-.042.087.185.185,0,0,1-.1.027.126.126,0,0,1-.1-.057,1.577,1.577,0,0,1-.141-.285q-.27-.612-.477-1.041t-.363-.7a.4.4,0,0,1-.069-.189.111.111,0,0,1,.039-.09.116.116,0,0,1,.087-.021.122.122,0,0,1,.069.024.585.585,0,0,1,.072.1.946.946,0,0,1,.078.138q.054.108.15.294.186.36.432.882.126.258.2.417t.1.225A.5.5,0,0,1,62.6,210.394Z" fill="#fff"/><path d="M63.81,207.478c-.04.1-.081.192-.123.288s-.087.192-.135.288a3.277,3.277,0,0,1-.174.33.1.1,0,0,1-.078.048.126.126,0,0,1-.111-.057c-.026-.038-.011-.115.045-.231a8.617,8.617,0,0,0,.93-2.592c.012-.1.054-.144.126-.144s.114.032.114.1a3.6,3.6,0,0,1-.12.534q-.06.222-.117.423t-.117.375v4.1a.074.074,0,0,1-.024.09.167.167,0,0,1-.192,0,.074.074,0,0,1-.024-.09Zm1.428-1.512h-.546c-.072,0-.108-.038-.108-.114s.036-.12.108-.12H67q.132,0,.132.12c0,.076-.044.114-.132.114H65.46c-.008.144-.017.288-.027.432s-.023.286-.039.426H66.51a.572.572,0,0,1,.162.021.269.269,0,0,1,.123.075.357.357,0,0,1,.078.15.962.962,0,0,1,.027.252,4.2,4.2,0,0,1-.366,1.812,3.782,3.782,0,0,1-.978,1.3q-.606.51-.8.51c-.076,0-.114-.036-.114-.108q0-.078.192-.2a3.731,3.731,0,0,0,1.3-1.248,7.907,7.907,0,0,0-1.044-1.278,2.827,2.827,0,0,1-.4.678q-.27.342-.378.342a.086.086,0,0,1-.06-.03.155.155,0,0,1-.018-.081q0-.051.126-.195a4.341,4.341,0,0,0,.39-.525,2.461,2.461,0,0,0,.246-.546,4.194,4.194,0,0,0,.15-.723Q65.2,206.608,65.238,205.965Zm-.06,1.9a8.269,8.269,0,0,1,.576.612,7.277,7.277,0,0,1,.51.678,3.942,3.942,0,0,0,.4-1.806.361.361,0,0,0-.051-.234.31.31,0,0,0-.219-.054H65.364A4.472,4.472,0,0,1,65.178,207.868ZM68.6,210.43a.638.638,0,0,1-.126.354.515.515,0,0,1-.474.186,2.4,2.4,0,0,1-.576-.078,1.845,1.845,0,0,1-.4-.114c-.052-.028-.078-.06-.078-.1a.124.124,0,0,1,.066-.126.29.29,0,0,1,.186,0,3.182,3.182,0,0,0,.744.156.478.478,0,0,0,.318-.081.37.37,0,0,0,.09-.285V205.5c0-.072.04-.108.12-.108s.126.036.126.108Zm-.948-.612a.074.074,0,0,1-.024.09.169.169,0,0,1-.192,0,.074.074,0,0,1-.024-.09v-3.8a.128.128,0,0,1,.021-.084c.014-.016.047-.024.1-.024s.085.008.1.024a.128.128,0,0,1,.021.084Z" fill="#fff"/><path d="M70.4,207.058a.262.262,0,0,1,.189.078.248.248,0,0,1,.081.186.251.251,0,0,1-.081.183.257.257,0,0,1-.189.081.278.278,0,0,1-.264-.264.25.25,0,0,1,.081-.186A.257.257,0,0,1,70.4,207.058Zm0,2.25a.262.262,0,0,1,.189.078.248.248,0,0,1,.081.186.251.251,0,0,1-.081.183.257.257,0,0,1-.189.081.278.278,0,0,1-.264-.264.25.25,0,0,1,.081-.186A.257.257,0,0,1,70.4,209.308Z" fill="#fff"/><path d="M76.362,207.01q-.228.318-.486.612c-.088.1-.159.178-.213.234l-.111.114a.2.2,0,0,1-.108.048.258.258,0,0,1-.06-.027.117.117,0,0,1-.051-.057.134.134,0,0,1,0-.09.29.29,0,0,1,.1-.126,7.876,7.876,0,0,0,1.518-2.124q.072-.144.168-.144a.118.118,0,0,1,.108.114.371.371,0,0,1-.03.114q-.03.066-.234.414c-.068.116-.136.229-.2.339s-.138.217-.21.321a7,7,0,0,0,1.5,2.43,6.131,6.131,0,0,0,1.519-2.514q-.205-.288-.375-.51t-.321-.39a.327.327,0,0,1-.084-.129.133.133,0,0,1,0-.084.109.109,0,0,1,.045-.051.207.207,0,0,1,.054-.024.138.138,0,0,1,.078.03,2.027,2.027,0,0,1,.216.24c.057.068.123.152.2.252s.167.218.268.354l.306.42c.1.144.208.294.312.45s.192.28.252.372.1.152.114.18q.1.144,0,.216a.12.12,0,0,1-.174-.006c-.012-.016-.04-.057-.084-.123s-.106-.159-.186-.279-.157-.242-.231-.354-.147-.22-.219-.324a6.164,6.164,0,0,1-1.494,2.448,7.178,7.178,0,0,0,2.412,1.326c.128.044.191.1.191.162q0,.132-.138.132a4.047,4.047,0,0,1-1.074-.4,6.61,6.61,0,0,1-1.59-1.038,6.417,6.417,0,0,1-1.032.756,6.5,6.5,0,0,1-1.05.522,2.188,2.188,0,0,1-.636.186c-.1,0-.15-.042-.15-.126s.072-.13.216-.162a3.6,3.6,0,0,0,.594-.2q.311-.135.672-.327a6.808,6.808,0,0,0,.657-.4,5.173,5.173,0,0,0,.543-.426A6.85,6.85,0,0,1,76.362,207.01Z" fill="#fff"/><path d="M81.906,207.826l.09-1.674a.549.549,0,0,1,.117-.336.522.522,0,0,1,.387-.108h3.168a.424.424,0,0,1,.315.09.529.529,0,0,1,.081.342c0,.152,0,.368-.01.648s-.017.626-.032,1.038h.708a.106.106,0,0,1,.119.12c0,.076-.042.114-.126.114h-.708q-.023.588-.051,1.1c-.018.344-.041.666-.068.966h.72a.182.182,0,0,1,.09.018.176.176,0,0,1,.03.12c0,.064-.042.1-.126.1h-.738a.676.676,0,0,1-.276.5,1.466,1.466,0,0,1-.768.144c-.092,0-.163,0-.213,0a.366.366,0,0,1-.114-.018.074.074,0,0,1-.048-.039.177.177,0,0,1-.009-.06c0-.092.054-.138.162-.138l.252.006a1.289,1.289,0,0,0,.563-.087.41.41,0,0,0,.2-.3H82.14q-.39,0-.39-.336c0-.032.012-.154.036-.366l.107-1.6H81.27c-.08,0-.119-.038-.119-.114a.105.105,0,0,1,.119-.12Zm3.863.234H82.146q-.06.888-.108,1.362c-.032.316-.048.476-.048.48a.208.208,0,0,0,.068.174.372.372,0,0,0,.226.054h3.372c.02-.2.039-.465.057-.807S85.75,208.56,85.77,208.06Zm-3.611-.234h3.618q.023-.528.032-.906t.01-.624a.563.563,0,0,0-.049-.273c-.031-.054-.113-.081-.245-.081H82.548a.339.339,0,0,0-.23.063.257.257,0,0,0-.075.189Zm2.952,1.488a.247.247,0,0,1-.021.06.123.123,0,0,1-.129.069.329.329,0,0,1-.138-.051,8.639,8.639,0,0,0-1.866-.5.519.519,0,0,1-.156-.042.083.083,0,0,1-.042-.078c0-.1.042-.156.126-.156a1.432,1.432,0,0,1,.226.03c.105.02.249.05.429.09s.347.082.5.126.295.088.423.132c.264.092.438.158.522.2S85.11,209.266,85.11,209.313Zm.084-2.07a.111.111,0,0,1-.063.1.3.3,0,0,1-.219-.021q-.5-.186-.942-.315t-.821-.213q-.252-.042-.252-.144c0-.088.037-.132.113-.132a3.34,3.34,0,0,1,.612.132q.252.066.492.132c.16.044.315.092.468.144a2.815,2.815,0,0,1,.534.2A.148.148,0,0,1,85.194,207.244Z" fill="#fff"/><path d="M89.148,210.79c-.009.016-.019.038-.03.066a.147.147,0,0,1-.054.066.113.113,0,0,1-.1.006.4.4,0,0,1-.149-.114q-.252-.228-.48-.417a3.838,3.838,0,0,0-.456-.327.338.338,0,0,1-.129-.111.115.115,0,0,1-.012-.093.122.122,0,0,1,.054-.066.249.249,0,0,1,.063-.03,2.431,2.431,0,0,1,.7.45Q89.148,210.669,89.148,210.79Z" fill="#fff"/><path d="M94,208.972a5.093,5.093,0,0,1-.075.738,6,6,0,0,1-.144.63,3.993,3.993,0,0,1-.159.453.518.518,0,0,1-.12.2.121.121,0,0,1-.084.042.131.131,0,0,1-.093-.021.115.115,0,0,1-.045-.09.307.307,0,0,1,.06-.171,3.511,3.511,0,0,0,.31-.924,5.958,5.958,0,0,0,.11-1.176v-2.544a.886.886,0,0,1,.021-.213.249.249,0,0,1,.081-.138.354.354,0,0,1,.159-.072,1.284,1.284,0,0,1,.261-.021h.941a.6.6,0,0,1,.408.1.489.489,0,0,1,.1.357v4.194c0,.248-.055.4-.162.462a.663.663,0,0,1-.324.09,1.427,1.427,0,0,1-.468-.114,2.589,2.589,0,0,1-.372-.162.113.113,0,0,1-.069-.09.12.12,0,0,1,.033-.093.173.173,0,0,1,.1-.051.159.159,0,0,1,.126.036,1.361,1.361,0,0,0,.606.2c.191,0,.288-.1.288-.312v-1.314Zm1.488-1.818V206.1c0-.124-.068-.186-.2-.186H94.2a.165.165,0,0,0-.187.186v1.05Zm-1.477.222v1.374H95.49v-1.374Zm2.616,1.6v.018a4.8,4.8,0,0,1-.072.867,3.292,3.292,0,0,1-.2.711,1.762,1.762,0,0,1-.191.4.181.181,0,0,1-.138.084.1.1,0,0,1-.114-.114.365.365,0,0,1,.06-.18,3.469,3.469,0,0,0,.4-1.74v-2.862a.944.944,0,0,1,.021-.213.256.256,0,0,1,.081-.138.359.359,0,0,1,.159-.072,1.3,1.3,0,0,1,.261-.021H98.04a.605.605,0,0,1,.408.1.494.494,0,0,1,.1.357v4.284q0,.348-.156.438a.67.67,0,0,1-.342.09,1.725,1.725,0,0,1-.516-.12c-.112-.04-.2-.074-.268-.1a.661.661,0,0,1-.129-.066.122.122,0,0,1-.06-.1c0-.1.046-.144.138-.144a.32.32,0,0,1,.114.03,2.01,2.01,0,0,0,.738.24.206.206,0,0,0,.168-.066.366.366,0,0,0,.054-.228v-1.446Zm1.662-1.812v-1a.163.163,0,0,0-.063-.135.219.219,0,0,0-.141-.051H96.816a.183.183,0,0,0-.187.186v1Zm-1.662.222v1.368h1.662v-1.368Z" fill="#fff"/><path d="M101.028,206.56h-1.6q-.114,0-.114-.132c0-.088.038-.132.114-.132h1.645c.036-.216.065-.45.09-.7q.023-.234.149-.234c.084,0,.126.054.126.162a2.589,2.589,0,0,1-.023.276c-.017.128-.04.294-.072.5h3.3q.12,0,.12.126c0,.092-.04.138-.12.138h-3.348c-.028.152-.059.3-.093.45s-.071.3-.111.45h2.586a.564.564,0,0,1,.36.1.346.346,0,0,1,.132.285,2.116,2.116,0,0,1-.33.756,4.381,4.381,0,0,1-.99,1.116,8.977,8.977,0,0,0,1.854,1.026c.111.048.168.1.168.144a.181.181,0,0,1-.024.078.081.081,0,0,1-.078.048,3.773,3.773,0,0,1-.821-.33,7.268,7.268,0,0,1-1.3-.8,5.833,5.833,0,0,1-1.476.792,4.325,4.325,0,0,1-.942.294q-.149,0-.149-.114a.087.087,0,0,1,.045-.081.809.809,0,0,1,.171-.063q.341-.1.636-.2t.552-.231a5.39,5.39,0,0,0,.489-.264q.231-.141.459-.3a5.49,5.49,0,0,1-1.428-1.95,8.633,8.633,0,0,1-.486,1.23,5.9,5.9,0,0,1-.594.984,3.976,3.976,0,0,1-.414.516.239.239,0,0,1-.129.072.147.147,0,0,1-.087-.03.1.1,0,0,1-.042-.09.307.307,0,0,1,.1-.168,6.656,6.656,0,0,0,1.128-1.776A8.929,8.929,0,0,0,101.028,206.56Zm1.607,2.994a4.036,4.036,0,0,0,.942-1.02,1.921,1.921,0,0,0,.324-.678.114.114,0,0,0-.078-.111.7.7,0,0,0-.252-.033h-2.316A4.963,4.963,0,0,0,102.636,209.554Z" fill="#fff"/><path d="M107.148,210.79c-.009.016-.019.038-.03.066a.147.147,0,0,1-.054.066.113.113,0,0,1-.1.006.4.4,0,0,1-.149-.114q-.252-.228-.48-.417a3.838,3.838,0,0,0-.456-.327.338.338,0,0,1-.129-.111.115.115,0,0,1-.012-.093.122.122,0,0,1,.054-.066.249.249,0,0,1,.063-.03,2.431,2.431,0,0,1,.7.45Q107.148,210.669,107.148,210.79Z" fill="#fff"/><path d="M114.276,207.706h-.858a6.209,6.209,0,0,1-1.056,2.448q-.7.883-.882.882a.318.318,0,0,1-.061-.024.12.12,0,0,1-.054-.054.1.1,0,0,1,.006-.09.458.458,0,0,1,.12-.138,4.714,4.714,0,0,0,1.02-1.26,7.2,7.2,0,0,0,.654-1.764h-1.638q-.108,0-.108-.12t.108-.12h1.691l.09-.648a2.935,2.935,0,0,1,.072-.408.09.09,0,0,1,.09-.072q.132,0,.132.126,0,.06-.035.309t-.1.693h3.019c.071,0,.107.04.107.12s-.036.12-.107.12h-1.956v1.8a9.3,9.3,0,0,0,1.476-1.35.293.293,0,0,1,.117-.1.11.11,0,0,1,.084,0,.1.1,0,0,1,.051.051.546.546,0,0,0,.03.054.237.237,0,0,1-.061.114c-.02.024-.058.067-.113.129s-.132.143-.229.243a8.142,8.142,0,0,1-.639.606,8.832,8.832,0,0,1-.717.552v.492q0,.2.138.252a2.319,2.319,0,0,0,.6.048c.24,0,.434,0,.579-.006a1.258,1.258,0,0,0,.339-.045.284.284,0,0,0,.168-.12.653.653,0,0,0,.072-.231,2.371,2.371,0,0,0,.036-.45,1.043,1.043,0,0,1,.024-.312.142.142,0,0,1,.074-.048.122.122,0,0,1,.088.009.134.134,0,0,1,.063.075.3.3,0,0,1,.009.144,2.542,2.542,0,0,1-.1.846.483.483,0,0,1-.324.306,4.759,4.759,0,0,1-.972.06,3.589,3.589,0,0,1-.8-.066q-.246-.066-.246-.45v-.336c-.124.08-.261.161-.408.243s-.309.163-.48.243a3.025,3.025,0,0,1-.6.246.1.1,0,0,1-.108-.06.187.187,0,0,1-.012-.126c.012-.028.072-.064.18-.108a8.14,8.14,0,0,0,1.429-.726Zm-.271-1.806c-.028-.056-.058-.115-.09-.177a1.8,1.8,0,0,0-.114-.189.108.108,0,0,1,.013-.15.143.143,0,0,1,.107-.042c.048,0,.1.051.168.153a2.112,2.112,0,0,1,.187.4h1.836a1.15,1.15,0,0,1,.359.036.352.352,0,0,1,.142.081.89.89,0,0,1,.1.123.388.388,0,0,1,.054.231,1.634,1.634,0,0,1-.071.417c-.024.084-.044.151-.061.2a.465.465,0,0,1-.048.111.109.109,0,0,1-.048.045.159.159,0,0,1-.054.009c-.068,0-.1-.032-.1-.1a1.731,1.731,0,0,1,.066-.27,1.2,1.2,0,0,0,.071-.366.263.263,0,0,0-.084-.222.557.557,0,0,0-.323-.066h-4.225q-.246,0-.246.27v.54a.111.111,0,0,1-.126.126c-.084,0-.126-.038-.126-.114v-.546a.446.446,0,0,1,.5-.51Zm1.878,1.278a.128.128,0,0,1-.018.066.111.111,0,0,1-.055.045.14.14,0,0,1-.084.006.238.238,0,0,1-.107-.063,4.895,4.895,0,0,0-.858-.63c-.107-.052-.162-.1-.162-.138a.192.192,0,0,1,.027-.1.093.093,0,0,1,.087-.045.656.656,0,0,1,.255.123q.189.123.5.357t.366.288A.129.129,0,0,1,115.884,207.178Z" fill="#fff"/><path d="M117.756,206.62h.594v-1.14a.129.129,0,0,1,.024-.09.175.175,0,0,1,.114-.024c.063,0,.1.038.1.114v1.14h.708a.114.114,0,1,1,0,.228h-.708v1.938c.08-.052.156-.1.228-.153s.143-.1.211-.153a.937.937,0,0,1,.245-.156.114.114,0,0,1,.084.036.088.088,0,0,1,.036.069.166.166,0,0,1-.054.1,2.258,2.258,0,0,1-.27.216c-.072.052-.148.1-.229.156s-.164.1-.252.156v1.872c0,.076-.032.114-.1.114a.175.175,0,0,1-.114-.024.129.129,0,0,1-.024-.09V209.2a5.544,5.544,0,0,1-1,.51.1.1,0,0,1-.071-.03.1.1,0,0,1-.03-.078.144.144,0,0,1,.084-.126q.258-.12.51-.255t.5-.285v-2.088h-.63c-.02.136-.043.269-.068.4s-.056.257-.087.381a4.585,4.585,0,0,1-.145.468c-.028.064-.062.1-.1.1a.126.126,0,0,1-.114-.045c-.021-.03-.01-.111.03-.243a7.367,7.367,0,0,0,.342-1.986.313.313,0,0,1,.023-.15.111.111,0,0,1,.1-.036.122.122,0,0,1,.1.033.185.185,0,0,1,.027.117,2.976,2.976,0,0,1-.019.3C117.792,206.3,117.776,206.448,117.756,206.62Zm3.864-.408h-.732a5.678,5.678,0,0,1-.1.675,5.383,5.383,0,0,1-.168.627,4.13,4.13,0,0,1-.7,1.218q-.492.618-.636.618l-.058-.024a.121.121,0,0,1-.057-.051.1.1,0,0,1,0-.087.37.37,0,0,1,.123-.132,4.477,4.477,0,0,0,.937-1.242,3.442,3.442,0,0,0,.281-.765,4,4,0,0,0,.108-.837h-.642a7.236,7.236,0,0,1-.307,1q-.083.21-.144.345a.975.975,0,0,1-.1.189c-.056.068-.1.1-.126.1a.19.19,0,0,1-.068-.012.083.083,0,0,1-.049-.045.139.139,0,0,1,0-.09.637.637,0,0,1,.069-.147,5.061,5.061,0,0,0,.606-2,.355.355,0,0,1,.042-.153.142.142,0,0,1,.126-.045c.063,0,.1.034.1.1a3.809,3.809,0,0,1-.09.516h2.13a.483.483,0,0,1,.282.069.385.385,0,0,1,.138.2,1.124,1.124,0,0,1,.042.333v.462a15.922,15.922,0,0,1-.138,2.442,2.59,2.59,0,0,1-.378,1.11.782.782,0,0,1-.654.312,1.608,1.608,0,0,1-.516-.1,2.02,2.02,0,0,1-.382-.147c-.062-.038-.093-.073-.093-.1a.156.156,0,0,1,.063-.135c.042-.03.108-.019.2.033a1.616,1.616,0,0,0,.689.2q.612,0,.78-1a14.785,14.785,0,0,0,.18-2.55,6.408,6.408,0,0,0-.023-.8c-.017-.064-.087-.1-.21-.1h-.265a7.727,7.727,0,0,1-.516,2.28,5.986,5.986,0,0,1-.45.894,3.883,3.883,0,0,1-.552.7q-.595.612-.75.612a.086.086,0,0,1-.072-.048.168.168,0,0,1-.03-.084c0-.028.053-.084.156-.168a4.627,4.627,0,0,0,1.434-1.89,7.108,7.108,0,0,0,.357-1.128A6.887,6.887,0,0,0,121.62,206.211Z" fill="#fff"/><path d="M125.148,210.79c-.009.016-.019.038-.03.066a.147.147,0,0,1-.054.066.113.113,0,0,1-.1.006.4.4,0,0,1-.149-.114q-.252-.228-.48-.417a3.838,3.838,0,0,0-.456-.327.338.338,0,0,1-.129-.111.115.115,0,0,1-.012-.093.122.122,0,0,1,.054-.066.249.249,0,0,1,.063-.03,2.431,2.431,0,0,1,.7.45Q125.148,210.669,125.148,210.79Z" fill="#fff"/><path d="M130.782,208.78v.654a8.9,8.9,0,0,0,3.1-.972q.174-.083.231-.048a.133.133,0,0,1,.057.12c0,.032-.028.07-.084.114a1.715,1.715,0,0,1-.207.108c-.11.052-.265.122-.465.21a9.3,9.3,0,0,1-1.228.426,10.727,10.727,0,0,1-1.4.276V210a.541.541,0,0,0,.216.48.835.835,0,0,0,.123.072.516.516,0,0,0,.135.042,1.284,1.284,0,0,0,.21.027c.092.006.2.01.327.012l.42.006q.231,0,.483,0c.168,0,.313,0,.435-.006s.223-.01.3-.018a1.333,1.333,0,0,0,.4-.09.574.574,0,0,0,.271-.222.617.617,0,0,0,.071-.144.827.827,0,0,0,.036-.156,1.771,1.771,0,0,0,.015-.2c0-.074,0-.161,0-.261s.044-.156.132-.156.138.056.138.168a2.888,2.888,0,0,1-.039.507,1.2,1.2,0,0,1-.129.378.684.684,0,0,1-.24.252,1.007,1.007,0,0,1-.378.129,7.97,7.97,0,0,1-1.164.054q-.864,0-1.224-.036a.922.922,0,0,1-.576-.249.819.819,0,0,1-.216-.609v-1.1l-.408.162q-.2.078-.39.144a2.19,2.19,0,0,1-.462.126c-.072,0-.108-.04-.108-.12,0-.064.064-.118.192-.162a12.245,12.245,0,0,0,3.054-1.374H129.39c-.075,0-.113-.04-.113-.12s.038-.126.113-.126h2.292V206.29h-1.859q-.114,0-.114-.12t.114-.126h1.859v-.582c0-.076.042-.114.126-.114s.133.038.133.114v.582h1.781q.114,0,.114.126t-.114.12H131.94v1.128h.827a5.1,5.1,0,0,0,1.387-1.458.234.234,0,0,1,.1-.1.105.105,0,0,1,.084-.006.166.166,0,0,1,.09.1,1.665,1.665,0,0,1-.354.57,4.29,4.29,0,0,1-.4.45,6.259,6.259,0,0,1-.513.45h1.6q.114,0,.114.126t-.114.12h-1.926A14.2,14.2,0,0,1,130.782,208.78Z" fill="#fff"/><path d="M135.762,209.589c0,.08-.029.12-.09.12a.176.176,0,0,1-.117-.027.131.131,0,0,1-.026-.093v-3.408a.129.129,0,0,1,.023-.09.178.178,0,0,1,.114-.024c.063,0,.1.04.1.12Zm1.015-.738a2.57,2.57,0,0,1-.469,1.6q-.467.617-.642.618a.162.162,0,0,1-.054-.027.094.094,0,0,1-.039-.057.156.156,0,0,1,.009-.087.3.3,0,0,1,.1-.117,2.371,2.371,0,0,0,.666-.84,2.611,2.611,0,0,0,.2-1.086V205.51a.126.126,0,0,1,.024-.09.176.176,0,0,1,.113-.024q.1,0,.1.12Zm2.021-1.668h-.936a.178.178,0,0,0-.132.063.2.2,0,0,0-.061.141v3.252a.077.077,0,0,1-.021.09.146.146,0,0,1-.091.03.158.158,0,0,1-.093-.03.081.081,0,0,1-.03-.09v-3.276a.454.454,0,0,1,.084-.321.424.424,0,0,1,.295-.081h.983V206h-1.439a.1.1,0,0,1-.114-.114q0-.12.114-.12h3.21c.075,0,.113.04.113.12a.1.1,0,0,1-.113.114h-1.536v.96h1.044a.394.394,0,0,1,.291.09.446.446,0,0,1,.087.312v2.718a.492.492,0,0,1-.145.384.569.569,0,0,1-.4.132,1.716,1.716,0,0,1-.33-.048c-.136-.028-.2-.076-.2-.144a.108.108,0,0,1,.063-.111.169.169,0,0,1,.136,0,1.02,1.02,0,0,0,.366.09q.275,0,.275-.354v-2.646a.193.193,0,0,0-.06-.147.188.188,0,0,0-.132-.057h-.99v3.744c0,.072-.04.108-.12.108s-.114-.036-.114-.108Z" fill="#fff"/><path d="M143.148,210.79c-.009.016-.019.038-.03.066a.147.147,0,0,1-.054.066.113.113,0,0,1-.1.006.4.4,0,0,1-.149-.114q-.252-.228-.48-.417a3.838,3.838,0,0,0-.456-.327.338.338,0,0,1-.129-.111.115.115,0,0,1-.012-.093.122.122,0,0,1,.054-.066.249.249,0,0,1,.063-.03,2.431,2.431,0,0,1,.7.45Q143.148,210.669,143.148,210.79Z" fill="#fff"/><path d="M148.788,208.773a2.659,2.659,0,0,1,.138.8,1.558,1.558,0,0,1-.3.96.908.908,0,0,1-.75.4.923.923,0,0,1-.486-.138c-.151-.092-.228-.166-.228-.222a.124.124,0,0,1,.072-.117.134.134,0,0,1,.155.027.758.758,0,0,0,.486.186.669.669,0,0,0,.576-.33,1.341,1.341,0,0,0,.233-.8,2.169,2.169,0,0,0-.119-.678q-.564.222-.909.333a2.977,2.977,0,0,1-.388.111.094.094,0,0,1-.074-.042.14.14,0,0,1-.033-.09c0-.068.04-.112.12-.132q.287-.078.585-.177c.2-.066.4-.143.608-.231a2.925,2.925,0,0,0-.384-.636,1.069,1.069,0,0,1-.258-.51.259.259,0,0,1,.072-.168c.088-.1.175-.21.261-.318s.169-.218.249-.33.145-.208.2-.276a1.65,1.65,0,0,0,.1-.144c.056-.084.072-.139.048-.165s-.1-.039-.222-.039h-1.194q-.12,0-.12-.126t.12-.126h1.488a.263.263,0,0,1,.186.066.208.208,0,0,1,.072.162.359.359,0,0,1-.042.174c-.016.028-.069.107-.159.237s-.221.311-.393.543c-.064.088-.117.162-.159.222s-.077.108-.1.144a.366.366,0,0,0-.072.2.819.819,0,0,0,.186.36,3.471,3.471,0,0,1,.2.318,3.285,3.285,0,0,1,.153.312c.052-.02.122-.052.21-.1l.324-.162a.262.262,0,0,1,.132-.042.1.1,0,0,1,.09.048.194.194,0,0,1,.03.1c0,.036-.024.068-.072.1S149.164,208.609,148.788,208.773Zm2.556.816a5.031,5.031,0,0,1-1.326,1.068,3.657,3.657,0,0,1-.882.414.082.082,0,0,1-.078-.048.205.205,0,0,1-.023-.09c0-.056.06-.112.18-.168a5.932,5.932,0,0,0,1.866-1.248,6.31,6.31,0,0,0,1.194-1.89.257.257,0,0,1,.1-.126.1.1,0,0,1,.09-.006.139.139,0,0,1,.066.06.1.1,0,0,1,.018.066.33.33,0,0,1-.018.1,4.578,4.578,0,0,1-.21.42,7.263,7.263,0,0,1-.4.687c-.136.206-.276.4-.42.579q.174.174.372.381l.414.435q.221.228.339.357a1.593,1.593,0,0,1,.135.159.175.175,0,0,1,.036.1.162.162,0,0,1-.021.075.132.132,0,0,1-.061.057.119.119,0,0,1-.09,0,.28.28,0,0,1-.111-.09q-.306-.365-.594-.687T151.344,209.589Zm-.275-1.7a4.678,4.678,0,0,0,.275-.471c.092-.178.185-.377.276-.6q.072-.179.144-.18a.134.134,0,0,1,.078.03.1.1,0,0,1,.042.09,3.619,3.619,0,0,1-.456.984,4.78,4.78,0,0,1-.516.75,4.608,4.608,0,0,1-.648.63,2.551,2.551,0,0,1-.863.564.094.094,0,0,1-.084-.048.209.209,0,0,1-.03-.054.091.091,0,0,1,0-.06.154.154,0,0,1,.048-.066.71.71,0,0,1,.123-.084,4.339,4.339,0,0,0,1.452-1.254H149.9q-.432,0-.433-.2a.534.534,0,0,1,.156-.3,8.756,8.756,0,0,0,1.032-1.41H149.46q-.132,0-.132-.12t.132-.12h1.506a2.2,2.2,0,0,0-.228-.366.292.292,0,0,1-.072-.147.094.094,0,0,1,.042-.081.136.136,0,0,1,.09-.036.11.11,0,0,1,.058.024.409.409,0,0,1,.08.093q.048.069.117.192c.046.082.1.189.159.321h1.512q.114,0,.114.12t-.114.12H150.96a17.549,17.549,0,0,1-1.062,1.47.346.346,0,0,0-.091.162c0,.032.061.048.181.048Z" fill="#fff"/><path d="M156.81,208.516a2.3,2.3,0,0,1,.282,1.086q0,1.326-1.464,1.326a4.6,4.6,0,0,1-.852-.09,2.914,2.914,0,0,1-.546-.138.131.131,0,0,1-.078-.12c0-.1.04-.15.12-.15a.475.475,0,0,1,.138.024,5.278,5.278,0,0,0,1.248.192q1.163,0,1.164-1.074a2.034,2.034,0,0,0-.318-1.056H153.24c-.076,0-.114-.046-.114-.138s.038-.144.114-.144h3.065a2.832,2.832,0,0,0-.288-.315,4.253,4.253,0,0,0-.336-.285.3.3,0,0,1-.144-.234c0-.124.094-.222.282-.294q.419-.156.762-.3t.612-.27a5.324,5.324,0,0,0,.611-.306c.048-.036.072-.064.072-.084,0-.036-.052-.054-.156-.054H153.78c-.08,0-.12-.044-.12-.132s.04-.138.12-.138h4.067a.383.383,0,0,1,.2.048.31.31,0,0,1,.114.117.259.259,0,0,1,.03.144.234.234,0,0,1-.042.123.474.474,0,0,1-.114.138,1.648,1.648,0,0,1-.18.1c-.093.046-.221.107-.385.183q-.485.223-.834.363t-.636.249q-.126.048-.126.129a.173.173,0,0,0,.084.141,2.92,2.92,0,0,1,.672.678h2.1c.075,0,.113.048.113.144s-.038.138-.113.138Z" fill="#fff"/></svg>