<svg id="template" xmlns="http://www.w3.org/2000/svg" width="655" height="493" viewBox="0 0 655 493"><title>07 BUG</title><path d="M480.307,225.744c-.266-1.753-.362-3.671-1.445-5.075,1.781-.214,3.347.328,5.083.489a7.486,7.486,0,0,0,2.112-.144c.381-.073,1.635-.717,1.927-.627a8.391,8.391,0,0,1-3.721-2.379,17.138,17.138,0,0,0,4.525-.206,6.978,6.978,0,0,0,3.9-2.165,1.2,1.2,0,0,0,.29-.507,1.348,1.348,0,0,0-.122-.725c-.869-2.364-1.686-4.872-3.853-6.156a10.146,10.146,0,0,0,5.892-3.287,7.423,7.423,0,0,0,1.144-1.5c1.148-2.091.652-4.717.12-7.042a36.517,36.517,0,0,0-11.257-.264,21,21,0,0,0-4.748.84c-1.264.424-1.769,1.2-2.794-.175-1.149-1.544-1.708-3.214-.27-4.509a12.026,12.026,0,0,1,4.877-2.892c-.549-2.733-2.575-4.9-4.55-6.863a52.965,52.965,0,0,0-4.648-4.664q-4.655-3.687-9.268-7.425a18.6,18.6,0,0,1-2.5-2.274c-1.819-2.113-2.534-5.083-4.647-6.9a12.061,12.061,0,0,0,4.759-1.144c.288-.136.561-.337.835-.5a26.789,26.789,0,0,0-3.415-4.313,5.658,5.658,0,0,0-2.218-1.572,6.61,6.61,0,0,0,2.767-.321,8.6,8.6,0,0,1,1.9-.637,9.389,9.389,0,0,0-2.018-3.623,6.365,6.365,0,0,0,3.312.193,2.157,2.157,0,0,0,.858-.377l.583-.36a31.045,31.045,0,0,0-4.6-6.135c1.631-.647,2.483-2.566,3.063-4.122a.341.341,0,0,0,.026-.238.352.352,0,0,0-.2-.164,22.216,22.216,0,0,1-5.266-3.754,1.109,1.109,0,0,1-.428-.589c-.171-.966,2.175-.621,2.682-.723a9.78,9.78,0,0,0,7.594-7.18c.184-.707.141-6.338.219-6.356-.179.041-.158-.113-.321-.03-3.647,1.86-7.736.379-11.579,1.059-3.323.588-6.873,3.338-6.769,7a12.854,12.854,0,0,0,.948,3.949.241.241,0,0,1,.017.176.235.235,0,0,1-.166.106,4.243,4.243,0,0,1-2.594-.12,2.581,2.581,0,0,1-1.267-.923,3.588,3.588,0,0,1-.4-2.112c.022-.855-.129-1.771.51-2.339a12.446,12.446,0,0,0,3.236-13.451.731.731,0,0,0-.237-.363.744.744,0,0,0-.472-.073,25.387,25.387,0,0,0-8.631,2.179,13.3,13.3,0,0,0-4.165,3.064,3.8,3.8,0,0,0-.977,3.512,10.736,10.736,0,0,0-7.191-2.269,1.235,1.235,0,0,1-.522-.041,1.034,1.034,0,0,1-.373-.294,7.992,7.992,0,0,1-1.581-5.061,13,13,0,0,1,.326-4.066c.363-1.316.624-2.981,1.944-3.331a12.355,12.355,0,0,0,7.218-5.318.566.566,0,0,0,.12-.345c-.019-.18-.194-.3-.351-.385a33.828,33.828,0,0,1-6.435-4.34c-3.582-3.359-12.459-4.32-13.648,2.016A5.546,5.546,0,0,0,414.79,102a.914.914,0,0,1,.321,1.329,2.055,2.055,0,0,1-1.326.766c-1.3.295-2.691.154-3.947.6a8.839,8.839,0,0,0-3.146,2.371c-.351.359-.4.137-.588.6a21.934,21.934,0,0,0-1.545,11.9,20.023,20.023,0,0,0-5.922.818,26.364,26.364,0,0,0-5.032,1.374,6.021,6.021,0,0,0,3.1-3.921c-2.669-.817-5.33-1.746-8.042-2.412-.724-.178-8.153-1.655-8.287-1.068.141-.618,1.061-.917,1.006-1.548-.032-.369-.393-.606-.716-.787l-2.329-1.3c-1.873-1.048-2.1-3.376.136-4.172a8.117,8.117,0,0,1,8.693,2.532,8.748,8.748,0,0,0,4.7,2.734,15.8,15.8,0,0,0,5.5.176,8.522,8.522,0,0,0,5.167-2.056,8.375,8.375,0,0,0,1.338-1.929,27.038,27.038,0,0,0,2.61-7.358,10.293,10.293,0,0,0-2.626-2.349,17.775,17.775,0,0,0-3.5-1.452c1.92-.577,3.91-.891,5.835-1.449a16.312,16.312,0,0,0,4.782-2.441,4.954,4.954,0,0,0,2.121-4.848,7.409,7.409,0,0,0-.863-2.282c-1.8-3.316-4.756-5.809-6.6-9.1a33.446,33.446,0,0,0-2.928,2.277,43.255,43.255,0,0,0-8.137,11.1,24.17,24.17,0,0,0-4.687.054.4.4,0,0,0-.265.1.425.425,0,0,0-.079.229c-.263,1.764-1.508,2.489-2.943,3.3-4.149,2.341-6.576,5.876-9.471,9.659a31.452,31.452,0,0,1-5.057,5.225,1.865,1.865,0,0,1-.616.379,4.183,4.183,0,0,1-.869.062c-1.062.089-1.766,1.015-2.755,1.285-.808.22-1.631-.184-2.268.5-.459.49-.608.408-.739,1.068a6.4,6.4,0,0,0-.176,2.267,2.172,2.172,0,0,0,1.3,1.748c.8.274,1.752-.092,2.474.341.888.532.8,1.826.592,2.841a8.607,8.607,0,0,0-1.841-.574,22.148,22.148,0,0,1,.79,6.824,35.928,35.928,0,0,1-5.882-6.035c-1.654-2.151-2.8-4.625-4.452-6.742a15.458,15.458,0,0,0-5.565-4.4c-1.732-.868-3.282-.858-5.181-1.051,0-1.265.137-2.575.136-3.84a7.649,7.649,0,0,0,4.406.542q2.191-.186,4.37-.489a8.557,8.557,0,0,0,2.189-.514,4.544,4.544,0,0,0,2.173-1.955,1.411,1.411,0,0,0,1.842.353,6.333,6.333,0,0,1,4.128-1.094c1.452.049,2.882.366,4.331.478a15.665,15.665,0,0,0,9.724-2.541,4.369,4.369,0,0,0,2.364-2.976,11.791,11.791,0,0,0,.366-5.428c-.615-2.684-3.327-4.884-5.928-5.544-.786-.2-3.478-.678-4.106.067a5.13,5.13,0,0,0,.829-5.107c-2.491-.185-4.959-.624-7.45-.815-3.946-.3-7.984-.027-10.961,2.8a14.74,14.74,0,0,0-2.1,2.52,5.13,5.13,0,0,1-1.878,2.036.428.428,0,0,1-.253.052c-.173-.034-.247-.235-.294-.4a13.155,13.155,0,0,0-1.889-4.069,19.175,19.175,0,0,0-11.336-7.806c-.273,2.622.044,5.2-.665,7.8a6.122,6.122,0,0,1-1.74,2.737,18.271,18.271,0,0,1-2.62,1.971c-.375.248-.329.42-.775.365a8.145,8.145,0,0,0-6.461,2.094,2.884,2.884,0,0,0-.918,1.365,3.026,3.026,0,0,0-.025,1.025,11.328,11.328,0,0,0,.586,2.595c.221.624.7,1.233.289,1.754a4.515,4.515,0,0,0-2.586,2.5,8.976,8.976,0,0,0-.965,7,16.973,16.973,0,0,0-4.155.094c0-.252-.044-.44-.026-.691a7.41,7.41,0,0,0-1.648-5.167c-.733-.892-1.667-1.6-2.411-2.483a28.025,28.025,0,0,1-3.484-5.473c-.912-1.776-2.351-4.755-4.689-4.791A13.43,13.43,0,0,1,306,84.344a10.164,10.164,0,0,0,.7-2.519c-.007.047,3.127-.175,3.341-.211a3.241,3.241,0,0,0,2.4-1.448c.752.984,1.554,1.331,2.31,2.312.92,1.192,2.586,1.472,4.091,1.543a12.737,12.737,0,0,0,3.867-.3A6.077,6.077,0,0,0,325.96,81.7c1.721-2.195,2.02-6.215,1.219-8.785a9.6,9.6,0,0,0-11.453,3.563,5.656,5.656,0,0,0-.67,1.267,1.516,1.516,0,0,1-.38.714c-.212.172-.546-.063-.6-.331a7.142,7.142,0,0,0,.936-5.711c-.513-1.921-1.715-2.277-2.971-3.818a7.381,7.381,0,0,0-3.9-2.168,22.029,22.029,0,0,0-7.7-.689,2.782,2.782,0,0,0-1.8.634c.448.534.369.671.829,1.194a3.734,3.734,0,0,1,.469,3.629,16.228,16.228,0,0,1-1.877,3.331,22.867,22.867,0,0,0-3.407,10.077c-.152,1.643.042,3.318-.117,4.923-.157,1.582-.185,3.054,1,4.292a7.71,7.71,0,0,0,2.32,1.564c.267.126.691.122.7.417a4.4,4.4,0,0,0-.266,4.028.38.38,0,0,1-.1.352,17.1,17.1,0,0,0-2.685-.121,5.722,5.722,0,0,0-2.569.711.112.112,0,0,1-.093.022c-.034-.013-.045-.055-.05-.091-.021-.143,0,.027.016-.117a4.353,4.353,0,0,0-2.322-4.167,8.839,8.839,0,0,0-4.918-.88,9.274,9.274,0,0,0-3.447.769,12.292,12.292,0,0,0-3.367,2.734c-2.455,2.531-5.03,5.291-5.6,8.771a17.431,17.431,0,0,0-.129,3.185,4.157,4.157,0,0,1-.872-3.454,8.226,8.226,0,0,1,1.519-2.951c2.464-3.516,5.441-6.429,7.125-10.379a7.379,7.379,0,0,0-.242-6.7c-3.783-6.061-12.7-4.888-18.12-1.933-.588.321-1.218.806-1.209,1.476.006.517.393,1.089.081,1.5-.074-.137-.079.306-.126.157a10.015,10.015,0,0,0-2.037-3.471,15.226,15.226,0,0,0-4.671-3.646c-.568-.287-3.95-2.147-4.386-1.313a.206.206,0,0,0-.005.132,8.576,8.576,0,0,1-.364,4.231c-.522,1.541-1.3,2.924-1.682,4.515a9.107,9.107,0,0,0,.157,4.82c.852,2.782,3.612,4.307,6.4,4.533a2.045,2.045,0,0,1,1.041.274.694.694,0,0,1,.22.947.927.927,0,0,1-.672.256c-1.808.131-3.7-.641-5.39.026a3.5,3.5,0,0,1-1.534.476,2.59,2.59,0,0,1-1.063-.472,10.419,10.419,0,0,0-12.924,2.03,2.971,2.971,0,0,0-.712,1.234,3.1,3.1,0,0,0,.036,1.219c.226,1.273.061,2.115.694,3.242l4.69,8.354c1.388,2.473,3.116,4.482,4.21,7.12a7.813,7.813,0,0,1,.49,6.081c-.968,4.58-.455,9.111-3.972,12.2a16.814,16.814,0,0,1-5.44,2.8,3.933,3.933,0,0,1-1.079.285.566.566,0,0,1-.448-.118.611.611,0,0,1-.13-.255c-.409-1.314-.647-1.89.058-3.072l2.265-3.794a14.2,14.2,0,0,0,1.705-3.579,14.209,14.209,0,0,0,.157-4.733c-.261-3.307-.359-7.143-1.788-10.2a19.52,19.52,0,0,0-6.05-6.788.969.969,0,0,0-.547-.244c-.485,0-.67.625-.712,1.108a10.655,10.655,0,0,1-1.047,4.716,32.492,32.492,0,0,1-2.189,3.386,5.906,5.906,0,0,1-3.823,2.256c-3.8.956-6.378,2.728-9.494,5.11a1.722,1.722,0,0,0-.223,2.2,5.846,5.846,0,0,0,1.769,1.617,5.169,5.169,0,0,1,1.866,1.918,25.386,25.386,0,0,0-7.944-.91,8.028,8.028,0,0,0-2.562.44,33.252,33.252,0,0,0,.4,9.072c.19,1.325.676,2.61.219,3.886a17.517,17.517,0,0,0-1.022,3.646c-.359,2.793.637,5.562,1.617,8.2l3.411,9.192c.537,1.448,1.208,2.9,1.691,4.354.435,1.311.463,2.77.837,4.124.158.572.838.8,1.425.887.919.137,1.85.155,2.774.234.439.038,2.336.093,2.479.6.126.45-1.761,1.436-2.11,1.675a16.616,16.616,0,0,0-2.371,1.624.4.4,0,0,1-.235.095c-.14-.007-.228-.152-.282-.282a3.257,3.257,0,0,1-.213-1.693,13.392,13.392,0,0,0-2.982,2.163,15.406,15.406,0,0,0-2.627,3.245c-1.121,1.708-1.687,3.612-2.678,5.378a6.361,6.361,0,0,1-3.038,3,13,13,0,0,0-3.757,2.463,25.255,25.255,0,0,0-4.251,5.447,1.932,1.932,0,0,0-.331.781c-.03.284-.086.559.18.662a10.267,10.267,0,0,0,6.855,4.172c.54.076,1.192-.049,1.436.439a9.589,9.589,0,0,0,3.857,3.528,15.387,15.387,0,0,0,2.452.926,8.632,8.632,0,0,0-1.155,3.532,13.819,13.819,0,0,0,.463,3.91c.228.962,1.179,2.317,2.3,1.329a5.952,5.952,0,0,1,2.277-1.079,3.4,3.4,0,0,1,1.8-.189c.926.239.938,1.013,1.1,1.783a3.755,3.755,0,0,0,1.242,2.2c.576.477,1.325.8,1.672,1.464a.371.371,0,0,1,.056.224.389.389,0,0,1-.124.2c-1.238,1.256-3.009.518-4.505.2a40.433,40.433,0,0,1-4.82-1.607,13.965,13.965,0,0,1-1.871-.758c-3.452-1.8-3.157-5.647-5.611-8.192a8.174,8.174,0,0,0-5.158-2.43,21.386,21.386,0,0,0-3.03.3,10.286,10.286,0,0,1-3.155-.289c-1.3-.334-2.232-1.318-3.482-1.815-3.07-1.22-6.535-.6-9.806-1.057a6.944,6.944,0,0,0-3.33-.139.527.527,0,0,0-.609.271,1.537,1.537,0,0,0-.145.7c-.1,2.151-.163,4.435.911,6.3a17.056,17.056,0,0,0,6.077,5.482,4.445,4.445,0,0,1-.908,1.529,16.2,16.2,0,0,0-1.607,2.8,5.143,5.143,0,0,0-.672,2.1c-.015.777.386,1.025,1.011,1.487a6.68,6.68,0,0,0,2.132.909l3.884,1.144-2.348,1.71a.328.328,0,0,0-.148.175c-.032.148.138.254.281.305a14.158,14.158,0,0,0,4.051.642c1.253.068,2.446-.021,3.7.014a.6.6,0,0,1,.4.109.563.563,0,0,1,.1.53,7.223,7.223,0,0,1-.431,1.254,15.68,15.68,0,0,0-.4,10.5.515.515,0,0,0,.253.331.5.5,0,0,0,.336-.033c.62-.223,1.182-.581,1.787-.843,2.352-1.016,5.065-.654,7.5-1.422.24-.076.48-.151.714-.244a5.135,5.135,0,0,0,2.119-1.582,2.055,2.055,0,0,1,1.2-.7,1.678,1.678,0,0,1,.788-.092,1.707,1.707,0,0,1,.964.608,6.137,6.137,0,0,1,1.182,3.541,45.607,45.607,0,0,0,.732,6.615,3.107,3.107,0,0,0,.555,1.3,2.861,2.861,0,0,0,2.323.516,5.284,5.284,0,0,0,1.527-.651,38.76,38.76,0,0,0,4.565-3.033,22.491,22.491,0,0,0,4.661-4.241,4.957,4.957,0,0,1,2-1.876,3.843,3.843,0,0,1,2.864.381c1.492.684,1.5,2.487.788,3.827a9.048,9.048,0,0,1-2.461,2.645,11.146,11.146,0,0,0-2.566,2.555,3.51,3.51,0,0,0-.33,3.454c1.1,2.023.855,4.791,2.582,6.485a9.394,9.394,0,0,0-2.76,2.43,19.278,19.278,0,0,0-1.326,2.126,15.991,15.991,0,0,0-1.784,5.114,19.8,19.8,0,0,0-.071,7.968.139.139,0,0,0,.138.128,13.948,13.948,0,0,0,3,.09q1.673-.016,3.339-.2a33.84,33.84,0,0,0,6.455-1.347c.756-.237,1.534-.377,2.306-.547a19.8,19.8,0,0,0,2.272-.738,1.515,1.515,0,0,1,.284-.077c.7-.1,1.009.534,1.388,1,.415.511.818,1.031,1.236,1.54a12.1,12.1,0,0,0,2.816,2.66q.116.073.234.141a10.956,10.956,0,0,0,4.581-2.978c.388-.435.741-.9,1.086-1.369a18.368,18.368,0,0,0,5.8,3.335,27.629,27.629,0,0,0,4.738,1.623,1.714,1.714,0,0,0,.826.072c-.029-.178-.067-.353-.108-.528a6.481,6.481,0,0,1-.279-1.752c.095-2.263.448-4.187.6-6.446a16.932,16.932,0,0,0,0-3.385,6.17,6.17,0,0,0-1.437-3.372,8.05,8.05,0,0,0-3.637-1.63,10.322,10.322,0,0,0-2.7-.261c-.7.026-1.834.472-2.447,0a1.323,1.323,0,0,1-.262-.3c-1.524-2.169-2.539-4.5-4.854-6a5.974,5.974,0,0,0-3.248-1.084,1.155,1.155,0,0,1-.844-.183c-.856-.835,1.19-2.657,1.717-3.175a6.966,6.966,0,0,1,3.344-1.961,8.567,8.567,0,0,1,3.622.171,10.9,10.9,0,0,1,4.148,1.686,10.716,10.716,0,0,1,3.116,4.049c.757,1.545,1.329,3.176,2.1,4.712a7.824,7.824,0,0,0,1.467,2.333,11.1,11.1,0,0,0,6.01,2.939c.375.055,1.153.235,1.427-.027a3.438,3.438,0,0,0,1.217-1.769,13.794,13.794,0,0,0,.341-6.127,8.479,8.479,0,0,0-3.372-5.184c-.951-.707-2.03-1.23-2.965-1.958a1.864,1.864,0,0,1-.663-.784c-.118-.326-.285-.807.049-.9a25.984,25.984,0,0,0,6.775-2.994,2.8,2.8,0,0,0,.893-.765c.219-.329.462-.6.241-.926a13.107,13.107,0,0,0-1.636-2.081c-1.232-1.209-2.841-1.941-4.082-3.138a26.573,26.573,0,0,1-3.391-4.94,6.851,6.851,0,0,0-2.848-2.995,7.152,7.152,0,0,0-4.159-.435,4.227,4.227,0,0,0-2.306,1.023,3.641,3.641,0,0,0-.959,2.443,11.273,11.273,0,0,0,.316,2.662c.13.66.3,1.944-.6,2.192s-1.21-.767-1.3-1.428c-.34-2.484-1.923-3.744-4.216-4.223-2.016-.422-4.259-.552-5.779-2.123a9.145,9.145,0,0,1-.9-1.167c-.881-1.267-1.995-1.979-2.748-3.325a2.777,2.777,0,0,0-3.043-1.019c-.9.2-1.9.626-2.665.113a2.868,2.868,0,0,1-.6-.632,12.179,12.179,0,0,0-3.006-2.64c-.8-.512-2.96-1.027-2.877-2.19.036-.5.5-.842.93-1.093A15.376,15.376,0,0,1,224,223.569c2.115-.677,3.616-2.316,5.022-3.949,1.5-1.743,2.851-3.462,5.161-4.072,2.531-.669,5.6.059,7.959,1.076a6.832,6.832,0,0,0,2,.675,1.811,1.811,0,0,0,1.812-.827,2.478,2.478,0,0,0,.084-1.514,6.109,6.109,0,0,0-1.619-3.676c-1.012-.9-1.4-2.281-2.663-2.772a3.05,3.05,0,0,0-3.62,1,4.909,4.909,0,0,0-.563,1.784l-.226,1.257c.147.241-.018.267-.266.4a1.271,1.271,0,0,1-.827.066,2.6,2.6,0,0,1-2.175-1.77,5.57,5.57,0,0,1,.007-1.457c.074-1.644-.325-3.25-.017-4.892.208-1.109.849-2,1.138-3.025a5.644,5.644,0,0,0-.6-3.637,7.736,7.736,0,0,0-2.127-2.671c-1.689-1.352-2.121-3.883-2.1-5.92a8.1,8.1,0,0,1,.565-3.19,21.97,21.97,0,0,0,1.669-3.487,9.118,9.118,0,0,0,.119-2.709c-.024-.423-.056-.187.18-.539a2.4,2.4,0,0,1,.982-.784,1.971,1.971,0,0,1,.74-.216c1.684-.086,2.823,2.968,3.884,4a10.528,10.528,0,0,0,4.2,2.474,8.408,8.408,0,0,0,5.069-.53,5.335,5.335,0,0,0,3.5-3.135c4.543,1.461,9.561-1.7,9.257-6.654-.092-1.5-.282-3.011-.407-4.506a8.765,8.765,0,0,1,.959-5.083q-2.434.191-4.853.53a16.859,16.859,0,0,0-3.125.6c-.182-.092.418-.31.223-.249a.663.663,0,0,1-.267.06c-.251-.03-.276-.385-.221-.633.217-.969.572-1.907.739-2.886a4.152,4.152,0,0,0-.4-2.887,4.84,4.84,0,0,0-2.579-2.4c-.548-.208-1.136-.295-1.687-.495-1.086-.395-1.982-1.212-3.076-1.583a4.565,4.565,0,0,0-5.049,1.782,5.424,5.424,0,0,0-.231,5.466c1.346,2.579,4.38,3.838,6.051,6.219a2.634,2.634,0,0,1,.584,1.595,1.191,1.191,0,0,1-1.05,1.168,2,2,0,0,1-1.092-.489,9.987,9.987,0,0,0-5.541-1.765c-2.1-.022-3.685.149-4.347-2.3a17.92,17.92,0,0,1-.331-3.332,13.822,13.822,0,0,0-1.124-4.486c-.732-1.666-1.981-3.309-3.77-3.64-.861-.159-.04-1.387.585-2a3.456,3.456,0,0,1,2.468-.672,29.747,29.747,0,0,1,3.625.172c1.868.224,3.7.719,5.563.954a10.049,10.049,0,0,0,5.536-.611c2.259-1.065,3.377-3.442,4.632-5.444,2.121-3.385,2.267-7.072,1.959-10.992-.056-.718-.271-1.523-.276-2.225a.673.673,0,0,1,.555-.6,2.135,2.135,0,0,1,.873.052,19.787,19.787,0,0,0,6.646-.09,5.025,5.025,0,0,1,4.77,1.476,2.3,2.3,0,0,1,.764,1.541c-.025.969-1.039,1.565-1.92,1.971l-1.842.847c-.449.207-.971.527-.945,1.02a1.2,1.2,0,0,0,.2.529,22.427,22.427,0,0,0,8.884,8.817c0,.1-.16.187-.161.291q-1.432.279-2.871.515a4.58,4.58,0,0,0,.525,2.378,39.3,39.3,0,0,0,3.388,7.167c1.664,2.44,3.965,4.485,7.009,4.79,3.73.374,7.14-2.782,9.076-5.639a22.286,22.286,0,0,0,6.505.678,16.422,16.422,0,0,0,8.313-2.831,8.819,8.819,0,0,0,2.407-3.4c.684-1.317,1.795-1.657,3.3-1.66a13.156,13.156,0,0,1,3.717.531c1.145.335,2.16,1.14,3.254,1.46a20.006,20.006,0,0,0,4.108.276,24.444,24.444,0,0,0,4.251-.064c2.91-.344,5.938-1.119,8.018-3.183a8.079,8.079,0,0,0,2.359-6c-.086-2.018-.954-5.157-3.093-5.875a.6.6,0,0,0-.26-.042.66.66,0,0,0-.316.17c-1.035.835-2.034,1.691-3.031,2.57a3.7,3.7,0,0,1-2.213,1.18,3.394,3.394,0,0,1-1.169-.246,16.23,16.23,0,0,1-7.355-5.345c-1.173-1.457-2.231-2.792-4.17-3.05a6.322,6.322,0,0,0-4.593,1.171,5.255,5.255,0,0,1-2.1,1.3c-1.376.23-5.056-3.252-3.259-4.054a1.324,1.324,0,0,1,.563-.073l5.612.085a9.621,9.621,0,0,0,3.774-.447,3.277,3.277,0,0,0,2.193-2.856,3.873,3.873,0,0,0-1.047-2.333,9.745,9.745,0,0,0-7.554-3.46c-1.671.03-3.3.488-4.977.4a8.389,8.389,0,0,1-4.391-1.857c-1.808-1.211-4.255-1.8-6.309-2.577a17.293,17.293,0,0,0-5.636-1.433,5.861,5.861,0,0,0-5.089,2.324c-1.011,1.556-.918,3.567-.659,5.4a7.931,7.931,0,0,0,1.42,3.853,2.185,2.185,0,0,1,.4.878,1.792,1.792,0,0,1-.268.995,8.955,8.955,0,0,1-2.01,2.577,4.166,4.166,0,0,0-.785.8,2.5,2.5,0,0,0-.343,1.038,4.847,4.847,0,0,0,1.355,4.007c.465.465,1.085,1.012.89,1.639a1.563,1.563,0,0,1-1.74-.11,4.586,4.586,0,0,1-1.181-1.416l-2.417-3.857c-.964-1.539.27-2.788.561-4.58.584-3.6,1.2-7.286,3-10.457a28.012,28.012,0,0,0,2.272-4.462c.159-.457,1.444-3.919,1.066-4.093.472.217.613.647.919,1.021a5.929,5.929,0,0,0,1.093.983,9.47,9.47,0,0,0,2.645,1.324,24.342,24.342,0,0,0,5.029.9,23.773,23.773,0,0,0,3.951.032c1.148,2.148,2.193,4.538,4.494,5.334a10.534,10.534,0,0,0,2.1.419,11.563,11.563,0,0,0,5.271-.133c1.676-.582,3.125-2.231,2.855-3.985.214,1.386,2.107,1.93,3.14,2.373a19.349,19.349,0,0,0,4.866,1.79,11.793,11.793,0,0,0,3.921-.425,14.183,14.183,0,0,1,4.46.282,49.116,49.116,0,0,1,8.889,2.7c2.04.765,3.616,3.6,4.481,5.487a12.047,12.047,0,0,0,.719,1.462,8.409,8.409,0,0,0,1.936,1.956c1.517,1.217,3.37,2.463,5.255,1.986,2.716-.688,5.2,1.336,7.993,1.14a9.257,9.257,0,0,0,7.182-3.764,9.746,9.746,0,0,0,1.191-2.842c.141-.532.078-2.387.451-2.734.933-.868,1.937.929,2.363,1.465.367.461.842.828,1.205,1.292a3.567,3.567,0,0,1,.63,3.063,14.679,14.679,0,0,0-4.683,2.174.66.66,0,0,0-.271.292.652.652,0,0,0,.027.393,9.594,9.594,0,0,0,4.37,5.574c.411.237.112,1.124-.2,1.479a1.117,1.117,0,0,1-1.3.248,2.7,2.7,0,0,1-.838-.878,4.313,4.313,0,0,0-1.712-1.4,6.871,6.871,0,0,0-2.068-.413c-2.777-.263-5.559-.526-8.348-.516-.251-.245-.623-.053-.826.233a1.841,1.841,0,0,0-.237,1.009,15.971,15.971,0,0,0,.129,3.579,8.032,8.032,0,0,0,2.22,4.186,10.033,10.033,0,0,0,6.05,2.661c1.34.139,2.914-.283,4.167-.094,1.306.2,1.785,1.467,2.427,2.6a14.558,14.558,0,0,0,21.67,4.261,2.979,2.979,0,0,0,.961-1.092,2.781,2.781,0,0,0,.1-1.522,8.588,8.588,0,0,0-3.038-5.3,3.937,3.937,0,0,0,.923-1.151c.806-1.236.895-2.786,1.251-4.218a11.092,11.092,0,0,1,.958-2.5,8.2,8.2,0,0,1,2.346-3.192c.256-.217.553-.52.431-.833a.7.7,0,0,0-.192-.248c-1.1-1.015-2.641-1.108-4.032-1.389a16.953,16.953,0,0,0-5.022-.252c-.584.058-2.044.625-2.444,0-.259-.4.067-1.2.289-1.556a2.9,2.9,0,0,1,.941-.848c1.741-1.123,3.946-2.326,6.06-1.87.814.176,1.6.467,2.423.6a9.786,9.786,0,0,0,2.726-.016,20.949,20.949,0,0,0,5.475-1.436,8.16,8.16,0,0,1,9.81,3.408,1.967,1.967,0,0,1,.352,1.173c-.115,1.034-1.427,1.337-2.414,1.664a5.914,5.914,0,0,0-3.945,5.244c-.106,2.692,2.589,5.183,4.28,7.031l7.036,7.688a19.188,19.188,0,0,1,2.6,3.781c1.756,3.145.683,6.6,3.163,9.549a15.355,15.355,0,0,0,5.591,3.931c.968.433,1.007.668,2.063.759.343.029.6.333.913.194a.764.764,0,0,0,.3-.3,12.633,12.633,0,0,0,1.7-3.988,23.061,23.061,0,0,0,1.078-4.5,20.762,20.762,0,0,0,.034-4.578,7.082,7.082,0,0,0,4.266,1.609c-.013-.093-.085.072-.145.145a9.007,9.007,0,0,0-1.784,3.581,5.292,5.292,0,0,0,.478,3.982c.821,1.308,2.255,2.4,3.227,3.622.99,1.244,1.947,2.744,1.67,4.31a8.855,8.855,0,0,0-1.969,2.375,14.035,14.035,0,0,0-2.569,6.308,6.492,6.492,0,0,0,2.555,6.03,5.351,5.351,0,0,0-2.031,3.358,2.385,2.385,0,0,0,.3,2.279,21.029,21.029,0,0,1-6.041,1.22,9.776,9.776,0,0,0,2.3-4.361,27.587,27.587,0,0,0,1.1-8.162,9.666,9.666,0,0,0-6.356-.311,9.3,9.3,0,0,0-5.079,3.814c-.471-2.842-2.555-4.923-5.082-6.305a20.827,20.827,0,0,0-8.31-2.131c.53,2.911-.24,6.131-.521,9.077a13.021,13.021,0,0,0,.52,5.789,5.72,5.72,0,0,0,1.021,1.923,2.8,2.8,0,0,0,1.88,1.012c1.207.075,3.7-.308,3.876,1.523.295,3.064-6.935,3.051-8.583,2.991-2.762-.1-5.49-.887-8.248-.72-1.531-.126-2.662.936-3.571,2.175a11.794,11.794,0,0,0-1.715,4.244,19.551,19.551,0,0,1-1.385,4.382c-.159.308-.337.606-.515.9a4.679,4.679,0,0,0,2.965,1.108c1.6.127,3.323.225,4.677-.633,2.157-1.367,2.368-4.432,3.9-6.473a5,5,0,0,1,3.575-2.035,5.133,5.133,0,0,1,3.687,1.372c1.9,1.706,3.975,3.247,5.382,5.461a14.6,14.6,0,0,1,2.3,7.731,6.164,6.164,0,0,1-1.217,4.116,7.8,7.8,0,0,1-4.237,2,27.014,27.014,0,0,1-10.967.512,10.182,10.182,0,0,0,6.08,8.177A20.147,20.147,0,0,0,401.689,246c-1.573,2.377-2.146,5.6-.776,8.1a7.971,7.971,0,0,0,1.759,2.355,10.47,10.47,0,0,1,7.293-2.323c.3.017.5.036.792.075a17.688,17.688,0,0,0-2.608,9.083,37.907,37.907,0,0,1-.021,5.661,1.808,1.808,0,0,1-.764,1.17,1.806,1.806,0,0,0,1.161.434,14.063,14.063,0,0,0,5.753-.419,8.457,8.457,0,0,0,4.612-3.339,11.645,11.645,0,0,0,3.089,8.857,12,12,0,0,0,8.685,3.917,11.222,11.222,0,0,0-.117-3.721,7.537,7.537,0,0,0,3.11,3.157,30.7,30.7,0,0,0,4.088,1.879,11.067,11.067,0,0,1,1.739.861,8.744,8.744,0,0,1,2.775,3.153c1.96-2.449,3.776-5.371,4.019-8.5a15.609,15.609,0,0,0-.2-3.25,14.794,14.794,0,0,0-2.874-6.614,7.03,7.03,0,0,0,2.6-1.242,7.479,7.479,0,0,0,4.3,3.067,13.707,13.707,0,0,0,9.377-.4c.357-.149.53-.152.767-.457-.257.33-1.154-2.476-1.17-2.557-.179-.907-.353-1.824-.591-2.717a10.412,10.412,0,0,0-.636-2.5,10.745,10.745,0,0,0,8.418-.363c.818-.4,1.585-.9,2.43-1.233a6.756,6.756,0,0,1,2.731-.463c.786.029,1.614.5,2.4.386.472-.066.427-.172.359-.639a6.109,6.109,0,0,0-.3-1.118,14.889,14.889,0,0,0-5.348-7.544,9.945,9.945,0,0,0-10.514-.439,7.516,7.516,0,0,0-2,1.773c-.07-.7-.556-1.017-.95-1.594l-1.221-1.788a4.575,4.575,0,0,0-1.393-1.353,3.175,3.175,0,0,0,1.111-3.37,7.466,7.466,0,0,1,7.149,1.474,27.654,27.654,0,0,1,.7-6.33c.459-1.687,1.391-3.416,1.466-5.173a7.9,7.9,0,0,0-.38-2.7c-.166-.526-.949-1.57.078-1.74a1.188,1.188,0,0,1,.974.372,7.739,7.739,0,0,1,.674.843,6.757,6.757,0,0,0,2.918,1.939,15.642,15.642,0,0,0,3.8.959c1.087.132,2.188.15,3.265.35a8.493,8.493,0,0,1,2.694.769l2.074,1.2c.293.169.817.922,1.2.82.62-.165.5-1.885.5-2.356A39.67,39.67,0,0,0,480.307,225.744Z" fill="#e6e6e6"/><path d="M319.14,413.591l-.028,0C319.125,413.646,319.133,413.625,319.14,413.591Z" fill="none" stroke="#000" stroke-linecap="round" stroke-linejoin="round"/><path d="M58.244,124.116c1.071-1.5,5.781-2.357,5.781-2.357s.738,4.73-.333,6.235a3.344,3.344,0,1,1-5.449-3.878Z" fill="none" stroke="#000" stroke-linecap="round" stroke-linejoin="round" stroke-dasharray="2 4"/><path d="M72.321,124.116c1.071-1.5,5.781-2.357,5.781-2.357s.738,4.73-.333,6.235a3.344,3.344,0,1,1-5.449-3.878Z" fill="none" stroke="#000" stroke-linecap="round" stroke-linejoin="round" stroke-dasharray="2 4"/><path d="M65.581,136.62c1.071-1.5,5.781-2.357,5.781-2.357s.738,4.73-.333,6.235a3.344,3.344,0,1,1-5.449-3.878Z" fill="none" stroke="#000" stroke-linecap="round" stroke-linejoin="round" stroke-dasharray="2 4"/><path d="M86.4,124.115c1.071-1.5,5.781-2.357,5.781-2.357s.738,4.73-.333,6.235a3.344,3.344,0,1,1-5.449-3.878Z" fill="none" stroke="#000" stroke-linecap="round" stroke-linejoin="round" stroke-dasharray="2 4"/><path d="M78.42,136.62c1.071-1.5,5.781-2.357,5.781-2.357s.738,4.73-.333,6.235a3.344,3.344,0,1,1-5.449-3.878Z" fill="none" stroke="#000" stroke-linecap="round" stroke-linejoin="round" stroke-dasharray="2 4"/><path d="M91.259,136.62c1.071-1.5,5.781-2.357,5.781-2.357s.738,4.73-.333,6.235a3.344,3.344,0,1,1-5.449-3.878Z" fill="none" stroke="#000" stroke-linecap="round" stroke-linejoin="round" stroke-dasharray="2 4"/><polyline points="118.254 119.481 115.37 124.855 125.637 127.451 96.453 156.482 110.218 130.835 99.952 128.24 108.869 119.368" fill="none" stroke="#000" stroke-linecap="round" stroke-linejoin="round" stroke-dasharray="2 4"/><path d="M123.256,119.339a13.4,13.4,0,1,0,0-26.8c-.081,0-.162,0-.243.006A23.449,23.449,0,0,0,80.5,75.881a13.4,13.4,0,0,0-17.442,18.4,13.4,13.4,0,0,0,6.6,25.064h53.6Z" fill="none" stroke="#000" stroke-linecap="round" stroke-linejoin="round" stroke-dasharray="2 4"/><path d="M319.14,413.591l-.028,0C319.125,413.646,319.133,413.625,319.14,413.591Z" fill="none" stroke="#000" stroke-linecap="round" stroke-linejoin="round" stroke-dasharray="2 4"/><path d="M319.14,413.591c-.007.034-.015.054-.028,0Z" fill="none" stroke="#000" stroke-linecap="round" stroke-linejoin="round" stroke-dasharray="2 4"/><path d="M340.368,252.922h-5.1a10.8,10.8,0,0,0-1-3.5,7.82,7.82,0,0,0,3.1-6.1v-.4a1,1,0,1,0-2,0v.4a5.637,5.637,0,0,1-2.2,4.5,7.725,7.725,0,0,0-1.9-1.7v-.2a4,4,0,1,0-8,0v.2a10.081,10.081,0,0,0-1.9,1.7,6.11,6.11,0,0,1-2-4.5v-.4a1,1,0,1,0-2,0v.4a7.4,7.4,0,0,0,3.1,6.1,9.532,9.532,0,0,0-1,3.5h-5.1a1,1,0,0,0,0,2h5.1a10.8,10.8,0,0,0,1,3.5,7.4,7.4,0,0,0-3.1,6.1v.4a1,1,0,0,0,2,0v-.4a5.637,5.637,0,0,1,2.2-4.5,7.491,7.491,0,0,0,5.8,2.9,7.342,7.342,0,0,0,5.8-2.9,5.637,5.637,0,0,1,2.2,4.5v.4a1,1,0,0,0,2,0v-.4a7.4,7.4,0,0,0-3.1-6.1,9.532,9.532,0,0,0,1-3.5h5.1a1,1,0,0,0,0-2Z" fill="none" stroke="#87b26b" stroke-linecap="round" stroke-linejoin="round"/><path d="M343.25,283.25h-3.825a8.1,8.1,0,0,0-.75-2.625A5.865,5.865,0,0,0,341,276.05v-.3a.75.75,0,0,0-1.5,0v.3a4.228,4.228,0,0,1-1.65,3.375,5.794,5.794,0,0,0-1.425-1.275V278a3,3,0,0,0-6,0v.15A7.561,7.561,0,0,0,329,279.425a4.582,4.582,0,0,1-1.5-3.375v-.3a.75.75,0,0,0-1.5,0v.3a5.549,5.549,0,0,0,2.325,4.575,7.149,7.149,0,0,0-.75,2.625H323.75a.75.75,0,0,0,0,1.5h3.825a8.1,8.1,0,0,0,.75,2.625A5.549,5.549,0,0,0,326,291.95v.3a.75.75,0,0,0,1.5,0v-.3a4.228,4.228,0,0,1,1.65-3.375,5.619,5.619,0,0,0,4.35,2.175,5.507,5.507,0,0,0,4.35-2.175,4.228,4.228,0,0,1,1.65,3.375v.3a.75.75,0,0,0,1.5,0v-.3a5.549,5.549,0,0,0-2.325-4.575,7.149,7.149,0,0,0,.75-2.625h3.825a.75.75,0,0,0,0-1.5Z" fill="none" stroke="#87b26b" stroke-linecap="round" stroke-linejoin="round"/><rect x="364" y="288" width="129" height="31" rx="6" ry="6" fill="#87b26b"/><path d="M371.48,292.189v-.8c0-.2.037-.332.111-.388a.6.6,0,0,1,.36-.084.383.383,0,0,1,.448.472v.8h1.783a.928.928,0,0,1,.625.168.822.822,0,0,1,.184.616v2.36a.842.842,0,0,1-.156.58.812.812,0,0,1-.564.18.511.511,0,0,1,.049.053c.016.018.031.038.048.059q.151.193.3.416c.1.15.2.3.3.445s.186.289.269.428.156.261.22.367a.71.71,0,0,1,.128.389.441.441,0,0,1-.24.316.475.475,0,0,1-.424.08.5.5,0,0,1-.264-.257c-.043-.075-.087-.155-.133-.243a2.955,2.955,0,0,0-.155-.269c-.454.059-.938.117-1.456.176s-1.023.113-1.52.164l-1.4.144c-.436.046-.8.079-1.084.1a.771.771,0,0,1-.512-.072.534.534,0,0,1-.145-.4.409.409,0,0,1,.133-.377.885.885,0,0,1,.459-.136q.6-.04,1.264-.092t1.369-.124v-1.168h-1.769a.865.865,0,0,1-.6-.16.836.836,0,0,1-.164-.6v-2.36a.877.877,0,0,1,.168-.612.833.833,0,0,1,.6-.172Zm-1.608,2.76a.334.334,0,0,0,.044.209.209.209,0,0,0,.156.047h1.408v-2.111h-1.408c-.134,0-.2.08-.2.24Zm4.176-1.615c0-.16-.071-.24-.216-.24H372.4v2.111h1.432a.2.2,0,0,0,.168-.063.315.315,0,0,0,.048-.192Zm-.424,3.464a.766.766,0,0,1-.208-.384.383.383,0,0,1,.176-.32H372.4v1.072l.691-.08.692-.08c-.026-.037-.054-.073-.08-.107S373.65,296.83,373.624,296.8Z" fill="#fff"/><path d="M376.616,295.542a.4.4,0,0,1-.368-.144.667.667,0,0,1-.088-.353.656.656,0,0,1,.088-.36.413.413,0,0,1,.368-.136h3l-.1-.084c-.034-.029-.07-.06-.107-.093a.792.792,0,0,1-.236-.264.608.608,0,0,1-.076-.287q0-.441.568-.648.368-.136.688-.26t.688-.252c.139-.049.2-.087.181-.116s-.119-.044-.3-.044h-3.7a.436.436,0,0,1-.364-.137.557.557,0,0,1-.107-.359.528.528,0,0,1,.107-.348.447.447,0,0,1,.364-.133h5.1a.759.759,0,0,1,.563.205.65.65,0,0,1,.2.475.628.628,0,0,1-.124.369,1,1,0,0,1-.38.3c-.16.079-.314.155-.465.224s-.307.141-.471.213-.345.145-.537.219-.408.155-.647.24a.2.2,0,0,0-.136.112q-.023.072.111.185c.176.16.336.319.48.479h2.439a.415.415,0,0,1,.369.136.656.656,0,0,1,.088.36.667.667,0,0,1-.088.353.4.4,0,0,1-.369.144H381.52a2.827,2.827,0,0,1,.1,1.584,1.673,1.673,0,0,1-.644,1.063,2.4,2.4,0,0,1-1.445.377,5.739,5.739,0,0,1-.807-.061,7.734,7.734,0,0,1-.929-.2.706.706,0,0,1-.36-.224.551.551,0,0,1-.056-.4.5.5,0,0,1,.216-.344.789.789,0,0,1,.5.016q.464.113.836.185a3.49,3.49,0,0,0,.652.071,1.253,1.253,0,0,0,.771-.2.845.845,0,0,0,.324-.512,2.113,2.113,0,0,0,.04-.7,1.833,1.833,0,0,0-.224-.663Z" fill="#fff"/><path d="M369.023,304.189c-.154.268-.333.342-.535.225a.246.246,0,0,1-.125-.229.682.682,0,0,1,.133-.34,5.426,5.426,0,0,0,.332-.6c.1-.217.2-.436.288-.66s.165-.447.231-.668a6.126,6.126,0,0,0,.156-.628c.048-.282.168-.416.359-.4a.281.281,0,0,1,.269.131.577.577,0,0,1,.013.356c-.027.122-.059.253-.1.392s-.08.277-.128.416h1.9v-1.24a.371.371,0,0,1,.072-.26.316.316,0,0,1,.24-.076.331.331,0,0,1,.227.068.356.356,0,0,1,.076.268v1.24H375.1a.374.374,0,0,1,.26.072.321.321,0,0,1,.076.24.331.331,0,0,1-.068.229.355.355,0,0,1-.268.075h-2.656v1.921h2.281a.376.376,0,0,1,.26.071.319.319,0,0,1,.076.24.347.347,0,0,1-.068.235.357.357,0,0,1-.268.076h-2.281v2.064h2.977a.369.369,0,0,1,.26.072.3.3,0,0,1,.076.231.341.341,0,0,1-.068.235.356.356,0,0,1-.268.076h-6.832a.356.356,0,0,1-.268-.076.341.341,0,0,1-.068-.235.312.312,0,0,1,.072-.231.367.367,0,0,1,.264-.072h3.24V305.35h-2.5a.356.356,0,0,1-.268-.076.342.342,0,0,1-.068-.235.327.327,0,0,1,.072-.24.371.371,0,0,1,.264-.071h2.5v-1.921H369.7q-.144.36-.315.712C369.266,303.752,369.146,303.977,369.023,304.189Z" fill="#fff"/><path d="M378.128,304.43a.25.25,0,0,1-.216.116.5.5,0,0,1-.288-.14q-.28-.24-.567-.444c-.193-.136-.4-.273-.617-.412s-.261-.28-.16-.44a.288.288,0,0,1,.2-.156.445.445,0,0,1,.26.076c.25.155.479.3.684.449s.4.293.58.447a.534.534,0,0,1,.2.268A.334.334,0,0,1,378.128,304.43Zm.16.984a10.325,10.325,0,0,1-.612,1.348,8.511,8.511,0,0,1-.8,1.2.444.444,0,0,1-.22.172.289.289,0,0,1-.244-.076.277.277,0,0,1-.128-.208.549.549,0,0,1,.16-.328,7.528,7.528,0,0,0,.7-1.06,10.563,10.563,0,0,0,.607-1.308.384.384,0,0,1,.16-.232.327.327,0,0,1,.248,0,.233.233,0,0,1,.172.152A.574.574,0,0,1,378.288,305.414Zm.008-3.12c-.112.155-.277.144-.5-.032-.187-.148-.384-.3-.592-.443s-.392-.269-.552-.365a.326.326,0,0,1-.18-.211.3.3,0,0,1,.067-.236c.106-.149.265-.16.472-.032.225.14.428.272.612.4s.369.267.556.416Q378.5,302.029,378.3,302.294Zm.776-.392a.522.522,0,0,1-.368-.068.39.39,0,0,1-.1-.252.278.278,0,0,1,.1-.248.692.692,0,0,1,.393-.08c.357,0,.691-.01,1-.027s.615-.049.908-.089.582-.091.868-.151.577-.135.876-.221a.479.479,0,0,1,.328-.012.281.281,0,0,1,.168.188.294.294,0,0,1-.032.276.7.7,0,0,1-.319.164c-.225.069-.463.131-.717.185s-.521.1-.8.144v1.248h2.071a.307.307,0,0,1,.24.088.319.319,0,0,1,.08.224.331.331,0,0,1-.08.232.307.307,0,0,1-.24.088h-2.071v1.1h1.224a.813.813,0,0,1,.528.137.653.653,0,0,1,.159.512v1.943a.689.689,0,0,1-.143.5.81.81,0,0,1-.545.136h-3.1a.819.819,0,0,1-.521-.132.64.64,0,0,1-.159-.509v-1.943a.66.66,0,0,1,.155-.512.8.8,0,0,1,.524-.137h1.232v-1.1h-2.072a.307.307,0,0,1-.24-.088.331.331,0,0,1-.08-.232.319.319,0,0,1,.08-.224.307.307,0,0,1,.24-.088h2.072V301.79c-.272.026-.546.05-.82.067S379.35,301.891,379.072,301.9Zm3.592,3.52q0-.12-.152-.12h-2.943a.172.172,0,0,0-.1.028.1.1,0,0,0-.04.092v1.792c0,.069.049.1.145.1h2.943c.1,0,.152-.035.152-.1Z" fill="#fff"/><path d="M387.68,300.869a.305.305,0,0,1,.076-.235.372.372,0,0,1,.252-.067.343.343,0,0,1,.236.067.305.305,0,0,1,.076.235v1.193h2.24a2.657,2.657,0,0,1,.392.023.443.443,0,0,1,.235.1.406.406,0,0,1,.117.225,1.965,1.965,0,0,1,.031.388v2.528a1.968,1.968,0,0,1-.027.355.432.432,0,0,1-.113.225.457.457,0,0,1-.235.115,1.945,1.945,0,0,1-.392.032H388.32v1.9a.31.31,0,0,1-.068.213.329.329,0,0,1-.252.076c-.139,0-.227-.023-.264-.068a.362.362,0,0,1-.057-.229v-1.888h-2.2a1.956,1.956,0,0,1-.393-.032.439.439,0,0,1-.232-.115.449.449,0,0,1-.107-.225,1.883,1.883,0,0,1-.027-.355V302.79a2,2,0,0,1,.027-.368.4.4,0,0,1,.111-.221.51.51,0,0,1,.232-.107,1.9,1.9,0,0,1,.389-.031h2.2Zm-2.2,1.809a.135.135,0,0,0-.1.036.114.114,0,0,0-.036.084v2.5a.15.15,0,0,0,.032.1.117.117,0,0,0,.1.039h2.207v-2.76Zm2.84,0v2.76h2.24a.177.177,0,0,0,.107-.031c.029-.021.044-.07.044-.145V302.8a.109.109,0,0,0-.036-.1.2.2,0,0,0-.107-.023Z" fill="#fff"/><path d="M395.376,307.086a.816.816,0,0,1-.14.531.657.657,0,0,1-.516.164h-1.648a.628.628,0,0,1-.508-.164.85.85,0,0,1-.133-.531v-4.84a.832.832,0,0,1,.133-.528.639.639,0,0,1,.508-.16h.439c.049-.128.09-.247.125-.356l.092-.3a.409.409,0,0,1,.155-.252.309.309,0,0,1,.292-.028c.117.042.184.1.2.18a.762.762,0,0,1-.04.341c-.027.074-.051.146-.072.215a1.929,1.929,0,0,1-.072.2h.529a.668.668,0,0,1,.516.16.8.8,0,0,1,.14.528Zm-.64-4.752c0-.091-.035-.137-.1-.137H393.16c-.059,0-.088.046-.088.137v1.88h1.664Zm0,2.52h-1.664V307a.2.2,0,0,0,.023.1.072.072,0,0,0,.064.041h1.472c.069,0,.1-.049.1-.145Zm1.359-1.312a.532.532,0,0,1-.268.252.315.315,0,0,1-.276-.044.237.237,0,0,1-.108-.221.677.677,0,0,1,.125-.332,4.411,4.411,0,0,0,.508-1.039,8.134,8.134,0,0,0,.308-1.225.367.367,0,0,1,.136-.26.338.338,0,0,1,.232-.052.292.292,0,0,1,.216.116.351.351,0,0,1,.04.275c-.021.1-.04.2-.056.288s-.038.182-.063.272h1.623a1.6,1.6,0,0,1,.432.048.516.516,0,0,1,.272.18.815.815,0,0,1,.144.376,4.573,4.573,0,0,1,.049.628q.007.432,0,.952c-.008.347-.02.684-.032,1.012s-.029.63-.048.9-.036.489-.053.645a5.352,5.352,0,0,1-.172.912,1.628,1.628,0,0,1-.279.567.853.853,0,0,1-.408.28,1.3,1.3,0,0,1-.549.031c-.139-.016-.262-.033-.371-.052s-.213-.038-.312-.06-.2-.047-.291-.076-.2-.065-.3-.107a.592.592,0,0,1-.328-.221.339.339,0,0,1,.016-.283.236.236,0,0,1,.2-.164.732.732,0,0,1,.312.051q.248.1.524.177a4.585,4.585,0,0,0,.516.12.648.648,0,0,0,.332-.021.5.5,0,0,0,.244-.228,1.813,1.813,0,0,0,.176-.5,6.206,6.206,0,0,0,.111-.836c.021-.229.039-.457.053-.68s.023-.463.031-.717.014-.53.017-.832,0-.648,0-1.044a.607.607,0,0,0-.084-.368.37.37,0,0,0-.3-.1h-1.68q-.129.384-.28.72A5.61,5.61,0,0,1,396.1,303.542Zm2.008,1.776a.751.751,0,0,1,.1.363.29.29,0,0,1-.172.221c-.2.1-.357,0-.48-.3a8.74,8.74,0,0,0-.444-.92q-.259-.472-.547-.928a.463.463,0,0,1-.084-.271.271.271,0,0,1,.131-.225.29.29,0,0,1,.232-.056.4.4,0,0,1,.232.208A20.271,20.271,0,0,1,398.1,305.318Z" fill="#fff"/><path d="M401.264,307.949a.269.269,0,0,1-.08.229.35.35,0,0,1-.216.061.37.37,0,0,1-.22-.061.261.261,0,0,1-.084-.229V301.9a.241.241,0,0,1,.084-.221.418.418,0,0,1,.22-.052.394.394,0,0,1,.216.052.247.247,0,0,1,.08.221Zm1.368-5.967a.3.3,0,0,1-.243.1.565.565,0,0,1-.309-.18c-.123-.117-.267-.246-.432-.385s-.32-.261-.465-.367a.512.512,0,0,1-.187-.205c-.02-.056.01-.135.084-.235q.192-.256.488-.024l.2.152c.086.064.174.133.265.208s.183.151.276.228.172.146.235.205a.477.477,0,0,1,.177.279A.305.305,0,0,1,402.632,301.982Zm3.3,3.76a1.636,1.636,0,0,1-.031.355.414.414,0,0,1-.349.34,1.883,1.883,0,0,1-.388.032h-2.328a1.383,1.383,0,0,1-.368-.04.505.505,0,0,1-.228-.124.47.47,0,0,1-.12-.224,1.367,1.367,0,0,1-.036-.34V303.27a1.53,1.53,0,0,1,.036-.367.449.449,0,0,1,.128-.229.5.5,0,0,1,.24-.116,1.8,1.8,0,0,1,.363-.032h2.28a2.02,2.02,0,0,1,.392.032.488.488,0,0,1,.244.12.475.475,0,0,1,.129.236,1.643,1.643,0,0,1,.035.371Zm-.6-2.512c0-.075-.051-.113-.152-.113h-2.367c-.092,0-.137.038-.137.113v2.527c0,.069.045.1.137.1h2.367c.1,0,.152-.034.152-.1Zm2.056,3.936a1.066,1.066,0,0,1-.172.684.822.822,0,0,1-.491.268,1.372,1.372,0,0,1-.521,0,3.116,3.116,0,0,1-.593-.184.457.457,0,0,1-.239-.176.287.287,0,0,1,.024-.232.315.315,0,0,1,.155-.2.386.386,0,0,1,.269.035,3.6,3.6,0,0,0,.392.137,1.094,1.094,0,0,0,.272.04.241.241,0,0,0,.224-.1.609.609,0,0,0,.063-.312v-5.345a.2.2,0,0,0-.031-.131.121.121,0,0,0-.1-.037h-3.353a.285.285,0,0,1-.231-.084.3.3,0,0,1-.072-.2.349.349,0,0,1,.072-.217.27.27,0,0,1,.231-.1h3.44a.685.685,0,0,1,.508.156.739.739,0,0,1,.147.516Z" fill="#fff"/><path d="M408.68,304.742a.337.337,0,0,1-.228-.08.3.3,0,0,1,0-.432.332.332,0,0,1,.228-.08h3.057a.264.264,0,0,1,.3.295.259.259,0,0,1-.288.3h-1.168v.9h1.168a.284.284,0,0,1,.216.084.3.3,0,0,1,.08.22c0,.188-.1.28-.3.28h-1.168v.864a2.4,2.4,0,0,0,.516.2,3.422,3.422,0,0,0,.564.093c.234.016.514.028.836.036s.656.014,1,.016.68,0,1.008,0l.868-.016a.546.546,0,0,1,.3.052.244.244,0,0,1,.1.228q0,.328-.4.328h-.852q-.485,0-.988,0c-.336,0-.667-.008-.992-.016s-.613-.018-.864-.028a3.127,3.127,0,0,1-1.384-.364,2.931,2.931,0,0,1-1.016-.979,4.6,4.6,0,0,1-.216.624c-.086.2-.182.4-.288.6a.486.486,0,0,1-.229.248.242.242,0,0,1-.252-.056.266.266,0,0,1-.107-.232.733.733,0,0,1,.132-.312,3.343,3.343,0,0,0,.424-.948,5.833,5.833,0,0,0,.191-1.252.51.51,0,0,1,.089-.292.243.243,0,0,1,.224-.068.246.246,0,0,1,.192.108.772.772,0,0,1,.04.38c-.006.069-.011.136-.017.2s-.014.125-.023.184a3.472,3.472,0,0,0,.275.5,2.281,2.281,0,0,0,.324.388v-1.951Zm2.984-1.713a.9.9,0,0,1-.12.528.543.543,0,0,1-.456.16H409.3a.567.567,0,0,1-.464-.16.854.854,0,0,1-.128-.528v-1.407a.858.858,0,0,1,.128-.528.567.567,0,0,1,.464-.16h1.784a.543.543,0,0,1,.456.16.9.9,0,0,1,.12.528Zm-.561-1.383a.2.2,0,0,0-.023-.1.068.068,0,0,0-.056-.04h-1.656c-.064,0-.1.048-.1.145v.383H411.1Zm0,.943h-1.831v.416c0,.1.031.145.1.145h1.656c.053,0,.079-.049.079-.145Zm1.265,4.632a.38.38,0,0,1-.3.084.276.276,0,0,1-.2-.163.3.3,0,0,1-.021-.244.529.529,0,0,1,.2-.205,5.75,5.75,0,0,0,.813-.592,1.869,1.869,0,0,0,.647-1.236,7.35,7.35,0,0,0,.044-.867v-.3a.62.62,0,0,1,.064-.319.268.268,0,0,1,.248-.1q.3.025.3.36a10,10,0,0,1-.068,1.28,2.845,2.845,0,0,1-.264.912,2.438,2.438,0,0,1-.548.712A6.624,6.624,0,0,1,412.368,307.222Zm-.136-5.647a.456.456,0,0,1-.28-.064.3.3,0,0,1-.08-.24.271.271,0,0,1,.088-.228.44.44,0,0,1,.272-.068h3.176a.378.378,0,0,1,.284.084.307.307,0,0,1,.075.212.314.314,0,0,1-.075.229.4.4,0,0,1-.284.076H414.12c-.048.293-.1.563-.168.808h.808a.846.846,0,0,1,.561.136.7.7,0,0,1,.144.512v2.313a.353.353,0,0,1-.072.256.3.3,0,0,1-.224.072.278.278,0,0,1-.3-.328v-2.176a.278.278,0,0,0-.032-.156.162.162,0,0,0-.136-.044h-1.624a.419.419,0,0,0-.216.044.175.175,0,0,0-.072.164v2.191a.327.327,0,0,1-.068.232.311.311,0,0,1-.235.072c-.123,0-.2-.027-.236-.084a.41.41,0,0,1-.052-.221v-2.336a.666.666,0,0,1,.155-.512.7.7,0,0,1,.469-.136h.527a7.94,7.94,0,0,0,.176-.808Zm3.279,5.576a.274.274,0,0,1-.252.1.582.582,0,0,1-.268-.18c-.123-.129-.245-.252-.368-.373s-.285-.268-.488-.443-.231-.336-.088-.48a.3.3,0,0,1,.229-.1.515.515,0,0,1,.275.145q.192.167.4.363t.464.444a.52.52,0,0,1,.192.288A.285.285,0,0,1,415.512,307.15Z" fill="#fff"/><path d="M422.272,305.533a.357.357,0,0,1-.064.217.259.259,0,0,1-.224.088h-5.416a.3.3,0,0,1-.217-.076.28.28,0,0,1-.079-.212.351.351,0,0,1,.067-.228.275.275,0,0,1,.229-.084h5.416a.269.269,0,0,1,.228.08A.349.349,0,0,1,422.272,305.533Zm-4.521-2.2c0,.074.04.111.136.111h4.752a.928.928,0,0,1,.292.041.41.41,0,0,1,.2.14.713.713,0,0,1,.124.276,1.849,1.849,0,0,1,.044.439,10.626,10.626,0,0,1-.155,2.12,3.072,3.072,0,0,1-.4,1.112,1.612,1.612,0,0,1-.588.416,1.983,1.983,0,0,1-.788.152,3.272,3.272,0,0,1-.692-.08,3.319,3.319,0,0,1-.748-.272.539.539,0,0,1-.271-.2.281.281,0,0,1,0-.244.263.263,0,0,1,.18-.168.5.5,0,0,1,.332.072,4.381,4.381,0,0,0,.6.232,1.993,1.993,0,0,0,.567.088,1.284,1.284,0,0,0,.528-.108,1.148,1.148,0,0,0,.4-.292,2.222,2.222,0,0,0,.312-.944,10.048,10.048,0,0,0,.112-1.832.692.692,0,0,0-.053-.284.136.136,0,0,0-.124-.076h-4.56a1.454,1.454,0,0,1-.66-.111.4.4,0,0,1-.164-.439c.059-.454.121-.887.188-1.3s.129-.828.188-1.244a.413.413,0,0,1,.1-.244.294.294,0,0,1,.224-.043c.134.01.212.042.236.1a.525.525,0,0,1,.02.248l-.1.623h5.32a.29.29,0,0,1,.224.072.332.332,0,0,1,.064.225.352.352,0,0,1-.064.22.266.266,0,0,1-.224.084h-5.408l-.16,1.112Z" fill="#fff"/><path d="M425.208,305.166c-.085.048-.169.1-.252.145s-.169.093-.26.135a.629.629,0,0,1-.269.08.193.193,0,0,1-.172-.127.386.386,0,0,1-.044-.3.44.44,0,0,1,.252-.22c.128-.063.255-.134.38-.208s.247-.149.364-.225v-1.791h-.648q-.359,0-.359-.3a.262.262,0,0,1,.1-.224.433.433,0,0,1,.264-.072h.648v-1.159a.332.332,0,0,1,.076-.244.286.286,0,0,1,.212-.076q.3,0,.3.32v1.159h.448a.454.454,0,0,1,.264.072.253.253,0,0,1,.1.224.268.268,0,0,1-.1.229.429.429,0,0,1-.268.076H425.8v1.359a2.2,2.2,0,0,0,.164-.148l.148-.147a.414.414,0,0,1,.271-.155.274.274,0,0,1,.225.107.325.325,0,0,1,.1.232.437.437,0,0,1-.16.256,7.437,7.437,0,0,1-.744.623V307.4a.86.86,0,0,1-.147.567.638.638,0,0,1-.5.168,1.5,1.5,0,0,1-.32-.04c-.123-.027-.256-.064-.4-.111a.271.271,0,0,1-.184-.152.332.332,0,0,1,.016-.264.272.272,0,0,1,.385-.168c.059.021.115.041.172.06a1.266,1.266,0,0,0,.172.044.238.238,0,0,0,.168-.008c.032-.021.048-.075.048-.16Zm1.256,2.24a2.68,2.68,0,0,0,1.056-.889,3.184,3.184,0,0,0,.488-1.4,5.383,5.383,0,0,1-.584.469c-.2.141-.408.279-.616.412a.7.7,0,0,1-.3.119A.23.23,0,0,1,426.3,306a.3.3,0,0,1-.04-.276.659.659,0,0,1,.3-.292c.1-.059.2-.123.309-.191s.216-.15.336-.24.249-.2.388-.316.291-.26.456-.42v-3.344a.345.345,0,0,1,.084-.248.292.292,0,0,1,.22-.088.307.307,0,0,1,.221.08.34.34,0,0,1,.084.256v3.464a6.358,6.358,0,0,1-.108,1.224,3.579,3.579,0,0,1-.344,1,2.943,2.943,0,0,1-.608.788,3.9,3.9,0,0,1-.892.608.6.6,0,0,1-.393.1.275.275,0,0,1-.191-.187.3.3,0,0,1,.023-.26A.729.729,0,0,1,426.464,307.406Zm1.313-4.064c.085.293.011.461-.225.5q-.271.048-.368-.336a8.545,8.545,0,0,0-.544-1.641c-.117-.229-.08-.395.112-.5.187-.08.331,0,.432.224.069.16.128.3.177.432s.095.258.14.389.089.27.132.416S427.723,303.15,427.776,303.342Zm2.008-.584c.085-.08.165-.162.24-.248s.15-.176.228-.271.156-.2.236-.316l.264-.38a.514.514,0,0,1,.248-.212.28.28,0,0,1,.24.068.335.335,0,0,1,.144.2c.017.072-.029.18-.136.324-.123.17-.239.325-.348.464s-.221.272-.332.4-.232.254-.36.377-.27.253-.424.392v.632a15.4,15.4,0,0,1,1.52,1.256.578.578,0,0,1,.2.332.358.358,0,0,1-.076.26.272.272,0,0,1-.244.076.54.54,0,0,1-.315-.22c-.032-.037-.084-.091-.156-.159s-.156-.147-.252-.232-.2-.178-.32-.276-.234-.2-.352-.292v1.889a.646.646,0,0,0,.132.447.7.7,0,0,0,.492.16,2.221,2.221,0,0,0,.408,0,.552.552,0,0,0,.271-.1.46.46,0,0,0,.152-.229,1.351,1.351,0,0,0,.048-.4.5.5,0,0,1,.063-.291.287.287,0,0,1,.208-.1c.139-.011.229.021.269.092a.565.565,0,0,1,.06.276,2.671,2.671,0,0,1-.067.648.9.9,0,0,1-.236.428.916.916,0,0,1-.456.228,2.974,2.974,0,0,1-.728.048,2.33,2.33,0,0,1-.553-.072.893.893,0,0,1-.38-.2.844.844,0,0,1-.22-.377,2.045,2.045,0,0,1-.072-.588v-5.879a.335.335,0,0,1,.084-.24.293.293,0,0,1,.221-.088.3.3,0,0,1,.22.084.33.33,0,0,1,.084.244Z" fill="#fff"/><path d="M433.52,303.582v-2.648a.348.348,0,0,1,.093-.264.337.337,0,0,1,.244-.088.251.251,0,0,1,.216.1.418.418,0,0,1,.071.256v.76h1.425a.419.419,0,0,1,.252.068.267.267,0,0,1,.092.229c0,.2-.115.295-.344.295h-1.425v1.3h.713a.891.891,0,0,1,.54.132.625.625,0,0,1,.172.517v2.983a.676.676,0,0,1-.152.513.863.863,0,0,1-.56.135h-1.681a.86.86,0,0,1-.532-.135.629.629,0,0,1-.172-.513V304.23a.626.626,0,0,1,.172-.513.854.854,0,0,1,.532-.136Zm1.44.7a.1.1,0,0,0-.028-.084.227.227,0,0,0-.115-.02h-1.608c-.091,0-.136.035-.136.1v2.889c0,.064.045.1.136.1h1.608c.1,0,.144-.031.144-.1Zm2.472-1.023q.041.407.08.729c.027.213.058.412.092.6s.072.363.112.531.087.34.141.517a6.481,6.481,0,0,0,.863-1.983.683.683,0,0,1,.145-.293.27.27,0,0,1,.239-.052.266.266,0,0,1,.229.151.663.663,0,0,1-.036.385,8.3,8.3,0,0,1-.528,1.348,6.734,6.734,0,0,1-.7,1.108q.1.233.228.487c.088.172.17.315.244.433.091.134.179.2.264.188s.157-.09.217-.244a2.385,2.385,0,0,0,.107-.368,5.43,5.43,0,0,0,.092-.64.552.552,0,0,1,.108-.336.337.337,0,0,1,.26-.072.234.234,0,0,1,.22.111.741.741,0,0,1,.028.368,5.01,5.01,0,0,1-.124.752,4.694,4.694,0,0,1-.2.632.691.691,0,0,1-.655.465.825.825,0,0,1-.437-.137,1.28,1.28,0,0,1-.4-.408c-.069-.111-.137-.229-.2-.352s-.126-.248-.185-.376a7.427,7.427,0,0,1-1.5,1.16.68.68,0,0,1-.367.124.234.234,0,0,1-.2-.148.281.281,0,0,1-.008-.268.768.768,0,0,1,.3-.252,6.341,6.341,0,0,0,1.552-1.232,13.252,13.252,0,0,1-.34-1.32,15.44,15.44,0,0,1-.229-1.527l-.928.119a.464.464,0,0,1-.268-.039.258.258,0,0,1-.124-.225.265.265,0,0,1,.063-.24.52.52,0,0,1,.24-.088l.968-.127c-.021-.272-.038-.557-.052-.853s-.025-.614-.036-.956a.458.458,0,0,1,.061-.252.267.267,0,0,1,.212-.107.326.326,0,0,1,.256.06.377.377,0,0,1,.088.292c-.006.288,0,.578.008.872s.026.581.048.864l1.88-.248c.208-.021.328.061.36.248s-.072.312-.3.344Zm1.624-1.5a.432.432,0,0,1,.112.268.339.339,0,0,1-.144.221q-.233.167-.44-.129c-.106-.154-.211-.295-.312-.424s-.225-.266-.368-.416a.362.362,0,0,1-.112-.2.267.267,0,0,1,.088-.221.274.274,0,0,1,.44.023q.208.233.372.429C438.8,301.429,438.923,301.579,439.056,301.75Z" fill="#fff"/><path d="M371.275,311.651v2.532a1.286,1.286,0,0,1-.032.309.521.521,0,0,1-.12.231.578.578,0,0,1-.234.147,1.16,1.16,0,0,1-.369.051,1.173,1.173,0,0,1-.264-.019,2.608,2.608,0,0,1-.264-.06c-.084-.024-.16-.051-.229-.078a.585.585,0,0,1-.144-.078.116.116,0,0,1-.052-.09.152.152,0,0,1,.024-.094.129.129,0,0,1,.078-.051.154.154,0,0,1,.117.03,2.008,2.008,0,0,0,.714.175,1.175,1.175,0,0,0,.24-.021.3.3,0,0,0,.152-.075.3.3,0,0,0,.082-.149,1.1,1.1,0,0,0,.023-.252v-2.509h-2.58c-.076,0-.113-.042-.113-.126s.037-.132.113-.132H373.6q.114,0,.114.132t-.114.126Zm-1.535.522a3,3,0,0,1-.234.648c-.076.184-.156.36-.242.53s-.176.335-.268.5a3.867,3.867,0,0,1-.372.559c-.056.059-.1.09-.136.09a.136.136,0,0,1-.092-.037.077.077,0,0,1-.043-.071.745.745,0,0,1,.127-.216c.119-.172.228-.336.324-.489a4.676,4.676,0,0,0,.245-.44c.068-.141.136-.289.2-.447s.129-.327.188-.508c.053-.147.112-.222.181-.222S369.74,312.1,369.74,312.174Zm3.287-2.28c.076,0,.115.042.115.126s-.039.12-.115.12H369q-.114,0-.114-.12t.114-.126Zm.57,4.5a.1.1,0,0,1-.041.087.193.193,0,0,1-.1.027.127.127,0,0,1-.1-.057,1.553,1.553,0,0,1-.142-.285q-.27-.612-.478-1.041c-.137-.287-.258-.52-.362-.7a.408.408,0,0,1-.069-.189.113.113,0,0,1,.039-.09.121.121,0,0,1,.088-.021.119.119,0,0,1,.068.024.627.627,0,0,1,.072.1,1.059,1.059,0,0,1,.078.138c.035.071.086.17.149.294.124.24.269.533.433.882.084.172.15.312.2.417s.084.182.1.225A.5.5,0,0,1,373.6,314.394Z" fill="#fff"/><path d="M374.811,311.478l-.123.288c-.043.1-.088.191-.136.288a3.112,3.112,0,0,1-.174.33.1.1,0,0,1-.078.048.127.127,0,0,1-.11-.057c-.026-.039-.012-.115.045-.231a8.615,8.615,0,0,0,.93-2.592c.012-.1.054-.144.126-.144s.114.031.114.1a3.69,3.69,0,0,1-.12.533c-.04.148-.079.289-.117.424s-.077.259-.117.375v4.1a.072.072,0,0,1-.024.09.162.162,0,0,1-.1.03.164.164,0,0,1-.1-.03.073.073,0,0,1-.023-.09Zm1.428-1.513h-.547c-.071,0-.107-.037-.107-.113s.036-.12.107-.12H378q.132,0,.132.12c0,.076-.044.113-.132.113H376.46c-.008.145-.017.289-.026.433s-.023.286-.039.427h1.115a.554.554,0,0,1,.162.021.264.264,0,0,1,.123.075.344.344,0,0,1,.078.149.982.982,0,0,1,.027.253,4.212,4.212,0,0,1-.366,1.812,3.778,3.778,0,0,1-.978,1.3q-.606.51-.8.51c-.076,0-.113-.036-.113-.107,0-.053.063-.119.191-.2a3.735,3.735,0,0,0,1.3-1.248,7.9,7.9,0,0,0-1.044-1.278,2.793,2.793,0,0,1-.4.678c-.18.229-.306.342-.377.342a.087.087,0,0,1-.061-.029.159.159,0,0,1-.018-.081c0-.034.041-.1.125-.194a4.336,4.336,0,0,0,.391-.525,2.459,2.459,0,0,0,.246-.547,4.22,4.22,0,0,0,.15-.723Q376.2,310.608,376.238,309.965Zm-.061,1.9a8.276,8.276,0,0,1,.576.612,7.367,7.367,0,0,1,.51.679,3.947,3.947,0,0,0,.4-1.807.371.371,0,0,0-.051-.234.317.317,0,0,0-.219-.054h-1.027A4.334,4.334,0,0,1,376.178,311.867Zm3.426,2.563a.633.633,0,0,1-.125.354.514.514,0,0,1-.475.187,2.4,2.4,0,0,1-.576-.078,1.847,1.847,0,0,1-.4-.114c-.052-.027-.078-.06-.078-.1a.125.125,0,0,1,.065-.126.285.285,0,0,1,.187,0,3.156,3.156,0,0,0,.744.155.48.48,0,0,0,.317-.08.371.371,0,0,0,.09-.285V309.5c0-.072.041-.108.121-.108s.125.036.125.108Zm-.947-.612a.075.075,0,0,1-.024.091.163.163,0,0,1-.1.029.166.166,0,0,1-.1-.029.076.076,0,0,1-.023-.091v-3.8a.124.124,0,0,1,.021-.084.219.219,0,0,1,.2,0,.13.13,0,0,1,.021.084Z" fill="#fff"/><path d="M381.4,311.058a.263.263,0,0,1,.188.078.25.25,0,0,1,0,.368.252.252,0,0,1-.372,0,.25.25,0,0,1,0-.368A.26.26,0,0,1,381.4,311.058Zm0,2.25a.263.263,0,0,1,.188.078.25.25,0,0,1,0,.368.252.252,0,0,1-.372,0,.25.25,0,0,1,0-.368A.26.26,0,0,1,381.4,313.308Z" fill="#fff"/><path d="M386.8,310.613a7.645,7.645,0,0,1-.09.858c-.032.216-.062.413-.09.591s-.056.342-.084.489a2.858,2.858,0,0,1-.12.51.107.107,0,0,1-.1.065c-.08,0-.12-.037-.12-.113a.461.461,0,0,1,.009-.078c.006-.031.013-.07.021-.113a13.342,13.342,0,0,0,.317-2.137.588.588,0,0,1,.036-.191.129.129,0,0,1,.12-.049C386.766,310.445,386.8,310.5,386.8,310.613Zm.589,4.254c0,.076-.043.114-.127.114s-.126-.038-.126-.114V309.5q0-.108.126-.108c.084,0,.127.036.127.108Zm.389-4.428c.037,0,.07.04.1.12s.1.394.216.931a9.13,9.13,0,0,1,.174.936c0,.08-.041.119-.125.119s-.131-.075-.15-.228a11.739,11.739,0,0,0-.324-1.6.686.686,0,0,1-.029-.156C387.639,310.481,387.684,310.439,387.775,310.439Zm1.045.282h-.612c-.067,0-.1-.04-.1-.12s.035-.12.1-.12h3.474q.108,0,.108.12t-.108.12h-2.615V313.8a.9.9,0,0,0,.119.535.472.472,0,0,0,.4.156h1.824a.339.339,0,0,1,.144.021.081.081,0,0,1,.042.081c0,.092-.06.138-.18.138h-1.878q-.713,0-.714-.931Zm1.451-.444a.088.088,0,0,1-.026.061.149.149,0,0,1-.065.041.137.137,0,0,1-.084,0,.162.162,0,0,1-.088-.071,4.231,4.231,0,0,0-.66-.726c-.072-.053-.094-.1-.065-.147a.163.163,0,0,1,.12-.081.257.257,0,0,1,.152.084c.063.057.166.162.309.318s.248.271.313.348A.329.329,0,0,1,390.271,310.277Z" fill="#fff"/><path d="M393.254,309.953h-.773c-.068,0-.1-.027-.1-.084a.17.17,0,0,1,.024-.113.107.107,0,0,1,.078-.024h1.7q.108,0,.108.114a.1.1,0,0,1-.108.107h-.7q-.091.349-.2.685c-.072.224-.147.45-.228.678h.582a.371.371,0,0,1,.278.087.469.469,0,0,1,.081.315v2.562a.464.464,0,0,1-.084.318.362.362,0,0,1-.275.09h-.5a.385.385,0,0,1-.283-.087.467.467,0,0,1-.084-.321v-2.262c-.092.191-.164.344-.219.456s-.091.187-.111.222c-.043.068-.082.1-.113.1a.143.143,0,0,1-.126-.057c-.028-.037-.013-.108.048-.213A9.039,9.039,0,0,0,393.254,309.953Zm.521,4.267v-2.46c0-.145-.067-.217-.2-.217h-.391c-.128,0-.191.072-.191.217v2.46a.325.325,0,0,0,.035.18.191.191,0,0,0,.156.048h.391a.211.211,0,0,0,.162-.048A.287.287,0,0,0,393.775,314.22Zm1.879-.912a.112.112,0,0,1,.08.039.106.106,0,0,1,.039.069c0,.072-.233.283-.7.636a2.713,2.713,0,0,1-.84.528.079.079,0,0,1-.072-.037.13.13,0,0,1-.023-.084c0-.031.063-.088.191-.168a5.591,5.591,0,0,0,1.152-.875A.255.255,0,0,1,395.654,313.308Zm1.3-2.478h-2.2c-.068,0-.1-.039-.1-.115s.033-.113.1-.113h2.215l.029-.4a.465.465,0,0,0-.029-.248c-.029-.047-.1-.07-.205-.07H394.58a.105.105,0,0,1-.12-.119.1.1,0,0,1,.024-.075.149.149,0,0,1,.1-.021h2.16a.694.694,0,0,1,.384.074.363.363,0,0,1,.1.3v.066a.442.442,0,0,1-.006.072l-.109,1.393h.637c.076,0,.113.031.113.1s-.008.1-.026.111a.146.146,0,0,1-.087.021h-1.607v.8a5.669,5.669,0,0,0,1.6,1.7.377.377,0,0,1,.129.116.106.106,0,0,1,.012.088.1.1,0,0,1-.054.054.157.157,0,0,1-.063.019.369.369,0,0,1-.144-.049,1.032,1.032,0,0,1-.149-.1c-.068-.053-.154-.124-.259-.217a4.2,4.2,0,0,1-.573-.575,8.411,8.411,0,0,1-.5-.69v1.62c0,.3-.139.456-.414.456a1.279,1.279,0,0,1-.42-.09,1.666,1.666,0,0,1-.34-.15c-.058-.039-.087-.074-.087-.1a.135.135,0,0,1,.06-.114c.041-.028.119-.012.234.048a1.261,1.261,0,0,0,.5.174c.152,0,.229-.121.229-.365V311.8h-1.633a.162.162,0,0,1-.09-.019.177.177,0,0,1-.023-.113c0-.064.037-.1.113-.1H396.9Zm-1.519,2.2a.223.223,0,0,1-.023.055.118.118,0,0,1-.048.045.107.107,0,0,1-.078,0,.253.253,0,0,1-.108-.088,4.387,4.387,0,0,0-.636-.576c-.1-.063-.149-.111-.149-.144a.138.138,0,0,1,.035-.09.114.114,0,0,1,.09-.042.405.405,0,0,1,.2.107q.135.108.346.307c.14.128.237.223.293.281A.252.252,0,0,1,395.438,313.025Zm2.137-.84a.118.118,0,0,1,.078.033.1.1,0,0,1,.035.074c0,.08-.131.236-.4.469s-.437.348-.528.348a.109.109,0,0,1-.078-.029.1.1,0,0,1-.029-.072c0-.057.046-.112.138-.168a2.444,2.444,0,0,0,.317-.24,3.492,3.492,0,0,0,.313-.312C397.484,312.22,397.534,312.186,397.574,312.186Z" fill="#fff"/><path d="M400.148,314.789c-.008.017-.019.039-.03.066a.158.158,0,0,1-.054.066.115.115,0,0,1-.1.006.4.4,0,0,1-.149-.114c-.168-.151-.328-.291-.48-.417a3.894,3.894,0,0,0-.456-.327.355.355,0,0,1-.129-.11.11.11,0,0,1-.012-.094.132.132,0,0,1,.054-.066.241.241,0,0,1,.063-.029,2.439,2.439,0,0,1,.7.45Q400.148,314.669,400.148,314.789Z" fill="#fff"/><path d="M405,312.972a5.079,5.079,0,0,1-.075.737,6.018,6.018,0,0,1-.144.631,4.1,4.1,0,0,1-.159.453.545.545,0,0,1-.12.2.122.122,0,0,1-.084.041.13.13,0,0,1-.093-.021.116.116,0,0,1-.045-.091.3.3,0,0,1,.06-.17,3.448,3.448,0,0,0,.309-.924,5.888,5.888,0,0,0,.111-1.177v-2.544a.941.941,0,0,1,.021-.213.253.253,0,0,1,.08-.138.368.368,0,0,1,.16-.072,1.254,1.254,0,0,1,.261-.021h.942a.605.605,0,0,1,.407.1.487.487,0,0,1,.1.356v4.194c0,.248-.055.4-.162.462a.66.66,0,0,1-.324.09,1.426,1.426,0,0,1-.468-.113,2.57,2.57,0,0,1-.372-.162.112.112,0,0,1-.069-.09.121.121,0,0,1,.033-.094.175.175,0,0,1,.1-.051.158.158,0,0,1,.125.036,1.361,1.361,0,0,0,.606.2c.192,0,.288-.1.288-.312v-1.313Zm1.488-1.818V310.1c0-.124-.068-.186-.2-.186H405.2a.164.164,0,0,0-.187.186v1.05Zm-1.477.222v1.375h1.477v-1.375Zm2.616,1.6v.019a4.991,4.991,0,0,1-.071.866,3.4,3.4,0,0,1-.205.711,1.788,1.788,0,0,1-.191.4.179.179,0,0,1-.139.084.1.1,0,0,1-.113-.113.353.353,0,0,1,.061-.18,3.485,3.485,0,0,0,.4-1.74v-2.862a.941.941,0,0,1,.021-.213.244.244,0,0,1,.082-.138.34.34,0,0,1,.158-.072,1.332,1.332,0,0,1,.262-.021h1.146a.6.6,0,0,1,.408.1.5.5,0,0,1,.1.357v4.283q0,.349-.156.438a.674.674,0,0,1-.342.09,1.725,1.725,0,0,1-.516-.12c-.112-.04-.2-.074-.268-.1a.714.714,0,0,1-.129-.066.121.121,0,0,1-.06-.1c0-.1.046-.145.138-.145a.31.31,0,0,1,.114.03,2.016,2.016,0,0,0,.738.239.206.206,0,0,0,.168-.065.365.365,0,0,0,.054-.228v-1.446Zm1.662-1.812v-1a.164.164,0,0,0-.063-.136.217.217,0,0,0-.141-.051h-1.271a.183.183,0,0,0-.187.187v1Zm-1.662.221v1.369h1.662v-1.369Z" fill="#fff"/><path d="M412.028,310.56h-1.6q-.114,0-.114-.132c0-.088.038-.133.114-.133h1.645c.036-.215.065-.449.09-.7q.023-.234.149-.234c.084,0,.126.055.126.162a2.553,2.553,0,0,1-.023.275c-.017.129-.04.295-.072.5h3.3c.08,0,.12.043.12.127s-.04.138-.12.138h-3.348c-.028.151-.059.3-.093.45s-.071.3-.111.449h2.586a.561.561,0,0,1,.36.105.346.346,0,0,1,.132.285,2.116,2.116,0,0,1-.33.756,4.373,4.373,0,0,1-.99,1.116,9,9,0,0,0,1.854,1.026c.111.047.168.1.168.144a.179.179,0,0,1-.024.078.08.08,0,0,1-.078.048,3.744,3.744,0,0,1-.821-.33,7.324,7.324,0,0,1-1.3-.8,5.818,5.818,0,0,1-1.476.792,4.356,4.356,0,0,1-.942.294q-.149,0-.149-.114a.087.087,0,0,1,.045-.08.8.8,0,0,1,.171-.063c.228-.064.439-.132.636-.2s.38-.149.552-.23a5.392,5.392,0,0,0,.489-.265c.154-.094.308-.194.459-.3A5.488,5.488,0,0,1,412,311.766a8.663,8.663,0,0,1-.486,1.23,5.917,5.917,0,0,1-.594.983,4.119,4.119,0,0,1-.414.517.245.245,0,0,1-.129.071.145.145,0,0,1-.087-.03.1.1,0,0,1-.042-.09.312.312,0,0,1,.1-.168,6.652,6.652,0,0,0,1.128-1.775A8.933,8.933,0,0,0,412.028,310.56Zm1.607,2.994a4.029,4.029,0,0,0,.942-1.021,1.92,1.92,0,0,0,.324-.678.115.115,0,0,0-.078-.111.714.714,0,0,0-.252-.033h-2.316A4.957,4.957,0,0,0,413.636,313.554Z" fill="#fff"/><path d="M420.7,312.264a.129.129,0,0,1,.065.029.119.119,0,0,1,.036.1.843.843,0,0,1-.162.312,5.058,5.058,0,0,1-.579.738,4.19,4.19,0,0,1-.678.576,4.774,4.774,0,0,1-.812.441,7.388,7.388,0,0,1-.99.332,5.881,5.881,0,0,1-1.086.217c-.084,0-.126-.032-.126-.1a.131.131,0,0,1,.054-.123.6.6,0,0,1,.192-.058,7.434,7.434,0,0,0,2.328-.756,3.953,3.953,0,0,0,.821-.612,4.806,4.806,0,0,0,.685-.84Q420.613,312.264,420.7,312.264Zm-2.772-2.178a2.42,2.42,0,0,1-.149.527,9.141,9.141,0,0,1-.36.877c-.068.151-.139.295-.213.428s-.151.262-.231.381a2.473,2.473,0,0,1-.288.408.142.142,0,0,1-.1.055.171.171,0,0,1-.084-.023.09.09,0,0,1-.042-.085.367.367,0,0,1,.09-.18,6.3,6.3,0,0,0,.36-.556c.112-.193.215-.393.309-.6s.178-.408.249-.613a6.158,6.158,0,0,0,.181-.605c.031-.115.082-.174.149-.174a.125.125,0,0,1,.087.035A.16.16,0,0,1,417.926,310.086Zm1.122,3.354a.16.16,0,0,1-.03.114.137.137,0,0,1-.1.03c-.088,0-.132-.049-.132-.145V309.5a.132.132,0,1,1,.264,0Zm2.292-.828c-.056,0-.11-.06-.162-.18a18.418,18.418,0,0,0-1.224-2.286c-.072-.112-.078-.192-.019-.239a.133.133,0,0,1,.091-.037.1.1,0,0,1,.077.043.342.342,0,0,1,.069.09l.123.191.354.618c.1.188.207.376.309.563s.192.36.27.517.142.287.189.394a.77.77,0,0,1,.072.194.111.111,0,0,1-.058.1A.191.191,0,0,1,421.34,312.611Z" fill="#fff"/><path d="M424.148,314.789c-.009.017-.019.039-.03.066a.151.151,0,0,1-.054.066.115.115,0,0,1-.1.006.4.4,0,0,1-.149-.114c-.168-.151-.328-.291-.48-.417a3.894,3.894,0,0,0-.456-.327.346.346,0,0,1-.129-.11.117.117,0,0,1-.012-.094.127.127,0,0,1,.054-.066.245.245,0,0,1,.063-.029,2.443,2.443,0,0,1,.7.45Q424.148,314.669,424.148,314.789Z" fill="#fff"/><path d="M429.194,313.326a3.026,3.026,0,0,1-.33.81c-.225.444-.376.666-.456.666a.216.216,0,0,1-.093-.03.1.1,0,0,1-.058-.1.575.575,0,0,1,.126-.234,1.831,1.831,0,0,0,.135-.2c.046-.08.094-.171.142-.271s.1-.2.138-.3.076-.19.108-.282c.04-.12.088-.181.144-.181C429.146,313.205,429.194,313.246,429.194,313.326Zm2.712-3.066a4.729,4.729,0,0,0,.228.729,7.09,7.09,0,0,0,.336.711,7.172,7.172,0,0,0,.486-1.008c.052-.119.1-.18.138-.18.1,0,.145.031.145.1a2.512,2.512,0,0,1-.229.576c-.076.156-.146.3-.213.423s-.129.235-.188.327a3.92,3.92,0,0,0,.438.605c.16.172.258.258.294.258a.07.07,0,0,0,.072-.053c.008-.021.019-.055.033-.1s.03-.112.051-.192.038-.156.054-.23.03-.145.042-.213c.024-.108.063-.162.114-.162q.144,0,.144.132a1.018,1.018,0,0,1-.026.181c-.019.084-.043.193-.075.329a1.606,1.606,0,0,1-.18.5.215.215,0,0,1-.181.1.739.739,0,0,1-.468-.295,3.274,3.274,0,0,1-.468-.611,5.486,5.486,0,0,1-.405.525,3.163,3.163,0,0,1-.3.3.407.407,0,0,1-.126.068.15.15,0,0,1-.087,0,.084.084,0,0,1-.048-.039.1.1,0,0,1-.016-.051c0-.064.064-.15.192-.259a2.422,2.422,0,0,0,.33-.333,4.713,4.713,0,0,0,.324-.447,7.368,7.368,0,0,1-.666-1.691H429.11a.146.146,0,0,0-.126.048.274.274,0,0,0-.036.162v.924a4,4,0,0,1-.042.552,5.042,5.042,0,0,1-.145.654,4.659,4.659,0,0,1-.144.462c-.028.063-.062.1-.1.1a.247.247,0,0,1-.107-.027.1.1,0,0,1-.055-.094,1.1,1.1,0,0,1,.085-.275,2.314,2.314,0,0,0,.084-.264c.027-.108.056-.232.084-.373a3.807,3.807,0,0,0,.09-.762v-.857a.563.563,0,0,1,.1-.375.4.4,0,0,1,.318-.117h2.478a5.077,5.077,0,0,1-.09-.534q0-.138.12-.138c.084,0,.132.05.144.15.009.051.02.121.033.207s.031.19.051.314h1.717a.111.111,0,0,1,.126.126q0,.12-.126.12Zm-.618.426q.108,0,.108.12t-.108.12h-1.9c-.071,0-.107-.04-.107-.12s.036-.12.107-.12Zm.03,1.668a.477.477,0,0,1-.126.354.488.488,0,0,1-.36.127h-.99a.424.424,0,0,1-.479-.48V311.8a.421.421,0,0,1,.479-.474h.99a.424.424,0,0,1,.486.474Zm-.252.012v-.594a.234.234,0,0,0-.052-.156.17.17,0,0,0-.135-.06h-1.074a.165.165,0,0,0-.129.06.233.233,0,0,0-.051.156v.594a.235.235,0,0,0,.054.159.163.163,0,0,0,.126.063h1.074C431,312.588,431.066,312.514,431.066,312.365Zm-1.032,1.83a.836.836,0,0,0,.045.234.232.232,0,0,0,.146.126,1.317,1.317,0,0,0,.343.058c.151.01.361.018.63.026.355,0,.586-.006.689-.019a.418.418,0,0,0,.24-.072.358.358,0,0,0,.15-.168.574.574,0,0,0,.054-.252v-.221c0-.093.042-.139.126-.139a.125.125,0,0,1,.111.051.477.477,0,0,1,.032.219.953.953,0,0,1-.129.549.636.636,0,0,1-.4.244,2.989,2.989,0,0,1-.378.047q-.24.019-.582.019a3.294,3.294,0,0,1-1.015-.114c-.22-.072-.33-.262-.33-.57v-.834c0-.084.044-.125.133-.125s.138.041.138.125Zm.983-1.074c.053,0,.1.047.145.139l.21.474a1.506,1.506,0,0,1,.144.447c0,.073-.046.11-.138.11-.052,0-.09-.039-.114-.119a4.153,4.153,0,0,0-.323-.78.3.3,0,0,1-.052-.129.149.149,0,0,1,.016-.084.088.088,0,0,1,.051-.045A.166.166,0,0,1,431.018,313.121Zm2.311-3.293a.132.132,0,0,1-.033.078.094.094,0,0,1-.075.041.107.107,0,0,1-.048-.018c-.02-.012-.049-.032-.087-.061l-.15-.11c-.062-.046-.141-.1-.236-.165a.178.178,0,0,1-.075-.072.088.088,0,0,1,0-.066.115.115,0,0,1,.039-.051.145.145,0,0,1,.051-.027.347.347,0,0,1,.15.063c.067.042.147.1.239.165a2.06,2.06,0,0,1,.184.146A.125.125,0,0,1,433.328,309.828Zm.516,4.709a.112.112,0,0,1-.051.1.157.157,0,0,1-.087.036c-.064,0-.126-.072-.187-.217a3.355,3.355,0,0,0-.252-.471,4.215,4.215,0,0,0-.354-.477.361.361,0,0,1-.1-.147.123.123,0,0,1,.006-.09.088.088,0,0,1,.054-.045l.054-.019q.12,0,.517.594A2.294,2.294,0,0,1,433.844,314.537Z" fill="#fff"/><path d="M439.52,311.459c0,.076-.042.115-.126.115s-.126-.039-.126-.115V310.1c0-.148-.062-.223-.186-.223h-4.128a.194.194,0,0,0-.216.223v1.326c0,.076-.042.113-.126.113s-.12-.037-.12-.113V310.1a.611.611,0,0,1,.072-.366c.052-.06.186-.09.4-.09h4.116a.6.6,0,0,1,.354.071c.057.049.084.177.084.385Zm-.432,3a.473.473,0,0,1-.09.328.407.407,0,0,1-.3.092h-3.384a.4.4,0,0,1-.3-.092.484.484,0,0,1-.087-.328v-2.2a.469.469,0,0,1,.087-.324.4.4,0,0,1,.3-.09H438.7a.407.407,0,0,1,.3.093.458.458,0,0,1,.09.321Zm-.276-3.3c.076,0,.114.039.114.119a.1.1,0,0,1-.114.114h-3.558a.1.1,0,0,1-.114-.114c0-.08.038-.119.114-.119Zm-.023-.744c.076,0,.114.039.114.119a.1.1,0,0,1-.114.114h-3.522a.1.1,0,0,1-.113-.114c0-.08.038-.119.113-.119Zm.054,2.346v-.475c0-.144-.063-.215-.191-.215h-3.288c-.124,0-.187.071-.187.215v.475Zm0,.93v-.714h-3.666v.714Zm0,.732v-.516h-3.666v.516a.233.233,0,0,0,.055.158.163.163,0,0,0,.132.063h3.288C438.778,314.646,438.842,314.571,438.842,314.424Z" fill="#fff"/><path d="M442.148,314.789c-.009.017-.019.039-.03.066a.151.151,0,0,1-.054.066.115.115,0,0,1-.1.006.4.4,0,0,1-.149-.114c-.168-.151-.328-.291-.48-.417a3.894,3.894,0,0,0-.456-.327.346.346,0,0,1-.129-.11.117.117,0,0,1-.012-.094.127.127,0,0,1,.054-.066.245.245,0,0,1,.063-.029,2.443,2.443,0,0,1,.7.45Q442.148,314.669,442.148,314.789Z" fill="#fff"/><path d="M447.866,313.14h2.256v-.606c0-.1.04-.156.12-.156s.126.053.126.156v.606h1.35q.114,0,.114.132t-.114.132h-1.35v1.519c0,.084-.044.125-.132.125s-.114-.041-.114-.125V313.4h-2.274a1.829,1.829,0,0,1-.485,1.23q-.409.4-.576.4a.087.087,0,0,1-.072-.029.11.11,0,0,1-.023-.069.183.183,0,0,1,.023-.084.235.235,0,0,1,.072-.081,1.642,1.642,0,0,0,.63-.618,2.3,2.3,0,0,0,.186-.75h-1.313q-.108,0-.108-.132t.108-.132h1.332q.018-.252.018-.576c0-.136.04-.2.12-.2s.126.068.126.2Q447.884,312.881,447.866,313.14Zm-.811-1.962v.18a.914.914,0,0,0,.061.378.355.355,0,0,0,.2.181,3.075,3.075,0,0,0,.63.072q.246.012.53.018t.615.006q.667,0,1.191-.03a4.915,4.915,0,0,0,.776-.09,1.041,1.041,0,0,0,.207-.069.359.359,0,0,0,.129-.1.312.312,0,0,0,.066-.132.815.815,0,0,0,.018-.183c0-.164.047-.246.139-.246s.144.069.144.209a.72.72,0,0,1-.252.595,1.709,1.709,0,0,1-.93.245q-.678.044-1.764.043c-.364,0-.663-.006-.9-.016a4.109,4.109,0,0,1-.519-.045.671.671,0,0,1-.475-.258,1.054,1.054,0,0,1-.132-.582v-1.206a.472.472,0,0,1,.09-.327.419.419,0,0,1,.307-.093h3.449a.419.419,0,0,1,.307.093.472.472,0,0,1,.09.327v.589a.491.491,0,0,1-.093.338.4.4,0,0,1-.3.1Zm3.721-.475v-.5a.258.258,0,0,0-.039-.164.186.186,0,0,0-.147-.045h-3.354a.176.176,0,0,0-.145.047.284.284,0,0,0-.036.162v.721h3.534c.08,0,.131-.019.153-.055A.319.319,0,0,0,450.776,310.7Z" fill="#fff"/><path d="M453.3,311.147v2.567c.1-.062.208-.133.313-.209s.208-.158.312-.246a.265.265,0,0,1,.135-.072.1.1,0,0,1,.081.042.126.126,0,0,1,.036.093.16.16,0,0,1-.078.117l-.437.313c-.116.08-.243.162-.381.248s-.285.174-.441.262a1.949,1.949,0,0,1-.564.27.084.084,0,0,1-.074-.041.148.148,0,0,1-.027-.078c0-.061.044-.111.132-.15a6.343,6.343,0,0,0,.744-.391v-2.724h-.762q-.1,0-.1-.114c0-.084.034-.125.1-.125h.762v-1.4q0-.1.126-.1t.126.1v1.4h.643c.071,0,.107.039.107.119s-.036.12-.107.12Zm2.514-.433v-1.235c0-.067.04-.1.12-.1s.12.035.12.1v1.134l.6-.264a1.015,1.015,0,0,1,.4-.107q.349,0,.349.557v.229c0,.141,0,.348-.007.624s-.007.5-.009.669-.007.3-.015.381a1.548,1.548,0,0,1-.081.414.537.537,0,0,1-.177.258.467.467,0,0,1-.273.078,1.445,1.445,0,0,1-.351-.048.85.85,0,0,1-.229-.084.1.1,0,0,1-.036-.077.11.11,0,0,1,.126-.121.246.246,0,0,1,.042,0,.27.27,0,0,1,.042.009,1.428,1.428,0,0,0,.391.071.226.226,0,0,0,.222-.156,1.978,1.978,0,0,0,.1-.635c.008-.16.015-.33.021-.508s.009-.365.009-.561,0-.36-.009-.48a2.382,2.382,0,0,0-.021-.246q-.031-.138-.123-.138a.641.641,0,0,0-.249.072l-.727.323V313.8c0,.072-.04.109-.12.109s-.12-.037-.12-.109v-2.813l-.972.427v2.43a2.517,2.517,0,0,0,.036.417.407.407,0,0,0,.129.239.556.556,0,0,0,.288.117,3.789,3.789,0,0,0,.513.036h.7a1.283,1.283,0,0,0,.811-.213.824.824,0,0,0,.264-.681c0-.1.042-.156.126-.156s.126.053.126.156a1.079,1.079,0,0,1-.318.869,1.537,1.537,0,0,1-1.008.271h-.8a2.171,2.171,0,0,1-.708-.084.5.5,0,0,1-.306-.282,1.867,1.867,0,0,1-.091-.7V311.52l-.516.229a.222.222,0,0,1-.171.021.107.107,0,0,1-.051-.1.146.146,0,0,1,.113-.139l.624-.275V310c0-.084.04-.127.12-.127s.12.043.12.127v1.151Z" fill="#fff"/><path d="M460.892,310.182h-2.3c-.076,0-.113-.04-.113-.12s.037-.12.113-.12H463.4c.075,0,.113.042.113.126a.1.1,0,0,1-.113.114h-2.244v4.38h2.532c.075,0,.113.042.113.126a.1.1,0,0,1-.113.114h-5.377a.1.1,0,0,1-.113-.114c0-.084.038-.126.113-.126h2.58Z" fill="#fff"/><path d="M465.038,311.478l-.213.333c-.066.1-.131.2-.2.279a1.984,1.984,0,0,1-.233.294.133.133,0,0,1-.1.042.175.175,0,0,1-.1-.03.113.113,0,0,1-.042-.09.606.606,0,0,1,.149-.246,6.421,6.421,0,0,0,.763-1.146,5.672,5.672,0,0,0,.267-.6q.117-.309.213-.65c.04-.148.094-.223.162-.223a.111.111,0,0,1,.126.126,2.653,2.653,0,0,1-.186.624,6.737,6.737,0,0,1-.378.858v3.84q0,.132-.12.132t-.12-.132Zm1.9-1.3h2.82a.1.1,0,0,1,.114.113c0,.084-.038.127-.114.127h-2.105v1.361h1.9a.1.1,0,0,1,.114.114q0,.126-.114.126h-1.9v1.452h2.046a.1.1,0,0,1,.113.114c0,.084-.038.125-.113.125h-2.046v1.183q0,.12-.126.12a.106.106,0,0,1-.12-.12v-4.476h-.546a7.169,7.169,0,0,1-.444.99,3.8,3.8,0,0,1-.348.569c-.068.071-.116.108-.145.108a.254.254,0,0,1-.066-.024.124.124,0,0,1-.054-.054.152.152,0,0,1,0-.1.443.443,0,0,1,.093-.158,5.566,5.566,0,0,0,.595-1.021,5.846,5.846,0,0,0,.359-1.128.287.287,0,0,1,.048-.129.12.12,0,0,1,.091-.033c.079,0,.119.032.119.1A3.712,3.712,0,0,1,466.934,310.176Z" fill="#fff"/><path d="M472.3,309.348a.121.121,0,0,1,.081.057.125.125,0,0,1,0,.111l-1.746,5.2a.117.117,0,0,1-.078.081.157.157,0,0,1-.1,0,.116.116,0,0,1-.072-.161l1.681-5.034C472.116,309.408,472.194,309.324,472.3,309.348Z" fill="#fff"/><path d="M476.174,313.218a2.374,2.374,0,0,0-.352-.222,2.741,2.741,0,0,0-.435-.181c-.084-.028-.126-.075-.126-.144a.182.182,0,0,1,.09-.145,2.746,2.746,0,0,1,.552-.2q.456-.139,1.212-.324c.1-.028.156-.053.156-.076s-.044-.032-.132-.032h-3.21q-.12,0-.12-.114a.105.105,0,0,1,.12-.119H477.3a.376.376,0,0,1,.245.077.228.228,0,0,1,.1.181c0,.107-.076.184-.229.228q-.258.066-.521.142c-.177.049-.358.1-.546.158-.372.116-.576.182-.612.2s-.054.034-.054.054.027.038.084.055a1.7,1.7,0,0,1,.792.468h1.9q.114,0,.114.126c0,.08-.038.119-.114.119h-1.722a1.031,1.031,0,0,1,.132.5,1.218,1.218,0,0,1-.12.519.906.906,0,0,1-.656.483,2.907,2.907,0,0,1-1.228-.1,2.989,2.989,0,0,1-.624-.186c-.063-.04-.1-.078-.1-.114a.138.138,0,0,1,.072-.138.256.256,0,0,1,.2.018,4.715,4.715,0,0,0,.7.211,3.414,3.414,0,0,0,.579.071,1.377,1.377,0,0,0,.438-.051.6.6,0,0,0,.278-.165.749.749,0,0,0,.145-.237.762.762,0,0,0,.048-.271.839.839,0,0,0-.048-.278,1.07,1.07,0,0,0-.138-.265h-3.246c-.076,0-.114-.039-.114-.119s.038-.126.114-.126Zm.672-2.46a6.71,6.71,0,0,0,.737-1.135c.064-.123.116-.186.156-.186a.207.207,0,0,1,.105.027.094.094,0,0,1,.045.087,1.458,1.458,0,0,1-.24.5,5.584,5.584,0,0,1-.486.7h.78c.313,0,.468.123.468.371a1.473,1.473,0,0,1-.12.5c-.04.1-.073.188-.1.25a.864.864,0,0,1-.072.135.152.152,0,0,1-.252.012c-.023-.04-.012-.105.036-.2a2,2,0,0,0,.246-.613c0-.092-.021-.151-.062-.18a.474.474,0,0,0-.237-.041h-4.183a.23.23,0,0,0-.177.074.287.287,0,0,0-.068.2v.792c0,.076-.045.114-.133.114s-.132-.038-.132-.114v-.828q0-.473.45-.474Zm-3.139-1.266a.2.2,0,0,1,.12.053,3.087,3.087,0,0,1,.271.307,4.76,4.76,0,0,1,.306.414.552.552,0,0,1,.1.225.09.09,0,0,1-.049.088.187.187,0,0,1-.042.021.084.084,0,0,1-.054,0,.182.182,0,0,1-.065-.042.51.51,0,0,1-.084-.105,4.911,4.911,0,0,0-.5-.684.442.442,0,0,1-.09-.129.12.12,0,0,1-.006-.081.071.071,0,0,1,.042-.042A.585.585,0,0,0,473.707,309.492ZM476.1,310.5a.072.072,0,0,1-.054.068.272.272,0,0,1-.091.021c-.052,0-.1-.055-.155-.162a4.28,4.28,0,0,0-.48-.774.412.412,0,0,1-.09-.129.1.1,0,0,1,0-.081.136.136,0,0,1,.054-.048.569.569,0,0,1,.072-.03.193.193,0,0,1,.132.084,6.052,6.052,0,0,1,.342.51A1.683,1.683,0,0,1,476.1,310.5Z" fill="#fff"/><path d="M483.38,312.18a.085.085,0,0,1,.074.039.144.144,0,0,1,.027.087.173.173,0,0,1-.054.108,3.707,3.707,0,0,1-.559.359,12.3,12.3,0,0,1-1.137.573,13.461,13.461,0,0,1-1.377.519,5.479,5.479,0,0,1-.876.234q-.132,0-.132-.114c0-.079.048-.132.144-.155q.589-.151,1.089-.312c.334-.107.644-.223.928-.342a11.15,11.15,0,0,0,1.71-.924A.336.336,0,0,1,483.38,312.18Zm-.126-2.383c.216.009.383.021.5.037a.448.448,0,0,1,.261.107.418.418,0,0,1,.1.258c.013.116.022.28.03.492q0,.949-.036,1.992-.018.521-.039.852c-.014.221-.029.379-.045.475a1.067,1.067,0,0,1-.191.486.983.983,0,0,1-.433.317,1.547,1.547,0,0,1-.6.12,4.143,4.143,0,0,1-.6-.042l-.3-.054c-.1-.021-.207-.047-.314-.078a2.052,2.052,0,0,1-.4-.133c-.048-.023-.072-.053-.072-.09a.157.157,0,0,1,.066-.144.174.174,0,0,1,.191.006,5.334,5.334,0,0,0,1.4.282,1.171,1.171,0,0,0,.582-.135.71.71,0,0,0,.324-.334,2.364,2.364,0,0,0,.144-.635c.021-.148.035-.379.045-.693s.018-.717.021-1.209l.006-1.116a2.089,2.089,0,0,0-.015-.278.328.328,0,0,0-.061-.16.215.215,0,0,0-.132-.068,1.38,1.38,0,0,0-.225-.016h-3.912c-.088,0-.132-.039-.132-.119s.044-.121.132-.121Zm-.444,2.185a.136.136,0,0,1-.069.117c-.046.03-.108.017-.188-.039a14.754,14.754,0,0,0-2.244-1.224c-.1-.041-.15-.088-.15-.145a.12.12,0,0,1,.03-.074.1.1,0,0,1,.09-.039,1.079,1.079,0,0,1,.3.1c.158.068.384.178.676.33.147.076.292.154.432.234l.42.239c.14.08.254.147.342.2s.152.1.192.126a.712.712,0,0,1,.144.108A.09.09,0,0,1,482.81,311.981Z" fill="#fff"/></svg>