<svg id="template" xmlns="http://www.w3.org/2000/svg" width="655" height="493" viewBox="0 0 655 493"><title>08 STORM</title><path d="M480.307,225.744c-.266-1.753-.362-3.671-1.445-5.075,1.781-.214,3.347.328,5.083.489a7.486,7.486,0,0,0,2.112-.144c.381-.073,1.635-.717,1.927-.627a8.391,8.391,0,0,1-3.721-2.379,17.138,17.138,0,0,0,4.525-.206,6.978,6.978,0,0,0,3.9-2.165,1.2,1.2,0,0,0,.29-.507,1.348,1.348,0,0,0-.122-.725c-.869-2.364-1.686-4.872-3.853-6.156a10.146,10.146,0,0,0,5.892-3.287,7.423,7.423,0,0,0,1.144-1.5c1.148-2.091.652-4.717.12-7.042a36.517,36.517,0,0,0-11.257-.264,21,21,0,0,0-4.748.84c-1.264.424-1.769,1.2-2.794-.175-1.149-1.544-1.708-3.214-.27-4.509a12.026,12.026,0,0,1,4.877-2.892c-.549-2.733-2.575-4.9-4.55-6.863a52.965,52.965,0,0,0-4.648-4.664q-4.655-3.687-9.268-7.425a18.6,18.6,0,0,1-2.5-2.274c-1.819-2.113-2.534-5.083-4.647-6.9a12.061,12.061,0,0,0,4.759-1.144c.288-.136.561-.337.835-.5a26.789,26.789,0,0,0-3.415-4.313,5.658,5.658,0,0,0-2.218-1.572,6.61,6.61,0,0,0,2.767-.321,8.6,8.6,0,0,1,1.9-.637,9.389,9.389,0,0,0-2.018-3.623,6.365,6.365,0,0,0,3.312.193,2.157,2.157,0,0,0,.858-.377l.583-.36a31.045,31.045,0,0,0-4.6-6.135c1.631-.647,2.483-2.566,3.063-4.122a.341.341,0,0,0,.026-.238.352.352,0,0,0-.2-.164,22.216,22.216,0,0,1-5.266-3.754,1.109,1.109,0,0,1-.428-.589c-.171-.966,2.175-.621,2.682-.723a9.78,9.78,0,0,0,7.594-7.18c.184-.707.141-6.338.219-6.356-.179.041-.158-.113-.321-.03-3.647,1.86-7.736.379-11.579,1.059-3.323.588-6.873,3.338-6.769,7a12.854,12.854,0,0,0,.948,3.949.241.241,0,0,1,.017.176.235.235,0,0,1-.166.106,4.243,4.243,0,0,1-2.594-.12,2.581,2.581,0,0,1-1.267-.923,3.588,3.588,0,0,1-.4-2.112c.022-.855-.129-1.771.51-2.339a12.446,12.446,0,0,0,3.236-13.451.731.731,0,0,0-.237-.363.744.744,0,0,0-.472-.073,25.387,25.387,0,0,0-8.631,2.179,13.3,13.3,0,0,0-4.165,3.064,3.8,3.8,0,0,0-.977,3.512,10.736,10.736,0,0,0-7.191-2.269,1.235,1.235,0,0,1-.522-.041,1.034,1.034,0,0,1-.373-.294,7.992,7.992,0,0,1-1.581-5.061,13,13,0,0,1,.326-4.066c.363-1.316.624-2.981,1.944-3.331a12.355,12.355,0,0,0,7.218-5.318.566.566,0,0,0,.12-.345c-.019-.18-.194-.3-.351-.385a33.828,33.828,0,0,1-6.435-4.34c-3.582-3.359-12.459-4.32-13.648,2.016A5.546,5.546,0,0,0,414.79,102a.914.914,0,0,1,.321,1.329,2.055,2.055,0,0,1-1.326.766c-1.3.295-2.691.154-3.947.6a8.839,8.839,0,0,0-3.146,2.371c-.351.359-.4.137-.588.6a21.934,21.934,0,0,0-1.545,11.9,20.023,20.023,0,0,0-5.922.818,26.364,26.364,0,0,0-5.032,1.374,6.021,6.021,0,0,0,3.1-3.921c-2.669-.817-5.33-1.746-8.042-2.412-.724-.178-8.153-1.655-8.287-1.068.141-.618,1.061-.917,1.006-1.548-.032-.369-.393-.606-.716-.787l-2.329-1.3c-1.873-1.048-2.1-3.376.136-4.172a8.117,8.117,0,0,1,8.693,2.532,8.748,8.748,0,0,0,4.7,2.734,15.8,15.8,0,0,0,5.5.176,8.522,8.522,0,0,0,5.167-2.056,8.375,8.375,0,0,0,1.338-1.929,27.038,27.038,0,0,0,2.61-7.358,10.293,10.293,0,0,0-2.626-2.349,17.775,17.775,0,0,0-3.5-1.452c1.92-.577,3.91-.891,5.835-1.449a16.312,16.312,0,0,0,4.782-2.441,4.954,4.954,0,0,0,2.121-4.848,7.409,7.409,0,0,0-.863-2.282c-1.8-3.316-4.756-5.809-6.6-9.1a33.446,33.446,0,0,0-2.928,2.277,43.255,43.255,0,0,0-8.137,11.1,24.17,24.17,0,0,0-4.687.054.4.4,0,0,0-.265.1.425.425,0,0,0-.079.229c-.263,1.764-1.508,2.489-2.943,3.3-4.149,2.341-6.576,5.876-9.471,9.659a31.452,31.452,0,0,1-5.057,5.225,1.865,1.865,0,0,1-.616.379,4.183,4.183,0,0,1-.869.062c-1.062.089-1.766,1.015-2.755,1.285-.808.22-1.631-.184-2.268.5-.459.49-.608.408-.739,1.068a6.4,6.4,0,0,0-.176,2.267,2.172,2.172,0,0,0,1.3,1.748c.8.274,1.752-.092,2.474.341.888.532.8,1.826.592,2.841a8.607,8.607,0,0,0-1.841-.574,22.148,22.148,0,0,1,.79,6.824,35.928,35.928,0,0,1-5.882-6.035c-1.654-2.151-2.8-4.625-4.452-6.742a15.458,15.458,0,0,0-5.565-4.4c-1.732-.868-3.282-.858-5.181-1.051,0-1.265.137-2.575.136-3.84a7.649,7.649,0,0,0,4.406.542q2.191-.186,4.37-.489a8.557,8.557,0,0,0,2.189-.514,4.544,4.544,0,0,0,2.173-1.955,1.411,1.411,0,0,0,1.842.353,6.333,6.333,0,0,1,4.128-1.094c1.452.049,2.882.366,4.331.478a15.665,15.665,0,0,0,9.724-2.541,4.369,4.369,0,0,0,2.364-2.976,11.791,11.791,0,0,0,.366-5.428c-.615-2.684-3.327-4.884-5.928-5.544-.786-.2-3.478-.678-4.106.067a5.13,5.13,0,0,0,.829-5.107c-2.491-.185-4.959-.624-7.45-.815-3.946-.3-7.984-.027-10.961,2.8a14.74,14.74,0,0,0-2.1,2.52,5.13,5.13,0,0,1-1.878,2.036.428.428,0,0,1-.253.052c-.173-.034-.247-.235-.294-.4a13.155,13.155,0,0,0-1.889-4.069,19.175,19.175,0,0,0-11.336-7.806c-.273,2.622.044,5.2-.665,7.8a6.122,6.122,0,0,1-1.74,2.737,18.271,18.271,0,0,1-2.62,1.971c-.375.248-.329.42-.775.365a8.145,8.145,0,0,0-6.461,2.094,2.884,2.884,0,0,0-.918,1.365,3.026,3.026,0,0,0-.025,1.025,11.328,11.328,0,0,0,.586,2.595c.221.624.7,1.233.289,1.754a4.515,4.515,0,0,0-2.586,2.5,8.976,8.976,0,0,0-.965,7,16.973,16.973,0,0,0-4.155.094c0-.252-.044-.44-.026-.691a7.41,7.41,0,0,0-1.648-5.167c-.733-.892-1.667-1.6-2.411-2.483a28.025,28.025,0,0,1-3.484-5.473c-.912-1.776-2.351-4.755-4.689-4.791A13.43,13.43,0,0,1,306,84.344a10.164,10.164,0,0,0,.7-2.519c-.007.047,3.127-.175,3.341-.211a3.241,3.241,0,0,0,2.4-1.448c.752.984,1.554,1.331,2.31,2.312.92,1.192,2.586,1.472,4.091,1.543a12.737,12.737,0,0,0,3.867-.3A6.077,6.077,0,0,0,325.96,81.7c1.721-2.195,2.02-6.215,1.219-8.785a9.6,9.6,0,0,0-11.453,3.563,5.656,5.656,0,0,0-.67,1.267,1.516,1.516,0,0,1-.38.714c-.212.172-.546-.063-.6-.331a7.142,7.142,0,0,0,.936-5.711c-.513-1.921-1.715-2.277-2.971-3.818a7.381,7.381,0,0,0-3.9-2.168,22.029,22.029,0,0,0-7.7-.689,2.782,2.782,0,0,0-1.8.634c.448.534.369.671.829,1.194a3.734,3.734,0,0,1,.469,3.629,16.228,16.228,0,0,1-1.877,3.331,22.867,22.867,0,0,0-3.407,10.077c-.152,1.643.042,3.318-.117,4.923-.157,1.582-.185,3.054,1,4.292a7.71,7.71,0,0,0,2.32,1.564c.267.126.691.122.7.417a4.4,4.4,0,0,0-.266,4.028.38.38,0,0,1-.1.352,17.1,17.1,0,0,0-2.685-.121,5.722,5.722,0,0,0-2.569.711.112.112,0,0,1-.093.022c-.034-.013-.045-.055-.05-.091-.021-.143,0,.027.016-.117a4.353,4.353,0,0,0-2.322-4.167,8.839,8.839,0,0,0-4.918-.88,9.274,9.274,0,0,0-3.447.769,12.292,12.292,0,0,0-3.367,2.734c-2.455,2.531-5.03,5.291-5.6,8.771a17.431,17.431,0,0,0-.129,3.185,4.157,4.157,0,0,1-.872-3.454,8.226,8.226,0,0,1,1.519-2.951c2.464-3.516,5.441-6.429,7.125-10.379a7.379,7.379,0,0,0-.242-6.7c-3.783-6.061-12.7-4.888-18.12-1.933-.588.321-1.218.806-1.209,1.476.006.517.393,1.089.081,1.5-.074-.137-.079.306-.126.157a10.015,10.015,0,0,0-2.037-3.471,15.226,15.226,0,0,0-4.671-3.646c-.568-.287-3.95-2.147-4.386-1.313a.206.206,0,0,0-.005.132,8.576,8.576,0,0,1-.364,4.231c-.522,1.541-1.3,2.924-1.682,4.515a9.107,9.107,0,0,0,.157,4.82c.852,2.782,3.612,4.307,6.4,4.533a2.045,2.045,0,0,1,1.041.274.694.694,0,0,1,.22.947.927.927,0,0,1-.672.256c-1.808.131-3.7-.641-5.39.026a3.5,3.5,0,0,1-1.534.476,2.59,2.59,0,0,1-1.063-.472,10.419,10.419,0,0,0-12.924,2.03,2.971,2.971,0,0,0-.712,1.234,3.1,3.1,0,0,0,.036,1.219c.226,1.273.061,2.115.694,3.242l4.69,8.354c1.388,2.473,3.116,4.482,4.21,7.12a7.813,7.813,0,0,1,.49,6.081c-.968,4.58-.455,9.111-3.972,12.2a16.814,16.814,0,0,1-5.44,2.8,3.933,3.933,0,0,1-1.079.285.566.566,0,0,1-.448-.118.611.611,0,0,1-.13-.255c-.409-1.314-.647-1.89.058-3.072l2.265-3.794a14.2,14.2,0,0,0,1.705-3.579,14.209,14.209,0,0,0,.157-4.733c-.261-3.307-.359-7.143-1.788-10.2a19.52,19.52,0,0,0-6.05-6.788.969.969,0,0,0-.547-.244c-.485,0-.67.625-.712,1.108a10.655,10.655,0,0,1-1.047,4.716,32.492,32.492,0,0,1-2.189,3.386,5.906,5.906,0,0,1-3.823,2.256c-3.8.956-6.378,2.728-9.494,5.11a1.722,1.722,0,0,0-.223,2.2,5.846,5.846,0,0,0,1.769,1.617,5.169,5.169,0,0,1,1.866,1.918,25.386,25.386,0,0,0-7.944-.91,8.028,8.028,0,0,0-2.562.44,33.252,33.252,0,0,0,.4,9.072c.19,1.325.676,2.61.219,3.886a17.517,17.517,0,0,0-1.022,3.646c-.359,2.793.637,5.562,1.617,8.2l3.411,9.192c.537,1.448,1.208,2.9,1.691,4.354.435,1.311.463,2.77.837,4.124.158.572.838.8,1.425.887.919.137,1.85.155,2.774.234.439.038,2.336.093,2.479.6.126.45-1.761,1.436-2.11,1.675a16.616,16.616,0,0,0-2.371,1.624.4.4,0,0,1-.235.095c-.14-.007-.228-.152-.282-.282a3.257,3.257,0,0,1-.213-1.693,13.392,13.392,0,0,0-2.982,2.163,15.406,15.406,0,0,0-2.627,3.245c-1.121,1.708-1.687,3.612-2.678,5.378a6.361,6.361,0,0,1-3.038,3,13,13,0,0,0-3.757,2.463,25.255,25.255,0,0,0-4.251,5.447,1.932,1.932,0,0,0-.331.781c-.03.284-.086.559.18.662a10.267,10.267,0,0,0,6.855,4.172c.54.076,1.192-.049,1.436.439a9.589,9.589,0,0,0,3.857,3.528,15.387,15.387,0,0,0,2.452.926,8.632,8.632,0,0,0-1.155,3.532,13.819,13.819,0,0,0,.463,3.91c.228.962,1.179,2.317,2.3,1.329a5.952,5.952,0,0,1,2.277-1.079,3.4,3.4,0,0,1,1.8-.189c.926.239.938,1.013,1.1,1.783a3.755,3.755,0,0,0,1.242,2.2c.576.477,1.325.8,1.672,1.464a.371.371,0,0,1,.056.224.389.389,0,0,1-.124.2c-1.238,1.256-3.009.518-4.505.2a40.433,40.433,0,0,1-4.82-1.607,13.965,13.965,0,0,1-1.871-.758c-3.452-1.8-3.157-5.647-5.611-8.192a8.174,8.174,0,0,0-5.158-2.43,21.386,21.386,0,0,0-3.03.3,10.286,10.286,0,0,1-3.155-.289c-1.3-.334-2.232-1.318-3.482-1.815-3.07-1.22-6.535-.6-9.806-1.057a6.944,6.944,0,0,0-3.33-.139.527.527,0,0,0-.609.271,1.537,1.537,0,0,0-.145.7c-.1,2.151-.163,4.435.911,6.3a17.056,17.056,0,0,0,6.077,5.482,4.445,4.445,0,0,1-.908,1.529,16.2,16.2,0,0,0-1.607,2.8,5.143,5.143,0,0,0-.672,2.1c-.015.777.386,1.025,1.011,1.487a6.68,6.68,0,0,0,2.132.909l3.884,1.144-2.348,1.71a.328.328,0,0,0-.148.175c-.032.148.138.254.281.305a14.158,14.158,0,0,0,4.051.642c1.253.068,2.446-.021,3.7.014a.6.6,0,0,1,.4.109.563.563,0,0,1,.1.53,7.223,7.223,0,0,1-.431,1.254,15.68,15.68,0,0,0-.4,10.5.515.515,0,0,0,.253.331.5.5,0,0,0,.336-.033c.62-.223,1.182-.581,1.787-.843,2.352-1.016,5.065-.654,7.5-1.422.24-.076.48-.151.714-.244a5.135,5.135,0,0,0,2.119-1.582,2.055,2.055,0,0,1,1.2-.7,1.678,1.678,0,0,1,.788-.092,1.707,1.707,0,0,1,.964.608,6.137,6.137,0,0,1,1.182,3.541,45.607,45.607,0,0,0,.732,6.615,3.107,3.107,0,0,0,.555,1.3,2.861,2.861,0,0,0,2.323.516,5.284,5.284,0,0,0,1.527-.651,38.76,38.76,0,0,0,4.565-3.033,22.491,22.491,0,0,0,4.661-4.241,4.957,4.957,0,0,1,2-1.876,3.843,3.843,0,0,1,2.864.381c1.492.684,1.5,2.487.788,3.827a9.048,9.048,0,0,1-2.461,2.645,11.146,11.146,0,0,0-2.566,2.555,3.51,3.51,0,0,0-.33,3.454c1.1,2.023.855,4.791,2.582,6.485a9.394,9.394,0,0,0-2.76,2.43,19.278,19.278,0,0,0-1.326,2.126,15.991,15.991,0,0,0-1.784,5.114,19.8,19.8,0,0,0-.071,7.968.139.139,0,0,0,.138.128,13.948,13.948,0,0,0,3,.09q1.673-.016,3.339-.2a33.84,33.84,0,0,0,6.455-1.347c.756-.237,1.534-.377,2.306-.547a19.8,19.8,0,0,0,2.272-.738,1.515,1.515,0,0,1,.284-.077c.7-.1,1.009.534,1.388,1,.415.511.818,1.031,1.236,1.54a12.1,12.1,0,0,0,2.816,2.66q.116.073.234.141a10.956,10.956,0,0,0,4.581-2.978c.388-.435.741-.9,1.086-1.369a18.368,18.368,0,0,0,5.8,3.335,27.629,27.629,0,0,0,4.738,1.623,1.714,1.714,0,0,0,.826.072c-.029-.178-.067-.353-.108-.528a6.481,6.481,0,0,1-.279-1.752c.095-2.263.448-4.187.6-6.446a16.932,16.932,0,0,0,0-3.385,6.17,6.17,0,0,0-1.437-3.372,8.05,8.05,0,0,0-3.637-1.63,10.322,10.322,0,0,0-2.7-.261c-.7.026-1.834.472-2.447,0a1.323,1.323,0,0,1-.262-.3c-1.524-2.169-2.539-4.5-4.854-6a5.974,5.974,0,0,0-3.248-1.084,1.155,1.155,0,0,1-.844-.183c-.856-.835,1.19-2.657,1.717-3.175a6.966,6.966,0,0,1,3.344-1.961,8.567,8.567,0,0,1,3.622.171,10.9,10.9,0,0,1,4.148,1.686,10.716,10.716,0,0,1,3.116,4.049c.757,1.545,1.329,3.176,2.1,4.712a7.824,7.824,0,0,0,1.467,2.333,11.1,11.1,0,0,0,6.01,2.939c.375.055,1.153.235,1.427-.027a3.438,3.438,0,0,0,1.217-1.769,13.794,13.794,0,0,0,.341-6.127,8.479,8.479,0,0,0-3.372-5.184c-.951-.707-2.03-1.23-2.965-1.958a1.864,1.864,0,0,1-.663-.784c-.118-.326-.285-.807.049-.9a25.984,25.984,0,0,0,6.775-2.994,2.8,2.8,0,0,0,.893-.765c.219-.329.462-.6.241-.926a13.107,13.107,0,0,0-1.636-2.081c-1.232-1.209-2.841-1.941-4.082-3.138a26.573,26.573,0,0,1-3.391-4.94,6.851,6.851,0,0,0-2.848-2.995,7.152,7.152,0,0,0-4.159-.435,4.227,4.227,0,0,0-2.306,1.023,3.641,3.641,0,0,0-.959,2.443,11.273,11.273,0,0,0,.316,2.662c.13.66.3,1.944-.6,2.192s-1.21-.767-1.3-1.428c-.34-2.484-1.923-3.744-4.216-4.223-2.016-.422-4.259-.552-5.779-2.123a9.145,9.145,0,0,1-.9-1.167c-.881-1.267-1.995-1.979-2.748-3.325a2.777,2.777,0,0,0-3.043-1.019c-.9.2-1.9.626-2.665.113a2.868,2.868,0,0,1-.6-.632,12.179,12.179,0,0,0-3.006-2.64c-.8-.512-2.96-1.027-2.877-2.19.036-.5.5-.842.93-1.093A15.376,15.376,0,0,1,224,223.569c2.115-.677,3.616-2.316,5.022-3.949,1.5-1.743,2.851-3.462,5.161-4.072,2.531-.669,5.6.059,7.959,1.076a6.832,6.832,0,0,0,2,.675,1.811,1.811,0,0,0,1.812-.827,2.478,2.478,0,0,0,.084-1.514,6.109,6.109,0,0,0-1.619-3.676c-1.012-.9-1.4-2.281-2.663-2.772a3.05,3.05,0,0,0-3.62,1,4.909,4.909,0,0,0-.563,1.784l-.226,1.257c.147.241-.018.267-.266.4a1.271,1.271,0,0,1-.827.066,2.6,2.6,0,0,1-2.175-1.77,5.57,5.57,0,0,1,.007-1.457c.074-1.644-.325-3.25-.017-4.892.208-1.109.849-2,1.138-3.025a5.644,5.644,0,0,0-.6-3.637,7.736,7.736,0,0,0-2.127-2.671c-1.689-1.352-2.121-3.883-2.1-5.92a8.1,8.1,0,0,1,.565-3.19,21.97,21.97,0,0,0,1.669-3.487,9.118,9.118,0,0,0,.119-2.709c-.024-.423-.056-.187.18-.539a2.4,2.4,0,0,1,.982-.784,1.971,1.971,0,0,1,.74-.216c1.684-.086,2.823,2.968,3.884,4a10.528,10.528,0,0,0,4.2,2.474,8.408,8.408,0,0,0,5.069-.53,5.335,5.335,0,0,0,3.5-3.135c4.543,1.461,9.561-1.7,9.257-6.654-.092-1.5-.282-3.011-.407-4.506a8.765,8.765,0,0,1,.959-5.083q-2.434.191-4.853.53a16.859,16.859,0,0,0-3.125.6c-.182-.092.418-.31.223-.249a.663.663,0,0,1-.267.06c-.251-.03-.276-.385-.221-.633.217-.969.572-1.907.739-2.886a4.152,4.152,0,0,0-.4-2.887,4.84,4.84,0,0,0-2.579-2.4c-.548-.208-1.136-.295-1.687-.495-1.086-.395-1.982-1.212-3.076-1.583a4.565,4.565,0,0,0-5.049,1.782,5.424,5.424,0,0,0-.231,5.466c1.346,2.579,4.38,3.838,6.051,6.219a2.634,2.634,0,0,1,.584,1.595,1.191,1.191,0,0,1-1.05,1.168,2,2,0,0,1-1.092-.489,9.987,9.987,0,0,0-5.541-1.765c-2.1-.022-3.685.149-4.347-2.3a17.92,17.92,0,0,1-.331-3.332,13.822,13.822,0,0,0-1.124-4.486c-.732-1.666-1.981-3.309-3.77-3.64-.861-.159-.04-1.387.585-2a3.456,3.456,0,0,1,2.468-.672,29.747,29.747,0,0,1,3.625.172c1.868.224,3.7.719,5.563.954a10.049,10.049,0,0,0,5.536-.611c2.259-1.065,3.377-3.442,4.632-5.444,2.121-3.385,2.267-7.072,1.959-10.992-.056-.718-.271-1.523-.276-2.225a.673.673,0,0,1,.555-.6,2.135,2.135,0,0,1,.873.052,19.787,19.787,0,0,0,6.646-.09,5.025,5.025,0,0,1,4.77,1.476,2.3,2.3,0,0,1,.764,1.541c-.025.969-1.039,1.565-1.92,1.971l-1.842.847c-.449.207-.971.527-.945,1.02a1.2,1.2,0,0,0,.2.529,22.427,22.427,0,0,0,8.884,8.817c0,.1-.16.187-.161.291q-1.432.279-2.871.515a4.58,4.58,0,0,0,.525,2.378,39.3,39.3,0,0,0,3.388,7.167c1.664,2.44,3.965,4.485,7.009,4.79,3.73.374,7.14-2.782,9.076-5.639a22.286,22.286,0,0,0,6.505.678,16.422,16.422,0,0,0,8.313-2.831,8.819,8.819,0,0,0,2.407-3.4c.684-1.317,1.795-1.657,3.3-1.66a13.156,13.156,0,0,1,3.717.531c1.145.335,2.16,1.14,3.254,1.46a20.006,20.006,0,0,0,4.108.276,24.444,24.444,0,0,0,4.251-.064c2.91-.344,5.938-1.119,8.018-3.183a8.079,8.079,0,0,0,2.359-6c-.086-2.018-.954-5.157-3.093-5.875a.6.6,0,0,0-.26-.042.66.66,0,0,0-.316.17c-1.035.835-2.034,1.691-3.031,2.57a3.7,3.7,0,0,1-2.213,1.18,3.394,3.394,0,0,1-1.169-.246,16.23,16.23,0,0,1-7.355-5.345c-1.173-1.457-2.231-2.792-4.17-3.05a6.322,6.322,0,0,0-4.593,1.171,5.255,5.255,0,0,1-2.1,1.3c-1.376.23-5.056-3.252-3.259-4.054a1.324,1.324,0,0,1,.563-.073l5.612.085a9.621,9.621,0,0,0,3.774-.447,3.277,3.277,0,0,0,2.193-2.856,3.873,3.873,0,0,0-1.047-2.333,9.745,9.745,0,0,0-7.554-3.46c-1.671.03-3.3.488-4.977.4a8.389,8.389,0,0,1-4.391-1.857c-1.808-1.211-4.255-1.8-6.309-2.577a17.293,17.293,0,0,0-5.636-1.433,5.861,5.861,0,0,0-5.089,2.324c-1.011,1.556-.918,3.567-.659,5.4a7.931,7.931,0,0,0,1.42,3.853,2.185,2.185,0,0,1,.4.878,1.792,1.792,0,0,1-.268.995,8.955,8.955,0,0,1-2.01,2.577,4.166,4.166,0,0,0-.785.8,2.5,2.5,0,0,0-.343,1.038,4.847,4.847,0,0,0,1.355,4.007c.465.465,1.085,1.012.89,1.639a1.563,1.563,0,0,1-1.74-.11,4.586,4.586,0,0,1-1.181-1.416l-2.417-3.857c-.964-1.539.27-2.788.561-4.58.584-3.6,1.2-7.286,3-10.457a28.012,28.012,0,0,0,2.272-4.462c.159-.457,1.444-3.919,1.066-4.093.472.217.613.647.919,1.021a5.929,5.929,0,0,0,1.093.983,9.47,9.47,0,0,0,2.645,1.324,24.342,24.342,0,0,0,5.029.9,23.773,23.773,0,0,0,3.951.032c1.148,2.148,2.193,4.538,4.494,5.334a10.534,10.534,0,0,0,2.1.419,11.563,11.563,0,0,0,5.271-.133c1.676-.582,3.125-2.231,2.855-3.985.214,1.386,2.107,1.93,3.14,2.373a19.349,19.349,0,0,0,4.866,1.79,11.793,11.793,0,0,0,3.921-.425,14.183,14.183,0,0,1,4.46.282,49.116,49.116,0,0,1,8.889,2.7c2.04.765,3.616,3.6,4.481,5.487a12.047,12.047,0,0,0,.719,1.462,8.409,8.409,0,0,0,1.936,1.956c1.517,1.217,3.37,2.463,5.255,1.986,2.716-.688,5.2,1.336,7.993,1.14a9.257,9.257,0,0,0,7.182-3.764,9.746,9.746,0,0,0,1.191-2.842c.141-.532.078-2.387.451-2.734.933-.868,1.937.929,2.363,1.465.367.461.842.828,1.205,1.292a3.567,3.567,0,0,1,.63,3.063,14.679,14.679,0,0,0-4.683,2.174.66.66,0,0,0-.271.292.652.652,0,0,0,.027.393,9.594,9.594,0,0,0,4.37,5.574c.411.237.112,1.124-.2,1.479a1.117,1.117,0,0,1-1.3.248,2.7,2.7,0,0,1-.838-.878,4.313,4.313,0,0,0-1.712-1.4,6.871,6.871,0,0,0-2.068-.413c-2.777-.263-5.559-.526-8.348-.516-.251-.245-.623-.053-.826.233a1.841,1.841,0,0,0-.237,1.009,15.971,15.971,0,0,0,.129,3.579,8.032,8.032,0,0,0,2.22,4.186,10.033,10.033,0,0,0,6.05,2.661c1.34.139,2.914-.283,4.167-.094,1.306.2,1.785,1.467,2.427,2.6a14.558,14.558,0,0,0,21.67,4.261,2.979,2.979,0,0,0,.961-1.092,2.781,2.781,0,0,0,.1-1.522,8.588,8.588,0,0,0-3.038-5.3,3.937,3.937,0,0,0,.923-1.151c.806-1.236.895-2.786,1.251-4.218a11.092,11.092,0,0,1,.958-2.5,8.2,8.2,0,0,1,2.346-3.192c.256-.217.553-.52.431-.833a.7.7,0,0,0-.192-.248c-1.1-1.015-2.641-1.108-4.032-1.389a16.953,16.953,0,0,0-5.022-.252c-.584.058-2.044.625-2.444,0-.259-.4.067-1.2.289-1.556a2.9,2.9,0,0,1,.941-.848c1.741-1.123,3.946-2.326,6.06-1.87.814.176,1.6.467,2.423.6a9.786,9.786,0,0,0,2.726-.016,20.949,20.949,0,0,0,5.475-1.436,8.16,8.16,0,0,1,9.81,3.408,1.967,1.967,0,0,1,.352,1.173c-.115,1.034-1.427,1.337-2.414,1.664a5.914,5.914,0,0,0-3.945,5.244c-.106,2.692,2.589,5.183,4.28,7.031l7.036,7.688a19.188,19.188,0,0,1,2.6,3.781c1.756,3.145.683,6.6,3.163,9.549a15.355,15.355,0,0,0,5.591,3.931c.968.433,1.007.668,2.063.759.343.029.6.333.913.194a.764.764,0,0,0,.3-.3,12.633,12.633,0,0,0,1.7-3.988,23.061,23.061,0,0,0,1.078-4.5,20.762,20.762,0,0,0,.034-4.578,7.082,7.082,0,0,0,4.266,1.609c-.013-.093-.085.072-.145.145a9.007,9.007,0,0,0-1.784,3.581,5.292,5.292,0,0,0,.478,3.982c.821,1.308,2.255,2.4,3.227,3.622.99,1.244,1.947,2.744,1.67,4.31a8.855,8.855,0,0,0-1.969,2.375,14.035,14.035,0,0,0-2.569,6.308,6.492,6.492,0,0,0,2.555,6.03,5.351,5.351,0,0,0-2.031,3.358,2.385,2.385,0,0,0,.3,2.279,21.029,21.029,0,0,1-6.041,1.22,9.776,9.776,0,0,0,2.3-4.361,27.587,27.587,0,0,0,1.1-8.162,9.666,9.666,0,0,0-6.356-.311,9.3,9.3,0,0,0-5.079,3.814c-.471-2.842-2.555-4.923-5.082-6.305a20.827,20.827,0,0,0-8.31-2.131c.53,2.911-.24,6.131-.521,9.077a13.021,13.021,0,0,0,.52,5.789,5.72,5.72,0,0,0,1.021,1.923,2.8,2.8,0,0,0,1.88,1.012c1.207.075,3.7-.308,3.876,1.523.295,3.064-6.935,3.051-8.583,2.991-2.762-.1-5.49-.887-8.248-.72-1.531-.126-2.662.936-3.571,2.175a11.794,11.794,0,0,0-1.715,4.244,19.551,19.551,0,0,1-1.385,4.382c-.159.308-.337.606-.515.9a4.679,4.679,0,0,0,2.965,1.108c1.6.127,3.323.225,4.677-.633,2.157-1.367,2.368-4.432,3.9-6.473a5,5,0,0,1,3.575-2.035,5.133,5.133,0,0,1,3.687,1.372c1.9,1.706,3.975,3.247,5.382,5.461a14.6,14.6,0,0,1,2.3,7.731,6.164,6.164,0,0,1-1.217,4.116,7.8,7.8,0,0,1-4.237,2,27.014,27.014,0,0,1-10.967.512,10.182,10.182,0,0,0,6.08,8.177A20.147,20.147,0,0,0,401.689,246c-1.573,2.377-2.146,5.6-.776,8.1a7.971,7.971,0,0,0,1.759,2.355,10.47,10.47,0,0,1,7.293-2.323c.3.017.5.036.792.075a17.688,17.688,0,0,0-2.608,9.083,37.907,37.907,0,0,1-.021,5.661,1.808,1.808,0,0,1-.764,1.17,1.806,1.806,0,0,0,1.161.434,14.063,14.063,0,0,0,5.753-.419,8.457,8.457,0,0,0,4.612-3.339,11.645,11.645,0,0,0,3.089,8.857,12,12,0,0,0,8.685,3.917,11.222,11.222,0,0,0-.117-3.721,7.537,7.537,0,0,0,3.11,3.157,30.7,30.7,0,0,0,4.088,1.879,11.067,11.067,0,0,1,1.739.861,8.744,8.744,0,0,1,2.775,3.153c1.96-2.449,3.776-5.371,4.019-8.5a15.609,15.609,0,0,0-.2-3.25,14.794,14.794,0,0,0-2.874-6.614,7.03,7.03,0,0,0,2.6-1.242,7.479,7.479,0,0,0,4.3,3.067,13.707,13.707,0,0,0,9.377-.4c.357-.149.53-.152.767-.457-.257.33-1.154-2.476-1.17-2.557-.179-.907-.353-1.824-.591-2.717a10.412,10.412,0,0,0-.636-2.5,10.745,10.745,0,0,0,8.418-.363c.818-.4,1.585-.9,2.43-1.233a6.756,6.756,0,0,1,2.731-.463c.786.029,1.614.5,2.4.386.472-.066.427-.172.359-.639a6.109,6.109,0,0,0-.3-1.118,14.889,14.889,0,0,0-5.348-7.544,9.945,9.945,0,0,0-10.514-.439,7.516,7.516,0,0,0-2,1.773c-.07-.7-.556-1.017-.95-1.594l-1.221-1.788a4.575,4.575,0,0,0-1.393-1.353,3.175,3.175,0,0,0,1.111-3.37,7.466,7.466,0,0,1,7.149,1.474,27.654,27.654,0,0,1,.7-6.33c.459-1.687,1.391-3.416,1.466-5.173a7.9,7.9,0,0,0-.38-2.7c-.166-.526-.949-1.57.078-1.74a1.188,1.188,0,0,1,.974.372,7.739,7.739,0,0,1,.674.843,6.757,6.757,0,0,0,2.918,1.939,15.642,15.642,0,0,0,3.8.959c1.087.132,2.188.15,3.265.35a8.493,8.493,0,0,1,2.694.769l2.074,1.2c.293.169.817.922,1.2.82.62-.165.5-1.885.5-2.356A39.67,39.67,0,0,0,480.307,225.744Z" fill="#e6e6e6"/><path d="M319.14,413.591l-.028,0C319.125,413.646,319.133,413.625,319.14,413.591Z" fill="none" stroke="#000" stroke-linecap="round" stroke-linejoin="round"/><path d="M58.244,124.116c1.071-1.5,5.781-2.357,5.781-2.357s.738,4.73-.333,6.235a3.344,3.344,0,1,1-5.449-3.878Z" fill="none" stroke="#87b26b" stroke-linecap="round" stroke-linejoin="round"/><path d="M72.321,124.116c1.071-1.5,5.781-2.357,5.781-2.357s.738,4.73-.333,6.235a3.344,3.344,0,1,1-5.449-3.878Z" fill="none" stroke="#87b26b" stroke-linecap="round" stroke-linejoin="round"/><path d="M65.581,136.62c1.071-1.5,5.781-2.357,5.781-2.357s.738,4.73-.333,6.235a3.344,3.344,0,1,1-5.449-3.878Z" fill="none" stroke="#87b26b" stroke-linecap="round" stroke-linejoin="round"/><path d="M86.4,124.115c1.071-1.5,5.781-2.357,5.781-2.357s.738,4.73-.333,6.235a3.344,3.344,0,1,1-5.449-3.878Z" fill="none" stroke="#87b26b" stroke-linecap="round" stroke-linejoin="round"/><path d="M78.42,136.62c1.071-1.5,5.781-2.357,5.781-2.357s.738,4.73-.333,6.235a3.344,3.344,0,1,1-5.449-3.878Z" fill="none" stroke="#87b26b" stroke-linecap="round" stroke-linejoin="round"/><path d="M91.259,136.62c1.071-1.5,5.781-2.357,5.781-2.357s.738,4.73-.333,6.235a3.344,3.344,0,1,1-5.449-3.878Z" fill="none" stroke="#87b26b" stroke-linecap="round" stroke-linejoin="round"/><polyline points="118.254 119.481 115.37 124.855 125.637 127.451 96.453 156.482 110.218 130.835 99.952 128.24 108.869 119.368" fill="none" stroke="#87b26b" stroke-linecap="round" stroke-linejoin="round"/><path d="M123.256,119.339a13.4,13.4,0,1,0,0-26.8c-.081,0-.162,0-.243.006A23.449,23.449,0,0,0,80.5,75.881a13.4,13.4,0,0,0-17.442,18.4,13.4,13.4,0,0,0,6.6,25.064h53.6Z" fill="none" stroke="#87b26b" stroke-linecap="round" stroke-linejoin="round"/><path d="M319.14,413.591l-.028,0C319.125,413.646,319.133,413.625,319.14,413.591Z" fill="none" stroke="#000" stroke-linecap="round" stroke-linejoin="round" stroke-dasharray="2 4"/><path d="M319.14,413.591c-.007.034-.015.054-.028,0Z" fill="none" stroke="#000" stroke-linecap="round" stroke-linejoin="round" stroke-dasharray="2 4"/><rect x="119" y="34" width="129" height="31" rx="6" ry="6" fill="#87b26b"/><path d="M130.88,42.742q-.016.432-.06.784a4.366,4.366,0,0,1-.1.56.8.8,0,0,1-.232.4.532.532,0,0,1-.36.14.575.575,0,0,1-.332-.108,1.063,1.063,0,0,1-.284-.308,2.415,2.415,0,0,1-.164-.348,4.341,4.341,0,0,1-.148-.472q-.073-.275-.136-.648t-.12-.876c-.016-.144-.029-.283-.04-.416s-.02-.278-.028-.436-.013-.333-.016-.528,0-.423,0-.684V38.7a.52.52,0,0,0-.06-.3.294.294,0,0,0-.244-.08h-3.44a.241.241,0,0,0-.24.112.728.728,0,0,0-.056.32v2.5q0,.336-.036.724a7.016,7.016,0,0,1-.12.788,6.5,6.5,0,0,1-.22.792,3.969,3.969,0,0,1-.336.728.765.765,0,0,1-.344.364.4.4,0,0,1-.344-.06.453.453,0,0,1-.256-.316.777.777,0,0,1,.136-.46,4.317,4.317,0,0,0,.456-1.18,6.076,6.076,0,0,0,.152-1.38V38.27a.865.865,0,0,1,.184-.62.838.838,0,0,1,.616-.188h4.224a.914.914,0,0,1,.636.188.809.809,0,0,1,.2.62l-.032,1.6q0,.36.02.8t.052.888q.031.448.08.88t.112.776c.027.165.053.207.08.124a2.509,2.509,0,0,0,.04-.58,1.265,1.265,0,0,1,.072-.516.309.309,0,0,1,.3-.14.564.564,0,0,1,.224.036.245.245,0,0,1,.12.112.459.459,0,0,1,.044.2Q130.888,42.574,130.88,42.742Zm-2.888.664q-.224-.384-.476-.788t-.524-.812a12.4,12.4,0,0,1-1.36,1.6.807.807,0,0,1-.488.268.392.392,0,0,1-.344-.2.488.488,0,0,1-.116-.376.873.873,0,0,1,.3-.392,6.9,6.9,0,0,0,.692-.74q.38-.46.748-.988-.288-.416-.552-.76t-.536-.7a1.032,1.032,0,0,1-.232-.384c-.027-.107.029-.219.168-.336a.5.5,0,0,1,.416-.144.739.739,0,0,1,.4.328q.24.336.456.632t.432.6a7.054,7.054,0,0,0,.384-.692q.168-.348.28-.612.208-.52.656-.312a.467.467,0,0,1,.284.276.687.687,0,0,1-.068.452q-.209.416-.444.848t-.5.84q.36.512.672.984t.592.936a.717.717,0,0,1,.12.428q-.016.2-.32.388a.349.349,0,0,1-.336,0A.9.9,0,0,1,127.992,43.406Z" fill="#fff"/><path d="M134.44,42.942a.309.309,0,0,1,.02.312.845.845,0,0,1-.324.264q-.216.112-.424.208t-.444.188c-.157.062-.326.12-.5.176s-.38.113-.6.172a.492.492,0,0,1-.428-.024.42.42,0,0,1-.172-.248q-.1-.4.424-.5a6.5,6.5,0,0,0,.824-.232,7.613,7.613,0,0,0,.744-.3.91.91,0,0,1-.264-.152c-.069-.048-.138-.092-.2-.132l-.164-.1a.379.379,0,0,1-.168-.136q-.216.127-.42.236t-.4.2q-.609.272-.736-.144a.662.662,0,0,1-.036-.164.205.205,0,0,1,.036-.128.449.449,0,0,1,.132-.12,1.784,1.784,0,0,1,.26-.132q.464-.192.928-.44h-.88a.334.334,0,0,1-.392-.368.365.365,0,0,1,.088-.28.451.451,0,0,1,.3-.08h1.56v-.352h-1.344a.41.41,0,0,1-.3-.092.35.35,0,0,1-.088-.252.447.447,0,0,1,.08-.28.377.377,0,0,1,.312-.1h1.344v-.36h-.312a2.245,2.245,0,0,1-.376-.04.585.585,0,0,1-.248-.108.427.427,0,0,1-.14-.212,1.153,1.153,0,0,1-.044-.352v-.888a.791.791,0,0,1,.184-.6.969.969,0,0,1,.64-.164h4.192a1.06,1.06,0,0,1,.66.164.743.743,0,0,1,.2.6v.888a.648.648,0,0,1-.208.572,1.2,1.2,0,0,1-.656.14h-.224v.36h1.328a.427.427,0,0,1,.328.1.4.4,0,0,1,.088.276.356.356,0,0,1-.092.256.4.4,0,0,1-.3.1h-1.352v.352h1.552a.424.424,0,0,1,.3.088.4.4,0,0,1,.088.288.362.362,0,0,1-.088.26.413.413,0,0,1-.3.092H137.6q.208.1.416.192l.408.176a.762.762,0,0,1,.24.156.45.45,0,0,1,.108.172.327.327,0,0,1,.008.176.747.747,0,0,1-.06.168l-.008.008a.307.307,0,0,1-.236.188,1.089,1.089,0,0,1-.46-.132,3.881,3.881,0,0,1-.4-.208c-.136-.08-.279-.168-.428-.264a.767.767,0,0,1-.2.144c-.064.038-.12.068-.168.092l-.136.068c-.043.021-.085.042-.128.06s-.093.039-.152.06a.551.551,0,0,1-.4.056.406.406,0,0,1-.2-.2.307.307,0,0,1-.024-.292.562.562,0,0,1,.3-.22q.152-.064.268-.108a.873.873,0,0,0,.2-.108q-.056-.04-.116-.088c-.04-.032-.082-.064-.124-.1h-2.528c-.059.048-.12.095-.184.14s-.128.089-.192.132c.08.043.154.084.224.124a1.556,1.556,0,0,1,.176.116.54.54,0,0,1,.184.228.32.32,0,0,1-.024.268.4.4,0,0,1,.268-.028A.414.414,0,0,1,134.44,42.942Zm-1.5-4.776h4.1a.377.377,0,0,0-.068-.2.254.254,0,0,0-.22-.084H133.2a.394.394,0,0,0-.2.036c-.035.024-.052.081-.052.172Zm3.808.776a.283.283,0,0,0,.228-.068.341.341,0,0,0,.06-.188h-4.1a.331.331,0,0,0,.064.184.274.274,0,0,0,.224.072Zm-1.232,4.984a.869.869,0,0,1-.1.476.6.6,0,0,1-.3.228,1.584,1.584,0,0,1-.468.048,3.025,3.025,0,0,1-.74-.1.454.454,0,0,1-.332-.212.416.416,0,0,1,0-.324.366.366,0,0,1,.192-.244.515.515,0,0,1,.32,0,1.216,1.216,0,0,0,.468.06c.083-.019.124-.084.124-.2V42.182a.377.377,0,0,1,.092-.3.487.487,0,0,1,.3-.072.612.612,0,0,1,.328.08.322.322,0,0,1,.128.3Zm-1.472-3.992h1.968v-.36h-1.968Zm0,1.08h1.968v-.352h-1.968Zm4.136,3.3a.408.408,0,0,1-.236.192.685.685,0,0,1-.428-.144q-.216-.128-.4-.224t-.356-.176q-.177-.08-.368-.152t-.432-.152a.7.7,0,0,1-.38-.232.36.36,0,0,1,0-.32.3.3,0,0,1,.192-.216.924.924,0,0,1,.416.048,6.762,6.762,0,0,1,.852.288,6.2,6.2,0,0,1,.86.448.877.877,0,0,1,.36.32A.33.33,0,0,1,138.184,44.318Z" fill="#fff"/><path d="M129.44,49.134a1.679,1.679,0,0,1,.364.032.425.425,0,0,1,.22.116.449.449,0,0,1,.108.232,2.068,2.068,0,0,1,.028.372v1.272a2.309,2.309,0,0,1-.024.356.491.491,0,0,1-.1.236.413.413,0,0,1-.216.128,1.478,1.478,0,0,1-.384.04H127.3v.408h2.9a.306.306,0,0,1,.232.076.3.3,0,0,1,.072.212.269.269,0,0,1-.3.3h-2.9v.5h3.192a.3.3,0,0,1,.24.084.325.325,0,0,1,.072.22.314.314,0,0,1-.072.212.3.3,0,0,1-.24.084H123.5a.289.289,0,0,1-.232-.084.314.314,0,0,1-.072-.212.325.325,0,0,1,.072-.22.289.289,0,0,1,.232-.084h3.176v-.5h-2.832a.269.269,0,0,1-.3-.3.3.3,0,0,1,.072-.212.306.306,0,0,1,.232-.076h2.832v-.408h-2.064a1.78,1.78,0,0,1-.348-.028.439.439,0,0,1-.224-.108.458.458,0,0,1-.12-.232,1.756,1.756,0,0,1-.036-.392V49.886a2.008,2.008,0,0,1,.028-.364.405.405,0,0,1,.328-.352,1.549,1.549,0,0,1,.372-.036h2.064V48.71h-3.208a.292.292,0,0,1-.228-.076.332.332,0,0,1-.068-.228.307.307,0,0,1,.068-.212.292.292,0,0,1,.228-.076h3.208v-.384q-.56.016-1.124.02t-1.14-.012a.724.724,0,0,1-.372-.084.266.266,0,0,1-.084-.22.271.271,0,0,1,.1-.232.613.613,0,0,1,.376-.056q.624.024,1.316.024t1.384-.032q.692-.032,1.34-.092t1.176-.148a.746.746,0,0,1,.392.012.274.274,0,0,1,.128.2.3.3,0,0,1-.048.26.5.5,0,0,1-.328.132q-.624.072-1.244.124t-1.252.084v.408h3.248a.294.294,0,0,1,.228.076.307.307,0,0,1,.068.212.332.332,0,0,1-.068.228.294.294,0,0,1-.228.076H127.3v.424Zm-4.856.576c-.064,0-.1.045-.1.136v.384h2.192v-.52Zm-.1,1.5a.156.156,0,0,0,.028.1.082.082,0,0,0,.068.036h2.1V50.79h-2.192Zm2.808-1.5v.52h2.264v-.384c0-.09-.035-.136-.1-.136Zm2.16,1.632c.069,0,.1-.045.1-.136V50.79H127.3v.552Z" fill="#fff"/><path d="M135.4,48.326h2.848a.29.29,0,0,1,.352.32.38.38,0,0,1-.072.248.351.351,0,0,1-.28.088H135.4a8.592,8.592,0,0,0,1.16,2.58,7.839,7.839,0,0,0,1.7,1.812,1.05,1.05,0,0,1,.34.348.276.276,0,0,1-.044.284.3.3,0,0,1-.268.14.986.986,0,0,1-.444-.236,9.907,9.907,0,0,1-1.564-1.712,9.346,9.346,0,0,1-1.14-2.1,6.482,6.482,0,0,1-.532,1.188,8.323,8.323,0,0,1-.748,1.1,7.692,7.692,0,0,1-.9.94,6.538,6.538,0,0,1-.976.72.71.71,0,0,1-.416.14.3.3,0,0,1-.232-.18.265.265,0,0,1,.008-.288,1.06,1.06,0,0,1,.32-.256,6.674,6.674,0,0,0,1.2-.924,7.021,7.021,0,0,0,.936-1.112,6.055,6.055,0,0,0,.636-1.216,4.9,4.9,0,0,0,.3-1.228h-2.888a.382.382,0,0,1-.284-.088.347.347,0,0,1-.084-.248.323.323,0,0,1,.084-.232.382.382,0,0,1,.284-.088h2.912V46.878a.39.39,0,0,1,.08-.28.326.326,0,0,1,.24-.08.311.311,0,0,1,.24.08.423.423,0,0,1,.072.28Z" fill="#fff"/><path d="M146.376,53.382a.81.81,0,0,1-.144.544.692.692,0,0,1-.528.16h-5.432a.692.692,0,0,1-.528-.16.81.81,0,0,1-.144-.544V47.694a.81.81,0,0,1,.144-.544.694.694,0,0,1,.528-.16H145.7a.694.694,0,0,1,.528.16.81.81,0,0,1,.144.544Zm-.608-5.68c0-.074-.032-.112-.1-.112H140.3q-.088,0-.088.12v5.648c0,.085.029.128.088.128h5.376c.064,0,.1-.043.1-.128Zm-5.16,1.72a.3.3,0,0,1-.24-.076.317.317,0,0,1-.064-.212.371.371,0,0,1,.064-.224.279.279,0,0,1,.24-.088h2.08V47.99a.285.285,0,0,1,.092-.248.392.392,0,0,1,.228-.064.339.339,0,0,1,.216.064.308.308,0,0,1,.08.248v.832h2.04a.293.293,0,0,1,.24.088.345.345,0,0,1,.072.224.256.256,0,0,1-.312.288h-1.9q.3.36.556.672t.5.612q.24.3.464.6l.464.62a.635.635,0,0,1,.144.316q.008.133-.192.252-.248.112-.448-.168-.417-.576-.82-1.132t-.8-1.068V53.07a.308.308,0,0,1-.08.248.339.339,0,0,1-.216.064.392.392,0,0,1-.228-.064.285.285,0,0,1-.092-.248V50.19a11.36,11.36,0,0,1-.832,1.112,8.927,8.927,0,0,1-.976.984q-.312.281-.52.008a.238.238,0,0,1-.064-.24.727.727,0,0,1,.224-.28,11.76,11.76,0,0,0,1.936-2.352Z" fill="#fff"/><path d="M147.392,52.91q.216-.119.392-.22t.328-.2V49.142h-.64q-.328,0-.328-.288a.315.315,0,0,1,.08-.228.327.327,0,0,1,.248-.084h.64V47.03q0-.336.3-.336.288,0,.288.336v1.512h.44a.377.377,0,0,1,.24.064.307.307,0,0,1,.08.248q0,.288-.32.288h-.44v2.944q.088-.064.172-.136l.188-.16a.606.606,0,0,1,.256-.136.228.228,0,0,1,.216.072.335.335,0,0,1,.116.264.405.405,0,0,1-.148.224,8.474,8.474,0,0,1-.812.628q-.428.292-.98.612-.376.216-.5-.056a.323.323,0,0,1-.036-.284A.46.46,0,0,1,147.392,52.91Zm5.76-.976V53.1a2.017,2.017,0,0,0,.008.2.239.239,0,0,0,.04.12.157.157,0,0,0,.084.06.737.737,0,0,0,.148.024,1.583,1.583,0,0,0,.24.012c.069,0,.133-.007.192-.012a.753.753,0,0,0,.22-.04.255.255,0,0,0,.128-.1.451.451,0,0,0,.06-.184,2.27,2.27,0,0,0,.016-.3.729.729,0,0,1,.06-.34.229.229,0,0,1,.22-.108.3.3,0,0,1,.236.084.571.571,0,0,1,.076.356,3.918,3.918,0,0,1-.036.588.865.865,0,0,1-.128.36.493.493,0,0,1-.252.188,2.051,2.051,0,0,1-.416.088q-.16.015-.3.016t-.356-.016a2.891,2.891,0,0,1-.452-.068.461.461,0,0,1-.384-.428,3.258,3.258,0,0,1-.028-.48V51.934h-.92a2.885,2.885,0,0,1-.5,1.22,3.378,3.378,0,0,1-1.2,1,.675.675,0,0,1-.344.1.252.252,0,0,1-.2-.172.308.308,0,0,1-.012-.26.582.582,0,0,1,.3-.244,2.7,2.7,0,0,0,.916-.688,2.165,2.165,0,0,0,.42-.952h-.416a1.867,1.867,0,0,1-.368-.028.4.4,0,0,1-.208-.1.377.377,0,0,1-.1-.208,2.08,2.08,0,0,1-.024-.352V50.118a2.149,2.149,0,0,1,.024-.36.364.364,0,0,1,.1-.208.378.378,0,0,1,.212-.092,2.6,2.6,0,0,1,.36-.02H153.7a2.228,2.228,0,0,1,.324.02.375.375,0,0,1,.208.092.406.406,0,0,1,.108.208,1.654,1.654,0,0,1,.032.36v1.128a1.559,1.559,0,0,1-.032.344.387.387,0,0,1-.12.212.5.5,0,0,1-.236.1,2.125,2.125,0,0,1-.388.028Zm-2.32-3.416c-.027-.069-.053-.133-.08-.192l-.08-.176q-.112-.216-.008-.336h-.6q-.328,0-.328-.288t.328-.288h1.672a1.406,1.406,0,0,0-.1-.224.366.366,0,0,1-.044-.26.3.3,0,0,1,.2-.2.362.362,0,0,1,.236-.016c.078.021.143.1.2.24.016.048.037.109.064.184s.056.166.088.272h1.9q.344,0,.344.288t-.344.288h-.712a.338.338,0,0,1-.008.3c-.027.075-.053.146-.08.212s-.053.132-.08.2h1.1a.426.426,0,0,1,.26.064.264.264,0,0,1,.084.224.254.254,0,0,1-.092.224.434.434,0,0,1-.252.064h-4.56a.431.431,0,0,1-.252-.064.253.253,0,0,1-.092-.224.265.265,0,0,1,.084-.224.428.428,0,0,1,.26-.064Zm2.96,1.552q0-.072-.1-.072H150.56c-.064,0-.1.024-.1.072v.32h3.328Zm0,.84h-3.328v.368a.085.085,0,0,0,.1.1h3.128c.069,0,.1-.032.1-.1Zm-2.616-3.024q.081.185.132.324l.116.308h1.368c.042-.1.08-.189.112-.28s.067-.189.1-.3a.526.526,0,0,1,.032-.068c.011-.019.021-.039.032-.06h-1.936a.07.07,0,0,1,.02.036A.07.07,0,0,0,151.176,47.886Z" fill="#fff"/><path d="M161.272,51.534a.359.359,0,0,1-.064.216.259.259,0,0,1-.224.088h-5.416a.3.3,0,0,1-.216-.076.278.278,0,0,1-.08-.212.352.352,0,0,1,.068-.228.277.277,0,0,1,.228-.084h5.416a.271.271,0,0,1,.228.08A.352.352,0,0,1,161.272,51.534Zm-4.52-2.2c-.005.075.04.112.136.112h4.752a.951.951,0,0,1,.292.04.424.424,0,0,1,.2.14.717.717,0,0,1,.124.276,1.85,1.85,0,0,1,.044.44,10.609,10.609,0,0,1-.156,2.12,3.061,3.061,0,0,1-.4,1.112,1.6,1.6,0,0,1-.588.416,1.983,1.983,0,0,1-.788.152,3.2,3.2,0,0,1-1.44-.352.544.544,0,0,1-.272-.2.278.278,0,0,1,0-.244.262.262,0,0,1,.18-.168.5.5,0,0,1,.332.072,4.286,4.286,0,0,0,.6.232,1.994,1.994,0,0,0,.568.088,1.275,1.275,0,0,0,.528-.108,1.148,1.148,0,0,0,.4-.292,2.218,2.218,0,0,0,.312-.944,10.007,10.007,0,0,0,.112-1.832.683.683,0,0,0-.052-.284.137.137,0,0,0-.124-.076h-4.56a1.446,1.446,0,0,1-.66-.112.4.4,0,0,1-.164-.44q.088-.68.188-1.3t.188-1.244a.4.4,0,0,1,.1-.244.294.294,0,0,1,.224-.044q.2.016.236.1a.526.526,0,0,1,.02.248l-.1.624h5.32a.288.288,0,0,1,.224.072.331.331,0,0,1,.064.224.355.355,0,0,1-.064.22.264.264,0,0,1-.224.084h-5.408l-.16,1.112Z" fill="#fff"/><path d="M164.208,51.166l-.252.144c-.083.048-.169.093-.26.136a.636.636,0,0,1-.269.08.194.194,0,0,1-.172-.128.385.385,0,0,1-.044-.3.44.44,0,0,1,.252-.22q.192-.1.38-.208t.364-.224V48.654h-.648q-.359,0-.359-.3a.262.262,0,0,1,.1-.224.43.43,0,0,1,.264-.072h.648v-1.16a.334.334,0,0,1,.076-.244.286.286,0,0,1,.212-.076q.3,0,.3.32v1.16h.448a.45.45,0,0,1,.264.072.253.253,0,0,1,.1.224.266.266,0,0,1-.1.228.429.429,0,0,1-.268.076H164.8v1.36a2.2,2.2,0,0,0,.164-.148l.148-.148a.415.415,0,0,1,.271-.156.276.276,0,0,1,.225.108.325.325,0,0,1,.1.232.435.435,0,0,1-.16.256,7.447,7.447,0,0,1-.744.624V53.4a.859.859,0,0,1-.147.568.64.64,0,0,1-.5.168,1.527,1.527,0,0,1-.32-.04,3.982,3.982,0,0,1-.4-.112.27.27,0,0,1-.184-.152.333.333,0,0,1,.016-.264.273.273,0,0,1,.385-.168l.172.06a1.266,1.266,0,0,0,.172.044.234.234,0,0,0,.168-.008c.032-.021.048-.075.048-.16Zm1.256,2.24a2.678,2.678,0,0,0,1.056-.888,3.193,3.193,0,0,0,.488-1.4,5.561,5.561,0,0,1-.584.468c-.2.141-.408.279-.616.412a.71.71,0,0,1-.3.12A.231.231,0,0,1,165.3,52a.3.3,0,0,1-.04-.276.656.656,0,0,1,.3-.292c.1-.059.2-.123.309-.192s.216-.149.336-.24.249-.2.388-.316.291-.26.456-.42V46.918a.346.346,0,0,1,.084-.248.292.292,0,0,1,.22-.088.309.309,0,0,1,.221.08.343.343,0,0,1,.084.256v3.464a6.371,6.371,0,0,1-.108,1.224,3.59,3.59,0,0,1-.344,1,2.949,2.949,0,0,1-.608.788A3.915,3.915,0,0,1,165.7,54a.593.593,0,0,1-.393.1.277.277,0,0,1-.191-.188.3.3,0,0,1,.023-.26A.736.736,0,0,1,165.464,53.406Zm1.313-4.064c.085.293.011.461-.225.5q-.271.048-.368-.336a8.528,8.528,0,0,0-.544-1.64q-.176-.344.112-.5c.187-.08.331-.005.432.224q.1.24.177.432c.048.128.095.257.14.388s.089.269.132.416S166.723,49.15,166.776,49.342Zm2.008-.584q.127-.12.24-.248c.074-.085.15-.176.228-.272s.156-.2.236-.316l.264-.38A.511.511,0,0,1,170,47.33a.283.283,0,0,1,.24.068.338.338,0,0,1,.144.2c.017.072-.029.18-.136.324q-.185.256-.348.464c-.109.139-.221.272-.332.4s-.232.253-.36.376-.27.253-.424.392v.632a15.394,15.394,0,0,1,1.52,1.256.573.573,0,0,1,.2.332.36.36,0,0,1-.076.26.275.275,0,0,1-.244.076.546.546,0,0,1-.315-.22c-.032-.037-.084-.09-.156-.16s-.156-.147-.252-.232-.2-.177-.32-.276-.234-.2-.352-.292v1.888a.646.646,0,0,0,.132.448.7.7,0,0,0,.492.16,2.265,2.265,0,0,0,.408,0,.548.548,0,0,0,.271-.1.457.457,0,0,0,.152-.228,1.349,1.349,0,0,0,.048-.4.5.5,0,0,1,.063-.292.288.288,0,0,1,.208-.1c.139-.011.229.02.269.092a.565.565,0,0,1,.06.276,2.665,2.665,0,0,1-.067.648.9.9,0,0,1-.236.428.921.921,0,0,1-.456.228,2.95,2.95,0,0,1-.728.048,2.332,2.332,0,0,1-.553-.072.889.889,0,0,1-.38-.2.843.843,0,0,1-.22-.376,2.049,2.049,0,0,1-.072-.588v-5.88a.335.335,0,0,1,.084-.24.293.293,0,0,1,.221-.088.3.3,0,0,1,.22.084.332.332,0,0,1,.084.244Z" fill="#fff"/><path d="M172.52,49.582V46.934a.348.348,0,0,1,.093-.264.337.337,0,0,1,.244-.088.253.253,0,0,1,.216.1.418.418,0,0,1,.071.256v.76h1.425a.419.419,0,0,1,.252.068.267.267,0,0,1,.092.228c0,.2-.115.3-.344.3h-1.425v1.3h.713a.891.891,0,0,1,.54.132.625.625,0,0,1,.172.516v2.984a.674.674,0,0,1-.152.512.86.86,0,0,1-.56.136h-1.681a.857.857,0,0,1-.532-.136.627.627,0,0,1-.172-.512V50.23a.627.627,0,0,1,.172-.512.857.857,0,0,1,.532-.136Zm1.44.7a.1.1,0,0,0-.028-.084.221.221,0,0,0-.115-.02h-1.608c-.091,0-.136.035-.136.1v2.888c0,.064.045.1.136.1h1.608c.1,0,.144-.032.144-.1Zm2.472-1.024q.041.408.08.728t.092.6q.053.28.112.532t.141.516a6.479,6.479,0,0,0,.863-1.984.681.681,0,0,1,.145-.292.271.271,0,0,1,.239-.052.266.266,0,0,1,.229.152.662.662,0,0,1-.036.384,8.322,8.322,0,0,1-.528,1.348,6.73,6.73,0,0,1-.7,1.108q.1.232.228.488c.088.171.17.315.244.432q.136.2.264.188c.086-.008.157-.089.217-.244a2.344,2.344,0,0,0,.107-.368,5.41,5.41,0,0,0,.092-.64.556.556,0,0,1,.108-.336.343.343,0,0,1,.26-.072.234.234,0,0,1,.22.112.738.738,0,0,1,.028.368,5.01,5.01,0,0,1-.124.752,4.678,4.678,0,0,1-.2.632.69.69,0,0,1-.655.464.827.827,0,0,1-.437-.136,1.3,1.3,0,0,1-.4-.408c-.069-.112-.137-.229-.2-.352s-.126-.248-.185-.376a7.41,7.41,0,0,1-1.5,1.16.684.684,0,0,1-.367.124.235.235,0,0,1-.2-.148.282.282,0,0,1-.008-.268.776.776,0,0,1,.3-.252,6.33,6.33,0,0,0,1.552-1.232,13.312,13.312,0,0,1-.34-1.32q-.141-.68-.229-1.528l-.928.12a.468.468,0,0,1-.268-.04.258.258,0,0,1-.124-.224.265.265,0,0,1,.063-.24.51.51,0,0,1,.24-.088l.968-.128c-.021-.272-.038-.556-.052-.852s-.025-.615-.036-.956a.458.458,0,0,1,.061-.252.269.269,0,0,1,.212-.108.33.33,0,0,1,.256.06.378.378,0,0,1,.088.292q-.009.432.008.872t.048.864l1.88-.248q.312-.031.36.248.04.3-.3.344Zm1.624-1.5a.433.433,0,0,1,.112.268.337.337,0,0,1-.144.22q-.233.168-.44-.128c-.106-.155-.211-.3-.312-.424s-.225-.267-.368-.416a.364.364,0,0,1-.112-.2.267.267,0,0,1,.088-.22.289.289,0,0,1,.212-.1.282.282,0,0,1,.229.124q.208.232.372.428C177.8,47.429,177.923,47.579,178.056,47.75Z" fill="#fff"/><path d="M126.276,57.651v2.532a1.314,1.314,0,0,1-.033.309.522.522,0,0,1-.12.231.557.557,0,0,1-.234.147,1.151,1.151,0,0,1-.369.051,1.207,1.207,0,0,1-.264-.018,2.482,2.482,0,0,1-.264-.06,2.287,2.287,0,0,1-.228-.078.565.565,0,0,1-.144-.078.116.116,0,0,1-.051-.09.149.149,0,0,1,.024-.093.127.127,0,0,1,.078-.051.154.154,0,0,1,.117.03,2,2,0,0,0,.714.174,1.176,1.176,0,0,0,.24-.021.315.315,0,0,0,.153-.075.3.3,0,0,0,.081-.15A1.093,1.093,0,0,0,126,60.16V57.651h-2.58c-.076,0-.114-.042-.114-.126s.038-.132.114-.132H128.6c.076,0,.114.044.114.132s-.038.126-.114.126Zm-1.536.522a2.985,2.985,0,0,1-.234.648q-.114.275-.243.531t-.267.5a3.881,3.881,0,0,1-.372.558c-.056.06-.1.09-.135.09a.14.14,0,0,1-.093-.036.078.078,0,0,1-.042-.072.748.748,0,0,1,.126-.216q.18-.258.324-.489a4.8,4.8,0,0,0,.246-.441q.1-.21.2-.447t.189-.507q.078-.222.18-.222C124.7,58.065,124.74,58.1,124.74,58.173Zm3.288-2.28q.114,0,.114.126t-.114.12H124q-.114,0-.114-.12t.114-.126Zm.57,4.5a.1.1,0,0,1-.042.087.185.185,0,0,1-.1.027.126.126,0,0,1-.1-.057,1.577,1.577,0,0,1-.141-.285q-.27-.612-.477-1.041t-.363-.7a.4.4,0,0,1-.069-.189.111.111,0,0,1,.039-.09.116.116,0,0,1,.087-.021.122.122,0,0,1,.069.024.585.585,0,0,1,.072.1.946.946,0,0,1,.078.138q.054.108.15.294.186.36.432.882.126.258.2.417t.1.225A.5.5,0,0,1,128.6,60.394Z" fill="#fff"/><path d="M129.81,57.478c-.04.1-.081.192-.123.288s-.087.192-.135.288a3.277,3.277,0,0,1-.174.33.1.1,0,0,1-.078.048.126.126,0,0,1-.111-.057c-.026-.038-.011-.115.045-.231a8.617,8.617,0,0,0,.93-2.592c.012-.1.054-.144.126-.144s.114.032.114.1a3.6,3.6,0,0,1-.12.534q-.06.222-.117.423t-.117.375v4.1a.074.074,0,0,1-.024.09.167.167,0,0,1-.192,0,.074.074,0,0,1-.024-.09Zm1.428-1.512h-.546c-.072,0-.108-.038-.108-.114s.036-.12.108-.12H133q.132,0,.132.12c0,.076-.044.114-.132.114H131.46c-.008.144-.017.288-.027.432s-.023.286-.039.426h1.116a.572.572,0,0,1,.162.021.269.269,0,0,1,.123.075.357.357,0,0,1,.078.15.962.962,0,0,1,.027.252,4.2,4.2,0,0,1-.366,1.812,3.782,3.782,0,0,1-.978,1.3q-.606.51-.8.51c-.076,0-.114-.036-.114-.108q0-.078.192-.2a3.731,3.731,0,0,0,1.3-1.248,7.907,7.907,0,0,0-1.044-1.278,2.827,2.827,0,0,1-.4.678q-.27.342-.378.342a.086.086,0,0,1-.06-.03.155.155,0,0,1-.018-.081q0-.051.126-.195a4.341,4.341,0,0,0,.39-.525,2.461,2.461,0,0,0,.246-.546,4.194,4.194,0,0,0,.15-.723Q131.2,56.608,131.238,55.965Zm-.06,1.9a8.269,8.269,0,0,1,.576.612,7.277,7.277,0,0,1,.51.678,3.942,3.942,0,0,0,.4-1.806.361.361,0,0,0-.051-.234.31.31,0,0,0-.219-.054h-1.026A4.472,4.472,0,0,1,131.178,57.868ZM134.6,60.43a.638.638,0,0,1-.126.354.515.515,0,0,1-.474.186,2.4,2.4,0,0,1-.576-.078,1.845,1.845,0,0,1-.4-.114c-.052-.028-.078-.06-.078-.1a.124.124,0,0,1,.066-.126.29.29,0,0,1,.186,0,3.182,3.182,0,0,0,.744.156.478.478,0,0,0,.318-.081.37.37,0,0,0,.09-.285V55.5c0-.072.04-.108.12-.108s.126.036.126.108Zm-.948-.612a.074.074,0,0,1-.024.09.169.169,0,0,1-.192,0,.074.074,0,0,1-.024-.09v-3.8a.128.128,0,0,1,.021-.084c.014-.016.047-.024.1-.024s.085.008.1.024a.128.128,0,0,1,.021.084Z" fill="#fff"/><path d="M136.4,57.058a.262.262,0,0,1,.189.078.248.248,0,0,1,.081.186.251.251,0,0,1-.081.183.257.257,0,0,1-.189.081.278.278,0,0,1-.264-.264.25.25,0,0,1,.081-.186A.257.257,0,0,1,136.4,57.058Zm0,2.25a.262.262,0,0,1,.189.078.248.248,0,0,1,.081.186.251.251,0,0,1-.081.183.257.257,0,0,1-.189.081.278.278,0,0,1-.264-.264.25.25,0,0,1,.081-.186A.257.257,0,0,1,136.4,59.308Z" fill="#fff"/><path d="M143.634,56.074a1.661,1.661,0,0,0,.246-.588q.024-.132.114-.132c.1,0,.156.042.156.126a.924.924,0,0,1-.054.246,2.155,2.155,0,0,1-.15.348h1.968a.4.4,0,0,1,.3.093.456.456,0,0,1,.09.321v3.864a.467.467,0,0,1-.09.327.4.4,0,0,1-.3.093h-3.792a.393.393,0,0,1-.3-.093.478.478,0,0,1-.087-.327V56.488a.465.465,0,0,1,.087-.324.4.4,0,0,1,.3-.09Zm2.388,1.44v-.966q0-.216-.192-.216h-3.642q-.186,0-.186.216v.966ZM142,59.038h4.02V57.771H142Zm4.02.258H142v.99a.234.234,0,0,0,.054.159.166.166,0,0,0,.132.063h3.642q.192,0,.192-.222Z" fill="#fff"/><path d="M147.756,57.339q-.33.438-.426.438a.249.249,0,0,1-.054-.021.094.094,0,0,1-.045-.048.115.115,0,0,1,0-.081.34.34,0,0,1,.087-.12,4.067,4.067,0,0,0,1-1.938c.032-.14.084-.21.156-.21s.114.032.114.1a.6.6,0,0,1-.021.168.786.786,0,0,0-.021.078h1.182a.426.426,0,0,1,.309.114.41.41,0,0,1,.117.306,3.1,3.1,0,0,1-.234.93,3.64,3.64,0,0,1-.726,1.2,4.013,4.013,0,0,1-1.092.87,2.8,2.8,0,0,1-.72.318c-.08,0-.12-.048-.12-.144a.1.1,0,0,1,.036-.078.67.67,0,0,1,.15-.078,4.554,4.554,0,0,0,1.374-.858A9.123,9.123,0,0,0,147.756,57.339Zm.57,2.118a1.724,1.724,0,0,1-.144.438c-.048.116-.1.232-.156.348s-.118.23-.186.342-.116.2-.156.261a.879.879,0,0,1-.084.117.143.143,0,0,1-.093.042.1.1,0,0,1-.072-.027.115.115,0,0,1-.03-.078.2.2,0,0,1,.033-.111,5.194,5.194,0,0,0,.384-.651,5.281,5.281,0,0,0,.288-.705.1.1,0,0,1,.1-.078C148.286,59.355,148.326,59.39,148.326,59.458Zm-.084-2.946a5.068,5.068,0,0,1-.366.648,10.338,10.338,0,0,1,1.1.96,3.629,3.629,0,0,0,.288-.351,4.016,4.016,0,0,0,.246-.387q-.4-.305-.714-.519T148.242,56.512Zm.228-.576a3.76,3.76,0,0,1-.138.372,12.914,12.914,0,0,1,1.284.864,3.736,3.736,0,0,0,.2-.576,1.892,1.892,0,0,0,.078-.42q0-.24-.294-.24Zm.768,3.456c.044,0,.076.028.1.084a5.624,5.624,0,0,1,.072.594q.024.259.036.435c.008.118.012.211.012.279,0,.132-.05.2-.15.2-.068,0-.1-.07-.1-.21a6.43,6.43,0,0,0-.036-.744l-.06-.516Q149.106,59.392,149.238,59.392Zm1.956-2.1a2.959,2.959,0,0,1-1.1,1.656,1.372,1.372,0,0,1-.576.324c-.1,0-.144-.044-.144-.132,0-.048.05-.1.15-.15a2.756,2.756,0,0,0,1.494-1.95h-.864c-.076,0-.114-.036-.114-.108a.1.1,0,0,1,.114-.114h.906q.012-.09.021-.408t.009-.87c0-.076.04-.114.12-.114s.114.044.114.132a1.18,1.18,0,0,1,.006.153v.321c0,.132,0,.264-.012.4s-.02.262-.036.39h1.332c.1,0,.144.038.144.114s-.048.108-.144.108h-1.278a3.79,3.79,0,0,0,1.374,2.07c.092.072.138.13.138.174a.266.266,0,0,1-.021.111.072.072,0,0,1-.069.045q-.168,0-.732-.648A4.12,4.12,0,0,1,151.194,57.292Zm-.69,2.082a.1.1,0,0,1,.048.012.145.145,0,0,1,.051.057,1.243,1.243,0,0,1,.063.126c.024.054.054.125.09.213q.12.27.228.582a1.717,1.717,0,0,1,.108.447.107.107,0,0,1-.12.123q-.084,0-.144-.2c-.056-.2-.116-.4-.18-.573s-.134-.349-.21-.513a.457.457,0,0,1-.06-.18C150.378,59.406,150.42,59.374,150.5,59.374Zm2.058-2.868a.087.087,0,0,1-.024.057.135.135,0,0,1-.06.039.125.125,0,0,1-.078,0,.181.181,0,0,1-.084-.06,2.929,2.929,0,0,0-.342-.348,3.564,3.564,0,0,0-.336-.306.294.294,0,0,1-.1-.1.106.106,0,0,1-.006-.078.094.094,0,0,1,.045-.051.134.134,0,0,1,.063-.018.121.121,0,0,1,.078.024c.016.008.1.078.24.21.068.064.132.123.192.177s.116.107.168.159a2.114,2.114,0,0,1,.2.207A.175.175,0,0,1,152.562,56.505Zm-.8,2.772a.134.134,0,0,1,.09.048,1.352,1.352,0,0,1,.189.237,5.145,5.145,0,0,1,.273.447l.132.24q.066.12.126.234a.992.992,0,0,1,.12.282.1.1,0,0,1-.048.09.166.166,0,0,1-.084.03c-.056,0-.114-.07-.174-.21a4.983,4.983,0,0,0-.66-1.158.3.3,0,0,1-.057-.111.136.136,0,0,1,0-.075.076.076,0,0,1,.036-.042A.119.119,0,0,1,151.758,59.277Z" fill="#fff"/><path d="M155.958,58.629a3.473,3.473,0,0,1-.762,1.242,4.3,4.3,0,0,1-.534.486,4.145,4.145,0,0,1-.57.366,2.5,2.5,0,0,1-.72.312.089.089,0,0,1-.09-.057.261.261,0,0,1-.024-.1q0-.09.186-.15a4.189,4.189,0,0,0,1.536-.99,2.994,2.994,0,0,0,.768-1.308,6.7,6.7,0,0,0,.168-1.614c0-.128.034-.192.1-.192s.114.016.126.048a.645.645,0,0,1,.024.234q0,.192-.036.63a6.332,6.332,0,0,1-.09.75,4.328,4.328,0,0,0,1.011,1.539,3.924,3.924,0,0,0,1.521.909q.185.06.186.156,0,.132-.138.132a2.107,2.107,0,0,1-.8-.33,4.321,4.321,0,0,1-1.083-.861A4.212,4.212,0,0,1,155.958,58.629Zm.03-2.664a1.9,1.9,0,0,0-.216-.444.158.158,0,0,1-.012-.123q.018-.075.114-.075a.141.141,0,0,1,.081.027.313.313,0,0,1,.081.1,1.469,1.469,0,0,1,.09.195c.032.082.07.189.114.321h1.8a1.153,1.153,0,0,1,.36.036.36.36,0,0,1,.141.081.856.856,0,0,1,.1.123.392.392,0,0,1,.054.231,1.638,1.638,0,0,1-.072.417c-.024.084-.044.151-.06.2a.486.486,0,0,1-.048.111.11.11,0,0,1-.048.045.142.142,0,0,1-.054.009c-.068,0-.1-.032-.1-.1a1.714,1.714,0,0,1,.066-.27,1.257,1.257,0,0,0,.072-.372.256.256,0,0,0-.084-.219.579.579,0,0,0-.324-.063h-4.1q-.246,0-.246.27v.54a.111.111,0,0,1-.126.126q-.126,0-.126-.114v-.546a.446.446,0,0,1,.5-.51ZM154.53,57.22a4.209,4.209,0,0,1-.078.54q-.042.222-.087.426t-.1.4a3.161,3.161,0,0,1-.144.474c-.032.056-.068.084-.108.084a.1.1,0,0,1-.114-.114.708.708,0,0,1,.036-.168,7.926,7.926,0,0,0,.336-1.548c.016-.136.068-.2.156-.2C154.5,57.105,154.53,57.144,154.53,57.22Zm3.444.024a2.418,2.418,0,0,1-.168.564q-.084.228-.168.426t-.168.372a2.043,2.043,0,0,1-.24.408.166.166,0,0,1-.108.06.151.151,0,0,1-.09-.03.127.127,0,0,1-.036-.1.454.454,0,0,1,.09-.2,4.832,4.832,0,0,0,.612-1.416c.04-.144.092-.216.156-.216Q157.974,57.118,157.974,57.244Z" fill="#fff"/><path d="M162.222,55.888h1.938a.717.717,0,0,1,.429.1.336.336,0,0,1,.123.282,2.576,2.576,0,0,1-.1.57c-.061.256-.132.384-.216.384s-.12-.036-.12-.108a1.536,1.536,0,0,1,.09-.324,1.221,1.221,0,0,0,.1-.4.24.24,0,0,0-.068-.2.4.4,0,0,0-.237-.054h-4.326a.225.225,0,0,0-.183.063.32.32,0,0,0-.051.2v.72c0,.1-.044.144-.132.144s-.126-.044-.126-.132v-.756a1.3,1.3,0,0,1,.018-.237.275.275,0,0,1,.072-.147.311.311,0,0,1,.144-.078.928.928,0,0,1,.234-.024h2.136l-.054-.1a1.194,1.194,0,0,0-.078-.12.458.458,0,0,1-.09-.192.107.107,0,0,1,.048-.09.133.133,0,0,1,.1-.042c.032,0,.084.052.156.156A1.886,1.886,0,0,1,162.222,55.888Zm-.354,1.932h-1.794c-.084,0-.126-.038-.126-.114s.042-.12.126-.12h1.794v-.558H159.96c-.08,0-.12-.038-.12-.114s.042-.12.126-.12h1.9v-.432c0-.084.04-.126.12-.126a.111.111,0,0,1,.126.126v.432h1.854q.126,0,.126.12c0,.076-.042.114-.126.114h-1.854v.558h1.716q.126,0,.126.12c0,.076-.042.114-.126.114h-1.716v.588h2.3c.084,0,.126.04.126.12s-.042.114-.126.114h-2.3v.4a.111.111,0,0,1-.126.126c-.08,0-.12-.042-.12-.126v-.4h-2.34q-.126,0-.126-.114c0-.08.042-.12.126-.12h2.34Zm2.28,2.616a.5.5,0,0,1-.091.357.464.464,0,0,1-.323.087h-3.5a.432.432,0,0,1-.327-.093.555.555,0,0,1-.081-.351V59.7a.5.5,0,0,1,.09-.348.444.444,0,0,1,.318-.09h3.5c.18,0,.294.028.342.084a.589.589,0,0,1,.072.354Zm-.24-.012v-.714a.224.224,0,0,0-.048-.147.164.164,0,0,0-.133-.057h-3.492c-.116,0-.174.068-.174.2v.714a.226.226,0,0,0,.051.15.158.158,0,0,0,.123.06h3.492C163.848,60.634,163.908,60.563,163.908,60.423Z" fill="#fff"/><path d="M167.148,60.79c-.009.016-.019.038-.03.066a.147.147,0,0,1-.054.066.113.113,0,0,1-.1.006.4.4,0,0,1-.149-.114q-.252-.228-.48-.417a3.838,3.838,0,0,0-.456-.327.338.338,0,0,1-.129-.111.115.115,0,0,1-.012-.093.122.122,0,0,1,.054-.066.249.249,0,0,1,.063-.03,2.431,2.431,0,0,1,.7.45Q167.148,60.669,167.148,60.79Z" fill="#fff"/><path d="M173.91,56.812h-1.572c-.048.112-.1.22-.153.324s-.112.206-.177.306-.11.175-.149.237a1.557,1.557,0,0,1-.1.144.321.321,0,0,1-.072.069.109.109,0,0,1-.054.018.179.179,0,0,1-.1-.03.106.106,0,0,1-.042-.084.685.685,0,0,1,.132-.234,4.609,4.609,0,0,0,.75-1.662.619.619,0,0,1,.063-.183.136.136,0,0,1,.123-.051c.061,0,.091.032.091.1a1.884,1.884,0,0,1-.066.348,3,3,0,0,1-.138.426h1.464V55.474a.1.1,0,0,1,.042-.09.14.14,0,0,1,.093-.027.171.171,0,0,1,.093.033.1.1,0,0,1,.042.084v1.062h1.986a.165.165,0,0,1,.111.027.178.178,0,0,1,.026.117.141.141,0,0,1-.029.108.181.181,0,0,1-.108.024H174.18q-.018.786-.036,1.008a4.246,4.246,0,0,1-.071.486h2.489a.177.177,0,0,1,.108.024c.021.016.03.054.03.114a.144.144,0,0,1-.033.111.166.166,0,0,1-.105.027h-2.334a4.434,4.434,0,0,0,2.227,2.058c.152.06.228.124.228.192q0,.132-.155.132a2.122,2.122,0,0,1-.7-.318,4.31,4.31,0,0,1-1-.813,5.711,5.711,0,0,1-.843-1.209,3.1,3.1,0,0,1-.657,1.167,3.927,3.927,0,0,1-1.095.837,2.825,2.825,0,0,1-.774.348.122.122,0,0,1-.138-.138.128.128,0,0,1,.051-.1.781.781,0,0,1,.183-.1,3.512,3.512,0,0,0,2.185-2.058h-2.3a.16.16,0,0,1-.113-.03c-.017-.016-.024-.062-.024-.138s.046-.108.138-.108h2.389A6.512,6.512,0,0,0,173.91,56.812Z" fill="#fff"/><path d="M181.824,60.333q-.211-.306-.486-.642t-.618-.7a.087.087,0,0,1-.042-.069.174.174,0,0,1,.019-.078.189.189,0,0,1,.048-.066.13.13,0,0,1,.06-.033c.017,0,.059.03.126.09a4.692,4.692,0,0,1,.391.444q.144.174.288.36t.281.378c.093.132.175.252.249.36s.138.2.189.282a.958.958,0,0,1,.162.306.1.1,0,0,1-.055.1.2.2,0,0,1-.113.036c-.036,0-.078-.046-.126-.138s-.122-.222-.223-.39l-3.876.222c-.231.016-.348-.028-.348-.132a.425.425,0,0,1,.156-.252q.324-.324.756-.834t.978-1.218h-2.352q-.114,0-.114-.12c0-.08.038-.12.114-.12h2.586V56.775h-2.208c-.076,0-.114-.04-.114-.12s.038-.126.114-.126h2.208V55.468q0-.114.126-.114t.132.114V56.53h2.22q.114,0,.114.126c0,.08-.038.12-.114.12h-2.22V58.12h2.586c.076,0,.114.032.114.1s-.008.1-.024.117a.139.139,0,0,1-.09.021h-2.784q-.516.672-.95,1.188t-.8.894a.119.119,0,0,0-.042.075c0,.022.026.031.078.027Z" fill="#fff"/><path d="M183.906,58.852c-.009.18-.02.347-.033.5a3.768,3.768,0,0,1-.063.435,3.877,3.877,0,0,1-.2.744,2.084,2.084,0,0,1-.175.414.178.178,0,0,1-.1.063.108.108,0,0,1-.09-.021.135.135,0,0,1-.042-.1.268.268,0,0,1,.048-.156,4.22,4.22,0,0,0,.33-1,6.974,6.974,0,0,0,.1-1.272V56.41a.744.744,0,0,1,.066-.366.3.3,0,0,1,.246-.126,7.455,7.455,0,0,0,1.607-.342.636.636,0,0,1,.168-.036q.1,0,.1.12a.132.132,0,0,1-.066.1,4.585,4.585,0,0,1-.564.162c-.168.044-.337.082-.507.114s-.345.062-.524.09a.4.4,0,0,0-.231.081.3.3,0,0,0-.051.2v.606h1.326a.627.627,0,0,1,.4.078c.057.048.084.172.084.372v.942c0,.2-.027.324-.084.372a.691.691,0,0,1-.4.072Zm1.578-.432v-.978q0-.192-.223-.192h-1.35v1.356h1.338a.28.28,0,0,0,.183-.045A.178.178,0,0,0,185.484,58.419Zm.954-.8q0,.858-.036,1.362c-.013.168-.029.323-.052.465a3.587,3.587,0,0,1-.081.393,2.482,2.482,0,0,1-.27.666,2.205,2.205,0,0,1-.258.39c-.052.052-.092.078-.12.078a.153.153,0,0,1-.09-.036.1.1,0,0,1-.048-.081.4.4,0,0,1,.1-.171,2.571,2.571,0,0,0,.516-1.176,8.194,8.194,0,0,0,.072-.861q.023-.549.024-1.341v-.972a.788.788,0,0,1,.087-.432.375.375,0,0,1,.32-.132c.145,0,.291-.013.441-.027s.3-.033.459-.057a4.7,4.7,0,0,0,.693-.153,1.2,1.2,0,0,1,.278-.075c.08,0,.12.046.12.138,0,.04-.036.078-.107.114a3.862,3.862,0,0,1-.654.162c-.18.036-.362.065-.546.087s-.372.037-.564.045a.309.309,0,0,0-.225.084.406.406,0,0,0-.057.246V57.37h2.346q.114,0,.114.126t-.114.12h-.69v3.312c0,.08-.032.12-.1.12a.218.218,0,0,1-.126-.024.117.117,0,0,1-.03-.1V57.616Z" fill="#fff"/><path d="M191.112,58.209H190a.1.1,0,0,1-.114-.114q0-.12.114-.12h1.182a1.239,1.239,0,0,0,.048-.18c.017-.076.034-.166.055-.27s.06-.15.132-.15.114.044.114.132a4.653,4.653,0,0,1-.1.468h2.616q.114,0,.114.12a.1.1,0,0,1-.114.114h-2.688a4.531,4.531,0,0,1-.233.582h2.58a.45.45,0,0,1,.194.036.222.222,0,0,1,.105.093.191.191,0,0,1,.018.126.357.357,0,0,1-.054.135,1.565,1.565,0,0,1-.252.276,4.254,4.254,0,0,1-.432.351q-.24.171-.553.357.223.1.459.186t.5.15a4.388,4.388,0,0,0,.763.15,1.3,1.3,0,0,1,.312.042.1.1,0,0,1,.054.1c0,.084-.058.126-.174.126a4.016,4.016,0,0,1-.864-.15,5.351,5.351,0,0,1-.623-.189q-.319-.117-.66-.273a6.312,6.312,0,0,1-1.332.492,4.669,4.669,0,0,1-.948.168c-.116,0-.174-.042-.174-.126a.085.085,0,0,1,.054-.084.9.9,0,0,1,.222-.042,4.28,4.28,0,0,0,.462-.063,4.619,4.619,0,0,0,.5-.123,6.225,6.225,0,0,0,.967-.354,5.067,5.067,0,0,1-1.338-.96,4.032,4.032,0,0,1-.411.57,3.423,3.423,0,0,1-.5.468,2.229,2.229,0,0,1-.666.414.127.127,0,0,1-.091-.03.1.1,0,0,1-.029-.075.162.162,0,0,1,.033-.093.272.272,0,0,1,.1-.084A3.655,3.655,0,0,0,191.112,58.209Zm1.962-1.188q.192-.228.359-.471a4.581,4.581,0,0,0,.307-.513c.036-.056.072-.085.11-.087a.128.128,0,0,1,.1.033.158.158,0,0,1,.048.093.094.094,0,0,1-.033.093l-.222.312-.2.267c-.066.09-.137.181-.213.273h.84a.581.581,0,0,1,.4.126.415.415,0,0,1,.141.324,1.112,1.112,0,0,1-.018.195,1.676,1.676,0,0,1-.045.183,1.063,1.063,0,0,1-.061.15.359.359,0,0,1-.057.09.155.155,0,0,1-.09.048.1.1,0,0,1-.081-.021.114.114,0,0,1-.039-.081.219.219,0,0,1,.042-.132.814.814,0,0,0,.113-.378c0-.184-.1-.276-.306-.276h-4.29a.325.325,0,0,0-.2.045.2.2,0,0,0-.057.159v.594q0,.108-.126.108t-.12-.108v-.636a.383.383,0,0,1,.1-.312.585.585,0,0,1,.351-.078Zm1.062-1.548c.112,0,.168.036.168.108,0,.048-.036.086-.107.114s-.578.072-1.53.144q-.715.048-1.386.075t-1.309.027a.962.962,0,0,1-.264-.021.115.115,0,0,1,.006-.2.477.477,0,0,1,.156-.021h.2q.828,0,1.848-.054t1.575-.117Q194.041,55.474,194.136,55.474Zm-3.93.612a.136.136,0,0,1,.072.03.636.636,0,0,1,.054.069c.024.034.051.077.081.129l.1.168c.034.06.065.12.093.18a.783.783,0,0,1,.091.225.076.076,0,0,1-.055.069.2.2,0,0,1-.09.024c-.028,0-.058-.038-.09-.114a3.338,3.338,0,0,0-.342-.558.15.15,0,0,1-.021-.144A.109.109,0,0,1,190.206,56.085Zm2.268,3.96a4.694,4.694,0,0,0,.489-.285,4.093,4.093,0,0,0,.394-.3q.353-.3.354-.384c0-.04-.068-.06-.2-.06H191A4.54,4.54,0,0,0,192.474,60.045ZM191.862,56a.069.069,0,0,1,.045.018.287.287,0,0,1,.048.066,1.108,1.108,0,0,1,.063.144q.037.1.091.246a1.871,1.871,0,0,1,.1.378.1.1,0,0,1-.039.1.143.143,0,0,1-.075.024.123.123,0,0,1-.126-.114,3.754,3.754,0,0,0-.228-.648.074.074,0,0,1-.021-.063.159.159,0,0,1,.021-.069.177.177,0,0,1,.051-.054A.117.117,0,0,1,191.862,56Z" fill="#fff"/><path d="M196.932,59.817a2.465,2.465,0,0,0,1.969.768h1.865c.076,0,.114.046.114.138s-.038.138-.114.138H198.9a3.238,3.238,0,0,1-1.278-.222,2.521,2.521,0,0,1-.954-.744.259.259,0,0,0-.18-.114.278.278,0,0,0-.162.054,2.538,2.538,0,0,0-.273.282q-.2.228-.513.642a.216.216,0,0,1-.09.066.118.118,0,0,1-.078,0,.125.125,0,0,1-.057-.045.1.1,0,0,1-.021-.06.184.184,0,0,1,.024-.1.919.919,0,0,1,.081-.114c.046-.06.11-.142.194-.246s.156-.192.216-.264.11-.128.15-.168l.18-.186a.429.429,0,0,1,.33-.144.422.422,0,0,1,.282.1,8.231,8.231,0,0,0,1.7-.9,7.808,7.808,0,0,0,.633-.519,4.781,4.781,0,0,0,.531-.573,2.466,2.466,0,0,0,.485-.714c0-.064-.1-.1-.312-.1h-4.2a.073.073,0,0,1-.09-.024.167.167,0,0,1,0-.192.073.073,0,0,1,.09-.024h4.422q.289.012.363.159a.307.307,0,0,1-.027.315,5.106,5.106,0,0,1-.432.606,6.346,6.346,0,0,1-.792.864,5.819,5.819,0,0,1-.942.693A10.241,10.241,0,0,1,196.932,59.817Zm1.206-3.39c-.036,0-.08-.048-.132-.144a7.2,7.2,0,0,0-.432-.684q-.085-.12,0-.192a.324.324,0,0,1,.048-.03.079.079,0,0,1,.057,0,.2.2,0,0,1,.075.045.678.678,0,0,1,.1.12q.059.084.126.192t.144.246a1.1,1.1,0,0,1,.15.33.1.1,0,0,1-.055.087A.182.182,0,0,1,198.138,56.428Z" fill="#fff"/><path d="M204.054,57.292a5.62,5.62,0,0,1-1.974,3.186,2.439,2.439,0,0,1-.816.528.1.1,0,0,1-.087-.051.176.176,0,0,1-.033-.087c0-.06.057-.122.168-.186a5.122,5.122,0,0,0,1.9-1.986,5.615,5.615,0,0,0,.727-2.778l-.007-.264q0-.2.12-.2a.17.17,0,0,1,.126.042.253.253,0,0,1,.042.174q0,.186-.015.417c-.01.154-.025.323-.045.507a6.337,6.337,0,0,0,2.532,4.038c.12.08.18.138.18.174a.185.185,0,0,1-.036.111.1.1,0,0,1-.078.051q-.149,0-.768-.54a6.11,6.11,0,0,1-1.131-1.326A7.04,7.04,0,0,1,204.054,57.292Z" fill="#fff"/><path d="M209.148,60.79c-.009.016-.019.038-.03.066a.147.147,0,0,1-.054.066.113.113,0,0,1-.1.006.4.4,0,0,1-.149-.114q-.252-.228-.48-.417a3.838,3.838,0,0,0-.456-.327.338.338,0,0,1-.129-.111.115.115,0,0,1-.012-.093.122.122,0,0,1,.054-.066.249.249,0,0,1,.063-.03,2.431,2.431,0,0,1,.7.45Q209.148,60.669,209.148,60.79Z" fill="#fff"/><path d="M215.91,56.812h-1.572c-.048.112-.1.22-.153.324s-.112.206-.177.306-.11.175-.149.237a1.557,1.557,0,0,1-.1.144.321.321,0,0,1-.072.069.109.109,0,0,1-.054.018.179.179,0,0,1-.1-.03.106.106,0,0,1-.042-.084.685.685,0,0,1,.132-.234,4.609,4.609,0,0,0,.75-1.662.619.619,0,0,1,.063-.183.136.136,0,0,1,.123-.051c.061,0,.091.032.091.1a1.884,1.884,0,0,1-.066.348,3,3,0,0,1-.138.426h1.464V55.474a.1.1,0,0,1,.042-.09.14.14,0,0,1,.093-.027.171.171,0,0,1,.093.033.1.1,0,0,1,.042.084v1.062h1.986a.165.165,0,0,1,.111.027.178.178,0,0,1,.026.117.141.141,0,0,1-.029.108.181.181,0,0,1-.108.024H216.18q-.018.786-.036,1.008a4.246,4.246,0,0,1-.071.486h2.489a.177.177,0,0,1,.108.024c.021.016.03.054.03.114a.144.144,0,0,1-.033.111.166.166,0,0,1-.105.027h-2.334a4.434,4.434,0,0,0,2.227,2.058c.152.06.228.124.228.192q0,.132-.155.132a2.122,2.122,0,0,1-.7-.318,4.31,4.31,0,0,1-1-.813,5.711,5.711,0,0,1-.843-1.209,3.1,3.1,0,0,1-.657,1.167,3.927,3.927,0,0,1-1.095.837,2.825,2.825,0,0,1-.774.348.122.122,0,0,1-.138-.138.128.128,0,0,1,.051-.1.781.781,0,0,1,.183-.1,3.512,3.512,0,0,0,2.185-2.058h-2.3a.16.16,0,0,1-.113-.03c-.017-.016-.024-.062-.024-.138s.046-.108.138-.108h2.389A6.512,6.512,0,0,0,215.91,56.812Z" fill="#fff"/><path d="M221.142,60.64V55.552c0-.068.04-.1.12-.1s.126.034.126.1V60.64h1.272V55.587c0-.068.04-.1.12-.1s.126.034.126.1V60.64h1.824c.071,0,.107.038.107.114s-.036.114-.107.114h-5.454q-.1,0-.1-.114c0-.076.032-.114.1-.114Zm-1.4-4.278a.1.1,0,0,1,.071.03.183.183,0,0,1,.055.09,3.6,3.6,0,0,1,.126.474c.036.14.07.285.1.435s.067.309.1.477.063.344.1.528.062.384.09.6c.061.42.09.676.09.768,0,.116-.029.174-.09.174a.116.116,0,0,1-.117-.06.82.82,0,0,1-.045-.2q-.114-.912-.252-1.665t-.312-1.365a.711.711,0,0,1-.042-.192C219.612,56.394,219.654,56.361,219.738,56.361Zm4.668.156a8.111,8.111,0,0,1-.162.978q-.157.8-.342,1.422-.091.312-.153.51c-.042.132-.073.226-.093.282-.044.116-.1.174-.156.174a.11.11,0,0,1-.108-.072.26.26,0,0,1,.019-.192,14.416,14.416,0,0,0,.744-2.994.866.866,0,0,1,.048-.222.081.081,0,0,1,.078-.048C224.364,56.355,224.406,56.41,224.406,56.518Z" fill="#fff"/></svg>