<?xml version="1.0" encoding="UTF-8"?><svg id="frame" xmlns="http://www.w3.org/2000/svg" viewBox="0 0 655 493"><path d="M114.142,60.066c12.801,0,23.214,10.414,23.214,23.214,0,1.494-.145,2.995-.43,4.461-.114.586.04,1.193.42,1.654.38.461.946.728,1.543.728h.254c10.923,0,19.81,8.887,19.81,19.81s-8.887,19.81-19.81,19.81h-7.85c-.445,0-.877.148-1.228.421-4.105,3.193-9.029,4.881-14.241,4.881-4.935,0-9.648-1.529-13.629-4.422-.354-.257-.766-.382-1.175-.382-.573,0-1.14.245-1.534.715-5.049,6.023-12.446,9.478-20.294,9.478-8.081,0-15.616-3.623-20.674-9.941-.38-.474-.954-.75-1.561-.75h-6.113c-10.923,0-19.81-8.887-19.81-19.81s8.887-19.81,19.81-19.81h2.705c.864,0,1.631-.555,1.9-1.376,3.136-9.551,12.001-15.967,22.06-15.967,4.238,0,8.385,1.153,11.992,3.334.316.191.674.289,1.035.289.22,0,.442-.036.655-.11.562-.195,1.008-.629,1.217-1.185,3.385-8.996,12.119-15.04,21.733-15.04M114.142,58.066c-10.8,0-20.013,6.791-23.605,16.336-3.802-2.299-8.26-3.622-13.027-3.622-11.177,0-20.653,7.273-23.96,17.344h-2.705c-12.045,0-21.81,9.765-21.81,21.81h0c0,12.045,9.765,21.81,21.81,21.81h6.113c5.217,6.517,13.238,10.691,22.235,10.691,8.766,0,16.605-3.963,21.827-10.193,4.157,3.021,9.272,4.804,14.805,4.804,5.83,0,11.198-1.98,15.469-5.302h7.85c12.045,0,21.81-9.765,21.81-21.81h0c0-12.045-9.765-21.81-21.81-21.81h-.254c.305-1.567.466-3.186.466-4.843,0-13.926-11.289-25.214-25.214-25.214h0Z" fill="#87b26b"/><line x1="61.542" y1="149.694" x2="51.315" y2="165.814" fill="none" stroke="#87b26b" stroke-linecap="round" stroke-linejoin="round" stroke-width="2"/><line x1="77.48" y1="149.694" x2="67.253" y2="165.814" fill="none" stroke="#87b26b" stroke-linecap="round" stroke-linejoin="round" stroke-width="2"/><line x1="93.419" y1="149.694" x2="83.191" y2="165.814" fill="none" stroke="#87b26b" stroke-linecap="round" stroke-linejoin="round" stroke-width="2"/><line x1="109.357" y1="149.694" x2="99.13" y2="165.814" fill="none" stroke="#87b26b" stroke-linecap="round" stroke-linejoin="round" stroke-width="2"/><polyline points="134.35 140.527 120.395 169.11 143.249 171.521 112.561 219.898" fill="none" stroke="#87b26b" stroke-linecap="round" stroke-linejoin="round" stroke-width="2"/><rect x="200.906" y="84.565" width="215" height="51.667" rx="6" ry="6" fill="#87b26b"/><rect x="207.572" y="89.202" width="201.667" height="42.393" fill="none"/><path d="M220.706,99.134c-.019.48-.052.915-.101,1.307-.049.391-.104.702-.167.933-.079.293-.209.518-.386.673-.179.155-.378.233-.601.233-.195,0-.38-.06-.553-.181-.174-.12-.332-.291-.474-.513-.098-.169-.189-.362-.273-.58-.085-.218-.167-.48-.247-.787s-.155-.667-.227-1.08c-.071-.413-.138-.9-.2-1.46-.026-.24-.049-.471-.066-.693s-.033-.464-.047-.727c-.013-.262-.021-.556-.026-.88-.005-.325-.007-.705-.007-1.14v-1.84c0-.24-.033-.405-.1-.494-.066-.088-.202-.133-.407-.133h-5.733c-.204,0-.338.062-.399.187-.062.125-.094.302-.094.533v4.173c0,.373-.02.775-.06,1.207s-.106.869-.2,1.313-.216.884-.366,1.32c-.151.436-.338.84-.561,1.213-.204.346-.396.549-.573.606-.178.059-.369.025-.573-.1-.258-.15-.4-.326-.427-.526s.049-.456.227-.767c.338-.587.591-1.242.76-1.967.169-.724.254-1.491.254-2.3v-4.987c0-.48.102-.824.307-1.033.204-.209.547-.313,1.026-.313h7.04c.48,0,.833.104,1.061.313.227.209.34.553.34,1.033l-.054,2.667c0,.4.011.845.033,1.333s.052.982.087,1.48c.035.498.08.987.134,1.467.053.48.115.911.187,1.293.044.275.089.344.133.207.045-.138.066-.46.066-.967,0-.417.04-.704.12-.86.08-.155.249-.233.507-.233.16,0,.284.02.373.06s.156.102.2.187c.045.084.069.196.073.333.005.138.002.3-.006.487ZM215.893,100.24c-.249-.427-.514-.864-.794-1.313-.279-.449-.571-.9-.873-1.353-.747,1.031-1.502,1.92-2.267,2.667-.312.293-.582.442-.813.447-.231.004-.422-.109-.573-.34-.169-.24-.233-.449-.193-.626s.207-.396.5-.653c.347-.311.731-.722,1.153-1.233.422-.511.838-1.06,1.247-1.646-.32-.462-.627-.884-.92-1.267-.294-.382-.592-.773-.894-1.173-.214-.249-.343-.462-.387-.64-.045-.178.049-.364.28-.56.248-.205.479-.284.693-.24.213.044.435.227.666.546.267.374.521.725.76,1.053.24.329.48.663.721,1,.239-.382.453-.767.64-1.153s.342-.727.467-1.02c.231-.578.596-.751,1.094-.52.257.116.415.269.473.46.058.191.021.442-.113.753-.231.462-.478.934-.74,1.414-.262.48-.54.947-.833,1.4.4.569.773,1.116,1.12,1.64s.676,1.044.986,1.56c.151.249.218.486.2.713-.018.227-.195.442-.533.647-.205.098-.392.1-.56.007-.17-.094-.339-.283-.507-.567Z" fill="#fff"/><path d="M226.639,99.467c.106.205.117.378.033.52-.085.142-.265.289-.54.44-.24.125-.476.24-.707.347-.23.107-.478.211-.739.313-.263.102-.543.2-.84.293-.299.093-.634.188-1.007.287-.32.089-.559.075-.714-.04-.155-.116-.251-.253-.286-.414-.106-.444.129-.72.706-.827.463-.098.92-.227,1.374-.387.453-.16.866-.329,1.239-.506-.133-.044-.279-.129-.439-.253-.116-.08-.229-.153-.34-.22-.111-.066-.202-.122-.273-.167-.143-.071-.235-.146-.28-.227-.24.142-.474.273-.7.393-.227.12-.451.229-.673.327-.676.303-1.085.223-1.227-.24-.036-.107-.056-.198-.061-.273-.004-.075.016-.146.061-.213.044-.066.117-.133.22-.2.102-.067.247-.14.434-.22.515-.213,1.03-.458,1.546-.733h-1.466c-.24,0-.409-.055-.507-.167s-.146-.26-.146-.447c0-.222.049-.377.146-.467.098-.088.267-.133.507-.133h2.6v-.586h-2.24c-.24,0-.409-.051-.507-.153s-.146-.242-.146-.42c0-.196.045-.351.134-.467s.262-.173.52-.173h2.24v-.6h-.52c-.249-.009-.458-.031-.627-.066s-.307-.096-.413-.18c-.107-.084-.185-.202-.233-.354-.049-.151-.073-.347-.073-.586v-1.48c0-.489.102-.825.307-1.007.204-.182.56-.273,1.066-.273h6.986c.507,0,.873.091,1.101.273.227.182.34.518.34,1.007v1.48c0,.48-.116.798-.347.953-.231.156-.596.233-1.094.233h-.373v.6h2.213c.267,0,.449.056.547.167.098.111.146.265.146.46,0,.178-.051.32-.153.427-.102.107-.269.16-.5.16h-2.253v.586h2.587c.239,0,.408.049.506.147.099.098.147.258.147.48,0,.187-.049.331-.147.433-.098.103-.267.153-.506.153h-1.36c.231.116.462.222.693.32.231.098.458.195.68.293.178.08.312.167.4.26s.148.189.18.287.035.196.014.293c-.022.098-.056.191-.101.28l-.013.013c-.106.196-.238.3-.394.313s-.411-.06-.767-.22c-.223-.098-.446-.213-.674-.347-.227-.134-.464-.28-.713-.44-.062.071-.173.151-.333.24-.107.062-.2.113-.28.153s-.155.078-.227.113c-.071.036-.143.069-.214.1s-.155.064-.253.1c-.303.125-.524.155-.667.093-.142-.062-.253-.173-.333-.333-.098-.187-.111-.349-.04-.487.071-.138.24-.26.507-.366.169-.071.317-.131.446-.18s.242-.109.34-.18c-.062-.044-.126-.093-.193-.146-.066-.053-.135-.107-.206-.16h-4.214c-.098.08-.199.158-.307.233-.106.076-.213.149-.319.22.133.071.258.14.373.207.115.066.213.131.293.193.151.116.254.242.307.38.054.138.04.287-.04.447.178-.071.327-.087.447-.047s.233.163.34.367ZM224.146,91.507h6.826c-.009-.125-.047-.233-.113-.327s-.188-.14-.366-.14h-5.92c-.169,0-.282.02-.34.06-.059.04-.087.136-.087.287v.12ZM230.492,92.8c.195,0,.322-.038.38-.113s.091-.18.1-.313h-6.826c.009.125.044.227.106.307s.187.12.373.12h5.867ZM228.438,101.107c0,.355-.058.62-.173.793-.116.174-.285.3-.507.38-.151.054-.411.08-.78.08s-.78-.058-1.233-.173c-.293-.072-.478-.189-.553-.354-.076-.165-.078-.345-.007-.54.07-.213.178-.349.319-.407.143-.058.32-.06.534-.006.382.098.642.131.779.1s.207-.14.207-.327v-2.453c0-.258.051-.427.153-.507.102-.08.269-.12.5-.12.222,0,.404.044.547.133.142.089.213.253.213.493v2.907ZM225.985,94.454h3.28v-.6h-3.28v.6ZM225.985,96.253h3.28v-.586h-3.28v.586ZM232.879,101.76c-.116.178-.247.285-.394.32s-.385-.045-.714-.24c-.239-.143-.46-.267-.659-.374-.2-.106-.398-.205-.594-.293s-.4-.173-.613-.253c-.213-.08-.453-.165-.72-.253-.338-.116-.549-.245-.634-.387-.084-.143-.087-.32-.007-.533.071-.205.178-.325.32-.36.143-.035.373-.009.693.08.498.133.971.293,1.42.48.449.187.927.436,1.434.747.338.205.537.382.6.534.062.151.018.329-.133.533Z" fill="#fff"/><path d="M218.306,109.787c.249,0,.451.018.606.053.155.036.278.101.367.193.089.094.148.223.18.387.031.165.047.371.047.62v2.12c0,.231-.014.429-.04.594-.027.164-.08.295-.16.393-.08.099-.2.169-.36.214s-.373.066-.64.066h-3.573v.68h4.826c.178,0,.307.043.387.127.08.085.12.202.12.354,0,.338-.169.507-.507.507h-4.826v.826h5.32c.187,0,.319.047.399.141.08.093.12.215.12.366,0,.143-.04.26-.12.354s-.213.14-.399.14h-11.641c-.178,0-.307-.046-.387-.14s-.12-.211-.12-.354c0-.151.04-.273.12-.366.08-.094.209-.141.387-.141h5.294v-.826h-4.721c-.338,0-.507-.169-.507-.507,0-.151.04-.269.12-.354.08-.084.209-.127.387-.127h4.721v-.68h-3.44c-.231,0-.425-.016-.58-.047-.155-.03-.28-.091-.373-.18-.094-.089-.16-.218-.2-.387s-.06-.387-.06-.653v-2.12c0-.24.015-.442.046-.606s.092-.293.181-.387.211-.16.366-.2.362-.06.62-.06h3.44v-.707h-5.347c-.179,0-.305-.042-.381-.127-.075-.084-.113-.211-.113-.38,0-.15.038-.269.113-.353.076-.085.202-.127.381-.127h5.347v-.641c-.623.019-1.247.029-1.874.034-.626.004-1.26-.003-1.899-.021-.32-.018-.527-.064-.62-.14-.094-.075-.141-.198-.141-.367,0-.178.054-.307.16-.387s.315-.11.627-.093c.693.026,1.425.04,2.193.04s1.538-.018,2.307-.054c.769-.035,1.514-.087,2.233-.153s1.373-.148,1.96-.247c.329-.044.547-.037.653.021s.178.167.213.326c.036.179.009.323-.08.434-.089.111-.271.185-.546.22-.693.08-1.385.149-2.073.207-.689.058-1.385.104-2.087.14v.681h5.413c.178,0,.305.042.38.127.075.084.113.202.113.353,0,.169-.038.296-.113.38-.075.085-.202.127-.38.127h-5.413v.707h3.573ZM210.212,110.747c-.106,0-.159.075-.159.227v.64h3.653v-.866h-3.494ZM210.053,113.24c0,.071.015.127.046.167s.069.06.113.06h3.494v-.92h-3.653v.693ZM214.732,110.747v.866h3.773v-.64c0-.151-.059-.227-.174-.227h-3.6ZM218.332,113.467c.115,0,.174-.075.174-.227v-.693h-3.773v.92h3.6Z" fill="#fff"/><path d="M228.238,108.44h4.747c.231,0,.387.049.467.146s.12.227.12.387c0,.178-.04.315-.12.413s-.235.146-.467.146h-4.747c.463,1.663,1.107,3.096,1.934,4.301.827,1.204,1.769,2.211,2.827,3.02.311.231.5.425.566.58s.042.313-.073.474c-.125.168-.273.246-.447.233-.173-.014-.42-.145-.739-.394-.96-.827-1.829-1.778-2.607-2.854-.777-1.075-1.411-2.24-1.899-3.493-.223.676-.519,1.336-.887,1.979-.369.645-.785,1.254-1.247,1.827s-.96,1.096-1.493,1.566-1.075.871-1.627,1.2c-.293.178-.524.255-.693.233-.169-.022-.298-.122-.387-.3-.089-.187-.084-.347.014-.48.098-.133.275-.275.533-.427.738-.444,1.407-.958,2.007-1.54s1.12-1.2,1.56-1.854c.44-.653.794-1.328,1.061-2.026.267-.697.436-1.38.507-2.047h-4.813c-.223,0-.38-.049-.474-.146-.093-.098-.14-.235-.14-.413,0-.16.047-.289.14-.387.094-.098.251-.146.474-.146h4.854v-2.413c0-.223.044-.378.133-.467s.223-.134.4-.134c.187,0,.32.045.399.134.08.089.12.244.12.467v2.413Z" fill="#fff"/><path d="M246.531,116.867c0,.427-.08.729-.239.906-.16.178-.454.267-.881.267h-9.053c-.427,0-.72-.089-.88-.267s-.24-.479-.24-.906v-9.48c0-.427.08-.729.24-.906s.453-.267.88-.267h9.053c.427,0,.721.089.881.267.159.178.239.479.239.906v9.48ZM245.519,107.4c0-.125-.054-.187-.16-.187h-8.96c-.098,0-.146.066-.146.199v9.414c0,.142.049.213.146.213h8.96c.106,0,.16-.071.16-.213v-9.427ZM236.918,110.267c-.195,0-.329-.042-.399-.126-.071-.085-.107-.202-.107-.354s.036-.275.107-.374c.07-.098.204-.146.399-.146h3.467v-1.387c0-.204.051-.342.153-.413s.229-.106.38-.106.271.035.36.106.133.209.133.413v1.387h3.4c.187,0,.32.049.4.146.08.099.12.223.12.374s-.036.269-.107.354c-.071.084-.209.126-.413.126h-3.173c.328.4.638.773.927,1.12.288.347.566.687.833,1.021.267.333.524.666.773,1,.248.333.507.678.773,1.033.15.204.23.38.239.526s-.098.287-.319.42c-.276.125-.524.031-.747-.28-.462-.64-.918-1.269-1.366-1.886-.449-.618-.896-1.212-1.341-1.78v4.906c0,.204-.044.343-.133.413-.089.071-.209.107-.36.107s-.277-.036-.38-.107c-.103-.07-.153-.209-.153-.413v-4.8c-.427.649-.889,1.267-1.387,1.854s-1.04,1.133-1.626,1.64c-.347.312-.636.315-.867.014-.115-.134-.151-.267-.106-.4.044-.133.169-.288.373-.467.569-.533,1.115-1.11,1.64-1.733.524-.622,1.054-1.351,1.587-2.187h-3.08Z" fill="#fff"/><path d="M248.225,116.08c.24-.133.458-.255.653-.366s.378-.221.547-.327v-5.587h-1.066c-.365,0-.547-.159-.547-.479,0-.16.044-.287.133-.38.089-.094.227-.141.414-.141h1.066v-2.52c0-.373.169-.56.507-.56.319,0,.479.187.479.56v2.52h.733c.178,0,.312.036.4.107s.133.209.133.413c0,.32-.178.479-.533.479h-.733v4.907c.098-.071.193-.146.287-.227.093-.08.197-.169.313-.267.15-.125.293-.2.426-.227.134-.027.254.013.36.119.151.169.216.316.193.44-.022.125-.104.249-.247.373-.426.374-.877.723-1.353,1.047s-1.021.664-1.634,1.021c-.418.239-.698.208-.84-.094-.098-.187-.118-.345-.06-.474.058-.129.18-.242.366-.34ZM257.824,114.453v1.947c0,.142.005.255.014.34.009.084.031.151.066.2.036.049.082.082.141.1.058.018.14.031.246.04.151.018.284.024.4.021.115-.005.222-.012.32-.021.15-.009.272-.031.366-.066.094-.036.164-.092.213-.167s.083-.178.101-.307.026-.296.026-.5c0-.258.033-.446.101-.566.066-.12.188-.18.366-.18s.309.046.394.14c.084.094.127.291.127.594,0,.399-.021.727-.061.979s-.111.453-.213.6c-.103.147-.242.252-.42.313-.179.062-.409.111-.693.146-.179.019-.345.027-.5.027-.156,0-.354-.009-.594-.027-.312-.026-.562-.064-.753-.113-.191-.049-.338-.129-.44-.239-.103-.111-.169-.27-.2-.474-.031-.205-.047-.472-.047-.8v-1.987h-1.533c-.115.729-.393,1.407-.833,2.034-.44.626-1.109,1.18-2.007,1.659-.24.125-.431.181-.573.167s-.253-.108-.333-.286c-.071-.151-.078-.296-.021-.434s.225-.273.5-.407c.676-.338,1.185-.72,1.527-1.146.342-.427.575-.955.699-1.587h-.693c-.258,0-.462-.015-.613-.046s-.267-.087-.347-.167-.133-.195-.159-.347c-.027-.151-.04-.347-.04-.587v-1.88c0-.249.013-.448.04-.6.026-.151.082-.267.166-.347.085-.08.202-.131.354-.153s.351-.033.6-.033h5.227c.214,0,.394.011.54.033.147.022.263.073.347.153.085.08.145.195.181.347.035.151.053.351.053.6v1.88c0,.231-.018.423-.053.573-.036.151-.103.27-.2.354-.098.085-.229.143-.394.174-.164.031-.38.046-.646.046h-.747ZM253.958,108.76c-.045-.115-.089-.222-.134-.319-.044-.098-.089-.195-.133-.294-.125-.239-.129-.426-.014-.56h-1c-.364,0-.547-.16-.547-.48s.183-.479.547-.479h2.787c-.045-.134-.098-.258-.16-.373-.08-.151-.104-.296-.073-.434s.14-.247.326-.327c.134-.053.265-.062.394-.026.129.036.238.169.327.4.026.08.062.182.106.307.044.124.093.275.146.453h3.174c.382,0,.573.16.573.479s-.191.48-.573.48h-1.188c.071.125.067.289-.013.493-.045.125-.089.242-.134.354-.044.111-.089.22-.133.326h1.826c.195,0,.34.036.434.107.093.071.14.195.14.373s-.051.303-.153.373c-.102.071-.242.107-.42.107h-7.6c-.178,0-.318-.036-.42-.107-.103-.07-.153-.195-.153-.373s.046-.302.14-.373.237-.107.434-.107h1.493ZM258.892,111.347c0-.08-.059-.12-.174-.12h-5.213c-.106,0-.16.04-.16.12v.533h5.547v-.533ZM258.892,112.747h-5.547v.613c0,.106.054.16.16.16h5.213c.115,0,.174-.054.174-.16v-.613ZM254.531,107.707c.089.204.162.385.22.54s.122.326.193.513h2.28c.071-.159.134-.315.187-.466.054-.151.111-.315.174-.494.018-.044.035-.082.053-.113.018-.03.036-.064.054-.1h-3.227c.018.018.028.038.033.06.004.022.016.043.033.061Z" fill="#fff"/><path d="M271.357,113.787c0,.142-.035.262-.106.359-.071.099-.195.147-.373.147h-9.027c-.15,0-.271-.042-.359-.127s-.134-.202-.134-.354c0-.16.038-.286.113-.38s.202-.14.38-.14h9.027c.187,0,.313.044.38.133s.1.209.1.36ZM263.824,110.12c-.009.125.066.187.227.187h7.92c.187,0,.349.022.487.067.138.044.251.122.34.232.089.111.157.265.206.46.049.196.073.44.073.733.009,1.476-.077,2.653-.26,3.534-.182.88-.402,1.497-.66,1.853-.258.294-.584.524-.979.693s-.833.254-1.313.254c-.364,0-.749-.045-1.153-.134s-.82-.24-1.247-.453c-.239-.106-.391-.22-.453-.34s-.062-.256,0-.407c.062-.15.162-.244.3-.279.138-.036.322.004.554.12.338.159.671.288,1,.387.329.098.645.146.946.146.32,0,.613-.061.881-.181.267-.119.488-.282.666-.486.204-.24.378-.765.521-1.573.142-.809.204-1.827.187-3.054-.009-.23-.038-.389-.087-.473-.049-.085-.118-.127-.207-.127h-7.6c-.507,0-.873-.062-1.1-.187-.227-.125-.318-.369-.273-.733.098-.756.202-1.478.313-2.167.11-.688.215-1.38.312-2.073.036-.204.094-.34.174-.406.08-.067.204-.092.373-.073.223.018.354.071.394.159.04.09.051.228.033.414l-.16,1.04h8.867c.178,0,.302.04.373.12.071.079.106.204.106.373,0,.151-.035.273-.106.366-.071.094-.195.141-.373.141h-9.014l-.267,1.853v.014Z" fill="#fff"/><path d="M276.251,113.174c-.143.08-.282.16-.42.239-.139.08-.282.156-.434.228-.178.089-.327.133-.447.133-.119,0-.215-.071-.286-.213-.098-.195-.122-.362-.073-.5s.188-.261.42-.367c.213-.106.424-.222.633-.347.209-.124.411-.249.607-.373v-2.986h-1.08c-.4,0-.601-.169-.601-.507,0-.169.054-.294.16-.374.106-.079.254-.119.44-.119h1.08v-1.934c0-.187.042-.322.126-.407.085-.084.202-.126.354-.126.338,0,.507.178.507.533v1.934h.747c.178,0,.324.04.439.119.115.08.174.205.174.374s-.056.295-.167.38c-.111.084-.26.127-.446.127h-.747v2.267c.098-.08.188-.162.273-.247.084-.084.167-.167.246-.247.16-.168.312-.255.454-.26.142-.004.267.056.373.181.115.133.169.262.16.386-.009.125-.098.268-.267.427-.392.374-.805.721-1.24,1.04v4.36c0,.444-.082.76-.247.946-.164.188-.441.28-.833.28-.151,0-.329-.022-.533-.066-.205-.045-.427-.106-.667-.187-.151-.045-.253-.129-.307-.254-.053-.124-.044-.271.027-.439.124-.294.337-.387.64-.28.098.035.193.068.286.1.094.031.189.056.287.073.134.027.227.022.28-.013.053-.036.08-.125.08-.267v-3.613ZM278.344,116.907c.756-.374,1.343-.867,1.76-1.48.418-.613.689-1.391.813-2.333-.311.284-.636.544-.973.78-.338.235-.681.464-1.027.687-.204.124-.373.191-.507.199-.133.01-.248-.058-.346-.199-.099-.151-.12-.305-.067-.46.054-.156.223-.318.507-.487.169-.098.34-.204.514-.319.173-.116.359-.249.56-.4s.416-.327.646-.526c.231-.2.484-.434.761-.7v-5.573c0-.178.046-.315.14-.413.094-.099.216-.147.366-.147.151,0,.273.045.367.134.093.089.14.231.14.427v5.773c0,.746-.06,1.427-.18,2.04s-.312,1.166-.573,1.659c-.263.494-.601.932-1.014,1.313-.413.383-.909.721-1.486,1.014-.285.151-.503.207-.653.167-.151-.04-.258-.145-.32-.313-.053-.151-.04-.296.04-.434s.258-.273.533-.406ZM280.53,110.134c.143.488.019.769-.373.84-.302.054-.507-.134-.613-.561-.258-1.084-.56-1.995-.906-2.732-.196-.383-.134-.658.187-.827.311-.133.551-.009.72.373.115.267.213.507.293.721.08.213.158.429.233.646.076.218.149.449.221.693.07.244.15.526.239.847ZM283.877,109.16c.143-.133.275-.271.4-.413.124-.143.251-.294.38-.453.129-.16.26-.336.394-.527.133-.19.28-.401.439-.633.151-.205.289-.322.414-.354.124-.031.258.007.399.113.134.098.214.207.24.327.026.119-.049.3-.227.539-.205.285-.398.543-.58.773-.183.231-.366.454-.554.667-.187.213-.387.422-.6.627-.213.204-.449.422-.707.653v1.053c1.067.792,1.911,1.489,2.533,2.094.205.204.313.389.327.554.014.164-.029.309-.127.433-.106.107-.242.149-.406.127-.165-.022-.34-.145-.526-.366-.054-.062-.141-.151-.261-.268-.12-.115-.26-.244-.42-.386-.16-.143-.338-.296-.533-.461-.195-.164-.392-.326-.587-.486v3.146c0,.338.073.587.221.747.146.16.42.249.819.267.267.018.493.016.681-.007.187-.022.337-.078.453-.167.115-.089.2-.215.253-.38.054-.164.08-.389.08-.673,0-.231.035-.394.106-.486.071-.094.188-.149.347-.167.231-.018.381.033.447.153s.1.273.1.46c0,.427-.038.786-.113,1.08-.075.293-.206.531-.394.713-.187.183-.439.309-.76.38s-.725.098-1.213.08c-.355-.009-.663-.049-.92-.12-.259-.071-.47-.185-.634-.34s-.286-.364-.366-.626c-.08-.263-.12-.59-.12-.98v-9.8c0-.169.046-.302.14-.4.094-.098.216-.146.367-.146.15,0,.272.047.366.14.094.094.14.229.14.407v3.106Z" fill="#fff"/><path d="M290.104,110.533v-4.413c0-.195.051-.342.153-.439.103-.099.238-.147.407-.147.159,0,.279.054.359.16s.12.249.12.427v1.267h2.373c.178,0,.318.038.42.113.103.076.153.202.153.38,0,.329-.19.494-.573.494h-2.373v2.159h1.187c.409,0,.709.073.9.221.19.146.286.433.286.859v4.974c0,.418-.084.702-.253.854-.169.15-.48.227-.934.227h-2.8c-.4,0-.695-.076-.887-.227-.191-.151-.286-.436-.286-.854v-4.974c0-.417.095-.702.286-.854.191-.15.486-.227.887-.227h.573ZM292.504,111.693c0-.071-.016-.117-.047-.14s-.096-.033-.193-.033h-2.68c-.151,0-.227.058-.227.173v4.813c0,.106.075.16.227.16h2.68c.16,0,.24-.054.24-.16v-4.813ZM296.624,109.987c.044.453.088.857.133,1.213s.096.689.153,1c.058.312.12.606.187.887.067.28.145.566.233.86.631-.942,1.111-2.045,1.44-3.307.071-.24.15-.402.24-.487.088-.084.222-.113.399-.087.204.036.331.12.38.254.049.133.029.347-.06.64-.249.827-.542,1.576-.88,2.247s-.725,1.286-1.16,1.847c.106.258.233.528.38.813.146.284.282.524.406.72.151.222.298.326.44.313.142-.014.262-.149.36-.407.062-.15.122-.355.18-.613s.108-.613.153-1.066c.026-.284.087-.471.18-.56.094-.089.238-.129.434-.12.187.009.309.071.366.187.059.115.074.32.047.613-.044.462-.113.88-.206,1.253-.094.374-.207.725-.341,1.054-.106.267-.26.462-.46.587-.199.124-.411.187-.633.187-.24,0-.482-.076-.727-.227-.245-.151-.465-.378-.66-.681-.115-.187-.227-.382-.333-.586-.107-.205-.209-.414-.307-.627-.721.729-1.552,1.373-2.494,1.934-.258.15-.462.22-.613.206-.151-.013-.262-.096-.333-.246-.08-.169-.085-.318-.014-.447s.235-.269.494-.42c1.04-.604,1.901-1.288,2.586-2.053-.222-.711-.411-1.444-.566-2.2s-.282-1.604-.38-2.547l-1.547.2c-.178.018-.326-.005-.446-.066-.12-.062-.189-.188-.207-.374-.018-.195.018-.328.106-.399s.223-.12.4-.146l1.613-.214c-.035-.453-.064-.927-.087-1.42s-.042-1.024-.06-1.594c0-.178.033-.317.1-.42.066-.102.185-.162.354-.18.187-.018.329.016.427.1.098.085.146.247.146.487-.009.479-.005.965.014,1.453.018.489.044.969.08,1.44l3.133-.414c.347-.035.547.103.601.414.044.328-.12.52-.494.573l-3.159.427ZM299.33,107.48c.134.178.195.326.187.446s-.089.242-.239.367c-.258.187-.503.115-.733-.214-.178-.258-.352-.493-.521-.706-.169-.214-.373-.445-.613-.693-.106-.107-.169-.221-.187-.341-.018-.119.031-.242.146-.366.098-.106.216-.162.354-.167.138-.004.265.064.38.207.231.258.438.495.62.713.182.218.385.47.606.754Z" fill="#fff"/><path d="M213.032,123.983v4.22c0,.193-.019.365-.055.516-.037.149-.104.278-.2.385s-.227.188-.39.245c-.164.057-.369.085-.615.085-.141.007-.287-.004-.44-.03s-.3-.06-.439-.1c-.141-.04-.267-.084-.38-.13-.114-.047-.194-.09-.24-.13-.054-.04-.082-.091-.085-.15-.004-.06.01-.111.04-.155.029-.043.073-.071.13-.085s.121.004.195.05c.479.193.876.29,1.189.29.16,0,.293-.012.4-.034.106-.023.191-.065.255-.125.063-.061.108-.144.135-.25.026-.107.04-.247.04-.421v-4.18h-4.3c-.127,0-.19-.07-.19-.21,0-.146.063-.22.19-.22h8.63c.127,0,.189.073.189.22,0,.14-.062.21-.189.21h-3.87ZM210.473,124.854c0,.113-.131.474-.391,1.08-.127.307-.262.602-.404.885-.144.283-.292.559-.445.825-.307.514-.514.823-.62.93-.094.101-.169.15-.225.15-.058,0-.108-.021-.155-.061-.047-.026-.07-.066-.07-.119,0-.04.07-.16.21-.36.2-.287.38-.559.54-.815.16-.256.297-.501.41-.734s.225-.481.335-.745.215-.545.315-.845c.086-.247.187-.37.3-.37.133,0,.2.06.2.18ZM215.952,121.054c.127,0,.19.07.19.21,0,.134-.063.2-.19.2h-6.72c-.127,0-.19-.066-.19-.2,0-.14.063-.21.19-.21h6.72ZM216.902,128.554c0,.066-.023.115-.07.145-.047.03-.104.045-.17.045-.06,0-.115-.031-.165-.095s-.128-.222-.234-.475c-.301-.681-.565-1.259-.796-1.735-.229-.477-.432-.865-.604-1.165-.08-.14-.118-.245-.115-.314.004-.07.025-.12.065-.15s.088-.042.145-.035.096.021.115.04c.033.033.073.087.12.16.026.033.07.11.13.229.06.12.144.284.25.49.207.4.446.891.72,1.47.141.287.252.519.335.695.084.177.142.302.176.375.066.141.1.247.1.32Z" fill="#fff"/><path d="M218.922,123.693c-.066.16-.135.32-.205.48-.069.16-.145.319-.225.479-.153.313-.25.497-.29.55-.04.054-.083.08-.13.08-.08,0-.142-.031-.185-.095-.044-.063-.019-.191.074-.385.827-1.58,1.344-3.021,1.551-4.32.02-.16.09-.24.21-.24.126,0,.189.054.189.16,0,.094-.066.391-.2.891-.066.246-.132.481-.194.705-.063.223-.129.432-.195.625v6.829c.02.067.007.117-.04.15s-.1.05-.16.05c-.06,0-.113-.017-.16-.05-.046-.033-.06-.083-.04-.15v-5.76ZM221.303,121.174h-.91c-.12,0-.181-.063-.181-.19,0-.133.061-.2.181-.2h3.85c.146,0,.22.067.22.2,0,.127-.073.19-.22.19h-2.57c-.013.239-.028.479-.045.72s-.038.477-.064.71h1.859c.101,0,.19.012.271.035s.148.064.205.125c.057.06.1.144.13.25s.045.247.045.42c0,1.153-.203,2.16-.61,3.02-.413.874-.956,1.594-1.63,2.16-.673.566-1.12.851-1.34.851-.127,0-.189-.061-.189-.181,0-.086.106-.196.319-.33.96-.579,1.684-1.272,2.17-2.079-.513-.78-1.093-1.49-1.739-2.131-.147.367-.37.744-.671,1.131-.3.38-.51.569-.63.569-.033,0-.066-.017-.1-.05-.021-.033-.03-.078-.03-.135s.07-.165.21-.325c.267-.313.483-.605.65-.875.166-.271.303-.573.41-.91.106-.337.189-.738.25-1.205.06-.467.113-1.057.16-1.77ZM221.202,124.344c.34.326.66.667.96,1.02.3.354.583.73.851,1.13.439-.866.659-1.869.659-3.01,0-.2-.028-.33-.085-.39-.057-.061-.178-.09-.364-.09h-1.71c-.08.533-.184.979-.311,1.34ZM226.912,128.613c0,.187-.07.384-.21.59-.127.207-.39.311-.79.311-.293,0-.613-.044-.96-.13-.36-.08-.58-.144-.66-.19-.087-.047-.13-.1-.13-.16,0-.106.037-.177.11-.21s.177-.033.31,0c.594.174,1.007.261,1.24.261.253,0,.43-.046.53-.136.1-.09.149-.248.149-.475v-8.08c0-.12.066-.18.2-.18.14,0,.21.06.21.18v8.22ZM225.332,127.594c.021.066.007.116-.04.149-.047.034-.1.051-.16.051-.06,0-.113-.017-.159-.051-.047-.033-.061-.083-.04-.149v-6.34c0-.067.011-.113.034-.141.023-.026.079-.04.165-.04.087,0,.142.014.165.04.023.027.035.073.035.141v6.34Z" fill="#fff"/><path d="M229.902,122.993c.12,0,.225.044.314.131.091.086.136.189.136.31,0,.113-.045.215-.136.305-.09.09-.194.136-.314.136-.113,0-.215-.046-.305-.136-.091-.09-.136-.191-.136-.305,0-.12.045-.224.136-.31.09-.087.191-.131.305-.131ZM229.902,126.743c.12,0,.225.044.314.131.091.086.136.189.136.31,0,.113-.045.215-.136.305-.09.09-.194.136-.314.136-.113,0-.215-.046-.305-.136-.091-.09-.136-.191-.136-.305,0-.12.045-.224.136-.31.09-.087.191-.131.305-.131Z" fill="#fff"/><path d="M241.962,121.354c.227-.366.363-.693.41-.979.026-.147.09-.221.19-.221.173,0,.26.07.26.21,0,.087-.03.224-.09.41-.061.187-.144.38-.25.58h3.28c.232,0,.399.052.5.155.1.104.149.281.149.535v6.439c0,.26-.05.441-.149.545-.101.104-.268.155-.5.155h-6.32c-.233,0-.398-.052-.495-.155s-.145-.285-.145-.545v-6.439c0-.261.048-.44.145-.54.097-.101.262-.15.495-.15h2.52ZM245.942,123.754v-1.61c0-.24-.106-.36-.32-.36h-6.069c-.207,0-.311.12-.311.36v1.61h6.7ZM239.242,126.294h6.7v-2.11h-6.7v2.11ZM245.942,126.724h-6.7v1.65c0,.106.03.194.09.265.061.07.134.104.221.104h6.069c.214,0,.32-.123.32-.369v-1.65Z" fill="#fff"/><path d="M248.832,123.464c-.366.486-.604.729-.71.729-.026-.007-.057-.019-.09-.035s-.059-.043-.075-.08c-.017-.036-.017-.081,0-.135.017-.053.065-.12.146-.2.826-.886,1.38-1.963,1.66-3.229.053-.233.14-.351.26-.351.126,0,.189.054.189.16,0,.107-.012.2-.034.28-.023.08-.035.123-.035.13h1.97c.213,0,.385.063.515.19.13.126.195.297.195.51,0,.327-.13.844-.39,1.55-.247.7-.65,1.367-1.21,2-.561.62-1.167,1.104-1.82,1.45-.667.354-1.066.53-1.2.53s-.2-.08-.2-.24c0-.054.021-.097.061-.13s.123-.077.25-.13c.933-.394,1.696-.87,2.29-1.431-.607-.62-1.197-1.143-1.771-1.569ZM249.782,126.993c0,.101-.08.344-.24.73-.08.193-.166.387-.26.58s-.196.383-.31.57c-.107.187-.193.331-.261.435-.066.104-.113.168-.14.195-.054.046-.105.069-.155.069s-.09-.015-.12-.045c-.029-.029-.046-.073-.05-.13-.003-.057.016-.118.056-.185.239-.347.453-.709.64-1.085.187-.377.347-.769.479-1.176.027-.086.08-.13.16-.13.134,0,.2.057.2.17ZM249.643,122.084c-.188.393-.391.753-.61,1.079.64.48,1.253,1.014,1.84,1.601.174-.187.333-.382.48-.585.146-.203.283-.418.41-.646-.44-.34-.837-.628-1.19-.864-.354-.237-.663-.432-.93-.585ZM250.022,121.124c-.087.267-.164.473-.23.619.627.36,1.34.841,2.141,1.44.133-.293.246-.613.34-.96.086-.326.13-.561.13-.7,0-.267-.163-.399-.49-.399h-1.89ZM251.303,126.884c.073,0,.126.047.159.14.027.094.067.424.12.99.026.286.047.528.061.725.013.197.02.352.02.465,0,.221-.083.33-.25.33-.113,0-.17-.116-.17-.35,0-.493-.02-.907-.06-1.24l-.101-.859c0-.134.073-.2.221-.2ZM254.562,123.384c-.141.547-.362,1.052-.665,1.515-.304.464-.695.879-1.175,1.245-.474.36-.794.54-.96.54-.16,0-.24-.073-.24-.22,0-.08.083-.164.25-.25,1.34-.693,2.17-1.777,2.49-3.25h-1.44c-.127,0-.19-.061-.19-.181,0-.126.063-.189.19-.189h1.51c.014-.101.025-.327.035-.681.01-.353.015-.836.015-1.449,0-.127.067-.19.2-.19.127,0,.19.073.19.22.007.04.01.125.01.256v.534c0,.221-.007.44-.02.66-.014.22-.034.437-.061.65h2.22c.16,0,.24.063.24.189,0,.12-.08.181-.24.181h-2.13c.38,1.413,1.144,2.563,2.29,3.449.153.12.23.217.23.29,0,.074-.012.136-.035.186s-.062.075-.115.075c-.187,0-.594-.36-1.22-1.08-.634-.733-1.094-1.566-1.38-2.5ZM253.412,126.854c.026,0,.054.007.08.021.026.013.055.045.085.095s.065.12.105.21.09.208.149.354c.134.301.26.624.38.971.12.359.181.608.181.745,0,.136-.067.204-.2.204-.094,0-.174-.109-.24-.329-.094-.341-.193-.659-.3-.955-.106-.297-.224-.582-.35-.855-.067-.133-.101-.233-.101-.3,0-.106.07-.16.21-.16ZM256.842,122.073c0,.034-.013.065-.039.096-.027.029-.061.052-.101.064-.04.014-.083.014-.13,0-.047-.013-.094-.047-.14-.1-.107-.141-.297-.334-.57-.58-.24-.24-.427-.41-.56-.51-.087-.067-.141-.125-.16-.176-.021-.05-.023-.093-.011-.13.014-.036.039-.064.075-.085.037-.02.072-.029.105-.029.053,0,.097.013.13.039.026.014.16.131.399.351.113.106.221.205.32.295.101.09.193.179.28.265.173.167.283.282.33.346.046.063.069.114.069.154ZM255.502,126.693c.047,0,.097.027.15.08.06.047.165.179.314.396.15.217.302.465.455.744.073.134.146.267.221.4.073.134.143.264.21.39.133.254.2.41.2.471,0,.066-.027.116-.08.149-.054.033-.101.051-.141.051-.093,0-.189-.117-.29-.351-.326-.773-.693-1.416-1.1-1.93-.054-.073-.085-.135-.095-.186-.011-.05-.009-.091.005-.125.013-.033.033-.057.06-.069.026-.014.057-.021.09-.021Z" fill="#fff"/><path d="M262.502,125.613c-.273.773-.696,1.464-1.27,2.07-.287.307-.584.576-.891.81s-.623.437-.949.61c-.647.347-1.047.521-1.2.521-.073,0-.124-.032-.15-.096s-.04-.118-.04-.165c0-.1.104-.184.311-.25,1.033-.399,1.887-.95,2.56-1.649.674-.721,1.101-1.447,1.28-2.181.187-.739.28-1.636.28-2.689,0-.214.057-.32.17-.32.12,0,.189.026.21.08.026.047.04.177.04.39s-.021.563-.061,1.051c-.033.486-.083.903-.149,1.25.406,1.02.968,1.875,1.685,2.564.717.69,1.562,1.195,2.535,1.516.206.066.31.152.31.26,0,.146-.076.22-.229.22-.247,0-.693-.184-1.34-.55-.66-.367-1.262-.845-1.806-1.436-.543-.59-.975-1.258-1.295-2.005ZM262.553,121.174c-.101-.287-.221-.533-.36-.74-.033-.054-.04-.122-.021-.205.021-.083.084-.125.19-.125.047,0,.092.015.135.045.044.03.089.085.135.165.047.08.097.188.15.325s.116.314.19.535h3c.3,0,.5.02.6.06.1.033.179.078.235.135s.111.125.165.205c.06.08.09.209.09.386s-.04.408-.12.694c-.04.141-.073.252-.101.335-.026.084-.053.146-.079.186-.027.04-.054.064-.08.075-.027.01-.057.015-.091.015-.113,0-.17-.054-.17-.16,0-.047.037-.196.11-.45.08-.246.12-.453.12-.62,0-.173-.047-.295-.14-.364-.094-.07-.273-.105-.54-.105h-6.841c-.273,0-.409.15-.409.45v.899c0,.141-.07.211-.21.211-.141,0-.21-.063-.21-.19v-.91c0-.566.276-.85.829-.85h3.421ZM260.122,123.264c0,.127-.043.427-.13.899-.047.247-.095.484-.145.711-.051.227-.105.446-.165.659-.107.42-.188.684-.24.79-.054.094-.113.141-.18.141-.127,0-.19-.063-.19-.19,0-.053.02-.146.06-.28.254-.753.44-1.613.561-2.58.026-.227.113-.34.26-.34.113,0,.17.063.17.19ZM265.862,123.304c0,.127-.094.439-.28.939-.093.254-.187.49-.279.71-.094.221-.188.427-.28.62-.187.374-.32.601-.4.681-.066.066-.127.1-.18.1-.054,0-.104-.017-.15-.05-.04-.04-.06-.094-.06-.16s.05-.177.149-.33c.447-.687.787-1.474,1.021-2.36.066-.239.153-.359.26-.359.134,0,.2.069.2.21Z" fill="#fff"/><path d="M272.942,121.044h3.229c.341,0,.579.053.716.159.136.107.204.264.204.471,0,.213-.053.529-.159.95-.101.426-.221.64-.36.64-.134,0-.2-.061-.2-.18,0-.067.05-.247.15-.54.106-.28.16-.504.16-.67,0-.16-.039-.271-.115-.33-.077-.061-.209-.091-.396-.091h-7.21c-.146,0-.248.035-.305.105s-.085.182-.085.335v1.2c0,.16-.073.24-.22.24-.141,0-.21-.073-.21-.221v-1.26c0-.16.01-.292.029-.395.021-.104.061-.186.12-.245.061-.061.141-.104.24-.13.1-.027.23-.04.39-.04h3.561c-.027-.047-.057-.101-.09-.16-.034-.061-.077-.127-.13-.2-.101-.153-.15-.26-.15-.32,0-.06.026-.109.08-.149.047-.047.1-.07.16-.07.053,0,.14.087.26.26.12.174.229.387.33.641ZM272.353,124.264h-2.99c-.14,0-.21-.063-.21-.19,0-.133.07-.199.21-.199h2.99v-.931h-3.181c-.133,0-.199-.063-.199-.189,0-.134.069-.2.21-.2h3.17v-.72c0-.141.066-.21.2-.21.14,0,.21.069.21.21v.72h3.09c.14,0,.21.066.21.2,0,.126-.07.189-.21.189h-3.09v.931h2.859c.141,0,.21.066.21.199,0,.127-.069.19-.21.19h-2.859v.979h3.829c.141,0,.211.067.211.2,0,.127-.07.19-.211.19h-3.829v.66c0,.14-.07.21-.21.21-.134,0-.2-.07-.2-.21v-.66h-3.9c-.14,0-.21-.063-.21-.19,0-.133.07-.2.21-.2h3.9v-.979ZM276.152,128.624c0,.3-.05.498-.15.595-.1.097-.279.145-.54.145h-5.84c-.273,0-.455-.052-.545-.154-.09-.104-.135-.299-.135-.585v-1.221c0-.286.05-.479.149-.58.101-.1.277-.149.53-.149h5.84c.301,0,.49.047.57.14.08.094.12.29.12.59v1.221ZM275.752,128.604v-1.19c0-.1-.026-.181-.08-.244-.053-.063-.126-.096-.22-.096h-5.82c-.193,0-.29.113-.29.34v1.19c0,.1.028.184.086.25.056.066.125.1.204.1h5.82c.2,0,.3-.116.3-.35Z" fill="#fff"/><path d="M281.152,129.214c-.014.026-.03.062-.05.109-.021.047-.05.084-.09.11s-.094.03-.16.01c-.067-.02-.15-.083-.25-.189-.28-.254-.547-.485-.8-.695-.254-.21-.507-.392-.761-.545-.113-.066-.185-.128-.215-.186-.03-.056-.036-.107-.02-.154s.046-.084.09-.11c.043-.026.078-.043.104-.05.127,0,.517.25,1.17.75s.98.816.98.95Z" fill="#fff"/><path d="M292.422,122.584h-2.619c-.08.187-.165.366-.256.54-.09.173-.188.343-.295.51-.1.16-.184.291-.25.395s-.123.184-.17.24-.087.095-.12.115c-.033.02-.063.029-.09.029-.054,0-.106-.016-.16-.05-.046-.04-.069-.086-.069-.14s.073-.184.22-.39c.587-.807,1.003-1.73,1.25-2.771.033-.146.068-.248.104-.305.037-.057.105-.085.205-.085.101,0,.15.053.15.16,0,.093-.037.286-.11.579-.066.268-.144.504-.229.711h2.439v-1.771c0-.066.023-.116.07-.15.047-.033.099-.048.155-.045.057.004.108.022.155.056.046.033.069.08.069.14v1.771h3.311c.093,0,.154.015.185.045.03.029.045.095.045.194,0,.094-.017.153-.05.181-.033.026-.094.04-.18.04h-3.311c-.02.873-.04,1.433-.06,1.68-.021.24-.061.51-.12.81h4.149c.087,0,.147.014.181.04.033.027.05.09.05.19,0,.094-.019.155-.055.185-.037.03-.096.045-.176.045h-3.89c.967,1.7,2.203,2.844,3.71,3.431.254.1.38.206.38.319,0,.146-.087.221-.26.221-.167,0-.554-.177-1.16-.53-.6-.347-1.158-.799-1.675-1.355s-.985-1.228-1.405-2.015c-.233.747-.599,1.396-1.095,1.945-.497.55-1.105,1.015-1.825,1.395-.706.387-1.137.58-1.29.58s-.229-.076-.229-.229c0-.067.028-.124.085-.17.057-.047.158-.101.305-.16,1.88-.747,3.094-1.891,3.64-3.431h-3.84c-.093,0-.156-.017-.189-.05-.027-.026-.04-.104-.04-.229,0-.12.076-.181.229-.181h3.98c.12-.46.17-1.29.149-2.489Z" fill="#fff"/><path d="M305.612,128.453c-.233-.34-.504-.696-.81-1.069-.308-.373-.65-.764-1.03-1.17-.047-.033-.07-.072-.07-.115s.01-.087.03-.13c.02-.044.047-.08.08-.11s.066-.048.1-.055c.026,0,.097.05.21.149.113.101.33.347.65.74.16.193.319.394.479.601.16.206.316.416.471.63.153.22.291.42.415.6.123.18.228.337.314.47.18.273.271.443.271.511,0,.08-.03.133-.091.159-.06.04-.123.061-.189.061-.061,0-.13-.077-.21-.23s-.203-.369-.37-.649l-6.46.37c-.387.026-.58-.047-.58-.221,0-.106.087-.246.26-.42.36-.359.78-.823,1.26-1.39.48-.566,1.023-1.243,1.631-2.03h-3.92c-.127,0-.19-.066-.19-.2,0-.133.063-.199.19-.199h4.31v-2.23h-3.68c-.127,0-.19-.066-.19-.2,0-.14.063-.21.19-.21h3.68v-1.77c0-.127.07-.19.21-.19.146,0,.22.063.22.19v1.77h3.7c.127,0,.19.07.19.21,0,.134-.063.2-.19.2h-3.7v2.24h4.311c.126,0,.189.054.189.16s-.013.172-.04.194c-.026.023-.076.035-.149.035h-4.641c-.573.747-1.102,1.407-1.585,1.98s-.928,1.069-1.335,1.49c-.047.046-.069.088-.069.125,0,.036.043.051.13.045l6.01-.341Z" fill="#fff"/><path d="M309.082,125.983c-.014.3-.031.578-.055.835s-.059.499-.105.726c-.08.453-.193.866-.34,1.239-.133.38-.229.61-.29.69-.053.06-.109.095-.17.104-.06.011-.109,0-.149-.034-.04-.034-.063-.087-.07-.16s.02-.16.08-.26c.253-.534.437-1.087.55-1.66.106-.554.16-1.261.16-2.12v-3.431c0-.286.036-.489.11-.609.073-.12.21-.19.409-.21.894-.087,1.787-.276,2.681-.57.126-.04.22-.06.279-.06.107,0,.16.066.16.199,0,.061-.036.117-.109.171-.074.04-.387.13-.94.27-.28.073-.562.137-.845.19-.283.053-.575.104-.875.149-.2.027-.329.072-.385.135-.058.063-.086.176-.086.335v1.011h2.211c.353,0,.573.043.659.13.094.08.141.286.141.62v1.569c0,.334-.047.54-.141.62-.093.08-.313.12-.659.12h-2.221ZM311.712,125.264v-1.63c0-.214-.123-.32-.37-.32h-2.25v2.26h2.23c.146,0,.248-.024.305-.074.057-.051.085-.129.085-.235ZM313.303,123.924c0,.953-.021,1.71-.061,2.27-.02.28-.049.539-.085.775-.037.236-.082.455-.135.655-.101.399-.25.77-.45,1.109-.193.34-.337.557-.43.65-.087.086-.153.13-.2.13s-.097-.021-.15-.061c-.053-.04-.08-.085-.08-.135s.054-.145.16-.285c.46-.6.747-1.253.86-1.96.053-.347.093-.824.12-1.435.026-.61.04-1.355.04-2.235v-1.62c0-.34.048-.58.145-.72s.275-.213.535-.22c.24-.007.485-.021.735-.045s.505-.056.765-.096c.526-.086.911-.171,1.155-.255.243-.083.398-.125.465-.125.133,0,.2.077.2.23,0,.066-.061.13-.181.189-.12.061-.483.15-1.09.271-.3.06-.604.108-.91.145-.307.037-.62.062-.939.075-.187.014-.312.061-.375.141-.063.079-.095.216-.095.409v1.73h3.909c.127,0,.19.07.19.21,0,.134-.063.2-.19.2h-1.149v5.52c0,.134-.054.2-.16.2s-.177-.014-.21-.04-.05-.08-.05-.16v-5.52h-2.34Z" fill="#fff"/><path d="M321.092,124.913h-1.859c-.127,0-.19-.062-.19-.189,0-.134.063-.2.19-.2h1.97c.026-.073.054-.173.08-.3s.057-.276.09-.45c.026-.166.101-.25.22-.25.127,0,.19.073.19.22,0,.054-.057.313-.17.78h4.36c.126,0,.189.066.189.2,0,.127-.063.189-.189.189h-4.48c-.087.28-.217.604-.39.971h4.3c.133,0,.241.02.325.06.083.04.142.092.175.155s.043.134.03.21c-.014.077-.044.151-.091.225-.053.094-.193.247-.42.46-.213.2-.453.396-.72.585-.267.19-.573.389-.92.596.247.113.502.216.765.31.264.094.539.177.825.25.554.146.977.23,1.271.25.293.021.466.043.52.07.061.033.09.086.09.16,0,.14-.097.21-.29.21-.3,0-.779-.084-1.439-.25-.34-.08-.687-.186-1.04-.315s-.72-.281-1.101-.455c-.699.354-1.439.627-2.22.82-.753.187-1.28.28-1.58.28-.193,0-.29-.07-.29-.21,0-.067.03-.114.09-.141.061-.026.184-.05.37-.069.247-.021.504-.056.771-.105s.543-.118.83-.205c.573-.16,1.109-.356,1.609-.59-.986-.526-1.729-1.06-2.229-1.6-.207.347-.436.663-.686.949-.25.287-.528.547-.835.78-.613.46-.983.69-1.109.69-.067,0-.117-.017-.15-.051-.033-.033-.05-.074-.05-.125,0-.05.019-.102.055-.154.037-.054.096-.101.175-.141,1.447-.786,2.434-1.993,2.96-3.62ZM324.362,122.934c.213-.253.413-.515.6-.785.187-.27.356-.555.511-.854.06-.094.121-.142.185-.146.063-.003.116.015.16.055.043.04.07.092.08.155s-.009.115-.056.155l-.369.52c-.107.147-.216.295-.325.445-.11.15-.229.302-.355.455h1.4c.286,0,.508.07.665.21.156.14.234.32.234.54,0,.106-.01.215-.029.325-.021.109-.045.212-.075.305-.03.094-.063.177-.1.25-.037.073-.069.123-.096.15-.047.047-.097.073-.149.08-.054.006-.099-.006-.136-.035-.036-.03-.058-.075-.064-.135-.007-.061.017-.134.07-.221.126-.233.189-.443.189-.63,0-.307-.17-.46-.51-.46h-7.15c-.153,0-.262.025-.325.075-.062.05-.095.139-.095.265v.99c0,.12-.069.18-.21.18-.133,0-.2-.06-.2-.18v-1.06c0-.261.056-.434.165-.521.11-.087.306-.13.585-.13h5.4ZM326.132,120.354c.187,0,.28.06.28.18,0,.08-.06.144-.18.19-.113.04-.964.12-2.55.24-.794.053-1.563.095-2.311.125-.746.029-1.474.045-2.18.045-.233,0-.38-.012-.44-.035-.06-.023-.09-.078-.09-.165s.033-.142.101-.165c.066-.023.153-.035.26-.035h.34c.92,0,1.946-.03,3.08-.09,1.146-.066,2.021-.132,2.625-.195.604-.062.958-.095,1.064-.095ZM319.582,121.374c.033,0,.073.017.12.05.021.02.05.059.09.114.04.058.085.129.136.216.05.086.103.18.159.279.057.101.108.2.155.301.1.199.15.324.15.375,0,.05-.03.088-.09.114-.054.027-.104.04-.15.04s-.097-.063-.15-.189c-.133-.287-.323-.597-.569-.931-.054-.073-.065-.153-.035-.239.03-.087.092-.13.185-.13ZM323.362,127.974c.3-.153.571-.312.815-.475.243-.164.461-.329.654-.495.394-.334.59-.547.59-.641,0-.066-.113-.1-.34-.1h-4.17c.526.606,1.344,1.177,2.45,1.71ZM322.342,121.233c.027,0,.052.01.075.03.023.02.05.057.08.11.03.053.065.133.105.239.04.107.09.244.149.41.113.34.17.55.17.63s-.021.134-.064.16c-.044.026-.085.04-.125.04-.113,0-.184-.063-.21-.19-.08-.333-.207-.692-.38-1.079-.027-.027-.039-.062-.035-.105.003-.043.015-.081.035-.115.02-.033.048-.063.085-.09.036-.026.075-.04.114-.04Z" fill="#fff"/><path d="M330.792,127.594c.74.854,1.834,1.28,3.28,1.28h3.11c.126,0,.189.076.189.229s-.063.23-.189.23h-3.11c-.847,0-1.557-.124-2.13-.37-.573-.24-1.104-.653-1.59-1.24-.107-.127-.207-.19-.3-.19-.094,0-.184.03-.271.091-.08.06-.231.216-.455.47-.224.253-.509.609-.854,1.069-.054.061-.104.097-.15.11s-.09.012-.13-.005-.072-.042-.095-.075c-.023-.033-.035-.066-.035-.1,0-.061.013-.113.04-.16.013-.026.058-.09.135-.19.076-.1.185-.236.325-.409.14-.174.26-.32.359-.44.101-.12.184-.213.25-.28l.301-.31c.146-.16.33-.24.55-.24.18,0,.336.057.47.17,1.146-.467,2.09-.967,2.83-1.5.38-.28.731-.568,1.055-.865.323-.296.618-.614.886-.955.54-.666.81-1.062.81-1.189,0-.106-.174-.16-.52-.16h-7c-.067.021-.117.007-.15-.04s-.05-.1-.05-.16c0-.06.017-.113.05-.16.033-.046.083-.06.15-.04h7.369c.32.014.521.103.605.266.083.163.068.338-.045.524-.066.141-.307.478-.72,1.011-.414.54-.854,1.02-1.32,1.439-.46.42-.983.806-1.57,1.155s-1.28.695-2.08,1.035ZM332.803,121.943c-.061,0-.134-.08-.221-.24-.16-.3-.399-.68-.72-1.14-.094-.133-.094-.24,0-.32.026-.02.054-.036.08-.05.026-.013.059-.015.095-.005.037.01.078.035.125.075s.104.106.17.2c.066.093.137.199.21.319s.153.257.24.41c.167.294.25.477.25.55,0,.061-.03.108-.09.146-.061.036-.106.055-.14.055Z" fill="#fff"/><path d="M342.662,123.384c-.246,1.133-.673,2.16-1.28,3.08-.586.899-1.256,1.643-2.01,2.229-.733.587-1.187.88-1.359.88-.061,0-.108-.028-.146-.085s-.055-.104-.055-.145c0-.101.093-.204.279-.311,1.301-.753,2.357-1.856,3.171-3.31.806-1.446,1.21-2.99,1.21-4.63l-.011-.44c0-.22.067-.33.2-.33.094,0,.163.023.21.07s.07.144.07.29c0,.207-.009.438-.025.695s-.041.538-.075.845c.647,2.974,2.054,5.217,4.221,6.729.2.134.3.23.3.29,0,.067-.021.129-.06.186-.04.057-.084.085-.131.085-.166,0-.593-.3-1.279-.9-.7-.606-1.329-1.343-1.886-2.21-.557-.866-1.005-1.873-1.345-3.02Z" fill="#fff"/><path d="M351.152,129.214c-.014.026-.03.062-.05.109-.021.047-.05.084-.09.11s-.094.03-.16.01c-.067-.02-.15-.083-.25-.189-.28-.254-.547-.485-.8-.695-.254-.21-.507-.392-.761-.545-.113-.066-.185-.128-.215-.186-.03-.056-.036-.107-.02-.154s.046-.084.09-.11c.043-.026.078-.043.104-.05.127,0,.517.25,1.17.75s.98.816.98.95Z" fill="#fff"/><path d="M362.422,122.584h-2.619c-.08.187-.165.366-.256.54-.09.173-.188.343-.295.51-.1.16-.184.291-.25.395s-.123.184-.17.24-.087.095-.12.115c-.033.02-.063.029-.09.029-.054,0-.106-.016-.16-.05-.046-.04-.069-.086-.069-.14s.073-.184.22-.39c.587-.807,1.003-1.73,1.25-2.771.033-.146.068-.248.104-.305.037-.057.105-.085.205-.085.101,0,.15.053.15.16,0,.093-.037.286-.11.579-.066.268-.144.504-.229.711h2.439v-1.771c0-.066.023-.116.07-.15.047-.033.099-.048.155-.045.057.004.108.022.155.056.046.033.069.08.069.14v1.771h3.311c.093,0,.154.015.185.045.03.029.045.095.045.194,0,.094-.017.153-.05.181-.033.026-.094.04-.18.04h-3.311c-.02.873-.04,1.433-.06,1.68-.021.24-.061.51-.12.81h4.149c.087,0,.147.014.181.04.033.027.05.09.05.19,0,.094-.019.155-.055.185-.037.03-.096.045-.176.045h-3.89c.967,1.7,2.203,2.844,3.71,3.431.254.1.38.206.38.319,0,.146-.087.221-.26.221-.167,0-.554-.177-1.16-.53-.6-.347-1.158-.799-1.675-1.355s-.985-1.228-1.405-2.015c-.233.747-.599,1.396-1.095,1.945-.497.55-1.105,1.015-1.825,1.395-.706.387-1.137.58-1.29.58s-.229-.076-.229-.229c0-.067.028-.124.085-.17.057-.047.158-.101.305-.16,1.88-.747,3.094-1.891,3.64-3.431h-3.84c-.093,0-.156-.017-.189-.05-.027-.026-.04-.104-.04-.229,0-.12.076-.181.229-.181h3.98c.12-.46.17-1.29.149-2.489Z" fill="#fff"/><path d="M371.143,128.964v-8.48c0-.113.066-.17.199-.17.141,0,.211.057.211.17v8.48h2.119v-8.42c0-.113.067-.17.2-.17.141,0,.21.057.21.17v8.42h3.04c.12,0,.181.062.181.189s-.061.19-.181.19h-9.09c-.106,0-.16-.063-.16-.19s.054-.189.16-.189h3.11ZM368.803,121.834c.046,0,.086.017.119.05.04.033.07.083.091.149.033.061.103.324.21.79.06.233.118.476.175.726s.111.515.165.795c.053.28.106.573.16.88.053.307.103.64.149,1,.101.7.15,1.127.15,1.28,0,.193-.05.29-.15.29-.1,0-.165-.033-.194-.101-.03-.066-.056-.177-.075-.33-.127-1.013-.267-1.938-.42-2.774-.153-.837-.327-1.596-.521-2.275-.047-.146-.07-.253-.07-.32,0-.106.07-.159.211-.159ZM376.582,122.094c0,.187-.09.729-.27,1.63-.174.894-.363,1.684-.57,2.37-.1.347-.185.63-.255.85s-.122.377-.155.47c-.073.194-.16.29-.26.29-.087,0-.146-.04-.18-.119-.034-.08-.023-.187.029-.32.547-1.44.96-3.104,1.24-4.99.026-.193.054-.316.08-.37.026-.053.07-.08.13-.08.141,0,.21.09.21.271Z" fill="#fff"/></svg>