<?xml version="1.0" encoding="UTF-8"?><svg id="frame" xmlns="http://www.w3.org/2000/svg" viewBox="0 0 655 493"><rect x="200.906" y="84.565" width="215" height="51.667" rx="6" ry="6" fill="#87b26b"/><rect x="207.572" y="89.202" width="201.667" height="42.393" fill="none"/><path d="M209.065,98.615c.231.347.527.602.887.767.36.164.731.246,1.113.246.213,0,.431-.033.653-.1s.424-.167.607-.3c.182-.134.331-.298.447-.494.115-.195.173-.422.173-.68,0-.364-.116-.642-.347-.833-.231-.191-.518-.352-.86-.48s-.715-.253-1.12-.373c-.405-.12-.778-.287-1.12-.5-.342-.213-.629-.5-.86-.86-.231-.359-.347-.847-.347-1.46,0-.275.06-.568.18-.88.12-.311.309-.596.567-.854s.588-.473.993-.646c.404-.173.891-.26,1.46-.26.516,0,1.009.071,1.48.213.471.143.884.432,1.24.867l-1.04.946c-.16-.248-.387-.448-.68-.6s-.626-.227-1-.227c-.355,0-.651.047-.887.14-.235.094-.424.214-.566.36-.143.146-.242.305-.3.473-.058.169-.086.325-.086.467,0,.4.115.707.347.92.231.214.518.387.86.521.342.133.715.253,1.12.359.404.107.778.256,1.12.447.342.191.628.449.86.773.231.324.347.771.347,1.34,0,.453-.087.862-.26,1.227s-.406.671-.7.92-.64.44-1.04.573c-.4.134-.827.2-1.28.2-.604,0-1.178-.106-1.72-.32-.542-.213-.974-.542-1.293-.986l1.053-.906Z" fill="#fff"/><path d="M218.171,92.348h-3.04v-1.199h7.36v1.199h-3.04v8.24h-1.28v-8.24Z" fill="#fff"/><path d="M228.186,100.828c-.721,0-1.383-.127-1.987-.38-.604-.254-1.123-.603-1.553-1.047-.432-.444-.769-.969-1.014-1.573s-.367-1.258-.367-1.96.122-1.355.367-1.96.582-1.129,1.014-1.573c.431-.444.949-.794,1.553-1.047s1.267-.38,1.987-.38,1.381.127,1.986.38c.604.253,1.121.603,1.553,1.047s.77.969,1.014,1.573.367,1.258.367,1.96-.123,1.355-.367,1.96-.582,1.129-1.014,1.573-.949.793-1.553,1.047c-.605.253-1.268.38-1.986.38ZM228.186,99.628c.541,0,1.03-.1,1.466-.3s.81-.469,1.12-.807.551-.735.721-1.193c.168-.458.252-.944.252-1.46s-.084-1.002-.252-1.46c-.17-.458-.41-.855-.721-1.193s-.685-.606-1.12-.807-.925-.3-1.466-.3-1.031.1-1.467.3-.81.469-1.121.807-.551.735-.72,1.193c-.169.458-.253.944-.253,1.46s.084,1.002.253,1.46c.168.458.409.855.72,1.193s.685.606,1.121.807.924.3,1.467.3Z" fill="#fff"/><path d="M234.945,91.148h3.319c.604,0,1.103.082,1.493.246.391.165.7.374.927.627.228.253.385.538.474.854s.133.62.133.913c0,.303-.053.594-.16.873-.105.28-.26.533-.459.761-.2.227-.445.418-.734.573s-.611.251-.966.286l2.68,4.307h-1.601l-2.399-4.16h-1.427v4.16h-1.279v-9.439ZM236.225,95.309h1.68c.249,0,.496-.021.74-.061s.463-.113.654-.22c.19-.106.344-.26.459-.46s.174-.46.174-.78-.059-.58-.174-.78c-.115-.199-.269-.353-.459-.46-.191-.106-.41-.18-.654-.22s-.491-.06-.74-.06h-1.68v3.04Z" fill="#fff"/><path d="M242.998,91.148h1.906l3,7.146h.054l2.974-7.146h1.906v9.439h-1.279v-7.76h-.027l-3.187,7.76h-.854l-3.187-7.76h-.027v7.76h-1.279v-9.439Z" fill="#fff"/><path d="M209.812,115.708h4.4v.88h-5.36v-9.439h.96v8.56Z" fill="#fff"/><path d="M219.198,112.762v-.16c0-1.075-.533-1.613-1.6-1.613-.729,0-1.364.244-1.907.733l-.533-.627c.587-.604,1.467-.906,2.64-.906.302,0,.593.044.873.133.28.089.522.225.727.407.204.182.369.411.493.687s.187.604.187.986v2.787c0,.239.011.491.034.753.022.263.046.478.073.646h-.854c-.026-.15-.046-.315-.06-.493-.013-.178-.02-.351-.02-.52h-.026c-.258.418-.562.718-.914.899-.351.183-.78.273-1.287.273-.275,0-.542-.038-.8-.113-.258-.075-.487-.191-.687-.347-.2-.155-.36-.347-.48-.573-.12-.227-.18-.491-.18-.793,0-.507.131-.904.393-1.193s.591-.505.987-.647c.396-.142.818-.23,1.267-.267.449-.035.86-.053,1.233-.053h.44ZM218.745,113.481c-.223,0-.5.012-.833.033-.333.022-.653.076-.96.16-.307.085-.569.216-.787.394s-.327.422-.327.733c0,.204.042.38.126.526s.198.267.34.36c.142.093.3.159.473.199s.349.061.527.061c.32,0,.598-.054.833-.16s.434-.251.593-.434c.16-.182.278-.396.354-.64.075-.244.113-.505.113-.78v-.453h-.453Z" fill="#fff"/><path d="M222.211,112.295c0-.275-.006-.556-.02-.84-.013-.284-.024-.653-.033-1.107h.867v1.16h.027c.062-.168.151-.331.267-.486.115-.155.255-.296.42-.42.164-.124.355-.225.573-.3.218-.076.464-.113.74-.113.249,0,.466.026.653.08l-.173.866c-.116-.044-.285-.066-.507-.066-.338,0-.626.064-.867.193s-.44.293-.6.493c-.16.2-.278.416-.353.646-.076.231-.114.453-.114.667v3.52h-.88v-4.293Z" fill="#fff"/><path d="M226.785,117.842c.258.347.593.624,1.006.833.414.209.873.313,1.381.313.443,0,.822-.064,1.133-.193s.562-.305.754-.526c.19-.223.328-.482.412-.78.085-.298.127-.616.127-.953v-1.12h-.026c-.284.427-.632.729-1.04.906s-.84.267-1.293.267-.878-.08-1.273-.24c-.396-.159-.74-.38-1.033-.659-.293-.28-.525-.616-.693-1.007-.169-.392-.253-.813-.253-1.267s.08-.876.24-1.267c.16-.392.38-.733.66-1.027.279-.293.613-.521,1-.687.387-.164.811-.246,1.273-.246.187,0,.385.018.594.053.208.036.417.099.626.187.209.09.415.212.62.367s.396.354.573.593h.026v-1.04h.881v6.188c0,.337-.043.697-.127,1.08-.085.382-.249.732-.494,1.053-.244.32-.584.587-1.02.8-.436.214-1.004.32-1.707.32-.621,0-1.178-.103-1.666-.307-.489-.204-.934-.52-1.334-.946l.654-.693ZM226.945,113.388c0,.329.06.639.18.927.119.289.284.543.493.761.208.218.453.391.733.52.279.129.584.193.913.193.32,0,.624-.058.913-.173.289-.116.545-.278.768-.487.222-.209.393-.46.513-.753.12-.294.175-.622.167-.987,0-.328-.054-.638-.16-.926-.107-.289-.262-.543-.467-.761s-.453-.391-.746-.52c-.294-.129-.623-.193-.987-.193-.329,0-.634.064-.913.193-.28.129-.525.302-.733.52-.209.218-.374.472-.493.761-.12.288-.18.598-.18.926Z" fill="#fff"/><path d="M235.064,113.708c.027.312.102.604.227.88s.289.514.494.714c.203.2.439.357.706.473.267.116.556.174.866.174.472,0,.878-.108,1.221-.327.342-.218.602-.469.779-.753l.681.56c-.374.472-.784.81-1.233,1.014s-.932.307-1.447.307c-.462,0-.891-.082-1.286-.246-.396-.165-.735-.394-1.021-.688-.284-.293-.508-.64-.673-1.04-.165-.399-.247-.835-.247-1.307s.08-.906.24-1.307c.16-.399.383-.746.667-1.04.284-.293.618-.521,1-.687.382-.164.796-.246,1.239-.246.472,0,.895.084,1.268.253s.687.394.939.674c.254.279.447.608.58.986s.2.78.2,1.207v.399h-5.2ZM239.305,112.988c0-.596-.178-1.078-.533-1.447-.355-.368-.854-.553-1.494-.553-.284,0-.56.056-.826.167-.267.11-.5.26-.7.446s-.36.4-.479.64c-.12.24-.18.489-.18.747h4.213Z" fill="#fff"/><path d="M241.957,112.295c0-.275-.006-.556-.02-.84s-.024-.653-.033-1.107h.867v1.16h.026c.062-.168.151-.331.267-.486s.256-.296.42-.42.355-.225.573-.3c.218-.076.464-.113.74-.113.249,0,.466.026.653.08l-.174.866c-.115-.044-.284-.066-.506-.066-.338,0-.627.064-.867.193s-.439.293-.6.493-.278.416-.354.646c-.076.231-.113.453-.113.667v3.52h-.881v-4.293Z" fill="#fff"/><path d="M250.316,107.148h.961v4.093h5.146v-4.093h.96v9.439h-.96v-4.467h-5.146v4.467h-.961v-9.439Z" fill="#fff"/><path d="M263.623,112.762v-.16c0-1.075-.533-1.613-1.6-1.613-.729,0-1.364.244-1.906.733l-.533-.627c.586-.604,1.467-.906,2.64-.906.302,0,.593.044.873.133s.522.225.728.407c.203.182.368.411.492.687.125.275.188.604.188.986v2.787c0,.239.011.491.033.753.021.263.047.478.073.646h-.854c-.026-.15-.046-.315-.06-.493s-.021-.351-.021-.52h-.026c-.258.418-.562.718-.914.899-.351.183-.779.273-1.286.273-.275,0-.542-.038-.8-.113s-.486-.191-.688-.347c-.199-.155-.359-.347-.479-.573s-.18-.491-.18-.793c0-.507.131-.904.394-1.193.262-.289.591-.505.986-.647.396-.142.818-.23,1.267-.267.448-.035.86-.053,1.233-.053h.439ZM263.17,113.481c-.223,0-.5.012-.833.033-.333.022-.653.076-.96.16-.307.085-.568.216-.787.394-.217.178-.326.422-.326.733,0,.204.042.38.127.526.084.146.197.267.34.36.143.093.3.159.473.199.174.04.35.061.527.061.32,0,.598-.054.833-.16s.434-.251.593-.434c.16-.182.278-.396.354-.64.076-.244.113-.505.113-.78v-.453h-.453Z" fill="#fff"/><path d="M266.637,112.295c0-.275-.006-.556-.02-.84s-.025-.653-.033-1.107h.866v1.16h.026c.062-.168.151-.331.268-.486.115-.155.255-.296.42-.42.164-.124.355-.225.572-.3.219-.076.465-.113.74-.113.249,0,.467.026.654.08l-.174.866c-.115-.044-.285-.066-.507-.066-.338,0-.626.064-.866.193s-.44.293-.601.493c-.159.2-.278.416-.353.646-.076.231-.114.453-.114.667v3.52h-.88v-4.293Z" fill="#fff"/><path d="M276.957,116.588h-.881v-1.04h-.026c-.142.214-.312.396-.507.547s-.399.275-.613.373c-.213.099-.434.169-.66.214-.227.044-.441.066-.646.066-.488,0-.936-.082-1.34-.246-.404-.165-.754-.394-1.047-.688-.293-.293-.521-.64-.687-1.04-.165-.399-.247-.835-.247-1.307s.082-.906.247-1.307c.165-.399.394-.746.687-1.04.293-.293.643-.521,1.047-.687.404-.164.852-.246,1.34-.246.205,0,.42.021.646.066s.447.115.66.213c.214.099.418.223.613.374s.365.333.507.546h.026v-4.88h.881v10.08ZM271.264,113.468c0,.347.055.672.166.974.111.303.27.564.474.787.204.222.451.397.74.526.288.129.615.193.979.193.355,0,.688-.064.994-.193s.57-.305.793-.526c.223-.223.396-.484.52-.787.125-.302.188-.627.188-.974s-.062-.671-.188-.973c-.124-.303-.297-.564-.52-.787-.223-.222-.486-.397-.793-.526s-.639-.193-.994-.193c-.364,0-.691.064-.979.193-.289.129-.536.305-.74.526-.204.223-.362.484-.474.787-.111.302-.166.626-.166.973Z" fill="#fff"/><path d="M282.184,111.828c-.134-.258-.312-.462-.533-.613-.223-.151-.494-.227-.814-.227-.15,0-.305.018-.459.053-.156.036-.296.092-.42.167-.125.076-.225.171-.301.287-.075.115-.113.258-.113.427,0,.293.102.506.307.64.205.133.512.249.92.347l.894.213c.436.099.798.296,1.087.594s.434.669.434,1.113c0,.338-.069.629-.207.873-.139.245-.32.445-.547.601s-.486.269-.779.34c-.294.071-.592.106-.895.106-.479,0-.926-.091-1.34-.273-.413-.182-.766-.495-1.06-.939l.761-.521c.178.285.401.512.673.68.271.169.593.254.966.254.178,0,.355-.021.534-.061.178-.04.335-.102.474-.187.137-.084.248-.193.333-.326.084-.134.126-.289.126-.467,0-.312-.115-.535-.346-.674-.232-.138-.512-.246-.84-.326l-.854-.2c-.107-.026-.252-.071-.434-.133-.183-.062-.36-.156-.533-.28-.174-.124-.322-.287-.447-.486-.125-.2-.187-.447-.187-.74,0-.32.064-.601.193-.84.129-.24.302-.436.521-.587.217-.151.464-.265.74-.34.275-.076.56-.113.853-.113.436,0,.841.084,1.214.253s.662.458.866.867l-.786.52Z" fill="#fff"/><path d="M284.557,106.508h.879v4.84h.027c.098-.168.223-.324.373-.466.151-.143.32-.265.507-.367.187-.102.384-.182.593-.24.209-.058.416-.086.621-.086.799,0,1.391.211,1.773.633.381.423.572,1.024.572,1.807v3.96h-.879v-3.453c0-.693-.121-1.225-.36-1.594-.24-.368-.685-.553-1.333-.553-.045,0-.17.018-.374.053-.204.036-.42.134-.646.294s-.429.399-.606.72-.268.765-.268,1.333v3.2h-.879v-10.08Z" fill="#fff"/><path d="M293.25,107.948c0,.187-.067.34-.201.46-.133.12-.279.18-.439.18s-.307-.06-.439-.18c-.134-.12-.201-.273-.201-.46s.067-.34.201-.46c.133-.12.279-.18.439-.18s.307.06.439.18c.134.12.201.273.201.46ZM293.049,116.588h-.879v-6.24h.879v6.24Z" fill="#fff"/><path d="M295.169,110.348h.88v1.04h.027c.142-.213.311-.395.506-.546s.4-.275.613-.374c.214-.098.434-.168.66-.213s.442-.066.646-.066c.489,0,.936.082,1.34.246.404.165.754.394,1.047.687.293.294.522.641.688,1.04.164.4.246.836.246,1.307s-.082.907-.246,1.307c-.165.4-.395.747-.688,1.04-.293.294-.643.522-1.047.688-.404.164-.851.246-1.34.246-.204,0-.42-.022-.646-.066-.227-.045-.446-.115-.66-.214-.213-.098-.418-.222-.613-.373s-.364-.333-.506-.547h-.027v4.88h-.88v-10.08ZM300.862,113.468c0-.347-.056-.671-.167-.973-.111-.303-.269-.564-.473-.787-.205-.222-.451-.397-.74-.526s-.615-.193-.98-.193-.697.064-1,.193c-.302.129-.564.305-.786.526s-.396.484-.521.787c-.124.302-.187.626-.187.973s.062.672.187.974c.125.303.298.564.521.787s.484.397.786.526c.303.129.636.193,1,.193s.691-.064.98-.193.535-.305.74-.526c.204-.223.361-.484.473-.787.111-.302.167-.627.167-.974Z" fill="#fff"/><path d="M209.252,127.928h3.79v.66h-4.51v-7.08h4.39v.66h-3.67v2.41h3.43v.66h-3.43v2.689Z" fill="#fff"/><path d="M215.432,128.108c0,.14-.05.265-.15.375-.1.109-.23.165-.39.165s-.29-.056-.39-.165c-.1-.11-.15-.235-.15-.375,0-.141.05-.266.15-.375.1-.11.23-.165.39-.165s.29.055.39.165c.1.109.15.234.15.375Z" fill="#fff"/><path d="M217.361,129.528c.193.26.445.468.755.625.31.156.655.234,1.035.234.333,0,.616-.048.85-.145.233-.097.421-.229.565-.396.143-.166.247-.361.31-.585.063-.223.095-.461.095-.715v-.84h-.02c-.213.32-.473.547-.78.68-.307.134-.63.2-.97.2s-.658-.06-.955-.18c-.296-.12-.555-.285-.775-.495-.22-.21-.394-.462-.52-.755s-.19-.61-.19-.95.06-.656.18-.95c.12-.293.285-.55.495-.77.21-.22.46-.392.75-.516.29-.123.608-.185.955-.185.14,0,.289.014.445.04.156.026.313.073.47.14.157.067.312.159.465.275.153.116.296.265.43.445h.02v-.78h.66v4.64c0,.254-.032.523-.095.811-.063.286-.187.55-.37.79-.183.239-.438.439-.765.6s-.753.24-1.28.24c-.467,0-.883-.077-1.25-.23s-.7-.39-1-.71l.49-.52ZM217.481,126.188c0,.246.045.479.135.694.09.217.213.407.37.57.156.163.34.293.55.39s.438.146.685.146c.24,0,.468-.043.685-.13s.408-.209.575-.365c.167-.156.295-.345.385-.565.09-.22.132-.466.125-.739,0-.247-.04-.479-.12-.695s-.197-.406-.35-.57c-.154-.163-.34-.293-.56-.39-.22-.097-.467-.146-.74-.146-.247,0-.475.049-.685.146s-.394.227-.55.39c-.157.164-.28.354-.37.57s-.135.448-.135.695Z" fill="#fff"/><path d="M224.321,128.108c0,.14-.05.265-.15.375-.1.109-.23.165-.39.165s-.29-.056-.39-.165c-.1-.11-.15-.235-.15-.375,0-.141.05-.266.15-.375.1-.11.23-.165.39-.165s.29.055.39.165c.1.109.15.234.15.375Z" fill="#fff"/><path d="M226.48,129.988h-.66l.669-2.351h.811l-.82,2.351Z" fill="#fff"/><path d="M236.811,127.508h.02v-6h.721v7.08h-.9l-4.22-6.06h-.021v6.06h-.72v-7.08h.899l4.221,6Z" fill="#fff"/><path d="M242.23,125.718v-.12c0-.806-.4-1.21-1.2-1.21-.547,0-1.023.184-1.431.551l-.399-.471c.44-.453,1.101-.68,1.979-.68.227,0,.445.033.656.1.209.067.391.169.545.306.152.137.275.309.369.515.094.207.141.453.141.74v2.09c0,.18.008.368.024.565.017.196.035.358.056.484h-.641c-.02-.113-.035-.236-.045-.37-.01-.133-.016-.263-.016-.39h-.02c-.193.313-.422.538-.685.675-.264.137-.585.205-.966.205-.206,0-.406-.028-.6-.085s-.365-.144-.515-.26c-.149-.117-.271-.26-.36-.43-.09-.171-.135-.369-.135-.596,0-.38.098-.678.295-.895s.443-.379.74-.485.613-.173.949-.2c.338-.026.646-.04.926-.04h.33ZM241.891,126.258c-.167,0-.375.009-.625.025s-.49.057-.721.12c-.229.063-.426.161-.59.295-.163.134-.244.316-.244.55,0,.153.031.285.094.396.064.109.148.199.256.27.106.07.225.12.354.15.13.029.262.045.396.045.24,0,.447-.04.625-.12.176-.08.324-.188.445-.325.119-.137.207-.297.264-.479.057-.184.086-.379.086-.586v-.34h-.34Z" fill="#fff"/><path d="M246.84,124.508h-1.35v2.761c0,.173.017.314.05.425.033.109.08.194.14.255.061.06.132.102.215.125.084.023.176.035.275.035.113,0,.23-.017.35-.05.121-.034.23-.077.33-.131l.031.61c-.248.113-.544.17-.891.17-.127,0-.258-.017-.395-.05s-.262-.097-.375-.19c-.113-.093-.207-.22-.28-.38s-.11-.37-.11-.63v-2.95h-.99v-.6h.99v-1.32h.66v1.32h1.35v.6Z" fill="#fff"/><path d="M251.12,128.588c-.014-.126-.022-.251-.024-.375-.004-.123-.006-.248-.006-.375h-.02c-.074.127-.167.244-.28.351s-.24.198-.38.274c-.141.077-.289.137-.445.181-.156.043-.312.064-.465.064-.6,0-1.043-.158-1.33-.475s-.43-.769-.43-1.355v-2.97h.66v2.59c0,.26.02.49.06.69.04.199.108.368.205.505s.227.24.39.31c.164.07.369.105.615.105.033,0,.127-.014.28-.04s.315-.101.485-.221c.17-.119.32-.3.455-.539.133-.24.199-.574.199-1v-2.4h.66v3.65c0,.126.005.286.016.479.01.193.021.377.034.55h-.68Z" fill="#fff"/><path d="M253.37,125.368c0-.207-.005-.417-.015-.63-.01-.214-.02-.49-.025-.83h.65v.87h.02c.047-.127.113-.248.2-.365.087-.116.191-.222.315-.315.123-.093.266-.168.43-.225.163-.057.348-.085.555-.085.187,0,.35.021.49.06l-.131.65c-.086-.033-.213-.05-.379-.05-.254,0-.471.048-.65.145s-.33.221-.45.37c-.12.15-.208.312-.265.485-.057.173-.085.34-.085.5v2.64h-.66v-3.22Z" fill="#fff"/><path d="M259.62,125.718v-.12c0-.806-.4-1.21-1.2-1.21-.547,0-1.023.184-1.43.551l-.4-.471c.439-.453,1.1-.68,1.98-.68.227,0,.445.033.654.1.211.067.393.169.545.306.154.137.277.309.371.515.093.207.139.453.139.74v2.09c0,.18.009.368.025.565.017.196.035.358.055.484h-.64c-.021-.113-.034-.236-.045-.37-.01-.133-.015-.263-.015-.39h-.02c-.194.313-.422.538-.686.675s-.585.205-.965.205c-.207,0-.407-.028-.6-.085-.194-.057-.365-.144-.516-.26-.15-.117-.27-.26-.359-.43-.091-.171-.136-.369-.136-.596,0-.38.099-.678.295-.895s.443-.379.74-.485c.296-.106.613-.173.95-.2.336-.026.645-.04.925-.04h.33ZM259.279,126.258c-.166,0-.375.009-.625.025s-.489.057-.719.12c-.23.063-.428.161-.591.295s-.245.316-.245.55c0,.153.031.285.096.396.062.109.148.199.254.27.107.07.226.12.355.15.131.029.262.045.395.045.24,0,.449-.04.625-.12.178-.08.326-.188.445-.325.121-.137.209-.297.266-.479.057-.184.085-.379.085-.586v-.34h-.341Z" fill="#fff"/><path d="M262.619,128.588h-.659v-7.56h.659v7.56Z" fill="#fff"/><path d="M271.66,128.588h-.66v-.779h-.021c-.106.159-.233.296-.38.409-.146.114-.301.207-.46.28-.16.073-.325.127-.495.16s-.332.05-.484.05c-.367,0-.702-.062-1.006-.185-.303-.124-.564-.295-.785-.516s-.391-.479-.515-.779c-.124-.301-.185-.627-.185-.98s.061-.68.185-.979c.124-.301.295-.561.515-.78.221-.22.482-.392.785-.516.304-.123.639-.185,1.006-.185.152,0,.314.017.484.05s.335.087.495.16c.159.073.313.167.46.28s.273.25.38.41h.021v-3.66h.66v7.56ZM267.39,126.248c0,.26.042.504.125.73s.202.423.354.59c.154.166.339.298.555.395.217.097.463.146.736.146.266,0,.514-.049.744-.146s.429-.229.596-.395c.166-.167.296-.363.39-.59.093-.227.14-.471.14-.73s-.047-.503-.14-.729c-.094-.227-.224-.424-.39-.591-.167-.166-.365-.298-.596-.395s-.479-.146-.744-.146c-.273,0-.52.049-.736.146-.216.097-.4.229-.555.395-.152.167-.271.364-.354.591s-.125.47-.125.729Z" fill="#fff"/><path d="M274.06,122.108c0,.14-.05.255-.15.345-.1.09-.21.135-.329.135-.121,0-.23-.045-.33-.135-.101-.09-.15-.205-.15-.345,0-.141.05-.255.15-.346.1-.09.209-.135.33-.135.119,0,.229.045.329.135.101.091.15.205.15.346ZM273.909,128.588h-.659v-4.68h.659v4.68Z" fill="#fff"/><path d="M277.979,125.019c-.101-.193-.233-.347-.4-.46s-.37-.171-.61-.171c-.113,0-.229.014-.344.04-.117.027-.223.068-.316.125-.093.057-.168.129-.225.216-.057.086-.084.193-.084.319,0,.221.076.38.229.48.153.1.384.187.69.26l.67.16c.326.073.598.222.814.445.217.223.325.501.325.835,0,.253-.052.472-.155.654-.104.184-.24.334-.41.45-.17.117-.365.202-.585.255-.22.054-.443.08-.67.08-.36,0-.694-.068-1.005-.205s-.575-.371-.795-.705l.57-.39c.133.213.301.384.504.51.204.127.445.19.726.19.134,0,.267-.016.399-.045.134-.03.252-.077.355-.141s.188-.145.25-.245c.063-.1.096-.216.096-.35,0-.233-.088-.401-.26-.505-.174-.104-.385-.186-.631-.245l-.64-.15c-.08-.02-.188-.053-.325-.1s-.27-.116-.4-.21c-.129-.094-.241-.215-.334-.365-.094-.149-.141-.335-.141-.555,0-.24.049-.45.145-.63.098-.181.227-.327.391-.44.163-.113.348-.198.555-.255s.42-.085.641-.085c.326,0,.629.063.91.19.279.126.496.343.649.649l-.59.391Z" fill="#fff"/><path d="M282.76,125.718v-.12c0-.806-.4-1.21-1.201-1.21-.547,0-1.023.184-1.43.551l-.4-.471c.44-.453,1.101-.68,1.98-.68.227,0,.445.033.655.1.21.067.392.169.545.306s.276.309.37.515c.094.207.14.453.14.74v2.09c0,.18.009.368.024.565.018.196.035.358.056.484h-.64c-.021-.113-.035-.236-.045-.37-.01-.133-.016-.263-.016-.39h-.02c-.193.313-.422.538-.686.675s-.584.205-.965.205c-.207,0-.406-.028-.6-.085s-.365-.144-.516-.26c-.149-.117-.27-.26-.359-.43-.09-.171-.135-.369-.135-.596,0-.38.098-.678.295-.895.196-.217.443-.379.74-.485.296-.106.613-.173.949-.2.337-.026.645-.04.926-.04h.33ZM282.419,126.258c-.167,0-.375.009-.625.025s-.489.057-.72.12-.427.161-.59.295c-.164.134-.245.316-.245.55,0,.153.031.285.095.396.063.109.148.199.255.27s.226.12.354.15c.131.029.262.045.396.045.24,0,.448-.04.625-.12s.325-.188.445-.325.208-.297.265-.479c.057-.184.086-.379.086-.586v-.34h-.341Z" fill="#fff"/><path d="M287.43,125.019c-.101-.193-.234-.347-.4-.46-.167-.113-.37-.171-.61-.171-.113,0-.229.014-.345.04-.117.027-.223.068-.315.125s-.169.129-.225.216c-.058.086-.085.193-.085.319,0,.221.076.38.23.48.152.1.383.187.689.26l.67.16c.326.073.598.222.814.445.217.223.326.501.326.835,0,.253-.053.472-.156.654-.104.184-.239.334-.41.45-.17.117-.364.202-.584.255-.221.054-.443.08-.67.08-.36,0-.695-.068-1.006-.205-.31-.137-.574-.371-.795-.705l.57-.39c.133.213.302.384.505.51.204.127.445.19.726.19.133,0,.266-.016.399-.045.134-.03.252-.077.354-.141.104-.063.188-.145.25-.245.064-.1.096-.216.096-.35,0-.233-.087-.401-.26-.505-.174-.104-.384-.186-.631-.245l-.639-.15c-.08-.02-.189-.053-.326-.1s-.27-.116-.399-.21-.241-.215-.335-.365c-.094-.149-.141-.335-.141-.555,0-.24.049-.45.146-.63.097-.181.227-.327.39-.44.164-.113.349-.198.555-.255.207-.057.42-.085.641-.085.326,0,.63.063.91.19.279.126.496.343.65.649l-.59.391Z" fill="#fff"/><path d="M291.629,124.508h-1.35v2.761c0,.173.016.314.049.425.033.109.08.194.141.255.061.06.131.102.215.125s.176.035.275.035c.113,0,.23-.017.35-.05.12-.034.23-.077.33-.131l.03.61c-.247.113-.544.17-.89.17-.127,0-.259-.017-.396-.05s-.262-.097-.375-.19c-.113-.093-.206-.22-.28-.38-.073-.16-.109-.37-.109-.63v-2.95h-.99v-.6h.99v-1.32h.66v1.32h1.35v.6Z" fill="#fff"/><path d="M292.988,126.428c.021.233.076.454.17.66.094.207.217.385.371.535.152.15.329.269.529.355.2.086.416.13.65.13.354,0,.658-.082.914-.245.258-.163.452-.352.586-.565l.51.42c-.28.354-.588.607-.926.761-.336.153-.697.229-1.084.229-.348,0-.669-.062-.965-.185-.297-.124-.553-.295-.766-.516-.213-.22-.382-.479-.505-.779-.124-.301-.185-.627-.185-.98s.06-.68.18-.979c.119-.301.287-.561.5-.78s.463-.392.75-.516c.287-.123.596-.185.93-.185.354,0,.67.063.95.19.28.126.515.295.705.505s.335.456.435.739c.1.284.15.586.15.905v.3h-3.9ZM296.168,125.888c0-.446-.133-.808-.399-1.085-.267-.276-.64-.415-1.12-.415-.213,0-.42.042-.619.125-.201.084-.375.195-.525.335-.15.141-.271.301-.36.48s-.135.367-.135.56h3.159Z" fill="#fff"/><path d="M298.158,125.368c0-.207-.004-.417-.015-.63-.01-.214-.019-.49-.024-.83h.649v.87h.021c.047-.127.113-.248.199-.365.087-.116.191-.222.315-.315.123-.093.267-.168.431-.225.162-.057.348-.085.555-.085.186,0,.35.021.49.06l-.131.65c-.086-.033-.213-.05-.38-.05-.253,0-.47.048-.649.145-.181.097-.33.221-.451.37-.119.15-.207.312-.264.485-.057.173-.086.34-.086.5v2.64h-.66v-3.22Z" fill="#fff"/><path d="M303.889,125.019c-.1-.193-.233-.347-.4-.46-.166-.113-.369-.171-.609-.171-.113,0-.229.014-.346.04-.116.027-.222.068-.314.125-.094.057-.169.129-.225.216-.058.086-.086.193-.086.319,0,.221.076.38.23.48.153.1.383.187.689.26l.67.16c.327.073.599.222.815.445.217.223.325.501.325.835,0,.253-.052.472-.155.654-.104.184-.239.334-.41.45-.17.117-.364.202-.585.255-.22.054-.443.08-.67.08-.359,0-.695-.068-1.005-.205s-.575-.371-.795-.705l.569-.39c.134.213.303.384.506.51.203.127.445.19.725.19.133,0,.267-.016.4-.045.133-.03.252-.077.354-.141.104-.063.187-.145.25-.245.063-.1.095-.216.095-.35,0-.233-.086-.401-.26-.505s-.383-.186-.63-.245l-.64-.15c-.08-.02-.188-.053-.325-.1s-.271-.116-.399-.21c-.131-.094-.242-.215-.336-.365-.094-.149-.14-.335-.14-.555,0-.24.048-.45.146-.63.096-.181.227-.327.39-.44s.349-.198.555-.255.42-.085.64-.085c.327,0,.631.063.91.19.28.126.497.343.65.649l-.59.391Z" fill="#fff"/><path d="M306.258,129.988h-.66l.67-2.351h.811l-.82,2.351Z" fill="#fff"/><path d="M312.037,128.588h-.659v-7.56h.659v7.56Z" fill="#fff"/><path d="M318.357,126.248c0,.354-.062.68-.185.98-.124.3-.295.56-.515.779s-.482.392-.785.516c-.304.123-.639.185-1.006.185-.359,0-.691-.062-.994-.185-.304-.124-.565-.295-.785-.516-.221-.22-.393-.479-.516-.779-.123-.301-.185-.627-.185-.98s.062-.68.185-.979c.123-.301.295-.561.516-.78.22-.22.481-.392.785-.516.303-.123.635-.185.994-.185.367,0,.702.062,1.006.185.303.124.564.296.785.516.22.22.391.479.515.78.123.3.185.626.185.979ZM317.638,126.248c0-.26-.042-.503-.125-.729s-.202-.424-.354-.591c-.154-.166-.339-.298-.556-.395-.216-.097-.462-.146-.735-.146s-.518.049-.734.146-.4.229-.551.395c-.149.167-.266.364-.35.591-.083.227-.125.47-.125.729s.042.504.125.73c.084.227.2.423.35.59.15.166.334.298.551.395s.461.146.734.146.52-.049.735-.146c.217-.097.401-.229.556-.395.152-.167.271-.363.354-.59s.125-.471.125-.73Z" fill="#fff"/><path d="M322.037,125.019c-.1-.193-.232-.347-.4-.46-.166-.113-.369-.171-.609-.171-.113,0-.229.014-.345.04-.116.027-.222.068-.315.125s-.168.129-.225.216c-.057.086-.085.193-.085.319,0,.221.076.38.229.48.154.1.384.187.69.26l.67.16c.327.073.599.222.815.445.217.223.324.501.324.835,0,.253-.051.472-.154.654-.104.184-.24.334-.41.45-.17.117-.365.202-.586.255-.219.054-.443.08-.67.08-.359,0-.694-.068-1.004-.205-.311-.137-.576-.371-.795-.705l.569-.39c.134.213.302.384.505.51.203.127.445.19.725.19.134,0,.268-.016.4-.045.133-.03.252-.077.355-.141s.187-.145.25-.245c.062-.1.095-.216.095-.35,0-.233-.087-.401-.26-.505-.174-.104-.384-.186-.63-.245l-.641-.15c-.08-.02-.188-.053-.324-.1s-.271-.116-.4-.21-.242-.215-.335-.365c-.094-.149-.14-.335-.14-.555,0-.24.048-.45.145-.63.097-.181.227-.327.391-.44.162-.113.348-.198.555-.255.206-.057.42-.085.64-.085.327,0,.63.063.91.19.28.126.497.343.649.649l-.59.391Z" fill="#fff"/><path d="M326.297,125.019c-.1-.193-.232-.347-.4-.46-.166-.113-.369-.171-.609-.171-.113,0-.229.014-.345.04-.116.027-.222.068-.315.125s-.168.129-.225.216c-.057.086-.085.193-.085.319,0,.221.076.38.229.48.154.1.384.187.69.26l.67.16c.327.073.599.222.815.445.217.223.324.501.324.835,0,.253-.051.472-.154.654-.104.184-.24.334-.41.45-.17.117-.365.202-.586.255-.219.054-.443.08-.67.08-.359,0-.694-.068-1.004-.205-.311-.137-.576-.371-.795-.705l.569-.39c.134.213.302.384.505.51.203.127.445.19.725.19.134,0,.268-.016.4-.045.133-.03.252-.077.355-.141s.187-.145.25-.245c.062-.1.095-.216.095-.35,0-.233-.087-.401-.26-.505-.174-.104-.384-.186-.63-.245l-.641-.15c-.08-.02-.188-.053-.324-.1s-.271-.116-.4-.21-.242-.215-.335-.365c-.094-.149-.14-.335-.14-.555,0-.24.048-.45.145-.63.097-.181.227-.327.391-.44.162-.113.348-.198.555-.255.206-.057.42-.085.64-.085.327,0,.63.063.91.19.28.126.497.343.649.649l-.59.391Z" fill="#fff"/><path d="M335.587,126.248c0,.354-.062.68-.186.98-.123.3-.295.56-.515.779-.22.221-.481.392-.785.516-.303.123-.639.185-1.005.185-.36,0-.692-.062-.995-.185-.303-.124-.564-.295-.785-.516s-.392-.479-.515-.779c-.124-.301-.185-.627-.185-.98s.061-.68.185-.979c.123-.301.295-.561.515-.78.221-.22.482-.392.785-.516.303-.123.635-.185.995-.185.366,0,.702.062,1.005.185.304.124.565.296.785.516s.392.479.515.78c.124.3.186.626.186.979ZM334.867,126.248c0-.26-.042-.503-.125-.729-.084-.227-.202-.424-.355-.591-.153-.166-.338-.298-.555-.395s-.462-.146-.735-.146-.519.049-.735.146-.399.229-.55.395c-.149.167-.267.364-.35.591s-.125.47-.125.729.042.504.125.73.2.423.35.59c.15.166.333.298.55.395s.462.146.735.146.519-.049.735-.146.401-.229.555-.395c.153-.167.271-.363.355-.59.083-.227.125-.471.125-.73Z" fill="#fff"/><path d="M338.967,124.508h-1.11v4.08h-.66v-4.08h-.99v-.6h.99v-1.28c0-.62.144-1.062.43-1.325.287-.263.667-.395,1.141-.395.093,0,.188.007.285.02.097.014.191.03.284.051l-.119.6c-.08-.02-.164-.036-.25-.05-.087-.014-.174-.021-.261-.021-.18,0-.326.03-.439.09-.113.061-.2.146-.26.256-.061.109-.101.238-.12.385-.021.146-.03.304-.03.47v1.2h1.11v.6Z" fill="#fff"/><path d="M342.526,121.028h.66v3.66h.021c.106-.16.232-.297.38-.41.146-.113.3-.207.46-.28s.325-.127.495-.16.331-.05.484-.05c.367,0,.702.062,1.005.185.304.124.565.296.785.516.221.22.392.479.516.78.123.3.185.626.185.979s-.062.68-.185.98c-.124.3-.295.56-.516.779-.22.221-.481.392-.785.516-.303.123-.638.185-1.005.185-.153,0-.314-.017-.484-.05s-.335-.087-.495-.16-.313-.166-.46-.28c-.147-.113-.273-.25-.38-.409h-.021v.779h-.66v-7.56ZM346.797,126.248c0-.26-.042-.503-.125-.729-.084-.227-.202-.424-.355-.591-.153-.166-.338-.298-.555-.395s-.462-.146-.735-.146-.523.049-.75.146-.423.229-.59.395c-.167.167-.297.364-.39.591-.094.227-.141.47-.141.729s.047.504.141.73c.093.227.223.423.39.59.167.166.363.298.59.395s.477.146.75.146.519-.049.735-.146.401-.229.555-.395c.153-.167.271-.363.355-.59.083-.227.125-.471.125-.73Z" fill="#fff"/><path d="M349.097,126.428c.021.233.077.454.17.66.094.207.217.385.37.535s.33.269.53.355c.2.086.417.13.65.13.353,0,.658-.082.915-.245.256-.163.451-.352.585-.565l.51.42c-.28.354-.589.607-.925.761-.337.153-.699.229-1.085.229-.347,0-.669-.062-.966-.185-.296-.124-.552-.295-.765-.516-.213-.22-.382-.479-.505-.779-.123-.301-.185-.627-.185-.98s.06-.68.18-.979c.12-.301.286-.561.5-.78.213-.22.463-.392.75-.516.286-.123.597-.185.93-.185.354,0,.67.063.95.19.28.126.515.295.705.505.189.21.335.456.435.739.101.284.15.586.15.905v.3h-3.9ZM352.277,125.888c0-.446-.134-.808-.4-1.085-.267-.276-.64-.415-1.12-.415-.213,0-.42.042-.62.125-.2.084-.375.195-.524.335-.15.141-.271.301-.36.48s-.135.367-.135.56h3.16Z" fill="#fff"/><path d="M355.007,128.588h-.66v-7.56h.66v7.56Z" fill="#fff"/><path d="M361.327,126.248c0,.354-.062.68-.186.98-.123.3-.295.56-.515.779-.22.221-.481.392-.785.516-.304.123-.639.185-1.005.185-.36,0-.691-.062-.995-.185-.304-.124-.564-.295-.785-.516s-.392-.479-.515-.779c-.123-.301-.185-.627-.185-.98s.062-.68.185-.979c.123-.301.295-.561.515-.78.221-.22.481-.392.785-.516.304-.123.635-.185.995-.185.366,0,.701.062,1.005.185.304.124.565.296.785.516s.392.479.515.78c.124.3.186.626.186.979ZM360.607,126.248c0-.26-.042-.503-.125-.729-.084-.227-.202-.424-.355-.591-.153-.166-.339-.298-.555-.395-.217-.097-.462-.146-.735-.146s-.519.049-.735.146-.399.229-.55.395c-.149.167-.267.364-.35.591-.084.227-.125.47-.125.729s.041.504.125.73c.083.227.2.423.35.59.15.166.333.298.55.395s.462.146.735.146.519-.049.735-.146c.216-.097.401-.229.555-.395.153-.167.271-.363.355-.59.083-.227.125-.471.125-.73Z" fill="#fff"/><path d="M364.587,128.588h-.74l-1.9-4.68h.78l1.5,3.939h.021l1.489-3.939h.75l-1.899,4.68Z" fill="#fff"/><path d="M367.807,126.428c.021.233.077.454.17.66.094.207.217.385.37.535s.33.269.53.355c.2.086.417.13.65.13.353,0,.658-.082.915-.245.256-.163.451-.352.585-.565l.51.42c-.28.354-.589.607-.925.761-.337.153-.699.229-1.085.229-.347,0-.669-.062-.966-.185-.296-.124-.552-.295-.765-.516-.213-.22-.382-.479-.505-.779-.123-.301-.185-.627-.185-.98s.06-.68.18-.979c.12-.301.286-.561.5-.78.213-.22.463-.392.75-.516.286-.123.597-.185.93-.185.354,0,.67.063.95.19.28.126.515.295.705.505.189.21.335.456.435.739.101.284.15.586.15.905v.3h-3.9ZM370.987,125.888c0-.446-.134-.808-.4-1.085-.267-.276-.64-.415-1.12-.415-.213,0-.42.042-.62.125-.2.084-.375.195-.524.335-.15.141-.271.301-.36.48s-.135.367-.135.56h3.16Z" fill="#fff"/><path d="M377.576,128.588h-.659v-.779h-.021c-.106.159-.233.296-.38.409-.146.114-.3.207-.46.28s-.325.127-.495.16-.332.05-.485.05c-.366,0-.701-.062-1.005-.185-.303-.124-.564-.295-.785-.516s-.392-.479-.515-.779c-.123-.301-.185-.627-.185-.98s.062-.68.185-.979c.123-.301.295-.561.515-.78.221-.22.482-.392.785-.516.304-.123.639-.185,1.005-.185.153,0,.315.017.485.05s.335.087.495.16.313.167.46.28.273.25.38.41h.021v-3.66h.659v7.56ZM373.307,126.248c0,.26.041.504.125.73.083.227.201.423.354.59.153.166.339.298.556.395.216.097.461.146.734.146.267,0,.516-.049.745-.146.23-.097.429-.229.596-.395.166-.167.296-.363.39-.59.093-.227.14-.471.14-.73s-.047-.503-.14-.729c-.094-.227-.224-.424-.39-.591-.167-.166-.365-.298-.596-.395-.229-.097-.479-.146-.745-.146-.273,0-.519.049-.734.146-.217.097-.402.229-.556.395-.153.167-.271.364-.354.591-.084.227-.125.47-.125.729Z" fill="#fff"/><path d="M386.527,126.248c0,.354-.062.68-.186.98-.123.3-.295.56-.515.779-.22.221-.481.392-.785.516-.304.123-.639.185-1.005.185-.36,0-.691-.062-.995-.185-.304-.124-.564-.295-.785-.516s-.392-.479-.515-.779c-.123-.301-.185-.627-.185-.98s.062-.68.185-.979c.123-.301.295-.561.515-.78.221-.22.481-.392.785-.516.304-.123.635-.185.995-.185.366,0,.701.062,1.005.185.304.124.565.296.785.516s.392.479.515.78c.124.3.186.626.186.979ZM385.808,126.248c0-.26-.042-.503-.125-.729-.084-.227-.202-.424-.355-.591-.153-.166-.339-.298-.555-.395-.217-.097-.462-.146-.735-.146s-.519.049-.735.146-.399.229-.55.395c-.149.167-.267.364-.35.591-.084.227-.125.47-.125.729s.041.504.125.73c.083.227.2.423.35.59.15.166.333.298.55.395s.462.146.735.146.519-.049.735-.146c.216-.097.401-.229.555-.395.153-.167.271-.363.355-.59.083-.227.125-.471.125-.73Z" fill="#fff"/><path d="M388.356,123.908c.014.127.021.252.025.375.003.123.005.248.005.375h.021c.073-.127.166-.243.279-.35.113-.107.24-.199.38-.275.141-.076.289-.137.445-.18.156-.044.312-.065.465-.065.601,0,1.044.158,1.33.475.287.317.431.769.431,1.355v2.97h-.66v-2.59c0-.52-.09-.918-.271-1.195-.18-.276-.514-.415-1-.415-.033,0-.127.014-.28.04-.153.027-.314.101-.484.221s-.322.3-.455.54c-.134.239-.2.573-.2,1v2.399h-.66v-3.649c0-.127-.005-.287-.015-.48s-.021-.376-.035-.55h.68Z" fill="#fff"/><path d="M393.746,126.428c.021.233.077.454.17.66.094.207.217.385.37.535s.33.269.53.355c.2.086.417.13.65.13.353,0,.658-.082.915-.245.256-.163.451-.352.585-.565l.51.42c-.28.354-.589.607-.925.761-.337.153-.699.229-1.085.229-.347,0-.669-.062-.966-.185-.296-.124-.552-.295-.765-.516-.213-.22-.382-.479-.505-.779-.123-.301-.185-.627-.185-.98s.06-.68.18-.979c.12-.301.286-.561.5-.78.213-.22.463-.392.75-.516.286-.123.597-.185.93-.185.354,0,.67.063.95.19.28.126.515.295.705.505.189.21.335.456.435.739.101.284.15.586.15.905v.3h-3.9ZM396.927,125.888c0-.446-.134-.808-.4-1.085-.267-.276-.64-.415-1.12-.415-.213,0-.42.042-.62.125-.2.084-.375.195-.524.335-.15.141-.271.301-.36.48s-.135.367-.135.56h3.16Z" fill="#fff"/><path d="M401.326,125.019c-.101-.193-.233-.347-.4-.46s-.37-.171-.609-.171c-.114,0-.229.014-.346.04-.116.027-.222.068-.314.125-.094.057-.169.129-.226.216-.057.086-.085.193-.085.319,0,.221.077.38.23.48.153.1.383.187.689.26l.67.16c.327.073.599.222.815.445.217.223.325.501.325.835,0,.253-.052.472-.155.654-.104.184-.24.334-.41.45-.17.117-.365.202-.585.255-.22.054-.443.08-.67.08-.36,0-.695-.068-1.005-.205s-.575-.371-.795-.705l.57-.39c.133.213.301.384.505.51.203.127.444.19.725.19.134,0,.267-.016.4-.045.133-.03.251-.077.354-.141s.187-.145.25-.245c.063-.1.096-.216.096-.35,0-.233-.087-.401-.261-.505-.173-.104-.383-.186-.63-.245l-.64-.15c-.08-.02-.188-.053-.325-.1s-.27-.116-.4-.21c-.13-.094-.241-.215-.335-.365-.093-.149-.14-.335-.14-.555,0-.24.048-.45.145-.63.097-.181.227-.327.391-.44.163-.113.348-.198.555-.255s.42-.085.641-.085c.326,0,.63.063.909.19.28.126.497.343.65.649l-.59.391Z" fill="#fff"/><path d="M404.315,128.108c0,.14-.05.265-.149.375-.101.109-.23.165-.391.165-.159,0-.29-.056-.39-.165-.1-.11-.15-.235-.15-.375,0-.141.051-.266.15-.375.1-.11.23-.165.39-.165.16,0,.29.055.391.165.1.109.149.234.149.375Z" fill="#fff"/><path d="M114.142,60.066c12.801,0,23.214,10.414,23.214,23.214,0,1.494-.145,2.995-.43,4.461-.114.586.04,1.193.42,1.654.38.461.946.728,1.543.728h.254c10.923,0,19.81,8.887,19.81,19.81s-8.887,19.81-19.81,19.81h-7.85c-.445,0-.877.148-1.228.421-4.105,3.193-9.029,4.881-14.241,4.881-4.935,0-9.648-1.529-13.629-4.422-.354-.257-.766-.382-1.175-.382-.573,0-1.14.245-1.534.715-5.049,6.023-12.446,9.478-20.294,9.478-8.081,0-15.616-3.623-20.674-9.941-.38-.474-.954-.75-1.561-.75h-6.113c-10.923,0-19.81-8.887-19.81-19.81s8.887-19.81,19.81-19.81h2.705c.864,0,1.631-.555,1.9-1.376,3.136-9.551,12.001-15.967,22.06-15.967,4.238,0,8.385,1.153,11.992,3.334.316.191.674.289,1.035.289.22,0,.442-.036.655-.11.562-.195,1.008-.629,1.217-1.185,3.385-8.996,12.119-15.04,21.733-15.04M114.142,58.066c-10.8,0-20.013,6.791-23.605,16.336-3.802-2.299-8.26-3.622-13.027-3.622-11.177,0-20.653,7.273-23.96,17.344h-2.705c-12.045,0-21.81,9.765-21.81,21.81h0c0,12.045,9.765,21.81,21.81,21.81h6.113c5.217,6.517,13.238,10.691,22.235,10.691,8.766,0,16.605-3.963,21.827-10.193,4.157,3.021,9.272,4.804,14.805,4.804,5.83,0,11.198-1.98,15.469-5.302h7.85c12.045,0,21.81-9.765,21.81-21.81h0c0-12.045-9.765-21.81-21.81-21.81h-.254c.305-1.567.466-3.186.466-4.843,0-13.926-11.289-25.214-25.214-25.214h0Z" fill="#87b26b"/><line x1="61.542" y1="149.694" x2="51.315" y2="165.814" fill="none" stroke="#87b26b" stroke-linecap="round" stroke-linejoin="round" stroke-width="2"/><line x1="77.48" y1="149.694" x2="67.253" y2="165.814" fill="none" stroke="#87b26b" stroke-linecap="round" stroke-linejoin="round" stroke-width="2"/><line x1="93.419" y1="149.694" x2="83.191" y2="165.814" fill="none" stroke="#87b26b" stroke-linecap="round" stroke-linejoin="round" stroke-width="2"/><line x1="109.357" y1="149.694" x2="99.13" y2="165.814" fill="none" stroke="#87b26b" stroke-linecap="round" stroke-linejoin="round" stroke-width="2"/><polyline points="134.35 140.527 120.395 169.11 143.249 171.521 112.561 219.898" fill="none" stroke="#87b26b" stroke-linecap="round" stroke-linejoin="round" stroke-width="2"/></svg>