<svg xmlns="http://www.w3.org/2000/svg" viewBox="0 0 655 494"><defs><style>.cls-1{fill:#87b26b;}.cls-2{font-size:8px;fill:#fff;font-family:Avenir-Medium, Avenir;}.cls-3,.cls-4{font-family:Avenir-Book, Avenir;}.cls-4{font-size:6px;}.cls-5{letter-spacing:-0.09em;}.cls-6{letter-spacing:-0.09em;}</style></defs><title>Chatbot 06 (FLOWER)</title><g id="template"><path class="cls-1" d="M268.52,265.49a1.69,1.69,0,0,1,0-.2,10.19,10.19,0,0,1,.37-1.12,8.68,8.68,0,0,0-.26-5,8,8,0,0,0-6.47-5.34c-.46,0-2.91.33-3.12.11s-.38-.17-.49-.3a7.15,7.15,0,0,0-6.64-2.1,8.68,8.68,0,0,0-4.61,2.65,6.48,6.48,0,0,0-2.08,4.23.55.55,0,0,1-.5.61c-4.53,1.73-6.26,7.92-2.91,11.58a10.19,10.19,0,0,0,3.42,2.42,14.59,14.59,0,0,0,1,3.5,10.8,10.8,0,0,0,1.53,2.75,6.55,6.55,0,0,0,10.67-.74c0-.5.21-.4.7-.5a5.27,5.27,0,0,1,1.49,0,8.64,8.64,0,0,0,5.75-2.14,7.7,7.7,0,0,0,2.73-7.47c-.15-.79-.32-1.57-.51-2.35A2.47,2.47,0,0,1,268.52,265.49Z"/><path class="cls-1" d="M231.24,193.47a2,2,0,0,1,.09-.22,12,12,0,0,1,.81-1.13,10.2,10.2,0,0,0,1.51-5.74,9.45,9.45,0,0,0-5.35-8.28c-.49-.22-3.37-.67-3.53-1s-.36-.32-.44-.5a8.4,8.4,0,0,0-6.69-4.71,10.2,10.2,0,0,0-6.1,1.33,7.61,7.61,0,0,0-3.83,4,.65.65,0,0,1-.78.51c-5.68.32-9.83,6.64-7.38,11.93a12,12,0,0,0,3,3.93,28.52,28.52,0,0,1-.16,3.24,7.17,7.17,0,0,0,.7,2.59,10.38,10.38,0,0,0,8.51,6.06,4,4,0,0,0,4-1.67c.16-.2,3.88,1.37,4.4,1.42a11.48,11.48,0,0,0,5.22-.83,9,9,0,0,0,5.72-7.4c.11-.94.2-1.87.26-2.82A2.9,2.9,0,0,1,231.24,193.47Z"/><path class="cls-1" d="M186.88,168.05a1.63,1.63,0,0,1,0,.19,9.82,9.82,0,0,1-.31,1.1,8.36,8.36,0,0,0,.43,4.85,7.75,7.75,0,0,0,6.43,4.9c.44,0,2.79-.42,3-.22s.37.15.48.27a6.89,6.89,0,0,0,6.47,1.78,8.36,8.36,0,0,0,4.34-2.72,6.24,6.24,0,0,0,1.85-4.15.53.53,0,0,1,.46-.61c4.29-1.83,5.74-7.85,2.38-11.25A9.82,9.82,0,0,0,209,160a23.38,23.38,0,0,1-.78-2.54,5.88,5.88,0,0,0-1.26-1.8,8.51,8.51,0,0,0-8.24-2.31,3.32,3.32,0,0,0-2.64,2.4c-.07.2-3.37,0-3.79.13a9.41,9.41,0,0,0-3.79,2.09,7.42,7.42,0,0,0-2.35,7.29c.18.76.36,1.5.58,2.25A2.38,2.38,0,0,1,186.88,168.05Z"/><path class="cls-1" d="M292,86.59l.13-.19a12,12,0,0,1,1-.94,10.2,10.2,0,0,0,2.66-5.31,9.45,9.45,0,0,0-3.53-9.2c-.44-.31-3.16-1.34-3.26-1.69-.05-.19-.29-.39-.33-.58a8.4,8.4,0,0,0-5.58-6,10.2,10.2,0,0,0-6.25,0,7.61,7.61,0,0,0-4.57,3.12.65.65,0,0,1-.87.34c-5.63-.85-11,4.48-9.67,10.16a12,12,0,0,0,2.1,4.45A28.52,28.52,0,0,1,263,84a7.17,7.17,0,0,0,.15,2.68,10.38,10.38,0,0,0,7.08,7.67,4,4,0,0,0,4.27-.81c.2-.17,3.52,2.13,4,2.29a11.48,11.48,0,0,0,5.27.26A9,9,0,0,0,290.94,90c.3-.9.58-1.79.83-2.7A2.9,2.9,0,0,1,292,86.59Z"/><path class="cls-1" d="M264.51,120.69l.11-.15a9.71,9.71,0,0,1,.85-.74,8.26,8.26,0,0,0,2.27-4.24,7.66,7.66,0,0,0-2.65-7.53c-.35-.26-2.53-1.16-2.6-1.44s-.22-.32-.25-.48a6.81,6.81,0,0,0-4.38-5,8.27,8.27,0,0,0-5.06-.11,6.17,6.17,0,0,0-3.78,2.42.52.52,0,0,1-.71.25c-4.54-.82-9,3.37-8.07,8a9.7,9.7,0,0,0,1.6,3.65,23.11,23.11,0,0,1-.73,2.52,5.81,5.81,0,0,0,.06,2.17,8.41,8.41,0,0,0,5.56,6.38,3.28,3.28,0,0,0,3.48-.55c.17-.13,2.8,1.81,3.2,1.95a9.3,9.3,0,0,0,4.27.34,7.33,7.33,0,0,0,5.9-4.75c.27-.72.51-1.43.74-2.17A2.35,2.35,0,0,1,264.51,120.69Z"/><path class="cls-1" d="M334.3,151.12l.19.1a11.05,11.05,0,0,1,1,.85,9.41,9.41,0,0,0,5.14,1.9,8.72,8.72,0,0,0,8.09-4.16c.24-.43.92-3,1.22-3.16s.33-.3.5-.36a7.75,7.75,0,0,0,4.93-5.72,9.41,9.41,0,0,0-.67-5.73,7,7,0,0,0-3.32-3.88.6.6,0,0,1-.4-.76c.22-5.25-5.21-9.62-10.29-7.86a11.05,11.05,0,0,0-3.87,2.37,26.32,26.32,0,0,1-3-.43,6.62,6.62,0,0,0-2.44.41A9.58,9.58,0,0,0,325,132a3.73,3.73,0,0,0,1.17,3.84c.17.17-1.6,3.44-1.7,3.91a10.6,10.6,0,0,0,.29,4.86,8.35,8.35,0,0,0,6.28,5.92c.86.19,1.7.35,2.56.5A2.68,2.68,0,0,1,334.3,151.12Z"/><path class="cls-1" d="M464.61,167.91l.06-.15a8.36,8.36,0,0,1,.57-.79,7.12,7.12,0,0,0,1.05-4,6.59,6.59,0,0,0-3.73-5.78,16.67,16.67,0,0,1-2.47-.69c-.06-.12-.25-.23-.31-.35a5.86,5.86,0,0,0-4.67-3.29,7.12,7.12,0,0,0-4.26.93,5.31,5.31,0,0,0-2.67,2.79.45.45,0,0,1-.54.35c-4,.22-6.86,4.63-5.15,8.32a8.36,8.36,0,0,0,2.07,2.74,19.9,19.9,0,0,1-.11,2.26,5,5,0,0,0,.49,1.81,7.24,7.24,0,0,0,5.94,4.23,2.82,2.82,0,0,0,2.8-1.16c.11-.14,2.71,1,3.07,1a8,8,0,0,0,3.64-.58,6.31,6.31,0,0,0,4-5.16c.08-.66.14-1.3.18-2A2,2,0,0,1,464.61,167.91Z"/><path class="cls-1" d="M444.57,276.38l.11-.2a12,12,0,0,1,.94-1,10.2,10.2,0,0,0,2.21-5.51,9.45,9.45,0,0,0-4.28-8.88c-.46-.28-3.26-1.08-3.38-1.41s-.32-.37-.38-.56a8.4,8.4,0,0,0-6.05-5.5,10.2,10.2,0,0,0-6.22.56,7.61,7.61,0,0,0-4.3,3.49.65.65,0,0,1-.84.41c-5.68-.39-10.58,5.37-8.8,10.92a12,12,0,0,0,2.46,4.26,28.52,28.52,0,0,1-.56,3.19,7.17,7.17,0,0,0,.37,2.66,10.38,10.38,0,0,0,7.69,7.06,4,4,0,0,0,4.19-1.16c.19-.18,3.68,1.84,4.19,2a11.48,11.48,0,0,0,5.28-.17,9,9,0,0,0,6.59-6.63c.23-.92.43-1.83.61-2.76A2.9,2.9,0,0,1,444.57,276.38Z"/><path class="cls-1" d="M432.18,111.53a1.79,1.79,0,0,1,0-.21,10.82,10.82,0,0,1,.11-1.25,9.22,9.22,0,0,0-1.49-5.15,8.54,8.54,0,0,0-8-3.95c-.48.06-2.92,1-3.2.87s-.43-.08-.58-.19a7.59,7.59,0,0,0-7.37-.56,9.22,9.22,0,0,0-4.12,3.86,6.88,6.88,0,0,0-1.12,4.88.58.58,0,0,1-.37.76c-4.26,2.88-4.55,9.7-.21,12.67a10.82,10.82,0,0,0,4.12,1.67,25.77,25.77,0,0,1,1.38,2.59,6.48,6.48,0,0,0,1.74,1.69,9.38,9.38,0,0,0,9.41.76,3.66,3.66,0,0,0,2.35-3.15c0-.23,3.64-.74,4.07-.94a10.38,10.38,0,0,0,3.66-3.06,8.18,8.18,0,0,0,1-8.39c-.35-.78-.71-1.54-1.1-2.31A2.63,2.63,0,0,1,432.18,111.53Z"/><path class="cls-1" d="M210,258.53a8.63,8.63,0,0,0-3.75-.72c-1,.05-2,.71-3,.71.65-1.09,2.57-1.27,2.6-2.81a2.21,2.21,0,0,0-2.46-2c-1.44.19-2.37,1.08-3.51,1.91.26-1.32-1.05-2.3-2.13-2.73a13.28,13.28,0,0,0-10.16-.37,2.09,2.09,0,0,0-.75.47,1.59,1.59,0,0,0,.06,2,5.62,5.62,0,0,0,1.66,1.29,11.83,11.83,0,0,1,2,1.5c-.27.53-1,.59-1.53.8-4.07,1.71-5.2,8.26-2.53,14.63s8.15,10.14,12.22,8.43a2,2,0,0,1,1.53,0c4.07,1.71,9.54-2.06,12.22-8.43S214.09,260.24,210,258.53Z"/><path class="cls-1" d="M242.43,160.23a7.4,7.4,0,0,0-3.28-.06c-.87.19-1.61.89-2.43,1,0,0,.81-1,.92-1.08a2.58,2.58,0,0,0,.56-.93,1.48,1.48,0,0,0-.56-1.94,3,3,0,0,0-3,.43,11.26,11.26,0,0,0-1.1,1.46,2.65,2.65,0,0,0-2.23-1.91,11.39,11.39,0,0,0-8.65,1.16c-.56.36-1.36,1.58-1,2.26a1.46,1.46,0,0,0,.58.52c1.29.74,2.91.77,4.14,1.6-.24.34-.71.38-1.11.47-2.24.51-2.91,3.3-2.91,5.28a14.14,14.14,0,0,0,2.38,7.47c3.18,5,8.35,7.4,11.55,5.36a1.69,1.69,0,0,1,1.29-.22c3.69.86,7.77-3.12,9.11-8.89S246.12,161.09,242.43,160.23Z"/><path class="cls-1" d="M279.75,123.85a6.31,6.31,0,0,0-2.72-.63c-.76,0-1.5.46-2.21.43,0,0,.85-.66,1-.74a2.2,2.2,0,0,0,.63-.68,1.26,1.26,0,0,0-.12-1.72,2.54,2.54,0,0,0-2.61-.18,9.59,9.59,0,0,0-1.18,1,2.25,2.25,0,0,0-1.52-2,9.71,9.71,0,0,0-7.41-.56c-.53.2-1.41,1.08-1.22,1.71a1.25,1.25,0,0,0,.39.54c.95.84,2.29,1.16,3.17,2.06-.26.24-.66.19-1,.2-2,0-3,2.24-3.36,3.89a12.05,12.05,0,0,0,.67,6.64c1.77,4.73,5.66,7.64,8.68,6.51a1.44,1.44,0,0,1,1.12,0c2.92,1.37,7-1.23,9.17-5.8S282.68,125.22,279.75,123.85Z"/><path class="cls-1" d="M365.49,103.27a7.71,7.71,0,0,0-3.24-1.07c-.93-.07-1.88.39-2.74.29.05,0,1.11-.71,1.25-.79a2.69,2.69,0,0,0,.84-.75,1.54,1.54,0,0,0,0-2.11,3.1,3.1,0,0,0-3.16-.51,11.73,11.73,0,0,0-1.54,1.11,2.76,2.76,0,0,0-1.64-2.59,11.87,11.87,0,0,0-9-1.5c-.67.19-1.84,1.16-1.67,1.95a1.52,1.52,0,0,0,.42.7c1.06,1.13,2.66,1.66,3.63,2.86-.34.27-.82.16-1.25.13-2.39-.18-3.91,2.39-4.52,4.37a14.74,14.74,0,0,0,.08,8.17c1.64,6,6.05,9.93,9.86,8.88a1.77,1.77,0,0,1,1.36.18c3.41,2,8.7-.73,11.81-6.06S368.9,105.26,365.49,103.27Z"/><path class="cls-1" d="M381.46,123.93c2.36,4.73,6.73,7.34,9.76,5.83a1.51,1.51,0,0,1,1.17-.08c3.2,1.1,7.19-2.05,8.92-7a12.62,12.62,0,0,0,.52-7c-.41-1.72-1.57-4-3.62-4-.37,0-.79.07-1.06-.18.9-1,2.3-1.34,3.26-2.25a1.31,1.31,0,0,0,.4-.58c.19-.67-.76-1.56-1.32-1.76a10.17,10.17,0,0,0-7.75.79,2.36,2.36,0,0,0-1.54,2.12,10,10,0,0,0-1.26-1,2.66,2.66,0,0,0-2.73.26,1.32,1.32,0,0,0-.08,1.8,2.31,2.31,0,0,0,.68.69c.12.08,1,.75,1,.75-.74,0-1.53-.41-2.32-.4a6.61,6.61,0,0,0-2.83.73C379.63,114.14,379.1,119.2,381.46,123.93Z"/><path class="cls-1" d="M412.46,163.17c2.54,5.64,7.52,8.89,11.13,7.26a1.77,1.77,0,0,1,1.37,0c3.68,1.44,8.49-2.07,10.74-7.83a14.76,14.76,0,0,0,.93-8.12c-.4-2-1.65-4.75-4-4.82-.43,0-.92,0-1.24-.26,1.09-1.1,2.74-1.46,3.92-2.48a1.53,1.53,0,0,0,.49-.66c.25-.77-.82-1.86-1.46-2.11a11.89,11.89,0,0,0-9.08.56,2.76,2.76,0,0,0-1.9,2.41,11.75,11.75,0,0,0-1.42-1.27,3.11,3.11,0,0,0-3.2.18,1.55,1.55,0,0,0-.18,2.1,2.7,2.7,0,0,0,.76.84c.13.1,1.11.92,1.16.92-.86,0-1.77-.55-2.7-.57a7.72,7.72,0,0,0-3.34.73C410.78,151.64,409.92,157.53,412.46,163.17Z"/><path class="cls-1" d="M469.18,221.55c2,4.4,5.94,6.91,8.75,5.62a1.38,1.38,0,0,1,1.07,0c2.89,1.1,6.64-1.66,8.36-6.18a11.55,11.55,0,0,0,.68-6.36c-.33-1.58-1.32-3.71-3.19-3.75-.34,0-.72,0-1-.2.85-.86,2.14-1.16,3.05-2a1.19,1.19,0,0,0,.38-.52c.19-.61-.65-1.45-1.16-1.65A9.3,9.3,0,0,0,479,207a2.16,2.16,0,0,0-1.47,1.9,9.19,9.19,0,0,0-1.12-1,2.43,2.43,0,0,0-2.5.16,1.21,1.21,0,0,0-.13,1.65,2.11,2.11,0,0,0,.6.65c.1.07.87.71.91.71-.67,0-1.38-.42-2.11-.43a6,6,0,0,0-2.61.59C467.8,212.54,467.16,217.15,469.18,221.55Z"/><path class="cls-1" d="M408.07,216.51a7.91,7.91,0,0,0-3.38-.92c-1,0-1.91.5-2.79.44.05,0,1.1-.79,1.24-.88a2.76,2.76,0,0,0,.82-.82,1.58,1.58,0,0,0-.08-2.16,3.18,3.18,0,0,0-3.27-.35A12,12,0,0,0,399.1,213a2.83,2.83,0,0,0-1.82-2.56,12.18,12.18,0,0,0-9.27-1.05c-.67.23-1.82,1.28-1.61,2.09a1.56,1.56,0,0,0,.47.7c1.15,1.1,2.82,1.56,3.88,2.74-.33.29-.84.21-1.28.2-2.46-.05-3.88,2.66-4.4,4.72a15.13,15.13,0,0,0,.52,8.36c2,6,6.74,9.85,10.58,8.57a1.81,1.81,0,0,1,1.4.11c3.6,1.85,8.87-1.21,11.77-6.85S411.68,218.36,408.07,216.51Z"/><path d="M195.09,158.27a3,3,0,0,0-.88-.34c-1.8-.4-3.91.77-5.12,2.83a6.06,6.06,0,0,0-.85,3.79,3.48,3.48,0,0,0,1.61,2.66A7.73,7.73,0,0,0,192,168c2.63.58,5.71.42,6.94-.9-2.57-1.11-3.68-5.94-3.52-8.58Z"/><path d="M206.23,160.36c0-.12.07-.24.09-.34a3.48,3.48,0,0,0-.86-3,6.06,6.06,0,0,0-3.36-1.94c-2.79-.61-5.44.61-5.9,2.72a11.33,11.33,0,0,0,.51,5,7.73,7.73,0,0,0,1.58,2.95,9.13,9.13,0,0,1-.78-5.71l0-.06a2.59,2.59,0,0,1-.65-.93.36.36,0,0,1,.65-.29c.43,1,1,.92,1,.92a.36.36,0,1,1,.09.71,1.21,1.21,0,0,1-.39,0l-.09,0a8.29,8.29,0,0,0,.55,4.61c-.05-1.85.09-5.28,1.61-7.4a3,3,0,0,1-.38-.64.36.36,0,0,1,.65-.29c.43,1,1,.92,1,.92a.36.36,0,1,1,.09.71,1.21,1.21,0,0,1-.39,0,1.61,1.61,0,0,1-.48-.19,10.94,10.94,0,0,0-1.41,5.5,8.5,8.5,0,0,1,1.66-3.39,2.84,2.84,0,0,1-.45-.73.36.36,0,1,1,.65-.29c.43,1,1,.92,1,.92a.36.36,0,1,1,.09.71,1.21,1.21,0,0,1-.39,0,1.59,1.59,0,0,1-.38-.14,8.11,8.11,0,0,0-1.64,3.72,9.06,9.06,0,0,1,1.69-1.66A13.62,13.62,0,0,1,206.23,160.36Z"/><path d="M200.62,178.37a6.13,6.13,0,0,0,3.72-.44c2.62-1.15,4-3.69,3.18-5.66-.73-1.66-3.71-4.62-6.19-5.17a3,3,0,0,0-1.25,0c1.43,2.41-.51,7-2.18,9,0,.13.08.24.13.34A3.51,3.51,0,0,0,200.62,178.37Z"/><path d="M211.53,165.69c-.23-2.38-1.66-4.32-3.46-4.72a3,3,0,0,0-.94-.06,4.93,4.93,0,0,0-.81.16h0c-2.34.65-6.17,3-6.44,5.3a3.69,3.69,0,0,1,1.61,0c2.39.52,5.11,3,6.29,4.85l.37,0C210.29,171,211.81,168.53,211.53,165.69Z"/><path d="M190.48,174.89a6.13,6.13,0,0,0,3.2,2,3.51,3.51,0,0,0,3.17-.68,11.33,11.33,0,0,0,2.53-4.36c.37-1.11.84-3.06.12-4.32a5,5,0,0,1-3.17,1.42,13.62,13.62,0,0,1-4.5-.24h0a10.64,10.64,0,0,1-1.58-.47l-.28.22a3.48,3.48,0,0,0-1.06,2.93A6.06,6.06,0,0,0,190.48,174.89Z"/><path d="M249.64,105.88a3,3,0,0,0-.87-.36c-1.8-.43-3.92.69-5.17,2.73a6.06,6.06,0,0,0-.93,3.77,3.48,3.48,0,0,0,1.56,2.7,7.73,7.73,0,0,0,2.11.79c2.61.63,5.7.53,7-.77-2.55-1.16-3.56-6-3.36-8.65Z"/><path d="M260.74,108.19c0-.12.08-.24.1-.34a3.48,3.48,0,0,0-.8-3,6.06,6.06,0,0,0-3.32-2c-2.78-.67-5.45.5-6,2.6a11.33,11.33,0,0,0,.41,5,7.73,7.73,0,0,0,1.52,3,9.13,9.13,0,0,1-.67-5.72l0-.06a2.59,2.59,0,0,1-.63-.94.36.36,0,1,1,.66-.28c.41,1,1,.94,1,.94a.36.36,0,1,1,.08.71,1.21,1.21,0,0,1-.39,0l-.09,0a8.29,8.29,0,0,0,.46,4.62c0-1.85.19-5.28,1.75-7.37a3,3,0,0,1-.36-.65.36.36,0,0,1,.66-.28c.41,1,1,.94,1,.94a.36.36,0,1,1,.08.71,1.21,1.21,0,0,1-.39,0,1.61,1.61,0,0,1-.48-.2,10.94,10.94,0,0,0-1.52,5.47,8.5,8.5,0,0,1,1.72-3.36,2.84,2.84,0,0,1-.44-.74.36.36,0,1,1,.66-.28c.41,1,1,.94,1,.94a.36.36,0,1,1,.08.71,1.21,1.21,0,0,1-.39,0,1.59,1.59,0,0,1-.38-.15,8.11,8.11,0,0,0-1.72,3.69,9.06,9.06,0,0,1,1.73-1.63A13.62,13.62,0,0,1,260.74,108.19Z"/><path d="M254.77,126.08a6.13,6.13,0,0,0,3.73-.36c2.64-1.09,4.11-3.61,3.29-5.6-.69-1.67-3.62-4.7-6.08-5.29a3,3,0,0,0-1.25-.06c1.39,2.43-.65,7-2.36,9,0,.13.08.24.12.35A3.51,3.51,0,0,0,254.77,126.08Z"/><path d="M265.93,113.62c-.19-2.38-1.57-4.35-3.37-4.78a3,3,0,0,0-.94-.07,4.93,4.93,0,0,0-.82.15h0c-2.35.6-6.22,2.86-6.54,5.17a3.69,3.69,0,0,1,1.61.06c2.38.57,5.05,3.11,6.19,5h.37C264.58,118.92,266.15,116.47,265.93,113.62Z"/><path d="M244.7,122.4a6.13,6.13,0,0,0,3.16,2,3.51,3.51,0,0,0,3.18-.62,11.33,11.33,0,0,0,2.62-4.3c.39-1.11.9-3,.21-4.32a5,5,0,0,1-3.2,1.35,13.62,13.62,0,0,1-4.49-.33h0a10.64,10.64,0,0,1-1.57-.5l-.28.22a3.48,3.48,0,0,0-1.12,2.91A6.06,6.06,0,0,0,244.7,122.4Z"/><path d="M449.64,158a2.47,2.47,0,0,0-.76-.17,4.2,4.2,0,0,0-3.8,3,5,5,0,0,0-.21,3.19,2.86,2.86,0,0,0,1.65,2,6.33,6.33,0,0,0,1.82.33c2.2.13,4.69-.38,5.52-1.62-2.23-.58-3.74-4.37-3.95-6.53Z"/><path d="M458.94,158.26c0-.1,0-.2,0-.29a2.87,2.87,0,0,0-1.08-2.33,5,5,0,0,0-3-1.15c-2.34-.14-4.34,1.19-4.44,3a9.35,9.35,0,0,0,1.05,4,6.37,6.37,0,0,0,1.66,2.2,7.54,7.54,0,0,1-1.35-4.55.3.3,0,0,1,0-.05,2.13,2.13,0,0,1-.65-.67.29.29,0,1,1,.49-.32c.47.74,1,.62,1,.62a.29.29,0,0,1,.16.56,1,1,0,0,1-.32,0h-.08a6.84,6.84,0,0,0,1,3.68c-.28-1.5-.6-4.31.37-6.23a2.43,2.43,0,0,1-.39-.47.29.29,0,1,1,.49-.32c.47.74,1,.62,1,.62a.29.29,0,0,1,.16.56,1,1,0,0,1-.32,0,1.32,1.32,0,0,1-.41-.1,9,9,0,0,0-.45,4.66,7,7,0,0,1,.91-3,2.33,2.33,0,0,1-.46-.53.29.29,0,1,1,.49-.32c.47.74,1,.62,1,.62a.29.29,0,0,1,.16.56,1,1,0,0,1-.32,0,1.3,1.3,0,0,1-.33-.06,6.7,6.7,0,0,0-.86,3.24,7.47,7.47,0,0,1,1.16-1.57A11.19,11.19,0,0,1,458.94,158.26Z"/><path d="M456.67,173.62a5,5,0,0,0,3-.83c2-1.27,2.81-3.51,1.86-5a9.25,9.25,0,0,0-5.67-3.42,2.48,2.48,0,0,0-1,.13c1.47,1.78.47,5.73-.63,7.61,0,.1.1.19.15.26A2.88,2.88,0,0,0,456.67,173.62Z"/><path d="M463.92,161.92a4.2,4.2,0,0,0-3.41-3.4,2.47,2.47,0,0,0-.77.07,4,4,0,0,0-.64.24h0c-1.82.82-4.63,3.21-4.55,5.13a3,3,0,0,1,1.31-.18c2,.12,4.53,1.8,5.71,3.14l.29-.06C463.58,166.41,464.5,164.2,463.92,161.92Z"/><path d="M448,172.08a5,5,0,0,0,2.84,1.18,2.88,2.88,0,0,0,2.49-1,9.35,9.35,0,0,0,1.5-3.87c.16-1,.29-2.59-.45-3.53a4.09,4.09,0,0,1-2.4,1.56,11.15,11.15,0,0,1-3.68.37h0a8.71,8.71,0,0,1-1.34-.18l-.2.22a2.87,2.87,0,0,0-.49,2.52A5,5,0,0,0,448,172.08Z"/><path d="M207.67,260.69a6.63,6.63,0,0,0-5.9.27l-1.36.65a7.26,7.26,0,0,1,1.33-3.27,9.58,9.58,0,0,1,2.16-2.2.91.91,0,0,0-1-1.51,11.25,11.25,0,0,0-2.59,2.6,10.27,10.27,0,0,0-.7,1.12,5.56,5.56,0,0,0-.55-.85,3.3,3.3,0,0,0-2-3.88,12.21,12.21,0,0,0-8.39,0,.91.91,0,0,0-.55.71.58.58,0,0,0,.31.7,14.46,14.46,0,0,1,6.21,4.22c.91,1,2.32.68,3.33-.14a4.42,4.42,0,0,1,.66,2.57c-.35-.16-.8-.39-1.45-.7a6.63,6.63,0,0,0-5.89-.27c-3.2,1.34-4.09,6.49-2,11.5s6.4,8,9.6,6.62h0a1.55,1.55,0,0,1,1.2,0h0c3.2,1.34,7.5-1.62,9.6-6.62S210.88,262,207.67,260.69Z"/><path d="M240.81,162.15a5.78,5.78,0,0,0-5,1.26l-1,.79a6.33,6.33,0,0,1,.56-3,8.35,8.35,0,0,1,1.46-2.25.79.79,0,0,0-1.13-1.11,9.81,9.81,0,0,0-1.75,2.67,9,9,0,0,0-.4,1.08,4.84,4.84,0,0,0-.62-.63,2.87,2.87,0,0,0-2.41-3,10.65,10.65,0,0,0-7.17,1.44.79.79,0,0,0-.35.7.51.51,0,0,0,.39.54,12.6,12.6,0,0,1,6,2.52c1,.71,2.1.17,2.82-.7a3.85,3.85,0,0,1,1,2.08c-.33-.07-.75-.19-1.36-.34a5.78,5.78,0,0,0-5.08.8c-2.5,1.71-2.36,6.26.32,10.17s6.86,5.69,9.36,4h0a1.35,1.35,0,0,1,1-.21h0c3,.59,6.12-2.7,7-7.34S243.78,162.74,240.81,162.15Z"/><path d="M277.78,125.14a4.77,4.77,0,0,0-4.24,0l-1,.41a5.22,5.22,0,0,1,1.09-2.29,6.89,6.89,0,0,1,1.64-1.49.65.65,0,0,0-.67-1.12,8.08,8.08,0,0,0-2,1.76,7.38,7.38,0,0,0-.55.77,4,4,0,0,0-.36-.63,2.37,2.37,0,0,0-1.3-2.87,8.78,8.78,0,0,0-6-.36.65.65,0,0,0-.43.48.42.42,0,0,0,.19.51,10.39,10.39,0,0,1,4.29,3.28,1.7,1.7,0,0,0,2.39,0,3.18,3.18,0,0,1,.37,1.87l-1-.56a4.77,4.77,0,0,0-4.22-.43c-2.35.84-3.2,4.49-1.89,8.17s4.27,6,6.62,5.14h0a1.11,1.11,0,0,1,.86,0h0c2.24,1.09,5.45-.86,7.16-4.36S280,126.24,277.78,125.14Z"/><path d="M362.89,105.14a6.05,6.05,0,0,0-5.36-.47l-1.31.43a6.63,6.63,0,0,1,1.6-2.8,8.74,8.74,0,0,1,2.21-1.73.83.83,0,0,0-.73-1.49,10.26,10.26,0,0,0-2.65,2,9.36,9.36,0,0,0-.77.93,5.07,5.07,0,0,0-.4-.83,3,3,0,0,0-1.37-3.75,11.14,11.14,0,0,0-7.58-1,.83.83,0,0,0-.59.57.53.53,0,0,0,.2.67,13.18,13.18,0,0,1,5.11,4.57c.7,1,2,.89,3,.28a4,4,0,0,1,.28,2.41c-.3-.18-.68-.45-1.23-.81a6,6,0,0,0-5.3-1c-3.06.83-4.48,5.37-3.19,10.15s4.82,8,7.88,7.15h0a1.41,1.41,0,0,1,1.08.15h0c2.73,1.6,7-.56,9.48-4.82S365.62,106.74,362.89,105.14Z"/><path d="M382.85,123.44c1.8,3.88,5.27,6.1,7.75,4.95h0a1.22,1.22,0,0,1,.95,0h0c2.56,1,5.86-1.49,7.38-5.49s.67-8-1.89-9a5.23,5.23,0,0,0-4.63.38c-.5.26-.85.46-1.13.59a3.48,3.48,0,0,1,.45-2,1.87,1.87,0,0,0,2.62,0,11.39,11.39,0,0,1,4.78-3.5.46.46,0,0,0,.22-.56.71.71,0,0,0-.46-.54,9.62,9.62,0,0,0-6.61.26,2.6,2.6,0,0,0-1.49,3.11,4.38,4.38,0,0,0-.41.68,8.09,8.09,0,0,0-.58-.86,8.86,8.86,0,0,0-2.11-2,.72.72,0,0,0-.76,1.22,7.55,7.55,0,0,1,1.76,1.67,5.73,5.73,0,0,1,1.14,2.54l-1.09-.48a5.23,5.23,0,0,0-4.65,0C381.61,115.48,381.06,119.56,382.85,123.44Z"/><path d="M415.34,162.89c2.09,4.51,6.13,7.09,9,5.75h0a1.42,1.42,0,0,1,1.1,0h0c3,1.13,6.82-1.73,8.58-6.38s.78-9.34-2.2-10.47a6.08,6.08,0,0,0-5.39.44c-.59.3-1,.53-1.31.69a4,4,0,0,1,.52-2.38c.95.71,2.25,1,3.05,0a13.25,13.25,0,0,1,5.55-4.07.53.53,0,0,0,.26-.65.83.83,0,0,0-.53-.63,11.19,11.19,0,0,0-7.68.3,3,3,0,0,0-1.73,3.62,5.09,5.09,0,0,0-.48.8,9.41,9.41,0,0,0-.67-1,10.31,10.31,0,0,0-2.45-2.3.83.83,0,0,0-.88,1.42,8.78,8.78,0,0,1,2,1.94,6.66,6.66,0,0,1,1.32,3l-1.26-.55a6.08,6.08,0,0,0-5.41-.06C413.89,153.64,413.25,158.38,415.34,162.89Z"/><path d="M470.88,221c1.67,3.48,4.82,5.44,7,4.37h0a1.1,1.1,0,0,1,.85,0h0c2.32.84,5.27-1.41,6.59-5s.51-7.25-1.81-8.1a4.72,4.72,0,0,0-4.18.4l-1,.54a3.14,3.14,0,0,1,.38-1.85,1.68,1.68,0,0,0,2.37,0A10.28,10.28,0,0,1,485.4,208a.41.41,0,0,0,.2-.5.64.64,0,0,0-.42-.48,8.68,8.68,0,0,0-6,.31,2.34,2.34,0,0,0-1.31,2.82,4,4,0,0,0-.36.62A7.3,7.3,0,0,0,477,210a8,8,0,0,0-1.93-1.76.65.65,0,0,0-.67,1.11,6.81,6.81,0,0,1,1.61,1.49,5.17,5.17,0,0,1,1.06,2.28l-1-.42a4.72,4.72,0,0,0-4.2,0C469.67,213.8,469.22,217.48,470.88,221Z"/><path d="M406,219a6.33,6.33,0,0,0-5.61-.45L399,219a6.93,6.93,0,0,1,1.65-2.94,9.14,9.14,0,0,1,2.3-1.82.87.87,0,0,0-.78-1.55,10.73,10.73,0,0,0-2.76,2.15,9.79,9.79,0,0,0-.79,1,5.3,5.3,0,0,0-.42-.87,3.14,3.14,0,0,0-1.46-3.91,11.64,11.64,0,0,0-7.93-1,.86.86,0,0,0-.61.6.55.55,0,0,0,.21.69,13.79,13.79,0,0,1,5.37,4.74c.74,1.07,2.11.92,3.16.27a4.21,4.21,0,0,1,.32,2.51c-.31-.19-.71-.46-1.29-.83a6.33,6.33,0,0,0-5.54-1c-3.19.89-4.65,5.65-3.26,10.64s5.1,8.31,8.29,7.42h0a1.48,1.48,0,0,1,1.14.14h0c2.87,1.66,7.29-.63,9.88-5.12S408.86,220.64,406,219Z"/><path d="M208.41,179.82a3.83,3.83,0,0,0-1.19-.19c-2.35,0-4.65,2-5.59,4.91a7.71,7.71,0,0,0,0,4.93,4.42,4.42,0,0,0,2.73,2.87,9.83,9.83,0,0,0,2.85.34c3.42,0,7.21-1,8.38-3-3.5-.68-6.19-6.37-6.71-9.69Z"/><path d="M222.82,179.38c0-.16,0-.31,0-.45a4.42,4.42,0,0,0-1.89-3.48,7.71,7.71,0,0,0-4.7-1.5c-3.63,0-6.59,2.23-6.59,5a14.4,14.4,0,0,0,2,6.08,9.83,9.83,0,0,0,2.77,3.23,11.61,11.61,0,0,1-2.52-6.88.46.46,0,0,1,0-.08,3.3,3.3,0,0,1-1.06-1,.45.45,0,1,1,.73-.54c.8,1.09,1.53.86,1.54.86a.45.45,0,1,1,.31.85,1.54,1.54,0,0,1-.49.07h-.12a10.54,10.54,0,0,0,1.94,5.57c-.57-2.29-1.33-6.59,0-9.62a3.75,3.75,0,0,1-.64-.69.45.45,0,0,1,.73-.54c.8,1.09,1.53.86,1.54.86a.45.45,0,1,1,.31.85,1.54,1.54,0,0,1-.49.07,2,2,0,0,1-.65-.11c-.88,2.13-.65,5-.26,7.21a10.81,10.81,0,0,1,1.13-4.66,3.61,3.61,0,0,1-.76-.78.45.45,0,1,1,.73-.54c.8,1.09,1.53.86,1.54.86a.45.45,0,1,1,.31.85,1.54,1.54,0,0,1-.49.07,2,2,0,0,1-.52-.07,10.31,10.31,0,0,0-1,5.07,11.52,11.52,0,0,1,1.65-2.53A17.32,17.32,0,0,1,222.82,179.38Z"/><path d="M220.75,203.27a7.79,7.79,0,0,0,4.51-1.56c2.94-2.13,4-5.68,2.4-7.9-1.35-1.86-5.86-4.73-9.09-4.73a3.85,3.85,0,0,0-1.57.3c2.44,2.6,1.27,8.79-.26,11.79.09.15.17.28.25.39A4.46,4.46,0,0,0,220.75,203.27Z"/><path d="M230.85,184.56c-.94-2.89-3.24-4.91-5.59-4.91a3.83,3.83,0,0,0-1.19.19,6.27,6.27,0,0,0-1,.42h0c-2.73,1.44-6.85,5.38-6.55,8.33a4.69,4.69,0,0,1,2-.41c3.11,0,7.17,2.34,9.13,4.31l.45-.12C230.76,191.51,232,188,230.85,184.56Z"/><path d="M207.21,201.71a7.79,7.79,0,0,0,4.51,1.56,4.46,4.46,0,0,0,3.75-1.71,14.4,14.4,0,0,0,2-6.1c.16-1.48.21-4-1-5.4a6.34,6.34,0,0,1-3.55,2.62,17.32,17.32,0,0,1-5.65.92h0a13.53,13.53,0,0,1-2.09-.15c-.11.12-.2.24-.29.36a4.42,4.42,0,0,0-.52,3.93A7.71,7.71,0,0,0,207.21,201.71Z"/><path d="M272.45,68.67a3.72,3.72,0,0,0-1.12-.34c-2.26-.32-4.74,1.32-6,4A7.48,7.48,0,0,0,264.6,77a4.3,4.3,0,0,0,2.24,3.13,9.55,9.55,0,0,0,2.69.71c3.29.46,7.07,0,8.46-1.77-3.27-1.12-5.09-7-5.15-10.23Z"/><path d="M286.36,70.19c0-.15.06-.3.08-.43a4.3,4.3,0,0,0-1.34-3.6,7.48,7.48,0,0,0-4.32-2.07c-3.49-.49-6.64,1.26-7,3.9a14,14,0,0,0,1.11,6.12,9.55,9.55,0,0,0,2.23,3.48,11.28,11.28,0,0,1-1.5-7,.44.44,0,0,1,0-.08,3.2,3.2,0,0,1-.89-1.08.44.44,0,1,1,.78-.42c.62,1.15,1.35,1,1.36,1A.44.44,0,1,1,277,71a1.5,1.5,0,0,1-.48,0l-.12,0a10.23,10.23,0,0,0,1.11,5.62c-.24-2.28-.39-6.51,1.28-9.26a3.64,3.64,0,0,1-.52-.75.44.44,0,0,1,.78-.42c.62,1.15,1.35,1,1.36,1a.44.44,0,1,1,.18.86,1.5,1.5,0,0,1-.48,0,2,2,0,0,1-.61-.19c-1.13,1.93-1.3,4.74-1.22,6.9A10.5,10.5,0,0,1,280,70.41a3.5,3.5,0,0,1-.62-.85.44.44,0,1,1,.78-.42c.62,1.15,1.35,1,1.36,1a.44.44,0,1,1,.18.86,1.5,1.5,0,0,1-.48,0,2,2,0,0,1-.49-.13,10,10,0,0,0-1.67,4.74A11.19,11.19,0,0,1,281,73.44,16.82,16.82,0,0,1,286.36,70.19Z"/><path d="M281.15,92.89A7.57,7.57,0,0,0,285.7,92c3.11-1.66,4.63-4.92,3.38-7.27-1-2-5-5.34-8.1-5.78a3.74,3.74,0,0,0-1.55.08c2,2.83,0,8.62-1.84,11.3.06.15.13.29.19.41A4.33,4.33,0,0,0,281.15,92.89Z"/><path d="M293.38,76.25c-.51-2.91-2.45-5.16-4.71-5.48a3.72,3.72,0,0,0-1.17,0,6.09,6.09,0,0,0-1,.28h0c-2.82,1-7.31,4.25-7.42,7.13a4.55,4.55,0,0,1,2-.12c3,.42,6.58,3.22,8.2,5.37l.45-.06C292.36,82.93,294,79.72,293.38,76.25Z"/><path d="M268.34,89.56a7.57,7.57,0,0,0,4.12,2.1,4.33,4.33,0,0,0,3.84-1.14,14,14,0,0,0,2.7-5.6c.35-1.41.74-3.84-.26-5.33a6.15,6.15,0,0,1-3.77,2,16.82,16.82,0,0,1-5.56.12h0a13.14,13.14,0,0,1-2-.43l-.32.3a4.3,4.3,0,0,0-1,3.71A7.49,7.49,0,0,0,268.34,89.56Z"/><path d="M418.22,104.57a3.31,3.31,0,0,0-.72-.74c-1.62-1.22-4.25-1-6.4.5a6.65,6.65,0,0,0-2.58,3.39,3.82,3.82,0,0,0,.4,3.39,8.48,8.48,0,0,0,1.79,1.71c2.36,1.77,5.51,3,7.34,2.26-2.06-2.28-1-7.6.39-10.17C418.37,104.78,418.29,104.67,418.22,104.57Z"/><path d="M428.39,111.72l.25-.3a3.82,3.82,0,0,0,.5-3.38,6.65,6.65,0,0,0-2.47-3.47c-2.51-1.88-5.7-1.87-7.12,0a12.43,12.43,0,0,0-1.77,5.23,8.48,8.48,0,0,0,.24,3.66,10,10,0,0,1,1.82-6.05l0-.05a2.84,2.84,0,0,1-.23-1.22.39.39,0,1,1,.78,0c0,1.16.61,1.39.61,1.39a.39.39,0,1,1-.23.75,1.33,1.33,0,0,1-.37-.2l-.08-.07a9.09,9.09,0,0,0-1.55,4.85c.79-1.87,2.5-5.23,5-6.65a3.23,3.23,0,0,1-.09-.81.39.39,0,0,1,.78,0c0,1.16.61,1.39.61,1.39a.39.39,0,1,1-.23.75,1.33,1.33,0,0,1-.37-.2,1.76,1.76,0,0,1-.39-.41,12,12,0,0,0-3.92,4.84,9.33,9.33,0,0,1,3.2-2.63,3.11,3.11,0,0,1-.12-.93.39.39,0,1,1,.78,0c0,1.16.61,1.39.61,1.39a.39.39,0,1,1-.23.75,1.33,1.33,0,0,1-.37-.2,1.74,1.74,0,0,1-.32-.31,8.89,8.89,0,0,0-3.34,3,9.94,9.94,0,0,1,2.45-.89A14.94,14.94,0,0,1,428.39,111.72Z"/><path d="M414.59,127.13a6.72,6.72,0,0,0,3.91,1.26c3.13,0,5.71-1.84,5.75-4.21,0-2-1.6-6.3-3.82-8a3.32,3.32,0,0,0-1.23-.61c.33,3.06-3.68,6.72-6.28,8,0,.15,0,.28,0,.4A3.85,3.85,0,0,0,414.59,127.13Z"/><path d="M431.25,119.45c.85-2.48.31-5.07-1.31-6.28a3.31,3.31,0,0,0-.91-.49,5.41,5.41,0,0,0-.88-.21h0c-2.63-.42-7.51.16-8.83,2.36a4,4,0,0,1,1.6.76c2.14,1.61,3.73,5.33,4.07,7.7l.37.15C427.59,124.2,430.23,122.42,431.25,119.45Z"/><path d="M406.05,119a6.72,6.72,0,0,0,2.3,3.41,3.85,3.85,0,0,0,3.47.76,12.43,12.43,0,0,0,4.51-3.19c.88-.94,2.23-2.67,2.09-4.25a5.47,5.47,0,0,1-3.81,0,14.94,14.94,0,0,1-4.38-2.29h0a11.68,11.68,0,0,1-1.37-1.19l-.38.1a3.82,3.82,0,0,0-2.39,2.44A6.65,6.65,0,0,0,406.05,119Z"/><path d="M424.18,260.08a3.72,3.72,0,0,0-1.12-.34c-2.26-.32-4.74,1.32-6,4a7.48,7.48,0,0,0-.69,4.74,4.3,4.3,0,0,0,2.24,3.13,9.55,9.55,0,0,0,2.69.71c3.29.46,7.07,0,8.46-1.77-3.27-1.12-5.09-7-5.15-10.23Z"/><path d="M438.09,261.6c0-.15.06-.3.08-.43a4.3,4.3,0,0,0-1.34-3.6,7.48,7.48,0,0,0-4.32-2.07c-3.49-.49-6.64,1.26-7,3.9a14,14,0,0,0,1.11,6.12,9.55,9.55,0,0,0,2.23,3.48,11.28,11.28,0,0,1-1.5-7,.44.44,0,0,1,0-.08,3.2,3.2,0,0,1-.89-1.08.44.44,0,1,1,.78-.42c.62,1.15,1.35,1,1.36,1a.44.44,0,1,1,.18.86,1.5,1.5,0,0,1-.48,0l-.12,0A10.23,10.23,0,0,0,429.3,268c-.24-2.28-.39-6.51,1.28-9.26A3.64,3.64,0,0,1,430,258a.44.44,0,0,1,.78-.42c.62,1.15,1.35,1,1.36,1a.44.44,0,1,1,.18.86,1.5,1.5,0,0,1-.48,0,2,2,0,0,1-.61-.19c-1.13,1.93-1.3,4.74-1.22,6.9a10.5,10.5,0,0,1,1.72-4.33,3.5,3.5,0,0,1-.62-.85.44.44,0,1,1,.78-.42c.62,1.15,1.35,1,1.36,1a.44.44,0,1,1,.18.86,1.5,1.5,0,0,1-.48,0,2,2,0,0,1-.49-.13,10,10,0,0,0-1.67,4.74,11.19,11.19,0,0,1,1.93-2.21A16.82,16.82,0,0,1,438.09,261.6Z"/><path d="M432.88,284.29a7.57,7.57,0,0,0,4.54-.89c3.11-1.66,4.63-4.92,3.38-7.27-1-2-5-5.34-8.1-5.78a3.74,3.74,0,0,0-1.55.08c2,2.83,0,8.62-1.84,11.3.06.15.13.29.19.41A4.33,4.33,0,0,0,432.88,284.29Z"/><path d="M445.12,267.66c-.51-2.91-2.45-5.16-4.71-5.48a3.72,3.72,0,0,0-1.17,0,6.09,6.09,0,0,0-1,.28h0c-2.82,1-7.31,4.25-7.42,7.13a4.55,4.55,0,0,1,2-.12c3,.42,6.58,3.22,8.2,5.37l.45-.06C444.09,274.33,445.73,271.13,445.12,267.66Z"/><path d="M420.07,281a7.57,7.57,0,0,0,4.12,2.1,4.33,4.33,0,0,0,3.84-1.14,14,14,0,0,0,2.7-5.6c.35-1.41.74-3.84-.26-5.33a6.15,6.15,0,0,1-3.77,2,16.82,16.82,0,0,1-5.56.12h0a13.14,13.14,0,0,1-2-.43l-.32.3a4.3,4.3,0,0,0-1,3.71A7.49,7.49,0,0,0,420.07,281Z"/><path d="M246.5,260.43a3.28,3.28,0,0,0-1,.18c-1.9.66-3.18,2.94-3.13,5.54a6.59,6.59,0,0,0,1.36,4,3.78,3.78,0,0,0,3,1.55,8.41,8.41,0,0,0,2.39-.52c2.76-1,5.53-2.86,5.92-4.79-3,.44-6.79-3.41-8.15-5.94Z"/><path d="M258,256c0-.14-.07-.26-.11-.37a3.78,3.78,0,0,0-2.5-2.28,6.59,6.59,0,0,0-4.22.11c-2.93,1-4.69,3.66-3.92,5.87a12.31,12.31,0,0,0,3.33,4.35,8.41,8.41,0,0,0,3.15,1.83,9.93,9.93,0,0,1-4-4.84l0-.07a2.82,2.82,0,0,1-1.13-.49.39.39,0,1,1,.44-.64c1,.65,1.48.27,1.48.26a.39.39,0,1,1,.49.6,1.32,1.32,0,0,1-.37.19l-.1,0a9,9,0,0,0,3.13,4c-1.1-1.69-2.93-4.94-2.73-7.76a3.2,3.2,0,0,1-.71-.38.39.39,0,0,1,.44-.64c1,.65,1.48.27,1.48.26a.39.39,0,1,1,.49.6,1.32,1.32,0,0,1-.37.19,1.75,1.75,0,0,1-.55.1,11.89,11.89,0,0,0,1.82,5.9,9.24,9.24,0,0,1-.4-4.08,3.09,3.09,0,0,1-.83-.42.39.39,0,1,1,.44-.64c1,.65,1.48.27,1.48.26a.39.39,0,1,1,.49.6,1.32,1.32,0,0,1-.37.19,1.73,1.73,0,0,1-.44.09,8.81,8.81,0,0,0,.6,4.38,9.85,9.85,0,0,1,.62-2.5A14.81,14.81,0,0,1,258,256Z"/><path d="M263.06,275.89a6.66,6.66,0,0,0,3.2-2.52c1.77-2.55,1.64-5.72-.28-7.05-1.62-1.12-6.07-2.17-8.67-1.26a3.29,3.29,0,0,0-1.18.68c2.7,1.41,3.49,6.74,3.11,9.59l.31.25A3.82,3.82,0,0,0,263.06,275.89Z"/><path d="M265.94,257.94c-1.57-2.07-4-3.06-5.89-2.4a3.28,3.28,0,0,0-.9.48,5.36,5.36,0,0,0-.66.61h0c-1.8,1.93-4,6.27-2.94,8.57a4,4,0,0,1,1.51-.89c2.51-.87,6.44-.12,8.58.91L266,265C267.83,263.58,267.82,260.41,265.94,257.94Z"/><path d="M251.68,278.44a6.66,6.66,0,0,0,4.08,0A3.81,3.81,0,0,0,258.3,276a12.31,12.31,0,0,0-.14-5.47c-.29-1.24-1-3.31-2.34-4.07a5.42,5.42,0,0,1-2.13,3.12,14.81,14.81,0,0,1-4.31,2.34h0a11.57,11.57,0,0,1-1.73.47c-.05.13-.1.25-.13.37a3.78,3.78,0,0,0,.68,3.32A6.59,6.59,0,0,0,251.68,278.44Z"/><path d="M337.12,127.19a3.13,3.13,0,0,0-.85-.6c-1.84-.88-4.45-.05-6.35,2a7.63,7.63,0,0,0-2,4.12,4,4,0,0,0,1,3.43,8,8,0,0,0,2.09,1.36c2.68,1.28,6.06,1.84,7.77.62-2.47-1.88-2.29-7.66-1.37-10.64Z"/><path d="M348.58,132.23c.08-.13.14-.26.2-.37a4.2,4.2,0,0,0-.08-3.63,6.41,6.41,0,0,0-3.08-3c-2.85-1.36-6.06-.6-7.16,1.7a14,14,0,0,0-.88,5.85,9,9,0,0,0,.87,3.75,11.23,11.23,0,0,1,.79-6.71l0-.06a2.94,2.94,0,0,1-.44-1.22.44.44,0,0,1,.33-.49.38.38,0,0,1,.46.32c.19,1.21.85,1.3.86,1.3a.39.39,0,0,1,.34.45.43.43,0,0,1-.45.38,1.26,1.26,0,0,1-.41-.12l-.1-.05a10.22,10.22,0,0,0-.72,5.4c.47-2.13,1.6-6,3.85-8.07a3.4,3.4,0,0,1-.23-.82.44.44,0,0,1,.33-.49.38.38,0,0,1,.46.32c.19,1.21.85,1.3.86,1.3a.39.39,0,0,1,.34.45.43.43,0,0,1-.45.38,1.26,1.26,0,0,1-.41-.12,1.67,1.67,0,0,1-.47-.33,13.78,13.78,0,0,0-3.1,5.95,10.61,10.61,0,0,1,2.76-3.48,3.26,3.26,0,0,1-.28-.94.44.44,0,0,1,.33-.49.38.38,0,0,1,.46.32c.19,1.21.85,1.3.86,1.3a.39.39,0,0,1,.34.45.43.43,0,0,1-.45.38,1.26,1.26,0,0,1-.41-.12,1.65,1.65,0,0,1-.38-.25,10.15,10.15,0,0,0-2.84,3.86,10.8,10.8,0,0,1,2.31-1.5A15.3,15.3,0,0,1,348.58,132.23Z"/><path d="M337.37,151.46a6.49,6.49,0,0,0,4.16.39c3.16-.68,5.43-3.25,5.06-5.71-.31-2.07-2.69-6.17-5.22-7.38a3.16,3.16,0,0,0-1.35-.34c.86,3.09-2.54,7.84-4.94,9.78,0,.15,0,.3,0,.42A3.78,3.78,0,0,0,337.37,151.46Z"/><path d="M352.8,139.58c.43-2.78-.56-5.33-2.4-6.21a3.13,3.13,0,0,0-1-.29,5.28,5.28,0,0,0-.93,0h0c-2.72.18-7.53,1.93-8.48,4.52a3.85,3.85,0,0,1,1.74.41c2.44,1.17,4.67,4.65,5.42,7l.4.07C349.93,145.37,352.29,142.89,352.8,139.58Z"/><path d="M327.39,145.07a6.49,6.49,0,0,0,2.91,3,3.78,3.78,0,0,0,3.63,0,14,14,0,0,0,4-4.37c.72-1.18,1.78-3.29,1.37-4.91a5.56,5.56,0,0,1-3.84.86,14.17,14.17,0,0,1-4.8-1.35h0a11,11,0,0,1-1.58-.91l-.37.19a4.35,4.35,0,0,0-2,3.09A7.15,7.15,0,0,0,327.39,145.07Z"/></g><g id="text"><rect class="cls-1" x="102" y="68" width="129" height="31" rx="6" ry="6"/><text class="cls-2" transform="translate(155.75 77.61)">FRUITS / FLOWERS<tspan class="cls-3"><tspan x="-30.82" y="9.6">Contribution &amp; Achievement</tspan></tspan><tspan class="cls-4"><tspan x="-50.28" y="16.8">E.g., Charit</tspan><tspan class="cls-5" x="-20.29" y="16.8">y</tspan><tspan x="-17.95" y="16.8">, 1st in class, singe</tspan><tspan class="cls-5" x="31.61" y="16.8">r</tspan><tspan x="33.05" y="16.8">, fathe</tspan><tspan class="cls-6" x="49.94" y="16.8">r</tspan><tspan x="51.38" y="16.8">, library</tspan></tspan></text></g></svg>