<svg xmlns="http://www.w3.org/2000/svg" viewBox="0 0 655 494"><defs><style>.cls-1{fill:#87b26b;}.cls-2{font-size:8px;fill:#fff;font-family:Avenir-Medium, Avenir;}.cls-3,.cls-6{font-family:Avenir-Book, Avenir;}.cls-4{letter-spacing:-0.02em;}.cls-5{letter-spacing:-0.02em;}.cls-6{font-size:6px;}.cls-7{letter-spacing:-0.09em;}</style></defs><title>Chatbot 04 (BRANCH)</title><g id="template"><path class="cls-1" d="M279.83,115.17a59.12,59.12,0,0,1-7.61-9.52q-1.64-2.51-3.07-5.15c-.42-.77-1.75-4.65-3-3.85a2.07,2.07,0,0,0-.73,1.27,7.14,7.14,0,0,0-.33,2.05,10.52,10.52,0,0,0,1.7,5.22c1.88,3,3.8,5.86,5.78,8.75.15.22.31.5.2.74l-1.37-.71a6.25,6.25,0,0,0-1.47-.6,2.11,2.11,0,0,0-1.54.19c-2.58,1.57,4.19,6.32,5.16,7.08A53.78,53.78,0,0,1,282.4,129c2.63,3.27,4.22,7.17,6.9,10.41L293.1,144c4.48,5.39,9,10.83,14.44,15.24a85.12,85.12,0,0,1,7.12,6.31A41.89,41.89,0,0,1,325.36,184a47.75,47.75,0,0,1,1.5,13.37c0,2.57,0,5.13-.16,7.7a29.94,29.94,0,0,1-4.13,14c-1.19,2-4.09,1-5.74-.06a95.33,95.33,0,0,1-10.22-7.52l-3.76-3.28a38,38,0,0,1-3.45-3.28,20.26,20.26,0,0,1-4.61-9.26c-.83-4-1.79-7.76-2-11.93-.16-3.92,0-7.84.12-11.76a108.79,108.79,0,0,0-.56-14.87c-.31-2.91-.48-9.83-4.87-9.87a1.25,1.25,0,0,0-1.07.44,1.57,1.57,0,0,0-.14,1.07c.37,3.29,1.1,6.26.78,9.56s-.81,6.35-1.42,9.49c-.2,1-.64,2.06-1.94,1.33a4.41,4.41,0,0,1-1.31-1.42c-3.32-4.72-7.31-9-11-13.47-1.93-2.34-3.93-4.63-6.07-6.77s-3.42-3.15-4.6-5.84c-1.34-3-1.57-6.4-2.12-9.65-.22-1.32-1-7.83-3.09-7.58a1.67,1.67,0,0,0-1,.85,12.68,12.68,0,0,0-1.71,5.65c-.06.64.27,3-1.09,2.12s-2-2.32-2.87-3.57a33.64,33.64,0,0,1-2.14-2.87,6.55,6.55,0,0,1-.83-2.8c-.23-3.67-3.46-2.1-5-.12-.51.64-.76,1.9-1.52,2.29a2,2,0,0,1-1.19.09c-1.2-.16-8.63-2.53-7.21,1.25.89,2.36,4.16,4.08,6,5.72,3.8,3.46,6.41,7.84,10.17,11.32,1.12,1,5,4,3.55,5.75-1.2,1.4-4.6.64-6.15.4s-3.22-.76-4.83-1.09-3.18,0-4.76-.27a7.42,7.42,0,0,1-4.12-2,11.05,11.05,0,0,1-1-1.18c-1.24-1.67-2.76-3.13-3.95-4.85-.42-.61-.84-1.9-1.57-2.19-2.61-1-2.14,4-2,5.14a10.65,10.65,0,0,0,.31,1.48,15.49,15.49,0,0,1,1.08,3.13.27.27,0,0,1-.07.25.27.27,0,0,1-.17,0,70.82,70.82,0,0,1-7.07-1,56.26,56.26,0,0,0-7.21-.13c-2.54.38-6.56,1.33-7.68,3.92a.78.78,0,0,0-.08.48c.05.23.27.37.48.48a17.07,17.07,0,0,0,7.31,2.2,32.58,32.58,0,0,1,5.27.47.77.77,0,0,1,.48.28c.21.33-.14.73-.44,1a23.29,23.29,0,0,0-3.7,4.35c-.25.34-.51.68-.78,1-1.21,1.52-2.52,5.3-1.28,7.14,2,3,5.31-2.82,6.36-3.83a22.46,22.46,0,0,1,9.76-5.73,19,19,0,0,1,6.55-.35c13.82,1,28.88,5.35,36.53,17.89a26.51,26.51,0,0,1,3,7.28c.92,3.64,1.76,7.38,2.75,11.07,1.22,4.54,2.54,9.06,3.9,13.57a32.4,32.4,0,0,0,2,5.89,17.08,17.08,0,0,1,2.18,6,2.15,2.15,0,0,1,0,.88,1.49,1.49,0,0,1-1.11,1,15.6,15.6,0,0,1-3.47,0,34.87,34.87,0,0,1-10.37-1.34c-9.86-3.2-19-10.25-22.46-20.33-.22-.65-.42-1.3-.63-1.95a28.69,28.69,0,0,0-1.39-3.42,1.78,1.78,0,0,0-.64-.83c-3-1.72-3.48,6.92-3.35,8.18.09.81,1.64,6.66-.44,6a1.88,1.88,0,0,1-.69-.46,119,119,0,0,1-8.59-8.62c-2.45-2.72-4.77-5.15-5.86-8.77-.31-1-.61-2.22-1.59-2.64-4.47-2-4.11,7.18-3.83,9.2.37,2.73,1,5.92,2.6,8.17a43.67,43.67,0,0,0,5.79,6.73c.61.57,3.41,1.91,1.26,2.67a3.34,3.34,0,0,1-1.51,0c-7.26-.86-15.74-.6-21.94,3.74-1.47,1-4.22,5.61-2.65,7.39a1.68,1.68,0,0,0,1.77.22,16.43,16.43,0,0,0,4.47-2.8,11,11,0,0,1,6.82-2.18c1.17,0,2.9.07,1.9,1.82a4.51,4.51,0,0,1-1.46,1.35,54.66,54.66,0,0,0-5.1,4c-1.08,1-2.56,2.18-2.46,3.74a1.53,1.53,0,0,0,2.39,1.41,6,6,0,0,0,1.21-1c2.45-2.28,6.19-3.27,9.15-4.75a22.84,22.84,0,0,1,14-1.72c4.69.72,9.56,3.11,13.61,5.66,1.29.82,2.55,1.69,3.8,2.57s3.18,2.72,1.58,4.17c-1.38,1.25-4.6,1.78-6.35,2a73.69,73.69,0,0,1-8.31.42c-2.28,0-4.61.57-6.83-.25s-3.11-2.49-4.59-4c-.87-.87-2.49-2.95-3.85-2.82-2,.19-1.65,2.74-1.39,4.11.4,2.1,2.88,5.6-.27,5.89-5.11.47-9.06,2.59-13.6,4.84-2.47,1.22-5.92,3.65-5.3,6.71a.53.53,0,0,0,.16.34.46.46,0,0,0,.27.07,3.63,3.63,0,0,0,1.77-.61,27.21,27.21,0,0,1,10.17-3.3.85.85,0,0,1,.53.06c.37.22.21.78,0,1.15-.78,1.45-3.21,3.7-3.21,5.42a15.94,15.94,0,0,0-1,3.12c-.05.3,0,3.68.52,3.4,1.32-.79,2.08-2.22,3.06-3.4a21,21,0,0,1,1.52-1.59c4.49-4.37,10.24-6.12,16-8.28,1.89-.71,5.05-2.13,6.95-1.06-.75,1.28-2.22,2.22-3.26,3.32a34.69,34.69,0,0,0-4.54,5.18,44.25,44.25,0,0,0-2.61,5.38,16.27,16.27,0,0,0-1.5,5.89c-.06,1.42-.51,3.21-.08,4.59.22.7,1.18,2.76,2,2.92a1.35,1.35,0,0,0,1.31-.64,4.31,4.31,0,0,0,.53-1.45A34.6,34.6,0,0,1,235,266a10.39,10.39,0,0,1,3.72-3.88c1.66-.86.56,3.46.76,4.46a3.18,3.18,0,0,0,.79,1.77c1.23,1.16,1.7-.2,2.14-1.09,1.36-2.78,2.78-6.1,4.8-8.46a67.18,67.18,0,0,1,6.83-6.59c4.28-3.72,11.55-4.57,17.07-4.91a94.43,94.43,0,0,1,18.75.62,25.65,25.65,0,0,1,8.86,2.77,15.8,15.8,0,0,1,5.54,6.75,11.25,11.25,0,0,1,.61,1.9l51-15.9a3.23,3.23,0,0,0,.42-1.34q.19-.8.41-1.59.43-1.52,1-3a57.14,57.14,0,0,1,5.67-11.43c1.92-2.92,5.4-5.42,8.28-7.39,11.07-7.58,25.4-9.11,36.29-.33a13.28,13.28,0,0,1,4.42,5.53,10.87,10.87,0,0,1-.43,7.67,32.89,32.89,0,0,1-3.55,6.88c-.25.34-.51.67-.74,1a6.92,6.92,0,0,0-1.13,4.37,1,1,0,0,0,.31.78c1.4,1.07,5.77-1.63,6.93-2.38,1.87-1.2,3.58-2.64,5.41-3.89s2.05,2.11,2.26,3.45a21.86,21.86,0,0,1-.45,7.88c-.73,3.32-1.57,6.4-2,9.75-.21,1.61.79,3.1,2.47,2.55.77-.25,2.36-2.68,2.94-3.33a16,16,0,0,0,4.2-10.62c0-1.81.3-3.49.46-5.28.4-4.52,9.95,5.58,11,6.74a26,26,0,0,0,4.17,4c1.82,1.22,4.06,1.22,6.17,1.61,1.67.31.72-2.38.39-3-.69-1.22-1.78-2.16-2.55-3.33a74.5,74.5,0,0,1-4.65-8.33c-2.78-5.67-5.16-11.57-8.32-17-1-1.76-3.71-4.37-3.93-6.4-.27-2.51,1.78-2.71,3.75-3.51,3.91-1.58,7.86-4.5,12-1.9a17.82,17.82,0,0,1,4.43,4.26c1,1.23,2.35,2.67,3.83,2.14a3,3,0,0,0,1.6-1.84c1.25-3.07-.54-4.82-1.72-7.54a.61.61,0,0,1-.07-.32.6.6,0,0,1,.34-.38c3.54-2,8.78-1.55,12.52-.31,1.36.45,8.56,4.3,9,1.33a3,3,0,0,0-.74-2,22,22,0,0,0-12.3-8.42c-1.65-.42-3.38-.35-5-1.08-.16-.07-.34-.19-.35-.37a.53.53,0,0,1,.12-.31c2.21-3.28,5.3-5.6,7.45-8.95a8.39,8.39,0,0,0,1.36-6.59c-.09-.39-.28-.85-.68-.91a1.11,1.11,0,0,0-.85.4c-1.57,1.43-3.18,2.75-4.85,4.06a32.27,32.27,0,0,0-3.41,3.09,4.79,4.79,0,0,1-2.37,1.68c2.56-4.75,1.72-10.94.89-16.06-.23-1.44-.75-3.12-2.15-3.55-1.69,2.37-1.76,3.93-2.54,6.64-1.35,4.68-2.6,8.63-5.59,12.51-1.66,2.15-3.2,4.7-5.52,6.22-4.16,2.73-9.3,3.46-14.14,4-4.2.5-8.37.78-12.47-.34s-8.35-2.72-12.66-3.69c-7.43-1.67-15-3.52-22.63-2.7-4.72.51-9.35,1.61-14,2.37-3.72.61-1.93-3.24-1.3-5.45,1.4-4.92,5.76-7.74,10.32-9.41,5.67-2.08,11.69-4.37,16.71-7.74,4.84-3.25,9.89-6,13.82-10.46,2.4-2.74,3.81-6,6.62-8.27,5.54-4.49,11.07-9.37,18.5-10a26.4,26.4,0,0,1,5.56-.11c.34,0,.76.06.94-.23a.78.78,0,0,0,.07-.51,4.14,4.14,0,0,0-2.4-3,12.5,12.5,0,0,0-5.93-.93c-.9,0-4.49,0-5.15.66a10.28,10.28,0,0,1,4.49-2.31,66.29,66.29,0,0,1,12.06-3c.47-.06,1.05-.23,1.12-.7a.91.91,0,0,0-.46-.8c-.6-.41-1-1-1.72-1.26a8.22,8.22,0,0,0-3.59-.2c-.43,0-3.79.06-3.9.3.58-1.19,2.16-2.38,3.12-3.39q1.69-1.78,3.36-3.57c.91-1,2.27-2.31,2.68-3.62a1.74,1.74,0,0,0-.56-2,2.52,2.52,0,0,0-2.27.12,31.15,31.15,0,0,0-9.84,6.37c-2.72,2.6-4.35,5.88-7.1,8.37a15.7,15.7,0,0,1-3.9,2.71c-.43.2-.48.19-.79-.18a1.68,1.68,0,0,1-.28-1.4,5.37,5.37,0,0,1,.56-1.36c1.91-3.72,3.25-7.76,2.64-12-.45-3.19-.77-6-2.15-9-.12-.26-.34-.56-.62-.5s-.34.34-.39.59c-.44,2.11-.81,4.25-1,6.39-.09.83.23,3-.81,3.27-.57.17-1.05-.45-1.24-1-.41-1.23-.54-4.46-2.39-3.89-1.61.49-1.46,3.18-1.67,4.42-.77,4.55-.25,9.18-.94,13.73-1.3,8.53-6.53,14.88-14.44,18.25-1.8.77-3.87,1.8-5.83,1.95a18,18,0,0,1-4.71-.13c-1.53-1.93-1-6.48-1.07-8.91-.06-4.2,0-8.35-.3-12.56-.46-7.52.35-15.74,6.34-21.16a42.18,42.18,0,0,0,6.14-6.29,4.49,4.49,0,0,0,1.2-3.05c-2.24-1.3-5.19.6-7.23,1.56-1.77.83-3.88,2.62-5.81,2.76,0-3.05,4.54-8.31,6.8-10.31,2.53-2.24,4.84-1.88,7.76-3.24A2.92,2.92,0,0,0,397,93.43a2.47,2.47,0,0,0-.9-3.06,7.2,7.2,0,0,0-3.3-1c-.62-.09-7.1.18-7.08,1.19,0-1.3-.71-7.31-3-7-2.5.33-3.24,6.33-3.89,8a18.85,18.85,0,0,1-5,7.39,5.61,5.61,0,0,1-3.59,1.67c-1.63,0-2.44-1.49-3.68-2.35a11.13,11.13,0,0,1-1.3-1.12c-1.25-1.19-2.56-2.91-4-3.81-.4-.24-3.6-1-3.47-.21a16.38,16.38,0,0,0,1.83,5.38,23.36,23.36,0,0,1,2.52,5.16c1.14,3.94,2.3,7.88,3.43,11.82.38,1.31,1.13,5.84,0,6.87-.7.65-1.5.06-2.14-.39-1.14-.82-6.14-4-7.57-2.4a1.13,1.13,0,0,0,0,1.13c.94,2.49,3.37,4.53,5.09,6.51a16.85,16.85,0,0,1,3.46,5.87,22.06,22.06,0,0,1,.21,11c-1.4,6.26-4.64,11.67-7.82,17.14a48.79,48.79,0,0,1-4.14,6.34c-1,1.21-2.61,3.51-4.26,3.72-2,.26-2.84-1.82-3.92-3.11s-2.11-2.63-3.17-3.95c-2.23-2.78-4.54-5.49-7-8.07-1.1-1.15-2.29-2.19-3.46-3.25-5.91-5.29-3.24-16.87-1.1-23.26a26.67,26.67,0,0,1,9.9-12.89c1.36-.91,5.11-2.84,3.4-5.09-.73-1-2.2-.73-3.34-.35s-2.42,1.32-3.49,1.33a3,3,0,0,1,.68-1.56c.51-.75,1.05-1.47,1.6-2.2,2-2.59,3.12-5.44,5.06-8a10.08,10.08,0,0,0,2-3.4,2.32,2.32,0,0,0,.09-.95c-.5-3.23-4.92.23-5.9,1.16a56.17,56.17,0,0,0-4.82,4.63c-.62.75-3.62,3.36-3.42,4.39-1.13-5.83.37-10.68,2.28-16.13a1,1,0,0,0,.05-.72c-.16-.31-.59-.35-.94-.28a6.56,6.56,0,0,0-2.61,1.4l-2.09,1.57a1,1,0,0,1-.51.25c-.81.06-1.81-3-2.11-3.59-.76-1.57-1.77-3-3.59-3.38a.54.54,0,0,0-.74.44,5.74,5.74,0,0,0,.13,3.42c1.54,5,4.47,11.45,3.51,16.74-.89,4.88-2.95,9.44-4.72,14-1.47,3.82-2.57,7.75-4.34,11.43-1,2.18-2.28,7.58-5.29,4.39a48.11,48.11,0,0,1-8.74-13,13.75,13.75,0,0,1-1.62-7.13,32.2,32.2,0,0,1,1.68-7.54,14.05,14.05,0,0,1,2.58-4.67,5.82,5.82,0,0,0,1.46-4.71.33.33,0,0,0-.06-.18.32.32,0,0,0-.19-.09c-1.35-.28-3.27.59-4.4,1.29a17,17,0,0,0-3.58,3.18c-.09.1-.21.21-.34.19s-.24-.22-.28-.38c-2-7.92-2.15-17.05-8-23.37-.29-.31-.67-.63-1.08-.52a1,1,0,0,0-.56.93,39.17,39.17,0,0,0,.95,8.05c.33,1.87.76,3.73.93,5.63.13,1.46.47,3.14,0,4.56a32,32,0,0,1-4.15-3,9.5,9.5,0,0,0-1.9-1.31c-.91-.43-2.78-.7-3.19.57s1.14,2.41,1.84,3.06a32,32,0,0,1,5.07,6.54c2.23,3.46,2.31,6.69,2,10.66-.15,1.73-.71,6.82-3.56,4.74A45.78,45.78,0,0,1,279.83,115.17Z"/><path d="M354,240.07a2.83,2.83,0,0,0,.4-1.22q.18-.72.39-1.44.41-1.38.94-2.73a45.7,45.7,0,0,1,14-19,33.06,33.06,0,0,1,40.78-.17c2.78,2.15,5.3,4.33,5.75,8s.49,8-1.29,11.15c-1.55,2.75-4.52,4.47-5.81,7.39,1.11-.06,1.91-1,2.66-1.84,2.71-3,6.86-4.16,8-8.36.13-.48.09,0,.26-.47a.63.63,0,0,1,.25-.37c.34-.18.65.29.75.66,1.66,6.2,2.81,13.56,1.5,19.92l-1.47,7.13c.26.1.52-.14.69-.37,4.3-5.76,4.35-14,4.29-20.92,0-.81.28-1,1-1.24a2.68,2.68,0,0,1,2.29.48c3.64,2.55,6.64,5.85,9.77,9a57.65,57.65,0,0,0,5,4.55,11.69,11.69,0,0,0,3.55,2.09.44.44,0,0,0,.32,0c.23-.1.13-.45,0-.66-1.54-2.4-3.83-4.29-5.49-6.67a66.78,66.78,0,0,1-4.46-7.57c-2.66-5.16-4.95-10.52-8-15.48-1.67-2.73-4.13-5.61-5.26-8.56a.57.57,0,0,1-.05-.35c.05-.19.28-.26.47-.3,1.36-.29,2.89-.24,4.31-.45a35.6,35.6,0,0,0,7.9-2.63,19.79,19.79,0,0,1,6.43-1.78c4.41-.19,7.82,4.56,9.92,7.91a.94.94,0,0,0,.31.34.31.31,0,0,0,.41-.07.45.45,0,0,0,0-.24,12.45,12.45,0,0,0-3.75-8.48c-3.28-3.08,5.58-3.37,6.93-3.4,5.11-.11,11.49.68,15.89,3.5.17-.6-.32-1.17-.79-1.59-4.65-4.18-11.49-6.38-17.6-7.28a.69.69,0,0,1-.45-.19c-.6-.74,1.69-2.55,2.13-2.94q2.55-2.29,5-4.72a16.29,16.29,0,0,0,3.21-5c.27-.56.38-1.46-.22-1.62l-2.78,2.71c-1.79,1.75-3.59,3.5-5.53,5.08-.58.48-5.18,4.14-5.62,3.62a.66.66,0,0,1-.1-.47c.1-1.76,1.25-3.12,2-4.67a23.44,23.44,0,0,0,2.47-10.73c0-.67-.12-1.33-.21-2a34.89,34.89,0,0,0-.74-4.13c-.37.12-.48.58-.53,1-.46,3.37-.13,7.57-1.8,10.62a45.59,45.59,0,0,1-4.06,6c-1.69,2.19-3.85,5.32-6.17,6.83a28.14,28.14,0,0,1-8.34,3.26c-1.21.32-2.42.62-3.65.84a27.83,27.83,0,0,1-7.71.54,57.56,57.56,0,0,1-8.27-1.62c-5.48-1.44-10.83-3.36-16.38-4.55-5-1.06-8.91-2-14-1.9a59,59,0,0,0-18.33,3.31c-1.19.43-2.38,1.27-3.69,1.13-3.64-.4,1.25-13,1.94-14.43a15.57,15.57,0,0,1,1.71-3c1.9-2.4,5.56-2.75,8.26-3.73a67.15,67.15,0,0,0,12.19-6.35,91.38,91.38,0,0,0,11.61-8.47,100.31,100.31,0,0,0,7.55-7.74c.66-.71,1.33-1.42,2-2.1a55.59,55.59,0,0,1,5.79-4.67,29.71,29.71,0,0,1,20.21-6.16,3.78,3.78,0,0,0,.46.06.37.37,0,0,0,.25-.06c.16-.13,0-.39-.17-.51a7.6,7.6,0,0,0-4.74-1.06c-4,.06-8,.58-11.42,2.61-.21.13.16-.21-.08-.16a5.2,5.2,0,0,1,1.44-2.07,25.72,25.72,0,0,1,7.14-5,28,28,0,0,1,5.81-2,57.21,57.21,0,0,1,5.78-.51.29.29,0,0,0,.2-.08c.11-.14-.09-.31-.25-.37a14.16,14.16,0,0,0-5.52-.14,19.3,19.3,0,0,0-5.7,1.55c-.12.06.08-.12-.05-.11-.09-.14,0-.34.06-.49a25.35,25.35,0,0,1,3.27-4.9,30.75,30.75,0,0,1,4.55-4.54c.75-.57,1.56-1,2.28-1.64.32-.28,1.6-1.83,1.91-1.81-1.09-.09-2.57.76-3.5,1.32a33.33,33.33,0,0,0-6,4.38,40.38,40.38,0,0,0-4.24,5.49,25.88,25.88,0,0,1-3.91,3.85c-1.68,1.5-3.39,3-5.08,4.41a15.1,15.1,0,0,1-3.74,2.46c-.41.18-.46.18-.76-.16a1.46,1.46,0,0,1-.27-1.28,4.74,4.74,0,0,1,.53-1.24A39.12,39.12,0,0,0,414.3,132c.7-2.55,1.68-4.78,2-7.43a38.27,38.27,0,0,0,.11-8.27,1,1,0,0,0-.15-.52.35.35,0,0,0-.48-.1.51.51,0,0,0-.13.33c-.47,3.63-.73,7.42-2,10.88q-.31.87-.7,1.7c-.05.11-.52,1.21-.64.58s-.22-1.21-.31-1.83a27,27,0,0,0-1.62-6.41,2.71,2.71,0,0,0-1.45-1.77c.2,6,1.11,12.46-.39,18.34a26,26,0,0,1-8.6,13.69c-3.57,2.92-6.75,5.75-11,7.47a19.79,19.79,0,0,1-5.59,1.77c-1.79.13-3.58.13-5.38.2-.74,0-1.21.23-1.37-.64a5.23,5.23,0,0,1,.25-1.83l.6-3.25c.84-4.59.37-9.47.07-14.12-.2-3-.45-6-.68-9-.22-2.81-.68-5.59.32-8.28l1-2.71a21.15,21.15,0,0,1,3.74-6.78,36.84,36.84,0,0,1,3.8-4c.78-.7,1.55-1.51,2.37-2.16a15.14,15.14,0,0,1,2.21-1.71c-.17.09-.7.06-.94.14-.42.14-.82.29-1.23.45a15.51,15.51,0,0,0-4.73,2.94c-.68.61-1.3,1.29-1.91,2L379.33,114c-.25.28-1.23,1.69-1.58,1.47-.16-.1-.17-.54-.2-.7a15.38,15.38,0,0,1-.06-2.45,18.59,18.59,0,0,1,2.29-8.29,19.18,19.18,0,0,1,4.58-6c3.11-2.68,6.51-5.2,10.46-6.34-.12-.2-.41-.19-.64-.16a35.3,35.3,0,0,0-7.31,1.74,17.63,17.63,0,0,0-1.68.77l-.81.45c-.16.09-.55.47-.65.2a2.53,2.53,0,0,1,0-.81q0-.41,0-.83,0-.8-.06-1.61a27.55,27.55,0,0,0-.47-3.24,1,1,0,0,0-.33-.66,1.93,1.93,0,0,0-.14.86,16.88,16.88,0,0,1-1.27,6.1c-1.72,4.17-5.39,6.75-8.5,10-.81.85-1.87,1.75-3,1.46a3.06,3.06,0,0,1-1.19-.73c-2.42-2.12-4.14-4.91-5.94-7.58-.69-1-1.63-2.15-2.85-2l1.87,3.77a81.5,81.5,0,0,1,4.78,10.93,40.37,40.37,0,0,1,2.07,9.36c.23,3,.72,5.93.69,8.93,0,.39-.24.65-.63.58a1.91,1.91,0,0,1-.95-.66,52.67,52.67,0,0,0-6.23-5.62,6,6,0,0,0-1.72-1,3.2,3.2,0,0,0-1.42-.26c0,.36.4.57.71.75a8.54,8.54,0,0,1,1,.72,23.39,23.39,0,0,1,4.39,4.32,51.06,51.06,0,0,1,3.05,4.76c1.39,2.42,1.4,5.36,1.13,8.07a35,35,0,0,1-2.26,8.32c-1.12,3.11-2.36,6.25-3.74,9.25a48,48,0,0,1-5.32,8.31c-1.38,1.86-2.92,3.6-4.42,5.36s-2.57,3.62-4,5.28a1.18,1.18,0,0,1-1.42.42,1.48,1.48,0,0,1-.35-.34l-4.49-5.49a132.08,132.08,0,0,0-9.46-10.63c-1.05-1-2.19-2-3.32-3A27.68,27.68,0,0,1,327,155.4a5.6,5.6,0,0,1-1.09-2.91c-.92-5.76-.52-11,.25-16.74a40.07,40.07,0,0,1,3.47-11.32,24,24,0,0,1,11.73-11.64,1,1,0,0,0,.57-.47A11.53,11.53,0,0,0,336.6,114c-.61.37-1.39,1.2-2.09,1.31-1,.15-.87-.69-.61-1.28a41.65,41.65,0,0,1,2-3.71l2.4-4.14c1.65-2.83,3.72-5.4,5.1-8.38.08-.17.12-.43-.06-.49a.33.33,0,0,0-.25.05c-3,1.57-4.65,4.31-6.55,7A58,58,0,0,0,331.2,113a5.91,5.91,0,0,1-1.4,1.91.9.9,0,0,1-.27-.76c-.07-2.62-.22-5.23-.24-7.85a41.87,41.87,0,0,1,.53-7.58,25.12,25.12,0,0,1,.93-3.68q.31-.91.7-1.8a8.21,8.21,0,0,0,.69-1.43.72.72,0,0,0-.49.15c-.24.16-.47.34-.69.52a14.76,14.76,0,0,0-3.46,3.92c-.06.1-.21-.09-.32-.08-.92-2.51-2.22-4.77-3.38-7.18a3,3,0,0,0-1.12-1.45c-.09,0-.24-.07-.28,0a.21.21,0,0,0,0,.14c1.53,4.79,3.53,9.48,4.29,14.48a20.8,20.8,0,0,1-1.47,10.5c-2,5.09-3.47,10.39-5.53,15.45a76.72,76.72,0,0,0-2.7,7.4c-.74,2.52-1.17,5.08-1.89,7.6a.64.64,0,0,1-.27.43.61.61,0,0,1-.51-.06c-2.82-1.23-5.06-4-7-6.26a53.82,53.82,0,0,1-5.83-7.94,25.56,25.56,0,0,1-3.4-7.7c-.64-3.27-1.17-6.71-.45-10s2.88-6.38,5.06-8.93c.46-.54,1-1,1.46-1.46a7.19,7.19,0,0,0,.78-1.52,7.77,7.77,0,0,0-3.13,2.49c-1.67,1.89-3.51,3.64-5.28,5.45a3.51,3.51,0,0,1-.91-1.9,102.26,102.26,0,0,0-2.37-11.12,66,66,0,0,0-2.72-8.14,2.26,2.26,0,0,0-1.1-1.49c.08,0,.48,3.29.52,3.56a56.79,56.79,0,0,1,.79,5.66,57.84,57.84,0,0,1,.33,8.08c0,.19-.11,0-.28.09-1.6-1.63-3.3-3.21-4.83-4.91a6.74,6.74,0,0,0-4.47-2.11c-.17,0-.42,0-.41.19a.31.31,0,0,0,.14.21c1.78,1.48,3.34,3.24,5,4.88a15,15,0,0,1,3.35,5.44,18.32,18.32,0,0,1,.61,6.55c0,1.67-.17,3.34-.29,5a41.13,41.13,0,0,0,0,7.59c0,.35.36,1.24,0,1.46s-.67-.06-.89-.17a13.35,13.35,0,0,1-1.68-1.18,34.64,34.64,0,0,1-2.73-2.18,50.83,50.83,0,0,1-4.77-4.84,119.3,119.3,0,0,1-7.64-9.33,41,41,0,0,1-3.09-5.07c-.46-.91-.88-1.85-1.26-2.8-.16-.42-.23-.82-.35-1.24-.07-.25-.56-1-.52-1.21-.61,2.71,1,5.65,2.44,7.84,2.29,3.49,4.67,6.9,6.9,10.42-.5.28-1.12,0-1.63-.3a21.82,21.82,0,0,0-3.13-1.29,2.83,2.83,0,0,0-.91-.22c-.65,0,.08.69.23.86a10.35,10.35,0,0,0,1.59,1.44c1.8,1.42,3.75,2.63,5.52,4.11s3.57,3.17,5.28,4.84a47.92,47.92,0,0,1,4.92,5.77c2.44,3.25,4.14,7,6.5,10.37,3.37,4.76,7.91,8.61,12.25,12.45,5.59,5,11.29,10.46,15.29,16.79a48,48,0,0,1,6.54,15.33c1.1,5.09,1,10.23.76,15.39a53.74,53.74,0,0,1-2.71,15.4,32.48,32.48,0,0,1-2.15,4.92,5.63,5.63,0,0,1-1.48,2c-1,.76-1.55.21-2.33-.43-4.83-3.93-10.69-5.76-15.8-9.2a38.94,38.94,0,0,1-12.3-13.19c-1.3-2.35-1.59-5.74-1.93-8.39a64.72,64.72,0,0,1-.49-8.9c.06-6.32.72-12.66.78-18.95q0-2,0-4c-.07-2.64-.24-5.29-.53-7.92-.18-1.67-.5-3.5-1.8-4.56a.34.34,0,0,0-.24-.1c-.12,0-.19.14-.23.26a4.75,4.75,0,0,0-.15,2.66c.68,6.47-.11,12.69-1.4,19-.21,1.06-.46,2.11-.74,3.15-.17.62-.36,2-1.1,2.22-.35.11-.65-.27-.81-.6-.9-1.87-1.64-3.81-2.55-5.68a29,29,0,0,0-2.57-4.41c-1.78-2.46-3.92-4.74-5.89-7-2.23-2.56-4.8-4.75-7.08-7.24a50.06,50.06,0,0,1-4.65-5.1,23.61,23.61,0,0,1-2.8-5.64,46.08,46.08,0,0,1-2.19-12.31c0-.33-.19-.78-.52-.7a.51.51,0,0,0-.26.21,1.58,1.58,0,0,0-.39,1.17c-.2,3.35,0,6.74.09,10.09,0,1.26-.58.64-1.2,0a18,18,0,0,1-1.26-1.44c-1.28-1.58-2.47-3.23-3.79-4.77-1.15-1.33-2.6-2.39-3.66-3.83a8.47,8.47,0,0,1-1.65-5.06c-.07-1.2-.88,0-1.09.43a11.7,11.7,0,0,0-.82,3.5.4.4,0,0,1-.11.27.37.37,0,0,1-.22.06A7.89,7.89,0,0,1,239,128a23.59,23.59,0,0,0-2.87-.6c-.56-.08-3.55-.77-3,.31.16.33.74.56,1,.74q1.59,1,3.12,2.17a41.14,41.14,0,0,1,5.7,5c.74.79,1.43,1.64,2.11,2.48l4.88,6c2.56,3.16,4.79,6.82,7.83,9.63.12.11.24.28.14.41a.33.33,0,0,1-.26.09c-3.43.1-6.6-1.15-9.94-1.74a51.79,51.79,0,0,0-7.19-.76c-1.42-.05-2.83-.16-4.25-.2a14.4,14.4,0,0,1-3.65-.13,7.18,7.18,0,0,1-3.17-2.25,22.67,22.67,0,0,1-2.54-3.14,30.18,30.18,0,0,1-2.27-3.9c-.53-1.23-1.17-2.41-1.24-.17-.09,2.78,1.81,5.23,3.12,7.53.69,1.22.42,2.3-1.16,2.06l-6.76-1a29.42,29.42,0,0,0-7.49-.23c-2.3.25-4.53.32-6.6,1.5-.31.18-.64.56-.41.82a.62.62,0,0,0,.47.15c3.91.13,7.77,0,11.65.46.68.07,5.81.86,4.26,2.22a4.67,4.67,0,0,1-1,.6,18,18,0,0,0-4.28,3.34,12.54,12.54,0,0,0-3.09,5.29,1.28,1.28,0,0,0-.07.7c.26,0,.45-.22.62-.42,6-7.33,15.06-9.39,24.11-8.06a68.47,68.47,0,0,1,11.18,2.76l.18.06c4.33,1.42,8.91,2.74,12.66,5.43a39.66,39.66,0,0,1,10.09,11.11c3.77,5.89,4.73,13,6.34,19.62a118.64,118.64,0,0,0,8.11,23c.21.45.45.91.64,1.36s2.09,4.41,1.45,4.63a19.71,19.71,0,0,1-4.51.44q-2.41.22-4.84.26a64.28,64.28,0,0,1-9.47-.56,30.1,30.1,0,0,1-8-1.85,28.12,28.12,0,0,1-6.34-4.14,37.74,37.74,0,0,1-6.77-7.19c-2.63-3.73-5.23-8-6.07-12.53-.1-.56-.22-2-.93-1.44-.34.28-.36,1.07-.39,1.46a18.72,18.72,0,0,0,.11,3.09,30.72,30.72,0,0,0,2.48,8.94c.27.68.53,1.36.86,2s1,1.81-.29,1.54a15.14,15.14,0,0,1-2.72-1.1c-1.18-.51-2.3-1.25-3.43-1.87a29.33,29.33,0,0,1-7.34-6,41.28,41.28,0,0,1-7.81-12.22c-.28-.68-1.07-3.25-1.89-2.61-.44.34-.41,1.69-.41,2.2a17.68,17.68,0,0,0,.44,3.59,24,24,0,0,0,2.2,6.83,35.17,35.17,0,0,0,6.9,8.4c1.11,1,2.26,1.93,3.38,2.89a31.83,31.83,0,0,1,3.37,3c.15.17.94,1,.31,1a46.23,46.23,0,0,1-6.51-1c-1.76-.3-3.52-.59-5.3-.78a53.14,53.14,0,0,0-9.7-.15c-3.32.25-7.16,1.32-9.58,3.73-.93.93-2.28,2.32-2.58,3.63a.28.28,0,0,0,0,.18c.06.13.26.09.38,0,1.69-.87,3.38-1.79,5.1-2.63a12.75,12.75,0,0,1,3.44-1.42,26,26,0,0,1,6.4-.13,23.4,23.4,0,0,1,2.9.45q.72.16,1.43.36c.2.06,1.15.22,1.08.5a.21.21,0,0,1-.11.12,3,3,0,0,1-.52.2,40.64,40.64,0,0,0-13.55,8.87c-.21.21-.93,1-.22,1.17,1,.21,2.5-1.29,3.28-1.78,1.14-.72,2.3-1.39,3.5-2a38.21,38.21,0,0,1,7.47-3,32.24,32.24,0,0,1,13.53-.53c4.5.66,9.17,2.82,13.05,5.15,2,1.2,3.9,2.52,5.83,3.81s3.43,3,5.17,4.37a.77.77,0,0,1,.3.37c.14.55-7.65,2.72-8.47,3a87.68,87.68,0,0,1-9.62,2.11c-3.46.56-6.62,1.12-10.11.44a11.66,11.66,0,0,1-5.21-2.28c-1.21-1-2.31-2.17-3.42-3.27-.31-.31-.76-.75-1.23-.68a7.1,7.1,0,0,0,1.11,2.13,13.71,13.71,0,0,0,2.53,3c.49.45,1.07.84,1.54,1.32.24.24.93.83,1,1.15s-.35.42-.63.44a62.31,62.31,0,0,0-9.35,1.16c-2.81.69-5.59,1.78-8.34,2.7a17,17,0,0,0-6.92,4,.74.74,0,0,0-.24.38.28.28,0,0,0,.23.33.39.39,0,0,0,.16,0,42.47,42.47,0,0,1,7.59-3,26,26,0,0,1,8.36-.66,4.4,4.4,0,0,1,2,.53,13.85,13.85,0,0,0-5.57,3.9,23.27,23.27,0,0,0-2.24,2.71,6.47,6.47,0,0,0-.83,1.53c-.11.31-.08,1.27-.24,1.46a29.19,29.19,0,0,1,6.23-5.65,41,41,0,0,1,9.84-4.49,39.29,39.29,0,0,1,8.09-1.66,27.66,27.66,0,0,1,7.46,0c1.73.31-.3.95-1,1.36a23.14,23.14,0,0,0-4.93,3.67,41.82,41.82,0,0,0-7.2,10,31.45,31.45,0,0,0-3.36,8.28,11.1,11.1,0,0,0-.34,2.71,20.92,20.92,0,0,1,.42,2.09,43.25,43.25,0,0,1,8.61-16,18.81,18.81,0,0,1,3.75-3.41,19.14,19.14,0,0,1,2.18-1.3c.57-.29,1.46-.79,1.47.1,0,.46-.81,1.34-1,1.74a20.8,20.8,0,0,0-1.06,2.06,9.94,9.94,0,0,0-1,4.58c0,.21.1.5.31.48a20.41,20.41,0,0,1,2.18-4.3c1-1.74,2-3.48,3.13-5.13,2.18-3.21,4.87-6.28,8.47-7.9a49.46,49.46,0,0,1,17.45-4.27,95.55,95.55,0,0,1,18,.57,25.6,25.6,0,0,1,8.5,2.52,11,11,0,0,1,4.66,4.87,10.52,10.52,0,0,1,.65,1.26,9.85,9.85,0,0,1,.58,1.72Z"/></g><g id="text"><rect class="cls-1" x="53" y="222" width="129" height="31" rx="6" ry="6"/><text class="cls-2" transform="translate(135.18 231.61)">BRANCHES<tspan class="cls-3"><tspan x="-23.54" y="9.6">D</tspan><tspan class="cls-4" x="-17.62" y="9.6">r</tspan><tspan x="-15.1" y="9.6">eam &amp; Di</tspan><tspan class="cls-5" x="18.24" y="9.6">r</tspan><tspan x="20.75" y="9.6">ection</tspan></tspan><tspan class="cls-6"><tspan x="-68.52" y="16.8">E.g., Dance</tspan><tspan class="cls-7" x="-37.5" y="16.8">r</tspan><tspan x="-36.06" y="16.8">, Sydne</tspan><tspan class="cls-7" x="-16.16" y="16.8">y</tspan><tspan x="-13.82" y="16.8">, </tspan><tspan class="cls-5" x="-10.49" y="16.8">r</tspan><tspan x="-8.6" y="16.8">oad trip, swimming </tspan></tspan></text></g></svg>