<svg id="template" xmlns="http://www.w3.org/2000/svg" width="655" height="493" viewBox="0 0 655 493"><title>08 STORM</title><path d="M319.14,413.591l-.028,0C319.125,413.646,319.133,413.625,319.14,413.591Z" fill="none" stroke="#000" stroke-linecap="round" stroke-linejoin="round"/><path d="M58.244,124.116c1.071-1.5,5.781-2.357,5.781-2.357s.738,4.73-.333,6.235a3.344,3.344,0,1,1-5.449-3.878Z" fill="none" stroke="#87b26b" stroke-linecap="round" stroke-linejoin="round"/><path d="M72.321,124.116c1.071-1.5,5.781-2.357,5.781-2.357s.738,4.73-.333,6.235a3.344,3.344,0,1,1-5.449-3.878Z" fill="none" stroke="#87b26b" stroke-linecap="round" stroke-linejoin="round"/><path d="M65.581,136.62c1.071-1.5,5.781-2.357,5.781-2.357s.738,4.73-.333,6.235a3.344,3.344,0,1,1-5.449-3.878Z" fill="none" stroke="#87b26b" stroke-linecap="round" stroke-linejoin="round"/><path d="M86.4,124.115c1.071-1.5,5.781-2.357,5.781-2.357s.738,4.73-.333,6.235a3.344,3.344,0,1,1-5.449-3.878Z" fill="none" stroke="#87b26b" stroke-linecap="round" stroke-linejoin="round"/><path d="M78.42,136.62c1.071-1.5,5.781-2.357,5.781-2.357s.738,4.73-.333,6.235a3.344,3.344,0,1,1-5.449-3.878Z" fill="none" stroke="#87b26b" stroke-linecap="round" stroke-linejoin="round"/><path d="M91.259,136.62c1.071-1.5,5.781-2.357,5.781-2.357s.738,4.73-.333,6.235a3.344,3.344,0,1,1-5.449-3.878Z" fill="none" stroke="#87b26b" stroke-linecap="round" stroke-linejoin="round"/><polyline points="118.254 119.481 115.37 124.855 125.637 127.451 96.453 156.482 110.218 130.835 99.952 128.24 108.869 119.368" fill="none" stroke="#87b26b" stroke-linecap="round" stroke-linejoin="round"/><path d="M123.256,119.339a13.4,13.4,0,1,0,0-26.8c-.081,0-.162,0-.243.006A23.449,23.449,0,0,0,80.5,75.881a13.4,13.4,0,0,0-17.442,18.4,13.4,13.4,0,0,0,6.6,25.064h53.6Z" fill="none" stroke="#87b26b" stroke-linecap="round" stroke-linejoin="round"/><path d="M319.14,413.591l-.028,0C319.125,413.646,319.133,413.625,319.14,413.591Z" fill="none" stroke="#000" stroke-linecap="round" stroke-linejoin="round" stroke-dasharray="2 4"/><path d="M319.14,413.591c-.007.034-.015.054-.028,0Z" fill="none" stroke="#000" stroke-linecap="round" stroke-linejoin="round" stroke-dasharray="2 4"/><rect x="119" y="34" width="129" height="31" rx="6" ry="6" fill="#87b26b"/><path d="M123.9,42.43a1.26,1.26,0,0,0,.532.46,1.59,1.59,0,0,0,.668.148,1.356,1.356,0,0,0,.392-.06,1.18,1.18,0,0,0,.364-.18.984.984,0,0,0,.268-.3.788.788,0,0,0,.1-.408.612.612,0,0,0-.208-.5,1.806,1.806,0,0,0-.516-.288q-.308-.116-.672-.224a2.733,2.733,0,0,1-.672-.3,1.641,1.641,0,0,1-.516-.516,1.606,1.606,0,0,1-.208-.876,1.511,1.511,0,0,1,.448-1.04,1.884,1.884,0,0,1,.6-.388,2.218,2.218,0,0,1,.876-.156,3.074,3.074,0,0,1,.888.128,1.528,1.528,0,0,1,.744.52l-.624.568a1.035,1.035,0,0,0-.408-.36,1.3,1.3,0,0,0-.6-.136,1.454,1.454,0,0,0-.532.084.955.955,0,0,0-.34.216.76.76,0,0,0-.18.284.869.869,0,0,0-.052.28.714.714,0,0,0,.208.552,1.616,1.616,0,0,0,.516.312,6.183,6.183,0,0,0,.672.216,2.865,2.865,0,0,1,.672.268,1.564,1.564,0,0,1,.516.464,1.366,1.366,0,0,1,.208.8,1.692,1.692,0,0,1-.156.736,1.631,1.631,0,0,1-.42.552,1.859,1.859,0,0,1-.624.344,2.408,2.408,0,0,1-.768.12,2.794,2.794,0,0,1-1.032-.192,1.694,1.694,0,0,1-.776-.592Z" fill="#fff"/><path d="M129.36,38.67h-1.824v-.72h4.416v.72h-1.824v4.944h-.768Z" fill="#fff"/><path d="M135.368,43.758a3.054,3.054,0,0,1-1.192-.228,2.77,2.77,0,0,1-.932-.628,2.9,2.9,0,0,1-.608-.944,3.25,3.25,0,0,1,0-2.352,2.9,2.9,0,0,1,.608-.944,2.77,2.77,0,0,1,.932-.628,3.229,3.229,0,0,1,2.384,0,2.775,2.775,0,0,1,.932.628,2.918,2.918,0,0,1,.608.944,3.257,3.257,0,0,1,0,2.352,2.916,2.916,0,0,1-.608.944,2.775,2.775,0,0,1-.932.628A3.057,3.057,0,0,1,135.368,43.758Zm0-.72a2.055,2.055,0,0,0,1.552-.664,2.132,2.132,0,0,0,.432-.716,2.6,2.6,0,0,0,0-1.752,2.142,2.142,0,0,0-.432-.716,2.121,2.121,0,0,0-3.1,0,2.133,2.133,0,0,0-.432.716,2.595,2.595,0,0,0,0,1.752,2.123,2.123,0,0,0,.432.716,2.057,2.057,0,0,0,1.552.664Z" fill="#fff"/><path d="M139.424,37.95h1.992a2.332,2.332,0,0,1,.9.148,1.524,1.524,0,0,1,.556.376,1.279,1.279,0,0,1,.284.512,2.024,2.024,0,0,1,.08.548,1.459,1.459,0,0,1-.1.524,1.475,1.475,0,0,1-.276.456,1.573,1.573,0,0,1-.44.344,1.536,1.536,0,0,1-.58.172l1.608,2.584h-.96l-1.44-2.5h-.856v2.5h-.768Zm.768,2.5H141.2a2.76,2.76,0,0,0,.444-.036,1.192,1.192,0,0,0,.392-.132.728.728,0,0,0,.276-.276,1.105,1.105,0,0,0,0-.936.729.729,0,0,0-.276-.276,1.192,1.192,0,0,0-.392-.132,2.76,2.76,0,0,0-.444-.036h-1.008Z" fill="#fff"/><path d="M144.256,37.95H145.4l1.8,4.288h.032l1.784-4.288h1.144v5.664h-.768V38.958h-.016l-1.912,4.656h-.512l-1.912-4.656h-.016v4.656h-.768Z" fill="#fff"/><path d="M124.344,52.687h2.64v.528h-3.216V47.55h.576Z" fill="#fff"/><path d="M129.976,50.918v-.1a.852.852,0,0,0-.96-.968,1.653,1.653,0,0,0-1.144.44l-.32-.376a2.113,2.113,0,0,1,1.584-.544,1.71,1.71,0,0,1,.524.08,1.185,1.185,0,0,1,.436.244,1.215,1.215,0,0,1,.3.412,1.43,1.43,0,0,1,.112.592v1.672q0,.216.02.452t.044.388h-.512a2.921,2.921,0,0,1-.036-.3c-.008-.107-.012-.211-.012-.312h-.016a1.433,1.433,0,0,1-.548.54,1.665,1.665,0,0,1-.772.164,1.7,1.7,0,0,1-.48-.068,1.211,1.211,0,0,1-.412-.208,1.059,1.059,0,0,1-.288-.344,1,1,0,0,1-.108-.476,1.023,1.023,0,0,1,.236-.716,1.444,1.444,0,0,1,.592-.388,2.918,2.918,0,0,1,.76-.16q.4-.031.74-.032Zm-.272.432c-.133,0-.3.006-.5.02a2.9,2.9,0,0,0-.576.1,1.274,1.274,0,0,0-.472.236.539.539,0,0,0-.2.44.623.623,0,0,0,.076.316.63.63,0,0,0,.2.216.86.86,0,0,0,.284.12,1.406,1.406,0,0,0,.316.036,1.2,1.2,0,0,0,.5-.1,1.021,1.021,0,0,0,.568-.644,1.589,1.589,0,0,0,.068-.468v-.272Z" fill="#fff"/><path d="M131.784,50.638q0-.248-.012-.5t-.02-.664h.52v.7h.016a1.15,1.15,0,0,1,.16-.292,1.257,1.257,0,0,1,.252-.252,1.237,1.237,0,0,1,.344-.18,1.345,1.345,0,0,1,.444-.068,1.424,1.424,0,0,1,.392.048l-.1.52a.885.885,0,0,0-.3-.04,1.082,1.082,0,0,0-.52.116,1.15,1.15,0,0,0-.36.3,1.242,1.242,0,0,0-.212.388,1.286,1.286,0,0,0-.068.4v2.112h-.528Z" fill="#fff"/><path d="M134.527,53.966a1.692,1.692,0,0,0,.6.5,1.809,1.809,0,0,0,.828.188,1.783,1.783,0,0,0,.68-.116,1.185,1.185,0,0,0,.452-.316,1.215,1.215,0,0,0,.248-.468,2.086,2.086,0,0,0,.076-.572V52.51H137.4a1.438,1.438,0,0,1-.624.544,1.92,1.92,0,0,1-.776.16,2.015,2.015,0,0,1-.764-.144,1.943,1.943,0,0,1-.62-.4,1.814,1.814,0,0,1-.416-.6,1.891,1.891,0,0,1-.152-.76,2,2,0,0,1,.144-.76,1.957,1.957,0,0,1,.4-.616,1.781,1.781,0,0,1,.6-.412,1.933,1.933,0,0,1,.764-.148,2.162,2.162,0,0,1,.356.032,1.7,1.7,0,0,1,.376.112,1.726,1.726,0,0,1,.716.576h.016V49.47h.528v3.712a3.038,3.038,0,0,1-.076.648,1.6,1.6,0,0,1-.3.632,1.689,1.689,0,0,1-.612.48,2.338,2.338,0,0,1-1.024.192,2.573,2.573,0,0,1-1-.184,2.319,2.319,0,0,1-.8-.568Zm.1-2.672a1.44,1.44,0,0,0,.108.556,1.467,1.467,0,0,0,.3.456,1.433,1.433,0,0,0,.44.312,1.29,1.29,0,0,0,.548.116,1.467,1.467,0,0,0,1.008-.4,1.271,1.271,0,0,0,.308-.452,1.448,1.448,0,0,0,.1-.592,1.594,1.594,0,0,0-.1-.556,1.336,1.336,0,0,0-.28-.456,1.363,1.363,0,0,0-.448-.312,1.458,1.458,0,0,0-.592-.116,1.3,1.3,0,0,0-.548.116,1.449,1.449,0,0,0-.44.312,1.475,1.475,0,0,0-.3.456A1.44,1.44,0,0,0,134.624,51.294Z" fill="#fff"/><path d="M139.5,51.486a1.6,1.6,0,0,0,.136.528,1.381,1.381,0,0,0,.72.712,1.3,1.3,0,0,0,.52.1,1.332,1.332,0,0,0,.732-.2,1.461,1.461,0,0,0,.468-.452l.408.336a2.032,2.032,0,0,1-.74.608,2.072,2.072,0,0,1-.868.184,2,2,0,0,1-.772-.148,1.808,1.808,0,0,1-.612-.412,1.953,1.953,0,0,1-.4-.624,2.035,2.035,0,0,1-.148-.784,2.1,2.1,0,0,1,.144-.784,1.894,1.894,0,0,1,.4-.624,1.834,1.834,0,0,1,.6-.412,1.864,1.864,0,0,1,.744-.148,1.83,1.83,0,0,1,.76.152,1.7,1.7,0,0,1,.564.4,1.734,1.734,0,0,1,.348.592,2.156,2.156,0,0,1,.12.724v.24Zm2.544-.432a1.124,1.124,0,0,0-1.216-1.2,1.274,1.274,0,0,0-.5.1,1.4,1.4,0,0,0-.42.268,1.352,1.352,0,0,0-.288.384.993.993,0,0,0-.108.448Z" fill="#fff"/><path d="M143.631,50.638q0-.248-.012-.5t-.02-.664h.52v.7h.016a1.15,1.15,0,0,1,.16-.292,1.257,1.257,0,0,1,.252-.252,1.237,1.237,0,0,1,.344-.18,1.345,1.345,0,0,1,.444-.068,1.424,1.424,0,0,1,.392.048l-.1.52a.885.885,0,0,0-.3-.04,1.082,1.082,0,0,0-.52.116,1.15,1.15,0,0,0-.36.3,1.242,1.242,0,0,0-.212.388,1.286,1.286,0,0,0-.068.4v2.112h-.528Z" fill="#fff"/><path d="M148.647,47.55h.576v2.456h3.088V47.55h.576v5.664h-.576v-2.68h-3.088v2.68h-.576Z" fill="#fff"/><path d="M156.631,50.918v-.1a.852.852,0,0,0-.96-.968,1.653,1.653,0,0,0-1.144.44l-.32-.376a2.113,2.113,0,0,1,1.584-.544,1.71,1.71,0,0,1,.524.08,1.185,1.185,0,0,1,.436.244,1.215,1.215,0,0,1,.3.412,1.43,1.43,0,0,1,.112.592v1.672q0,.216.02.452t.044.388h-.512a2.921,2.921,0,0,1-.036-.3c-.008-.107-.012-.211-.012-.312h-.016a1.433,1.433,0,0,1-.548.54,1.665,1.665,0,0,1-.772.164,1.7,1.7,0,0,1-.48-.068,1.211,1.211,0,0,1-.412-.208,1.059,1.059,0,0,1-.288-.344,1,1,0,0,1-.108-.476,1.023,1.023,0,0,1,.236-.716,1.444,1.444,0,0,1,.592-.388,2.918,2.918,0,0,1,.76-.16q.4-.031.74-.032Zm-.272.432c-.133,0-.3.006-.5.02a2.9,2.9,0,0,0-.576.1,1.274,1.274,0,0,0-.472.236.539.539,0,0,0-.2.44.623.623,0,0,0,.076.316.63.63,0,0,0,.2.216.86.86,0,0,0,.284.12,1.406,1.406,0,0,0,.316.036,1.2,1.2,0,0,0,.5-.1,1.021,1.021,0,0,0,.568-.644,1.589,1.589,0,0,0,.068-.468v-.272Z" fill="#fff"/><path d="M158.439,50.638q0-.248-.012-.5t-.02-.664h.52v.7h.016a1.15,1.15,0,0,1,.16-.292,1.257,1.257,0,0,1,.252-.252,1.237,1.237,0,0,1,.344-.18,1.345,1.345,0,0,1,.444-.068,1.424,1.424,0,0,1,.392.048l-.1.52a.885.885,0,0,0-.3-.04,1.082,1.082,0,0,0-.52.116,1.15,1.15,0,0,0-.36.3,1.242,1.242,0,0,0-.212.388,1.286,1.286,0,0,0-.068.4v2.112h-.528Z" fill="#fff"/><path d="M164.631,53.214H164.1V52.59h-.017a1.373,1.373,0,0,1-.3.328,1.9,1.9,0,0,1-.368.224,1.773,1.773,0,0,1-.4.128,2.047,2.047,0,0,1-.388.04,2.126,2.126,0,0,1-.8-.148,1.857,1.857,0,0,1-1.04-1.036,2.151,2.151,0,0,1,0-1.568,1.857,1.857,0,0,1,1.04-1.036,2.117,2.117,0,0,1,.8-.148,2.008,2.008,0,0,1,.388.04,1.748,1.748,0,0,1,.4.128,1.9,1.9,0,0,1,.368.224,1.373,1.373,0,0,1,.3.328h.017V47.167h.527Zm-3.416-1.872a1.673,1.673,0,0,0,.1.584,1.4,1.4,0,0,0,.284.472,1.337,1.337,0,0,0,.444.316,1.431,1.431,0,0,0,.588.116,1.529,1.529,0,0,0,.6-.116,1.465,1.465,0,0,0,.476-.316,1.429,1.429,0,0,0,.313-.472,1.587,1.587,0,0,0,0-1.168,1.439,1.439,0,0,0-.312-.472,1.481,1.481,0,0,0-.476-.316,1.528,1.528,0,0,0-.6-.116,1.431,1.431,0,0,0-.588.116,1.351,1.351,0,0,0-.444.316,1.408,1.408,0,0,0-.284.472A1.675,1.675,0,0,0,161.215,51.342Z" fill="#fff"/><path d="M167.767,50.358a.975.975,0,0,0-.319-.368.851.851,0,0,0-.488-.136,1.26,1.26,0,0,0-.276.032.858.858,0,0,0-.252.1.556.556,0,0,0-.18.172.462.462,0,0,0-.068.256.424.424,0,0,0,.185.384,1.8,1.8,0,0,0,.552.208l.536.128a1.279,1.279,0,0,1,.652.356.923.923,0,0,1,.26.668,1.055,1.055,0,0,1-.124.524,1.068,1.068,0,0,1-.328.36,1.409,1.409,0,0,1-.468.2,2.281,2.281,0,0,1-.536.064,1.977,1.977,0,0,1-.8-.164,1.49,1.49,0,0,1-.637-.564l.456-.312a1.251,1.251,0,0,0,.4.408,1.075,1.075,0,0,0,.58.152,1.468,1.468,0,0,0,.32-.036.916.916,0,0,0,.283-.112.6.6,0,0,0,.2-.2.511.511,0,0,0,.076-.28.434.434,0,0,0-.208-.4,1.824,1.824,0,0,0-.5-.2l-.512-.12c-.064-.016-.151-.042-.261-.08a1.211,1.211,0,0,1-.319-.168,1.012,1.012,0,0,1-.269-.292.829.829,0,0,1-.111-.444,1.051,1.051,0,0,1,.115-.5.992.992,0,0,1,.313-.352,1.435,1.435,0,0,1,.444-.2,1.922,1.922,0,0,1,.512-.068,1.748,1.748,0,0,1,.728.152,1.073,1.073,0,0,1,.521.52Z" fill="#fff"/><path d="M169.191,47.167h.527v2.9h.017a1.22,1.22,0,0,1,.224-.28,1.479,1.479,0,0,1,.3-.22,1.664,1.664,0,0,1,.355-.144,1.387,1.387,0,0,1,.372-.052,1.367,1.367,0,0,1,1.064.38,1.564,1.564,0,0,1,.344,1.084v2.376h-.528V51.143a1.76,1.76,0,0,0-.216-.956.883.883,0,0,0-.8-.332,2.078,2.078,0,0,0-.225.032.976.976,0,0,0-.388.176,1.28,1.28,0,0,0-.364.432,1.666,1.666,0,0,0-.16.8v1.92h-.527Z" fill="#fff"/><path d="M174.407,48.03a.354.354,0,0,1-.12.276.375.375,0,0,1-.527,0,.377.377,0,0,1,0-.552.376.376,0,0,1,.527,0A.354.354,0,0,1,174.407,48.03Zm-.12,5.184h-.527V49.47h.527Z" fill="#fff"/><path d="M175.56,49.47h.527v.624h.017a1.373,1.373,0,0,1,.3-.328,1.9,1.9,0,0,1,.368-.224,1.74,1.74,0,0,1,.4-.128,2,2,0,0,1,.388-.04,2.114,2.114,0,0,1,.8.148,1.865,1.865,0,0,1,.628.412,1.885,1.885,0,0,1,.412.624,2.144,2.144,0,0,1,0,1.568,1.9,1.9,0,0,1-.412.624,1.872,1.872,0,0,1-.628.412,2.124,2.124,0,0,1-.8.148,2.035,2.035,0,0,1-.388-.04,1.764,1.764,0,0,1-.4-.128,1.9,1.9,0,0,1-.368-.224,1.373,1.373,0,0,1-.3-.328h-.017v2.928h-.527Zm3.416,1.872a1.664,1.664,0,0,0-.1-.584,1.415,1.415,0,0,0-.283-.472,1.356,1.356,0,0,0-.444-.316,1.432,1.432,0,0,0-.588-.116,1.485,1.485,0,0,0-1.072.432,1.436,1.436,0,0,0-.312.472,1.575,1.575,0,0,0,0,1.168,1.426,1.426,0,0,0,.312.472,1.49,1.49,0,0,0,.472.316,1.521,1.521,0,0,0,.6.116,1.432,1.432,0,0,0,.588-.116,1.342,1.342,0,0,0,.444-.316,1.405,1.405,0,0,0,.283-.472A1.662,1.662,0,0,0,178.976,51.342Z" fill="#fff"/><path d="M124.008,60.018h2.274v.4h-2.706V56.166h2.634v.4h-2.2v1.446h2.058v.4h-2.058Z" fill="#fff"/><path d="M127.716,60.126a.326.326,0,0,1-.09.225.326.326,0,0,1-.468,0,.326.326,0,0,1,0-.45.327.327,0,0,1,.468,0A.326.326,0,0,1,127.716,60.126Z" fill="#fff"/><path d="M128.874,60.978a1.266,1.266,0,0,0,.453.375,1.361,1.361,0,0,0,.621.141,1.34,1.34,0,0,0,.51-.087.882.882,0,0,0,.339-.237.914.914,0,0,0,.186-.351,1.56,1.56,0,0,0,.057-.429v-.5h-.012a1.08,1.08,0,0,1-.468.408,1.443,1.443,0,0,1-.582.12,1.515,1.515,0,0,1-.573-.108,1.464,1.464,0,0,1-.465-.3,1.375,1.375,0,0,1-.312-.453,1.43,1.43,0,0,1-.114-.57,1.5,1.5,0,0,1,.108-.57,1.462,1.462,0,0,1,.3-.462,1.347,1.347,0,0,1,.45-.309,1.452,1.452,0,0,1,.573-.111,1.581,1.581,0,0,1,.267.024,1.264,1.264,0,0,1,.282.084,1.318,1.318,0,0,1,.279.165,1.3,1.3,0,0,1,.258.267h.012v-.468h.4V60.39a2.251,2.251,0,0,1-.057.486,1.2,1.2,0,0,1-.222.474,1.263,1.263,0,0,1-.459.36,1.752,1.752,0,0,1-.768.144,1.921,1.921,0,0,1-.75-.138,1.74,1.74,0,0,1-.6-.426Zm.072-2a1.081,1.081,0,0,0,.081.417,1.1,1.1,0,0,0,.222.342,1.074,1.074,0,0,0,.33.234.977.977,0,0,0,.411.087,1.1,1.1,0,0,0,.756-.3.951.951,0,0,0,.231-.339,1.088,1.088,0,0,0,.075-.444,1.2,1.2,0,0,0-.072-.417,1,1,0,0,0-.21-.342,1.019,1.019,0,0,0-.336-.234,1.1,1.1,0,0,0-.444-.087.977.977,0,0,0-.411.087,1.081,1.081,0,0,0-.33.234,1.109,1.109,0,0,0-.222.342A1.081,1.081,0,0,0,128.946,58.974Z" fill="#fff"/><path d="M133.05,60.126a.326.326,0,0,1-.09.225.326.326,0,0,1-.468,0,.326.326,0,0,1,0-.45.327.327,0,0,1,.468,0A.326.326,0,0,1,133.05,60.126Z" fill="#fff"/><path d="M134.346,61.254h-.4l.4-1.41h.486Z" fill="#fff"/><path d="M140.544,59.766h.012v-3.6h.432v4.248h-.54l-2.532-3.636H137.9v3.636h-.432V56.166h.54Z" fill="#fff"/><path d="M143.8,58.692V58.62a.639.639,0,0,0-.72-.726,1.24,1.24,0,0,0-.858.33l-.24-.282a1.585,1.585,0,0,1,1.188-.408,1.291,1.291,0,0,1,.393.06.892.892,0,0,1,.327.183.906.906,0,0,1,.222.309,1.071,1.071,0,0,1,.084.444v1.254q0,.162.015.339c.01.118.021.215.033.291h-.384a2.148,2.148,0,0,1-.027-.222c-.006-.08-.009-.158-.009-.234h-.012a1.075,1.075,0,0,1-.411.405,1.378,1.378,0,0,1-.939.072.913.913,0,0,1-.309-.156.8.8,0,0,1-.216-.258.749.749,0,0,1-.081-.357.772.772,0,0,1,.177-.537,1.084,1.084,0,0,1,.444-.291,2.189,2.189,0,0,1,.57-.12c.2-.016.387-.024.555-.024Zm-.2.324c-.1,0-.225,0-.375.015a2.137,2.137,0,0,0-.432.072.948.948,0,0,0-.354.177.4.4,0,0,0-.147.33.467.467,0,0,0,.057.237.478.478,0,0,0,.153.162.651.651,0,0,0,.213.09,1.045,1.045,0,0,0,.237.027.9.9,0,0,0,.375-.072.766.766,0,0,0,.426-.483,1.194,1.194,0,0,0,.051-.351v-.2Z" fill="#fff"/><path d="M146.562,57.966h-.81v1.656a.9.9,0,0,0,.03.255.361.361,0,0,0,.084.153.291.291,0,0,0,.129.075.606.606,0,0,0,.165.021.781.781,0,0,0,.21-.03.958.958,0,0,0,.2-.078l.018.366a1.276,1.276,0,0,1-.534.1.992.992,0,0,1-.237-.03.562.562,0,0,1-.225-.114.627.627,0,0,1-.168-.228.911.911,0,0,1-.066-.378v-1.77h-.594v-.36h.594v-.792h.4v.792h.81Z" fill="#fff"/><path d="M149.129,60.414c-.008-.076-.013-.151-.015-.225s0-.149,0-.225H149.1a.923.923,0,0,1-.168.21,1.1,1.1,0,0,1-.228.165,1.25,1.25,0,0,1-.267.108,1.049,1.049,0,0,1-.279.039,1.024,1.024,0,0,1-.8-.285,1.171,1.171,0,0,1-.258-.813V57.606h.4V59.16a2.138,2.138,0,0,0,.036.414.8.8,0,0,0,.123.3.541.541,0,0,0,.234.186.938.938,0,0,0,.369.063,1.474,1.474,0,0,0,.168-.024.734.734,0,0,0,.291-.132.957.957,0,0,0,.273-.324,1.244,1.244,0,0,0,.12-.6v-1.44h.4V59.8q0,.114.009.288t.021.33Z" fill="#fff"/><path d="M150.479,58.482q0-.186-.009-.378t-.015-.5h.39v.522h.012a.861.861,0,0,1,.12-.219.936.936,0,0,1,.189-.189.922.922,0,0,1,.258-.135,1.021,1.021,0,0,1,.333-.051,1.079,1.079,0,0,1,.294.036l-.078.39a.664.664,0,0,0-.228-.03.812.812,0,0,0-.39.087.861.861,0,0,0-.27.222.92.92,0,0,0-.159.291.971.971,0,0,0-.051.3v1.584h-.4Z" fill="#fff"/><path d="M154.229,58.692V58.62a.639.639,0,0,0-.72-.726,1.24,1.24,0,0,0-.858.33l-.24-.282a1.585,1.585,0,0,1,1.188-.408,1.291,1.291,0,0,1,.393.06.892.892,0,0,1,.327.183.906.906,0,0,1,.222.309,1.071,1.071,0,0,1,.084.444v1.254q0,.162.015.339c.01.118.021.215.033.291h-.384a2.148,2.148,0,0,1-.027-.222c-.006-.08-.009-.158-.009-.234h-.012a1.075,1.075,0,0,1-.411.405,1.378,1.378,0,0,1-.939.072.913.913,0,0,1-.309-.156.8.8,0,0,1-.216-.258.749.749,0,0,1-.081-.357.772.772,0,0,1,.177-.537,1.084,1.084,0,0,1,.444-.291,2.189,2.189,0,0,1,.57-.12c.2-.016.387-.024.555-.024Zm-.2.324c-.1,0-.225,0-.375.015a2.137,2.137,0,0,0-.432.072.948.948,0,0,0-.354.177.4.4,0,0,0-.147.33.467.467,0,0,0,.057.237.478.478,0,0,0,.153.162.651.651,0,0,0,.213.09,1.045,1.045,0,0,0,.237.027.9.9,0,0,0,.375-.072.766.766,0,0,0,.426-.483,1.194,1.194,0,0,0,.051-.351v-.2Z" fill="#fff"/><path d="M156.029,60.414h-.4V55.878h.4Z" fill="#fff"/><path d="M161.453,60.414h-.4v-.468h-.012a1.033,1.033,0,0,1-.228.246,1.4,1.4,0,0,1-.276.168,1.294,1.294,0,0,1-.3.1,1.51,1.51,0,0,1-.291.03,1.584,1.584,0,0,1-.6-.111,1.394,1.394,0,0,1-.78-.777,1.616,1.616,0,0,1,0-1.176,1.394,1.394,0,0,1,.78-.777,1.594,1.594,0,0,1,.6-.111,1.51,1.51,0,0,1,.291.03,1.318,1.318,0,0,1,.3.1,1.427,1.427,0,0,1,.276.168,1.026,1.026,0,0,1,.228.246h.012v-2.2h.4Zm-2.562-1.4a1.255,1.255,0,0,0,.075.438,1.056,1.056,0,0,0,.213.354,1.006,1.006,0,0,0,.333.237,1.069,1.069,0,0,0,.441.087,1.141,1.141,0,0,0,.447-.087,1.115,1.115,0,0,0,.357-.237,1.084,1.084,0,0,0,.234-.354,1.184,1.184,0,0,0,0-.876,1.074,1.074,0,0,0-.234-.354,1.108,1.108,0,0,0-.357-.237,1.15,1.15,0,0,0-.447-.087,1.077,1.077,0,0,0-.441.087,1,1,0,0,0-.333.237,1.047,1.047,0,0,0-.213.354A1.251,1.251,0,0,0,158.891,59.01Z" fill="#fff"/><path d="M162.893,56.526a.265.265,0,0,1-.09.207.282.282,0,0,1-.4,0,.283.283,0,0,1,0-.414.284.284,0,0,1,.4,0A.266.266,0,0,1,162.893,56.526Zm-.09,3.888h-.4V57.606h.4Z" fill="#fff"/><path d="M165.244,58.272A.727.727,0,0,0,165,58a.634.634,0,0,0-.365-.1.942.942,0,0,0-.207.024.628.628,0,0,0-.189.075.421.421,0,0,0-.135.129.343.343,0,0,0-.051.192.319.319,0,0,0,.138.288,1.361,1.361,0,0,0,.414.156l.4.1a.956.956,0,0,1,.489.267.691.691,0,0,1,.2.5.793.793,0,0,1-.093.393.807.807,0,0,1-.246.27,1.059,1.059,0,0,1-.352.153,1.684,1.684,0,0,1-.4.048,1.487,1.487,0,0,1-.6-.123,1.113,1.113,0,0,1-.477-.423l.342-.234a.945.945,0,0,0,.3.306.811.811,0,0,0,.436.114,1.08,1.08,0,0,0,.239-.027.706.706,0,0,0,.214-.084.462.462,0,0,0,.149-.147.383.383,0,0,0,.058-.21.327.327,0,0,0-.156-.3,1.384,1.384,0,0,0-.378-.147l-.385-.09c-.048-.012-.112-.032-.194-.06a.916.916,0,0,1-.24-.126.765.765,0,0,1-.2-.219.621.621,0,0,1-.084-.333.791.791,0,0,1,.087-.378.744.744,0,0,1,.234-.264,1.072,1.072,0,0,1,.333-.153,1.458,1.458,0,0,1,.384-.051,1.312,1.312,0,0,1,.546.114.808.808,0,0,1,.391.39Z" fill="#fff"/><path d="M168.112,58.692V58.62a.639.639,0,0,0-.721-.726,1.236,1.236,0,0,0-.857.33l-.24-.282a1.584,1.584,0,0,1,1.188-.408,1.29,1.29,0,0,1,.394.06.866.866,0,0,1,.549.492,1.078,1.078,0,0,1,.084.444v1.254q0,.162.015.339c.011.118.021.215.033.291h-.384c-.012-.068-.021-.142-.027-.222s-.009-.158-.009-.234h-.012a1.075,1.075,0,0,1-.411.405,1.251,1.251,0,0,1-.579.123,1.27,1.27,0,0,1-.36-.051.92.92,0,0,1-.309-.156.8.8,0,0,1-.216-.258.755.755,0,0,1-.081-.357.769.769,0,0,1,.177-.537,1.087,1.087,0,0,1,.444-.291,2.194,2.194,0,0,1,.569-.12c.2-.016.388-.024.556-.024Zm-.2.324q-.151,0-.375.015a2.152,2.152,0,0,0-.433.072.949.949,0,0,0-.354.177.4.4,0,0,0-.147.33.467.467,0,0,0,.058.237.479.479,0,0,0,.152.162.665.665,0,0,0,.213.09,1.05,1.05,0,0,0,.237.027.9.9,0,0,0,.375-.072.76.76,0,0,0,.426-.483,1.179,1.179,0,0,0,.052-.351v-.2Z" fill="#fff"/><path d="M170.914,58.272a.727.727,0,0,0-.24-.276.634.634,0,0,0-.365-.1.942.942,0,0,0-.207.024.628.628,0,0,0-.189.075.421.421,0,0,0-.135.129.343.343,0,0,0-.051.192.319.319,0,0,0,.138.288,1.361,1.361,0,0,0,.414.156l.4.1a.956.956,0,0,1,.489.267.691.691,0,0,1,.2.5.793.793,0,0,1-.093.393.807.807,0,0,1-.246.27,1.059,1.059,0,0,1-.352.153,1.684,1.684,0,0,1-.4.048,1.487,1.487,0,0,1-.6-.123,1.113,1.113,0,0,1-.477-.423l.342-.234a.945.945,0,0,0,.3.306.811.811,0,0,0,.436.114,1.08,1.08,0,0,0,.239-.027.706.706,0,0,0,.214-.084.462.462,0,0,0,.149-.147.384.384,0,0,0,.058-.21.327.327,0,0,0-.156-.3,1.384,1.384,0,0,0-.378-.147l-.385-.09c-.048-.012-.112-.032-.194-.06a.916.916,0,0,1-.24-.126.765.765,0,0,1-.2-.219.621.621,0,0,1-.084-.333.791.791,0,0,1,.087-.378.744.744,0,0,1,.234-.264,1.072,1.072,0,0,1,.333-.153,1.458,1.458,0,0,1,.384-.051,1.312,1.312,0,0,1,.546.114.808.808,0,0,1,.391.39Z" fill="#fff"/><path d="M173.434,57.966h-.81v1.656a.918.918,0,0,0,.029.255.367.367,0,0,0,.085.153.281.281,0,0,0,.129.075.6.6,0,0,0,.165.021.786.786,0,0,0,.21-.03.96.96,0,0,0,.2-.078l.019.366a1.276,1.276,0,0,1-.534.1,1,1,0,0,1-.237-.03.557.557,0,0,1-.225-.114.627.627,0,0,1-.168-.228.918.918,0,0,1-.066-.378v-1.77h-.594v-.36h.594v-.792h.4v.792h.81Z" fill="#fff"/><path d="M174.25,59.118a1.2,1.2,0,0,0,.1.4,1.041,1.041,0,0,0,.54.534.967.967,0,0,0,.391.078,1,1,0,0,0,.549-.147,1.1,1.1,0,0,0,.351-.339l.307.252a1.526,1.526,0,0,1-.556.456,1.551,1.551,0,0,1-.65.138,1.489,1.489,0,0,1-.579-.111,1.35,1.35,0,0,1-.459-.309,1.452,1.452,0,0,1-.3-.468,1.528,1.528,0,0,1-.111-.588,1.565,1.565,0,0,1,.108-.588,1.413,1.413,0,0,1,.3-.468,1.377,1.377,0,0,1,.45-.309,1.4,1.4,0,0,1,.558-.111,1.375,1.375,0,0,1,.57.114,1.27,1.27,0,0,1,.423.3,1.3,1.3,0,0,1,.261.444,1.63,1.63,0,0,1,.09.543v.18Zm1.908-.324a.9.9,0,0,0-.24-.651.889.889,0,0,0-.672-.249.954.954,0,0,0-.372.075,1.054,1.054,0,0,0-.315.2,1.025,1.025,0,0,0-.216.288.747.747,0,0,0-.081.336Z" fill="#fff"/><path d="M177.352,58.482q0-.186-.009-.378t-.015-.5h.39v.522h.012a.893.893,0,0,1,.12-.219.965.965,0,0,1,.189-.189.936.936,0,0,1,.258-.135,1.019,1.019,0,0,1,.333-.051,1.077,1.077,0,0,1,.294.036l-.078.39a.664.664,0,0,0-.228-.03.815.815,0,0,0-.391.087.87.87,0,0,0-.27.222.92.92,0,0,0-.159.291.956.956,0,0,0-.051.3v1.584h-.4Z" fill="#fff"/><path d="M180.79,58.272a.727.727,0,0,0-.24-.276.634.634,0,0,0-.365-.1.942.942,0,0,0-.207.024.628.628,0,0,0-.189.075.421.421,0,0,0-.135.129.343.343,0,0,0-.051.192.319.319,0,0,0,.138.288,1.361,1.361,0,0,0,.414.156l.4.1a.956.956,0,0,1,.489.267.691.691,0,0,1,.2.5.793.793,0,0,1-.093.393.807.807,0,0,1-.246.27,1.059,1.059,0,0,1-.352.153,1.684,1.684,0,0,1-.4.048,1.487,1.487,0,0,1-.6-.123,1.113,1.113,0,0,1-.477-.423l.342-.234a.945.945,0,0,0,.3.306.811.811,0,0,0,.436.114,1.08,1.08,0,0,0,.239-.027.706.706,0,0,0,.214-.084.462.462,0,0,0,.149-.147.384.384,0,0,0,.058-.21.327.327,0,0,0-.156-.3,1.384,1.384,0,0,0-.378-.147l-.385-.09c-.048-.012-.112-.032-.194-.06a.916.916,0,0,1-.24-.126.765.765,0,0,1-.2-.219.621.621,0,0,1-.084-.333.791.791,0,0,1,.087-.378.744.744,0,0,1,.234-.264,1.072,1.072,0,0,1,.333-.153,1.458,1.458,0,0,1,.384-.051,1.312,1.312,0,0,1,.546.114.808.808,0,0,1,.391.39Z" fill="#fff"/><path d="M182.212,61.254h-.4l.4-1.41h.486Z" fill="#fff"/><path d="M185.68,60.414h-.4V55.878h.4Z" fill="#fff"/><path d="M189.471,59.01a1.528,1.528,0,0,1-.11.588,1.4,1.4,0,0,1-.78.777,1.68,1.68,0,0,1-1.2,0,1.391,1.391,0,0,1-.779-.777,1.609,1.609,0,0,1,0-1.176,1.391,1.391,0,0,1,.779-.777,1.68,1.68,0,0,1,1.2,0,1.4,1.4,0,0,1,.78.777A1.528,1.528,0,0,1,189.471,59.01Zm-.432,0a1.262,1.262,0,0,0-.075-.438,1.047,1.047,0,0,0-.213-.354,1,1,0,0,0-.333-.237,1.162,1.162,0,0,0-.882,0,.969.969,0,0,0-.33.237,1.073,1.073,0,0,0-.21.354,1.313,1.313,0,0,0,0,.876,1.083,1.083,0,0,0,.21.354.975.975,0,0,0,.33.237,1.162,1.162,0,0,0,.882,0,1.006,1.006,0,0,0,.333-.237,1.056,1.056,0,0,0,.213-.354A1.266,1.266,0,0,0,189.039,59.01Z" fill="#fff"/><path d="M191.679,58.272a.727.727,0,0,0-.24-.276.634.634,0,0,0-.365-.1.942.942,0,0,0-.207.024.628.628,0,0,0-.189.075.421.421,0,0,0-.135.129.343.343,0,0,0-.051.192.319.319,0,0,0,.138.288,1.361,1.361,0,0,0,.414.156l.4.1a.956.956,0,0,1,.489.267.691.691,0,0,1,.2.5.793.793,0,0,1-.093.393.807.807,0,0,1-.246.27,1.059,1.059,0,0,1-.352.153,1.684,1.684,0,0,1-.4.048,1.487,1.487,0,0,1-.6-.123,1.113,1.113,0,0,1-.477-.423l.342-.234a.945.945,0,0,0,.3.306.811.811,0,0,0,.436.114,1.08,1.08,0,0,0,.239-.027.706.706,0,0,0,.214-.084.462.462,0,0,0,.149-.147.383.383,0,0,0,.058-.21.327.327,0,0,0-.156-.3,1.384,1.384,0,0,0-.378-.147l-.385-.09c-.048-.012-.112-.032-.194-.06a.916.916,0,0,1-.24-.126.765.765,0,0,1-.2-.219.621.621,0,0,1-.084-.333.791.791,0,0,1,.087-.378.744.744,0,0,1,.234-.264,1.072,1.072,0,0,1,.333-.153,1.458,1.458,0,0,1,.384-.051,1.312,1.312,0,0,1,.546.114.808.808,0,0,1,.391.39Z" fill="#fff"/><path d="M194.234,58.272a.727.727,0,0,0-.24-.276.634.634,0,0,0-.365-.1.942.942,0,0,0-.207.024.628.628,0,0,0-.189.075.421.421,0,0,0-.135.129.343.343,0,0,0-.051.192.319.319,0,0,0,.138.288,1.361,1.361,0,0,0,.414.156l.4.1a.956.956,0,0,1,.489.267.691.691,0,0,1,.2.5.793.793,0,0,1-.093.393.807.807,0,0,1-.246.27,1.059,1.059,0,0,1-.352.153,1.684,1.684,0,0,1-.4.048,1.487,1.487,0,0,1-.6-.123,1.113,1.113,0,0,1-.477-.423l.342-.234a.945.945,0,0,0,.3.306.811.811,0,0,0,.436.114,1.08,1.08,0,0,0,.239-.027.706.706,0,0,0,.214-.084.462.462,0,0,0,.149-.147.384.384,0,0,0,.058-.21.327.327,0,0,0-.156-.3,1.384,1.384,0,0,0-.378-.147l-.385-.09c-.048-.012-.112-.032-.194-.06a.916.916,0,0,1-.24-.126.765.765,0,0,1-.2-.219.621.621,0,0,1-.084-.333A.791.791,0,0,1,192.7,58a.744.744,0,0,1,.234-.264,1.072,1.072,0,0,1,.333-.153,1.458,1.458,0,0,1,.384-.051,1.312,1.312,0,0,1,.546.114.808.808,0,0,1,.391.39Z" fill="#fff"/><path d="M199.808,59.01a1.528,1.528,0,0,1-.11.588,1.4,1.4,0,0,1-.78.777,1.68,1.68,0,0,1-1.2,0,1.391,1.391,0,0,1-.779-.777,1.609,1.609,0,0,1,0-1.176,1.391,1.391,0,0,1,.779-.777,1.68,1.68,0,0,1,1.2,0,1.4,1.4,0,0,1,.78.777A1.528,1.528,0,0,1,199.808,59.01Zm-.432,0a1.262,1.262,0,0,0-.075-.438,1.047,1.047,0,0,0-.213-.354,1,1,0,0,0-.333-.237,1.162,1.162,0,0,0-.882,0,.969.969,0,0,0-.33.237,1.073,1.073,0,0,0-.21.354,1.313,1.313,0,0,0,0,.876,1.083,1.083,0,0,0,.21.354.975.975,0,0,0,.33.237,1.162,1.162,0,0,0,.882,0,1.006,1.006,0,0,0,.333-.237,1.056,1.056,0,0,0,.213-.354A1.266,1.266,0,0,0,199.376,59.01Z" fill="#fff"/><path d="M201.836,57.966h-.666v2.448h-.4V57.966h-.594v-.36h.594v-.768a1.041,1.041,0,0,1,.258-.795.975.975,0,0,1,.685-.237,1.278,1.278,0,0,1,.171.012c.058.008.115.018.171.03l-.072.36c-.048-.012-.1-.022-.149-.03a1,1,0,0,0-.156-.012.557.557,0,0,0-.264.054.369.369,0,0,0-.156.153.658.658,0,0,0-.072.231,2.14,2.14,0,0,0-.018.282v.72h.666Z" fill="#fff"/><path d="M203.972,55.878h.4v2.2h.012a1.019,1.019,0,0,1,.229-.246,1.42,1.42,0,0,1,.275-.168,1.342,1.342,0,0,1,.3-.1,1.517,1.517,0,0,1,.291-.03,1.594,1.594,0,0,1,.6.111,1.4,1.4,0,0,1,.78.777,1.622,1.622,0,0,1,0,1.176,1.422,1.422,0,0,1-.31.468,1.4,1.4,0,0,1-.471.309,1.585,1.585,0,0,1-.6.111,1.517,1.517,0,0,1-.291-.03,1.317,1.317,0,0,1-.3-.1,1.4,1.4,0,0,1-.275-.168,1.025,1.025,0,0,1-.229-.246h-.012v.468h-.4Zm2.563,3.132a1.262,1.262,0,0,0-.075-.438,1.047,1.047,0,0,0-.213-.354,1,1,0,0,0-.333-.237,1.079,1.079,0,0,0-.441-.087,1.137,1.137,0,0,0-.449.087,1.1,1.1,0,0,0-.354.237,1.082,1.082,0,0,0-.234.354,1.184,1.184,0,0,0,0,.876,1.093,1.093,0,0,0,.234.354,1.109,1.109,0,0,0,.354.237,1.129,1.129,0,0,0,.449.087,1.071,1.071,0,0,0,.441-.087,1.006,1.006,0,0,0,.333-.237,1.056,1.056,0,0,0,.213-.354A1.266,1.266,0,0,0,206.534,59.01Z" fill="#fff"/><path d="M207.914,59.118a1.2,1.2,0,0,0,.1.4,1.041,1.041,0,0,0,.54.534.967.967,0,0,0,.391.078,1,1,0,0,0,.549-.147,1.1,1.1,0,0,0,.351-.339l.307.252a1.526,1.526,0,0,1-.556.456,1.551,1.551,0,0,1-.65.138,1.489,1.489,0,0,1-.579-.111,1.35,1.35,0,0,1-.459-.309,1.452,1.452,0,0,1-.3-.468,1.528,1.528,0,0,1-.111-.588,1.565,1.565,0,0,1,.108-.588,1.413,1.413,0,0,1,.3-.468,1.377,1.377,0,0,1,.45-.309,1.4,1.4,0,0,1,.558-.111,1.375,1.375,0,0,1,.57.114,1.27,1.27,0,0,1,.423.3,1.3,1.3,0,0,1,.261.444,1.63,1.63,0,0,1,.09.543v.18Zm1.908-.324a.9.9,0,0,0-.24-.651.889.889,0,0,0-.672-.249.954.954,0,0,0-.372.075,1.054,1.054,0,0,0-.315.2,1.025,1.025,0,0,0-.216.288.747.747,0,0,0-.081.336Z" fill="#fff"/><path d="M211.46,60.414h-.4V55.878h.4Z" fill="#fff"/><path d="M215.252,59.01a1.528,1.528,0,0,1-.11.588,1.4,1.4,0,0,1-.78.777,1.68,1.68,0,0,1-1.2,0,1.391,1.391,0,0,1-.779-.777,1.609,1.609,0,0,1,0-1.176,1.391,1.391,0,0,1,.779-.777,1.68,1.68,0,0,1,1.2,0,1.4,1.4,0,0,1,.78.777A1.528,1.528,0,0,1,215.252,59.01Zm-.432,0a1.262,1.262,0,0,0-.075-.438,1.047,1.047,0,0,0-.213-.354,1,1,0,0,0-.333-.237,1.162,1.162,0,0,0-.882,0,.969.969,0,0,0-.33.237,1.073,1.073,0,0,0-.21.354,1.313,1.313,0,0,0,0,.876,1.083,1.083,0,0,0,.21.354.975.975,0,0,0,.33.237,1.162,1.162,0,0,0,.882,0,1.006,1.006,0,0,0,.333-.237,1.056,1.056,0,0,0,.213-.354A1.266,1.266,0,0,0,214.82,59.01Z" fill="#fff"/><path d="M217.208,60.414h-.444l-1.14-2.808h.468l.9,2.364H217l.895-2.364h.449Z" fill="#fff"/><path d="M219.14,59.118a1.2,1.2,0,0,0,.1.4,1.041,1.041,0,0,0,.54.534.967.967,0,0,0,.391.078,1,1,0,0,0,.549-.147,1.1,1.1,0,0,0,.351-.339l.307.252a1.526,1.526,0,0,1-.556.456,1.551,1.551,0,0,1-.65.138,1.489,1.489,0,0,1-.579-.111,1.35,1.35,0,0,1-.459-.309,1.452,1.452,0,0,1-.3-.468,1.528,1.528,0,0,1-.111-.588,1.565,1.565,0,0,1,.108-.588,1.413,1.413,0,0,1,.3-.468,1.377,1.377,0,0,1,.45-.309,1.4,1.4,0,0,1,.558-.111,1.375,1.375,0,0,1,.57.114,1.27,1.27,0,0,1,.423.3,1.3,1.3,0,0,1,.261.444,1.63,1.63,0,0,1,.09.543v.18Zm1.908-.324a.9.9,0,0,0-.24-.651.889.889,0,0,0-.672-.249.954.954,0,0,0-.372.075,1.054,1.054,0,0,0-.315.2,1.025,1.025,0,0,0-.216.288.747.747,0,0,0-.081.336Z" fill="#fff"/><path d="M225,60.414h-.4v-.468h-.012a1.045,1.045,0,0,1-.229.246,1.4,1.4,0,0,1-.275.168,1.317,1.317,0,0,1-.3.1,1.517,1.517,0,0,1-.291.03,1.581,1.581,0,0,1-.6-.111,1.4,1.4,0,0,1-.471-.309,1.422,1.422,0,0,1-.31-.468,1.622,1.622,0,0,1,0-1.176,1.4,1.4,0,0,1,.78-.777,1.591,1.591,0,0,1,.6-.111,1.517,1.517,0,0,1,.291.03,1.342,1.342,0,0,1,.3.1,1.42,1.42,0,0,1,.275.168,1.038,1.038,0,0,1,.229.246h.012v-2.2h.4Zm-2.562-1.4a1.266,1.266,0,0,0,.075.438,1.056,1.056,0,0,0,.213.354,1.006,1.006,0,0,0,.333.237,1.071,1.071,0,0,0,.441.087,1.138,1.138,0,0,0,.446-.087,1.112,1.112,0,0,0,.357-.237,1.093,1.093,0,0,0,.234-.354,1.184,1.184,0,0,0,0-.876,1.082,1.082,0,0,0-.234-.354,1.1,1.1,0,0,0-.357-.237,1.147,1.147,0,0,0-.446-.087,1.079,1.079,0,0,0-.441.087,1,1,0,0,0-.333.237,1.047,1.047,0,0,0-.213.354A1.262,1.262,0,0,0,222.439,59.01Z" fill="#fff"/><path d="M230.371,59.01a1.528,1.528,0,0,1-.11.588,1.4,1.4,0,0,1-.78.777,1.68,1.68,0,0,1-1.2,0,1.391,1.391,0,0,1-.779-.777,1.609,1.609,0,0,1,0-1.176,1.391,1.391,0,0,1,.779-.777,1.68,1.68,0,0,1,1.2,0,1.4,1.4,0,0,1,.78.777A1.528,1.528,0,0,1,230.371,59.01Zm-.432,0a1.262,1.262,0,0,0-.075-.438,1.047,1.047,0,0,0-.213-.354,1,1,0,0,0-.333-.237,1.162,1.162,0,0,0-.882,0,.969.969,0,0,0-.33.237,1.073,1.073,0,0,0-.21.354,1.313,1.313,0,0,0,0,.876,1.083,1.083,0,0,0,.21.354.975.975,0,0,0,.33.237,1.162,1.162,0,0,0,.882,0,1.006,1.006,0,0,0,.333-.237,1.056,1.056,0,0,0,.213-.354A1.266,1.266,0,0,0,229.939,59.01Z" fill="#fff"/><path d="M231.469,57.606c.009.076.014.151.016.225s0,.149,0,.225h.012a.908.908,0,0,1,.168-.21,1.118,1.118,0,0,1,.229-.165,1.245,1.245,0,0,1,.267-.108,1.192,1.192,0,0,1,1.077.246,1.172,1.172,0,0,1,.258.813v1.782h-.4V58.86a1.321,1.321,0,0,0-.162-.717.664.664,0,0,0-.6-.249,1.626,1.626,0,0,0-.168.024.734.734,0,0,0-.291.132.955.955,0,0,0-.272.324,1.246,1.246,0,0,0-.12.6v1.44h-.4v-2.19c0-.076,0-.172-.009-.288s-.013-.226-.021-.33Z" fill="#fff"/><path d="M234.7,59.118a1.2,1.2,0,0,0,.1.4,1.041,1.041,0,0,0,.54.534.967.967,0,0,0,.391.078,1,1,0,0,0,.549-.147,1.1,1.1,0,0,0,.351-.339l.307.252a1.526,1.526,0,0,1-.556.456,1.551,1.551,0,0,1-.65.138,1.489,1.489,0,0,1-.579-.111,1.35,1.35,0,0,1-.459-.309,1.452,1.452,0,0,1-.3-.468,1.528,1.528,0,0,1-.111-.588,1.565,1.565,0,0,1,.108-.588,1.413,1.413,0,0,1,.3-.468,1.377,1.377,0,0,1,.45-.309,1.4,1.4,0,0,1,.558-.111,1.375,1.375,0,0,1,.57.114,1.27,1.27,0,0,1,.423.3,1.3,1.3,0,0,1,.261.444,1.63,1.63,0,0,1,.09.543v.18Zm1.908-.324a.9.9,0,0,0-.24-.651.889.889,0,0,0-.672-.249.954.954,0,0,0-.372.075,1.054,1.054,0,0,0-.315.2,1.025,1.025,0,0,0-.216.288.747.747,0,0,0-.081.336Z" fill="#fff"/><path d="M239.251,58.272a.727.727,0,0,0-.24-.276.634.634,0,0,0-.365-.1.942.942,0,0,0-.207.024.628.628,0,0,0-.189.075.421.421,0,0,0-.135.129.343.343,0,0,0-.051.192.319.319,0,0,0,.138.288,1.361,1.361,0,0,0,.414.156l.4.1a.956.956,0,0,1,.489.267.691.691,0,0,1,.2.5.793.793,0,0,1-.093.393.807.807,0,0,1-.246.27,1.059,1.059,0,0,1-.352.153,1.684,1.684,0,0,1-.4.048,1.487,1.487,0,0,1-.6-.123,1.113,1.113,0,0,1-.477-.423l.342-.234a.945.945,0,0,0,.3.306.811.811,0,0,0,.436.114,1.08,1.08,0,0,0,.239-.027.706.706,0,0,0,.214-.084.462.462,0,0,0,.149-.147.384.384,0,0,0,.058-.21.327.327,0,0,0-.156-.3,1.384,1.384,0,0,0-.378-.147l-.385-.09c-.048-.012-.112-.032-.194-.06a.916.916,0,0,1-.24-.126.765.765,0,0,1-.2-.219.621.621,0,0,1-.084-.333.791.791,0,0,1,.087-.378.744.744,0,0,1,.234-.264,1.072,1.072,0,0,1,.333-.153,1.458,1.458,0,0,1,.384-.051,1.312,1.312,0,0,1,.546.114.808.808,0,0,1,.391.39Z" fill="#fff"/><path d="M241.045,60.126a.327.327,0,0,1-.09.225.327.327,0,0,1-.469,0,.327.327,0,0,1,0-.45.328.328,0,0,1,.469,0A.328.328,0,0,1,241.045,60.126Z" fill="#fff"/></svg>