<svg id="template" xmlns="http://www.w3.org/2000/svg" width="655" height="493" viewBox="0 0 655 493"><title>08 STORM</title><path d="M480.307,225.744c-.266-1.753-.362-3.671-1.445-5.075,1.781-.214,3.347.328,5.083.489a7.486,7.486,0,0,0,2.112-.144c.381-.073,1.635-.717,1.927-.627a8.391,8.391,0,0,1-3.721-2.379,17.138,17.138,0,0,0,4.525-.206,6.978,6.978,0,0,0,3.9-2.165,1.2,1.2,0,0,0,.29-.507,1.348,1.348,0,0,0-.122-.725c-.869-2.364-1.686-4.872-3.853-6.156a10.146,10.146,0,0,0,5.892-3.287,7.423,7.423,0,0,0,1.144-1.5c1.148-2.091.652-4.717.12-7.042a36.517,36.517,0,0,0-11.257-.264,21,21,0,0,0-4.748.84c-1.264.424-1.769,1.2-2.794-.175-1.149-1.544-1.708-3.214-.27-4.509a12.026,12.026,0,0,1,4.877-2.892c-.549-2.733-2.575-4.9-4.55-6.863a52.965,52.965,0,0,0-4.648-4.664q-4.655-3.687-9.268-7.425a18.6,18.6,0,0,1-2.5-2.274c-1.819-2.113-2.534-5.083-4.647-6.9a12.061,12.061,0,0,0,4.759-1.144c.288-.136.561-.337.835-.5a26.789,26.789,0,0,0-3.415-4.313,5.658,5.658,0,0,0-2.218-1.572,6.61,6.61,0,0,0,2.767-.321,8.6,8.6,0,0,1,1.9-.637,9.389,9.389,0,0,0-2.018-3.623,6.365,6.365,0,0,0,3.312.193,2.157,2.157,0,0,0,.858-.377l.583-.36a31.045,31.045,0,0,0-4.6-6.135c1.631-.647,2.483-2.566,3.063-4.122a.341.341,0,0,0,.026-.238.352.352,0,0,0-.2-.164,22.216,22.216,0,0,1-5.266-3.754,1.109,1.109,0,0,1-.428-.589c-.171-.966,2.175-.621,2.682-.723a9.78,9.78,0,0,0,7.594-7.18c.184-.707.141-6.338.219-6.356-.179.041-.158-.113-.321-.03-3.647,1.86-7.736.379-11.579,1.059-3.323.588-6.873,3.338-6.769,7a12.854,12.854,0,0,0,.948,3.949.241.241,0,0,1,.017.176.235.235,0,0,1-.166.106,4.243,4.243,0,0,1-2.594-.12,2.581,2.581,0,0,1-1.267-.923,3.588,3.588,0,0,1-.4-2.112c.022-.855-.129-1.771.51-2.339a12.446,12.446,0,0,0,3.236-13.451.731.731,0,0,0-.237-.363.744.744,0,0,0-.472-.073,25.387,25.387,0,0,0-8.631,2.179,13.3,13.3,0,0,0-4.165,3.064,3.8,3.8,0,0,0-.977,3.512,10.736,10.736,0,0,0-7.191-2.269,1.235,1.235,0,0,1-.522-.041,1.034,1.034,0,0,1-.373-.294,7.992,7.992,0,0,1-1.581-5.061,13,13,0,0,1,.326-4.066c.363-1.316.624-2.981,1.944-3.331a12.355,12.355,0,0,0,7.218-5.318.566.566,0,0,0,.12-.345c-.019-.18-.194-.3-.351-.385a33.828,33.828,0,0,1-6.435-4.34c-3.582-3.359-12.459-4.32-13.648,2.016A5.546,5.546,0,0,0,414.79,102a.914.914,0,0,1,.321,1.329,2.055,2.055,0,0,1-1.326.766c-1.3.295-2.691.154-3.947.6a8.839,8.839,0,0,0-3.146,2.371c-.351.359-.4.137-.588.6a21.934,21.934,0,0,0-1.545,11.9,20.023,20.023,0,0,0-5.922.818,26.364,26.364,0,0,0-5.032,1.374,6.021,6.021,0,0,0,3.1-3.921c-2.669-.817-5.33-1.746-8.042-2.412-.724-.178-8.153-1.655-8.287-1.068.141-.618,1.061-.917,1.006-1.548-.032-.369-.393-.606-.716-.787l-2.329-1.3c-1.873-1.048-2.1-3.376.136-4.172a8.117,8.117,0,0,1,8.693,2.532,8.748,8.748,0,0,0,4.7,2.734,15.8,15.8,0,0,0,5.5.176,8.522,8.522,0,0,0,5.167-2.056,8.375,8.375,0,0,0,1.338-1.929,27.038,27.038,0,0,0,2.61-7.358,10.293,10.293,0,0,0-2.626-2.349,17.775,17.775,0,0,0-3.5-1.452c1.92-.577,3.91-.891,5.835-1.449a16.312,16.312,0,0,0,4.782-2.441,4.954,4.954,0,0,0,2.121-4.848,7.409,7.409,0,0,0-.863-2.282c-1.8-3.316-4.756-5.809-6.6-9.1a33.446,33.446,0,0,0-2.928,2.277,43.255,43.255,0,0,0-8.137,11.1,24.17,24.17,0,0,0-4.687.054.4.4,0,0,0-.265.1.425.425,0,0,0-.079.229c-.263,1.764-1.508,2.489-2.943,3.3-4.149,2.341-6.576,5.876-9.471,9.659a31.452,31.452,0,0,1-5.057,5.225,1.865,1.865,0,0,1-.616.379,4.183,4.183,0,0,1-.869.062c-1.062.089-1.766,1.015-2.755,1.285-.808.22-1.631-.184-2.268.5-.459.49-.608.408-.739,1.068a6.4,6.4,0,0,0-.176,2.267,2.172,2.172,0,0,0,1.3,1.748c.8.274,1.752-.092,2.474.341.888.532.8,1.826.592,2.841a8.607,8.607,0,0,0-1.841-.574,22.148,22.148,0,0,1,.79,6.824,35.928,35.928,0,0,1-5.882-6.035c-1.654-2.151-2.8-4.625-4.452-6.742a15.458,15.458,0,0,0-5.565-4.4c-1.732-.868-3.282-.858-5.181-1.051,0-1.265.137-2.575.136-3.84a7.649,7.649,0,0,0,4.406.542q2.191-.186,4.37-.489a8.557,8.557,0,0,0,2.189-.514,4.544,4.544,0,0,0,2.173-1.955,1.411,1.411,0,0,0,1.842.353,6.333,6.333,0,0,1,4.128-1.094c1.452.049,2.882.366,4.331.478a15.665,15.665,0,0,0,9.724-2.541,4.369,4.369,0,0,0,2.364-2.976,11.791,11.791,0,0,0,.366-5.428c-.615-2.684-3.327-4.884-5.928-5.544-.786-.2-3.478-.678-4.106.067a5.13,5.13,0,0,0,.829-5.107c-2.491-.185-4.959-.624-7.45-.815-3.946-.3-7.984-.027-10.961,2.8a14.74,14.74,0,0,0-2.1,2.52,5.13,5.13,0,0,1-1.878,2.036.428.428,0,0,1-.253.052c-.173-.034-.247-.235-.294-.4a13.155,13.155,0,0,0-1.889-4.069,19.175,19.175,0,0,0-11.336-7.806c-.273,2.622.044,5.2-.665,7.8a6.122,6.122,0,0,1-1.74,2.737,18.271,18.271,0,0,1-2.62,1.971c-.375.248-.329.42-.775.365a8.145,8.145,0,0,0-6.461,2.094,2.884,2.884,0,0,0-.918,1.365,3.026,3.026,0,0,0-.025,1.025,11.328,11.328,0,0,0,.586,2.595c.221.624.7,1.233.289,1.754a4.515,4.515,0,0,0-2.586,2.5,8.976,8.976,0,0,0-.965,7,16.973,16.973,0,0,0-4.155.094c0-.252-.044-.44-.026-.691a7.41,7.41,0,0,0-1.648-5.167c-.733-.892-1.667-1.6-2.411-2.483a28.025,28.025,0,0,1-3.484-5.473c-.912-1.776-2.351-4.755-4.689-4.791A13.43,13.43,0,0,1,306,84.344a10.164,10.164,0,0,0,.7-2.519c-.007.047,3.127-.175,3.341-.211a3.241,3.241,0,0,0,2.4-1.448c.752.984,1.554,1.331,2.31,2.312.92,1.192,2.586,1.472,4.091,1.543a12.737,12.737,0,0,0,3.867-.3A6.077,6.077,0,0,0,325.96,81.7c1.721-2.195,2.02-6.215,1.219-8.785a9.6,9.6,0,0,0-11.453,3.563,5.656,5.656,0,0,0-.67,1.267,1.516,1.516,0,0,1-.38.714c-.212.172-.546-.063-.6-.331a7.142,7.142,0,0,0,.936-5.711c-.513-1.921-1.715-2.277-2.971-3.818a7.381,7.381,0,0,0-3.9-2.168,22.029,22.029,0,0,0-7.7-.689,2.782,2.782,0,0,0-1.8.634c.448.534.369.671.829,1.194a3.734,3.734,0,0,1,.469,3.629,16.228,16.228,0,0,1-1.877,3.331,22.867,22.867,0,0,0-3.407,10.077c-.152,1.643.042,3.318-.117,4.923-.157,1.582-.185,3.054,1,4.292a7.71,7.71,0,0,0,2.32,1.564c.267.126.691.122.7.417a4.4,4.4,0,0,0-.266,4.028.38.38,0,0,1-.1.352,17.1,17.1,0,0,0-2.685-.121,5.722,5.722,0,0,0-2.569.711.112.112,0,0,1-.093.022c-.034-.013-.045-.055-.05-.091-.021-.143,0,.027.016-.117a4.353,4.353,0,0,0-2.322-4.167,8.839,8.839,0,0,0-4.918-.88,9.274,9.274,0,0,0-3.447.769,12.292,12.292,0,0,0-3.367,2.734c-2.455,2.531-5.03,5.291-5.6,8.771a17.431,17.431,0,0,0-.129,3.185,4.157,4.157,0,0,1-.872-3.454,8.226,8.226,0,0,1,1.519-2.951c2.464-3.516,5.441-6.429,7.125-10.379a7.379,7.379,0,0,0-.242-6.7c-3.783-6.061-12.7-4.888-18.12-1.933-.588.321-1.218.806-1.209,1.476.006.517.393,1.089.081,1.5-.074-.137-.079.306-.126.157a10.015,10.015,0,0,0-2.037-3.471,15.226,15.226,0,0,0-4.671-3.646c-.568-.287-3.95-2.147-4.386-1.313a.206.206,0,0,0-.005.132,8.576,8.576,0,0,1-.364,4.231c-.522,1.541-1.3,2.924-1.682,4.515a9.107,9.107,0,0,0,.157,4.82c.852,2.782,3.612,4.307,6.4,4.533a2.045,2.045,0,0,1,1.041.274.694.694,0,0,1,.22.947.927.927,0,0,1-.672.256c-1.808.131-3.7-.641-5.39.026a3.5,3.5,0,0,1-1.534.476,2.59,2.59,0,0,1-1.063-.472,10.419,10.419,0,0,0-12.924,2.03,2.971,2.971,0,0,0-.712,1.234,3.1,3.1,0,0,0,.036,1.219c.226,1.273.061,2.115.694,3.242l4.69,8.354c1.388,2.473,3.116,4.482,4.21,7.12a7.813,7.813,0,0,1,.49,6.081c-.968,4.58-.455,9.111-3.972,12.2a16.814,16.814,0,0,1-5.44,2.8,3.933,3.933,0,0,1-1.079.285.566.566,0,0,1-.448-.118.611.611,0,0,1-.13-.255c-.409-1.314-.647-1.89.058-3.072l2.265-3.794a14.2,14.2,0,0,0,1.705-3.579,14.209,14.209,0,0,0,.157-4.733c-.261-3.307-.359-7.143-1.788-10.2a19.52,19.52,0,0,0-6.05-6.788.969.969,0,0,0-.547-.244c-.485,0-.67.625-.712,1.108a10.655,10.655,0,0,1-1.047,4.716,32.492,32.492,0,0,1-2.189,3.386,5.906,5.906,0,0,1-3.823,2.256c-3.8.956-6.378,2.728-9.494,5.11a1.722,1.722,0,0,0-.223,2.2,5.846,5.846,0,0,0,1.769,1.617,5.169,5.169,0,0,1,1.866,1.918,25.386,25.386,0,0,0-7.944-.91,8.028,8.028,0,0,0-2.562.44,33.252,33.252,0,0,0,.4,9.072c.19,1.325.676,2.61.219,3.886a17.517,17.517,0,0,0-1.022,3.646c-.359,2.793.637,5.562,1.617,8.2l3.411,9.192c.537,1.448,1.208,2.9,1.691,4.354.435,1.311.463,2.77.837,4.124.158.572.838.8,1.425.887.919.137,1.85.155,2.774.234.439.038,2.336.093,2.479.6.126.45-1.761,1.436-2.11,1.675a16.616,16.616,0,0,0-2.371,1.624.4.4,0,0,1-.235.095c-.14-.007-.228-.152-.282-.282a3.257,3.257,0,0,1-.213-1.693,13.392,13.392,0,0,0-2.982,2.163,15.406,15.406,0,0,0-2.627,3.245c-1.121,1.708-1.687,3.612-2.678,5.378a6.361,6.361,0,0,1-3.038,3,13,13,0,0,0-3.757,2.463,25.255,25.255,0,0,0-4.251,5.447,1.932,1.932,0,0,0-.331.781c-.03.284-.086.559.18.662a10.267,10.267,0,0,0,6.855,4.172c.54.076,1.192-.049,1.436.439a9.589,9.589,0,0,0,3.857,3.528,15.387,15.387,0,0,0,2.452.926,8.632,8.632,0,0,0-1.155,3.532,13.819,13.819,0,0,0,.463,3.91c.228.962,1.179,2.317,2.3,1.329a5.952,5.952,0,0,1,2.277-1.079,3.4,3.4,0,0,1,1.8-.189c.926.239.938,1.013,1.1,1.783a3.755,3.755,0,0,0,1.242,2.2c.576.477,1.325.8,1.672,1.464a.371.371,0,0,1,.056.224.389.389,0,0,1-.124.2c-1.238,1.256-3.009.518-4.505.2a40.433,40.433,0,0,1-4.82-1.607,13.965,13.965,0,0,1-1.871-.758c-3.452-1.8-3.157-5.647-5.611-8.192a8.174,8.174,0,0,0-5.158-2.43,21.386,21.386,0,0,0-3.03.3,10.286,10.286,0,0,1-3.155-.289c-1.3-.334-2.232-1.318-3.482-1.815-3.07-1.22-6.535-.6-9.806-1.057a6.944,6.944,0,0,0-3.33-.139.527.527,0,0,0-.609.271,1.537,1.537,0,0,0-.145.7c-.1,2.151-.163,4.435.911,6.3a17.056,17.056,0,0,0,6.077,5.482,4.445,4.445,0,0,1-.908,1.529,16.2,16.2,0,0,0-1.607,2.8,5.143,5.143,0,0,0-.672,2.1c-.015.777.386,1.025,1.011,1.487a6.68,6.68,0,0,0,2.132.909l3.884,1.144-2.348,1.71a.328.328,0,0,0-.148.175c-.032.148.138.254.281.305a14.158,14.158,0,0,0,4.051.642c1.253.068,2.446-.021,3.7.014a.6.6,0,0,1,.4.109.563.563,0,0,1,.1.53,7.223,7.223,0,0,1-.431,1.254,15.68,15.68,0,0,0-.4,10.5.515.515,0,0,0,.253.331.5.5,0,0,0,.336-.033c.62-.223,1.182-.581,1.787-.843,2.352-1.016,5.065-.654,7.5-1.422.24-.076.48-.151.714-.244a5.135,5.135,0,0,0,2.119-1.582,2.055,2.055,0,0,1,1.2-.7,1.678,1.678,0,0,1,.788-.092,1.707,1.707,0,0,1,.964.608,6.137,6.137,0,0,1,1.182,3.541,45.607,45.607,0,0,0,.732,6.615,3.107,3.107,0,0,0,.555,1.3,2.861,2.861,0,0,0,2.323.516,5.284,5.284,0,0,0,1.527-.651,38.76,38.76,0,0,0,4.565-3.033,22.491,22.491,0,0,0,4.661-4.241,4.957,4.957,0,0,1,2-1.876,3.843,3.843,0,0,1,2.864.381c1.492.684,1.5,2.487.788,3.827a9.048,9.048,0,0,1-2.461,2.645,11.146,11.146,0,0,0-2.566,2.555,3.51,3.51,0,0,0-.33,3.454c1.1,2.023.855,4.791,2.582,6.485a9.394,9.394,0,0,0-2.76,2.43,19.278,19.278,0,0,0-1.326,2.126,15.991,15.991,0,0,0-1.784,5.114,19.8,19.8,0,0,0-.071,7.968.139.139,0,0,0,.138.128,13.948,13.948,0,0,0,3,.09q1.673-.016,3.339-.2a33.84,33.84,0,0,0,6.455-1.347c.756-.237,1.534-.377,2.306-.547a19.8,19.8,0,0,0,2.272-.738,1.515,1.515,0,0,1,.284-.077c.7-.1,1.009.534,1.388,1,.415.511.818,1.031,1.236,1.54a12.1,12.1,0,0,0,2.816,2.66q.116.073.234.141a10.956,10.956,0,0,0,4.581-2.978c.388-.435.741-.9,1.086-1.369a18.368,18.368,0,0,0,5.8,3.335,27.629,27.629,0,0,0,4.738,1.623,1.714,1.714,0,0,0,.826.072c-.029-.178-.067-.353-.108-.528a6.481,6.481,0,0,1-.279-1.752c.095-2.263.448-4.187.6-6.446a16.932,16.932,0,0,0,0-3.385,6.17,6.17,0,0,0-1.437-3.372,8.05,8.05,0,0,0-3.637-1.63,10.322,10.322,0,0,0-2.7-.261c-.7.026-1.834.472-2.447,0a1.323,1.323,0,0,1-.262-.3c-1.524-2.169-2.539-4.5-4.854-6a5.974,5.974,0,0,0-3.248-1.084,1.155,1.155,0,0,1-.844-.183c-.856-.835,1.19-2.657,1.717-3.175a6.966,6.966,0,0,1,3.344-1.961,8.567,8.567,0,0,1,3.622.171,10.9,10.9,0,0,1,4.148,1.686,10.716,10.716,0,0,1,3.116,4.049c.757,1.545,1.329,3.176,2.1,4.712a7.824,7.824,0,0,0,1.467,2.333,11.1,11.1,0,0,0,6.01,2.939c.375.055,1.153.235,1.427-.027a3.438,3.438,0,0,0,1.217-1.769,13.794,13.794,0,0,0,.341-6.127,8.479,8.479,0,0,0-3.372-5.184c-.951-.707-2.03-1.23-2.965-1.958a1.864,1.864,0,0,1-.663-.784c-.118-.326-.285-.807.049-.9a25.984,25.984,0,0,0,6.775-2.994,2.8,2.8,0,0,0,.893-.765c.219-.329.462-.6.241-.926a13.107,13.107,0,0,0-1.636-2.081c-1.232-1.209-2.841-1.941-4.082-3.138a26.573,26.573,0,0,1-3.391-4.94,6.851,6.851,0,0,0-2.848-2.995,7.152,7.152,0,0,0-4.159-.435,4.227,4.227,0,0,0-2.306,1.023,3.641,3.641,0,0,0-.959,2.443,11.273,11.273,0,0,0,.316,2.662c.13.66.3,1.944-.6,2.192s-1.21-.767-1.3-1.428c-.34-2.484-1.923-3.744-4.216-4.223-2.016-.422-4.259-.552-5.779-2.123a9.145,9.145,0,0,1-.9-1.167c-.881-1.267-1.995-1.979-2.748-3.325a2.777,2.777,0,0,0-3.043-1.019c-.9.2-1.9.626-2.665.113a2.868,2.868,0,0,1-.6-.632,12.179,12.179,0,0,0-3.006-2.64c-.8-.512-2.96-1.027-2.877-2.19.036-.5.5-.842.93-1.093A15.376,15.376,0,0,1,224,223.569c2.115-.677,3.616-2.316,5.022-3.949,1.5-1.743,2.851-3.462,5.161-4.072,2.531-.669,5.6.059,7.959,1.076a6.832,6.832,0,0,0,2,.675,1.811,1.811,0,0,0,1.812-.827,2.478,2.478,0,0,0,.084-1.514,6.109,6.109,0,0,0-1.619-3.676c-1.012-.9-1.4-2.281-2.663-2.772a3.05,3.05,0,0,0-3.62,1,4.909,4.909,0,0,0-.563,1.784l-.226,1.257c.147.241-.018.267-.266.4a1.271,1.271,0,0,1-.827.066,2.6,2.6,0,0,1-2.175-1.77,5.57,5.57,0,0,1,.007-1.457c.074-1.644-.325-3.25-.017-4.892.208-1.109.849-2,1.138-3.025a5.644,5.644,0,0,0-.6-3.637,7.736,7.736,0,0,0-2.127-2.671c-1.689-1.352-2.121-3.883-2.1-5.92a8.1,8.1,0,0,1,.565-3.19,21.97,21.97,0,0,0,1.669-3.487,9.118,9.118,0,0,0,.119-2.709c-.024-.423-.056-.187.18-.539a2.4,2.4,0,0,1,.982-.784,1.971,1.971,0,0,1,.74-.216c1.684-.086,2.823,2.968,3.884,4a10.528,10.528,0,0,0,4.2,2.474,8.408,8.408,0,0,0,5.069-.53,5.335,5.335,0,0,0,3.5-3.135c4.543,1.461,9.561-1.7,9.257-6.654-.092-1.5-.282-3.011-.407-4.506a8.765,8.765,0,0,1,.959-5.083q-2.434.191-4.853.53a16.859,16.859,0,0,0-3.125.6c-.182-.092.418-.31.223-.249a.663.663,0,0,1-.267.06c-.251-.03-.276-.385-.221-.633.217-.969.572-1.907.739-2.886a4.152,4.152,0,0,0-.4-2.887,4.84,4.84,0,0,0-2.579-2.4c-.548-.208-1.136-.295-1.687-.495-1.086-.395-1.982-1.212-3.076-1.583a4.565,4.565,0,0,0-5.049,1.782,5.424,5.424,0,0,0-.231,5.466c1.346,2.579,4.38,3.838,6.051,6.219a2.634,2.634,0,0,1,.584,1.595,1.191,1.191,0,0,1-1.05,1.168,2,2,0,0,1-1.092-.489,9.987,9.987,0,0,0-5.541-1.765c-2.1-.022-3.685.149-4.347-2.3a17.92,17.92,0,0,1-.331-3.332,13.822,13.822,0,0,0-1.124-4.486c-.732-1.666-1.981-3.309-3.77-3.64-.861-.159-.04-1.387.585-2a3.456,3.456,0,0,1,2.468-.672,29.747,29.747,0,0,1,3.625.172c1.868.224,3.7.719,5.563.954a10.049,10.049,0,0,0,5.536-.611c2.259-1.065,3.377-3.442,4.632-5.444,2.121-3.385,2.267-7.072,1.959-10.992-.056-.718-.271-1.523-.276-2.225a.673.673,0,0,1,.555-.6,2.135,2.135,0,0,1,.873.052,19.787,19.787,0,0,0,6.646-.09,5.025,5.025,0,0,1,4.77,1.476,2.3,2.3,0,0,1,.764,1.541c-.025.969-1.039,1.565-1.92,1.971l-1.842.847c-.449.207-.971.527-.945,1.02a1.2,1.2,0,0,0,.2.529,22.427,22.427,0,0,0,8.884,8.817c0,.1-.16.187-.161.291q-1.432.279-2.871.515a4.58,4.58,0,0,0,.525,2.378,39.3,39.3,0,0,0,3.388,7.167c1.664,2.44,3.965,4.485,7.009,4.79,3.73.374,7.14-2.782,9.076-5.639a22.286,22.286,0,0,0,6.505.678,16.422,16.422,0,0,0,8.313-2.831,8.819,8.819,0,0,0,2.407-3.4c.684-1.317,1.795-1.657,3.3-1.66a13.156,13.156,0,0,1,3.717.531c1.145.335,2.16,1.14,3.254,1.46a20.006,20.006,0,0,0,4.108.276,24.444,24.444,0,0,0,4.251-.064c2.91-.344,5.938-1.119,8.018-3.183a8.079,8.079,0,0,0,2.359-6c-.086-2.018-.954-5.157-3.093-5.875a.6.6,0,0,0-.26-.042.66.66,0,0,0-.316.17c-1.035.835-2.034,1.691-3.031,2.57a3.7,3.7,0,0,1-2.213,1.18,3.394,3.394,0,0,1-1.169-.246,16.23,16.23,0,0,1-7.355-5.345c-1.173-1.457-2.231-2.792-4.17-3.05a6.322,6.322,0,0,0-4.593,1.171,5.255,5.255,0,0,1-2.1,1.3c-1.376.23-5.056-3.252-3.259-4.054a1.324,1.324,0,0,1,.563-.073l5.612.085a9.621,9.621,0,0,0,3.774-.447,3.277,3.277,0,0,0,2.193-2.856,3.873,3.873,0,0,0-1.047-2.333,9.745,9.745,0,0,0-7.554-3.46c-1.671.03-3.3.488-4.977.4a8.389,8.389,0,0,1-4.391-1.857c-1.808-1.211-4.255-1.8-6.309-2.577a17.293,17.293,0,0,0-5.636-1.433,5.861,5.861,0,0,0-5.089,2.324c-1.011,1.556-.918,3.567-.659,5.4a7.931,7.931,0,0,0,1.42,3.853,2.185,2.185,0,0,1,.4.878,1.792,1.792,0,0,1-.268.995,8.955,8.955,0,0,1-2.01,2.577,4.166,4.166,0,0,0-.785.8,2.5,2.5,0,0,0-.343,1.038,4.847,4.847,0,0,0,1.355,4.007c.465.465,1.085,1.012.89,1.639a1.563,1.563,0,0,1-1.74-.11,4.586,4.586,0,0,1-1.181-1.416l-2.417-3.857c-.964-1.539.27-2.788.561-4.58.584-3.6,1.2-7.286,3-10.457a28.012,28.012,0,0,0,2.272-4.462c.159-.457,1.444-3.919,1.066-4.093.472.217.613.647.919,1.021a5.929,5.929,0,0,0,1.093.983,9.47,9.47,0,0,0,2.645,1.324,24.342,24.342,0,0,0,5.029.9,23.773,23.773,0,0,0,3.951.032c1.148,2.148,2.193,4.538,4.494,5.334a10.534,10.534,0,0,0,2.1.419,11.563,11.563,0,0,0,5.271-.133c1.676-.582,3.125-2.231,2.855-3.985.214,1.386,2.107,1.93,3.14,2.373a19.349,19.349,0,0,0,4.866,1.79,11.793,11.793,0,0,0,3.921-.425,14.183,14.183,0,0,1,4.46.282,49.116,49.116,0,0,1,8.889,2.7c2.04.765,3.616,3.6,4.481,5.487a12.047,12.047,0,0,0,.719,1.462,8.409,8.409,0,0,0,1.936,1.956c1.517,1.217,3.37,2.463,5.255,1.986,2.716-.688,5.2,1.336,7.993,1.14a9.257,9.257,0,0,0,7.182-3.764,9.746,9.746,0,0,0,1.191-2.842c.141-.532.078-2.387.451-2.734.933-.868,1.937.929,2.363,1.465.367.461.842.828,1.205,1.292a3.567,3.567,0,0,1,.63,3.063,14.679,14.679,0,0,0-4.683,2.174.66.66,0,0,0-.271.292.652.652,0,0,0,.027.393,9.594,9.594,0,0,0,4.37,5.574c.411.237.112,1.124-.2,1.479a1.117,1.117,0,0,1-1.3.248,2.7,2.7,0,0,1-.838-.878,4.313,4.313,0,0,0-1.712-1.4,6.871,6.871,0,0,0-2.068-.413c-2.777-.263-5.559-.526-8.348-.516-.251-.245-.623-.053-.826.233a1.841,1.841,0,0,0-.237,1.009,15.971,15.971,0,0,0,.129,3.579,8.032,8.032,0,0,0,2.22,4.186,10.033,10.033,0,0,0,6.05,2.661c1.34.139,2.914-.283,4.167-.094,1.306.2,1.785,1.467,2.427,2.6a14.558,14.558,0,0,0,21.67,4.261,2.979,2.979,0,0,0,.961-1.092,2.781,2.781,0,0,0,.1-1.522,8.588,8.588,0,0,0-3.038-5.3,3.937,3.937,0,0,0,.923-1.151c.806-1.236.895-2.786,1.251-4.218a11.092,11.092,0,0,1,.958-2.5,8.2,8.2,0,0,1,2.346-3.192c.256-.217.553-.52.431-.833a.7.7,0,0,0-.192-.248c-1.1-1.015-2.641-1.108-4.032-1.389a16.953,16.953,0,0,0-5.022-.252c-.584.058-2.044.625-2.444,0-.259-.4.067-1.2.289-1.556a2.9,2.9,0,0,1,.941-.848c1.741-1.123,3.946-2.326,6.06-1.87.814.176,1.6.467,2.423.6a9.786,9.786,0,0,0,2.726-.016,20.949,20.949,0,0,0,5.475-1.436,8.16,8.16,0,0,1,9.81,3.408,1.967,1.967,0,0,1,.352,1.173c-.115,1.034-1.427,1.337-2.414,1.664a5.914,5.914,0,0,0-3.945,5.244c-.106,2.692,2.589,5.183,4.28,7.031l7.036,7.688a19.188,19.188,0,0,1,2.6,3.781c1.756,3.145.683,6.6,3.163,9.549a15.355,15.355,0,0,0,5.591,3.931c.968.433,1.007.668,2.063.759.343.029.6.333.913.194a.764.764,0,0,0,.3-.3,12.633,12.633,0,0,0,1.7-3.988,23.061,23.061,0,0,0,1.078-4.5,20.762,20.762,0,0,0,.034-4.578,7.082,7.082,0,0,0,4.266,1.609c-.013-.093-.085.072-.145.145a9.007,9.007,0,0,0-1.784,3.581,5.292,5.292,0,0,0,.478,3.982c.821,1.308,2.255,2.4,3.227,3.622.99,1.244,1.947,2.744,1.67,4.31a8.855,8.855,0,0,0-1.969,2.375,14.035,14.035,0,0,0-2.569,6.308,6.492,6.492,0,0,0,2.555,6.03,5.351,5.351,0,0,0-2.031,3.358,2.385,2.385,0,0,0,.3,2.279,21.029,21.029,0,0,1-6.041,1.22,9.776,9.776,0,0,0,2.3-4.361,27.587,27.587,0,0,0,1.1-8.162,9.666,9.666,0,0,0-6.356-.311,9.3,9.3,0,0,0-5.079,3.814c-.471-2.842-2.555-4.923-5.082-6.305a20.827,20.827,0,0,0-8.31-2.131c.53,2.911-.24,6.131-.521,9.077a13.021,13.021,0,0,0,.52,5.789,5.72,5.72,0,0,0,1.021,1.923,2.8,2.8,0,0,0,1.88,1.012c1.207.075,3.7-.308,3.876,1.523.295,3.064-6.935,3.051-8.583,2.991-2.762-.1-5.49-.887-8.248-.72-1.531-.126-2.662.936-3.571,2.175a11.794,11.794,0,0,0-1.715,4.244,19.551,19.551,0,0,1-1.385,4.382c-.159.308-.337.606-.515.9a4.679,4.679,0,0,0,2.965,1.108c1.6.127,3.323.225,4.677-.633,2.157-1.367,2.368-4.432,3.9-6.473a5,5,0,0,1,3.575-2.035,5.133,5.133,0,0,1,3.687,1.372c1.9,1.706,3.975,3.247,5.382,5.461a14.6,14.6,0,0,1,2.3,7.731,6.164,6.164,0,0,1-1.217,4.116,7.8,7.8,0,0,1-4.237,2,27.014,27.014,0,0,1-10.967.512,10.182,10.182,0,0,0,6.08,8.177A20.147,20.147,0,0,0,401.689,246c-1.573,2.377-2.146,5.6-.776,8.1a7.971,7.971,0,0,0,1.759,2.355,10.47,10.47,0,0,1,7.293-2.323c.3.017.5.036.792.075a17.688,17.688,0,0,0-2.608,9.083,37.907,37.907,0,0,1-.021,5.661,1.808,1.808,0,0,1-.764,1.17,1.806,1.806,0,0,0,1.161.434,14.063,14.063,0,0,0,5.753-.419,8.457,8.457,0,0,0,4.612-3.339,11.645,11.645,0,0,0,3.089,8.857,12,12,0,0,0,8.685,3.917,11.222,11.222,0,0,0-.117-3.721,7.537,7.537,0,0,0,3.11,3.157,30.7,30.7,0,0,0,4.088,1.879,11.067,11.067,0,0,1,1.739.861,8.744,8.744,0,0,1,2.775,3.153c1.96-2.449,3.776-5.371,4.019-8.5a15.609,15.609,0,0,0-.2-3.25,14.794,14.794,0,0,0-2.874-6.614,7.03,7.03,0,0,0,2.6-1.242,7.479,7.479,0,0,0,4.3,3.067,13.707,13.707,0,0,0,9.377-.4c.357-.149.53-.152.767-.457-.257.33-1.154-2.476-1.17-2.557-.179-.907-.353-1.824-.591-2.717a10.412,10.412,0,0,0-.636-2.5,10.745,10.745,0,0,0,8.418-.363c.818-.4,1.585-.9,2.43-1.233a6.756,6.756,0,0,1,2.731-.463c.786.029,1.614.5,2.4.386.472-.066.427-.172.359-.639a6.109,6.109,0,0,0-.3-1.118,14.889,14.889,0,0,0-5.348-7.544,9.945,9.945,0,0,0-10.514-.439,7.516,7.516,0,0,0-2,1.773c-.07-.7-.556-1.017-.95-1.594l-1.221-1.788a4.575,4.575,0,0,0-1.393-1.353,3.175,3.175,0,0,0,1.111-3.37,7.466,7.466,0,0,1,7.149,1.474,27.654,27.654,0,0,1,.7-6.33c.459-1.687,1.391-3.416,1.466-5.173a7.9,7.9,0,0,0-.38-2.7c-.166-.526-.949-1.57.078-1.74a1.188,1.188,0,0,1,.974.372,7.739,7.739,0,0,1,.674.843,6.757,6.757,0,0,0,2.918,1.939,15.642,15.642,0,0,0,3.8.959c1.087.132,2.188.15,3.265.35a8.493,8.493,0,0,1,2.694.769l2.074,1.2c.293.169.817.922,1.2.82.62-.165.5-1.885.5-2.356A39.67,39.67,0,0,0,480.307,225.744Z" fill="#e6e6e6"/><path d="M319.14,413.591l-.028,0C319.125,413.646,319.133,413.625,319.14,413.591Z" fill="none" stroke="#000" stroke-linecap="round" stroke-linejoin="round"/><path d="M58.244,124.116c1.071-1.5,5.781-2.357,5.781-2.357s.738,4.73-.333,6.235a3.344,3.344,0,1,1-5.449-3.878Z" fill="none" stroke="#87b26b" stroke-linecap="round" stroke-linejoin="round"/><path d="M72.321,124.116c1.071-1.5,5.781-2.357,5.781-2.357s.738,4.73-.333,6.235a3.344,3.344,0,1,1-5.449-3.878Z" fill="none" stroke="#87b26b" stroke-linecap="round" stroke-linejoin="round"/><path d="M65.581,136.62c1.071-1.5,5.781-2.357,5.781-2.357s.738,4.73-.333,6.235a3.344,3.344,0,1,1-5.449-3.878Z" fill="none" stroke="#87b26b" stroke-linecap="round" stroke-linejoin="round"/><path d="M86.4,124.115c1.071-1.5,5.781-2.357,5.781-2.357s.738,4.73-.333,6.235a3.344,3.344,0,1,1-5.449-3.878Z" fill="none" stroke="#87b26b" stroke-linecap="round" stroke-linejoin="round"/><path d="M78.42,136.62c1.071-1.5,5.781-2.357,5.781-2.357s.738,4.73-.333,6.235a3.344,3.344,0,1,1-5.449-3.878Z" fill="none" stroke="#87b26b" stroke-linecap="round" stroke-linejoin="round"/><path d="M91.259,136.62c1.071-1.5,5.781-2.357,5.781-2.357s.738,4.73-.333,6.235a3.344,3.344,0,1,1-5.449-3.878Z" fill="none" stroke="#87b26b" stroke-linecap="round" stroke-linejoin="round"/><polyline points="118.254 119.481 115.37 124.855 125.637 127.451 96.453 156.482 110.218 130.835 99.952 128.24 108.869 119.368" fill="none" stroke="#87b26b" stroke-linecap="round" stroke-linejoin="round"/><path d="M123.256,119.339a13.4,13.4,0,1,0,0-26.8c-.081,0-.162,0-.243.006A23.449,23.449,0,0,0,80.5,75.881a13.4,13.4,0,0,0-17.442,18.4,13.4,13.4,0,0,0,6.6,25.064h53.6Z" fill="none" stroke="#87b26b" stroke-linecap="round" stroke-linejoin="round"/><path d="M319.14,413.591l-.028,0C319.125,413.646,319.133,413.625,319.14,413.591Z" fill="none" stroke="#000" stroke-linecap="round" stroke-linejoin="round" stroke-dasharray="2 4"/><path d="M319.14,413.591c-.007.034-.015.054-.028,0Z" fill="none" stroke="#000" stroke-linecap="round" stroke-linejoin="round" stroke-dasharray="2 4"/><rect x="119" y="34" width="129" height="31" rx="6" ry="6" fill="#87b26b"/><path d="M123.9,42.43a1.26,1.26,0,0,0,.532.46,1.59,1.59,0,0,0,.668.148,1.356,1.356,0,0,0,.392-.06,1.18,1.18,0,0,0,.364-.18.984.984,0,0,0,.268-.3.788.788,0,0,0,.1-.408.612.612,0,0,0-.208-.5,1.806,1.806,0,0,0-.516-.288q-.308-.116-.672-.224a2.733,2.733,0,0,1-.672-.3,1.641,1.641,0,0,1-.516-.516,1.606,1.606,0,0,1-.208-.876,1.511,1.511,0,0,1,.448-1.04,1.884,1.884,0,0,1,.6-.388,2.218,2.218,0,0,1,.876-.156,3.074,3.074,0,0,1,.888.128,1.528,1.528,0,0,1,.744.52l-.624.568a1.035,1.035,0,0,0-.408-.36,1.3,1.3,0,0,0-.6-.136,1.454,1.454,0,0,0-.532.084.955.955,0,0,0-.34.216.76.76,0,0,0-.18.284.869.869,0,0,0-.052.28.714.714,0,0,0,.208.552,1.616,1.616,0,0,0,.516.312,6.183,6.183,0,0,0,.672.216,2.865,2.865,0,0,1,.672.268,1.564,1.564,0,0,1,.516.464,1.366,1.366,0,0,1,.208.8,1.692,1.692,0,0,1-.156.736,1.631,1.631,0,0,1-.42.552,1.859,1.859,0,0,1-.624.344,2.408,2.408,0,0,1-.768.12,2.794,2.794,0,0,1-1.032-.192,1.694,1.694,0,0,1-.776-.592Z" fill="#fff"/><path d="M129.36,38.67h-1.824v-.72h4.416v.72h-1.824v4.944h-.768Z" fill="#fff"/><path d="M135.368,43.758a3.054,3.054,0,0,1-1.192-.228,2.77,2.77,0,0,1-.932-.628,2.9,2.9,0,0,1-.608-.944,3.25,3.25,0,0,1,0-2.352,2.9,2.9,0,0,1,.608-.944,2.77,2.77,0,0,1,.932-.628,3.229,3.229,0,0,1,2.384,0,2.775,2.775,0,0,1,.932.628,2.918,2.918,0,0,1,.608.944,3.257,3.257,0,0,1,0,2.352,2.916,2.916,0,0,1-.608.944,2.775,2.775,0,0,1-.932.628A3.057,3.057,0,0,1,135.368,43.758Zm0-.72a2.055,2.055,0,0,0,1.552-.664,2.132,2.132,0,0,0,.432-.716,2.6,2.6,0,0,0,0-1.752,2.142,2.142,0,0,0-.432-.716,2.121,2.121,0,0,0-3.1,0,2.133,2.133,0,0,0-.432.716,2.595,2.595,0,0,0,0,1.752,2.123,2.123,0,0,0,.432.716,2.057,2.057,0,0,0,1.552.664Z" fill="#fff"/><path d="M139.424,37.95h1.992a2.332,2.332,0,0,1,.9.148,1.524,1.524,0,0,1,.556.376,1.279,1.279,0,0,1,.284.512,2.024,2.024,0,0,1,.08.548,1.459,1.459,0,0,1-.1.524,1.475,1.475,0,0,1-.276.456,1.573,1.573,0,0,1-.44.344,1.536,1.536,0,0,1-.58.172l1.608,2.584h-.96l-1.44-2.5h-.856v2.5h-.768Zm.768,2.5H141.2a2.76,2.76,0,0,0,.444-.036,1.192,1.192,0,0,0,.392-.132.728.728,0,0,0,.276-.276,1.105,1.105,0,0,0,0-.936.729.729,0,0,0-.276-.276,1.192,1.192,0,0,0-.392-.132,2.76,2.76,0,0,0-.444-.036h-1.008Z" fill="#fff"/><path d="M144.256,37.95H145.4l1.8,4.288h.032l1.784-4.288h1.144v5.664h-.768V38.958h-.016l-1.912,4.656h-.512l-1.912-4.656h-.016v4.656h-.768Z" fill="#fff"/><path d="M124.344,52.687h2.64v.528h-3.216V47.55h.576Z" fill="#fff"/><path d="M129.976,50.918v-.1a.852.852,0,0,0-.96-.968,1.653,1.653,0,0,0-1.144.44l-.32-.376a2.113,2.113,0,0,1,1.584-.544,1.71,1.71,0,0,1,.524.08,1.185,1.185,0,0,1,.436.244,1.215,1.215,0,0,1,.3.412,1.43,1.43,0,0,1,.112.592v1.672q0,.216.02.452t.044.388h-.512a2.921,2.921,0,0,1-.036-.3c-.008-.107-.012-.211-.012-.312h-.016a1.433,1.433,0,0,1-.548.54,1.665,1.665,0,0,1-.772.164,1.7,1.7,0,0,1-.48-.068,1.211,1.211,0,0,1-.412-.208,1.059,1.059,0,0,1-.288-.344,1,1,0,0,1-.108-.476,1.023,1.023,0,0,1,.236-.716,1.444,1.444,0,0,1,.592-.388,2.918,2.918,0,0,1,.76-.16q.4-.031.74-.032Zm-.272.432c-.133,0-.3.006-.5.02a2.9,2.9,0,0,0-.576.1,1.274,1.274,0,0,0-.472.236.539.539,0,0,0-.2.44.623.623,0,0,0,.076.316.63.63,0,0,0,.2.216.86.86,0,0,0,.284.12,1.406,1.406,0,0,0,.316.036,1.2,1.2,0,0,0,.5-.1,1.021,1.021,0,0,0,.568-.644,1.589,1.589,0,0,0,.068-.468v-.272Z" fill="#fff"/><path d="M131.784,50.638q0-.248-.012-.5t-.02-.664h.52v.7h.016a1.15,1.15,0,0,1,.16-.292,1.257,1.257,0,0,1,.252-.252,1.237,1.237,0,0,1,.344-.18,1.345,1.345,0,0,1,.444-.068,1.424,1.424,0,0,1,.392.048l-.1.52a.885.885,0,0,0-.3-.04,1.082,1.082,0,0,0-.52.116,1.15,1.15,0,0,0-.36.3,1.242,1.242,0,0,0-.212.388,1.286,1.286,0,0,0-.068.4v2.112h-.528Z" fill="#fff"/><path d="M134.527,53.966a1.692,1.692,0,0,0,.6.5,1.809,1.809,0,0,0,.828.188,1.783,1.783,0,0,0,.68-.116,1.185,1.185,0,0,0,.452-.316,1.215,1.215,0,0,0,.248-.468,2.086,2.086,0,0,0,.076-.572V52.51H137.4a1.438,1.438,0,0,1-.624.544,1.92,1.92,0,0,1-.776.16,2.015,2.015,0,0,1-.764-.144,1.943,1.943,0,0,1-.62-.4,1.814,1.814,0,0,1-.416-.6,1.891,1.891,0,0,1-.152-.76,2,2,0,0,1,.144-.76,1.957,1.957,0,0,1,.4-.616,1.781,1.781,0,0,1,.6-.412,1.933,1.933,0,0,1,.764-.148,2.162,2.162,0,0,1,.356.032,1.7,1.7,0,0,1,.376.112,1.726,1.726,0,0,1,.716.576h.016V49.47h.528v3.712a3.038,3.038,0,0,1-.076.648,1.6,1.6,0,0,1-.3.632,1.689,1.689,0,0,1-.612.48,2.338,2.338,0,0,1-1.024.192,2.573,2.573,0,0,1-1-.184,2.319,2.319,0,0,1-.8-.568Zm.1-2.672a1.44,1.44,0,0,0,.108.556,1.467,1.467,0,0,0,.3.456,1.433,1.433,0,0,0,.44.312,1.29,1.29,0,0,0,.548.116,1.467,1.467,0,0,0,1.008-.4,1.271,1.271,0,0,0,.308-.452,1.448,1.448,0,0,0,.1-.592,1.594,1.594,0,0,0-.1-.556,1.336,1.336,0,0,0-.28-.456,1.363,1.363,0,0,0-.448-.312,1.458,1.458,0,0,0-.592-.116,1.3,1.3,0,0,0-.548.116,1.449,1.449,0,0,0-.44.312,1.475,1.475,0,0,0-.3.456A1.44,1.44,0,0,0,134.624,51.294Z" fill="#fff"/><path d="M139.5,51.486a1.6,1.6,0,0,0,.136.528,1.381,1.381,0,0,0,.72.712,1.3,1.3,0,0,0,.52.1,1.332,1.332,0,0,0,.732-.2,1.461,1.461,0,0,0,.468-.452l.408.336a2.032,2.032,0,0,1-.74.608,2.072,2.072,0,0,1-.868.184,2,2,0,0,1-.772-.148,1.808,1.808,0,0,1-.612-.412,1.953,1.953,0,0,1-.4-.624,2.035,2.035,0,0,1-.148-.784,2.1,2.1,0,0,1,.144-.784,1.894,1.894,0,0,1,.4-.624,1.834,1.834,0,0,1,.6-.412,1.864,1.864,0,0,1,.744-.148,1.83,1.83,0,0,1,.76.152,1.7,1.7,0,0,1,.564.4,1.734,1.734,0,0,1,.348.592,2.156,2.156,0,0,1,.12.724v.24Zm2.544-.432a1.124,1.124,0,0,0-1.216-1.2,1.274,1.274,0,0,0-.5.1,1.4,1.4,0,0,0-.42.268,1.352,1.352,0,0,0-.288.384.993.993,0,0,0-.108.448Z" fill="#fff"/><path d="M143.631,50.638q0-.248-.012-.5t-.02-.664h.52v.7h.016a1.15,1.15,0,0,1,.16-.292,1.257,1.257,0,0,1,.252-.252,1.237,1.237,0,0,1,.344-.18,1.345,1.345,0,0,1,.444-.068,1.424,1.424,0,0,1,.392.048l-.1.52a.885.885,0,0,0-.3-.04,1.082,1.082,0,0,0-.52.116,1.15,1.15,0,0,0-.36.3,1.242,1.242,0,0,0-.212.388,1.286,1.286,0,0,0-.068.4v2.112h-.528Z" fill="#fff"/><path d="M148.647,47.55h.576v2.456h3.088V47.55h.576v5.664h-.576v-2.68h-3.088v2.68h-.576Z" fill="#fff"/><path d="M156.631,50.918v-.1a.852.852,0,0,0-.96-.968,1.653,1.653,0,0,0-1.144.44l-.32-.376a2.113,2.113,0,0,1,1.584-.544,1.71,1.71,0,0,1,.524.08,1.185,1.185,0,0,1,.436.244,1.215,1.215,0,0,1,.3.412,1.43,1.43,0,0,1,.112.592v1.672q0,.216.02.452t.044.388h-.512a2.921,2.921,0,0,1-.036-.3c-.008-.107-.012-.211-.012-.312h-.016a1.433,1.433,0,0,1-.548.54,1.665,1.665,0,0,1-.772.164,1.7,1.7,0,0,1-.48-.068,1.211,1.211,0,0,1-.412-.208,1.059,1.059,0,0,1-.288-.344,1,1,0,0,1-.108-.476,1.023,1.023,0,0,1,.236-.716,1.444,1.444,0,0,1,.592-.388,2.918,2.918,0,0,1,.76-.16q.4-.031.74-.032Zm-.272.432c-.133,0-.3.006-.5.02a2.9,2.9,0,0,0-.576.1,1.274,1.274,0,0,0-.472.236.539.539,0,0,0-.2.44.623.623,0,0,0,.076.316.63.63,0,0,0,.2.216.86.86,0,0,0,.284.12,1.406,1.406,0,0,0,.316.036,1.2,1.2,0,0,0,.5-.1,1.021,1.021,0,0,0,.568-.644,1.589,1.589,0,0,0,.068-.468v-.272Z" fill="#fff"/><path d="M158.439,50.638q0-.248-.012-.5t-.02-.664h.52v.7h.016a1.15,1.15,0,0,1,.16-.292,1.257,1.257,0,0,1,.252-.252,1.237,1.237,0,0,1,.344-.18,1.345,1.345,0,0,1,.444-.068,1.424,1.424,0,0,1,.392.048l-.1.52a.885.885,0,0,0-.3-.04,1.082,1.082,0,0,0-.52.116,1.15,1.15,0,0,0-.36.3,1.242,1.242,0,0,0-.212.388,1.286,1.286,0,0,0-.068.4v2.112h-.528Z" fill="#fff"/><path d="M164.631,53.214H164.1V52.59h-.017a1.373,1.373,0,0,1-.3.328,1.9,1.9,0,0,1-.368.224,1.773,1.773,0,0,1-.4.128,2.047,2.047,0,0,1-.388.04,2.126,2.126,0,0,1-.8-.148,1.857,1.857,0,0,1-1.04-1.036,2.151,2.151,0,0,1,0-1.568,1.857,1.857,0,0,1,1.04-1.036,2.117,2.117,0,0,1,.8-.148,2.008,2.008,0,0,1,.388.04,1.748,1.748,0,0,1,.4.128,1.9,1.9,0,0,1,.368.224,1.373,1.373,0,0,1,.3.328h.017V47.167h.527Zm-3.416-1.872a1.673,1.673,0,0,0,.1.584,1.4,1.4,0,0,0,.284.472,1.337,1.337,0,0,0,.444.316,1.431,1.431,0,0,0,.588.116,1.529,1.529,0,0,0,.6-.116,1.465,1.465,0,0,0,.476-.316,1.429,1.429,0,0,0,.313-.472,1.587,1.587,0,0,0,0-1.168,1.439,1.439,0,0,0-.312-.472,1.481,1.481,0,0,0-.476-.316,1.528,1.528,0,0,0-.6-.116,1.431,1.431,0,0,0-.588.116,1.351,1.351,0,0,0-.444.316,1.408,1.408,0,0,0-.284.472A1.675,1.675,0,0,0,161.215,51.342Z" fill="#fff"/><path d="M167.767,50.358a.975.975,0,0,0-.319-.368.851.851,0,0,0-.488-.136,1.26,1.26,0,0,0-.276.032.858.858,0,0,0-.252.1.556.556,0,0,0-.18.172.462.462,0,0,0-.068.256.424.424,0,0,0,.185.384,1.8,1.8,0,0,0,.552.208l.536.128a1.279,1.279,0,0,1,.652.356.923.923,0,0,1,.26.668,1.055,1.055,0,0,1-.124.524,1.068,1.068,0,0,1-.328.36,1.409,1.409,0,0,1-.468.2,2.281,2.281,0,0,1-.536.064,1.977,1.977,0,0,1-.8-.164,1.49,1.49,0,0,1-.637-.564l.456-.312a1.251,1.251,0,0,0,.4.408,1.075,1.075,0,0,0,.58.152,1.468,1.468,0,0,0,.32-.036.916.916,0,0,0,.283-.112.6.6,0,0,0,.2-.2.511.511,0,0,0,.076-.28.434.434,0,0,0-.208-.4,1.824,1.824,0,0,0-.5-.2l-.512-.12c-.064-.016-.151-.042-.261-.08a1.211,1.211,0,0,1-.319-.168,1.012,1.012,0,0,1-.269-.292.829.829,0,0,1-.111-.444,1.051,1.051,0,0,1,.115-.5.992.992,0,0,1,.313-.352,1.435,1.435,0,0,1,.444-.2,1.922,1.922,0,0,1,.512-.068,1.748,1.748,0,0,1,.728.152,1.073,1.073,0,0,1,.521.52Z" fill="#fff"/><path d="M169.191,47.167h.527v2.9h.017a1.22,1.22,0,0,1,.224-.28,1.479,1.479,0,0,1,.3-.22,1.664,1.664,0,0,1,.355-.144,1.387,1.387,0,0,1,.372-.052,1.367,1.367,0,0,1,1.064.38,1.564,1.564,0,0,1,.344,1.084v2.376h-.528V51.143a1.76,1.76,0,0,0-.216-.956.883.883,0,0,0-.8-.332,2.078,2.078,0,0,0-.225.032.976.976,0,0,0-.388.176,1.28,1.28,0,0,0-.364.432,1.666,1.666,0,0,0-.16.8v1.92h-.527Z" fill="#fff"/><path d="M174.407,48.03a.354.354,0,0,1-.12.276.375.375,0,0,1-.527,0,.377.377,0,0,1,0-.552.376.376,0,0,1,.527,0A.354.354,0,0,1,174.407,48.03Zm-.12,5.184h-.527V49.47h.527Z" fill="#fff"/><path d="M175.56,49.47h.527v.624h.017a1.373,1.373,0,0,1,.3-.328,1.9,1.9,0,0,1,.368-.224,1.74,1.74,0,0,1,.4-.128,2,2,0,0,1,.388-.04,2.114,2.114,0,0,1,.8.148,1.865,1.865,0,0,1,.628.412,1.885,1.885,0,0,1,.412.624,2.144,2.144,0,0,1,0,1.568,1.9,1.9,0,0,1-.412.624,1.872,1.872,0,0,1-.628.412,2.124,2.124,0,0,1-.8.148,2.035,2.035,0,0,1-.388-.04,1.764,1.764,0,0,1-.4-.128,1.9,1.9,0,0,1-.368-.224,1.373,1.373,0,0,1-.3-.328h-.017v2.928h-.527Zm3.416,1.872a1.664,1.664,0,0,0-.1-.584,1.415,1.415,0,0,0-.283-.472,1.356,1.356,0,0,0-.444-.316,1.432,1.432,0,0,0-.588-.116,1.485,1.485,0,0,0-1.072.432,1.436,1.436,0,0,0-.312.472,1.575,1.575,0,0,0,0,1.168,1.426,1.426,0,0,0,.312.472,1.49,1.49,0,0,0,.472.316,1.521,1.521,0,0,0,.6.116,1.432,1.432,0,0,0,.588-.116,1.342,1.342,0,0,0,.444-.316,1.405,1.405,0,0,0,.283-.472A1.662,1.662,0,0,0,178.976,51.342Z" fill="#fff"/><path d="M124.008,60.018h2.274v.4h-2.706V56.166h2.634v.4h-2.2v1.446h2.058v.4h-2.058Z" fill="#fff"/><path d="M127.716,60.126a.326.326,0,0,1-.09.225.326.326,0,0,1-.468,0,.326.326,0,0,1,0-.45.327.327,0,0,1,.468,0A.326.326,0,0,1,127.716,60.126Z" fill="#fff"/><path d="M128.874,60.978a1.266,1.266,0,0,0,.453.375,1.361,1.361,0,0,0,.621.141,1.34,1.34,0,0,0,.51-.087.882.882,0,0,0,.339-.237.914.914,0,0,0,.186-.351,1.56,1.56,0,0,0,.057-.429v-.5h-.012a1.08,1.08,0,0,1-.468.408,1.443,1.443,0,0,1-.582.12,1.515,1.515,0,0,1-.573-.108,1.464,1.464,0,0,1-.465-.3,1.375,1.375,0,0,1-.312-.453,1.43,1.43,0,0,1-.114-.57,1.5,1.5,0,0,1,.108-.57,1.462,1.462,0,0,1,.3-.462,1.347,1.347,0,0,1,.45-.309,1.452,1.452,0,0,1,.573-.111,1.581,1.581,0,0,1,.267.024,1.264,1.264,0,0,1,.282.084,1.318,1.318,0,0,1,.279.165,1.3,1.3,0,0,1,.258.267h.012v-.468h.4V60.39a2.251,2.251,0,0,1-.057.486,1.2,1.2,0,0,1-.222.474,1.263,1.263,0,0,1-.459.36,1.752,1.752,0,0,1-.768.144,1.921,1.921,0,0,1-.75-.138,1.74,1.74,0,0,1-.6-.426Zm.072-2a1.081,1.081,0,0,0,.081.417,1.1,1.1,0,0,0,.222.342,1.074,1.074,0,0,0,.33.234.977.977,0,0,0,.411.087,1.1,1.1,0,0,0,.756-.3.951.951,0,0,0,.231-.339,1.088,1.088,0,0,0,.075-.444,1.2,1.2,0,0,0-.072-.417,1,1,0,0,0-.21-.342,1.019,1.019,0,0,0-.336-.234,1.1,1.1,0,0,0-.444-.087.977.977,0,0,0-.411.087,1.081,1.081,0,0,0-.33.234,1.109,1.109,0,0,0-.222.342A1.081,1.081,0,0,0,128.946,58.974Z" fill="#fff"/><path d="M133.05,60.126a.326.326,0,0,1-.09.225.326.326,0,0,1-.468,0,.326.326,0,0,1,0-.45.327.327,0,0,1,.468,0A.326.326,0,0,1,133.05,60.126Z" fill="#fff"/><path d="M134.346,61.254h-.4l.4-1.41h.486Z" fill="#fff"/><path d="M140.544,59.766h.012v-3.6h.432v4.248h-.54l-2.532-3.636H137.9v3.636h-.432V56.166h.54Z" fill="#fff"/><path d="M143.8,58.692V58.62a.639.639,0,0,0-.72-.726,1.24,1.24,0,0,0-.858.33l-.24-.282a1.585,1.585,0,0,1,1.188-.408,1.291,1.291,0,0,1,.393.06.892.892,0,0,1,.327.183.906.906,0,0,1,.222.309,1.071,1.071,0,0,1,.084.444v1.254q0,.162.015.339c.01.118.021.215.033.291h-.384a2.148,2.148,0,0,1-.027-.222c-.006-.08-.009-.158-.009-.234h-.012a1.075,1.075,0,0,1-.411.405,1.378,1.378,0,0,1-.939.072.913.913,0,0,1-.309-.156.8.8,0,0,1-.216-.258.749.749,0,0,1-.081-.357.772.772,0,0,1,.177-.537,1.084,1.084,0,0,1,.444-.291,2.189,2.189,0,0,1,.57-.12c.2-.016.387-.024.555-.024Zm-.2.324c-.1,0-.225,0-.375.015a2.137,2.137,0,0,0-.432.072.948.948,0,0,0-.354.177.4.4,0,0,0-.147.33.467.467,0,0,0,.057.237.478.478,0,0,0,.153.162.651.651,0,0,0,.213.09,1.045,1.045,0,0,0,.237.027.9.9,0,0,0,.375-.072.766.766,0,0,0,.426-.483,1.194,1.194,0,0,0,.051-.351v-.2Z" fill="#fff"/><path d="M146.562,57.966h-.81v1.656a.9.9,0,0,0,.03.255.361.361,0,0,0,.084.153.291.291,0,0,0,.129.075.606.606,0,0,0,.165.021.781.781,0,0,0,.21-.03.958.958,0,0,0,.2-.078l.018.366a1.276,1.276,0,0,1-.534.1.992.992,0,0,1-.237-.03.562.562,0,0,1-.225-.114.627.627,0,0,1-.168-.228.911.911,0,0,1-.066-.378v-1.77h-.594v-.36h.594v-.792h.4v.792h.81Z" fill="#fff"/><path d="M149.129,60.414c-.008-.076-.013-.151-.015-.225s0-.149,0-.225H149.1a.923.923,0,0,1-.168.21,1.1,1.1,0,0,1-.228.165,1.25,1.25,0,0,1-.267.108,1.049,1.049,0,0,1-.279.039,1.024,1.024,0,0,1-.8-.285,1.171,1.171,0,0,1-.258-.813V57.606h.4V59.16a2.138,2.138,0,0,0,.036.414.8.8,0,0,0,.123.3.541.541,0,0,0,.234.186.938.938,0,0,0,.369.063,1.474,1.474,0,0,0,.168-.024.734.734,0,0,0,.291-.132.957.957,0,0,0,.273-.324,1.244,1.244,0,0,0,.12-.6v-1.44h.4V59.8q0,.114.009.288t.021.33Z" fill="#fff"/><path d="M150.479,58.482q0-.186-.009-.378t-.015-.5h.39v.522h.012a.861.861,0,0,1,.12-.219.936.936,0,0,1,.189-.189.922.922,0,0,1,.258-.135,1.021,1.021,0,0,1,.333-.051,1.079,1.079,0,0,1,.294.036l-.078.39a.664.664,0,0,0-.228-.03.812.812,0,0,0-.39.087.861.861,0,0,0-.27.222.92.92,0,0,0-.159.291.971.971,0,0,0-.051.3v1.584h-.4Z" fill="#fff"/><path d="M154.229,58.692V58.62a.639.639,0,0,0-.72-.726,1.24,1.24,0,0,0-.858.33l-.24-.282a1.585,1.585,0,0,1,1.188-.408,1.291,1.291,0,0,1,.393.06.892.892,0,0,1,.327.183.906.906,0,0,1,.222.309,1.071,1.071,0,0,1,.084.444v1.254q0,.162.015.339c.01.118.021.215.033.291h-.384a2.148,2.148,0,0,1-.027-.222c-.006-.08-.009-.158-.009-.234h-.012a1.075,1.075,0,0,1-.411.405,1.378,1.378,0,0,1-.939.072.913.913,0,0,1-.309-.156.8.8,0,0,1-.216-.258.749.749,0,0,1-.081-.357.772.772,0,0,1,.177-.537,1.084,1.084,0,0,1,.444-.291,2.189,2.189,0,0,1,.57-.12c.2-.016.387-.024.555-.024Zm-.2.324c-.1,0-.225,0-.375.015a2.137,2.137,0,0,0-.432.072.948.948,0,0,0-.354.177.4.4,0,0,0-.147.33.467.467,0,0,0,.057.237.478.478,0,0,0,.153.162.651.651,0,0,0,.213.09,1.045,1.045,0,0,0,.237.027.9.9,0,0,0,.375-.072.766.766,0,0,0,.426-.483,1.194,1.194,0,0,0,.051-.351v-.2Z" fill="#fff"/><path d="M156.029,60.414h-.4V55.878h.4Z" fill="#fff"/><path d="M161.453,60.414h-.4v-.468h-.012a1.033,1.033,0,0,1-.228.246,1.4,1.4,0,0,1-.276.168,1.294,1.294,0,0,1-.3.1,1.51,1.51,0,0,1-.291.03,1.584,1.584,0,0,1-.6-.111,1.394,1.394,0,0,1-.78-.777,1.616,1.616,0,0,1,0-1.176,1.394,1.394,0,0,1,.78-.777,1.594,1.594,0,0,1,.6-.111,1.51,1.51,0,0,1,.291.03,1.318,1.318,0,0,1,.3.1,1.427,1.427,0,0,1,.276.168,1.026,1.026,0,0,1,.228.246h.012v-2.2h.4Zm-2.562-1.4a1.255,1.255,0,0,0,.075.438,1.056,1.056,0,0,0,.213.354,1.006,1.006,0,0,0,.333.237,1.069,1.069,0,0,0,.441.087,1.141,1.141,0,0,0,.447-.087,1.115,1.115,0,0,0,.357-.237,1.084,1.084,0,0,0,.234-.354,1.184,1.184,0,0,0,0-.876,1.074,1.074,0,0,0-.234-.354,1.108,1.108,0,0,0-.357-.237,1.15,1.15,0,0,0-.447-.087,1.077,1.077,0,0,0-.441.087,1,1,0,0,0-.333.237,1.047,1.047,0,0,0-.213.354A1.251,1.251,0,0,0,158.891,59.01Z" fill="#fff"/><path d="M162.893,56.526a.265.265,0,0,1-.09.207.282.282,0,0,1-.4,0,.283.283,0,0,1,0-.414.284.284,0,0,1,.4,0A.266.266,0,0,1,162.893,56.526Zm-.09,3.888h-.4V57.606h.4Z" fill="#fff"/><path d="M165.244,58.272A.727.727,0,0,0,165,58a.634.634,0,0,0-.365-.1.942.942,0,0,0-.207.024.628.628,0,0,0-.189.075.421.421,0,0,0-.135.129.343.343,0,0,0-.051.192.319.319,0,0,0,.138.288,1.361,1.361,0,0,0,.414.156l.4.1a.956.956,0,0,1,.489.267.691.691,0,0,1,.2.5.793.793,0,0,1-.093.393.807.807,0,0,1-.246.27,1.059,1.059,0,0,1-.352.153,1.684,1.684,0,0,1-.4.048,1.487,1.487,0,0,1-.6-.123,1.113,1.113,0,0,1-.477-.423l.342-.234a.945.945,0,0,0,.3.306.811.811,0,0,0,.436.114,1.08,1.08,0,0,0,.239-.027.706.706,0,0,0,.214-.084.462.462,0,0,0,.149-.147.383.383,0,0,0,.058-.21.327.327,0,0,0-.156-.3,1.384,1.384,0,0,0-.378-.147l-.385-.09c-.048-.012-.112-.032-.194-.06a.916.916,0,0,1-.24-.126.765.765,0,0,1-.2-.219.621.621,0,0,1-.084-.333.791.791,0,0,1,.087-.378.744.744,0,0,1,.234-.264,1.072,1.072,0,0,1,.333-.153,1.458,1.458,0,0,1,.384-.051,1.312,1.312,0,0,1,.546.114.808.808,0,0,1,.391.39Z" fill="#fff"/><path d="M168.112,58.692V58.62a.639.639,0,0,0-.721-.726,1.236,1.236,0,0,0-.857.33l-.24-.282a1.584,1.584,0,0,1,1.188-.408,1.29,1.29,0,0,1,.394.06.866.866,0,0,1,.549.492,1.078,1.078,0,0,1,.084.444v1.254q0,.162.015.339c.011.118.021.215.033.291h-.384c-.012-.068-.021-.142-.027-.222s-.009-.158-.009-.234h-.012a1.075,1.075,0,0,1-.411.405,1.251,1.251,0,0,1-.579.123,1.27,1.27,0,0,1-.36-.051.92.92,0,0,1-.309-.156.8.8,0,0,1-.216-.258.755.755,0,0,1-.081-.357.769.769,0,0,1,.177-.537,1.087,1.087,0,0,1,.444-.291,2.194,2.194,0,0,1,.569-.12c.2-.016.388-.024.556-.024Zm-.2.324q-.151,0-.375.015a2.152,2.152,0,0,0-.433.072.949.949,0,0,0-.354.177.4.4,0,0,0-.147.33.467.467,0,0,0,.058.237.479.479,0,0,0,.152.162.665.665,0,0,0,.213.09,1.05,1.05,0,0,0,.237.027.9.9,0,0,0,.375-.072.76.76,0,0,0,.426-.483,1.179,1.179,0,0,0,.052-.351v-.2Z" fill="#fff"/><path d="M170.914,58.272a.727.727,0,0,0-.24-.276.634.634,0,0,0-.365-.1.942.942,0,0,0-.207.024.628.628,0,0,0-.189.075.421.421,0,0,0-.135.129.343.343,0,0,0-.051.192.319.319,0,0,0,.138.288,1.361,1.361,0,0,0,.414.156l.4.1a.956.956,0,0,1,.489.267.691.691,0,0,1,.2.5.793.793,0,0,1-.093.393.807.807,0,0,1-.246.27,1.059,1.059,0,0,1-.352.153,1.684,1.684,0,0,1-.4.048,1.487,1.487,0,0,1-.6-.123,1.113,1.113,0,0,1-.477-.423l.342-.234a.945.945,0,0,0,.3.306.811.811,0,0,0,.436.114,1.08,1.08,0,0,0,.239-.027.706.706,0,0,0,.214-.084.462.462,0,0,0,.149-.147.384.384,0,0,0,.058-.21.327.327,0,0,0-.156-.3,1.384,1.384,0,0,0-.378-.147l-.385-.09c-.048-.012-.112-.032-.194-.06a.916.916,0,0,1-.24-.126.765.765,0,0,1-.2-.219.621.621,0,0,1-.084-.333.791.791,0,0,1,.087-.378.744.744,0,0,1,.234-.264,1.072,1.072,0,0,1,.333-.153,1.458,1.458,0,0,1,.384-.051,1.312,1.312,0,0,1,.546.114.808.808,0,0,1,.391.39Z" fill="#fff"/><path d="M173.434,57.966h-.81v1.656a.918.918,0,0,0,.029.255.367.367,0,0,0,.085.153.281.281,0,0,0,.129.075.6.6,0,0,0,.165.021.786.786,0,0,0,.21-.03.96.96,0,0,0,.2-.078l.019.366a1.276,1.276,0,0,1-.534.1,1,1,0,0,1-.237-.03.557.557,0,0,1-.225-.114.627.627,0,0,1-.168-.228.918.918,0,0,1-.066-.378v-1.77h-.594v-.36h.594v-.792h.4v.792h.81Z" fill="#fff"/><path d="M174.25,59.118a1.2,1.2,0,0,0,.1.4,1.041,1.041,0,0,0,.54.534.967.967,0,0,0,.391.078,1,1,0,0,0,.549-.147,1.1,1.1,0,0,0,.351-.339l.307.252a1.526,1.526,0,0,1-.556.456,1.551,1.551,0,0,1-.65.138,1.489,1.489,0,0,1-.579-.111,1.35,1.35,0,0,1-.459-.309,1.452,1.452,0,0,1-.3-.468,1.528,1.528,0,0,1-.111-.588,1.565,1.565,0,0,1,.108-.588,1.413,1.413,0,0,1,.3-.468,1.377,1.377,0,0,1,.45-.309,1.4,1.4,0,0,1,.558-.111,1.375,1.375,0,0,1,.57.114,1.27,1.27,0,0,1,.423.3,1.3,1.3,0,0,1,.261.444,1.63,1.63,0,0,1,.09.543v.18Zm1.908-.324a.9.9,0,0,0-.24-.651.889.889,0,0,0-.672-.249.954.954,0,0,0-.372.075,1.054,1.054,0,0,0-.315.2,1.025,1.025,0,0,0-.216.288.747.747,0,0,0-.081.336Z" fill="#fff"/><path d="M177.352,58.482q0-.186-.009-.378t-.015-.5h.39v.522h.012a.893.893,0,0,1,.12-.219.965.965,0,0,1,.189-.189.936.936,0,0,1,.258-.135,1.019,1.019,0,0,1,.333-.051,1.077,1.077,0,0,1,.294.036l-.078.39a.664.664,0,0,0-.228-.03.815.815,0,0,0-.391.087.87.87,0,0,0-.27.222.92.92,0,0,0-.159.291.956.956,0,0,0-.051.3v1.584h-.4Z" fill="#fff"/><path d="M180.79,58.272a.727.727,0,0,0-.24-.276.634.634,0,0,0-.365-.1.942.942,0,0,0-.207.024.628.628,0,0,0-.189.075.421.421,0,0,0-.135.129.343.343,0,0,0-.051.192.319.319,0,0,0,.138.288,1.361,1.361,0,0,0,.414.156l.4.1a.956.956,0,0,1,.489.267.691.691,0,0,1,.2.5.793.793,0,0,1-.093.393.807.807,0,0,1-.246.27,1.059,1.059,0,0,1-.352.153,1.684,1.684,0,0,1-.4.048,1.487,1.487,0,0,1-.6-.123,1.113,1.113,0,0,1-.477-.423l.342-.234a.945.945,0,0,0,.3.306.811.811,0,0,0,.436.114,1.08,1.08,0,0,0,.239-.027.706.706,0,0,0,.214-.084.462.462,0,0,0,.149-.147.384.384,0,0,0,.058-.21.327.327,0,0,0-.156-.3,1.384,1.384,0,0,0-.378-.147l-.385-.09c-.048-.012-.112-.032-.194-.06a.916.916,0,0,1-.24-.126.765.765,0,0,1-.2-.219.621.621,0,0,1-.084-.333.791.791,0,0,1,.087-.378.744.744,0,0,1,.234-.264,1.072,1.072,0,0,1,.333-.153,1.458,1.458,0,0,1,.384-.051,1.312,1.312,0,0,1,.546.114.808.808,0,0,1,.391.39Z" fill="#fff"/><path d="M182.212,61.254h-.4l.4-1.41h.486Z" fill="#fff"/><path d="M185.68,60.414h-.4V55.878h.4Z" fill="#fff"/><path d="M189.471,59.01a1.528,1.528,0,0,1-.11.588,1.4,1.4,0,0,1-.78.777,1.68,1.68,0,0,1-1.2,0,1.391,1.391,0,0,1-.779-.777,1.609,1.609,0,0,1,0-1.176,1.391,1.391,0,0,1,.779-.777,1.68,1.68,0,0,1,1.2,0,1.4,1.4,0,0,1,.78.777A1.528,1.528,0,0,1,189.471,59.01Zm-.432,0a1.262,1.262,0,0,0-.075-.438,1.047,1.047,0,0,0-.213-.354,1,1,0,0,0-.333-.237,1.162,1.162,0,0,0-.882,0,.969.969,0,0,0-.33.237,1.073,1.073,0,0,0-.21.354,1.313,1.313,0,0,0,0,.876,1.083,1.083,0,0,0,.21.354.975.975,0,0,0,.33.237,1.162,1.162,0,0,0,.882,0,1.006,1.006,0,0,0,.333-.237,1.056,1.056,0,0,0,.213-.354A1.266,1.266,0,0,0,189.039,59.01Z" fill="#fff"/><path d="M191.679,58.272a.727.727,0,0,0-.24-.276.634.634,0,0,0-.365-.1.942.942,0,0,0-.207.024.628.628,0,0,0-.189.075.421.421,0,0,0-.135.129.343.343,0,0,0-.051.192.319.319,0,0,0,.138.288,1.361,1.361,0,0,0,.414.156l.4.1a.956.956,0,0,1,.489.267.691.691,0,0,1,.2.5.793.793,0,0,1-.093.393.807.807,0,0,1-.246.27,1.059,1.059,0,0,1-.352.153,1.684,1.684,0,0,1-.4.048,1.487,1.487,0,0,1-.6-.123,1.113,1.113,0,0,1-.477-.423l.342-.234a.945.945,0,0,0,.3.306.811.811,0,0,0,.436.114,1.08,1.08,0,0,0,.239-.027.706.706,0,0,0,.214-.084.462.462,0,0,0,.149-.147.383.383,0,0,0,.058-.21.327.327,0,0,0-.156-.3,1.384,1.384,0,0,0-.378-.147l-.385-.09c-.048-.012-.112-.032-.194-.06a.916.916,0,0,1-.24-.126.765.765,0,0,1-.2-.219.621.621,0,0,1-.084-.333.791.791,0,0,1,.087-.378.744.744,0,0,1,.234-.264,1.072,1.072,0,0,1,.333-.153,1.458,1.458,0,0,1,.384-.051,1.312,1.312,0,0,1,.546.114.808.808,0,0,1,.391.39Z" fill="#fff"/><path d="M194.234,58.272a.727.727,0,0,0-.24-.276.634.634,0,0,0-.365-.1.942.942,0,0,0-.207.024.628.628,0,0,0-.189.075.421.421,0,0,0-.135.129.343.343,0,0,0-.051.192.319.319,0,0,0,.138.288,1.361,1.361,0,0,0,.414.156l.4.1a.956.956,0,0,1,.489.267.691.691,0,0,1,.2.5.793.793,0,0,1-.093.393.807.807,0,0,1-.246.27,1.059,1.059,0,0,1-.352.153,1.684,1.684,0,0,1-.4.048,1.487,1.487,0,0,1-.6-.123,1.113,1.113,0,0,1-.477-.423l.342-.234a.945.945,0,0,0,.3.306.811.811,0,0,0,.436.114,1.08,1.08,0,0,0,.239-.027.706.706,0,0,0,.214-.084.462.462,0,0,0,.149-.147.384.384,0,0,0,.058-.21.327.327,0,0,0-.156-.3,1.384,1.384,0,0,0-.378-.147l-.385-.09c-.048-.012-.112-.032-.194-.06a.916.916,0,0,1-.24-.126.765.765,0,0,1-.2-.219.621.621,0,0,1-.084-.333A.791.791,0,0,1,192.7,58a.744.744,0,0,1,.234-.264,1.072,1.072,0,0,1,.333-.153,1.458,1.458,0,0,1,.384-.051,1.312,1.312,0,0,1,.546.114.808.808,0,0,1,.391.39Z" fill="#fff"/><path d="M199.808,59.01a1.528,1.528,0,0,1-.11.588,1.4,1.4,0,0,1-.78.777,1.68,1.68,0,0,1-1.2,0,1.391,1.391,0,0,1-.779-.777,1.609,1.609,0,0,1,0-1.176,1.391,1.391,0,0,1,.779-.777,1.68,1.68,0,0,1,1.2,0,1.4,1.4,0,0,1,.78.777A1.528,1.528,0,0,1,199.808,59.01Zm-.432,0a1.262,1.262,0,0,0-.075-.438,1.047,1.047,0,0,0-.213-.354,1,1,0,0,0-.333-.237,1.162,1.162,0,0,0-.882,0,.969.969,0,0,0-.33.237,1.073,1.073,0,0,0-.21.354,1.313,1.313,0,0,0,0,.876,1.083,1.083,0,0,0,.21.354.975.975,0,0,0,.33.237,1.162,1.162,0,0,0,.882,0,1.006,1.006,0,0,0,.333-.237,1.056,1.056,0,0,0,.213-.354A1.266,1.266,0,0,0,199.376,59.01Z" fill="#fff"/><path d="M201.836,57.966h-.666v2.448h-.4V57.966h-.594v-.36h.594v-.768a1.041,1.041,0,0,1,.258-.795.975.975,0,0,1,.685-.237,1.278,1.278,0,0,1,.171.012c.058.008.115.018.171.03l-.072.36c-.048-.012-.1-.022-.149-.03a1,1,0,0,0-.156-.012.557.557,0,0,0-.264.054.369.369,0,0,0-.156.153.658.658,0,0,0-.072.231,2.14,2.14,0,0,0-.018.282v.72h.666Z" fill="#fff"/><path d="M203.972,55.878h.4v2.2h.012a1.019,1.019,0,0,1,.229-.246,1.42,1.42,0,0,1,.275-.168,1.342,1.342,0,0,1,.3-.1,1.517,1.517,0,0,1,.291-.03,1.594,1.594,0,0,1,.6.111,1.4,1.4,0,0,1,.78.777,1.622,1.622,0,0,1,0,1.176,1.422,1.422,0,0,1-.31.468,1.4,1.4,0,0,1-.471.309,1.585,1.585,0,0,1-.6.111,1.517,1.517,0,0,1-.291-.03,1.317,1.317,0,0,1-.3-.1,1.4,1.4,0,0,1-.275-.168,1.025,1.025,0,0,1-.229-.246h-.012v.468h-.4Zm2.563,3.132a1.262,1.262,0,0,0-.075-.438,1.047,1.047,0,0,0-.213-.354,1,1,0,0,0-.333-.237,1.079,1.079,0,0,0-.441-.087,1.137,1.137,0,0,0-.449.087,1.1,1.1,0,0,0-.354.237,1.082,1.082,0,0,0-.234.354,1.184,1.184,0,0,0,0,.876,1.093,1.093,0,0,0,.234.354,1.109,1.109,0,0,0,.354.237,1.129,1.129,0,0,0,.449.087,1.071,1.071,0,0,0,.441-.087,1.006,1.006,0,0,0,.333-.237,1.056,1.056,0,0,0,.213-.354A1.266,1.266,0,0,0,206.534,59.01Z" fill="#fff"/><path d="M207.914,59.118a1.2,1.2,0,0,0,.1.4,1.041,1.041,0,0,0,.54.534.967.967,0,0,0,.391.078,1,1,0,0,0,.549-.147,1.1,1.1,0,0,0,.351-.339l.307.252a1.526,1.526,0,0,1-.556.456,1.551,1.551,0,0,1-.65.138,1.489,1.489,0,0,1-.579-.111,1.35,1.35,0,0,1-.459-.309,1.452,1.452,0,0,1-.3-.468,1.528,1.528,0,0,1-.111-.588,1.565,1.565,0,0,1,.108-.588,1.413,1.413,0,0,1,.3-.468,1.377,1.377,0,0,1,.45-.309,1.4,1.4,0,0,1,.558-.111,1.375,1.375,0,0,1,.57.114,1.27,1.27,0,0,1,.423.3,1.3,1.3,0,0,1,.261.444,1.63,1.63,0,0,1,.09.543v.18Zm1.908-.324a.9.9,0,0,0-.24-.651.889.889,0,0,0-.672-.249.954.954,0,0,0-.372.075,1.054,1.054,0,0,0-.315.2,1.025,1.025,0,0,0-.216.288.747.747,0,0,0-.081.336Z" fill="#fff"/><path d="M211.46,60.414h-.4V55.878h.4Z" fill="#fff"/><path d="M215.252,59.01a1.528,1.528,0,0,1-.11.588,1.4,1.4,0,0,1-.78.777,1.68,1.68,0,0,1-1.2,0,1.391,1.391,0,0,1-.779-.777,1.609,1.609,0,0,1,0-1.176,1.391,1.391,0,0,1,.779-.777,1.68,1.68,0,0,1,1.2,0,1.4,1.4,0,0,1,.78.777A1.528,1.528,0,0,1,215.252,59.01Zm-.432,0a1.262,1.262,0,0,0-.075-.438,1.047,1.047,0,0,0-.213-.354,1,1,0,0,0-.333-.237,1.162,1.162,0,0,0-.882,0,.969.969,0,0,0-.33.237,1.073,1.073,0,0,0-.21.354,1.313,1.313,0,0,0,0,.876,1.083,1.083,0,0,0,.21.354.975.975,0,0,0,.33.237,1.162,1.162,0,0,0,.882,0,1.006,1.006,0,0,0,.333-.237,1.056,1.056,0,0,0,.213-.354A1.266,1.266,0,0,0,214.82,59.01Z" fill="#fff"/><path d="M217.208,60.414h-.444l-1.14-2.808h.468l.9,2.364H217l.895-2.364h.449Z" fill="#fff"/><path d="M219.14,59.118a1.2,1.2,0,0,0,.1.4,1.041,1.041,0,0,0,.54.534.967.967,0,0,0,.391.078,1,1,0,0,0,.549-.147,1.1,1.1,0,0,0,.351-.339l.307.252a1.526,1.526,0,0,1-.556.456,1.551,1.551,0,0,1-.65.138,1.489,1.489,0,0,1-.579-.111,1.35,1.35,0,0,1-.459-.309,1.452,1.452,0,0,1-.3-.468,1.528,1.528,0,0,1-.111-.588,1.565,1.565,0,0,1,.108-.588,1.413,1.413,0,0,1,.3-.468,1.377,1.377,0,0,1,.45-.309,1.4,1.4,0,0,1,.558-.111,1.375,1.375,0,0,1,.57.114,1.27,1.27,0,0,1,.423.3,1.3,1.3,0,0,1,.261.444,1.63,1.63,0,0,1,.09.543v.18Zm1.908-.324a.9.9,0,0,0-.24-.651.889.889,0,0,0-.672-.249.954.954,0,0,0-.372.075,1.054,1.054,0,0,0-.315.2,1.025,1.025,0,0,0-.216.288.747.747,0,0,0-.081.336Z" fill="#fff"/><path d="M225,60.414h-.4v-.468h-.012a1.045,1.045,0,0,1-.229.246,1.4,1.4,0,0,1-.275.168,1.317,1.317,0,0,1-.3.1,1.517,1.517,0,0,1-.291.03,1.581,1.581,0,0,1-.6-.111,1.4,1.4,0,0,1-.471-.309,1.422,1.422,0,0,1-.31-.468,1.622,1.622,0,0,1,0-1.176,1.4,1.4,0,0,1,.78-.777,1.591,1.591,0,0,1,.6-.111,1.517,1.517,0,0,1,.291.03,1.342,1.342,0,0,1,.3.1,1.42,1.42,0,0,1,.275.168,1.038,1.038,0,0,1,.229.246h.012v-2.2h.4Zm-2.562-1.4a1.266,1.266,0,0,0,.075.438,1.056,1.056,0,0,0,.213.354,1.006,1.006,0,0,0,.333.237,1.071,1.071,0,0,0,.441.087,1.138,1.138,0,0,0,.446-.087,1.112,1.112,0,0,0,.357-.237,1.093,1.093,0,0,0,.234-.354,1.184,1.184,0,0,0,0-.876,1.082,1.082,0,0,0-.234-.354,1.1,1.1,0,0,0-.357-.237,1.147,1.147,0,0,0-.446-.087,1.079,1.079,0,0,0-.441.087,1,1,0,0,0-.333.237,1.047,1.047,0,0,0-.213.354A1.262,1.262,0,0,0,222.439,59.01Z" fill="#fff"/><path d="M230.371,59.01a1.528,1.528,0,0,1-.11.588,1.4,1.4,0,0,1-.78.777,1.68,1.68,0,0,1-1.2,0,1.391,1.391,0,0,1-.779-.777,1.609,1.609,0,0,1,0-1.176,1.391,1.391,0,0,1,.779-.777,1.68,1.68,0,0,1,1.2,0,1.4,1.4,0,0,1,.78.777A1.528,1.528,0,0,1,230.371,59.01Zm-.432,0a1.262,1.262,0,0,0-.075-.438,1.047,1.047,0,0,0-.213-.354,1,1,0,0,0-.333-.237,1.162,1.162,0,0,0-.882,0,.969.969,0,0,0-.33.237,1.073,1.073,0,0,0-.21.354,1.313,1.313,0,0,0,0,.876,1.083,1.083,0,0,0,.21.354.975.975,0,0,0,.33.237,1.162,1.162,0,0,0,.882,0,1.006,1.006,0,0,0,.333-.237,1.056,1.056,0,0,0,.213-.354A1.266,1.266,0,0,0,229.939,59.01Z" fill="#fff"/><path d="M231.469,57.606c.009.076.014.151.016.225s0,.149,0,.225h.012a.908.908,0,0,1,.168-.21,1.118,1.118,0,0,1,.229-.165,1.245,1.245,0,0,1,.267-.108,1.192,1.192,0,0,1,1.077.246,1.172,1.172,0,0,1,.258.813v1.782h-.4V58.86a1.321,1.321,0,0,0-.162-.717.664.664,0,0,0-.6-.249,1.626,1.626,0,0,0-.168.024.734.734,0,0,0-.291.132.955.955,0,0,0-.272.324,1.246,1.246,0,0,0-.12.6v1.44h-.4v-2.19c0-.076,0-.172-.009-.288s-.013-.226-.021-.33Z" fill="#fff"/><path d="M234.7,59.118a1.2,1.2,0,0,0,.1.4,1.041,1.041,0,0,0,.54.534.967.967,0,0,0,.391.078,1,1,0,0,0,.549-.147,1.1,1.1,0,0,0,.351-.339l.307.252a1.526,1.526,0,0,1-.556.456,1.551,1.551,0,0,1-.65.138,1.489,1.489,0,0,1-.579-.111,1.35,1.35,0,0,1-.459-.309,1.452,1.452,0,0,1-.3-.468,1.528,1.528,0,0,1-.111-.588,1.565,1.565,0,0,1,.108-.588,1.413,1.413,0,0,1,.3-.468,1.377,1.377,0,0,1,.45-.309,1.4,1.4,0,0,1,.558-.111,1.375,1.375,0,0,1,.57.114,1.27,1.27,0,0,1,.423.3,1.3,1.3,0,0,1,.261.444,1.63,1.63,0,0,1,.09.543v.18Zm1.908-.324a.9.9,0,0,0-.24-.651.889.889,0,0,0-.672-.249.954.954,0,0,0-.372.075,1.054,1.054,0,0,0-.315.2,1.025,1.025,0,0,0-.216.288.747.747,0,0,0-.081.336Z" fill="#fff"/><path d="M239.251,58.272a.727.727,0,0,0-.24-.276.634.634,0,0,0-.365-.1.942.942,0,0,0-.207.024.628.628,0,0,0-.189.075.421.421,0,0,0-.135.129.343.343,0,0,0-.051.192.319.319,0,0,0,.138.288,1.361,1.361,0,0,0,.414.156l.4.1a.956.956,0,0,1,.489.267.691.691,0,0,1,.2.5.793.793,0,0,1-.093.393.807.807,0,0,1-.246.27,1.059,1.059,0,0,1-.352.153,1.684,1.684,0,0,1-.4.048,1.487,1.487,0,0,1-.6-.123,1.113,1.113,0,0,1-.477-.423l.342-.234a.945.945,0,0,0,.3.306.811.811,0,0,0,.436.114,1.08,1.08,0,0,0,.239-.027.706.706,0,0,0,.214-.084.462.462,0,0,0,.149-.147.384.384,0,0,0,.058-.21.327.327,0,0,0-.156-.3,1.384,1.384,0,0,0-.378-.147l-.385-.09c-.048-.012-.112-.032-.194-.06a.916.916,0,0,1-.24-.126.765.765,0,0,1-.2-.219.621.621,0,0,1-.084-.333.791.791,0,0,1,.087-.378.744.744,0,0,1,.234-.264,1.072,1.072,0,0,1,.333-.153,1.458,1.458,0,0,1,.384-.051,1.312,1.312,0,0,1,.546.114.808.808,0,0,1,.391.39Z" fill="#fff"/><path d="M241.045,60.126a.327.327,0,0,1-.09.225.327.327,0,0,1-.469,0,.327.327,0,0,1,0-.45.328.328,0,0,1,.469,0A.328.328,0,0,1,241.045,60.126Z" fill="#fff"/></svg>