<svg xmlns="http://www.w3.org/2000/svg" viewBox="0 0 655 493"><defs><style>.cls-1{fill:#87b26b;}.cls-2{font-size:8px;fill:#fff;font-family:Avenir-Medium, Avenir;}.cls-3,.cls-4{font-family:Avenir-Book, Avenir;}.cls-4{font-size:6px;}.cls-5{letter-spacing:-0.09em;}.cls-6{letter-spacing:-0.02em;}</style></defs><title>Chatbot 02 (ROOT)</title><g id="template"><path d="M319.14,413.59h0C319.13,413.65,319.13,413.63,319.14,413.59Z"/><path d="M292.34,354.57c-2.62,3.2-5.81,6.09-9.89,7.09-5.48,1.35-10.66,3.58-16.08,5.07-2.13.59-4.23,1.23-6.3,2a30.7,30.7,0,0,0-5.55,2.3,35.36,35.36,0,0,0-4.25,3.41,58.18,58.18,0,0,1-9.14,6.6c-7.1,3.9-14.14,6.76-22.19,7.58-6,.61-12.1,1.54-17.75,3.73a30.54,30.54,0,0,0-14.11,10.47.23.23,0,0,0,.17.13c0,.22.09.14.31.11a1.22,1.22,0,0,0,.58-.28,51.24,51.24,0,0,1,5.83-4.11,31.08,31.08,0,0,1,8.2-2.89,48.87,48.87,0,0,1,8.82-1.26,26.61,26.61,0,0,1,4.67.24.72.72,0,0,1,.45.18,8.66,8.66,0,0,1-2.52,2.42,26.37,26.37,0,0,0-3,2.78c-.91,1-1.71,2.08-2.6,3.09a26.73,26.73,0,0,0-2.32,3.19,14,14,0,0,0-1.52,3.56c-.07.23.26.08.5.08,2.08-4.59,6.49-7.74,11.13-9.71s9.62-3,14.39-4.62a86.6,86.6,0,0,0,14.88-6.59c4.62-2.64,8.62-6.54,12.34-10.34-.3.31-.36,1.9-.52,2.38a15.63,15.63,0,0,1-1.06,2.44c-.78,1.49-1.75,2.78-2.43,4.32a24.43,24.43,0,0,1-6.06,8.33,31.57,31.57,0,0,1-3.47,2.65q-1.63,1.09-3.35,2c-2.59,1.43-5.36,2.62-7.59,4.57-4.06,3.55-8.36,6.93-12.18,10.75s-7,9-10.42,13.34a27.37,27.37,0,0,1-2.2,2.77c-3.66,3.83-7.36,8.36-12.43,10.34a14.26,14.26,0,0,0,4.92-.56,20.83,20.83,0,0,0,3.53-1.47,38.82,38.82,0,0,0,9.27-6.62c.91-.88,1.83-1.73,2.79-2.55.57-.49,2-2.15,2.79-2.12,0,2.07-.39,4.13-.39,6.2a35.39,35.39,0,0,0,.55,6.17c.15.83.26,1.67.43,2.5a12.88,12.88,0,0,0,.31,1.26,11.79,11.79,0,0,0,.53,1.19.36.36,0,0,0,.13.18h0s0,0,0-.05a4.38,4.38,0,0,0-.06-1.05c0-.46,0-.93.07-1.39s0-1,.07-1.56c.08-1.2.19-2.41.35-3.6a41.83,41.83,0,0,1,1.78-8.63,48.05,48.05,0,0,1,4-9.35c1.9-3.06,4.78-5.38,7.53-7.63a22.19,22.19,0,0,1,5.9-3.25c3.72-1.48,7.48-2.89,11.12-4.55s7.43-3.44,10.36-6a5.87,5.87,0,0,0,.61-.68c.18-.22.46-.45.7-.31a1.56,1.56,0,0,1,.29,1,9.23,9.23,0,0,1-.72,3.83c-2.14,5.76-4.44,11.42-8.22,16.33a73.35,73.35,0,0,0-5.33,7,24.4,24.4,0,0,0-2.79,7.89,28.4,28.4,0,0,0-.24,11.93l.06.24c0,.12.08.27.19.31.46.18.55-.89.55-1.1a18.89,18.89,0,0,1,2.73-10.13c.25-.42.63-.88,1.12-.82.33,6.5,1.1,13.67,5.37,18.86a1.59,1.59,0,0,0,.58.5,1.51,1.51,0,0,0-.27-1.15,20.78,20.78,0,0,1-2.1-11.57c.63-7.44,4.62-12.9,9.75-18,2.83-2.8,5.89-5.52,7.64-9.2,1.64-3.46,1.75-7.3,2.13-11a35.78,35.78,0,0,1,3-11.31,31,31,0,0,1,7.88-10.51,2.44,2.44,0,0,1,1.9-.81,23.3,23.3,0,0,0-1,15.34,20.15,20.15,0,0,1-.13,11.91,40,40,0,0,1-7.81,14.93,29.92,29.92,0,0,0-5.92,10.54,27.4,27.4,0,0,0-1.17,12.1,10.23,10.23,0,0,0,1,3.77.44.44,0,0,0,.19.21c.35.14.18-1,.17-1.23,0-.53,0-1.06,0-1.6,0-1,0-2.07.16-3.11a28.49,28.49,0,0,1,2.65-9.08,20.63,20.63,0,0,1,3.72-5.61c.26-.27.63-.55,1-.38s.33.5.35.81a34.32,34.32,0,0,0,1.84,9,2.13,2.13,0,0,0,.78,1.2c.18.11.25.06.42.19.35-.15.36-.63.33-1-.58-7.12,2.08-14.47,6.08-20.24q2.92-4.22,6.23-8.15a8,8,0,0,1,1.39-1.28.89.89,0,0,1,.67-.26c.27,0,.44.31.57.56a30.83,30.83,0,0,1,4,13c.32,5-.05,10.19-.18,15.26a32.88,32.88,0,0,0,2.67,13.21c2.48,6,7.91,12.32,14.44,13.88a1.41,1.41,0,0,0,1.2-.09c.17.25.17.2.1-.09s-.39-.45-.67-.57c-2.63-1.17-4.51-3.92-6.15-6.24a41.13,41.13,0,0,1-4.4-8.12c-2.49-6.07-1.32-11.82-1-18.1a1.49,1.49,0,0,1,1.21.62c2.7,2.85,4,6.64,5.07,10.34s2.09,7.49,5.12,10.1a8.88,8.88,0,0,0,5.57,2.23c.19,0,.43,0,.46-.23s-.16-.3-.33-.37a12.93,12.93,0,0,1-5.64-5.15c-1.39-2.36-1.51-5.18-2.09-7.82-.4-1.84-.9-3.64-1.39-5.46a42.5,42.5,0,0,0-2.33-7.07,15,15,0,0,0-3.68-5.08c-.68-.59-1.05-.77-1.21-1.68-.19-1.08-.08-2.28-.18-3.38a50.09,50.09,0,0,0-3.36-13.07c-1.56-4.21-4-8-5.68-12.18-2.34-5.87-.34-12.58,6.08-14.66,3.08-1,6.92,0,8.49,2.84,1.48,2.65.68,6-.47,8.77a38.91,38.91,0,0,0-2.94,14c-.16,4.92,2.13,9.25,5,13.12,3.39,4.63,6.82,8.84,8.1,14.59.09.41.06,0,.42.17-.26-.16.17-2.44.2-2.81a12.28,12.28,0,0,0-.18-3.58,28.71,28.71,0,0,0-2.58-6.69c-.36-.75-3-5-2.48-5.73a4.26,4.26,0,0,1,2.1,1.23,6.8,6.8,0,0,0,2.3,1.18,2.25,2.25,0,0,0-.5-1.18,33.14,33.14,0,0,1-3.73-7.67c-.72-2.12-1.28-5.17.37-7,3.85-4.35,8.57,5.86,9.19,8.56a43.49,43.49,0,0,1,.75,9.4,99.19,99.19,0,0,0,.34,10,16.91,16.91,0,0,0,3.59,9,138.63,138.63,0,0,1,10.62,18,34.71,34.71,0,0,1,1.59,4.18.28.28,0,0,0,.08.13c.17.12.32-.18.31-.39A42.85,42.85,0,0,0,343,444.72c-1-2.44-2.34-4.71-3.21-7.24l-.49-1.4c-.16-.47-.7-1.66-.31-2.12.65-.78,2.22.81,2.68,1.16a19.13,19.13,0,0,0,5.3,2.82c2.09.72,4.14.62,6.32.77,0-.26-.27-.41-.51-.49a22.07,22.07,0,0,1-13.41-13.07c-1-2.71-1.94-5.44-2.7-8.23a59.25,59.25,0,0,1-1.07-8.08c-.77-6.15-1.56-12.42-4.15-18.06-.41-.9-.85-1.78-1.31-2.66a10,10,0,0,1-1-2.19c1-.24,3.34,1.64,4.19,2.21a31.05,31.05,0,0,1,4,3.21,30.67,30.67,0,0,1,6.13,8.07c2.6,5,3.6,11.16,5.16,16.56a60.71,60.71,0,0,0,9.94,19.55c2.89,3.86,4.73,7.6,4.94,12.56a10.3,10.3,0,0,1-.25,3,5.63,5.63,0,0,1-.53,1.35,11.34,11.34,0,0,0-.77,1.1c1.52,0,2.42-1.91,3-3a9.89,9.89,0,0,0,1.28-4.4,21.14,21.14,0,0,0-1-6.25,72,72,0,0,0-4-9.36c-1.42-2.92-3.34-5.9-4-9.07a1.44,1.44,0,0,1,1.19.43,32.37,32.37,0,0,0,7,4c2.44,1,5,1.91,7.66,1.5.12,0,.27-.07.27-.2s-.11-.17-.2-.21a31.11,31.11,0,0,1-6-3,44.58,44.58,0,0,1-5.37-4.63,50.24,50.24,0,0,1-7.09-8.66,13.41,13.41,0,0,1-.67-1.29,46.63,46.63,0,0,1-2.76-7.26c-.86-3-1.81-6-2.92-8.88a47.58,47.58,0,0,0-6.66-12,25.38,25.38,0,0,0-6.26-5.7c-1.82-1.19.85-1.26,1.62-1.3a24.27,24.27,0,0,1,3.82.13c5.27.59,9.63,2.93,13.83,6,6.34,4.67,11.21,11.14,14.89,18.12a43.85,43.85,0,0,1,2,4.37c.57,1.44,1.27,2.8,1.81,4.23a46.1,46.1,0,0,1,2.7,9.48A124.68,124.68,0,0,1,377,433a42.73,42.73,0,0,0,3,14.35,44.07,44.07,0,0,0,3.7,7.38,25.85,25.85,0,0,0,3.83,5.15c1.43,1.4,3.69,3.1,5.81,2.94a.22.22,0,0,0,.12,0,.19.19,0,0,0,0-.21,1,1,0,0,0-.17-.3c-.82-1.12-1.81-2.1-2.64-3.22s-1.67-2.35-2.42-3.58a25.78,25.78,0,0,1-3.79-10.32,41.46,41.46,0,0,1-.2-5.74c0-1.08.19-2.37,1.16-2.83a2.73,2.73,0,0,1,1-.2c8.37-.52,15,4.12,22.53,7,5.87,2.29,12.19,4.4,18.36,3.16a21.17,21.17,0,0,0,2.45-.61,9.06,9.06,0,0,0,1.49-.57,1.67,1.67,0,0,0,.68-.49.13.13,0,0,0,0-.09c0-.07-.1-.08-.17-.09-.72,0-1.44,0-2.17,0s-1.57-.11-2.35-.2a43,43,0,0,1-15-4.63,41.89,41.89,0,0,1-6.61-4.3l-.15-.12a35.39,35.39,0,0,0-9.57-5.33,61.24,61.24,0,0,0-6.56-2.15q-1.62-.42-3.27-.69c-.9-.15-.94-.6-1-1.53,0-2.46.16-4.92.17-7.37s0-5.19-.19-7.78a41.34,41.34,0,0,0-3.41-15.07,118.39,118.39,0,0,0-6-11,38.23,38.23,0,0,0-4.52-6.39c-.7-.74-1.35-1.53-2.05-2.27-.4-.43-.88-.78-1.26-1.23-.74-.87.16-.64.87-.53a43.11,43.11,0,0,1,5.14,1.13,34.18,34.18,0,0,1,9.49,4.28,26.54,26.54,0,0,1,6,5,81.15,81.15,0,0,1,11,18.16c1.63,3.73,3,7.6,5.1,11.09a59.05,59.05,0,0,0,4.82,6.53c4.43,5.45,10.58,9.55,16.88,12.57a40.54,40.54,0,0,0,21.61,3.77,24.84,24.84,0,0,0,4.64-.85c.47-.14,1.49-.85.4-.93-.51,0-1-.13-1.51-.18A63.32,63.32,0,0,1,428,427a4.19,4.19,0,0,1-1.29-1c-.54-.74.68-.53,1.18-.53,1.88,0,3.74.31,5.62.41a37.26,37.26,0,0,0,9.08-.18c.24,0,2.3-.74,1.64-1a.42.42,0,0,0-.2,0,17.16,17.16,0,0,1-4.41-.5,41.7,41.7,0,0,1-4.76-1.11,19.68,19.68,0,0,1-7.33-3.86c-5-4.41-9.18-8.17-11.09-14.57-2.31-7.74-3.57-14.83-8.33-21.35-.54-.74-.78-1.2-1.28-2a.75.75,0,0,1-.17-.67.73.73,0,0,1,.53-.33,34.94,34.94,0,0,1,15.55,0c5.09,1,9.93,2.66,14,5.87A65.06,65.06,0,0,1,449.64,399c2.89,4,4.82,9,6.85,13.49,2.24,4.94,5.75,8.93,9.07,13.15a41.46,41.46,0,0,0,5,5.39,24.84,24.84,0,0,0,2.92,2.25c.34.22,2.68,1.76,2.9,1.44a.31.31,0,0,0,0-.32.91.91,0,0,0-.25-.24,42.13,42.13,0,0,1-4-3.34,49.07,49.07,0,0,1-4.55-5,47.24,47.24,0,0,1-4.54-7.52,23.66,23.66,0,0,1-2.19-5.43c-.34-1.48-.64-3.37.1-4.77a.25.25,0,0,1,.1-.12c.09,0,.19,0,.26.09,3.38,3,5.52,7,8.36,10.47A81,81,0,0,0,480.42,429a53.24,53.24,0,0,0,10.6,7.22c2,1,5.27,2.8,7.57,2.52a.39.39,0,0,0,.22-.08c.19-.17,0-.47-.25-.6-2.24-1.36-4.39-2.92-6.54-4.46a45.14,45.14,0,0,1-10.88-10.27c-2.52-3.55-4.82-7.26-7.29-10.88s-5-7.56-7.5-11.38a70,70,0,0,0-15.78-16.64,86.4,86.4,0,0,0-9.7-6.29,32,32,0,0,0-7.49-3.44,88.51,88.51,0,0,0-8.68-1.74q-5.77-1-11.63-1.52c-10.81-.89-19.89-4.25-30-8.26-.9-.36-1.8-.69-2.71-1-7.4-2.6-15.29-4.89-20.82-10.77Zm26.8,59s0,.05,0,0Z"/><path class="cls-1" d="M318.22,412.89h0C318.21,413,318.22,412.93,318.22,412.89Z"/><path class="cls-1" d="M484.3,418.46c-4.94-7.32-10-14.41-14.3-22.15a40.26,40.26,0,0,0-7.3-10.19,76.34,76.34,0,0,0-10.12-8.45c-9.82-6.75-21.2-9.32-32.91-10.29s-21.49-4.59-32.38-8.92c-1-.38-1.95-.74-2.93-1.09-8-2.81-16.52-5.28-22.49-11.64l-72.6,3.4c-2.83,3.46-6.28,6.58-10.69,7.66-5.92,1.46-11.52,3.86-17.37,5.48-2.3.63-4.57,1.33-6.8,2.14-3.19,1.15-5.18,1.85-7.81,4.16-5.55,4.88-11.9,9.36-19,11.61-2.31.73-4.7,2-7.07,2.27-8.18,1.07-16.26,1-23.78,5-7,3.74-11.21,8.4-13.26,16.16-.21.8-1.31,3.68.45,3.68a2.23,2.23,0,0,0,1.31-.63,82.2,82.2,0,0,1,10.09-7.31,27.89,27.89,0,0,1,5.23-2.33,18.14,18.14,0,0,1,6.57-1c-.67,0-3.56,5-3.91,5.69a16.18,16.18,0,0,0-1.07,9.91c.09.45.34,1,.79,1a1,1,0,0,0,.59-.44c1.5-1.91,3.4-3.37,5-5.18s2.5-3.17,4.71-4.27a47.72,47.72,0,0,1,8.63-3.31q5-1.38,10-2.82a33.57,33.57,0,0,0,8.35-3.2l.69-.43a58,58,0,0,0,8.25-6.79,4.21,4.21,0,0,1-1.33,2.57,56.12,56.12,0,0,1-5.24,5.2c-2.55,2.22-6.38,3.64-9.29,5.25s-5.8,2.83-8.2,4.94A95.5,95.5,0,0,0,212.56,417c-1.94,2.47-3.76,5-5.69,7.49-3.22,4.11-6.68,8-10.24,11.83-2.11,2.27-4.46,3.18-7.44,4-.19.42.24.85.63,1.09,3.32,2.08,6.78,1.47,10.41.94a19.22,19.22,0,0,0,9.57-4.05,26.55,26.55,0,0,1,4.52-3.48.8.8,0,0,1,.79-.07.83.83,0,0,1,.26.62c.41,3.84.65,7.81,3.34,10.74.94,1,2.17,2.16,3.64,2.2,0-1.32.27-2.61.29-4a29.31,29.31,0,0,1,.62-5.47c.7-3.4,2.31-6.48,3.18-9.81a24.58,24.58,0,0,1,3.38-7.65c3.87-5.89,9.39-10.82,16.15-13,4.22-1.36,8-2.41,11.82-4.76.18-.11.49-.16.52,0a.31.31,0,0,1,0,.13,39.38,39.38,0,0,1-1.94,3.68,29.36,29.36,0,0,1-3.57,6.17c-.61.79-1,1.66-1.61,2.45-.93,1.2-1.92,2.39-2.92,3.58-3.44,4.14-4.78,9.72-5.1,15a41.55,41.55,0,0,0,.28,8.85c.34,2.24,1.8,5.83,4,6.75.82-2.33.52-4.38.73-6.8.06-.71-.19-2,.3-2.58q1.2,3.48,2.63,6.89a16,16,0,0,0,2.41,4.33,5.92,5.92,0,0,0,4.27,2.23c.27.36.23.09.42-.32a2,2,0,0,0,0-1.32L257,448a26.27,26.27,0,0,1-.65-3.11c-.63-5,1.61-9.86,4.2-14.17,5.26-8.74,14.29-14.3,15.79-25.13.61-4.4.75-8.54,2.32-12.76l1.47-4c.78-2.1.91-.14,1,.63a26.67,26.67,0,0,0,.88,4.85,21.76,21.76,0,0,1-.15,12.86,27.58,27.58,0,0,1-4,9,117.76,117.76,0,0,0-7.41,10.94,25.6,25.6,0,0,0-2.71,12.17c0,3.75,0,8.88,2.87,11.72a2.57,2.57,0,0,0,1,.7c.84.26,1.37-.27,1.63-1a17.8,17.8,0,0,0,.61-4.5c.13-1.93.09-3.91.41-5.82a19.8,19.8,0,0,1,3.45-8.09c-.06.09.86,2.8.95,3.11a11.36,11.36,0,0,0,1.34,3.07,4,4,0,0,0,3.54,2,.93.93,0,0,0,.52-.18,1.11,1.11,0,0,0,.29-.68c.77-4.43.95-9.41,2.72-13.52a50.79,50.79,0,0,1,4.76-8.62c1.06-1.55,4.26-6.84,5.66-2.58a30.23,30.23,0,0,1,1.36,7.82c.22,4-.09,8-.2,11.92a47.66,47.66,0,0,0,.55,10.05c1.34,7.14,6.67,14.1,12.81,17.83,3.11,1.89,6.89,3.5,10.32,1.91.5-.23.87-.93.48-1.31-2-2-4.18-3.85-6.15-5.78s-3-4.7-4.17-7a27.16,27.16,0,0,1-2.41-6.85c-.37-1.74-1.42-5.19-.61-6.88a7.1,7.1,0,0,1,1.72,2.6c.17.45.29.91.43,1.37,1.32,4.54,3.95,11,8.47,13.23a8.48,8.48,0,0,0,5.18.67c.32-.06.65-.06,1-.13a6.81,6.81,0,0,0,1.07-.46.71.71,0,0,0,.17-.09.44.44,0,0,0,.15-.41c0-.31-.34-.53-.56-.74l0,0-.77-.71c-.5-.46-1-.94-1.47-1.42a23,23,0,0,1-2.57-3.05,17.07,17.07,0,0,1-1.52-2.68c-1.55-3.44-2-7.07-2.78-10.71-1-4.44-1.94-10.93-6.22-13.47a2.78,2.78,0,0,1-.93-.71,2.27,2.27,0,0,1-.3-.84c-.66-3.12-.66-6.34-1.36-9.46a49,49,0,0,0-3.85-10.85c-2.09-4.23-6-9.34-3.69-14.31a7.65,7.65,0,0,1,4.37-4,4.13,4.13,0,0,1,2.83-.12c3.82,1,2.37,6.75,1.53,9.32-1.48,4.57-2.65,9.28-2.05,14.15.62,5.06,3,9.67,5.64,14,1.81,3,4,5.73,5.7,8.75,1.86,3.24,2.48,6.61,3.52,10.15.08.26.21.56.48.58s.4-.17.52-.36a4.75,4.75,0,0,0,.52-1.53,31.88,31.88,0,0,0,.74-10,22.31,22.31,0,0,0-1.09-5.13,18.15,18.15,0,0,0-2.43-4.74,13.77,13.77,0,0,1,2,.36,1.05,1.05,0,0,0,1,0,.82.82,0,0,0,.32-.7c0-1.35-1.14-2.48-1.67-3.65-.7-1.55-1.32-3.28-1.9-4.89a11.75,11.75,0,0,1-1.11-4.25c0-1.09.77-2.69,2.11-2,2.81,1.53,2.82,7.13,3.2,9.88a81.49,81.49,0,0,1,.76,12.5c0,.47-.1.13,0,.59.38,3,.89,6.44,2.35,9,1.56,2.78,3.51,5.18,5.19,7.87a190.52,190.52,0,0,1,11.15,20c.13.27.41.59.66.42,1.21-.83,1.26-3.14,1.39-4.47a22.2,22.2,0,0,0-.72-6.31,46.8,46.8,0,0,0-2.88-9,26.89,26.89,0,0,0-1.91-3.7c-.82-1.32,0-1.26,1.18-.59a14.94,14.94,0,0,0,7.09,1.89c1,0,7.25-.27,6.14-2.52-.55-1.11-2.85-1.07-3.85-1.43a8.35,8.35,0,0,1-3.4-2.82c-6.93-8-9.79-16.88-11.43-27.2-.69-4.37-2.22-8.36-3.12-12.61a1.1,1.1,0,0,1,.19-1,2.07,2.07,0,0,1,1.35,1.08A42.71,42.71,0,0,1,342,405.29c.75,2.79.93,5.68,1.79,8.41a60.95,60.95,0,0,0,8.43,16.87c1.79,2.52,4.89,4.91,6.2,7.62.47,1,.91,2,1.29,3,1,2.76,1.87,6.59.17,9.26-.43.68-1.55,1.88-1.45,2.74s1.51.63,2.13.58c2.91-.27,6-3.28,6.66-6.06.77-3.44.22-7.51-.66-10.88-1-3.88-3.43-7.64-4.91-11.39a29,29,0,0,0,4,1.07c1.76.34,3.48.74,5.25,1a3.64,3.64,0,0,0,2.29-.16c3.55-2-2.85-5.66-4-6.48a26,26,0,0,1-4.22-3.84c-3.82-4.17-7.7-8.44-10-13.62-1.8-4.08-2.55-8.26-3.88-12.53a29,29,0,0,0-3.78-8.12c-1.35-1.92-3.7-3.89-4.51-6.22-.16-.47,2.65.9,2.86,1a20.42,20.42,0,0,1,4,2.47,98.68,98.68,0,0,1,9.81,8.93,51,51,0,0,1,10.44,18.76,87.55,87.55,0,0,1,3.89,22.79c.41,7.47,1.61,15.23,5.36,21.85,3.15,5.56,9.69,11.92,16.61,11.92a3.4,3.4,0,0,0,1.78-.06,1.29,1.29,0,0,0,.86-1.4,1.91,1.91,0,0,0-.47-.74C392.53,456,385.44,448.6,387,439.6c1-5.59,12.92.67,15.49,2,1.83,1,3.57,2.11,5.45,3,7.93,3.56,18,6.42,25.13,0,1-.9,2.74-2.79,1.55-4.19a3,3,0,0,0-2.4-.64,35.75,35.75,0,0,1-18.76-4.94c-5.2-3.06-9.77-6.76-15.43-9-4-1.62-10.71-1.62-10-7.55,1.61-12.84-2.31-28.2-10.66-38.29a31.72,31.72,0,0,0-2.37-2.39,4.67,4.67,0,0,1,3.21.58c5.54,2.61,9.47,7.57,12.36,12.83,1.74,3.17,3.33,6.39,5,9.59,1.47,2.78,2.79,5.71,4.17,8.61,5.45,11.44,13,20.29,24.76,25.55a53.76,53.76,0,0,0,15.87,4,35.84,35.84,0,0,0,13.59-1,11.91,11.91,0,0,0,5.27-2.78,1.79,1.79,0,0,0,.63-1.19c0-2-5.13-2.67-6.41-2.94-4.64-1-12.93-1-16.68-4.35a39.57,39.57,0,0,0,6.78-.74,16,16,0,0,0,4.14-1.76c1.76-1.05,2-2.37-.48-2.73a35.19,35.19,0,0,1-19.46-10,50.24,50.24,0,0,1-7-8.91c-3.41-5.32-4.32-11.68-6.73-17.44-1.1-2.64-.55-2.76,2-2.42,2.87.38,5.93.3,8.67,1.21,7.94,2.64,13.92,9.23,19.17,15.44,5.9,7,9.72,15.4,15,22.81a40.63,40.63,0,0,0,9.18,9.66c1.5,1.07,10.61,6.23,12,4.19,1.19-1.72-5.46-7.79-6.6-8.92-2.91-2.88-6-5.79-7.57-9.64a5.63,5.63,0,0,1,2.64,2.4,51.28,51.28,0,0,0,8.22,8.86c2.88,2.45,5.6,5.29,8.83,7.31,5.37,3.34,12.51,6.08,18.81,4.92a2.6,2.6,0,0,0,1.29-.5c1.7-1.5-.84-4.1-2-4.87C496.54,430.78,489.14,425.63,484.3,418.46Zm-166.07-5.57s0,.06,0,0Z"/><path d="M318.53,411.62h0C318.52,411.67,318.52,411.65,318.53,411.62Z"/><path d="M291.79,352.73c-2.62,3.2-5.8,6.07-9.87,7.07-5.47,1.34-10.63,3.57-16,5.06-2.13.59-4.22,1.23-6.28,2a30.63,30.63,0,0,0-5.54,2.29,35.27,35.27,0,0,0-4.24,3.4,58,58,0,0,1-9.12,6.58c-7.08,3.89-14.1,6.75-22.14,7.57-6,.61-12.07,1.53-17.71,3.72a30.47,30.47,0,0,0-14.07,10.44.23.23,0,0,0,.17.13c0,.22.09.13.31.11a1.22,1.22,0,0,0,.58-.28,51.12,51.12,0,0,1,5.81-4.1,31,31,0,0,1,8.18-2.88,48.76,48.76,0,0,1,8.8-1.26,26.55,26.55,0,0,1,4.66.24.72.72,0,0,1,.45.18,8.64,8.64,0,0,1-2.51,2.41,26.31,26.31,0,0,0-3,2.77c-.91,1-1.71,2.07-2.59,3.08a26.67,26.67,0,0,0-2.31,3.18,14,14,0,0,0-1.52,3.55c-.07.23.26.08.5.08,2.08-4.58,6.48-7.72,11.1-9.69s9.6-3,14.36-4.61a86.4,86.4,0,0,0,14.85-6.57c4.61-2.63,8.6-6.52,12.31-10.32-.3.31-.36,1.89-.52,2.37a15.59,15.59,0,0,1-1.05,2.44c-.78,1.48-1.74,2.78-2.42,4.31a24.38,24.38,0,0,1-6,8.31,31.5,31.5,0,0,1-3.47,2.65q-1.62,1.09-3.34,2c-2.59,1.42-5.35,2.62-7.58,4.56-4.05,3.55-8.34,6.91-12.15,10.72s-7,8.94-10.39,13.31a27.31,27.31,0,0,1-2.19,2.76c-3.65,3.82-7.34,8.34-12.4,10.32a14.23,14.23,0,0,0,4.91-.56,20.78,20.78,0,0,0,3.52-1.47,38.73,38.73,0,0,0,9.25-6.6c.91-.87,1.83-1.73,2.79-2.54.57-.49,2-2.14,2.78-2.12,0,2.07-.39,4.12-.39,6.19a35.31,35.31,0,0,0,.55,6.15c.15.83.26,1.67.43,2.49a12.85,12.85,0,0,0,.31,1.26,11.76,11.76,0,0,0,.53,1.19.36.36,0,0,0,.13.18h0s0,0,0-.05a4.37,4.37,0,0,0-.06-1c0-.46,0-.92.07-1.39s0-1,.07-1.56c.08-1.2.19-2.4.35-3.59a41.73,41.73,0,0,1,1.77-8.61,47.94,47.94,0,0,1,4-9.33c1.9-3,4.77-5.37,7.52-7.62a22.14,22.14,0,0,1,5.89-3.25c3.72-1.47,7.46-2.88,11.1-4.54s7.41-3.43,10.33-6a5.86,5.86,0,0,0,.61-.67c.18-.21.46-.45.7-.31a1.55,1.55,0,0,1,.29,1,9.21,9.21,0,0,1-.72,3.82c-2.13,5.74-4.43,11.39-8.2,16.29a73.18,73.18,0,0,0-5.32,7,24.35,24.35,0,0,0-2.78,7.87,28.34,28.34,0,0,0-.24,11.9l.06.24c0,.12.08.26.19.31.45.18.55-.88.55-1.1a18.84,18.84,0,0,1,2.72-10.1c.25-.42.63-.88,1.11-.82.33,6.49,1.1,13.63,5.36,18.82a1.59,1.59,0,0,0,.58.5,1.51,1.51,0,0,0-.27-1.15,20.73,20.73,0,0,1-2.09-11.55c.62-7.43,4.61-12.87,9.73-17.93,2.82-2.79,5.87-5.51,7.62-9.18,1.64-3.45,1.74-7.28,2.13-11a35.7,35.7,0,0,1,3-11.29A30.9,30.9,0,0,1,284.14,380a2.44,2.44,0,0,1,1.89-.81,23.25,23.25,0,0,0-1,15.31,20.1,20.1,0,0,1-.13,11.88,39.9,39.9,0,0,1-7.79,14.9,29.85,29.85,0,0,0-5.91,10.51,27.34,27.34,0,0,0-1.17,12.07,10.2,10.2,0,0,0,1,3.76.43.43,0,0,0,.19.21c.35.14.18-1,.17-1.23,0-.53,0-1.06,0-1.59,0-1,0-2.07.16-3.1a28.42,28.42,0,0,1,2.65-9.06,20.58,20.58,0,0,1,3.71-5.6c.26-.27.63-.55,1-.38s.33.5.35.81a34.24,34.24,0,0,0,1.84,9,2.12,2.12,0,0,0,.78,1.2c.18.11.25.06.42.19.35-.15.36-.63.33-1-.57-7.1,2.08-14.44,6.06-20.2q2.91-4.21,6.21-8.13a8,8,0,0,1,1.39-1.27.89.89,0,0,1,.66-.26c.27,0,.44.31.57.55a30.76,30.76,0,0,1,4,13c.32,5-.05,10.17-.18,15.23A32.81,32.81,0,0,0,304,449.11c2.48,6,7.89,12.29,14.41,13.85a1.41,1.41,0,0,0,1.19-.09c.17.25.17.2.1-.09s-.39-.45-.66-.57c-2.63-1.16-4.5-3.91-6.14-6.22a41,41,0,0,1-4.39-8.1c-2.48-6.06-1.32-11.79-1-18.06a1.48,1.48,0,0,1,1.2.62c2.7,2.84,4,6.63,5.06,10.31s2.09,7.47,5.1,10.07a8.86,8.86,0,0,0,5.56,2.23c.19,0,.43,0,.46-.23s-.16-.3-.33-.37a12.9,12.9,0,0,1-5.63-5.13c-1.39-2.36-1.51-5.17-2.08-7.8-.4-1.83-.9-3.63-1.38-5.45a42.4,42.4,0,0,0-2.32-7.05,14.92,14.92,0,0,0-3.67-5.07c-.68-.58-1-.76-1.21-1.68-.19-1.08-.08-2.27-.18-3.37a50,50,0,0,0-3.35-13c-1.56-4.2-4-8-5.67-12.15-2.33-5.86-.34-12.55,6.06-14.63,3.07-1,6.9,0,8.47,2.83,1.47,2.64.67,5.95-.47,8.75a38.82,38.82,0,0,0-2.93,13.93c-.16,4.91,2.12,9.23,4.94,13.09,3.38,4.62,6.81,8.82,8.08,14.55.09.41.06,0,.42.17-.26-.16.17-2.43.2-2.8a12.25,12.25,0,0,0-.18-3.57,28.65,28.65,0,0,0-2.57-6.68c-.36-.75-3-5-2.47-5.72a4.25,4.25,0,0,1,2.1,1.23,6.79,6.79,0,0,0,2.3,1.18,2.24,2.24,0,0,0-.5-1.18,33.06,33.06,0,0,1-3.72-7.65c-.72-2.12-1.27-5.15.37-7,3.85-4.34,8.55,5.85,9.17,8.54a43.39,43.39,0,0,1,.75,9.38,99,99,0,0,0,.34,10,16.87,16.87,0,0,0,3.58,9A138.31,138.31,0,0,1,343.52,453a34.63,34.63,0,0,1,1.58,4.17.28.28,0,0,0,.08.13c.17.12.32-.18.31-.39a42.75,42.75,0,0,0-3.13-14.2c-1-2.44-2.33-4.7-3.21-7.22l-.49-1.4c-.16-.47-.69-1.66-.31-2.12.65-.78,2.22.81,2.67,1.16a19.09,19.09,0,0,0,5.29,2.81c2.09.72,4.13.62,6.31.77,0-.25-.27-.41-.51-.49a22,22,0,0,1-13.38-13c-1-2.7-1.94-5.43-2.69-8.21a59.12,59.12,0,0,1-1.07-8.06c-.77-6.14-1.56-12.39-4.14-18-.41-.9-.85-1.78-1.31-2.65a9.93,9.93,0,0,1-1-2.18c1-.24,3.33,1.64,4.18,2.2a31,31,0,0,1,4,3.21,30.6,30.6,0,0,1,6.11,8c2.6,5,3.6,11.13,5.14,16.52a60.57,60.57,0,0,0,9.92,19.5c2.89,3.85,4.72,7.58,4.93,12.53a10.28,10.28,0,0,1-.25,3,5.62,5.62,0,0,1-.53,1.35,11.31,11.31,0,0,0-.77,1.1c1.51,0,2.41-1.9,3-3a9.87,9.87,0,0,0,1.28-4.39,21.09,21.09,0,0,0-1-6.24,71.87,71.87,0,0,0-4-9.34c-1.41-2.91-3.33-5.88-4-9.05a1.44,1.44,0,0,1,1.19.43,32.29,32.29,0,0,0,7,4c2.43,1,5,1.91,7.64,1.5.12,0,.27-.07.27-.19s-.11-.17-.2-.21a31,31,0,0,1-6-3,44.47,44.47,0,0,1-5.36-4.62,50.13,50.13,0,0,1-7.07-8.64,13.38,13.38,0,0,1-.67-1.29,46.52,46.52,0,0,1-2.75-7.25c-.86-3-1.81-6-2.91-8.86a47.47,47.47,0,0,0-6.64-12,25.32,25.32,0,0,0-6.25-5.68c-1.81-1.19.85-1.26,1.61-1.3a24.21,24.21,0,0,1,3.81.13c5.26.59,9.61,2.93,13.8,6,6.32,4.65,11.18,11.12,14.86,18.07a43.75,43.75,0,0,1,2,4.36c.57,1.44,1.26,2.79,1.81,4.22a46,46,0,0,1,2.69,9.46,124.4,124.4,0,0,1,.93,16.44,42.64,42.64,0,0,0,3,14.31,44,44,0,0,0,3.69,7.37,25.79,25.79,0,0,0,3.83,5.14c1.43,1.4,3.68,3.09,5.8,2.93a.22.22,0,0,0,.12,0,.19.19,0,0,0,0-.21,1,1,0,0,0-.17-.3c-.82-1.12-1.8-2.1-2.63-3.21s-1.67-2.34-2.41-3.57a25.72,25.72,0,0,1-3.78-10.3,41.36,41.36,0,0,1-.2-5.72c0-1.07.19-2.36,1.16-2.82a2.73,2.73,0,0,1,1-.2c8.35-.52,15,4.11,22.47,7,5.86,2.28,12.16,4.39,18.32,3.15a21.12,21.12,0,0,0,2.44-.61,9,9,0,0,0,1.49-.57,1.67,1.67,0,0,0,.68-.49.13.13,0,0,0,0-.09c0-.07-.1-.08-.17-.09-.72,0-1.43,0-2.16,0s-1.56-.11-2.34-.2a42.91,42.91,0,0,1-15-4.62,41.79,41.79,0,0,1-6.6-4.29l-.15-.12a35.31,35.31,0,0,0-9.54-5.31,61.09,61.09,0,0,0-6.55-2.15q-1.62-.42-3.27-.68c-.9-.15-.94-.6-.95-1.53,0-2.45.16-4.91.17-7.35s0-5.18-.19-7.76a41.24,41.24,0,0,0-3.4-15,118.12,118.12,0,0,0-6-11,38.14,38.14,0,0,0-4.51-6.38c-.7-.74-1.35-1.52-2-2.26-.4-.43-.87-.78-1.25-1.22-.74-.87.16-.64.87-.52a43,43,0,0,1,5.13,1.13,34.1,34.1,0,0,1,9.47,4.27,26.48,26.48,0,0,1,6,5,81,81,0,0,1,11,18.12c1.63,3.72,3,7.58,5.09,11.06a58.92,58.92,0,0,0,4.81,6.51c4.42,5.44,10.56,9.53,16.84,12.54a40.45,40.45,0,0,0,21.56,3.77,24.78,24.78,0,0,0,4.63-.85c.47-.14,1.49-.85.39-.93-.51,0-1-.13-1.51-.18a63.18,63.18,0,0,1-24.25-7.7,4.18,4.18,0,0,1-1.29-1c-.54-.74.67-.53,1.18-.53,1.88,0,3.73.31,5.6.41a37.18,37.18,0,0,0,9.06-.18c.23,0,2.29-.74,1.63-1a.42.42,0,0,0-.2,0,17.12,17.12,0,0,1-4.4-.5A41.61,41.61,0,0,1,434,421a19.63,19.63,0,0,1-7.31-3.85c-5-4.4-9.16-8.16-11.07-14.54-2.3-7.72-3.56-14.8-8.31-21.3-.54-.74-.77-1.2-1.28-2a.74.74,0,0,1-.17-.67.73.73,0,0,1,.53-.33,34.85,34.85,0,0,1,15.52,0c5.07,1,9.9,2.65,14,5.85a64.91,64.91,0,0,1,12.82,12.85c2.89,4,4.81,9,6.84,13.46,2.24,4.93,5.74,8.91,9,13.12a41.36,41.36,0,0,0,5,5.38,24.78,24.78,0,0,0,2.91,2.24c.34.22,2.67,1.76,2.89,1.44a.31.31,0,0,0,0-.32.9.9,0,0,0-.24-.24,42,42,0,0,1-4-3.33,49,49,0,0,1-4.54-5,47.14,47.14,0,0,1-4.53-7.5,23.61,23.61,0,0,1-2.18-5.41c-.34-1.48-.64-3.36.1-4.76a.25.25,0,0,1,.1-.12c.09,0,.19,0,.26.09,3.37,3,5.5,7,8.34,10.45A80.77,80.77,0,0,0,479.43,427a53.11,53.11,0,0,0,10.57,7.2c2,1,5.26,2.79,7.55,2.51a.39.39,0,0,0,.22-.08c.19-.17,0-.47-.25-.6-2.23-1.36-4.38-2.92-6.53-4.45a45,45,0,0,1-10.86-10.25c-2.52-3.54-4.81-7.24-7.27-10.85s-5-7.54-7.48-11.35a69.85,69.85,0,0,0-15.75-16.6,86.2,86.2,0,0,0-9.68-6.28,31.92,31.92,0,0,0-7.47-3.44,88.3,88.3,0,0,0-8.66-1.74q-5.76-1-11.6-1.51c-10.79-.89-19.85-4.24-29.91-8.24-.89-.35-1.8-.69-2.7-1-7.38-2.6-15.25-4.88-20.77-10.75Zm26.74,58.88s0,.05,0,0Z"/></g><g id="text"><rect class="cls-1" x="111" y="342" width="129" height="31" rx="6" ry="6"/><text class="cls-2" transform="translate(213.21 351.61)">ROOT<tspan class="cls-3"><tspan x="-50.69" y="9.6">Origin &amp; Foundation</tspan></tspan><tspan class="cls-4"><tspan x="-97.66" y="16.8">E.g., Famil</tspan><tspan class="cls-5" x="-69.32" y="16.8">y</tspan><tspan x="-66.98" y="16.8">, cultu</tspan><tspan class="cls-6" x="-50.65" y="16.8">r</tspan><tspan x="-48.76" y="16.8">e, values, important places</tspan></tspan></text></g></svg>