<svg xmlns="http://www.w3.org/2000/svg" viewBox="0 0 655 494"><defs><style>.cls-1{fill:#87b26b;}.cls-2{fill:none;}.cls-3{font-size:8px;fill:#fff;font-family:Avenir-Medium, Avenir;}.cls-4,.cls-6{font-family:Avenir-Book, Avenir;}.cls-5{letter-spacing:-0.02em;}.cls-6{font-size:6px;}.cls-7{letter-spacing:-0.09em;}</style></defs><title>Chatbot 07 (BUG)</title><g id="template"><g id="icons_Q2" data-name="icons Q2"><path class="cls-1" d="M379.06,145.58a8.79,8.79,0,0,1,1.12-.94c.47-.34,1-.42,1.47-.75.11-.08-.61-.7-.67-.77a2,2,0,0,1-.68-1.36,1.86,1.86,0,0,1,1.11-1.52,2.87,2.87,0,0,1,2.46.49c-.44-.22-.64-1.89-.65-2.33a4,4,0,0,1,.71-2.46c.63-.76,2.22-1.24,2.82-.17a3.7,3.7,0,0,1,.25,2.55c.09-.5,1.13-.08,1.38-.29s.21-.75.32-1a9.76,9.76,0,0,1,.53-.88c.29-.45.16-.75-.28-1.12-.12-.1-.26-.18-.38-.27a1.84,1.84,0,0,1-.84-1.62,2.08,2.08,0,0,1,2.68-1.46,4.23,4.23,0,0,1,2.94,3,.61.61,0,0,0,.08.21.57.57,0,0,0,.18.14c.34.21,1.11.92,1.49.9a1.34,1.34,0,0,0,.42-.13,4.69,4.69,0,0,1,2.66-.29,3.38,3.38,0,0,1,2.06,1.61,1.58,1.58,0,0,1-1.57,2.25c-.64,0-1.19-.27-1.77.13-.13.09-.19.85-.23,1a2.84,2.84,0,0,1-1.1,1.71c-.12.1.4.7.56.74.77.18,1.24-.68,1.58-1.15a.87.87,0,0,1,.64-.38,1,1,0,0,1,.64.25,2,2,0,0,1,1,1.55c-.14,1.95-2.06,3.15-3.76,3.62.91.51,1.84,1.36,1.74,2.4a1.57,1.57,0,0,1-2.39,1.19,5.86,5.86,0,0,0-.91-.3,5.11,5.11,0,0,1,1.08,3.33,2.54,2.54,0,0,1-2.27,2.35c-.86,0-2.38-1.07-2.17-2,.06-.3.23-.58.3-.88.1-.45,0-.8-.45-.71s-.89.57-1.31.72a4.62,4.62,0,0,1-6-3.12,5.19,5.19,0,0,0-.61-1.81.76.76,0,0,0-.58-.35.72.72,0,0,0-.27.07c-.66.28-.76.77-1.14,1.3a1.35,1.35,0,0,1-.84.6c-1.35.2-1.9-1.29-1.86-2.39a2.58,2.58,0,0,1,.55-1.62Z"/></g><g id="icons_Q2-2" data-name="icons Q2"><path class="cls-1" d="M295.15,168.53a6.78,6.78,0,0,1,0-1.13c0-.45.23-.82.24-1.25,0-.1-.71,0-.78,0a1.53,1.53,0,0,1-1.15-.23,1.43,1.43,0,0,1-.41-1.4c.16-.7.88-1,1.46-1.27-.35.16-1.45-.5-1.73-.7a3.06,3.06,0,0,1-1.16-1.59c-.17-.74.29-1.94,1.22-1.8a2.85,2.85,0,0,1,1.67,1.05c-.26-.29.48-.73.47-1s-.36-.48-.44-.65a7.53,7.53,0,0,1-.29-.74c-.14-.39-.38-.45-.81-.36l-.35.1a1.42,1.42,0,0,1-1.38-.25,1.61,1.61,0,0,1,.38-2.32,3.26,3.26,0,0,1,3.19-.4.47.47,0,0,0,.17.05.44.44,0,0,0,.17,0c.29-.11,1.09-.24,1.25-.49a1,1,0,0,0,.12-.32,3.62,3.62,0,0,1,1.08-1.76,2.61,2.61,0,0,1,2-.5,1.22,1.22,0,0,1,.63,2c-.32.37-.72.6-.76,1.14,0,.12.43.52.53.63a2.19,2.19,0,0,1,.52,1.47c0,.12.62.09.71,0,.47-.38.17-1.08,0-1.51a.67.67,0,0,1,.07-.57.8.8,0,0,1,.46-.27,1.53,1.53,0,0,1,1.4.15c1.12,1,.95,2.74.44,4a2.16,2.16,0,0,1,2.28.07,1.21,1.21,0,0,1-.4,2,4.52,4.52,0,0,0-.61.41,3.94,3.94,0,0,1,2.54.91,2,2,0,0,1,.36,2.5c-.4.53-1.77.95-2.26.37-.16-.18-.25-.41-.4-.6s-.51-.35-.65-.06-.07.81-.18,1.14a3.56,3.56,0,0,1-4.76,2.22,4,4,0,0,0-1.39-.48.58.58,0,0,0-.48.19.55.55,0,0,0-.09.19c-.14.53.12.83.25,1.31a1,1,0,0,1,0,.79c-.52.92-1.68.55-2.34,0a2,2,0,0,1-.73-1.1Z"/></g><rect class="cls-2" x="291.23" y="152.58" width="15.79" height="15.79" transform="translate(-40.03 146.31) rotate(-25.82)"/><g id="icons_Q2-3" data-name="icons Q2"><path d="M305.6,160.26a.66.66,0,0,0-.57-1.18l-1.81.87a5.17,5.17,0,0,0-.45-.62,3.29,3.29,0,0,0,.83-3.95.66.66,0,0,0-1.18.57,2,2,0,0,1-.55,2.42,4.47,4.47,0,0,0-1.55-.93,2.37,2.37,0,0,0-.27-1.08,2.86,2.86,0,0,0-.86-1h0a1.32,1.32,0,0,1,.61-1.76.66.66,0,0,0-.57-1.18,2.67,2.67,0,0,0-1.49,2.51,2.53,2.53,0,0,0-2.13,1,2.67,2.67,0,0,0-2.91-.42.66.66,0,0,0,.57,1.18,1.32,1.32,0,0,1,1.76.61h0a2.86,2.86,0,0,0,.28,1.33,2.47,2.47,0,0,0,.68.88,5.3,5.3,0,0,0-.24,1.76,1.94,1.94,0,0,1-2.22-1,.66.66,0,0,0-1.18.57,3.36,3.36,0,0,0,3.61,1.8,5.17,5.17,0,0,0,.21.74l-1.81.87a.66.66,0,0,0,.57,1.18l1.81-.87a5.17,5.17,0,0,0,.45.62,3.36,3.36,0,0,0-.83,3.95.66.66,0,0,0,1.18-.57,2,2,0,0,1,.55-2.42,3.51,3.51,0,0,0,6.1-3,2,2,0,0,1,2.24,1.07.66.66,0,1,0,1.18-.57,3.36,3.36,0,0,0-3.61-1.8,5.17,5.17,0,0,0-.21-.74ZM302,164.92a.66.66,0,1,1-1.18.57L298,159.57a.66.66,0,0,1,.31-.88.69.69,0,0,1,.88.31Z"/></g><g id="Layer_2" data-name="Layer 2"><g id="invisible_box" data-name="invisible box"><rect class="cls-2" x="380.5" y="132.59" width="19.78" height="19.78" transform="translate(86.48 425.94) rotate(-63.06)"/></g><g id="icons_Q2-4" data-name="icons Q2"><path d="M395.51,148.78a.82.82,0,1,0,.75-1.47L394,146.17a6.47,6.47,0,0,0,.28-.92,4.12,4.12,0,0,0,4.57-2.16.82.82,0,1,0-1.47-.75,2.51,2.51,0,0,1-2.83,1.29,5.61,5.61,0,0,0-.24-2.25,3,3,0,0,0,.87-1.08,3.59,3.59,0,0,0,.36-1.62h0a1.65,1.65,0,0,1,2.22-.72.82.82,0,1,0,.75-1.47,3.34,3.34,0,0,0-3.63.42,3.17,3.17,0,0,0-2.65-1.34,3.34,3.34,0,0,0-1.79-3.22.82.82,0,1,0-.75,1.47,1.65,1.65,0,0,1,.72,2.22h0a3.59,3.59,0,0,0-1.11,1.28,3.09,3.09,0,0,0-.36,1.34,6.64,6.64,0,0,0-1.94,1.09,2.43,2.43,0,0,1-.64-3,.82.82,0,0,0-1.47-.75,4.2,4.2,0,0,0,.94,5,6.47,6.47,0,0,0-.58.77L383,140.59a.82.82,0,0,0-.75,1.47l2.24,1.14a6.47,6.47,0,0,0-.28.92,4.2,4.2,0,0,0-4.57,2.16.82.82,0,0,0,1.47.75,2.51,2.51,0,0,1,2.83-1.29,4.4,4.4,0,0,0,7.57,3.85,2.47,2.47,0,0,1,.63,3,.82.82,0,1,0,1.47.75,4.2,4.2,0,0,0-.94-5,6.47,6.47,0,0,0,.58-.77Zm-7.37,0a.82.82,0,0,1-1.47-.75l3.73-7.35a.82.82,0,0,1,1.11-.36.87.87,0,0,1,.36,1.11Z"/></g></g></g><g id="text"><rect class="cls-1" x="432" y="129" width="129" height="31" rx="6" ry="6"/><text class="cls-3" transform="translate(434 138.61)">BUG<tspan class="cls-4"><tspan x="0" y="9.6">P</tspan><tspan class="cls-5" x="4.59" y="9.6">r</tspan><tspan x="7.1" y="9.6">oblem &amp; Challenge</tspan></tspan><tspan class="cls-6"><tspan x="0" y="16.8">E.g., Buz</tspan><tspan class="cls-7" x="23.57" y="16.8">y</tspan><tspan x="25.91" y="16.8">, few friend, cold, long-distance</tspan></tspan></text></g></svg>