<svg xmlns="http://www.w3.org/2000/svg" viewBox="0 0 655 494"><defs><style>.cls-1{fill:#87b26b;}.cls-2{fill:#a2bbe6;}.cls-3{fill:#f1d153;}.cls-4{font-size:8px;fill:#fff;font-family:Avenir-Medium, Avenir;}.cls-5,.cls-9{font-family:Avenir-Book, Avenir;}.cls-6{letter-spacing:-0.02em;}.cls-7{letter-spacing:-0.02em;}.cls-8{letter-spacing:0em;}.cls-9{font-size:6px;}</style></defs><title>Chatbot 08 (STORM)</title><g id="template"><path class="cls-1" d="M132,126l-.9-.27-5-1.51-2.52-.76a6.59,6.59,0,0,1-1.64-.57c1-.64,2.38-.35,3.53-.37,1.54,0,3.1-.24,4.63-.42a8.76,8.76,0,0,0,1.85-.49c.64-.22,1.31-.33,2-.57a15.46,15.46,0,0,0-5.35-30h-.28a27,27,0,0,0-49-19.22A15.46,15.46,0,0,0,59.1,93.09a15.46,15.46,0,0,0-2.36,25.27q.49.41,1,.78a11,11,0,0,1,1.08.93,5.21,5.21,0,0,0-.9.73,9.74,9.74,0,0,0-3.19,5.89,8.46,8.46,0,0,0,.12,2.93c.76,3,3.68,4.08,6.5,4a10.76,10.76,0,0,0-.1,7.18c.64,1.84,2.23,4.14,4.25,4.64a15,15,0,0,0,7,.06,3,3,0,0,0,2.08-1.46c-.44,1,5.53,1.71,6.06,1.68a11.12,11.12,0,0,0,6.44-2.36,12.56,12.56,0,0,0,8.59,2.09,6.6,6.6,0,0,0,4.11-1.56L91,163Z"/><path class="cls-2" d="M58.24,124.12c1.07-1.5,5.78-2.36,5.78-2.36s.74,4.73-.33,6.23a3.34,3.34,0,1,1-5.45-3.88Z"/><path class="cls-2" d="M72.32,124.12c1.07-1.5,5.78-2.36,5.78-2.36s.74,4.73-.33,6.23a3.34,3.34,0,1,1-5.45-3.88Z"/><path class="cls-2" d="M65.58,136.62c1.07-1.5,5.78-2.36,5.78-2.36S72.1,139,71,140.5a3.34,3.34,0,1,1-5.45-3.88Z"/><path class="cls-2" d="M86.4,124.12c1.07-1.5,5.78-2.36,5.78-2.36s.74,4.73-.33,6.23a3.34,3.34,0,1,1-5.45-3.88Z"/><path class="cls-2" d="M78.42,136.62c1.07-1.5,5.78-2.36,5.78-2.36s.74,4.73-.33,6.23a3.34,3.34,0,1,1-5.45-3.88Z"/><path class="cls-2" d="M91.26,136.62c1.07-1.5,5.78-2.36,5.78-2.36s.74,4.73-.33,6.23a3.34,3.34,0,1,1-5.45-3.88Z"/><polygon class="cls-3" points="129.13 99.21 115.37 124.86 125.64 127.45 96.45 156.48 110.22 130.84 99.95 128.24 129.13 99.21"/><path d="M123.26,119.34a13.4,13.4,0,1,0,0-26.8H123A23.45,23.45,0,0,0,80.5,75.88a13.4,13.4,0,0,0-17.44,18.4,13.4,13.4,0,0,0,6.6,25.06h53.6Z"/></g><g id="text"><rect class="cls-1" x="50" y="31" width="129" height="31" rx="6" ry="6"/><text class="cls-4" transform="translate(52 40.61)">STORM<tspan class="cls-5"><tspan x="0" y="9.6">La</tspan><tspan class="cls-6" x="8.15" y="9.6">r</tspan><tspan x="10.66" y="9.6">ger Ha</tspan><tspan class="cls-7" x="34.81" y="9.6">r</tspan><tspan class="cls-8" x="37.32" y="9.6">dship</tspan></tspan><tspan class="cls-9"><tspan x="0" y="16.8">E.g., Natural disasters, loss of beloved ones.</tspan></tspan></text></g></svg>