<svg xmlns="http://www.w3.org/2000/svg" viewBox="0 0 655 494"><defs><style>.cls-1{fill:#cbcbcb;}.cls-2{fill:#87b26b;}.cls-3{font-size:8px;fill:#fff;font-family:Avenir-Medium, Avenir;}.cls-4{letter-spacing:-0.05em;}.cls-5,.cls-6{font-family:Avenir-Book, Avenir;}.cls-6{font-size:6px;}.cls-7{letter-spacing:-0.02em;}.cls-8{letter-spacing:-0.09em;}</style></defs><title>Chatbot 05 (LEAVES)</title><g id="base"><path class="cls-1" d="M480.31,225.74c-.27-1.75-.36-3.67-1.44-5.07,1.78-.21,3.35.33,5.08.49a7.49,7.49,0,0,0,2.11-.14c.38-.07,1.64-.72,1.93-.63a8.39,8.39,0,0,1-3.72-2.38,17.14,17.14,0,0,0,4.53-.21,7,7,0,0,0,3.9-2.17,1.2,1.2,0,0,0,.29-.51,1.35,1.35,0,0,0-.12-.73c-.87-2.36-1.69-4.87-3.85-6.16A10.15,10.15,0,0,0,494.9,205a7.42,7.42,0,0,0,1.14-1.5c1.15-2.09.65-4.72.12-7a36.52,36.52,0,0,0-11.26-.26,21,21,0,0,0-4.75.84c-1.26.42-1.77,1.2-2.79-.18-1.15-1.54-1.71-3.21-.27-4.51a12,12,0,0,1,4.88-2.89c-.55-2.73-2.57-4.9-4.55-6.86a53,53,0,0,0-4.65-4.66q-4.65-3.69-9.27-7.43a18.6,18.6,0,0,1-2.5-2.27c-1.82-2.11-2.53-5.08-4.65-6.9a12.06,12.06,0,0,0,4.76-1.14c.29-.14.56-.34.84-.5a26.79,26.79,0,0,0-3.41-4.31,5.66,5.66,0,0,0-2.22-1.57,6.61,6.61,0,0,0,2.77-.32,8.6,8.6,0,0,1,1.9-.64,9.39,9.39,0,0,0-2-3.62,6.36,6.36,0,0,0,3.31.19,2.16,2.16,0,0,0,.86-.38l.58-.36a31,31,0,0,0-4.6-6.14c1.63-.65,2.48-2.57,3.06-4.12a.34.34,0,0,0,0-.24.35.35,0,0,0-.2-.16,22.22,22.22,0,0,1-5.27-3.75,1.11,1.11,0,0,1-.43-.59c-.17-1,2.18-.62,2.68-.72a9.78,9.78,0,0,0,7.59-7.18c.18-.71.14-6.34.22-6.36-.18,0-.16-.11-.32,0-3.65,1.86-7.74.38-11.58,1.06-3.32.59-6.87,3.34-6.77,7a12.85,12.85,0,0,0,.95,3.95.24.24,0,0,1,0,.18.24.24,0,0,1-.17.11,4.24,4.24,0,0,1-2.59-.12,2.58,2.58,0,0,1-1.27-.92,3.59,3.59,0,0,1-.4-2.11c0-.85-.13-1.77.51-2.34a12.45,12.45,0,0,0,3.24-13.45.73.73,0,0,0-.24-.36.74.74,0,0,0-.47-.07,25.39,25.39,0,0,0-8.63,2.18,13.3,13.3,0,0,0-4.17,3.06,3.8,3.8,0,0,0-1,3.51,10.74,10.74,0,0,0-7.19-2.27,1.23,1.23,0,0,1-.52,0,1,1,0,0,1-.37-.29,8,8,0,0,1-1.58-5.06,13,13,0,0,1,.33-4.07c.36-1.32.62-3,1.94-3.33a12.35,12.35,0,0,0,7.22-5.32.57.57,0,0,0,.12-.35c0-.18-.19-.3-.35-.39a33.83,33.83,0,0,1-6.43-4.34c-3.58-3.36-12.46-4.32-13.65,2a5.55,5.55,0,0,0,1.34,4.42.91.91,0,0,1,.32,1.33,2.05,2.05,0,0,1-1.33.77c-1.3.29-2.69.15-3.95.6a8.84,8.84,0,0,0-3.15,2.37c-.35.36-.4.14-.59.6a21.93,21.93,0,0,0-1.54,11.9,20,20,0,0,0-5.92.82,26.36,26.36,0,0,0-5,1.37,6,6,0,0,0,3.1-3.92c-2.67-.82-5.33-1.75-8-2.41-.72-.18-8.15-1.65-8.29-1.07.14-.62,1.06-.92,1-1.55,0-.37-.39-.61-.72-.79l-2.33-1.3c-1.87-1-2.1-3.38.14-4.17a8.12,8.12,0,0,1,8.69,2.53,8.75,8.75,0,0,0,4.7,2.73,15.8,15.8,0,0,0,5.5.18,8.52,8.52,0,0,0,5.17-2.06,8.38,8.38,0,0,0,1.34-1.93,27,27,0,0,0,2.61-7.36,10.29,10.29,0,0,0-2.63-2.35,17.77,17.77,0,0,0-3.5-1.45c1.92-.58,3.91-.89,5.84-1.45A16.31,16.31,0,0,0,411,93a5,5,0,0,0,2.12-4.85,7.41,7.41,0,0,0-.86-2.28c-1.8-3.32-4.76-5.81-6.6-9.1A33.45,33.45,0,0,0,402.71,79a43.25,43.25,0,0,0-8.14,11.1,24.17,24.17,0,0,0-4.69.05.4.4,0,0,0-.27.1.43.43,0,0,0-.08.23c-.26,1.76-1.51,2.49-2.94,3.3-4.15,2.34-6.58,5.88-9.47,9.66a31.45,31.45,0,0,1-5.06,5.23,1.86,1.86,0,0,1-.62.38,4.18,4.18,0,0,1-.87.06c-1.06.09-1.77,1-2.76,1.28-.81.22-1.63-.18-2.27.5-.46.49-.61.41-.74,1.07a6.4,6.4,0,0,0-.18,2.27A2.17,2.17,0,0,0,366,116c.8.27,1.75-.09,2.47.34.89.53.8,1.83.59,2.84a8.61,8.61,0,0,0-1.84-.57,22.15,22.15,0,0,1,.79,6.82,35.93,35.93,0,0,1-5.88-6c-1.65-2.15-2.8-4.63-4.45-6.74a15.46,15.46,0,0,0-5.57-4.4c-1.73-.87-3.28-.86-5.18-1.05,0-1.26.14-2.57.14-3.84a7.65,7.65,0,0,0,4.41.54q2.19-.19,4.37-.49a8.56,8.56,0,0,0,2.19-.51,4.54,4.54,0,0,0,2.17-2,1.41,1.41,0,0,0,1.84.35,6.33,6.33,0,0,1,4.13-1.09c1.45,0,2.88.37,4.33.48a15.67,15.67,0,0,0,9.72-2.54,4.37,4.37,0,0,0,2.36-3,11.79,11.79,0,0,0,.37-5.43c-.62-2.68-3.33-4.88-5.93-5.54-.79-.2-3.48-.68-4.11.07a5.13,5.13,0,0,0,.83-5.11c-2.49-.19-5-.62-7.45-.82-3.95-.3-8,0-11,2.8a14.74,14.74,0,0,0-2.1,2.52,5.13,5.13,0,0,1-1.88,2,.43.43,0,0,1-.25.05c-.17,0-.25-.23-.29-.4a13.15,13.15,0,0,0-1.89-4.07,19.17,19.17,0,0,0-11.34-7.81c-.27,2.62,0,5.2-.67,7.8A6.12,6.12,0,0,1,335.14,84a18.27,18.27,0,0,1-2.62,2c-.37.25-.33.42-.77.36a8.14,8.14,0,0,0-6.46,2.09,2.88,2.88,0,0,0-.92,1.37,3,3,0,0,0,0,1,11.33,11.33,0,0,0,.59,2.59c.22.62.7,1.23.29,1.75a4.52,4.52,0,0,0-2.59,2.5,9,9,0,0,0-1,7,17,17,0,0,0-4.16.09c0-.25,0-.44,0-.69a7.41,7.41,0,0,0-1.65-5.17c-.73-.89-1.67-1.6-2.41-2.48a28,28,0,0,1-3.48-5.47c-.91-1.78-2.35-4.75-4.69-4.79a13.43,13.43,0,0,1,.74-1.79,10.16,10.16,0,0,0,.7-2.52s3.13-.18,3.34-.21a3.24,3.24,0,0,0,2.4-1.45c.75,1,1.55,1.33,2.31,2.31.92,1.19,2.59,1.47,4.09,1.54a12.74,12.74,0,0,0,3.87-.3,6.08,6.08,0,0,0,3.25-2c1.72-2.19,2-6.21,1.22-8.79a9.6,9.6,0,0,0-11.45,3.56,5.66,5.66,0,0,0-.67,1.27,1.52,1.52,0,0,1-.38.71c-.21.17-.55-.06-.6-.33a7.14,7.14,0,0,0,.94-5.71c-.51-1.92-1.72-2.28-3-3.82a7.38,7.38,0,0,0-3.9-2.17,22,22,0,0,0-7.7-.69,2.78,2.78,0,0,0-1.8.63c.45.53.37.67.83,1.19a3.73,3.73,0,0,1,.47,3.63,16.23,16.23,0,0,1-1.88,3.33,22.87,22.87,0,0,0-3.41,10.08c-.15,1.64,0,3.32-.12,4.92s-.18,3.05,1,4.29a7.71,7.71,0,0,0,2.32,1.56c.27.13.69.12.7.42a4.4,4.4,0,0,0-.27,4,.38.38,0,0,1-.1.35,17.1,17.1,0,0,0-2.68-.12,5.72,5.72,0,0,0-2.57.71.11.11,0,0,1-.09,0s0-.06-.05-.09,0,0,0-.12a4.35,4.35,0,0,0-2.32-4.17,8.84,8.84,0,0,0-4.92-.88,9.27,9.27,0,0,0-3.45.77A12.29,12.29,0,0,0,278.74,99c-2.46,2.53-5,5.29-5.6,8.77A17.43,17.43,0,0,0,273,111a4.16,4.16,0,0,1-.87-3.45,8.23,8.23,0,0,1,1.52-3c2.46-3.52,5.44-6.43,7.13-10.38a7.38,7.38,0,0,0-.24-6.7c-3.78-6.06-12.7-4.89-18.12-1.93-.59.32-1.22.81-1.21,1.48,0,.52.39,1.09.08,1.5-.07-.14-.08.31-.13.16a10,10,0,0,0-2-3.47,15.23,15.23,0,0,0-4.67-3.65c-.57-.29-3.95-2.15-4.39-1.31a.21.21,0,0,0,0,.13,8.58,8.58,0,0,1-.36,4.23c-.52,1.54-1.3,2.92-1.68,4.51a9.11,9.11,0,0,0,.16,4.82c.85,2.78,3.61,4.31,6.4,4.53a2,2,0,0,1,1,.27.69.69,0,0,1,.22.95.93.93,0,0,1-.67.26c-1.81.13-3.7-.64-5.39,0a3.5,3.5,0,0,1-1.53.48,2.59,2.59,0,0,1-1.06-.47,10.42,10.42,0,0,0-12.92,2,3,3,0,0,0-.71,1.23,3.1,3.1,0,0,0,0,1.22c.23,1.27.06,2.12.69,3.24l4.69,8.35c1.39,2.47,3.12,4.48,4.21,7.12a7.81,7.81,0,0,1,.49,6.08c-1,4.58-.45,9.11-4,12.2a16.81,16.81,0,0,1-5.44,2.8,3.93,3.93,0,0,1-1.08.28.57.57,0,0,1-.45-.12.61.61,0,0,1-.13-.26c-.41-1.31-.65-1.89.06-3.07l2.26-3.79a14.2,14.2,0,0,0,1.71-3.58,14.21,14.21,0,0,0,.16-4.73c-.26-3.31-.36-7.14-1.79-10.2a19.52,19.52,0,0,0-6-6.79,1,1,0,0,0-.55-.24c-.48,0-.67.63-.71,1.11a10.65,10.65,0,0,1-1,4.72,32.49,32.49,0,0,1-2.19,3.39,5.91,5.91,0,0,1-3.82,2.26c-3.8,1-6.38,2.73-9.49,5.11a1.72,1.72,0,0,0-.22,2.2,5.85,5.85,0,0,0,1.77,1.62,5.17,5.17,0,0,1,1.87,1.92,25.39,25.39,0,0,0-7.94-.91,8,8,0,0,0-2.56.44,33.25,33.25,0,0,0,.4,9.07c.19,1.33.68,2.61.22,3.89a17.52,17.52,0,0,0-1,3.65c-.36,2.79.64,5.56,1.62,8.2l3.41,9.19c.54,1.45,1.21,2.9,1.69,4.35s.46,2.77.84,4.12c.16.57.84.8,1.43.89.92.14,1.85.15,2.77.23.44,0,2.34.09,2.48.6s-1.76,1.44-2.11,1.67a16.62,16.62,0,0,0-2.37,1.62.4.4,0,0,1-.23.09c-.14,0-.23-.15-.28-.28a3.26,3.26,0,0,1-.21-1.69,13.39,13.39,0,0,0-3,2.16,15.41,15.41,0,0,0-2.63,3.25c-1.12,1.71-1.69,3.61-2.68,5.38a6.36,6.36,0,0,1-3,3,13,13,0,0,0-3.76,2.46,25.25,25.25,0,0,0-4.25,5.45,1.93,1.93,0,0,0-.33.78c0,.28-.09.56.18.66a10.27,10.27,0,0,0,6.85,4.17c.54.08,1.19,0,1.44.44a9.59,9.59,0,0,0,3.86,3.53,15.39,15.39,0,0,0,2.45.93,8.63,8.63,0,0,0-1.16,3.53,13.82,13.82,0,0,0,.46,3.91c.23,1,1.18,2.32,2.3,1.33a6,6,0,0,1,2.28-1.08,3.4,3.4,0,0,1,1.8-.19c.93.24.94,1,1.1,1.78a3.76,3.76,0,0,0,1.24,2.2c.58.48,1.33.8,1.67,1.46a.37.37,0,0,1,.06.22.39.39,0,0,1-.12.2c-1.24,1.26-3,.52-4.51.2a40.43,40.43,0,0,1-4.82-1.61,14,14,0,0,1-1.87-.76c-3.45-1.8-3.16-5.65-5.61-8.19a8.17,8.17,0,0,0-5.16-2.43,21.39,21.39,0,0,0-3,.3,10.29,10.29,0,0,1-3.16-.29c-1.3-.33-2.23-1.32-3.48-1.82-3.07-1.22-6.54-.6-9.81-1.06a6.94,6.94,0,0,0-3.33-.14.53.53,0,0,0-.61.27,1.54,1.54,0,0,0-.15.7c-.1,2.15-.16,4.44.91,6.3a17.06,17.06,0,0,0,6.08,5.48,4.44,4.44,0,0,1-.91,1.53,16.2,16.2,0,0,0-1.61,2.8,5.14,5.14,0,0,0-.67,2.1c0,.78.39,1,1,1.49a6.68,6.68,0,0,0,2.13.91l3.88,1.14-2.35,1.71a.33.33,0,0,0-.15.18c0,.15.14.25.28.31a14.16,14.16,0,0,0,4.05.64c1.25.07,2.45,0,3.7,0a.6.6,0,0,1,.4.11.56.56,0,0,1,.1.53,7.22,7.22,0,0,1-.43,1.25,15.68,15.68,0,0,0-.4,10.5.51.51,0,0,0,.25.33.5.5,0,0,0,.34,0c.62-.22,1.18-.58,1.79-.84,2.35-1,5.07-.65,7.5-1.42.24-.08.48-.15.71-.24a5.14,5.14,0,0,0,2.12-1.58,2.06,2.06,0,0,1,1.2-.7,1.68,1.68,0,0,1,.79-.09,1.71,1.71,0,0,1,1,.61,6.14,6.14,0,0,1,1.18,3.54,45.61,45.61,0,0,0,.73,6.61,3.11,3.11,0,0,0,.56,1.3,2.86,2.86,0,0,0,2.32.52,5.28,5.28,0,0,0,1.53-.65,38.76,38.76,0,0,0,4.57-3,22.49,22.49,0,0,0,4.66-4.24,5,5,0,0,1,2-1.88,3.84,3.84,0,0,1,2.86.38c1.49.68,1.5,2.49.79,3.83a9,9,0,0,1-2.46,2.65,11.15,11.15,0,0,0-2.57,2.56,3.51,3.51,0,0,0-.33,3.45c1.1,2,.86,4.79,2.58,6.49a9.39,9.39,0,0,0-2.76,2.43,19.28,19.28,0,0,0-1.33,2.13,16,16,0,0,0-1.78,5.11,19.8,19.8,0,0,0-.07,8,.14.14,0,0,0,.14.13,14,14,0,0,0,3,.09q1.67,0,3.34-.2a33.84,33.84,0,0,0,6.45-1.35c.76-.24,1.53-.38,2.31-.55a19.8,19.8,0,0,0,2.27-.74,1.51,1.51,0,0,1,.28-.08c.7-.1,1,.53,1.39,1s.82,1,1.24,1.54a12.1,12.1,0,0,0,2.82,2.66l.23.14a11,11,0,0,0,4.58-3c.39-.43.74-.9,1.09-1.37a18.37,18.37,0,0,0,5.8,3.33,27.63,27.63,0,0,0,4.74,1.62,1.71,1.71,0,0,0,.83.07c0-.18-.07-.35-.11-.53a6.48,6.48,0,0,1-.28-1.75c.09-2.26.45-4.19.6-6.45a16.93,16.93,0,0,0,0-3.39,6.17,6.17,0,0,0-1.44-3.37,8.05,8.05,0,0,0-3.64-1.63,10.32,10.32,0,0,0-2.7-.26c-.7,0-1.83.47-2.45,0a1.32,1.32,0,0,1-.26-.3c-1.52-2.17-2.54-4.5-4.85-6a6,6,0,0,0-3.25-1.08,1.16,1.16,0,0,1-.84-.18c-.86-.84,1.19-2.66,1.72-3.17a7,7,0,0,1,3.34-2,8.57,8.57,0,0,1,3.62.17,10.9,10.9,0,0,1,4.15,1.69,10.72,10.72,0,0,1,3.12,4c.76,1.54,1.33,3.18,2.1,4.71a7.82,7.82,0,0,0,1.47,2.33,11.1,11.1,0,0,0,6,2.94c.38.06,1.15.23,1.43,0a3.44,3.44,0,0,0,1.22-1.77,13.79,13.79,0,0,0,.34-6.13,8.48,8.48,0,0,0-3.37-5.18c-1-.71-2-1.23-3-2a1.86,1.86,0,0,1-.66-.78c-.12-.33-.28-.81,0-.9a26,26,0,0,0,6.78-3,2.8,2.8,0,0,0,.89-.77c.22-.33.46-.6.24-.93a13.11,13.11,0,0,0-1.64-2.08c-1.23-1.21-2.84-1.94-4.08-3.14a26.57,26.57,0,0,1-3.39-4.94,6.85,6.85,0,0,0-2.85-3,7.15,7.15,0,0,0-4.16-.43,4.23,4.23,0,0,0-2.31,1,3.64,3.64,0,0,0-1,2.44,11.27,11.27,0,0,0,.32,2.66c.13.66.3,1.94-.6,2.19s-1.21-.77-1.3-1.43c-.34-2.48-1.92-3.74-4.22-4.22-2-.42-4.26-.55-5.78-2.12a9.15,9.15,0,0,1-.9-1.17c-.88-1.27-2-2-2.75-3.33a2.78,2.78,0,0,0-3-1c-.9.2-1.9.63-2.67.11a2.87,2.87,0,0,1-.6-.63,12.18,12.18,0,0,0-3-2.64c-.8-.51-3-1-2.88-2.19,0-.5.5-.84.93-1.09a15.38,15.38,0,0,1,3.06-1.36c2.11-.68,3.62-2.32,5-3.95s2.85-3.46,5.16-4.07c2.53-.67,5.6.06,8,1.08a6.83,6.83,0,0,0,2,.68,1.81,1.81,0,0,0,1.81-.83A2.48,2.48,0,0,0,246,215a6.11,6.11,0,0,0-1.62-3.68c-1-.9-1.4-2.28-2.66-2.77a3.05,3.05,0,0,0-3.62,1,4.91,4.91,0,0,0-.56,1.78l-.23,1.26c.15.24,0,.27-.27.4a1.27,1.27,0,0,1-.83.07,2.6,2.6,0,0,1-2.18-1.77,5.57,5.57,0,0,1,0-1.46c.07-1.64-.32-3.25,0-4.89.21-1.11.85-2,1.14-3a5.64,5.64,0,0,0-.6-3.64,7.74,7.74,0,0,0-2.13-2.67c-1.69-1.35-2.12-3.88-2.1-5.92a8.1,8.1,0,0,1,.56-3.19,22,22,0,0,0,1.67-3.49,9.12,9.12,0,0,0,.12-2.71c0-.42-.06-.19.18-.54a2.4,2.4,0,0,1,1-.78,2,2,0,0,1,.74-.22c1.68-.09,2.82,3,3.88,4a10.53,10.53,0,0,0,4.2,2.47,8.41,8.41,0,0,0,5.07-.53,5.33,5.33,0,0,0,3.5-3.14c4.54,1.46,9.56-1.7,9.26-6.65-.09-1.5-.28-3-.41-4.51a8.76,8.76,0,0,1,1-5.08q-2.43.19-4.85.53a16.86,16.86,0,0,0-3.13.6c-.18-.09.42-.31.22-.25a.66.66,0,0,1-.27.06c-.25,0-.28-.39-.22-.63.22-1,.57-1.91.74-2.89a4.15,4.15,0,0,0-.4-2.89,4.84,4.84,0,0,0-2.58-2.4c-.55-.21-1.14-.29-1.69-.49-1.09-.39-2-1.21-3.08-1.58a4.56,4.56,0,0,0-5,1.78,5.42,5.42,0,0,0-.23,5.47c1.35,2.58,4.38,3.84,6.05,6.22a2.63,2.63,0,0,1,.58,1.59,1.19,1.19,0,0,1-1.05,1.17,2,2,0,0,1-1.09-.49,10,10,0,0,0-5.54-1.76c-2.1,0-3.68.15-4.35-2.3a17.92,17.92,0,0,1-.33-3.33,13.82,13.82,0,0,0-1.12-4.49c-.73-1.67-2-3.31-3.77-3.64-.86-.16,0-1.39.59-2a3.46,3.46,0,0,1,2.47-.67,29.75,29.75,0,0,1,3.62.17c1.87.22,3.7.72,5.56,1a10,10,0,0,0,5.54-.61c2.26-1.07,3.38-3.44,4.63-5.44,2.12-3.38,2.27-7.07,2-11-.06-.72-.27-1.52-.28-2.23a.67.67,0,0,1,.56-.6,2.13,2.13,0,0,1,.87.05,19.79,19.79,0,0,0,6.65-.09,5,5,0,0,1,4.77,1.48,2.3,2.3,0,0,1,.76,1.54c0,1-1,1.57-1.92,2l-1.84.85c-.45.21-1,.53-.94,1a1.2,1.2,0,0,0,.2.53,22.43,22.43,0,0,0,8.88,8.82c0,.1-.16.19-.16.29q-1.43.28-2.87.52a4.58,4.58,0,0,0,.53,2.38,39.3,39.3,0,0,0,3.39,7.17c1.66,2.44,4,4.49,7,4.79,3.73.37,7.14-2.78,9.08-5.64a22.29,22.29,0,0,0,6.51.68,16.42,16.42,0,0,0,8.31-2.83,8.82,8.82,0,0,0,2.41-3.4c.68-1.32,1.79-1.66,3.3-1.66a13.16,13.16,0,0,1,3.72.53c1.15.33,2.16,1.14,3.25,1.46a20,20,0,0,0,4.11.28,24.44,24.44,0,0,0,4.25-.06c2.91-.34,5.94-1.12,8-3.18a8.08,8.08,0,0,0,2.36-6c-.09-2-1-5.16-3.09-5.87a.6.6,0,0,0-.26,0,.66.66,0,0,0-.32.17c-1,.83-2,1.69-3,2.57a3.7,3.7,0,0,1-2.21,1.18,3.39,3.39,0,0,1-1.17-.25A16.23,16.23,0,0,1,317.8,138c-1.17-1.46-2.23-2.79-4.17-3.05a6.32,6.32,0,0,0-4.59,1.17,5.25,5.25,0,0,1-2.1,1.3c-1.38.23-5.06-3.25-3.26-4.05a1.32,1.32,0,0,1,.56-.07l5.61.08a9.62,9.62,0,0,0,3.77-.45,3.28,3.28,0,0,0,2.19-2.86,3.87,3.87,0,0,0-1-2.33,9.75,9.75,0,0,0-7.55-3.46c-1.67,0-3.3.49-5,.4a8.39,8.39,0,0,1-4.39-1.86c-1.81-1.21-4.26-1.8-6.31-2.58a17.29,17.29,0,0,0-5.64-1.43,5.86,5.86,0,0,0-5.09,2.32c-1,1.56-.92,3.57-.66,5.4a7.93,7.93,0,0,0,1.42,3.85,2.18,2.18,0,0,1,.4.88,1.79,1.79,0,0,1-.27,1,9,9,0,0,1-2,2.58,4.17,4.17,0,0,0-.79.8,2.5,2.5,0,0,0-.34,1,4.85,4.85,0,0,0,1.36,4c.46.46,1.09,1,.89,1.64a1.56,1.56,0,0,1-1.74-.11,4.59,4.59,0,0,1-1.18-1.42L275.48,137c-1-1.54.27-2.79.56-4.58.58-3.6,1.2-7.29,3-10.46a28,28,0,0,0,2.27-4.46c.16-.46,1.44-3.92,1.07-4.09.47.22.61.65.92,1a5.93,5.93,0,0,0,1.09,1,9.47,9.47,0,0,0,2.64,1.32,24.34,24.34,0,0,0,5,.9,23.77,23.77,0,0,0,4,0c1.15,2.15,2.19,4.54,4.49,5.33a10.53,10.53,0,0,0,2.1.42,11.56,11.56,0,0,0,5.27-.13c1.68-.58,3.13-2.23,2.86-4,.21,1.39,2.11,1.93,3.14,2.37a19.35,19.35,0,0,0,4.87,1.79,11.79,11.79,0,0,0,3.92-.43,14.18,14.18,0,0,1,4.46.28A49.12,49.12,0,0,1,336,126c2,.77,3.62,3.6,4.48,5.49a12,12,0,0,0,.72,1.46,8.41,8.41,0,0,0,1.94,2c1.52,1.22,3.37,2.46,5.26,2,2.72-.69,5.2,1.34,8,1.14a9.26,9.26,0,0,0,7.18-3.76,9.75,9.75,0,0,0,1.19-2.84c.14-.53.08-2.39.45-2.73.93-.87,1.94.93,2.36,1.46s.84.83,1.21,1.29a3.57,3.57,0,0,1,.63,3.06,14.68,14.68,0,0,0-4.68,2.17.66.66,0,0,0-.27.29.65.65,0,0,0,0,.39,9.59,9.59,0,0,0,4.37,5.57c.41.24.11,1.12-.2,1.48a1.12,1.12,0,0,1-1.3.25,2.7,2.7,0,0,1-.84-.88,4.31,4.31,0,0,0-1.71-1.4,6.87,6.87,0,0,0-2.07-.41c-2.78-.26-5.56-.53-8.35-.52-.25-.24-.62-.05-.83.23a1.84,1.84,0,0,0-.24,1,16,16,0,0,0,.13,3.58,8,8,0,0,0,2.22,4.19,10,10,0,0,0,6,2.66c1.34.14,2.91-.28,4.17-.09s1.78,1.47,2.43,2.6A14.56,14.56,0,0,0,390,159.91a3,3,0,0,0,1-1.09,2.78,2.78,0,0,0,.1-1.52,8.59,8.59,0,0,0-3-5.3,3.94,3.94,0,0,0,.92-1.15c.81-1.24.89-2.79,1.25-4.22a11.09,11.09,0,0,1,1-2.5,8.2,8.2,0,0,1,2.35-3.19c.26-.22.55-.52.43-.83a.7.7,0,0,0-.19-.25c-1.1-1-2.64-1.11-4-1.39a17,17,0,0,0-5-.25c-.58.06-2,.62-2.44,0-.26-.4.07-1.2.29-1.56a2.9,2.9,0,0,1,.94-.85c1.74-1.12,3.95-2.33,6.06-1.87.81.18,1.6.47,2.42.6a9.79,9.79,0,0,0,2.73,0,21,21,0,0,0,5.48-1.44A8.16,8.16,0,0,1,410,136.5a2,2,0,0,1,.35,1.17c-.11,1-1.43,1.34-2.41,1.66a5.91,5.91,0,0,0-3.95,5.24c-.11,2.69,2.59,5.18,4.28,7l7,7.69a19.19,19.19,0,0,1,2.6,3.78c1.76,3.15.68,6.6,3.16,9.55a15.36,15.36,0,0,0,5.59,3.93c1,.43,1,.67,2.06.76.34,0,.6.33.91.19a.76.76,0,0,0,.3-.3,12.63,12.63,0,0,0,1.7-4,23.06,23.06,0,0,0,1.08-4.5,20.76,20.76,0,0,0,0-4.58,7.08,7.08,0,0,0,4.27,1.61c0-.09-.09.07-.14.14a9,9,0,0,0-1.78,3.58,5.29,5.29,0,0,0,.48,4c.82,1.31,2.25,2.4,3.23,3.62s1.95,2.74,1.67,4.31a8.86,8.86,0,0,0-2,2.37,14,14,0,0,0-2.57,6.31,6.49,6.49,0,0,0,2.56,6,5.35,5.35,0,0,0-2,3.36,2.39,2.39,0,0,0,.3,2.28,21,21,0,0,1-6,1.22,9.78,9.78,0,0,0,2.3-4.36,27.59,27.59,0,0,0,1.1-8.16,9.67,9.67,0,0,0-6.36-.31,9.3,9.3,0,0,0-5.08,3.81c-.47-2.84-2.55-4.92-5.08-6.31a20.83,20.83,0,0,0-8.31-2.13c.53,2.91-.24,6.13-.52,9.08a13,13,0,0,0,.52,5.79,5.72,5.72,0,0,0,1,1.92,2.79,2.79,0,0,0,1.88,1,9.67,9.67,0,0,0,8.36-3.7,6.9,6.9,0,0,0,2.09,4.27,15.62,15.62,0,0,1-3,1.31c-3.93,1.38-8,2.78-12.13,2.62-2.76-.1-5.49-.89-8.25-.72-1.53-.13-2.66.94-3.57,2.18a11.79,11.79,0,0,0-1.71,4.24,19.55,19.55,0,0,1-1.38,4.38c-.16.31-.34.61-.52.9a4.68,4.68,0,0,0,3,1.11c1.6.13,3.32.23,4.68-.63,2.16-1.37,2.37-4.43,3.9-6.47a5,5,0,0,1,3.58-2,5.13,5.13,0,0,1,3.69,1.37c1.9,1.71,4,3.25,5.38,5.46a14.6,14.6,0,0,1,2.3,7.73,6.16,6.16,0,0,1-1.22,4.12,7.8,7.8,0,0,1-4.24,2,27,27,0,0,1-11,.51,10.18,10.18,0,0,0,6.08,8.18,20.15,20.15,0,0,0-6.45,5.86c-1.57,2.38-2.15,5.6-.78,8.1a8,8,0,0,0,1.76,2.35,10.47,10.47,0,0,1,7.29-2.32c.3,0,.5,0,.79.08a17.69,17.69,0,0,0-2.61,9.08,37.91,37.91,0,0,1,0,5.66,1.81,1.81,0,0,1-.76,1.17,1.81,1.81,0,0,0,1.16.43,14.06,14.06,0,0,0,5.75-.42,8.46,8.46,0,0,0,4.61-3.34,11.65,11.65,0,0,0,3.09,8.86,12,12,0,0,0,8.69,3.92,11.22,11.22,0,0,0-.12-3.72,7.54,7.54,0,0,0,3.11,3.16,30.7,30.7,0,0,0,4.09,1.88,11.07,11.07,0,0,1,1.74.86,8.74,8.74,0,0,1,2.78,3.15c2-2.45,3.78-5.37,4-8.5a15.61,15.61,0,0,0-.2-3.25,14.79,14.79,0,0,0-2.87-6.61,7,7,0,0,0,2.6-1.24,7.48,7.48,0,0,0,4.3,3.07,13.71,13.71,0,0,0,9.38-.4c.36-.15.53-.15.77-.46-.26.33-1.15-2.48-1.17-2.56-.18-.91-.35-1.82-.59-2.72a10.41,10.41,0,0,0-.64-2.5,10.74,10.74,0,0,0,8.42-.36c.82-.4,1.58-.9,2.43-1.23a6.76,6.76,0,0,1,2.73-.46c.79,0,1.61.5,2.4.39.47-.07.43-.17.36-.64a6.11,6.11,0,0,0-.3-1.12,14.89,14.89,0,0,0-5.35-7.54,9.94,9.94,0,0,0-10.51-.44,7.52,7.52,0,0,0-2,1.77c-.07-.7-.56-1-.95-1.59l-1.22-1.79a4.58,4.58,0,0,0-1.39-1.35,3.17,3.17,0,0,0,1.11-3.37,7.47,7.47,0,0,1,7.15,1.47,27.65,27.65,0,0,1,.7-6.33c.46-1.69,1.39-3.42,1.47-5.17a7.9,7.9,0,0,0-.38-2.7c-.17-.53-.95-1.57.08-1.74a1.19,1.19,0,0,1,1,.37,7.74,7.74,0,0,1,.67.84,6.76,6.76,0,0,0,2.92,1.94,15.64,15.64,0,0,0,3.8,1c1.09.13,2.19.15,3.26.35a8.49,8.49,0,0,1,2.69.77l2.07,1.2c.29.17.82.92,1.2.82.62-.17.5-1.88.5-2.36A39.67,39.67,0,0,0,480.31,225.74Z"/></g><g id="template"><path class="cls-2" d="M482.52,191.44c-5.76-1.67-13.21-.34-15.94,4.36a3.94,3.94,0,0,0-.45,2.39,6.29,6.29,0,0,0,1.8,3.47,6.8,6.8,0,0,0,1.13,1,14.89,14.89,0,0,0,1.73.8.81.81,0,0,0,.09.28,7.7,7.7,0,0,0,.64,1.37,7.47,7.47,0,0,0,2.66,2.27,4.45,4.45,0,0,0,4.18.08C483,204.64,484.26,197.18,482.52,191.44Z"/><path class="cls-2" d="M461,236.21c5.69-5.46,9.09-14.82,5.53-21a5.19,5.19,0,0,0-2.43-2.08,8.28,8.28,0,0,0-5.13-.24,9,9,0,0,0-1.87.64,19.6,19.6,0,0,0-2.05,1.45,1.07,1.07,0,0,0-.37-.08,10.13,10.13,0,0,0-2-.17,9.83,9.83,0,0,0-4.33,1.54,5.85,5.85,0,0,0-2.84,4.71C445.59,228.1,453.28,234.41,461,236.21Z"/><path class="cls-2" d="M399.45,259.73c7.68,0,16.38-4.2,18.11-10.94a5,5,0,0,0-.29-3.1,8.05,8.05,0,0,0-3.42-3.64,8.71,8.71,0,0,0-1.74-.81,19.06,19.06,0,0,0-2.41-.38,1,1,0,0,0-.21-.31,9.86,9.86,0,0,0-1.27-1.46,9.56,9.56,0,0,0-4.07-1.86,5.69,5.69,0,0,0-5.17,1.37C394.21,243.65,395.3,253.27,399.45,259.73Z"/><path class="cls-2" d="M467.78,259.89c-1.24-7.85-7-16-14.19-16.68a5.22,5.22,0,0,0-3.12.81,8.33,8.33,0,0,0-3.15,4.1,9,9,0,0,0-.54,1.91,19.73,19.73,0,0,0,0,2.53,1.08,1.08,0,0,0-.29.26,10.2,10.2,0,0,0-1.28,1.54,9.9,9.9,0,0,0-1.23,4.47,5.89,5.89,0,0,0,2.25,5.05C452.23,267.92,461.87,265.2,467.78,259.89Z"/><path class="cls-2" d="M432.16,178.17c-.81,7.49,2.46,16.41,8.88,18.78a5,5,0,0,0,3.06,0,7.9,7.9,0,0,0,3.9-3,8.55,8.55,0,0,0,1-1.62,18.71,18.71,0,0,0,.61-2.32,1,1,0,0,0,.33-.17,9.68,9.68,0,0,0,1.56-1.1,9.39,9.39,0,0,0,2.22-3.79,5.59,5.59,0,0,0-.82-5.19C448.38,174.66,438.88,174.76,432.16,178.17Z"/><path class="cls-2" d="M487.33,169.26c-9.05-4.23-21.65-4-27.37,3.06a6.57,6.57,0,0,0-1.35,3.82,10.48,10.48,0,0,0,2.06,6.17,11.34,11.34,0,0,0,1.61,1.91,24.81,24.81,0,0,0,2.65,1.76,1.36,1.36,0,0,0,.07.48,12.83,12.83,0,0,0,.71,2.43,12.45,12.45,0,0,0,3.79,4.42,7.41,7.41,0,0,0,6.86,1.2C484.76,191.12,488.71,179.15,487.33,169.26Z"/><path class="cls-2" d="M458.17,133c-4.1-6.37-12.29-11.29-18.81-9.08a5,5,0,0,0-2.41,1.91,8,8,0,0,0-1.17,4.79,8.6,8.6,0,0,0,.26,1.88,18.82,18.82,0,0,0,1,2.2,1,1,0,0,0-.15.34,9.73,9.73,0,0,0-.53,1.84,9.44,9.44,0,0,0,.65,4.37,5.62,5.62,0,0,0,3.92,3.54C447.7,146,455.07,139.92,458.17,133Z"/><path class="cls-2" d="M453.07,103.51c-8.33-1.73-18.73,1-22.09,7.91a5.6,5.6,0,0,0-.37,3.44,8.93,8.93,0,0,0,2.92,4.71,9.66,9.66,0,0,0,1.71,1.27,21.14,21.14,0,0,0,2.54.94,1.15,1.15,0,0,0,.15.38A10.93,10.93,0,0,0,439,124a10.61,10.61,0,0,0,4,2.92,6.31,6.31,0,0,0,5.92-.35C455.23,122.14,456.15,111.45,453.07,103.51Z"/><path class="cls-2" d="M324.17,84.09c-8.7-3.83-20.67-3.32-26,3.49A6.25,6.25,0,0,0,297,91.24a10,10,0,0,0,2.09,5.83,10.78,10.78,0,0,0,1.57,1.78,23.6,23.6,0,0,0,2.55,1.62,1.29,1.29,0,0,0,.08.46,12.2,12.2,0,0,0,.72,2.29,11.84,11.84,0,0,0,3.7,4.12,7,7,0,0,0,6.54,1C322.18,104.93,325.69,93.47,324.17,84.09Z"/><path class="cls-2" d="M303.76,110.63c-.82,7.45,2.4,16.34,8.78,18.71a4.93,4.93,0,0,0,3,0,7.86,7.86,0,0,0,3.89-3,8.51,8.51,0,0,0,1-1.6,18.62,18.62,0,0,0,.61-2.31,1,1,0,0,0,.32-.17,9.63,9.63,0,0,0,1.55-1.09,9.34,9.34,0,0,0,2.22-3.76,5.56,5.56,0,0,0-.8-5.16C319.91,107.19,310.45,107.27,303.76,110.63Z"/><path class="cls-2" d="M347,77.71c-7.16-2.21-16.5-.72-20,5.1a4.93,4.93,0,0,0-.61,3,7.86,7.86,0,0,0,2.17,4.37A8.51,8.51,0,0,0,330,91.42a18.62,18.62,0,0,0,2.15,1,1,1,0,0,0,.1.35,9.63,9.63,0,0,0,.77,1.73,9.34,9.34,0,0,0,3.28,2.89,5.56,5.56,0,0,0,5.22.19C347.39,94.22,349.09,84.92,347,77.71Z"/><path class="cls-2" d="M350.65,76.91c-4,6.34-5,15.74-.29,20.66a4.93,4.93,0,0,0,2.72,1.37,7.86,7.86,0,0,0,4.79-1,8.51,8.51,0,0,0,1.57-1A18.62,18.62,0,0,0,361,95.16a1,1,0,0,0,.36,0,9.63,9.63,0,0,0,1.87-.3,9.34,9.34,0,0,0,3.65-2.41,5.56,5.56,0,0,0,1.54-5C366.68,80.87,358.14,76.81,350.65,76.91Z"/><path class="cls-2" d="M416,90.72C411.64,84,403,78.72,396,81a5.29,5.29,0,0,0-2.56,2,8.43,8.43,0,0,0-1.25,5.08,9.12,9.12,0,0,0,.27,2,20,20,0,0,0,1,2.34,1.09,1.09,0,0,0-.16.36,10.32,10.32,0,0,0-.56,2,10,10,0,0,0,.68,4.64,6,6,0,0,0,4.15,3.77C404.83,104.49,412.67,98,416,90.72Z"/><path class="cls-2" d="M381.65,65.47c-7,4-12.71,12.38-10.75,19.42a5.3,5.3,0,0,0,1.88,2.67,8.45,8.45,0,0,0,5,1.52,9.14,9.14,0,0,0,2-.17A20,20,0,0,0,382.2,88a1.09,1.09,0,0,0,.35.18,10.34,10.34,0,0,0,1.92.67,10,10,0,0,0,4.68-.43,6,6,0,0,0,4-3.95C394.82,77.35,388.8,69.17,381.65,65.47Z"/><path class="cls-2" d="M269,143.11c1.47,7.44,7.28,15,14.16,15.39a5,5,0,0,0,2.95-.89,8,8,0,0,0,2.86-4,8.61,8.61,0,0,0,.45-1.84,18.85,18.85,0,0,0-.11-2.41,1,1,0,0,0,.26-.26,9.74,9.74,0,0,0,1.17-1.52,9.45,9.45,0,0,0,1-4.31,5.63,5.63,0,0,0-2.34-4.74C283.52,134.88,274.42,137.83,269,143.11Z"/><path class="cls-2" d="M253.64,84.91c-2.65,7.11-1.69,16.63,4,20.53a5,5,0,0,0,3,.79,8,8,0,0,0,4.55-1.94,8.61,8.61,0,0,0,1.35-1.34,18.85,18.85,0,0,0,1.17-2.11,1,1,0,0,0,.36-.08,9.74,9.74,0,0,0,1.79-.68,9.45,9.45,0,0,0,3.11-3.14,5.63,5.63,0,0,0,.49-5.26C270.34,85.53,261,83.27,253.64,84.91Z"/><path class="cls-2" d="M217.8,121.83c-5.28,5.56-8.15,14.79-4.42,20.66a5,5,0,0,0,2.45,1.91,8,8,0,0,0,5,0,8.7,8.7,0,0,0,1.78-.71,19,19,0,0,0,1.93-1.5,1,1,0,0,0,.37.06,9.84,9.84,0,0,0,1.94.08,9.55,9.55,0,0,0,4.14-1.69,5.68,5.68,0,0,0,2.54-4.7C233.08,129,225.33,123.23,217.8,121.83Z"/><path class="cls-2" d="M206.73,133.7c-4.74,3.56-8.11,10.23-6,15.18a3.9,3.9,0,0,0,1.63,1.77,6.21,6.21,0,0,0,3.81.64,6.72,6.72,0,0,0,1.45-.31,14.72,14.72,0,0,0,1.66-.9.8.8,0,0,0,.27.1,7.61,7.61,0,0,0,1.47.31,7.38,7.38,0,0,0,3.37-.76,4.4,4.4,0,0,0,2.54-3.25C217.46,141.13,212.3,135.73,206.73,133.7Z"/><path class="cls-2" d="M231.65,148.5c5.6,2,13.08,1.22,16.11-3.27a3.92,3.92,0,0,0,.6-2.34,6.25,6.25,0,0,0-1.55-3.56,6.77,6.77,0,0,0-1.06-1.05,14.81,14.81,0,0,0-1.67-.91.81.81,0,0,0-.07-.28,7.66,7.66,0,0,0-.55-1.4,7.43,7.43,0,0,0-2.49-2.43,4.42,4.42,0,0,0-4.14-.35C232,135.37,230.3,142.69,231.65,148.5Z"/><path class="cls-2" d="M227.28,107c-4.57,5.51-6.67,14.29-2.83,19.53a4.71,4.71,0,0,0,2.41,1.63,7.51,7.51,0,0,0,4.65-.31,8.12,8.12,0,0,0,1.62-.77,17.78,17.78,0,0,0,1.7-1.52,1,1,0,0,0,.35,0,9.19,9.19,0,0,0,1.81-.05,8.92,8.92,0,0,0,3.75-1.83,5.31,5.31,0,0,0,2.07-4.54C242,112.73,234.39,107.83,227.28,107Z"/><path class="cls-2" d="M242.35,177c-6.8,3.08-12.77,10.35-11.56,17a4.91,4.91,0,0,0,1.51,2.63,7.83,7.83,0,0,0,4.5,1.83,8.47,8.47,0,0,0,1.87,0,18.54,18.54,0,0,0,2.29-.65,1,1,0,0,0,.31.19,9.58,9.58,0,0,0,1.72.78,9.3,9.3,0,0,0,4.35,0,5.54,5.54,0,0,0,4-3.3C253.51,189.07,248.64,181,242.35,177Z"/><path class="cls-2" d="M262.18,202.77c-5.1-3.38-12.75-4.35-16.85-.61a4,4,0,0,0-1.16,2.19,6.42,6.42,0,0,0,.69,3.92,6.94,6.94,0,0,0,.8,1.3,15.19,15.19,0,0,0,1.45,1.31.83.83,0,0,0,0,.3,7.86,7.86,0,0,0,.21,1.53,7.62,7.62,0,0,0,1.9,3,4.54,4.54,0,0,0,4,1.35C258.66,215.78,262.13,208.89,262.18,202.77Z"/><path class="cls-2" d="M195.06,246.26c7.11,1.65,16.07-.45,19.09-6.35a4.8,4.8,0,0,0,.39-2.94,7.65,7.65,0,0,0-2.41-4.1,8.28,8.28,0,0,0-1.44-1.12,18.12,18.12,0,0,0-2.16-.86,1,1,0,0,0-.12-.33,9.37,9.37,0,0,0-.87-1.63,9.09,9.09,0,0,0-3.38-2.58,5.41,5.41,0,0,0-5.08.18C193.58,230.25,192.57,239.4,195.06,246.26Z"/><path class="cls-2" d="M182.6,218.5c2,7.09,8.18,14,14.86,13.82a4.84,4.84,0,0,0,2.79-1.08,7.72,7.72,0,0,0,2.46-4.12,8.36,8.36,0,0,0,.29-1.82,18.29,18.29,0,0,0-.29-2.33,1,1,0,0,0,.23-.27,9.46,9.46,0,0,0,1-1.56,9.18,9.18,0,0,0,.65-4.24,5.46,5.46,0,0,0-2.62-4.41C196.05,209.43,187.47,213,182.6,218.5Z"/><path class="cls-2" d="M236.23,225.48c-5.66,2.21-10.82,7.87-10.12,13.34a4,4,0,0,0,1.12,2.2,6.37,6.37,0,0,0,3.58,1.68,6.89,6.89,0,0,0,1.52.09,15.08,15.08,0,0,0,1.89-.43.82.82,0,0,0,.24.17,7.8,7.8,0,0,0,1.36.71,7.57,7.57,0,0,0,3.54.18,4.51,4.51,0,0,0,3.4-2.51C244.78,235.77,241.17,229,236.23,225.48Z"/><path class="cls-2" d="M216.54,257.82c1.27,5.55,5.8,11.11,11,11.21a3.74,3.74,0,0,0,2.19-.73,6,6,0,0,0,2-3.09,6.46,6.46,0,0,0,.29-1.39,14.13,14.13,0,0,0-.14-1.81.77.77,0,0,0,.19-.2,7.31,7.31,0,0,0,.84-1.17,7.09,7.09,0,0,0,.65-3.25,4.22,4.22,0,0,0-1.86-3.5C227.26,251.31,220.5,253.73,216.54,257.82Z"/><path class="cls-2" d="M228.57,295.57c6.6-3.2,12.27-10.5,10.91-17a4.82,4.82,0,0,0-1.55-2.54,7.69,7.69,0,0,0-4.47-1.68,8.32,8.32,0,0,0-1.83,0,18.21,18.21,0,0,0-2.23.69,1,1,0,0,0-.31-.18,9.42,9.42,0,0,0-1.71-.72,9.13,9.13,0,0,0-4.27.12,5.44,5.44,0,0,0-3.86,3.35C217.31,284,222.3,291.78,228.57,295.57Z"/><path d="M196.92,244.21c5.51,1.28,12.44-.35,14.78-4.92A3.72,3.72,0,0,0,212,237a5.93,5.93,0,0,0-1.87-3.17A6.41,6.41,0,0,0,209,233a14,14,0,0,0-1.67-.66.77.77,0,0,0-.1-.26,7.26,7.26,0,0,0-.68-1.26,7,7,0,0,0-2.62-2,4.19,4.19,0,0,0-3.94.14C195.77,231.82,195,238.9,196.92,244.21Zm2.55-9.33,5,.14,1.56-1.77a.5.5,0,0,1,.74.66l-1,1.14-.86,1-2,2.21.82,2.87a.5.5,0,1,1-1,.27l-.65-2.26-2.73,3.08a.5.5,0,0,1-.74-.66l3.15-3.55.78-.88,1-1.11-4.19-.11a.5.5,0,0,1,0-1Z"/><path d="M242.09,179.13c-5.5,2.49-10.33,8.37-9.36,13.77A4,4,0,0,0,234,195a6.33,6.33,0,0,0,3.64,1.48,6.85,6.85,0,0,0,1.51,0A15,15,0,0,0,241,196a.82.82,0,0,0,.25.16,7.75,7.75,0,0,0,1.39.63,7.52,7.52,0,0,0,3.52,0,4.48,4.48,0,0,0,3.25-2.67C251.11,188.91,247.18,182.39,242.09,179.13Zm3.89,9.57-4.35,3.15-.18,2.51a.53.53,0,0,1-1.06-.08l.12-1.63.1-1.38.23-3.15-2.56-1.91a.53.53,0,1,1,.63-.85l2,1.5.32-4.38a.53.53,0,0,1,1.06.08l-.37,5.06-.09,1.26-.11,1.58,3.63-2.62a.53.53,0,0,1,.62.86Z"/><path d="M272,143.67c1.09,5.53,5.41,11.19,10.53,11.44a3.71,3.71,0,0,0,2.19-.66,5.92,5.92,0,0,0,2.12-3,6.4,6.4,0,0,0,.33-1.37,14,14,0,0,0-.08-1.79.77.77,0,0,0,.2-.19,7.24,7.24,0,0,0,.87-1.13,7,7,0,0,0,.75-3.2,4.18,4.18,0,0,0-1.74-3.52C282.78,137.55,276,139.74,272,143.67Zm9.54-1.5,1.93,4.63,2.25.7a.5.5,0,0,1-.3.95l-1.45-.45-1.24-.39-2.81-.88-2.28,1.92a.5.5,0,1,1-.64-.76l1.8-1.51-3.92-1.22a.5.5,0,0,1,.3-.95l4.52,1.41,1.12.35,1.42.44-1.61-3.86a.5.5,0,0,1,.92-.38Z"/><path d="M321.35,87c-6.54-2.88-15.55-2.5-19.53,2.62a4.7,4.7,0,0,0-.91,2.76,7.5,7.5,0,0,0,1.57,4.38,8.11,8.11,0,0,0,1.18,1.34,17.76,17.76,0,0,0,1.92,1.22,1,1,0,0,0,.06.34,9.18,9.18,0,0,0,.54,1.72,8.91,8.91,0,0,0,2.78,3.1,5.3,5.3,0,0,0,4.92.75C319.86,102.68,322.5,94.05,321.35,87ZM316,98l-6.21-1.35-2.36,1.83a.63.63,0,0,1-.77-1l1.53-1.18,1.3-1,3-2.29-.34-3.77a.63.63,0,1,1,1.25-.11l.27,3,4.12-3.18a.63.63,0,0,1,.77,1l-4.75,3.68-1.18.91-1.49,1.15,5.18,1.13A.63.63,0,0,1,316,98Z"/><path d="M306.75,113c-.62,5.61,1.81,12.29,6.6,14.08a3.71,3.71,0,0,0,2.29,0,5.92,5.92,0,0,0,2.93-2.22,6.4,6.4,0,0,0,.73-1.21,14,14,0,0,0,.46-1.74.77.77,0,0,0,.24-.13,7.24,7.24,0,0,0,1.17-.82,7,7,0,0,0,1.67-2.83,4.18,4.18,0,0,0-.6-3.88C318.9,110.39,311.79,110.45,306.75,113Zm9.55,1.44.45,5,1.93,1.34a.5.5,0,0,1-.57.81l-1.25-.87L315.8,120l-2.42-1.68-2.75,1.15a.5.5,0,1,1-.38-.91l2.17-.9L309,115.27a.5.5,0,0,1,.57-.81l3.89,2.71,1,.67,1.22.85-.38-4.17a.5.5,0,0,1,1-.09Z"/><path d="M344.58,79.94c-5.39-1.66-12.41-.54-15.07,3.84a3.71,3.71,0,0,0-.46,2.24,5.92,5.92,0,0,0,1.63,3.29,6.4,6.4,0,0,0,1,.94,14,14,0,0,0,1.62.78.77.77,0,0,0,.08.26,7.24,7.24,0,0,0,.58,1.3,7,7,0,0,0,2.46,2.18,4.18,4.18,0,0,0,3.93.14C344.84,92.36,346.13,85.36,344.58,79.94ZM341.38,89l-5-.5-1.68,1.65a.5.5,0,0,1-.69-.71l1.09-1.06.93-.91,2.11-2.06-.61-2.92a.5.5,0,1,1,1-.2l.48,2.3,2.94-2.87a.5.5,0,0,1,.69.71l-3.39,3.31-.84.82-1.06,1,4.16.41a.5.5,0,0,1-.1,1Z"/><path d="M351.81,80.08c-3,4.77-3.76,11.85-.22,15.55a3.71,3.71,0,0,0,2,1,5.92,5.92,0,0,0,3.6-.72,6.4,6.4,0,0,0,1.18-.77,14,14,0,0,0,1.18-1.36.77.77,0,0,0,.27,0,7.24,7.24,0,0,0,1.41-.22A7,7,0,0,0,364,91.77,4.18,4.18,0,0,0,365.18,88C363.87,83.07,357.45,80,351.81,80.08Zm8,5.47L358,90.24l1.15,2.05a.5.5,0,0,1-.87.48l-.74-1.33-.63-1.13-1.44-2.57-3-.17a.5.5,0,1,1,.06-1l2.35.14-2-3.58a.5.5,0,0,1,.87-.48l2.32,4.14.57,1,.72,1.29,1.48-3.91a.5.5,0,0,1,.93.35Z"/><path d="M413.08,90.67c-3.26-5.09-9.8-9-15-7.28a4,4,0,0,0-1.93,1.52,6.34,6.34,0,0,0-.94,3.83,6.86,6.86,0,0,0,.21,1.5,15,15,0,0,0,.78,1.76.82.82,0,0,0-.12.27,7.77,7.77,0,0,0-.42,1.47,7.54,7.54,0,0,0,.51,3.49,4.49,4.49,0,0,0,3.12,2.83C404.7,101,410.59,96.19,413.08,90.67Zm-8.93,5.24-3.75-3.86-2.52.18a.53.53,0,0,1-.08-1.06l1.63-.12,1.38-.1,3.15-.23,1.52-2.81a.53.53,0,1,1,.94.51l-1.2,2.22,4.39-.32a.53.53,0,0,1,.08,1.06l-5.07.37-1.26.09-1.59.12,3.13,3.22a.53.53,0,0,1-.76.74Z"/><path d="M454.42,132.65c-2.92-4.53-8.74-8-13.37-6.45a3.54,3.54,0,0,0-1.71,1.36,5.65,5.65,0,0,0-.83,3.41,6.11,6.11,0,0,0,.19,1.33,13.37,13.37,0,0,0,.7,1.56.73.73,0,0,0-.11.24,6.91,6.91,0,0,0-.37,1.31,6.71,6.71,0,0,0,.46,3.1,4,4,0,0,0,2.78,2.52C447,141.89,452.21,137.56,454.42,132.65Zm-7.94,4.68-3.34-3.43-2.24.17a.47.47,0,0,1-.07-.94l1.45-.11,1.23-.09,2.81-.21,1.35-2.51a.47.47,0,1,1,.83.45l-1.06,2,3.91-.29a.47.47,0,0,1,.07.94l-4.51.34-1.12.08-1.41.11,2.79,2.86a.47.47,0,0,1-.68.66Z"/><path d="M480.55,193.58c-4.22-1.22-9.68-.25-11.69,3.2a2.89,2.89,0,0,0-.33,1.75,4.61,4.61,0,0,0,1.32,2.54,5,5,0,0,0,.83.72,10.92,10.92,0,0,0,1.27.59.6.6,0,0,0,.06.2,5.64,5.64,0,0,0,.47,1,5.48,5.48,0,0,0,2,1.66,3.26,3.26,0,0,0,3.06.06C480.93,203.25,481.83,197.78,480.55,193.58Zm-2.37,7.14-3.9-.32L473,201.7a.39.39,0,0,1-.55-.54l.83-.84.71-.72L475.6,198l-.52-2.27a.39.39,0,1,1,.75-.17l.41,1.79L478.5,195a.39.39,0,0,1,.55.54l-2.59,2.63-.64.65-.81.82,3.25.26a.39.39,0,0,1-.06.77Z"/><path d="M459.91,233c4.27-4.1,6.81-11.11,4.15-15.77a3.89,3.89,0,0,0-1.82-1.56,6.2,6.2,0,0,0-3.85-.18,6.71,6.71,0,0,0-1.4.48,14.69,14.69,0,0,0-1.54,1.09.8.8,0,0,0-.28-.06,7.59,7.59,0,0,0-1.49-.13,7.37,7.37,0,0,0-3.25,1.15,4.39,4.39,0,0,0-2.13,3.53C448.38,226.93,454.15,231.67,459.91,233Zm-6.72-7.57,3-4.32-.65-2.38a.52.52,0,0,1,1-.27L457,220l.36,1.31.82,3,3,.93a.52.52,0,1,1-.31,1l-2.35-.73,1.14,4.15a.52.52,0,0,1-1,.27l-1.31-4.79-.33-1.19-.41-1.5L454,226a.52.52,0,0,1-.85-.59Z"/><path d="M400.6,257.24c5.91,0,12.62-3.23,14-8.43a3.89,3.89,0,0,0-.22-2.39,6.2,6.2,0,0,0-2.64-2.81,6.71,6.71,0,0,0-1.34-.63,14.69,14.69,0,0,0-1.86-.29.8.8,0,0,0-.16-.24,7.59,7.59,0,0,0-1-1.13,7.37,7.37,0,0,0-3.14-1.43,4.39,4.39,0,0,0-4,1.05C396.56,244.86,397.41,252.27,400.6,257.24Zm.45-10.11,5.16-1,1.19-2.16a.52.52,0,0,1,.91.5l-.77,1.4-.65,1.19-1.49,2.71,1.5,2.74a.52.52,0,1,1-.91.5l-1.18-2.16-2.07,3.77a.52.52,0,0,1-.91-.5l2.39-4.36.59-1.08.75-1.36-4.3.85a.52.52,0,0,1-.2-1Z"/><path d="M464.14,258.3c-.92-5.84-5.22-11.94-10.56-12.42a3.89,3.89,0,0,0-2.32.6,6.2,6.2,0,0,0-2.35,3.05,6.71,6.71,0,0,0-.4,1.42,14.69,14.69,0,0,0,0,1.88.8.8,0,0,0-.21.19,7.59,7.59,0,0,0-1,1.15,7.37,7.37,0,0,0-.91,3.32,4.39,4.39,0,0,0,1.68,3.76C452.56,264.28,459.74,262.26,464.14,258.3Zm-10.05,1.18-1.84-4.93-2.33-.83a.52.52,0,0,1,.35-1l1.51.53,1.28.45,2.91,1,2.47-1.92a.52.52,0,1,1,.64.82l-1.94,1.51,4.06,1.44a.52.52,0,0,1-.35,1l-4.68-1.66-1.16-.41-1.47-.52,1.53,4.11a.52.52,0,0,1-1,.36Z"/><path d="M228.45,292.87c5.15-2.5,9.58-8.19,8.52-13.27a3.76,3.76,0,0,0-1.21-2,6,6,0,0,0-3.49-1.31,6.49,6.49,0,0,0-1.43,0,14.21,14.21,0,0,0-1.74.54.78.78,0,0,0-.24-.14,7.35,7.35,0,0,0-1.33-.56,7.13,7.13,0,0,0-3.33.09,4.24,4.24,0,0,0-3,2.61C219.66,283.84,223.55,289.91,228.45,292.87Zm-3.92-9,4-3.09.11-2.39a.5.5,0,0,1,1,0l-.07,1.54-.06,1.31-.14,3,2.47,1.74a.5.5,0,1,1-.58.82l-1.95-1.37-.19,4.16a.5.5,0,0,1-1,0l.22-4.8.05-1.19.07-1.5-3.37,2.58a.5.5,0,0,1-.61-.8Z"/><path d="M218.37,257.9c1,4.28,4.48,8.58,8.47,8.66a2.89,2.89,0,0,0,1.69-.57,4.61,4.61,0,0,0,1.58-2.39,5,5,0,0,0,.23-1.08,10.92,10.92,0,0,0-.11-1.4.6.6,0,0,0,.15-.16,5.64,5.64,0,0,0,.65-.9,5.48,5.48,0,0,0,.5-2.51,3.26,3.26,0,0,0-1.44-2.7C226.64,252.88,221.43,254.75,218.37,257.9Zm7.39-1.39,1.62,3.56,1.77.49a.39.39,0,0,1-.21.74l-1.14-.32-1-.27-2.21-.62-1.73,1.55a.39.39,0,1,1-.52-.58l1.36-1.22-3.08-.86a.39.39,0,0,1,.21-.74l3.56,1,.88.25,1.11.31-1.35-3a.39.39,0,0,1,.7-.32Z"/><path d="M236.27,227.49c-4.63,1.81-8.85,6.44-8.28,10.91a3.27,3.27,0,0,0,.91,1.8,5.21,5.21,0,0,0,2.93,1.37,5.64,5.64,0,0,0,1.24.07,12.34,12.34,0,0,0,1.54-.35.67.67,0,0,0,.2.14,6.38,6.38,0,0,0,1.12.58,6.19,6.19,0,0,0,2.89.15,3.68,3.68,0,0,0,2.78-2.06C243.26,235.91,240.31,230.38,236.27,227.49Zm2.78,8-3.71,2.4-.26,2.06a.44.44,0,0,1-.87-.11l.17-1.33.14-1.13.32-2.58-2-1.68a.44.44,0,1,1,.56-.67L235,233.8l.45-3.59a.44.44,0,0,1,.87.11l-.52,4.14-.13,1-.16,1.3,3.1-2a.44.44,0,0,1,.47.73Z"/><path d="M185.22,219.14c1.57,5.63,6.49,11.11,11.79,11a3.84,3.84,0,0,0,2.21-.86,6.13,6.13,0,0,0,2-3.27,6.63,6.63,0,0,0,.23-1.44,14.51,14.51,0,0,0-.23-1.85.79.79,0,0,0,.19-.22,7.5,7.5,0,0,0,.81-1.24,7.28,7.28,0,0,0,.51-3.37,4.33,4.33,0,0,0-2.08-3.5C195.89,212,189.08,214.76,185.22,219.14Zm9.72-2.31,2.37,4.62,2.38.54a.51.51,0,0,1-.23,1l-1.54-.35-1.31-.3-3-.68-2.2,2.17a.51.51,0,1,1-.72-.73l1.73-1.71-4.15-.95a.51.51,0,0,1,.23-1l4.79,1.09,1.19.27,1.5.34-2-3.86a.51.51,0,0,1,.91-.47Z"/><path d="M260.46,203.71c-4.13-2.73-10.31-3.52-13.63-.49a3.25,3.25,0,0,0-.94,1.77,5.19,5.19,0,0,0,.56,3.17,5.61,5.61,0,0,0,.65,1.05,12.29,12.29,0,0,0,1.17,1.06.67.67,0,0,0,0,.24,6.35,6.35,0,0,0,.17,1.24,6.16,6.16,0,0,0,1.54,2.44,3.67,3.67,0,0,0,3.27,1.09C257.61,214.23,260.41,208.66,260.46,203.71Zm-4.95,6.87-4.08-1.65-1.82,1a.43.43,0,0,1-.41-.77l1.18-.63,1-.53,2.28-1.21.21-2.61a.43.43,0,1,1,.87.07l-.16,2.05,3.18-1.69a.43.43,0,0,1,.41.77l-3.67,2-.91.48-1.15.61,3.4,1.38a.44.44,0,0,1-.33.81Z"/><path d="M218.57,124.25c-4.16,4.38-6.42,11.65-3.48,16.28A4,4,0,0,0,217,142a6.33,6.33,0,0,0,3.93,0,6.85,6.85,0,0,0,1.4-.56,15,15,0,0,0,1.52-1.18.82.82,0,0,0,.29.05,7.75,7.75,0,0,0,1.53.06,7.52,7.52,0,0,0,3.26-1.33,4.48,4.48,0,0,0,2-3.7C230.61,129.9,224.51,125.35,218.57,124.25Zm7.21,7.4-2.85,4.55.78,2.4a.53.53,0,0,1-1,.33l-.5-1.55-.43-1.32-1-3-3.09-.8a.53.53,0,1,1,.27-1l2.44.63L219,127.68a.53.53,0,0,1,1-.33l1.57,4.83.39,1.2.49,1.51,2.38-3.8a.53.53,0,0,1,.9.56Z"/><path d="M207.43,135.88c-3.76,2.82-6.43,8.11-4.77,12a3.09,3.09,0,0,0,1.29,1.41,4.93,4.93,0,0,0,3,.51,5.33,5.33,0,0,0,1.15-.25,11.67,11.67,0,0,0,1.32-.71.64.64,0,0,0,.22.08,6,6,0,0,0,1.16.24,5.85,5.85,0,0,0,2.67-.6,3.49,3.49,0,0,0,2-2.58C215.94,141.78,211.84,137.49,207.43,135.88Zm4.58,6.61-2.77,3.13.29,1.94a.41.41,0,0,1-.82.12l-.19-1.26-.16-1.07-.36-2.43-2.27-1a.41.41,0,1,1,.34-.75l1.79.8-.5-3.38a.41.41,0,0,1,.82-.12l.58,3.91.14,1,.18,1.22,2.31-2.61a.41.41,0,0,1,.62.55Z"/><path d="M233.43,146.84c4.42,1.61,10.31,1,12.69-2.57a3.09,3.09,0,0,0,.47-1.85,4.93,4.93,0,0,0-1.22-2.81,5.33,5.33,0,0,0-.83-.83,11.67,11.67,0,0,0-1.31-.72.64.64,0,0,0-.05-.22,6,6,0,0,0-.43-1.11,5.85,5.85,0,0,0-2-1.91,3.49,3.49,0,0,0-3.26-.28C233.72,136.49,232.37,142.26,233.43,146.84Zm3-7.44,4.13.62,1.47-1.3a.41.41,0,0,1,.55.62l-1,.84-.81.72L239,142.51l.39,2.45a.41.41,0,1,1-.82.13l-.31-1.93-2.56,2.27a.41.41,0,0,1-.55-.62l3-2.62.73-.65.93-.82-3.45-.51a.41.41,0,0,1,.12-.82Z"/><path d="M228.41,109.41c-3.6,4.34-5.26,11.26-2.23,15.39a3.71,3.71,0,0,0,1.9,1.28,5.92,5.92,0,0,0,3.67-.25,6.4,6.4,0,0,0,1.27-.61,14,14,0,0,0,1.34-1.2.77.77,0,0,0,.27,0,7.24,7.24,0,0,0,1.43,0,7,7,0,0,0,3-1.44,4.18,4.18,0,0,0,1.63-3.57C240,113.93,234,110.06,228.41,109.41Zm7.18,6.45-2.37,4.42.88,2.19a.5.5,0,0,1-.92.37l-.57-1.41-.48-1.2-1.1-2.74-2.93-.56a.5.5,0,1,1,.18-1l2.31.44-1.53-3.81a.5.5,0,0,1,.92-.37l1.76,4.4.44,1.09.55,1.38,2-3.69a.5.5,0,0,1,.87.47Z"/><path d="M255.36,87c-2,5.28-1.26,12.36,3,15.26a3.71,3.71,0,0,0,2.21.59,5.92,5.92,0,0,0,3.38-1.44,6.4,6.4,0,0,0,1-1,14,14,0,0,0,.87-1.57.77.77,0,0,0,.27-.06,7.24,7.24,0,0,0,1.33-.51A7,7,0,0,0,269.71,96a4.18,4.18,0,0,0,.37-3.91C267.78,87.48,260.87,85.8,255.36,87Zm8.9,3.73-.78,5L265,97.48a.5.5,0,0,1-.75.65l-1-1.15-.85-1-1.94-2.22-3,.44a.5.5,0,1,1-.15-1l2.32-.35L257,89.8a.5.5,0,0,1,.75-.65l3.11,3.57.77.89,1,1.12.65-4.13a.5.5,0,0,1,1,.16Z"/><path d="M381.91,68.47c-5.27,3-9.56,9.31-8.09,14.61a4,4,0,0,0,1.42,2A6.36,6.36,0,0,0,379,86.24a6.88,6.88,0,0,0,1.51-.13,15.05,15.05,0,0,0,1.8-.69.82.82,0,0,0,.26.13,7.78,7.78,0,0,0,1.45.5,7.55,7.55,0,0,0,3.52-.33,4.5,4.5,0,0,0,3-3C391.82,77.41,387.29,71.26,381.91,68.47Zm4.76,9.21-4.06,3.54,0,2.53a.53.53,0,0,1-1.07,0l0-1.64,0-1.39-.06-3.17-2.73-1.67a.53.53,0,1,1,.56-.91l2.15,1.32-.08-4.41a.53.53,0,0,1,1.07,0l.1,5.09,0,1.26,0,1.59,3.39-3a.53.53,0,0,1,.7.8Z"/><path d="M451.2,105.9c-6.45-1.34-14.49.74-17.09,6.12a4.33,4.33,0,0,0-.29,2.66,6.91,6.91,0,0,0,2.26,3.65,7.47,7.47,0,0,0,1.32,1,16.36,16.36,0,0,0,2,.73.89.89,0,0,0,.12.3,8.46,8.46,0,0,0,.82,1.45,8.21,8.21,0,0,0,3.11,2.26,4.89,4.89,0,0,0,4.58-.27C452.87,120.31,453.59,112,451.2,105.9Zm-2.72,10.94-5.86,0-1.78,2.1a.58.58,0,0,1-.88-.75l1.15-1.36,1-1.15L444.3,113l-1-3.33a.58.58,0,1,1,1.11-.34l.81,2.62,3.1-3.66a.58.58,0,0,1,.88.75l-3.57,4.23-.89,1-1.12,1.32,4.89,0a.58.58,0,0,1,0,1.16Z"/><path d="M435.16,180.15c-.58,5.35,1.76,11.73,6.34,13.42a3.54,3.54,0,0,0,2.19,0,5.65,5.65,0,0,0,2.79-2.13,6.11,6.11,0,0,0,.69-1.15,13.37,13.37,0,0,0,.44-1.66.73.73,0,0,0,.23-.12,6.91,6.91,0,0,0,1.11-.78,6.71,6.71,0,0,0,1.59-2.71,4,4,0,0,0-.58-3.71C446.75,177.63,440,177.71,435.16,180.15Zm9.12,1.34.45,4.77,1.85,1.28a.47.47,0,0,1-.54.78l-1.2-.83-1-.7-2.32-1.6-2.62,1.1a.47.47,0,1,1-.37-.87l2.07-.87-3.23-2.23a.47.47,0,0,1,.54-.78l3.72,2.57.92.64,1.17.8-.37-4a.47.47,0,0,1,.94-.09Z"/><path d="M484.15,172.23c-6.87-3.21-16.43-3-20.77,2.32a5,5,0,0,0-1,2.9,8,8,0,0,0,1.56,4.68,8.6,8.6,0,0,0,1.22,1.45,18.83,18.83,0,0,0,2,1.34,1,1,0,0,0,.05.37,9.74,9.74,0,0,0,.54,1.84,9.45,9.45,0,0,0,2.88,3.35,5.62,5.62,0,0,0,5.2.91C482.2,188.81,485.2,179.73,484.15,172.23Zm-6,11.53-6.55-1.58-2.55,1.88a.67.67,0,0,1-.79-1.07l1.65-1.22,1.4-1,3.19-2.35-.27-4a.67.67,0,1,1,1.33-.09l.21,3.15,4.44-3.28a.67.67,0,0,1,.79,1.07L475.92,179l-1.27.94-1.6,1.18,5.47,1.32a.67.67,0,0,1-.31,1.3Z"/></g><g id="text"><rect class="cls-2" x="57" y="137" width="129" height="31" rx="6" ry="6"/><text class="cls-3" transform="translate(153.32 146.61)">LE<tspan class="cls-4" x="9.04" y="0">A</tspan><tspan x="14.3" y="0">VES</tspan><tspan class="cls-5"><tspan x="-50.13" y="9.6">People &amp; Relationship</tspan></tspan><tspan class="cls-6"><tspan x="-87.54" y="16.8">E.g., Pa</tspan><tspan class="cls-7" x="-67.09" y="16.8">r</tspan><tspan x="-65.2" y="16.8">ent, friend, pet, teache</tspan><tspan class="cls-8" x="-3.99" y="16.8">r</tspan><tspan x="-2.54" y="16.8">, child, aunt</tspan></tspan></text></g></svg>