<svg xmlns="http://www.w3.org/2000/svg" viewBox="0 0 655 494"><defs><style>.cls-1{fill:#87b26b;}.cls-2{font-size:8px;fill:#fff;font-family:Avenir-Medium, Avenir;}.cls-3,.cls-6{font-family:Avenir-Book, Avenir;}.cls-4{letter-spacing:-0.02em;}.cls-5{letter-spacing:-0.02em;}.cls-6{font-size:6px;}.cls-7{letter-spacing:-0.02em;}.cls-8{letter-spacing:-0.09em;}</style></defs><title>Chatbot 03 (TRUNK)</title><g id="template"><path class="cls-1" d="M355.8,340.93a31.65,31.65,0,0,1-2-15.18q.51-5.77,1.28-11.53c2.31-17.26.49-34.32.38-51.64-.05-8.63,0-17.37,2.1-25.83.06-.25.14-.5.21-.75l0,0-56.09,15.32s0,0,0,.06a.13.13,0,0,0,0,.07,2.52,2.52,0,0,1,.07.36c2,8.08.81,17.37-1.18,25.36-1.07,4.31-1.79,8.71-2.54,13.08-.85,4.93-.6,9.73-.55,14.64.13,13.68.18,27.31-3.47,40.65A30.5,30.5,0,0,1,287,357.41l77-3.33A37,37,0,0,1,355.8,340.93Z"/><path class="cls-1" d="M317.71,420h0C317.69,420,317.7,420,317.71,420Z"/><path d="M352.38,339a32.08,32.08,0,0,1-1.79-14.32q.44-5.45,1.11-10.87c2-16.29.42-32.37.33-48.71,0-8.14,0-16.39,1.84-24.37.06-.24.12-.47.18-.71l0,0-49,14.45s0,0,0,.06a.13.13,0,0,0,0,.06,2.55,2.55,0,0,1,.06.34c1.74,7.62.71,16.39-1,23.92-.94,4.07-1.56,8.22-2.22,12.34-.74,4.65-.53,9.18-.48,13.81.12,12.9.16,25.76-3,38.34a29.38,29.38,0,0,1-6,11.17l67.2-3.15A35.44,35.44,0,0,1,352.38,339Z"/><path d="M319.14,413.59h0C319.13,413.65,319.13,413.63,319.14,413.59Z"/></g><g id="text"><rect class="cls-1" x="163" y="302" width="129" height="31" rx="6" ry="6"/><text class="cls-2" transform="translate(261.34 311.61)">TRUNK<tspan class="cls-3"><tspan x="-31.26" y="9.6">St</tspan><tspan class="cls-4" x="-24.15" y="9.6">r</tspan><tspan x="-21.64" y="9.6">ength &amp; Co</tspan><tspan class="cls-5" x="19.71" y="9.6">r</tspan><tspan x="22.22" y="9.6">e</tspan></tspan><tspan class="cls-6"><tspan x="-86.42" y="16.8">E.g., Ha</tspan><tspan class="cls-7" x="-65.08" y="16.8">r</tspan><tspan x="-63.2" y="16.8">dworking, friendl</tspan><tspan class="cls-8" x="-17.99" y="16.8">y</tspan><tspan x="-15.65" y="16.8">, positive, smart</tspan></tspan></text></g></svg>