<svg id="template" xmlns="http://www.w3.org/2000/svg" width="655" height="493" viewBox="0 0 655 493"><title>07 BUG</title><path d="M319.14,413.591l-.028,0C319.125,413.646,319.133,413.625,319.14,413.591Z" fill="none" stroke="#000" stroke-linecap="round" stroke-linejoin="round"/><path d="M58.244,124.116c1.071-1.5,5.781-2.357,5.781-2.357s.738,4.73-.333,6.235a3.344,3.344,0,1,1-5.449-3.878Z" fill="none" stroke="#000" stroke-linecap="round" stroke-linejoin="round" stroke-dasharray="2 4"/><path d="M72.321,124.116c1.071-1.5,5.781-2.357,5.781-2.357s.738,4.73-.333,6.235a3.344,3.344,0,1,1-5.449-3.878Z" fill="none" stroke="#000" stroke-linecap="round" stroke-linejoin="round" stroke-dasharray="2 4"/><path d="M65.581,136.62c1.071-1.5,5.781-2.357,5.781-2.357s.738,4.73-.333,6.235a3.344,3.344,0,1,1-5.449-3.878Z" fill="none" stroke="#000" stroke-linecap="round" stroke-linejoin="round" stroke-dasharray="2 4"/><path d="M86.4,124.115c1.071-1.5,5.781-2.357,5.781-2.357s.738,4.73-.333,6.235a3.344,3.344,0,1,1-5.449-3.878Z" fill="none" stroke="#000" stroke-linecap="round" stroke-linejoin="round" stroke-dasharray="2 4"/><path d="M78.42,136.62c1.071-1.5,5.781-2.357,5.781-2.357s.738,4.73-.333,6.235a3.344,3.344,0,1,1-5.449-3.878Z" fill="none" stroke="#000" stroke-linecap="round" stroke-linejoin="round" stroke-dasharray="2 4"/><path d="M91.259,136.62c1.071-1.5,5.781-2.357,5.781-2.357s.738,4.73-.333,6.235a3.344,3.344,0,1,1-5.449-3.878Z" fill="none" stroke="#000" stroke-linecap="round" stroke-linejoin="round" stroke-dasharray="2 4"/><polyline points="118.254 119.481 115.37 124.855 125.637 127.451 96.453 156.482 110.218 130.835 99.952 128.24 108.869 119.368" fill="none" stroke="#000" stroke-linecap="round" stroke-linejoin="round" stroke-dasharray="2 4"/><path d="M123.256,119.339a13.4,13.4,0,1,0,0-26.8c-.081,0-.162,0-.243.006A23.449,23.449,0,0,0,80.5,75.881a13.4,13.4,0,0,0-17.442,18.4,13.4,13.4,0,0,0,6.6,25.064h53.6Z" fill="none" stroke="#000" stroke-linecap="round" stroke-linejoin="round" stroke-dasharray="2 4"/><path d="M319.14,413.591l-.028,0C319.125,413.646,319.133,413.625,319.14,413.591Z" fill="none" stroke="#000" stroke-linecap="round" stroke-linejoin="round" stroke-dasharray="2 4"/><path d="M319.14,413.591c-.007.034-.015.054-.028,0Z" fill="none" stroke="#000" stroke-linecap="round" stroke-linejoin="round" stroke-dasharray="2 4"/><path d="M340.368,252.922h-5.1a10.8,10.8,0,0,0-1-3.5,7.82,7.82,0,0,0,3.1-6.1v-.4a1,1,0,1,0-2,0v.4a5.637,5.637,0,0,1-2.2,4.5,7.725,7.725,0,0,0-1.9-1.7v-.2a4,4,0,1,0-8,0v.2a10.081,10.081,0,0,0-1.9,1.7,6.11,6.11,0,0,1-2-4.5v-.4a1,1,0,1,0-2,0v.4a7.4,7.4,0,0,0,3.1,6.1,9.532,9.532,0,0,0-1,3.5h-5.1a1,1,0,0,0,0,2h5.1a10.8,10.8,0,0,0,1,3.5,7.4,7.4,0,0,0-3.1,6.1v.4a1,1,0,0,0,2,0v-.4a5.637,5.637,0,0,1,2.2-4.5,7.491,7.491,0,0,0,5.8,2.9,7.342,7.342,0,0,0,5.8-2.9,5.637,5.637,0,0,1,2.2,4.5v.4a1,1,0,0,0,2,0v-.4a7.4,7.4,0,0,0-3.1-6.1,9.532,9.532,0,0,0,1-3.5h5.1a1,1,0,0,0,0-2Z" fill="none" stroke="#87b26b" stroke-linecap="round" stroke-linejoin="round"/><path d="M343.25,283.25h-3.825a8.1,8.1,0,0,0-.75-2.625A5.865,5.865,0,0,0,341,276.05v-.3a.75.75,0,0,0-1.5,0v.3a4.228,4.228,0,0,1-1.65,3.375,5.794,5.794,0,0,0-1.425-1.275V278a3,3,0,0,0-6,0v.15A7.561,7.561,0,0,0,329,279.425a4.582,4.582,0,0,1-1.5-3.375v-.3a.75.75,0,0,0-1.5,0v.3a5.549,5.549,0,0,0,2.325,4.575,7.149,7.149,0,0,0-.75,2.625H323.75a.75.75,0,0,0,0,1.5h3.825a8.1,8.1,0,0,0,.75,2.625A5.549,5.549,0,0,0,326,291.95v.3a.75.75,0,0,0,1.5,0v-.3a4.228,4.228,0,0,1,1.65-3.375,5.619,5.619,0,0,0,4.35,2.175,5.507,5.507,0,0,0,4.35-2.175,4.228,4.228,0,0,1,1.65,3.375v.3a.75.75,0,0,0,1.5,0v-.3a5.549,5.549,0,0,0-2.325-4.575,7.149,7.149,0,0,0,.75-2.625h3.825a.75.75,0,0,0,0-1.5Z" fill="none" stroke="#87b26b" stroke-linecap="round" stroke-linejoin="round"/><rect x="364" y="288" width="129" height="31" rx="6" ry="6" fill="#87b26b"/><path d="M368.729,291.95H370.7a2.541,2.541,0,0,1,.685.088,1.618,1.618,0,0,1,.544.261,1.214,1.214,0,0,1,.36.439,1.409,1.409,0,0,1,.132.628,1.16,1.16,0,0,1-.271.8,1.594,1.594,0,0,1-.705.452v.017a1.194,1.194,0,0,1,.48.131,1.331,1.331,0,0,1,.389.3,1.461,1.461,0,0,1,.26.436,1.485,1.485,0,0,1,.1.536,1.421,1.421,0,0,1-.156.677,1.442,1.442,0,0,1-.428.491,1.966,1.966,0,0,1-.632.3,2.753,2.753,0,0,1-.776.1h-1.943Zm.768,2.353h1.048a1.828,1.828,0,0,0,.408-.045.92.92,0,0,0,.336-.147.746.746,0,0,0,.228-.265.821.821,0,0,0,.084-.392.8.8,0,0,0-.9-.832H369.5Zm0,2.64h1.128a2.386,2.386,0,0,0,.388-.036,1.146,1.146,0,0,0,.4-.145.985.985,0,0,0,.313-.291.85.85,0,0,0,.127-.488.893.893,0,0,0-.328-.756,1.42,1.42,0,0,0-.888-.252H369.5Z" fill="#fff"/><path d="M374.432,291.95v3.472a2.244,2.244,0,0,0,.072.549,1.6,1.6,0,0,0,.24.523,1.3,1.3,0,0,0,.439.393,1.567,1.567,0,0,0,1.344,0,1.32,1.32,0,0,0,.441-.393,1.592,1.592,0,0,0,.239-.523,2.244,2.244,0,0,0,.072-.549V291.95h.768v3.593a2.317,2.317,0,0,1-.168.9,2.154,2.154,0,0,1-.464.7,2.036,2.036,0,0,1-.7.455,2.412,2.412,0,0,1-1.729,0,2.022,2.022,0,0,1-.7-.455,2.139,2.139,0,0,1-.464-.7,2.335,2.335,0,0,1-.168-.9V291.95Z" fill="#fff"/><path d="M384.224,294.446v2.792a2.577,2.577,0,0,1-.472.225,5.326,5.326,0,0,1-.548.164,4.768,4.768,0,0,1-.576.1,5,5,0,0,1-.548.031,3.248,3.248,0,0,1-1.284-.24,2.749,2.749,0,0,1-1.544-1.6,3.181,3.181,0,0,1-.2-1.14,3.11,3.11,0,0,1,.22-1.176,2.914,2.914,0,0,1,.608-.944,2.765,2.765,0,0,1,.933-.628,3.058,3.058,0,0,1,1.191-.228,3.52,3.52,0,0,1,1.279.2,2.336,2.336,0,0,1,.832.541l-.543.584a2.016,2.016,0,0,0-.744-.469,2.57,2.57,0,0,0-.824-.132,2.078,2.078,0,0,0-.88.18,2.1,2.1,0,0,0-.673.484,2.152,2.152,0,0,0-.432.716,2.507,2.507,0,0,0-.152.876,2.352,2.352,0,0,0,.168.892,2.236,2.236,0,0,0,.465.717,2.149,2.149,0,0,0,.7.476,2.2,2.2,0,0,0,.873.172,3.76,3.76,0,0,0,.771-.075,2.186,2.186,0,0,0,.62-.221v-1.576H382.2v-.72Z" fill="#fff"/><path d="M368.768,301.551h1.648a2.22,2.22,0,0,1,1.363.375,1.545,1.545,0,0,1,0,2.276,2.2,2.2,0,0,1-1.363.38h-1.072v2.633h-.576Zm.576,2.5h.928a2.329,2.329,0,0,0,.652-.08,1.2,1.2,0,0,0,.428-.213.764.764,0,0,0,.232-.312,1.058,1.058,0,0,0,0-.769.8.8,0,0,0-.232-.315,1.124,1.124,0,0,0-.428-.212,2.417,2.417,0,0,0-.652-.076h-.928Z" fill="#fff"/><path d="M373.224,304.639q0-.249-.012-.5c-.009-.171-.015-.393-.021-.664h.521v.7h.017a1.135,1.135,0,0,1,.159-.291,1.236,1.236,0,0,1,.6-.433,1.326,1.326,0,0,1,.443-.067,1.472,1.472,0,0,1,.393.047l-.1.521a.9.9,0,0,0-.3-.04,1.087,1.087,0,0,0-.521.116,1.163,1.163,0,0,0-.36.3,1.235,1.235,0,0,0-.211.388,1.277,1.277,0,0,0-.068.4v2.112h-.528Z" fill="#fff"/><path d="M379.463,305.342a2.047,2.047,0,0,1-.147.785,1.859,1.859,0,0,1-1.04,1.035,2.114,2.114,0,0,1-.8.148,2.092,2.092,0,0,1-.8-.148,1.852,1.852,0,0,1-1.04-1.035,2.146,2.146,0,0,1,0-1.568,1.849,1.849,0,0,1,1.04-1.036,2.092,2.092,0,0,1,.8-.147,2.114,2.114,0,0,1,.8.147,1.857,1.857,0,0,1,1.04,1.036A2.041,2.041,0,0,1,379.463,305.342Zm-.575,0a1.691,1.691,0,0,0-.1-.584,1.417,1.417,0,0,0-.283-.472,1.347,1.347,0,0,0-.444-.315,1.548,1.548,0,0,0-1.177,0,1.3,1.3,0,0,0-.439.315,1.459,1.459,0,0,0-.279.472,1.746,1.746,0,0,0,0,1.168,1.443,1.443,0,0,0,.279.473,1.314,1.314,0,0,0,.439.316,1.56,1.56,0,0,0,1.177,0,1.364,1.364,0,0,0,.444-.316,1.4,1.4,0,0,0,.283-.473A1.679,1.679,0,0,0,378.888,305.342Z" fill="#fff"/><path d="M380.424,301.166h.527v2.928h.016a1.436,1.436,0,0,1,.3-.328,1.939,1.939,0,0,1,.367-.223,1.809,1.809,0,0,1,.4-.129,2.048,2.048,0,0,1,.389-.039,2.109,2.109,0,0,1,.8.147,1.861,1.861,0,0,1,.629.412,1.9,1.9,0,0,1,.412.624,2.159,2.159,0,0,1,0,1.568,1.906,1.906,0,0,1-.412.623,1.861,1.861,0,0,1-.629.412,2.109,2.109,0,0,1-.8.148,2.052,2.052,0,0,1-.389-.04,1.756,1.756,0,0,1-.4-.128,1.854,1.854,0,0,1-.367-.225,1.36,1.36,0,0,1-.3-.328h-.016v.625h-.527Zm3.416,4.176a1.691,1.691,0,0,0-.1-.584,1.42,1.42,0,0,0-.284-.472,1.343,1.343,0,0,0-.443-.315,1.42,1.42,0,0,0-.588-.116,1.5,1.5,0,0,0-.6.116,1.475,1.475,0,0,0-.472.315,1.427,1.427,0,0,0-.312.472,1.587,1.587,0,0,0,0,1.168,1.411,1.411,0,0,0,.313.473,1.494,1.494,0,0,0,.472.316,1.535,1.535,0,0,0,.6.115,1.452,1.452,0,0,0,.588-.115,1.36,1.36,0,0,0,.443-.316,1.4,1.4,0,0,0,.284-.473A1.679,1.679,0,0,0,383.84,305.342Z" fill="#fff"/><path d="M385.959,307.215h-.528v-6.049h.528Z" fill="#fff"/><path d="M387.6,305.486a1.615,1.615,0,0,0,.136.527,1.4,1.4,0,0,0,.3.429,1.381,1.381,0,0,0,.424.284,1.292,1.292,0,0,0,.52.1,1.332,1.332,0,0,0,.732-.2,1.456,1.456,0,0,0,.468-.453l.408.337a2.043,2.043,0,0,1-.74.608,2.079,2.079,0,0,1-.868.184,1.986,1.986,0,0,1-.771-.148,1.792,1.792,0,0,1-.612-.412,1.931,1.931,0,0,1-.4-.623,2.029,2.029,0,0,1-.148-.785,2.1,2.1,0,0,1,.144-.783,1.9,1.9,0,0,1,.4-.624,1.827,1.827,0,0,1,.6-.412,1.864,1.864,0,0,1,.744-.147,1.843,1.843,0,0,1,.761.151,1.7,1.7,0,0,1,.563.4,1.744,1.744,0,0,1,.348.593,2.156,2.156,0,0,1,.12.724v.24Zm2.544-.432a1.2,1.2,0,0,0-.32-.868,1.183,1.183,0,0,0-.9-.332,1.266,1.266,0,0,0-.5.1,1.4,1.4,0,0,0-.42.268,1.343,1.343,0,0,0-.288.384.987.987,0,0,0-.107.448Z" fill="#fff"/><path d="M391.68,304.3c0-.139,0-.277-.013-.416s-.018-.277-.028-.416h.568v.568h.016a1.243,1.243,0,0,1,.532-.5,1.5,1.5,0,0,1,.677-.168,1.753,1.753,0,0,1,.323.031,1.19,1.19,0,0,1,.332.116,1.128,1.128,0,0,1,.3.235,1.271,1.271,0,0,1,.236.393,1.228,1.228,0,0,1,.508-.568,1.393,1.393,0,0,1,.725-.207,1.367,1.367,0,0,1,1.063.379,1.562,1.562,0,0,1,.345,1.084v2.377h-.529V305.03a1.594,1.594,0,0,0-.2-.872.823.823,0,0,0-.744-.3.966.966,0,0,0-.5.116.95.95,0,0,0-.324.308,1.362,1.362,0,0,0-.18.437,2.273,2.273,0,0,0-.057.508v1.992h-.527V305.03a1.585,1.585,0,0,0-.2-.872.824.824,0,0,0-.743-.3,1.623,1.623,0,0,0-.221.032.833.833,0,0,0-.355.176,1.266,1.266,0,0,0-.332.432,1.766,1.766,0,0,0-.148.8v1.92h-.527Z" fill="#fff"/><path d="M404.375,305.9l1.271,1.313h-.815l-.8-.832a3.062,3.062,0,0,1-.752.715,1.751,1.751,0,0,1-.977.261,2.12,2.12,0,0,1-.676-.108,1.7,1.7,0,0,1-.568-.315,1.533,1.533,0,0,1-.388-.509,1.562,1.562,0,0,1-.144-.684,1.5,1.5,0,0,1,.1-.568,1.6,1.6,0,0,1,.284-.459,2.2,2.2,0,0,1,.412-.364,3.5,3.5,0,0,1,.487-.28,3.778,3.778,0,0,1-.459-.6,1.354,1.354,0,0,1-.205-.725,1.411,1.411,0,0,1,.109-.568,1.216,1.216,0,0,1,.3-.42,1.305,1.305,0,0,1,.448-.26,1.715,1.715,0,0,1,.56-.088,1.651,1.651,0,0,1,.529.084,1.34,1.34,0,0,1,.436.244,1.137,1.137,0,0,1,.3.4,1.31,1.31,0,0,1,.108.547,1.089,1.089,0,0,1-.112.5,1.578,1.578,0,0,1-.292.4,2.289,2.289,0,0,1-.4.32q-.224.141-.439.252l1.3,1.344.776-1.344h.647Zm-2.2-1.473c-.187.107-.346.207-.477.3a1.475,1.475,0,0,0-.316.3,1.079,1.079,0,0,0-.176.332,1.294,1.294,0,0,0-.057.392,1.014,1.014,0,0,0,.1.44,1.033,1.033,0,0,0,.256.34,1.23,1.23,0,0,0,.808.3,1.285,1.285,0,0,0,.42-.064,1.4,1.4,0,0,0,.353-.176,1.85,1.85,0,0,0,.308-.264,4.252,4.252,0,0,0,.28-.328Zm1.184-1.752a.688.688,0,0,0-.229-.539.8.8,0,0,0-.556-.2.865.865,0,0,0-.6.224.786.786,0,0,0-.244.607.757.757,0,0,0,.068.3,1.793,1.793,0,0,0,.16.292,2.581,2.581,0,0,0,.191.252,1.4,1.4,0,0,0,.172.172c.107-.063.223-.129.345-.2a2.217,2.217,0,0,0,.34-.228,1.138,1.138,0,0,0,.257-.3A.741.741,0,0,0,403.359,302.678Z" fill="#fff"/><path d="M413.43,306.318a2.22,2.22,0,0,1-.355.408,2.246,2.246,0,0,1-.484.332,2.757,2.757,0,0,1-.588.22,2.7,2.7,0,0,1-.668.08,3.054,3.054,0,0,1-1.172-.224,2.821,2.821,0,0,1-1.556-1.561,3.288,3.288,0,0,1,0-2.384,2.807,2.807,0,0,1,1.556-1.56,3.019,3.019,0,0,1,1.172-.225,2.858,2.858,0,0,1,1.057.208,2.139,2.139,0,0,1,.9.688l-.5.375a1.39,1.39,0,0,0-.24-.271,1.824,1.824,0,0,0-.348-.24,2.27,2.27,0,0,0-.42-.168,1.62,1.62,0,0,0-.449-.063,2.285,2.285,0,0,0-.975.2,2.194,2.194,0,0,0-.732.535,2.362,2.362,0,0,0-.461.78,2.793,2.793,0,0,0,0,1.864,2.348,2.348,0,0,0,.461.779,2.2,2.2,0,0,0,.732.537,2.3,2.3,0,0,0,.975.2,2.621,2.621,0,0,0,.445-.039,1.876,1.876,0,0,0,.432-.137,1.69,1.69,0,0,0,.4-.26,1.945,1.945,0,0,0,.348-.412Z" fill="#fff"/><path d="M414.207,301.166h.527v2.9h.017a1.187,1.187,0,0,1,.224-.279,1.463,1.463,0,0,1,.3-.221,1.717,1.717,0,0,1,.355-.145,1.4,1.4,0,0,1,.372-.051,1.368,1.368,0,0,1,1.064.379,1.566,1.566,0,0,1,.344,1.084v2.377h-.528v-2.072a1.761,1.761,0,0,0-.216-.956.882.882,0,0,0-.8-.332,2,2,0,0,0-.225.032.981.981,0,0,0-.388.176,1.285,1.285,0,0,0-.364.432,1.667,1.667,0,0,0-.16.8v1.92h-.527Z" fill="#fff"/><path d="M421.055,304.918v-.1a.852.852,0,0,0-.96-.968,1.651,1.651,0,0,0-1.144.44l-.32-.377a2.114,2.114,0,0,1,1.584-.543,1.682,1.682,0,0,1,.524.08,1.168,1.168,0,0,1,.436.243,1.2,1.2,0,0,1,.3.412,1.419,1.419,0,0,1,.112.592v1.673q0,.215.021.451c.013.158.027.287.044.389h-.513c-.016-.092-.027-.189-.036-.3s-.012-.211-.012-.312h-.016a1.438,1.438,0,0,1-.548.54,1.663,1.663,0,0,1-.772.164,1.709,1.709,0,0,1-.479-.068,1.206,1.206,0,0,1-.412-.208,1.055,1.055,0,0,1-.288-.344,1,1,0,0,1-.108-.476,1.028,1.028,0,0,1,.236-.717,1.443,1.443,0,0,1,.592-.388,2.935,2.935,0,0,1,.76-.16c.27-.021.517-.032.74-.032Zm-.271.433c-.134,0-.3.007-.5.02a2.9,2.9,0,0,0-.576.1,1.275,1.275,0,0,0-.472.235.536.536,0,0,0-.2.44.6.6,0,0,0,.28.531.86.86,0,0,0,.284.121,1.426,1.426,0,0,0,.315.035,1.2,1.2,0,0,0,.5-.1,1.014,1.014,0,0,0,.568-.645,1.587,1.587,0,0,0,.067-.467v-.272Z" fill="#fff"/><path d="M423.455,307.215h-.527v-6.049h.527Z" fill="#fff"/><path d="M425.375,307.215h-.527v-6.049h.527Z" fill="#fff"/><path d="M427.016,305.486a1.567,1.567,0,0,0,.136.527,1.377,1.377,0,0,0,.3.429,1.393,1.393,0,0,0,.424.284,1.293,1.293,0,0,0,.521.1,1.331,1.331,0,0,0,.731-.2,1.456,1.456,0,0,0,.468-.453l.408.337a2.041,2.041,0,0,1-.739.608,2.082,2.082,0,0,1-.868.184,1.994,1.994,0,0,1-.772-.148,1.8,1.8,0,0,1-.612-.412,1.964,1.964,0,0,1-.4-.623,2.048,2.048,0,0,1-.148-.785,2.077,2.077,0,0,1,.145-.783,1.884,1.884,0,0,1,.4-.624,1.831,1.831,0,0,1,.6-.412,1.857,1.857,0,0,1,.744-.147,1.839,1.839,0,0,1,.76.151,1.683,1.683,0,0,1,.563.4,1.73,1.73,0,0,1,.349.593,2.156,2.156,0,0,1,.12.724v.24Zm2.544-.432a1.2,1.2,0,0,0-.32-.868,1.183,1.183,0,0,0-.9-.332,1.262,1.262,0,0,0-.5.1,1.372,1.372,0,0,0-.42.268,1.325,1.325,0,0,0-.288.384.988.988,0,0,0-.108.448Z" fill="#fff"/><path d="M431.6,303.471c.011.1.018.2.02.3s0,.2,0,.3h.017a1.187,1.187,0,0,1,.224-.279,1.463,1.463,0,0,1,.3-.221,1.717,1.717,0,0,1,.355-.145,1.4,1.4,0,0,1,.372-.051,1.368,1.368,0,0,1,1.064.379,1.566,1.566,0,0,1,.344,1.084v2.377h-.528v-2.072a1.761,1.761,0,0,0-.216-.956.882.882,0,0,0-.8-.332,2,2,0,0,0-.225.032.981.981,0,0,0-.388.176,1.285,1.285,0,0,0-.364.432,1.667,1.667,0,0,0-.16.8v1.92H431.1v-2.92c0-.1,0-.23-.012-.385s-.018-.3-.028-.439Z" fill="#fff"/><path d="M435.832,307.967a1.7,1.7,0,0,0,.6.5,1.982,1.982,0,0,0,1.508.072,1.184,1.184,0,0,0,.452-.316,1.21,1.21,0,0,0,.248-.469,2.078,2.078,0,0,0,.076-.572v-.672H438.7a1.452,1.452,0,0,1-.624.545,1.932,1.932,0,0,1-.776.16,2.024,2.024,0,0,1-.764-.145,1.938,1.938,0,0,1-.62-.4,1.831,1.831,0,0,1-.416-.6,1.892,1.892,0,0,1-.152-.76,1.975,1.975,0,0,1,.145-.76,1.95,1.95,0,0,1,.4-.616,1.772,1.772,0,0,1,.6-.412,1.929,1.929,0,0,1,.764-.147,2.094,2.094,0,0,1,.355.031,1.653,1.653,0,0,1,.376.112,1.712,1.712,0,0,1,.372.22,1.787,1.787,0,0,1,.345.355h.016v-.623h.528v3.711a3,3,0,0,1-.076.648,1.607,1.607,0,0,1-.3.633,1.685,1.685,0,0,1-.612.479,2.338,2.338,0,0,1-1.023.192,2.579,2.579,0,0,1-1-.185,2.315,2.315,0,0,1-.8-.567Zm.1-2.672a1.427,1.427,0,0,0,.108.556,1.446,1.446,0,0,0,.3.456,1.421,1.421,0,0,0,.439.312,1.3,1.3,0,0,0,.548.116,1.458,1.458,0,0,0,1.009-.4,1.279,1.279,0,0,0,.308-.451,1.44,1.44,0,0,0,.1-.592,1.588,1.588,0,0,0-.1-.557,1.318,1.318,0,0,0-.28-.456,1.352,1.352,0,0,0-.447-.312,1.45,1.45,0,0,0-.593-.116,1.282,1.282,0,0,0-.548.116,1.451,1.451,0,0,0-.844,1.324Z" fill="#fff"/><path d="M440.8,305.486a1.567,1.567,0,0,0,.136.527,1.377,1.377,0,0,0,.3.429,1.393,1.393,0,0,0,.424.284,1.293,1.293,0,0,0,.521.1,1.331,1.331,0,0,0,.731-.2,1.456,1.456,0,0,0,.468-.453l.408.337a2.041,2.041,0,0,1-.739.608,2.082,2.082,0,0,1-.868.184,1.994,1.994,0,0,1-.772-.148,1.8,1.8,0,0,1-.612-.412,1.964,1.964,0,0,1-.4-.623,2.048,2.048,0,0,1-.148-.785,2.077,2.077,0,0,1,.145-.783,1.884,1.884,0,0,1,.4-.624,1.831,1.831,0,0,1,.6-.412,1.857,1.857,0,0,1,.744-.147,1.839,1.839,0,0,1,.76.151,1.683,1.683,0,0,1,.563.4,1.73,1.73,0,0,1,.349.593,2.156,2.156,0,0,1,.12.724v.24Zm2.544-.432a1.2,1.2,0,0,0-.32-.868,1.183,1.183,0,0,0-.9-.332,1.262,1.262,0,0,0-.5.1,1.372,1.372,0,0,0-.42.268,1.325,1.325,0,0,0-.288.384.988.988,0,0,0-.108.448Z" fill="#fff"/><path d="M369.008,314.018h2.274v.4h-2.706v-4.248h2.634v.4h-2.2v1.445h2.059v.4h-2.059Z" fill="#fff"/><path d="M372.717,314.126a.33.33,0,0,1-.091.226.327.327,0,0,1-.468,0,.328.328,0,0,1,0-.451.329.329,0,0,1,.468,0A.33.33,0,0,1,372.717,314.126Z" fill="#fff"/><path d="M373.874,314.979a1.267,1.267,0,0,0,.453.375,1.363,1.363,0,0,0,.621.141,1.337,1.337,0,0,0,.51-.087.863.863,0,0,0,.524-.589,1.514,1.514,0,0,0,.058-.428v-.5h-.013a1.077,1.077,0,0,1-.467.407,1.448,1.448,0,0,1-.582.12,1.523,1.523,0,0,1-.573-.107,1.484,1.484,0,0,1-.466-.3,1.4,1.4,0,0,1-.312-.453,1.444,1.444,0,0,1-.114-.57,1.5,1.5,0,0,1,.108-.57,1.453,1.453,0,0,1,.3-.462,1.348,1.348,0,0,1,.45-.31,1.462,1.462,0,0,1,.572-.11,1.54,1.54,0,0,1,.268.024,1.205,1.205,0,0,1,.282.084,1.284,1.284,0,0,1,.536.432h.013v-.469h.4v2.785a2.248,2.248,0,0,1-.057.485,1.191,1.191,0,0,1-.222.474,1.255,1.255,0,0,1-.459.36,1.746,1.746,0,0,1-.769.144,1.919,1.919,0,0,1-.75-.138,1.732,1.732,0,0,1-.6-.426Zm.072-2a1.057,1.057,0,0,0,.081.416,1.08,1.08,0,0,0,.222.342,1.058,1.058,0,0,0,.33.234.962.962,0,0,0,.411.088,1.1,1.1,0,0,0,.756-.3.945.945,0,0,0,.23-.339,1.078,1.078,0,0,0,.076-.443,1.228,1.228,0,0,0-.072-.418,1,1,0,0,0-.547-.576,1.108,1.108,0,0,0-.443-.086.99.99,0,0,0-.411.086,1.091,1.091,0,0,0-.33.234,1.1,1.1,0,0,0-.222.342A1.07,1.07,0,0,0,373.946,312.975Z" fill="#fff"/><path d="M378.051,314.126a.33.33,0,0,1-.091.226.327.327,0,0,1-.468,0,.328.328,0,0,1,0-.451.329.329,0,0,1,.468,0A.33.33,0,0,1,378.051,314.126Z" fill="#fff"/><path d="M379.346,315.254h-.4l.4-1.41h.486Z" fill="#fff"/><path d="M382.473,310.166h1.266a2.3,2.3,0,0,1,.51.055,1.268,1.268,0,0,1,.438.18.922.922,0,0,1,.307.33,1.017,1.017,0,0,1,.113.5.938.938,0,0,1-.194.6.956.956,0,0,1-.556.333v.012a1.023,1.023,0,0,1,.705.315,1.065,1.065,0,0,1,.256.747,1.357,1.357,0,0,1-.051.3,1.041,1.041,0,0,1-.214.394,1.346,1.346,0,0,1-.468.338,1.929,1.929,0,0,1-.816.145h-1.295Zm.432,1.859h.869a1.233,1.233,0,0,0,.31-.038.791.791,0,0,0,.276-.13.708.708,0,0,0,.2-.23.716.716,0,0,0,.078-.345.955.955,0,0,0-.027-.187.631.631,0,0,0-.12-.24.761.761,0,0,0-.273-.207,1.153,1.153,0,0,0-.485-.086H382.9Zm0,1.992h.828a1.945,1.945,0,0,0,.438-.047,1.117,1.117,0,0,0,.354-.147.753.753,0,0,0,.238-.249.721.721,0,0,0,.086-.36.733.733,0,0,0-.27-.624,1.3,1.3,0,0,0-.792-.2H382.9Z" fill="#fff"/><path d="M388.136,314.414c-.008-.076-.013-.15-.015-.225s0-.149,0-.226h-.012a.9.9,0,0,1-.168.21,1.093,1.093,0,0,1-.228.165,1.272,1.272,0,0,1-.267.108,1.076,1.076,0,0,1-.279.039,1.028,1.028,0,0,1-.8-.285,1.169,1.169,0,0,1-.258-.812v-1.783h.4v1.555a2.176,2.176,0,0,0,.035.414.835.835,0,0,0,.123.3.539.539,0,0,0,.234.186.921.921,0,0,0,.369.063,1.423,1.423,0,0,0,.168-.024.731.731,0,0,0,.291-.131.968.968,0,0,0,.273-.324,1.247,1.247,0,0,0,.119-.6v-1.44h.4v2.19c0,.076,0,.173.01.288s.012.227.021.33Z" fill="#fff"/><path d="M391.369,311.895l-1.644,2.16h1.7v.359H389.15v-.288l1.644-2.16h-1.56v-.36h2.135Z" fill="#fff"/><path d="M393.044,313.928l.858-2.322h.479l-1.4,3.541a1.438,1.438,0,0,1-.322.516.763.763,0,0,1-.561.191c-.061,0-.121,0-.183-.006a.728.728,0,0,1-.183-.035l.041-.385a.628.628,0,0,0,.3.066.425.425,0,0,0,.33-.132,1.15,1.15,0,0,0,.209-.372l.205-.54-1.152-2.845h.5Z" fill="#fff"/><path d="M394.694,315.254h-.4l.4-1.41h.485Z" fill="#fff"/><path d="M398.984,311.966h-.666v2.448h-.4v-2.448h-.594v-.36h.594v-.768a1.041,1.041,0,0,1,.258-.795.971.971,0,0,1,.685-.236,1.289,1.289,0,0,1,.171.012c.059.008.115.018.171.029l-.071.36c-.049-.012-.1-.022-.15-.03a1.062,1.062,0,0,0-.156-.012.55.55,0,0,0-.264.055.362.362,0,0,0-.156.152.659.659,0,0,0-.072.23,2.15,2.15,0,0,0-.018.283v.719h.666Z" fill="#fff"/><path d="M399.729,313.118a1.176,1.176,0,0,0,.1.4,1.033,1.033,0,0,0,.223.321,1.019,1.019,0,0,0,.317.213.974.974,0,0,0,.39.078.994.994,0,0,0,.549-.147,1.1,1.1,0,0,0,.352-.338l.306.252a1.525,1.525,0,0,1-.555.455,1.556,1.556,0,0,1-.651.139,1.484,1.484,0,0,1-.578-.111,1.344,1.344,0,0,1-.459-.309,1.47,1.47,0,0,1-.3-.469,1.522,1.522,0,0,1-.11-.588,1.562,1.562,0,0,1,.107-.588,1.429,1.429,0,0,1,.3-.468,1.388,1.388,0,0,1,.45-.31,1.408,1.408,0,0,1,.559-.11,1.366,1.366,0,0,1,.569.114,1.259,1.259,0,0,1,.423.3,1.3,1.3,0,0,1,.262.443,1.632,1.632,0,0,1,.09.543v.181Zm1.908-.324a.9.9,0,0,0-.24-.651.89.89,0,0,0-.672-.248.967.967,0,0,0-.373.074,1.07,1.07,0,0,0-.314.2,1.021,1.021,0,0,0-.217.288.758.758,0,0,0-.08.336Z" fill="#fff"/><path d="M402.908,311.605l.648,2.281h.012l.75-2.281h.408l.75,2.281h.012l.647-2.281h.468l-.888,2.809h-.444l-.744-2.3h-.012l-.744,2.3h-.443l-.889-2.809Z" fill="#fff"/><path d="M410.1,311.966h-.666v2.448h-.4v-2.448h-.594v-.36h.594v-.768a1.041,1.041,0,0,1,.258-.795.973.973,0,0,1,.685-.236,1.278,1.278,0,0,1,.171.012c.058.008.115.018.171.029l-.072.36c-.048-.012-.1-.022-.149-.03a1.062,1.062,0,0,0-.156-.012.545.545,0,0,0-.264.055.362.362,0,0,0-.156.152.659.659,0,0,0-.072.23,2.15,2.15,0,0,0-.018.283v.719h.666Z" fill="#fff"/><path d="M410.606,312.482c0-.125,0-.25-.009-.379s-.011-.293-.015-.5h.39v.522h.012a.893.893,0,0,1,.12-.219.963.963,0,0,1,.189-.188.924.924,0,0,1,.258-.136,1.007,1.007,0,0,1,.333-.051,1.057,1.057,0,0,1,.294.036l-.078.39a.65.65,0,0,0-.228-.03.81.81,0,0,0-.391.088.855.855,0,0,0-.27.222.914.914,0,0,0-.159.291.961.961,0,0,0-.051.3v1.584h-.4Z" fill="#fff"/><path d="M413.133,310.525a.266.266,0,0,1-.09.207.279.279,0,0,1-.4,0,.263.263,0,0,1-.091-.207.266.266,0,0,1,.091-.207.284.284,0,0,1,.4,0A.268.268,0,0,1,413.133,310.525Zm-.09,3.889h-.4v-2.809h.4Z" fill="#fff"/><path d="M414.273,313.118a1.2,1.2,0,0,0,.1.4,1.04,1.04,0,0,0,.54.534.976.976,0,0,0,.391.078,1,1,0,0,0,.549-.147,1.1,1.1,0,0,0,.351-.338l.307.252a1.528,1.528,0,0,1-.556.455,1.552,1.552,0,0,1-.65.139,1.489,1.489,0,0,1-.579-.111,1.363,1.363,0,0,1-.459-.309,1.467,1.467,0,0,1-.3-.469,1.523,1.523,0,0,1-.111-.588,1.562,1.562,0,0,1,.108-.588,1.413,1.413,0,0,1,.3-.468,1.378,1.378,0,0,1,.45-.31,1.407,1.407,0,0,1,.558-.11,1.367,1.367,0,0,1,.57.114,1.269,1.269,0,0,1,.423.3,1.3,1.3,0,0,1,.261.443,1.632,1.632,0,0,1,.09.543v.181Zm1.908-.324a.9.9,0,0,0-.24-.651.889.889,0,0,0-.672-.248.962.962,0,0,0-.372.074,1.074,1.074,0,0,0-.315.2,1.018,1.018,0,0,0-.216.288.747.747,0,0,0-.081.336Z" fill="#fff"/><path d="M417.711,311.605c.009.076.014.152.016.226s0,.149,0,.226h.012a.923.923,0,0,1,.168-.211,1.1,1.1,0,0,1,.229-.164,1.222,1.222,0,0,1,.267-.108,1.194,1.194,0,0,1,1.077.245,1.175,1.175,0,0,1,.258.813v1.782h-.4v-1.555a1.323,1.323,0,0,0-.162-.717.663.663,0,0,0-.6-.248,1.562,1.562,0,0,0-.168.023.729.729,0,0,0-.291.133.952.952,0,0,0-.272.323,1.246,1.246,0,0,0-.12.6v1.439h-.4v-2.189c0-.076,0-.172-.009-.289s-.013-.226-.021-.33Z" fill="#fff"/><path d="M423.472,314.414h-.4v-.468h-.012a1.034,1.034,0,0,1-.229.245,1.352,1.352,0,0,1-.275.168,1.319,1.319,0,0,1-.3.1,1.482,1.482,0,0,1-.291.03,1.581,1.581,0,0,1-.6-.111,1.413,1.413,0,0,1-.471-.309,1.437,1.437,0,0,1-.31-.469,1.621,1.621,0,0,1,0-1.176,1.4,1.4,0,0,1,.78-.777,1.6,1.6,0,0,1,.6-.11,1.482,1.482,0,0,1,.291.03,1.316,1.316,0,0,1,.3.1,1.4,1.4,0,0,1,.275.168,1.057,1.057,0,0,1,.229.246h.012v-2.2h.4Zm-2.562-1.4a1.265,1.265,0,0,0,.075.438,1.063,1.063,0,0,0,.213.354,1.012,1.012,0,0,0,.333.236,1.063,1.063,0,0,0,.441.087,1.134,1.134,0,0,0,.8-.323,1.1,1.1,0,0,0,.234-.354,1.184,1.184,0,0,0,0-.876,1.075,1.075,0,0,0-.234-.354,1.107,1.107,0,0,0-.357-.238,1.165,1.165,0,0,0-.446-.086,1.1,1.1,0,0,0-.441.086,1,1,0,0,0-.333.238,1.04,1.04,0,0,0-.213.354A1.259,1.259,0,0,0,420.909,313.01Z" fill="#fff"/><path d="M424.689,315.254h-.4l.4-1.41h.486Z" fill="#fff"/><path d="M429.717,312.266a.844.844,0,0,0-.284-.264.8.8,0,0,0-.417-.107,1.032,1.032,0,0,0-.441.078.951.951,0,0,0-.333.233,1.025,1.025,0,0,0-.21.356,1.42,1.42,0,0,0,0,.895,1,1,0,0,0,.21.357.964.964,0,0,0,.333.233,1.047,1.047,0,0,0,.441.078.8.8,0,0,0,.417-.108.834.834,0,0,0,.284-.264l.324.246a1.333,1.333,0,0,1-.474.363,1.419,1.419,0,0,1-.552.123,1.564,1.564,0,0,1-.618-.105,1.379,1.379,0,0,1-.472-.309,1.337,1.337,0,0,1-.3-.471,1.772,1.772,0,0,1,0-1.183,1.328,1.328,0,0,1,.3-.471,1.381,1.381,0,0,1,.472-.31,1.564,1.564,0,0,1,.618-.1,1.419,1.419,0,0,1,.552.123,1.319,1.319,0,0,1,.474.362Z" fill="#fff"/><path d="M433.4,313.01a1.522,1.522,0,0,1-.11.588,1.392,1.392,0,0,1-.78.777,1.673,1.673,0,0,1-1.2,0,1.386,1.386,0,0,1-.779-.777,1.608,1.608,0,0,1,0-1.176,1.394,1.394,0,0,1,.779-.777,1.687,1.687,0,0,1,1.2,0,1.4,1.4,0,0,1,.78.777A1.526,1.526,0,0,1,433.4,313.01Zm-.432,0a1.259,1.259,0,0,0-.075-.437,1.04,1.04,0,0,0-.213-.354,1,1,0,0,0-.333-.238,1.174,1.174,0,0,0-.882,0,.972.972,0,0,0-.33.238,1.065,1.065,0,0,0-.21.354,1.313,1.313,0,0,0,0,.876,1.09,1.09,0,0,0,.21.354.98.98,0,0,0,.33.236,1.162,1.162,0,0,0,.882,0,1.012,1.012,0,0,0,.333-.236,1.063,1.063,0,0,0,.213-.354A1.265,1.265,0,0,0,432.969,313.01Z" fill="#fff"/><path d="M434.606,314.414h-.4v-4.536h.4Z" fill="#fff"/><path d="M438.362,314.414h-.4v-.468h-.012a1.034,1.034,0,0,1-.229.245,1.352,1.352,0,0,1-.275.168,1.319,1.319,0,0,1-.3.1,1.482,1.482,0,0,1-.291.03,1.581,1.581,0,0,1-.6-.111,1.413,1.413,0,0,1-.471-.309,1.437,1.437,0,0,1-.31-.469,1.621,1.621,0,0,1,0-1.176,1.4,1.4,0,0,1,.78-.777,1.6,1.6,0,0,1,.6-.11,1.482,1.482,0,0,1,.291.03,1.316,1.316,0,0,1,.3.1,1.4,1.4,0,0,1,.275.168,1.057,1.057,0,0,1,.229.246h.012v-2.2h.4Zm-2.562-1.4a1.265,1.265,0,0,0,.075.438,1.063,1.063,0,0,0,.213.354,1.012,1.012,0,0,0,.333.236,1.063,1.063,0,0,0,.441.087,1.134,1.134,0,0,0,.8-.323,1.1,1.1,0,0,0,.234-.354,1.184,1.184,0,0,0,0-.876,1.075,1.075,0,0,0-.234-.354,1.107,1.107,0,0,0-.357-.238,1.165,1.165,0,0,0-.446-.086,1.1,1.1,0,0,0-.441.086,1,1,0,0,0-.333.238,1.04,1.04,0,0,0-.213.354A1.259,1.259,0,0,0,435.8,313.01Z" fill="#fff"/><path d="M439.58,315.254h-.4l.4-1.41h.486Z" fill="#fff"/><path d="M443.048,314.414h-.4v-4.536h.4Z" fill="#fff"/><path d="M446.839,313.01a1.522,1.522,0,0,1-.11.588,1.392,1.392,0,0,1-.78.777,1.673,1.673,0,0,1-1.2,0,1.386,1.386,0,0,1-.779-.777,1.608,1.608,0,0,1,0-1.176,1.394,1.394,0,0,1,.779-.777,1.687,1.687,0,0,1,1.2,0,1.4,1.4,0,0,1,.78.777A1.526,1.526,0,0,1,446.839,313.01Zm-.432,0a1.259,1.259,0,0,0-.075-.437,1.04,1.04,0,0,0-.213-.354,1,1,0,0,0-.333-.238,1.174,1.174,0,0,0-.882,0,.972.972,0,0,0-.33.238,1.065,1.065,0,0,0-.21.354,1.313,1.313,0,0,0,0,.876,1.09,1.09,0,0,0,.21.354.98.98,0,0,0,.33.236,1.162,1.162,0,0,0,.882,0,1.012,1.012,0,0,0,.333-.236,1.063,1.063,0,0,0,.213-.354A1.265,1.265,0,0,0,446.407,313.01Z" fill="#fff"/><path d="M447.937,311.605c.009.076.014.152.016.226s0,.149,0,.226h.012a.923.923,0,0,1,.168-.211,1.1,1.1,0,0,1,.229-.164,1.222,1.222,0,0,1,.267-.108,1.194,1.194,0,0,1,1.077.245,1.175,1.175,0,0,1,.258.813v1.782h-.4v-1.555a1.323,1.323,0,0,0-.162-.717.663.663,0,0,0-.6-.248,1.562,1.562,0,0,0-.168.023.729.729,0,0,0-.291.133.952.952,0,0,0-.272.323,1.246,1.246,0,0,0-.12.6v1.439h-.4v-2.189c0-.076,0-.172-.009-.289s-.013-.226-.021-.33Z" fill="#fff"/><path d="M451.111,314.979a1.264,1.264,0,0,0,.452.375,1.363,1.363,0,0,0,.621.141,1.345,1.345,0,0,0,.511-.087.886.886,0,0,0,.339-.237.908.908,0,0,0,.186-.352,1.55,1.55,0,0,0,.058-.428v-.5h-.013a1.085,1.085,0,0,1-.468.407,1.441,1.441,0,0,1-.582.12,1.531,1.531,0,0,1-.573-.107,1.479,1.479,0,0,1-.465-.3,1.37,1.37,0,0,1-.312-.453,1.427,1.427,0,0,1-.114-.57,1.486,1.486,0,0,1,.108-.57,1.453,1.453,0,0,1,.3-.462,1.344,1.344,0,0,1,.449-.31,1.466,1.466,0,0,1,.573-.11,1.548,1.548,0,0,1,.268.024,1.185,1.185,0,0,1,.281.084,1.272,1.272,0,0,1,.279.164,1.325,1.325,0,0,1,.258.268h.013v-.469h.4v2.785a2.248,2.248,0,0,1-.057.485,1.193,1.193,0,0,1-.223.474,1.247,1.247,0,0,1-.459.36,1.742,1.742,0,0,1-.768.144,1.913,1.913,0,0,1-.75-.138,1.745,1.745,0,0,1-.6-.426Zm.071-2a1.087,1.087,0,0,0,.3.758,1.054,1.054,0,0,0,.329.234.965.965,0,0,0,.411.088,1.1,1.1,0,0,0,.411-.078,1.087,1.087,0,0,0,.345-.22.935.935,0,0,0,.231-.339,1.094,1.094,0,0,0,.075-.443,1.205,1.205,0,0,0-.072-.418,1.007,1.007,0,0,0-.21-.342,1.028,1.028,0,0,0-.336-.234,1.116,1.116,0,0,0-.444-.086.994.994,0,0,0-.411.086,1.087,1.087,0,0,0-.329.234,1.105,1.105,0,0,0-.223.342A1.088,1.088,0,0,0,451.183,312.975Z" fill="#fff"/><path d="M455.9,313.172h-1.542v-.4H455.9Z" fill="#fff"/><path d="M459.361,314.414h-.4v-.468h-.012a1.034,1.034,0,0,1-.229.245,1.352,1.352,0,0,1-.275.168,1.319,1.319,0,0,1-.3.1,1.482,1.482,0,0,1-.291.03,1.581,1.581,0,0,1-.6-.111,1.413,1.413,0,0,1-.471-.309,1.437,1.437,0,0,1-.31-.469,1.621,1.621,0,0,1,0-1.176,1.4,1.4,0,0,1,.78-.777,1.6,1.6,0,0,1,.6-.11,1.482,1.482,0,0,1,.291.03,1.316,1.316,0,0,1,.3.1,1.4,1.4,0,0,1,.275.168,1.057,1.057,0,0,1,.229.246h.012v-2.2h.4Zm-2.562-1.4a1.265,1.265,0,0,0,.075.438,1.063,1.063,0,0,0,.213.354,1.012,1.012,0,0,0,.333.236,1.063,1.063,0,0,0,.441.087,1.134,1.134,0,0,0,.8-.323,1.1,1.1,0,0,0,.234-.354,1.184,1.184,0,0,0,0-.876,1.075,1.075,0,0,0-.234-.354,1.107,1.107,0,0,0-.357-.238,1.165,1.165,0,0,0-.446-.086,1.1,1.1,0,0,0-.441.086,1,1,0,0,0-.333.238,1.04,1.04,0,0,0-.213.354A1.259,1.259,0,0,0,456.8,313.01Z" fill="#fff"/><path d="M460.8,310.525a.266.266,0,0,1-.09.207.279.279,0,0,1-.4,0,.263.263,0,0,1-.091-.207.266.266,0,0,1,.091-.207.284.284,0,0,1,.4,0A.268.268,0,0,1,460.8,310.525Zm-.09,3.889h-.4v-2.809h.4Z" fill="#fff"/><path d="M463.153,312.271a.733.733,0,0,0-.24-.275.63.63,0,0,0-.365-.1.941.941,0,0,0-.207.023.615.615,0,0,0-.189.075.426.426,0,0,0-.135.129.342.342,0,0,0-.051.192.317.317,0,0,0,.138.287,1.336,1.336,0,0,0,.414.156l.4.1a.964.964,0,0,1,.489.268.691.691,0,0,1,.2.5.8.8,0,0,1-.093.394.815.815,0,0,1-.246.27,1.039,1.039,0,0,1-.352.152,1.636,1.636,0,0,1-.4.049,1.479,1.479,0,0,1-.6-.123,1.108,1.108,0,0,1-.477-.424l.342-.233a.943.943,0,0,0,.3.306.807.807,0,0,0,.436.114,1.109,1.109,0,0,0,.239-.026.746.746,0,0,0,.214-.084.479.479,0,0,0,.149-.147.382.382,0,0,0,.058-.21.325.325,0,0,0-.156-.3,1.368,1.368,0,0,0-.378-.147l-.385-.09c-.048-.013-.112-.032-.194-.06a.92.92,0,0,1-.24-.127.763.763,0,0,1-.2-.219.622.622,0,0,1-.084-.333.791.791,0,0,1,.087-.378.753.753,0,0,1,.234-.264,1.072,1.072,0,0,1,.333-.153,1.438,1.438,0,0,1,.384-.051,1.305,1.305,0,0,1,.546.114.805.805,0,0,1,.391.39Z" fill="#fff"/><path d="M465.673,311.966h-.81v1.656a.918.918,0,0,0,.029.255.364.364,0,0,0,.085.153.277.277,0,0,0,.129.075.621.621,0,0,0,.165.021.768.768,0,0,0,.21-.03.884.884,0,0,0,.2-.078l.019.367a1.284,1.284,0,0,1-.534.1.976.976,0,0,1-.237-.03.552.552,0,0,1-.225-.114.621.621,0,0,1-.168-.228.917.917,0,0,1-.066-.378v-1.771h-.594v-.36h.594v-.791h.4v.791h.81Z" fill="#fff"/><path d="M468.014,312.691v-.071a.639.639,0,0,0-.721-.726,1.234,1.234,0,0,0-.857.33l-.24-.283a1.586,1.586,0,0,1,1.188-.407,1.32,1.32,0,0,1,.394.06.872.872,0,0,1,.549.492,1.077,1.077,0,0,1,.084.444v1.254c0,.108,0,.221.015.339s.021.215.033.291h-.384c-.012-.068-.021-.143-.027-.223s-.009-.157-.009-.233h-.012a1.071,1.071,0,0,1-.411.405,1.244,1.244,0,0,1-.579.123,1.306,1.306,0,0,1-.36-.051.921.921,0,0,1-.309-.156.8.8,0,0,1-.216-.258.757.757,0,0,1-.081-.357.769.769,0,0,1,.177-.537,1.092,1.092,0,0,1,.444-.291,2.194,2.194,0,0,1,.569-.12c.2-.016.388-.024.556-.024Zm-.2.324c-.1,0-.226.006-.375.016a2.086,2.086,0,0,0-.433.072.934.934,0,0,0-.354.177.4.4,0,0,0-.147.329.47.47,0,0,0,.058.238.493.493,0,0,0,.152.162.7.7,0,0,0,.213.09,1.078,1.078,0,0,0,.237.026.917.917,0,0,0,.375-.071.759.759,0,0,0,.426-.483,1.18,1.18,0,0,0,.052-.351v-.205Z" fill="#fff"/><path d="M469.705,311.605c.009.076.014.152.016.226s0,.149,0,.226h.012a.923.923,0,0,1,.168-.211,1.1,1.1,0,0,1,.229-.164,1.222,1.222,0,0,1,.267-.108,1.194,1.194,0,0,1,1.077.245,1.175,1.175,0,0,1,.258.813v1.782h-.4v-1.555a1.323,1.323,0,0,0-.162-.717.663.663,0,0,0-.6-.248,1.562,1.562,0,0,0-.168.023.729.729,0,0,0-.291.133.952.952,0,0,0-.272.323,1.246,1.246,0,0,0-.12.6v1.439h-.4v-2.189c0-.076,0-.172-.009-.289s-.013-.226-.021-.33Z" fill="#fff"/><path d="M474.709,312.266a.844.844,0,0,0-.284-.264.8.8,0,0,0-.417-.107,1.032,1.032,0,0,0-.441.078.951.951,0,0,0-.333.233,1.025,1.025,0,0,0-.21.356,1.42,1.42,0,0,0,0,.895,1,1,0,0,0,.21.357.964.964,0,0,0,.333.233,1.047,1.047,0,0,0,.441.078.8.8,0,0,0,.417-.108.834.834,0,0,0,.284-.264l.324.246a1.333,1.333,0,0,1-.474.363,1.419,1.419,0,0,1-.552.123,1.564,1.564,0,0,1-.618-.105,1.379,1.379,0,0,1-.472-.309,1.337,1.337,0,0,1-.3-.471,1.772,1.772,0,0,1,0-1.183,1.328,1.328,0,0,1,.3-.471,1.381,1.381,0,0,1,.472-.31,1.564,1.564,0,0,1,.618-.1,1.419,1.419,0,0,1,.552.123,1.319,1.319,0,0,1,.474.362Z" fill="#fff"/><path d="M475.831,313.118a1.2,1.2,0,0,0,.1.4,1.04,1.04,0,0,0,.54.534.976.976,0,0,0,.391.078,1,1,0,0,0,.549-.147,1.1,1.1,0,0,0,.351-.338l.307.252a1.528,1.528,0,0,1-.556.455,1.552,1.552,0,0,1-.65.139,1.489,1.489,0,0,1-.579-.111,1.363,1.363,0,0,1-.459-.309,1.467,1.467,0,0,1-.3-.469,1.523,1.523,0,0,1-.111-.588,1.562,1.562,0,0,1,.108-.588,1.413,1.413,0,0,1,.3-.468,1.378,1.378,0,0,1,.45-.31,1.407,1.407,0,0,1,.558-.11,1.367,1.367,0,0,1,.57.114,1.269,1.269,0,0,1,.423.3,1.3,1.3,0,0,1,.261.443,1.632,1.632,0,0,1,.09.543v.181Zm1.908-.324a.9.9,0,0,0-.24-.651.889.889,0,0,0-.672-.248.962.962,0,0,0-.372.074,1.074,1.074,0,0,0-.315.2,1.018,1.018,0,0,0-.216.288.747.747,0,0,0-.081.336Z" fill="#fff"/></svg>