<svg id="template" xmlns="http://www.w3.org/2000/svg" width="655" height="493" viewBox="0 0 655 493"><title>04 BRUNCH</title><path d="M319.14,413.591l-.028,0C319.125,413.646,319.133,413.625,319.14,413.591Z" fill="none" stroke="#000" stroke-linecap="round" stroke-linejoin="round"/><path d="M319.14,413.591l-.028,0C319.125,413.646,319.133,413.625,319.14,413.591Z" fill="none" stroke="#000" stroke-linecap="round" stroke-linejoin="round" stroke-dasharray="2 4"/><path d="M409.306,125.494a40.485,40.485,0,0,1-.721,11.994,26.042,26.042,0,0,1-8.6,13.691c-3.566,2.916-6.754,5.747-11.024,7.475a19.786,19.786,0,0,1-5.587,1.771c-1.791.13-3.585.128-5.378.2-.742.029-1.206.231-1.372-.635a5.226,5.226,0,0,1,.253-1.83l.6-3.252c.841-4.593.369-9.471.067-14.122-.2-3.007-.449-6.01-.682-9.015-.218-2.808-.68-5.595.318-8.282l1.008-2.714a21.151,21.151,0,0,1,3.741-6.784,36.842,36.842,0,0,1,3.8-4.036c.784-.7,1.553-1.508,2.37-2.162a15.139,15.139,0,0,1,2.209-1.705c-.17.091-.7.06-.941.142-.416.141-.821.292-1.23.453a15.509,15.509,0,0,0-4.73,2.937c-.677.615-1.3,1.288-1.915,1.963q-1.083,1.186-2.153,2.383c-.252.282-1.226,1.69-1.583,1.467-.16-.1-.175-.537-.2-.7a15.381,15.381,0,0,1-.056-2.454,18.586,18.586,0,0,1,2.295-8.291,19.177,19.177,0,0,1,4.58-6.006c3.114-2.681,6.51-5.2,10.459-6.338-.116-.2-.41-.194-.642-.156a35.3,35.3,0,0,0-7.306,1.735,17.634,17.634,0,0,0-1.685.769q-.411.214-.81.45c-.158.093-.549.467-.648.2a2.528,2.528,0,0,1,.022-.807q.014-.414.014-.829,0-.8-.064-1.605a27.551,27.551,0,0,0-.466-3.236.965.965,0,0,0-.331-.663,1.926,1.926,0,0,0-.141.86,16.878,16.878,0,0,1-1.265,6.1c-1.717,4.169-5.391,6.75-8.5,10.014-.808.848-1.875,1.753-3.008,1.455a3.057,3.057,0,0,1-1.188-.731c-2.419-2.124-4.139-4.909-5.938-7.579-.687-1.018-1.633-2.145-2.855-2.021l1.874,3.769a81.5,81.5,0,0,1,4.779,10.927,40.368,40.368,0,0,1,2.068,9.364c.227,2.97.725,5.926.688,8.928,0,.392-.24.652-.626.578a1.906,1.906,0,0,1-.948-.663,52.672,52.672,0,0,0-6.226-5.623,6.033,6.033,0,0,0-1.721-1.024,3.2,3.2,0,0,0-1.423-.264c.029.359.4.568.711.755a8.544,8.544,0,0,1,.971.722,23.386,23.386,0,0,1,4.387,4.319,51.059,51.059,0,0,1,3.052,4.765c1.392,2.417,1.4,5.364,1.129,8.067a34.953,34.953,0,0,1-2.259,8.319c-1.123,3.11-2.363,6.255-3.744,9.251A47.969,47.969,0,0,1,357.4,166.1c-1.382,1.863-2.922,3.6-4.424,5.362-1.433,1.684-2.568,3.62-3.994,5.278a1.182,1.182,0,0,1-1.418.418,1.482,1.482,0,0,1-.351-.343l-4.488-5.488a132.081,132.081,0,0,0-9.457-10.633c-1.052-1.045-2.192-1.994-3.322-2.952a27.684,27.684,0,0,1-2.941-2.343,5.6,5.6,0,0,1-1.095-2.907c-.92-5.757-.52-10.961.251-16.74a40.069,40.069,0,0,1,3.47-11.319,24.039,24.039,0,0,1,11.729-11.644.95.95,0,0,0,.575-.471,11.534,11.534,0,0,0-5.336,1.726c-.612.373-1.385,1.2-2.092,1.31-.959.154-.873-.694-.606-1.284a41.649,41.649,0,0,1,1.992-3.712l2.4-4.14c1.646-2.834,3.717-5.4,5.1-8.381.079-.169.12-.429-.057-.487a.333.333,0,0,0-.249.054c-2.98,1.567-4.652,4.315-6.546,6.971a58.042,58.042,0,0,0-5.356,8.64,5.912,5.912,0,0,1-1.4,1.914.9.9,0,0,1-.271-.761c-.072-2.617-.223-5.231-.241-7.849a41.871,41.871,0,0,1,.531-7.578,25.124,25.124,0,0,1,.929-3.676q.309-.913.7-1.8a8.207,8.207,0,0,0,.688-1.426.721.721,0,0,0-.49.154c-.237.163-.467.338-.693.517a14.761,14.761,0,0,0-3.458,3.923c-.059.1-.205-.087-.319-.084-.92-2.511-2.225-4.775-3.384-7.181a3.013,3.013,0,0,0-1.122-1.455c-.092-.05-.235-.074-.277.022a.206.206,0,0,0,.01.142c1.528,4.791,3.528,9.481,4.285,14.477a20.8,20.8,0,0,1-1.469,10.5c-1.982,5.091-3.473,10.392-5.534,15.445a76.717,76.717,0,0,0-2.7,7.4c-.737,2.52-1.167,5.081-1.892,7.6a.64.64,0,0,1-.266.429.613.613,0,0,1-.505-.056c-2.82-1.234-5.056-4-7.041-6.263a53.817,53.817,0,0,1-5.829-7.939,25.559,25.559,0,0,1-3.4-7.7c-.641-3.274-1.17-6.713-.449-10.02.731-3.352,2.875-6.378,5.064-8.935.462-.539.978-.99,1.458-1.462a7.194,7.194,0,0,0,.779-1.52,7.771,7.771,0,0,0-3.129,2.492c-1.674,1.894-3.507,3.638-5.279,5.451a3.514,3.514,0,0,1-.913-1.9A102.264,102.264,0,0,0,293.2,94.762a66.03,66.03,0,0,0-2.718-8.142,2.263,2.263,0,0,0-1.1-1.487c.078.029.477,3.286.518,3.556a56.789,56.789,0,0,1,.792,5.662,57.835,57.835,0,0,1,.333,8.076c-.006.193-.108.014-.284.093-1.6-1.631-3.3-3.208-4.832-4.906A6.744,6.744,0,0,0,281.44,95.5c-.172-.024-.418.017-.414.191a.312.312,0,0,0,.141.21c1.776,1.483,3.335,3.242,4.986,4.881a14.974,14.974,0,0,1,3.353,5.441,18.317,18.317,0,0,1,.613,6.552c-.035,1.673-.17,3.341-.29,5.01a41.127,41.127,0,0,0-.045,7.588c.039.345.36,1.243.017,1.457-.248.155-.669-.065-.888-.175a13.348,13.348,0,0,1-1.678-1.176,34.637,34.637,0,0,1-2.729-2.181,50.83,50.83,0,0,1-4.771-4.843,119.3,119.3,0,0,1-7.638-9.334,41.034,41.034,0,0,1-3.085-5.068c-.463-.913-.885-1.846-1.258-2.8-.165-.421-.231-.82-.354-1.243-.072-.248-.563-1-.517-1.213-.605,2.708,1.013,5.654,2.444,7.838,2.287,3.49,4.665,6.9,6.9,10.424-.5.282-1.121-.019-1.627-.3a21.817,21.817,0,0,0-3.126-1.287,2.831,2.831,0,0,0-.906-.223c-.654-.013.077.687.225.865a10.347,10.347,0,0,0,1.593,1.445c1.8,1.418,3.746,2.626,5.516,4.109,1.83,1.533,3.566,3.173,5.277,4.837a47.919,47.919,0,0,1,4.916,5.772c2.443,3.254,4.136,7.017,6.5,10.365,3.367,4.761,7.914,8.606,12.25,12.451,5.594,4.959,11.291,10.464,15.294,16.79a48.011,48.011,0,0,1,6.54,15.329c1.1,5.091.952,10.227.755,15.394a53.741,53.741,0,0,1-2.707,15.4,32.478,32.478,0,0,1-2.147,4.924,5.634,5.634,0,0,1-1.479,1.989c-1.034.759-1.547.213-2.331-.425-4.829-3.929-10.691-5.762-15.8-9.2a38.943,38.943,0,0,1-12.3-13.187c-1.3-2.348-1.59-5.738-1.933-8.385a64.723,64.723,0,0,1-.488-8.9c.058-6.321.716-12.664.779-18.946q.02-1.985-.032-3.969c-.071-2.645-.243-5.287-.532-7.917-.184-1.668-.5-3.5-1.8-4.562a.336.336,0,0,0-.244-.1c-.119.017-.185.145-.227.258a4.751,4.751,0,0,0-.151,2.658c.681,6.465-.114,12.688-1.4,19-.215,1.057-.458,2.108-.74,3.149-.168.622-.362,1.981-1.1,2.219-.351.114-.654-.266-.813-.6-.9-1.875-1.64-3.811-2.545-5.684a29,29,0,0,0-2.567-4.411c-1.784-2.465-3.923-4.739-5.888-7-2.226-2.555-4.8-4.753-7.077-7.236a50.061,50.061,0,0,1-4.647-5.1,23.607,23.607,0,0,1-2.8-5.638,46.083,46.083,0,0,1-2.192-12.311c-.021-.332-.194-.783-.516-.7a.506.506,0,0,0-.258.213,1.581,1.581,0,0,0-.389,1.168c-.2,3.353.021,6.737.09,10.092.026,1.26-.583.642-1.2.024a18.049,18.049,0,0,1-1.261-1.437c-1.276-1.576-2.466-3.234-3.791-4.769-1.15-1.332-2.6-2.394-3.66-3.832a8.47,8.47,0,0,1-1.645-5.057c-.069-1.2-.881-.036-1.089.428a11.7,11.7,0,0,0-.82,3.5.4.4,0,0,1-.105.274.367.367,0,0,1-.216.065,7.892,7.892,0,0,1-2.4-.668,23.587,23.587,0,0,0-2.866-.6c-.56-.08-3.552-.77-3.031.311.158.327.736.557,1.016.74q1.589,1.042,3.122,2.165a41.143,41.143,0,0,1,5.7,4.965c.742.794,1.428,1.638,2.113,2.482l4.878,6.007c2.564,3.157,4.794,6.819,7.83,9.632.117.108.241.282.144.408a.325.325,0,0,1-.258.087c-3.429.1-6.6-1.151-9.943-1.744a51.787,51.787,0,0,0-7.193-.765c-1.416-.051-2.83-.162-4.247-.2a14.4,14.4,0,0,1-3.653-.133,7.176,7.176,0,0,1-3.167-2.253,22.667,22.667,0,0,1-2.539-3.142,30.183,30.183,0,0,1-2.27-3.9c-.532-1.227-1.169-2.408-1.24-.17-.089,2.783,1.812,5.225,3.116,7.528.692,1.223.419,2.3-1.156,2.064l-6.758-1.01a29.424,29.424,0,0,0-7.49-.228c-2.3.247-4.527.316-6.6,1.5-.306.175-.639.557-.408.823a.623.623,0,0,0,.466.149c3.909.131,7.769.039,11.646.459.683.074,5.808.862,4.259,2.216a4.673,4.673,0,0,1-1.035.6,18.04,18.04,0,0,0-4.277,3.338,12.543,12.543,0,0,0-3.088,5.291,1.276,1.276,0,0,0-.073.7c.257,0,.453-.217.616-.417,5.976-7.326,15.064-9.393,24.108-8.064a68.469,68.469,0,0,1,11.183,2.765l.185.06c4.334,1.422,8.91,2.738,12.662,5.431a39.656,39.656,0,0,1,10.087,11.107c3.769,5.885,4.733,12.954,6.336,19.615a118.636,118.636,0,0,0,8.106,22.978c.214.452.453.907.645,1.365.2.476,2.088,4.405,1.45,4.628a19.707,19.707,0,0,1-4.513.44q-2.414.22-4.84.256a64.279,64.279,0,0,1-9.469-.557,30.1,30.1,0,0,1-8.031-1.851,28.121,28.121,0,0,1-6.337-4.141,37.742,37.742,0,0,1-6.775-7.193c-2.629-3.73-5.228-7.981-6.069-12.528-.1-.561-.221-2.032-.929-1.441-.335.28-.356,1.067-.39,1.455a18.724,18.724,0,0,0,.115,3.093,30.724,30.724,0,0,0,2.476,8.944c.266.681.533,1.363.862,2.015.266.527.973,1.814-.294,1.542a15.137,15.137,0,0,1-2.717-1.1c-1.177-.508-2.3-1.255-3.426-1.87a29.326,29.326,0,0,1-7.344-5.983,42.248,42.248,0,0,1-4.211-5.4" fill="none" stroke="#000" stroke-linecap="round" stroke-linejoin="round" stroke-dasharray="2 4"/><path d="M413.7,126.87q-.31.866-.7,1.7c-.053.112-.518,1.213-.642.584-.121-.611-.224-1.213-.308-1.832-.121-.894-.274-1.775-.47-2.645" fill="none" stroke="#000" stroke-linecap="round" stroke-linejoin="round" stroke-dasharray="2 4"/><path d="M352.15,254.784a74.684,74.684,0,0,1,1.727-14.035l.565-1.9q.181-.725.394-1.441.41-1.383.939-2.727a45.7,45.7,0,0,1,13.955-19.022,33.058,33.058,0,0,1,40.78-.173c2.78,2.148,5.3,4.334,5.748,7.956.435,3.506.485,8.005-1.287,11.147-1.553,2.753-4.524,4.468-5.806,7.388,1.108-.062,1.914-1.023,2.663-1.841,2.708-2.959,6.856-4.162,8.031-8.364.135-.482.089,0,.256-.474a.629.629,0,0,1,.253-.371c.342-.182.652.291.753.665,1.664,6.2,2.812,13.556,1.5,19.919l-1.466,7.132c.263.1.523-.144.692-.37,4.3-5.762,4.353-14.048,4.287-20.92-.008-.809.277-.989,1.048-1.236a2.68,2.68,0,0,1,2.291.483c3.638,2.547,6.64,5.848,9.772,8.965a57.648,57.648,0,0,0,5.014,4.552,11.687,11.687,0,0,0,3.55,2.091.441.441,0,0,0,.315.02c.229-.1.132-.449,0-.661-1.54-2.4-3.831-4.291-5.485-6.667a66.784,66.784,0,0,1-4.46-7.571c-2.663-5.157-4.947-10.518-7.982-15.477-1.671-2.73-4.128-5.61-5.26-8.557a.57.57,0,0,1-.054-.355c.055-.189.277-.264.47-.3,1.363-.286,2.89-.239,4.312-.452a35.6,35.6,0,0,0,7.9-2.632,19.786,19.786,0,0,1,6.427-1.778c4.412-.191,7.819,4.565,9.921,7.905a.936.936,0,0,0,.305.344.314.314,0,0,0,.414-.071.447.447,0,0,0,.042-.24,12.452,12.452,0,0,0-3.746-8.48c-3.282-3.08,5.581-3.374,6.931-3.4,5.114-.109,11.488.68,15.888,3.5.168-.6-.321-1.171-.785-1.588-4.648-4.179-11.485-6.379-17.6-7.283a.691.691,0,0,1-.453-.185c-.6-.736,1.694-2.546,2.129-2.936q2.545-2.287,4.959-4.715a16.292,16.292,0,0,0,3.214-5.019c.273-.564.384-1.458-.221-1.619l-2.779,2.708c-1.793,1.747-3.591,3.5-5.529,5.085-.58.475-5.184,4.14-5.617,3.625a.661.661,0,0,1-.1-.468c.1-1.765,1.252-3.116,2.009-4.669a23.435,23.435,0,0,0,2.467-10.725c-.027-.666-.117-1.328-.208-1.989a34.894,34.894,0,0,0-.736-4.131c-.371.123-.482.584-.535.971-.461,3.367-.131,7.571-1.8,10.623a45.586,45.586,0,0,1-4.059,6c-1.69,2.188-3.853,5.316-6.169,6.826a28.136,28.136,0,0,1-8.343,3.262c-1.208.317-2.421.621-3.65.843a27.832,27.832,0,0,1-7.711.538,57.558,57.558,0,0,1-8.275-1.616c-5.481-1.437-10.83-3.364-16.379-4.546-4.977-1.061-8.913-2.027-14-1.9a58.956,58.956,0,0,0-18.332,3.311c-1.19.432-2.379,1.27-3.694,1.125-3.642-.4,1.247-12.986,1.942-14.435a15.574,15.574,0,0,1,1.711-2.98c1.9-2.4,5.559-2.749,8.256-3.725a67.155,67.155,0,0,0,12.189-6.355,91.379,91.379,0,0,0,11.607-8.469,100.306,100.306,0,0,0,7.552-7.745c.664-.708,1.328-1.416,2.02-2.1a55.593,55.593,0,0,1,5.793-4.667,29.715,29.715,0,0,1,20.209-6.157,3.777,3.777,0,0,0,.457.064.367.367,0,0,0,.248-.057c.158-.134,0-.386-.169-.511a7.6,7.6,0,0,0-4.741-1.057c-3.951.058-8.028.584-11.421,2.607-.211.126.159-.21-.081-.16a5.2,5.2,0,0,1,1.442-2.072,25.721,25.721,0,0,1,7.145-4.994,28,28,0,0,1,5.813-2.029,57.209,57.209,0,0,1,5.776-.51.292.292,0,0,0,.2-.083c.108-.139-.088-.313-.255-.368a14.156,14.156,0,0,0-5.518-.136,19.3,19.3,0,0,0-5.7,1.553c-.125.056.085-.115-.052-.109-.095-.144-.019-.335.059-.489a25.346,25.346,0,0,1,3.274-4.9,30.753,30.753,0,0,1,4.554-4.541c.747-.574,1.562-1.033,2.276-1.642.324-.277,1.6-1.832,1.91-1.805-1.091-.093-2.571.756-3.5,1.32a33.326,33.326,0,0,0-6.019,4.381,40.379,40.379,0,0,0-4.241,5.486,25.877,25.877,0,0,1-3.909,3.846c-1.675,1.5-3.391,2.959-5.085,4.412a15.1,15.1,0,0,1-3.737,2.462c-.413.18-.461.176-.762-.16a1.464,1.464,0,0,1-.266-1.275,4.741,4.741,0,0,1,.533-1.237,39.124,39.124,0,0,0,3.237-8.255c.7-2.546,1.676-4.781,2.012-7.427" fill="none" stroke="#000" stroke-linecap="round" stroke-linejoin="round" stroke-dasharray="2 4"/><path d="M221.25,201.341a12.88,12.88,0,0,0,1.019,2.274,35.172,35.172,0,0,0,6.9,8.4c1.11.986,2.258,1.926,3.382,2.895a31.826,31.826,0,0,1,3.371,2.952c.151.171.937,1.009.307.993a46.228,46.228,0,0,1-6.506-1.041c-1.76-.3-3.525-.589-5.3-.779a53.136,53.136,0,0,0-9.7-.148c-3.321.255-7.156,1.321-9.58,3.733-.933.929-2.276,2.322-2.585,3.631a.276.276,0,0,0,0,.178c.061.131.256.089.384.023,1.692-.871,3.376-1.789,5.1-2.633a12.754,12.754,0,0,1,3.444-1.418,25.992,25.992,0,0,1,6.4-.129,23.4,23.4,0,0,1,2.9.453q.718.159,1.425.363c.2.056,1.155.217,1.082.5a.209.209,0,0,1-.109.119,3.01,3.01,0,0,1-.52.2,40.641,40.641,0,0,0-13.549,8.867c-.208.206-.932,1.027-.224,1.171,1.01.205,2.5-1.288,3.284-1.783,1.138-.716,2.3-1.389,3.5-2.008a38.21,38.21,0,0,1,7.467-2.966,32.239,32.239,0,0,1,13.529-.533c4.5.657,9.171,2.824,13.051,5.148,2,1.2,3.9,2.516,5.832,3.81,1.857,1.245,3.429,2.963,5.167,4.366a.771.771,0,0,1,.3.37c.144.549-7.655,2.724-8.467,2.95a87.684,87.684,0,0,1-9.622,2.109c-3.455.556-6.62,1.12-10.11.444a11.659,11.659,0,0,1-5.206-2.284c-1.212-.993-2.314-2.166-3.421-3.273-.313-.308-.759-.745-1.226-.683a7.1,7.1,0,0,0,1.115,2.129,13.709,13.709,0,0,0,2.53,2.965c.493.452,1.073.842,1.539,1.318.239.244.928.832.964,1.152.032.286-.345.416-.632.441a62.307,62.307,0,0,0-9.346,1.164c-2.807.688-5.587,1.778-8.342,2.7a17.045,17.045,0,0,0-6.923,3.971.744.744,0,0,0-.236.383.279.279,0,0,0,.231.33.391.391,0,0,0,.162-.046,42.472,42.472,0,0,1,7.589-3.024,25.975,25.975,0,0,1,8.365-.663,4.4,4.4,0,0,1,2,.528,13.849,13.849,0,0,0-5.574,3.9,23.27,23.27,0,0,0-2.243,2.707,6.471,6.471,0,0,0-.833,1.529c-.105.307-.076,1.266-.242,1.462a29.19,29.19,0,0,1,6.229-5.652,41.021,41.021,0,0,1,9.836-4.494,39.288,39.288,0,0,1,8.086-1.659,27.661,27.661,0,0,1,7.457,0c1.735.311-.3.948-1.044,1.357a23.144,23.144,0,0,0-4.929,3.671,41.823,41.823,0,0,0-7.2,10.044,31.454,31.454,0,0,0-3.36,8.283,11.1,11.1,0,0,0-.342,2.711,20.917,20.917,0,0,1,.423,2.091,43.247,43.247,0,0,1,8.614-15.976,18.808,18.808,0,0,1,3.747-3.409,19.144,19.144,0,0,1,2.181-1.3c.572-.291,1.456-.79,1.469.1.007.462-.811,1.338-1.045,1.741a20.8,20.8,0,0,0-1.063,2.058,9.942,9.942,0,0,0-.987,4.578c.01.213.1.5.31.477a20.411,20.411,0,0,1,2.178-4.3c.987-1.744,2-3.477,3.126-5.135,2.18-3.207,4.867-6.276,8.467-7.9a49.456,49.456,0,0,1,17.453-4.27,95.552,95.552,0,0,1,17.988.568,25.6,25.6,0,0,1,8.5,2.518,11.018,11.018,0,0,1,4.664,4.873l1.02,2.729" fill="none" stroke="#000" stroke-linecap="round" stroke-linejoin="round" stroke-dasharray="2 4"/><path d="M319.14,413.591c-.007.034-.015.054-.028,0Z" fill="none" stroke="#000" stroke-linecap="round" stroke-linejoin="round" stroke-dasharray="2 4"/></svg>