<svg id="template" xmlns="http://www.w3.org/2000/svg" width="655" height="493" viewBox="0 0 655 493"><title>07 BUG</title><path d="M319.14,413.591l-.028,0C319.125,413.646,319.133,413.625,319.14,413.591Z" fill="none" stroke="#000" stroke-linecap="round" stroke-linejoin="round"/><path d="M319.14,413.591l-.028,0C319.125,413.646,319.133,413.625,319.14,413.591Z" fill="none" stroke="#000" stroke-linecap="round" stroke-linejoin="round" stroke-dasharray="2 4"/><path d="M319.14,413.591c-.007.034-.015.054-.028,0Z" fill="none" stroke="#000" stroke-linecap="round" stroke-linejoin="round" stroke-dasharray="2 4"/><path d="M340.368,252.922h-5.1a10.8,10.8,0,0,0-1-3.5,7.82,7.82,0,0,0,3.1-6.1v-.4a1,1,0,1,0-2,0v.4a5.637,5.637,0,0,1-2.2,4.5,7.725,7.725,0,0,0-1.9-1.7v-.2a4,4,0,1,0-8,0v.2a10.081,10.081,0,0,0-1.9,1.7,6.11,6.11,0,0,1-2-4.5v-.4a1,1,0,1,0-2,0v.4a7.4,7.4,0,0,0,3.1,6.1,9.532,9.532,0,0,0-1,3.5h-5.1a1,1,0,0,0,0,2h5.1a10.8,10.8,0,0,0,1,3.5,7.4,7.4,0,0,0-3.1,6.1v.4a1,1,0,0,0,2,0v-.4a5.637,5.637,0,0,1,2.2-4.5,7.491,7.491,0,0,0,5.8,2.9,7.342,7.342,0,0,0,5.8-2.9,5.637,5.637,0,0,1,2.2,4.5v.4a1,1,0,0,0,2,0v-.4a7.4,7.4,0,0,0-3.1-6.1,9.532,9.532,0,0,0,1-3.5h5.1a1,1,0,0,0,0-2Z" fill="none" stroke="#000" stroke-linecap="round" stroke-linejoin="round" stroke-dasharray="1 2"/><path d="M343.25,283.25h-3.825a8.1,8.1,0,0,0-.75-2.625A5.865,5.865,0,0,0,341,276.05v-.3a.75.75,0,0,0-1.5,0v.3a4.228,4.228,0,0,1-1.65,3.375,5.794,5.794,0,0,0-1.425-1.275V278a3,3,0,0,0-6,0v.15A7.561,7.561,0,0,0,329,279.425a4.582,4.582,0,0,1-1.5-3.375v-.3a.75.75,0,0,0-1.5,0v.3a5.549,5.549,0,0,0,2.325,4.575,7.149,7.149,0,0,0-.75,2.625H323.75a.75.75,0,0,0,0,1.5h3.825a8.1,8.1,0,0,0,.75,2.625A5.549,5.549,0,0,0,326,291.95v.3a.75.75,0,0,0,1.5,0v-.3a4.228,4.228,0,0,1,1.65-3.375,5.619,5.619,0,0,0,4.35,2.175,5.507,5.507,0,0,0,4.35-2.175,4.228,4.228,0,0,1,1.65,3.375v.3a.75.75,0,0,0,1.5,0v-.3a5.549,5.549,0,0,0-2.325-4.575,7.149,7.149,0,0,0,.75-2.625h3.825a.75.75,0,0,0,0-1.5Z" fill="none" stroke="#000" stroke-linecap="round" stroke-linejoin="round" stroke-dasharray="1 2"/></svg>