<svg xmlns="http://www.w3.org/2000/svg" width="655" height="493" viewBox="0 0 655 493"><title>02 ROOT</title><g id="template"><path d="M319.14,413.591l-.028,0C319.125,413.646,319.133,413.625,319.14,413.591Z" fill="none" stroke="#000" stroke-linecap="round" stroke-linejoin="round"/><path d="M319.14,413.591l-.028,0C319.125,413.646,319.133,413.625,319.14,413.591Z" fill="none" stroke="#000" stroke-linecap="round" stroke-linejoin="round" stroke-dasharray="2 4"/><path d="M292.341,354.573c-2.623,3.2-5.809,6.086-9.894,7.091-5.478,1.347-10.659,3.577-16.081,5.071-2.131.587-4.228,1.228-6.3,1.977a30.7,30.7,0,0,0-5.552,2.3,35.356,35.356,0,0,0-4.252,3.41,58.175,58.175,0,0,1-9.138,6.6c-7.1,3.9-14.136,6.765-22.191,7.583-6.035.614-12.1,1.538-17.753,3.732A30.543,30.543,0,0,0,187.077,402.8a.233.233,0,0,0,.173.129c.02.216.093.135.309.115a1.221,1.221,0,0,0,.577-.278,51.239,51.239,0,0,1,5.826-4.106,31.082,31.082,0,0,1,8.2-2.886,48.87,48.87,0,0,1,8.817-1.26,26.612,26.612,0,0,1,4.669.236.72.72,0,0,1,.449.182,8.66,8.66,0,0,1-2.519,2.419,26.372,26.372,0,0,0-2.961,2.777c-.911.987-1.713,2.077-2.6,3.088a26.729,26.729,0,0,0-2.316,3.19,14,14,0,0,0-1.521,3.563c-.069.229.26.076.5.078,2.08-4.591,6.493-7.736,11.13-9.709s9.622-2.981,14.389-4.617a86.6,86.6,0,0,0,14.88-6.59c4.617-2.637,8.618-6.539,12.336-10.345-.3.309-.363,1.9-.52,2.38a15.629,15.629,0,0,1-1.056,2.445c-.785,1.487-1.748,2.782-2.427,4.32a24.432,24.432,0,0,1-6.059,8.334,31.573,31.573,0,0,1-3.473,2.654q-1.627,1.09-3.345,2.035c-2.595,1.427-5.365,2.621-7.593,4.572-4.061,3.554-8.362,6.928-12.182,10.747-3.9,3.9-7.046,8.965-10.418,13.34a27.373,27.373,0,0,1-2.2,2.768c-3.659,3.831-7.357,8.363-12.428,10.339a14.259,14.259,0,0,0,4.922-.56,20.826,20.826,0,0,0,3.53-1.469,38.823,38.823,0,0,0,9.272-6.616c.908-.875,1.834-1.732,2.793-2.55.571-.487,2.017-2.148,2.79-2.123.012,2.074-.394,4.126-.39,6.2a35.394,35.394,0,0,0,.55,6.167c.149.832.262,1.67.429,2.5a12.878,12.878,0,0,0,.311,1.261,11.789,11.789,0,0,0,.528,1.195.364.364,0,0,0,.126.177.051.051,0,0,0,.031.009c.022,0,.033-.029.038-.051a4.375,4.375,0,0,0-.056-1.052c.011-.464.035-.927.069-1.389.038-.526.033-1.036.069-1.561.083-1.2.193-2.405.352-3.6a41.831,41.831,0,0,1,1.777-8.631,48.053,48.053,0,0,1,3.989-9.355c1.9-3.055,4.778-5.384,7.533-7.634a22.187,22.187,0,0,1,5.9-3.254c3.724-1.475,7.476-2.887,11.121-4.552,3.524-1.609,7.428-3.437,10.356-6.027a5.872,5.872,0,0,0,.611-.676c.178-.215.461-.452.7-.309a1.558,1.558,0,0,1,.288,1,9.233,9.233,0,0,1-.717,3.832c-2.136,5.757-4.445,11.417-8.223,16.328A73.346,73.346,0,0,0,249.089,427a24.4,24.4,0,0,0-2.787,7.888,28.4,28.4,0,0,0-.238,11.931q.028.12.057.24c.03.124.076.266.195.312.456.178.554-.886.55-1.1a18.889,18.889,0,0,1,2.73-10.127c.255-.419.63-.88,1.117-.822.335,6.5,1.1,13.666,5.368,18.862a1.589,1.589,0,0,0,.581.5,1.51,1.51,0,0,0-.275-1.151,20.779,20.779,0,0,1-2.1-11.574c.626-7.445,4.625-12.9,9.753-17.972,2.83-2.8,5.886-5.518,7.636-9.2,1.644-3.458,1.748-7.3,2.131-11.022a35.784,35.784,0,0,1,2.983-11.313,30.975,30.975,0,0,1,7.877-10.512,2.441,2.441,0,0,1,1.9-.809,23.3,23.3,0,0,0-.98,15.344,20.146,20.146,0,0,1-.135,11.906,39.993,39.993,0,0,1-7.805,14.933,29.921,29.921,0,0,0-5.923,10.537,27.4,27.4,0,0,0-1.175,12.1,10.226,10.226,0,0,0,1.046,3.77.436.436,0,0,0,.194.207c.346.136.176-1.036.17-1.229-.015-.532-.022-1.064-.02-1.6.005-1.037.049-2.074.156-3.106a28.485,28.485,0,0,1,2.651-9.076,20.63,20.63,0,0,1,3.72-5.611c.256-.269.632-.552.962-.382.275.141.326.5.348.813a34.321,34.321,0,0,0,1.845,8.976,2.127,2.127,0,0,0,.778,1.2c.181.108.25.062.418.189.347-.155.362-.634.331-1.013-.576-7.119,2.081-14.475,6.075-20.244q2.919-4.217,6.226-8.148a8.018,8.018,0,0,1,1.391-1.278.892.892,0,0,1,.666-.261c.271.047.44.313.57.556A30.831,30.831,0,0,1,302.05,422.7c.32,5.042-.053,10.192-.184,15.261a32.882,32.882,0,0,0,2.672,13.212c2.484,6.036,7.907,12.32,14.444,13.883a1.412,1.412,0,0,0,1.2-.094c.172.25.172.2.1-.094s-.389-.447-.666-.57c-2.633-1.168-4.514-3.917-6.152-6.239a41.131,41.131,0,0,1-4.4-8.118c-2.489-6.073-1.323-11.816-1.044-18.1a1.486,1.486,0,0,1,1.206.617c2.7,2.85,3.991,6.641,5.073,10.336,1.073,3.665,2.095,7.486,5.116,10.1a8.88,8.88,0,0,0,5.57,2.231c.189,0,.433-.045.463-.232s-.165-.3-.326-.373a12.932,12.932,0,0,1-5.641-5.147c-1.392-2.363-1.511-5.177-2.089-7.822-.4-1.835-.9-3.643-1.385-5.458a42.5,42.5,0,0,0-2.326-7.067A14.952,14.952,0,0,0,310,423.937c-.68-.586-1.05-.766-1.211-1.679-.19-1.079-.085-2.279-.184-3.377a50.094,50.094,0,0,0-3.357-13.07c-1.561-4.213-4.021-8.01-5.681-12.18-2.337-5.871-.341-12.575,6.078-14.663,3.076-1,6.917.012,8.492,2.837,1.476,2.648.677,5.963-.473,8.768a38.912,38.912,0,0,0-2.941,13.964c-.159,4.918,2.125,9.252,4.951,13.117,3.388,4.634,6.825,8.836,8.1,14.587.091.411.058-.045.419.173-.261-.158.168-2.436.2-2.811a12.277,12.277,0,0,0-.184-3.582,28.713,28.713,0,0,0-2.575-6.694c-.363-.748-2.988-5-2.48-5.734a4.262,4.262,0,0,1,2.1,1.233,6.8,6.8,0,0,0,2.3,1.183,2.249,2.249,0,0,0-.5-1.179,33.137,33.137,0,0,1-3.73-7.672c-.723-2.122-1.277-5.166.367-7.021,3.855-4.346,8.574,5.859,9.192,8.555a43.492,43.492,0,0,1,.752,9.4,99.185,99.185,0,0,0,.337,9.979,16.906,16.906,0,0,0,3.592,8.983,138.634,138.634,0,0,1,10.615,17.973,34.712,34.712,0,0,1,1.585,4.177.282.282,0,0,0,.083.135c.168.123.317-.18.307-.388a42.85,42.85,0,0,0-3.135-14.235c-1.006-2.443-2.336-4.715-3.214-7.238l-.487-1.4c-.165-.474-.7-1.664-.314-2.122.651-.781,2.221.812,2.681,1.159a19.133,19.133,0,0,0,5.3,2.817c2.091.718,4.139.624,6.322.772.029-.255-.268-.409-.511-.492a22.069,22.069,0,0,1-13.408-13.072c-1-2.71-1.941-5.44-2.7-8.229a59.253,59.253,0,0,1-1.071-8.077c-.767-6.155-1.565-12.421-4.148-18.061-.412-.9-.851-1.784-1.312-2.66a9.954,9.954,0,0,1-.991-2.185c1.007-.241,3.342,1.641,4.188,2.207a31.055,31.055,0,0,1,4.027,3.213,30.673,30.673,0,0,1,6.129,8.067c2.6,4.98,3.6,11.16,5.155,16.562a60.71,60.71,0,0,0,9.945,19.548c2.893,3.858,4.733,7.6,4.941,12.56a10.3,10.3,0,0,1-.254,3.037,5.632,5.632,0,0,1-.533,1.349,11.34,11.34,0,0,0-.771,1.1c1.516-.031,2.418-1.909,2.985-3.045a9.889,9.889,0,0,0,1.279-4.4,21.143,21.143,0,0,0-1.01-6.254,72.039,72.039,0,0,0-3.97-9.363c-1.417-2.917-3.341-5.9-4-9.074a1.445,1.445,0,0,1,1.188.428,32.367,32.367,0,0,0,6.994,4c2.438,1.013,4.994,1.913,7.658,1.5.12-.018.268-.074.27-.2,0-.1-.107-.167-.2-.209a31.108,31.108,0,0,1-6-3.049,44.578,44.578,0,0,1-5.375-4.627,50.243,50.243,0,0,1-7.085-8.657,13.41,13.41,0,0,1-.672-1.293,46.627,46.627,0,0,1-2.756-7.263c-.861-2.967-1.81-5.995-2.921-8.884a47.581,47.581,0,0,0-6.658-12.048,25.375,25.375,0,0,0-6.264-5.7c-1.816-1.193.849-1.264,1.616-1.3a24.268,24.268,0,0,1,3.816.126c5.27.589,9.63,2.935,13.829,6.027,6.337,4.666,11.206,11.142,14.893,18.115a43.85,43.85,0,0,1,1.97,4.373c.571,1.442,1.268,2.8,1.814,4.234a46.1,46.1,0,0,1,2.7,9.48,124.684,124.684,0,0,1,.936,16.482A42.734,42.734,0,0,0,380,447.33a44.071,44.071,0,0,0,3.7,7.382,25.854,25.854,0,0,0,3.834,5.155c1.43,1.4,3.689,3.1,5.809,2.939a.221.221,0,0,0,.119-.034.193.193,0,0,0,.039-.21,1.019,1.019,0,0,0-.172-.3c-.823-1.122-1.807-2.1-2.641-3.219-.862-1.154-1.674-2.347-2.419-3.579a25.779,25.779,0,0,1-3.789-10.322,41.46,41.46,0,0,1-.2-5.736c.029-1.075.189-2.366,1.161-2.828a2.735,2.735,0,0,1,1.013-.2c8.372-.524,15.04,4.118,22.525,7.031,5.871,2.285,12.187,4.4,18.363,3.159a21.173,21.173,0,0,0,2.448-.607,9.062,9.062,0,0,0,1.493-.567,1.672,1.672,0,0,0,.68-.49.135.135,0,0,0,.026-.088c-.011-.067-.1-.085-.166-.087-.724-.021-1.437.026-2.169-.017q-1.176-.068-2.348-.2a43.012,43.012,0,0,1-15.02-4.63,41.887,41.887,0,0,1-6.615-4.3l-.154-.123a35.392,35.392,0,0,0-9.565-5.327,61.235,61.235,0,0,0-6.562-2.154q-1.622-.419-3.273-.686c-.9-.146-.939-.6-.95-1.53-.031-2.459.164-4.917.171-7.366.007-2.593-.025-5.188-.19-7.777a41.336,41.336,0,0,0-3.405-15.074,118.39,118.39,0,0,0-6.04-11.017,38.229,38.229,0,0,0-4.522-6.39c-.7-.744-1.354-1.525-2.052-2.269-.4-.427-.876-.778-1.257-1.226-.741-.869.16-.639.871-.526a43.114,43.114,0,0,1,5.141,1.134,34.179,34.179,0,0,1,9.492,4.281,26.537,26.537,0,0,1,5.986,4.993,81.152,81.152,0,0,1,11.035,18.164c1.633,3.73,2.995,7.6,5.1,11.085a59.054,59.054,0,0,0,4.821,6.529c4.426,5.452,10.583,9.553,16.88,12.57a40.545,40.545,0,0,0,21.614,3.775,24.837,24.837,0,0,0,4.644-.855c.474-.144,1.494-.848.4-.929-.51-.037-1.006-.133-1.512-.183a63.323,63.323,0,0,1-24.306-7.718,4.193,4.193,0,0,1-1.294-.958c-.543-.738.676-.527,1.182-.533,1.881-.023,3.741.311,5.615.411a37.262,37.262,0,0,0,9.081-.18c.235-.046,2.3-.741,1.638-1.036a.419.419,0,0,0-.2-.018,17.16,17.16,0,0,1-4.411-.5,41.7,41.7,0,0,1-4.761-1.11,19.676,19.676,0,0,1-7.327-3.863c-5.009-4.41-9.182-8.175-11.091-14.57-2.309-7.735-3.567-14.833-8.331-21.35-.544-.744-.776-1.2-1.284-1.972a.746.746,0,0,1-.174-.668.732.732,0,0,1,.535-.333,34.935,34.935,0,0,1,15.554-.012c5.085,1.036,9.927,2.656,14.038,5.868A65.062,65.062,0,0,1,449.644,399c2.892,4.014,4.824,9.016,6.853,13.492,2.241,4.944,5.749,8.934,9.071,13.151a41.456,41.456,0,0,0,4.967,5.389,24.84,24.84,0,0,0,2.919,2.248c.337.22,2.678,1.762,2.9,1.439a.308.308,0,0,0-.014-.325.907.907,0,0,0-.245-.237,42.129,42.129,0,0,1-3.984-3.342,49.075,49.075,0,0,1-4.553-5.02,47.245,47.245,0,0,1-4.538-7.521,23.662,23.662,0,0,1-2.188-5.426c-.344-1.48-.638-3.365.1-4.773a.246.246,0,0,1,.1-.119c.09-.042.19.028.265.094,3.381,2.984,5.516,7,8.36,10.471a80.957,80.957,0,0,0,10.761,10.5,53.237,53.237,0,0,0,10.6,7.216c2,.988,5.267,2.8,7.566,2.517a.392.392,0,0,0,.218-.077c.189-.168-.036-.466-.253-.6-2.236-1.363-4.394-2.922-6.543-4.459a45.14,45.14,0,0,1-10.883-10.269c-2.523-3.545-4.824-7.261-7.292-10.876-2.561-3.752-5.036-7.562-7.5-11.378a70.016,70.016,0,0,0-15.784-16.638,86.4,86.4,0,0,0-9.7-6.292,31.991,31.991,0,0,0-7.492-3.444,88.51,88.51,0,0,0-8.679-1.745q-5.773-1.032-11.626-1.516c-10.811-.893-19.894-4.252-29.976-8.256-.9-.356-1.8-.687-2.71-1.007-6.505-2.288-13.393-4.332-18.72-8.795" fill="#f5f5f5" stroke="#000" stroke-linecap="round" stroke-linejoin="round" stroke-dasharray="2 4"/><path d="M319.14,413.591c-.007.034-.015.054-.028,0Z" fill="none" stroke="#000" stroke-linecap="round" stroke-linejoin="round" stroke-dasharray="2 4"/></g><g id="text"><path d="M186.7,353.518a.338.338,0,0,1-.288-.128.542.542,0,0,1-.1-.336c0-.319.129-.479.385-.479h.527v-1.16a.561.561,0,0,1,.093-.364.361.361,0,0,1,.292-.108.41.41,0,0,1,.315.108.531.531,0,0,1,.1.364v1.16h.424a.351.351,0,0,1,.319.136.622.622,0,0,1,.089.344.582.582,0,0,1-.089.336.361.361,0,0,1-.319.128h-.32c.08.145.146.268.2.372s.1.2.147.288.087.171.124.248.078.164.12.26a1.185,1.185,0,0,1,.116.428.288.288,0,0,1-.156.269.417.417,0,0,1-.292.092c-.082-.013-.153-.092-.212-.235-.037-.117-.066-.205-.088-.265s-.043-.114-.063-.168v3.32a.563.563,0,0,1-.093.364.386.386,0,0,1-.308.107.39.39,0,0,1-.3-.107.528.528,0,0,1-.1-.364v-2.832c-.048.139-.089.267-.124.384a1.659,1.659,0,0,1-.14.336.8.8,0,0,1-.3.408.281.281,0,0,1-.328-.04.336.336,0,0,1-.16-.284,1.013,1.013,0,0,1,.144-.443q.24-.5.477-1.061a7.847,7.847,0,0,0,.372-1.076Zm6.664-.224v4.176a2.737,2.737,0,0,1-.044.54.759.759,0,0,1-.152.34.54.54,0,0,1-.28.176,1.521,1.521,0,0,1-.436.041c-.123-.006-.235-.016-.336-.029a2.7,2.7,0,0,1-.312-.06.5.5,0,0,1-.344-.2.518.518,0,0,1-.024-.355.438.438,0,0,1,.185-.3.529.529,0,0,1,.416.009,1.718,1.718,0,0,0,.216.052,1,1,0,0,0,.144.012c.086,0,.128-.082.128-.248v-4.151H191.5a.389.389,0,0,1-.28-.08,10.417,10.417,0,0,1-.128,1.22,8.19,8.19,0,0,1-.28,1.148c.1.24.2.484.292.736s.186.506.276.768a.935.935,0,0,1,.064.42.354.354,0,0,1-.232.26.335.335,0,0,1-.312.02.664.664,0,0,1-.24-.363c-.054-.139-.1-.275-.152-.412s-.1-.266-.152-.389a5.848,5.848,0,0,1-.451.693,8.211,8.211,0,0,1-.6.691.722.722,0,0,1-.4.264.316.316,0,0,1-.288-.136.417.417,0,0,1-.132-.345.988.988,0,0,1,.275-.424,6.436,6.436,0,0,0,.721-.9,5.72,5.72,0,0,0,.472-.872q-.208-.48-.42-.908t-.46-.9a.626.626,0,0,1-.116-.391.423.423,0,0,1,.22-.3.371.371,0,0,1,.288-.056.417.417,0,0,1,.264.256q.136.264.28.548c.1.189.192.386.288.588q.064-.335.1-.68t.067-.752a.224.224,0,0,0-.008-.116c-.011-.019-.04-.028-.088-.028H189.2a.33.33,0,0,1-.292-.131.514.514,0,0,1-.092-.3.5.5,0,0,1,.092-.309A.34.34,0,0,1,189.2,352h1.319a.836.836,0,0,1,.5.115.578.578,0,0,1,.192.4.389.389,0,0,1,.288-.1h1.023V351.4q0-.441.416-.441a.432.432,0,0,1,.313.109.441.441,0,0,1,.112.332v1.008h.1a.341.341,0,0,1,.312.127.61.61,0,0,1,.08.328.556.556,0,0,1-.08.309.345.345,0,0,1-.312.124Zm-1.009,2.528a1.05,1.05,0,0,1,0,.4c-.024.072-.105.124-.244.156a.354.354,0,0,1-.292-.032.616.616,0,0,1-.141-.367c-.021-.139-.044-.272-.067-.4s-.051-.258-.08-.389-.062-.265-.1-.4l-.12-.447a.54.54,0,0,1-.02-.332.322.322,0,0,1,.2-.212.334.334,0,0,1,.315.008.569.569,0,0,1,.173.312c.09.336.165.641.224.912S192.314,355.566,192.352,355.822Z" fill="#fff"/><path d="M194.712,353.518a.37.37,0,0,1-.3-.128.516.516,0,0,1-.1-.336c0-.314.137-.472.408-.472h.544v-1.168a.568.568,0,0,1,.092-.364.374.374,0,0,1,.3-.108.436.436,0,0,1,.332.108.531.531,0,0,1,.1.364v1.168h.512a.393.393,0,0,1,.34.136.547.547,0,0,1,.1.336.525.525,0,0,1-.1.336.407.407,0,0,1-.34.128h-.368c.155.268.285.5.393.7s.205.392.3.584a1.056,1.056,0,0,1,.1.444.321.321,0,0,1-.168.275.47.47,0,0,1-.323.092c-.1-.013-.181-.092-.229-.236a1,1,0,0,1-.044-.111c-.019-.053-.039-.107-.06-.164l-.064-.164c-.021-.053-.037-.094-.048-.119v3.312a.57.57,0,0,1-.092.364.4.4,0,0,1-.316.107.418.418,0,0,1-.308-.107.5.5,0,0,1-.108-.364V355.3c-.048.139-.091.265-.128.38a1.565,1.565,0,0,1-.152.332.719.719,0,0,1-.315.4.308.308,0,0,1-.34-.049.315.315,0,0,1-.156-.275,1.024,1.024,0,0,1,.156-.436q.248-.5.487-1.064a8.794,8.794,0,0,0,.385-1.072Zm2.424-1.352a.99.99,0,0,1,.168-.648.822.822,0,0,1,.632-.191h2.5a.837.837,0,0,1,.632.191.954.954,0,0,1,.176.648v2.312a1.013,1.013,0,0,1-.152.616.423.423,0,0,1,.5.152.491.491,0,0,1,.132.371.719.719,0,0,1-.235.365h.008c-.155.148-.323.3-.5.443a7.613,7.613,0,0,1-.632.452,3.475,3.475,0,0,0,.552.5,2.909,2.909,0,0,0,.607.328.624.624,0,0,1,.36.353.505.505,0,0,1-.04.384.646.646,0,0,1-.128.16.361.361,0,0,1-.176.084.586.586,0,0,1-.256-.02,2.13,2.13,0,0,1-.376-.152,4.383,4.383,0,0,1-1.372-1.212,7.6,7.6,0,0,1-1.061-1.972h-.479v2.008a.158.158,0,0,0,.023.123c.021.025.064.016.128-.027l.36-.208c.075-.042.134-.077.176-.1a.605.605,0,0,1,.408-.127.522.522,0,0,1,.288.2h-.008a.508.508,0,0,1,.132.393.431.431,0,0,1-.228.312q-.312.185-.624.349t-.7.332v-.008a.63.63,0,0,1-.336.071.462.462,0,0,1-.26-.108.559.559,0,0,1-.164-.248.977.977,0,0,1-.057-.34Zm3.24.119c0-.068-.026-.1-.08-.1h-2.208c-.063,0-.1.035-.1.1v.584h2.384Zm0,1.44h-2.384v.736h2.3c.054,0,.08-.038.08-.112Zm-.984,1.6a4.1,4.1,0,0,0,.2.439q.108.208.22.393a4.984,4.984,0,0,0,.524-.4,6.915,6.915,0,0,0,.5-.484,1.368,1.368,0,0,1-.392.049Z" fill="#fff"/><path d="M132.248,363.67a.2.2,0,0,1-.032-.064c-.091-.176-.1-.309-.04-.4h-.792a1.59,1.59,0,0,1-.328-.028.443.443,0,0,1-.359-.34,1.411,1.411,0,0,1-.04-.376v-.832a1.731,1.731,0,0,1,.032-.368.474.474,0,0,1,.111-.229.414.414,0,0,1,.22-.111,1.942,1.942,0,0,1,.364-.027h2.32a2.01,2.01,0,0,1,.368.027.378.378,0,0,1,.332.328,1.938,1.938,0,0,1,.027.363v.849a1.807,1.807,0,0,1-.031.368.476.476,0,0,1-.112.228.433.433,0,0,1-.22.116,1.679,1.679,0,0,1-.364.032h-1.056a.393.393,0,0,0,.04.052.241.241,0,0,1,.039.068,1.546,1.546,0,0,1,.072.164c.021.056.046.115.072.18h1.68c.225,0,.336.1.336.3a.237.237,0,0,1-.088.192.383.383,0,0,1-.248.072h-4.063c-.225,0-.336-.092-.336-.272a.265.265,0,0,1,.088-.212.366.366,0,0,1,.248-.076Zm-.632,3.145a4.183,4.183,0,0,1-.389.551,3.772,3.772,0,0,1-.451.449c-.177.154-.331.156-.465.008a.258.258,0,0,1-.075-.244.7.7,0,0,1,.2-.26,3.621,3.621,0,0,0,.336-.349,4.634,4.634,0,0,0,.336-.46.537.537,0,0,1,.2-.191.208.208,0,0,1,.208,0,.345.345,0,0,1,.188.2A.419.419,0,0,1,131.616,366.814Zm1.352-.729V367.4a.735.735,0,0,1-.1.407.619.619,0,0,1-.288.236,1.041,1.041,0,0,1-.44.063,1.809,1.809,0,0,1-.552-.123.312.312,0,0,1-.184-.141.291.291,0,0,1,.023-.252.28.28,0,0,1,.148-.164.485.485,0,0,1,.3.036.764.764,0,0,0,.408.067.141.141,0,0,0,.1-.147v-1.3h-1.032a1.622,1.622,0,0,1-.355-.032.448.448,0,0,1-.22-.108.405.405,0,0,1-.112-.2,1.163,1.163,0,0,1-.032-.3v-.239a1.174,1.174,0,0,1,.036-.319.407.407,0,0,1,.12-.2.5.5,0,0,1,.22-.1,1.764,1.764,0,0,1,.344-.027h2.416a1.887,1.887,0,0,1,.356.027.5.5,0,0,1,.224.1.372.372,0,0,1,.116.2,1.292,1.292,0,0,1,.032.316v.247a.616.616,0,0,1-.164.5.944.944,0,0,1-.564.128Zm.937-.872a.1.1,0,0,0-.028-.071.117.117,0,0,0-.092-.033h-2.456a.109.109,0,0,0-.08.033.1.1,0,0,0-.032.071v.248c0,.048.037.071.112.071h2.456c.08,0,.12-.023.12-.071Zm-.057-3.64c0-.091-.037-.137-.111-.137h-2.393c-.069,0-.1.046-.1.137v.176h2.607Zm0,.728H131.24v.208c0,.1.034.145.1.145h2.393c.074,0,.111-.049.111-.145Zm.553,5.056a.616.616,0,0,1,.08.3.293.293,0,0,1-.177.22.252.252,0,0,1-.239.021.4.4,0,0,1-.185-.236c-.043-.1-.08-.182-.112-.256s-.065-.146-.1-.213-.07-.131-.108-.2-.079-.137-.128-.217a.425.425,0,0,1-.088-.268.3.3,0,0,1,.152-.187.3.3,0,0,1,.22-.041.355.355,0,0,1,.2.185q.12.2.248.44C134.253,367.07,134.331,367.219,134.4,367.357Zm3.239-2.144a.266.266,0,0,1,.137.212.6.6,0,0,1-.137.309,7.343,7.343,0,0,1-1.071,1.26,6.757,6.757,0,0,1-1.353.955.5.5,0,0,1-.3.089.305.305,0,0,1-.2-.136c-.122-.176-.053-.34.208-.488a6.124,6.124,0,0,0,2.225-2.064C137.3,365.131,137.459,365.086,137.64,365.214Zm-.367-4.288c.154.133.136.3-.057.512a6.677,6.677,0,0,1-.868.793,5.878,5.878,0,0,1-.956.575.583.583,0,0,1-.332.084.249.249,0,0,1-.187-.147.3.3,0,0,1-.024-.272.564.564,0,0,1,.256-.216c.2-.1.37-.2.517-.28a4.03,4.03,0,0,0,.4-.268c.122-.093.239-.192.352-.3s.234-.226.368-.364a.589.589,0,0,1,.292-.2A.282.282,0,0,1,137.272,360.926Zm.159,1.984c.177.111.177.291,0,.535a6.217,6.217,0,0,1-.4.492c-.136.152-.279.3-.428.44a5.209,5.209,0,0,1-.488.407c-.176.131-.368.264-.576.4-.262.166-.442.163-.544-.008a.3.3,0,0,1-.044-.248.57.57,0,0,1,.244-.248c.213-.139.4-.27.563-.393a5.7,5.7,0,0,0,.444-.367,4.462,4.462,0,0,0,.376-.393q.176-.208.376-.463a.573.573,0,0,1,.24-.209A.267.267,0,0,1,137.432,362.91Z" fill="#fff"/><path d="M140.672,367.277a1.536,1.536,0,0,1-.032.345.42.42,0,0,1-.111.212.427.427,0,0,1-.2.1,1.33,1.33,0,0,1-.3.028h-.849a1.278,1.278,0,0,1-.315-.032.389.389,0,0,1-.2-.111.425.425,0,0,1-.1-.213,1.84,1.84,0,0,1-.024-.332V361.91a1.692,1.692,0,0,1,.028-.34.351.351,0,0,1,.3-.3,1.435,1.435,0,0,1,.308-.027h.849a.721.721,0,0,1,.5.14.744.744,0,0,1,.144.532Zm-.568-5.328c0-.1-.039-.144-.119-.144h-.761q-.111,0-.111.144v5.281c0,.105.037.159.111.159h.761a.116.116,0,0,0,.092-.032.2.2,0,0,0,.027-.127Zm4.824-.512a.69.69,0,0,1,.517.152.844.844,0,0,1,.14.561v5.224a.731.731,0,0,1-.208.571.956.956,0,0,1-.656.188,2.9,2.9,0,0,1-.472-.044,5.406,5.406,0,0,1-.6-.141.275.275,0,0,1-.208-.4.242.242,0,0,1,.147-.168.648.648,0,0,1,.332.032,2.961,2.961,0,0,0,.416.088,2.585,2.585,0,0,0,.32.023.464.464,0,0,0,.256-.052.163.163,0,0,0,.072-.14v-5.152a.15.15,0,0,0-.036-.1.1.1,0,0,0-.076-.04h-3.224a.1.1,0,0,0-.08.044.164.164,0,0,0-.032.1v5.729a.278.278,0,0,1-.084.228.323.323,0,0,1-.212.068.339.339,0,0,1-.221-.068.278.278,0,0,1-.084-.228v-5.776a.832.832,0,0,1,.137-.532.642.642,0,0,1,.512-.164h.864a3.665,3.665,0,0,0,.16-.348,2.7,2.7,0,0,0,.1-.324.407.407,0,0,1,.124-.22.333.333,0,0,1,.292-.013.285.285,0,0,1,.2.164.36.36,0,0,1-.036.3l-.1.22-.1.22Zm-.392,4.528a.768.768,0,0,1-.152.532.686.686,0,0,1-.52.164H142.64a.656.656,0,0,1-.516-.164.814.814,0,0,1-.14-.532V363.63a.8.8,0,0,1,.14-.528.667.667,0,0,1,.516-.16h1.225a.7.7,0,0,1,.52.16.754.754,0,0,1,.152.528Zm-.6-2.288c0-.09-.034-.136-.1-.136h-1.16c-.063,0-.1.046-.1.136v2.24c0,.1.032.145.1.145h1.16c.069,0,.1-.049.1-.145Z" fill="#fff"/><path d="M148.9,367.39a.367.367,0,0,1,.128.248.359.359,0,0,1-.1.28.33.33,0,0,1-.264.14.341.341,0,0,1-.248-.116,6.359,6.359,0,0,0-.656-.6q-.376-.3-.735-.54a.306.306,0,0,1-.089-.5.279.279,0,0,1,.232-.141.512.512,0,0,1,.264.092q.233.152.416.284t.353.265c.111.088.224.178.336.271S148.768,367.277,148.9,367.39Z" fill="#fff"/><path d="M157.672,363.422v-1.137h-3.04a.326.326,0,0,1-.248-.084.294.294,0,0,1-.08-.211.322.322,0,0,1,.08-.229.33.33,0,0,1,.248-.084h3.04v-.8a.361.361,0,0,1,.088-.265.3.3,0,0,1,.225-.088q.319,0,.319.353v.8h3.048q.328,0,.328.3t-.328.3H158.3v1.137h2.2a.8.8,0,0,1,.348.068.52.52,0,0,1,.213.176.393.393,0,0,1,.067.236.481.481,0,0,1-.092.256,7.5,7.5,0,0,1-2.376,2.359,9.72,9.72,0,0,0,1.232.58,14.965,14.965,0,0,0,1.472.484.5.5,0,0,1,.324.2.324.324,0,0,1,.012.293.217.217,0,0,1-.188.156,1.318,1.318,0,0,1-.355-.061,15.8,15.8,0,0,1-1.668-.588,9.7,9.7,0,0,1-1.4-.725,14.288,14.288,0,0,1-3.479,1.289.439.439,0,0,1-.328-.009.29.29,0,0,1-.12-.208.286.286,0,0,1,.048-.256.6.6,0,0,1,.313-.137,12.961,12.961,0,0,0,1.647-.443,11.271,11.271,0,0,0,1.4-.588,9.536,9.536,0,0,1-1.18-1.023,12.633,12.633,0,0,1-1.108-1.312.51.51,0,0,1-.1-.137h-.168a.3.3,0,0,1-.24-.084.312.312,0,0,1-.072-.211.343.343,0,0,1,.072-.225.294.294,0,0,1,.24-.088Zm-1.752.607a10.28,10.28,0,0,0,1.04,1.209,8.2,8.2,0,0,0,1.176.959,7,7,0,0,0,1.288-.963,6.061,6.061,0,0,0,.9-1.076c.031-.054.037-.088.016-.1a.278.278,0,0,0-.144-.024Z" fill="#fff"/><path d="M162.72,365.814a.71.71,0,0,1-.336.071.218.218,0,0,1-.176-.136.347.347,0,0,1-.02-.284c.034-.083.145-.159.331-.228l.4-.152c.125-.048.244-.1.356-.152v-2.016h-.721q-.328,0-.328-.3c0-.2.109-.295.328-.295h.721v-1.24q0-.352.3-.352a.277.277,0,0,1,.22.1.374.374,0,0,1,.084.256v1.24h.479a.357.357,0,0,1,.244.08.27.27,0,0,1,.093.215q0,.3-.337.3h-.479v1.7c.074-.047.152-.1.231-.151s.166-.112.257-.177a.424.424,0,0,1,.3-.1.347.347,0,0,1,.2.137c.074.1.095.177.06.244a.651.651,0,0,1-.212.211c-.133.1-.27.188-.408.272s-.282.168-.432.248v2.136a.677.677,0,0,1-.32.668,1.2,1.2,0,0,1-.92-.044.365.365,0,0,1-.216-.14.308.308,0,0,1-.008-.252.255.255,0,0,1,.151-.18.325.325,0,0,1,.257.02.852.852,0,0,0,.363.1c.062-.011.093-.066.093-.168v-1.84c-.091.043-.184.082-.276.116S162.811,365.776,162.72,365.814Zm4.528.575c-.011-.048-.022-.1-.036-.144s-.028-.1-.044-.152h-2.032c-.213,0-.319-.09-.319-.271a.221.221,0,0,1,.088-.2.4.4,0,0,1,.231-.06h1.832q-.04-.081-.076-.164c-.023-.057-.049-.113-.075-.172q-.328.015-.685.023t-.8.023a.77.77,0,0,1-.34-.043.212.212,0,0,1-.108-.213.253.253,0,0,1,.093-.224.726.726,0,0,1,.371-.063c.272,0,.555,0,.849-.008s.584-.02.872-.041.569-.049.844-.084.526-.076.756-.123a.577.577,0,0,1,.344-.009.234.234,0,0,1,.16.2.214.214,0,0,1-.06.225.565.565,0,0,1-.269.111c-.271.043-.519.078-.739.107s-.439.053-.652.068c.026.064.053.129.08.192s.053.128.08.192h1.56a.46.46,0,0,1,.248.06.213.213,0,0,1,.1.2c0,.182-.114.271-.344.271H167.8c.017.054.029.1.04.152l.032.144h1.576a.4.4,0,0,1,.252.072.257.257,0,0,1,.092.216.219.219,0,0,1-.092.188.413.413,0,0,1-.252.068H167.9a2.519,2.519,0,0,1-.053.284,2.3,2.3,0,0,1-.084.276,1.213,1.213,0,0,1-.443.488,1.3,1.3,0,0,1-.7.184,3.441,3.441,0,0,1-.416-.023,2.385,2.385,0,0,1-.48-.129c-.229-.08-.312-.211-.248-.392a.3.3,0,0,1,.172-.188.359.359,0,0,1,.269.02,2.089,2.089,0,0,0,.376.113,1.887,1.887,0,0,0,.3.023.637.637,0,0,0,.576-.232,1.1,1.1,0,0,0,.136-.424h-2.52a.371.371,0,0,1-.256-.072.242.242,0,0,1-.08-.191c0-.187.111-.28.336-.28Zm-1.576-4.584c-.043-.059-.088-.117-.136-.176s-.1-.117-.152-.177a.314.314,0,0,1-.092-.2.271.271,0,0,1,.092-.2.315.315,0,0,1,.216-.093.345.345,0,0,1,.257.141,3.158,3.158,0,0,1,.247.336q.113.176.232.376h.528v-.9a.324.324,0,0,1,.084-.252.3.3,0,0,1,.212-.076.294.294,0,0,1,.2.084.315.315,0,0,1,.092.244v.9h.647a5.6,5.6,0,0,0,.272-.608.458.458,0,0,1,.16-.244.3.3,0,0,1,.264,0,.278.278,0,0,1,.188.176.426.426,0,0,1-.028.28c-.026.064-.056.129-.088.2s-.066.133-.1.2h.137a.676.676,0,0,1,.768.752,1.853,1.853,0,0,1-.02.272,1.924,1.924,0,0,1-.068.279.47.47,0,0,1-.2.3.327.327,0,0,1-.292-.032.211.211,0,0,1-.116-.172,1.048,1.048,0,0,1,.053-.349.661.661,0,0,0,.031-.392.193.193,0,0,0-.191-.1h-3.44a.11.11,0,0,0-.067.021c-.02.013-.028.041-.028.084v.791a.3.3,0,0,1-.084.221.279.279,0,0,1-.2.084.265.265,0,0,1-.3-.3v-.832a.658.658,0,0,1,.152-.476.666.666,0,0,1,.5-.156Zm3.128,1.912a.693.693,0,0,1-.14.488.76.76,0,0,1-.54.144h-1.984a.7.7,0,0,1-.5-.148.65.65,0,0,1-.151-.483v-.336a.677.677,0,0,1,.151-.5.718.718,0,0,1,.5-.144h1.984a.759.759,0,0,1,.536.144.7.7,0,0,1,.144.5Zm-.584-.376c0-.037-.029-.057-.088-.057H166.12c-.048,0-.072.021-.072.064v.344a.085.085,0,0,0,.1.1h1.984a.078.078,0,0,0,.088-.089Z" fill="#fff"/><path d="M172.216,360.613a.254.254,0,0,1,.212.16.761.761,0,0,1-.036.385,12.832,12.832,0,0,1-.487,1.447v5.32q0,.328-.3.328t-.3-.328v-4.08c-.069.123-.14.24-.212.352l-.22.345a.835.835,0,0,1-.28.3.261.261,0,0,1-.264-.04.246.246,0,0,1-.128-.231.911.911,0,0,1,.191-.408,10.2,10.2,0,0,0,.864-1.557,9.979,9.979,0,0,0,.544-1.588.862.862,0,0,1,.156-.336A.248.248,0,0,1,172.216,360.613Zm.561,3.009a.441.441,0,0,1-.24.22.321.321,0,0,1-.256-.061.262.262,0,0,1-.112-.2.427.427,0,0,1,.1-.3,5.851,5.851,0,0,0,.607-1.14,7.411,7.411,0,0,0,.344-1.155.491.491,0,0,1,.137-.289.293.293,0,0,1,.231-.063.272.272,0,0,1,.225.128.534.534,0,0,1,0,.368c-.021.075-.04.147-.057.22s-.034.143-.056.212h3.12a.781.781,0,0,1,.584.185.766.766,0,0,1,.151.592,3.284,3.284,0,0,1-.075.472,2.819,2.819,0,0,1-.188.544.5.5,0,0,1-.228.272.263.263,0,0,1-.244-.024.365.365,0,0,1-.176-.191.508.508,0,0,1,.063-.32c.054-.117.105-.245.156-.385a1.3,1.3,0,0,0,.084-.327q.016-.152-.032-.185a.435.435,0,0,0-.208-.031h-1.32v5.088a.985.985,0,0,1-.216.736.776.776,0,0,1-.6.176,2.993,2.993,0,0,1-.388-.045,3.226,3.226,0,0,1-.549-.164.477.477,0,0,1-.26-.184.28.28,0,0,1,0-.279.25.25,0,0,1,.192-.172.571.571,0,0,1,.312.06c.176.063.314.108.416.136a1.03,1.03,0,0,0,.264.04.188.188,0,0,0,.177-.08.485.485,0,0,0,.048-.239v-5.072H173.5a7.583,7.583,0,0,1-.312.711Q173.015,363.222,172.776,363.622Zm1.208.384a12.5,12.5,0,0,1-.48,1.6,10.6,10.6,0,0,1-.656,1.44.493.493,0,0,1-.212.228.3.3,0,0,1-.244-.02.3.3,0,0,1-.184-.2.425.425,0,0,1,.064-.284c.106-.2.214-.418.323-.664s.212-.5.309-.752.184-.512.264-.768.144-.494.192-.713a.5.5,0,0,1,.14-.26.251.251,0,0,1,.244-.076.316.316,0,0,1,.236.152.5.5,0,0,1,0,.328Zm2.615-.137q.321.744.572,1.445t.437,1.4a.68.68,0,0,1,.023.332.287.287,0,0,1-.191.18c-.225.08-.374-.021-.448-.3a11.653,11.653,0,0,0-.416-1.4q-.256-.7-.544-1.348a.494.494,0,0,1-.048-.336.31.31,0,0,1,.436-.187A.438.438,0,0,1,176.6,363.869Z" fill="#fff"/><path d="M181.376,367.086a.816.816,0,0,1-.14.531.658.658,0,0,1-.517.164h-1.647a.628.628,0,0,1-.508-.164.843.843,0,0,1-.133-.531v-4.84a.826.826,0,0,1,.133-.528.639.639,0,0,1,.508-.16h.439c.048-.128.09-.247.124-.356s.065-.209.092-.3a.418.418,0,0,1,.156-.252.309.309,0,0,1,.292-.028c.117.042.185.1.2.18a.777.777,0,0,1-.04.341c-.026.074-.051.146-.072.215s-.045.137-.071.2h.527a.669.669,0,0,1,.517.16.8.8,0,0,1,.14.528Zm-.64-4.752c0-.091-.035-.137-.1-.137H179.16c-.059,0-.088.046-.088.137v1.88h1.664Zm0,2.52h-1.664V367a.2.2,0,0,0,.023.1.073.073,0,0,0,.064.041h1.472c.069,0,.1-.049.1-.145Zm1.359-1.312a.536.536,0,0,1-.268.252.315.315,0,0,1-.276-.044.236.236,0,0,1-.107-.221.656.656,0,0,1,.124-.332,4.374,4.374,0,0,0,.508-1.039,8.019,8.019,0,0,0,.308-1.225.364.364,0,0,1,.136-.26.338.338,0,0,1,.232-.052.292.292,0,0,1,.216.116.351.351,0,0,1,.04.275c-.021.1-.04.2-.056.288a2.5,2.5,0,0,1-.064.272h1.624a1.6,1.6,0,0,1,.433.048.521.521,0,0,1,.271.18.826.826,0,0,1,.145.376,4.756,4.756,0,0,1,.048.628q.007.432,0,.952c-.008.347-.02.684-.032,1.012s-.029.63-.048.9-.036.489-.052.645a5.439,5.439,0,0,1-.173.912,1.611,1.611,0,0,1-.279.567.853.853,0,0,1-.408.28,1.3,1.3,0,0,1-.548.031c-.139-.016-.263-.033-.372-.052s-.214-.038-.312-.06-.2-.047-.292-.076-.2-.065-.3-.107a.592.592,0,0,1-.328-.221.333.333,0,0,1,.017-.283.233.233,0,0,1,.2-.164.732.732,0,0,1,.313.051q.248.1.523.177a4.648,4.648,0,0,0,.517.12.648.648,0,0,0,.332-.021.5.5,0,0,0,.244-.228,1.751,1.751,0,0,0,.176-.5,6.347,6.347,0,0,0,.112-.836c.021-.229.038-.457.052-.68s.023-.463.032-.717.013-.53.016-.832,0-.648,0-1.044a.607.607,0,0,0-.084-.368.37.37,0,0,0-.3-.1h-1.681a7.576,7.576,0,0,1-.279.72A5.61,5.61,0,0,1,182.1,363.542Zm2.008,1.776a.751.751,0,0,1,.1.363.288.288,0,0,1-.172.221c-.2.1-.357,0-.48-.3a8.923,8.923,0,0,0-.443-.92q-.261-.472-.549-.928a.477.477,0,0,1-.084-.271.273.273,0,0,1,.133-.225.287.287,0,0,1,.231-.056.4.4,0,0,1,.232.208A20.5,20.5,0,0,1,184.1,365.318Z" fill="#fff"/><path d="M188.008,362.143h.664a.3.3,0,1,1,0,.592h-.664v.392q.256.328.48.628c.149.2.3.4.439.611.16.23.155.406-.016.529s-.317.055-.456-.168c-.075-.123-.149-.24-.224-.353l-.225-.336v3.9c0,.209-.1.313-.3.313a.326.326,0,0,1-.22-.072.3.3,0,0,1-.084-.24v-3.392q-.136.352-.284.672c-.1.214-.215.442-.348.688a.464.464,0,0,1-.217.224.279.279,0,0,1-.231-.048c-.165-.1-.182-.268-.048-.5q.167-.3.315-.6c.1-.2.192-.42.28-.648s.175-.475.26-.736.171-.549.256-.863h-.728a.3.3,0,1,1,0-.592h.744V360.9c0-.219.1-.328.3-.328s.3.109.3.328Zm1.72,5.2q0,.129.129.088l.275-.1a2.221,2.221,0,0,0,.232-.1c.071-.037.145-.075.22-.116s.157-.086.248-.14a.663.663,0,0,1,.308-.112.235.235,0,0,1,.2.12.315.315,0,0,1,.072.261.452.452,0,0,1-.216.219l-.312.177c-.1.054-.191.1-.288.147s-.2.09-.3.133-.224.088-.353.136a.723.723,0,0,1-.6.024c-.136-.08-.2-.285-.2-.617v-5.807a.818.818,0,0,1,.136-.529.672.672,0,0,1,.521-.159h2.775a.685.685,0,0,1,.524.159.8.8,0,0,1,.14.529v2.407a.814.814,0,0,1-.14.532.669.669,0,0,1-.524.164h-1.487a5.527,5.527,0,0,0,.632,1.24,5.811,5.811,0,0,0,.6-.437c.206-.168.42-.358.645-.571q.3-.272.512-.017c.117.139.08.3-.112.487a7.064,7.064,0,0,1-.619.541q-.309.236-.668.459a5.131,5.131,0,0,0,1.472,1.129.566.566,0,0,1,.28.236.276.276,0,0,1-.032.268.27.27,0,0,1-.22.148.925.925,0,0,1-.389-.125,4.989,4.989,0,0,1-1.647-1.319,6.344,6.344,0,0,1-1.088-2.04h-.713Zm2.881-5.656c0-.09-.04-.136-.12-.136H189.8c-.032,0-.052.008-.06.024a.308.308,0,0,0-.013.111v.84h2.881Zm0,1.448h-2.881v1.017h2.761a.127.127,0,0,0,.092-.028.171.171,0,0,0,.028-.116Z" fill="#fff"/><path d="M201.824,366.479c-.086.207-.265.242-.536.1a4.772,4.772,0,0,1-.472-.252q-.233-.141-.48-.32c-.165-.12-.339-.258-.52-.412s-.376-.333-.584-.535h-2.425a6.668,6.668,0,0,1-1,.9,7.129,7.129,0,0,1-1.084.64.606.606,0,0,1-.363.08.288.288,0,0,1-.181-.176.246.246,0,0,1,.009-.252.768.768,0,0,1,.279-.2,5.718,5.718,0,0,0,.776-.424,6.194,6.194,0,0,0,.728-.56h-1.527a.294.294,0,0,1-.229-.076.309.309,0,0,1-.067-.213.341.341,0,0,1,.067-.22.279.279,0,0,1,.229-.084h1.264v-2.464h-.984a.272.272,0,0,1-.228-.08.35.35,0,0,1-.06-.216.342.342,0,0,1,.06-.224.285.285,0,0,1,.228-.072h.984v-.553a.267.267,0,0,1,.088-.235.39.39,0,0,1,.225-.06.327.327,0,0,1,.22.071.3.3,0,0,1,.084.24v.536h3.352v-.561a.27.27,0,0,1,.088-.236.4.4,0,0,1,.225-.06.326.326,0,0,1,.22.072.3.3,0,0,1,.084.239v.545h.888c.123,0,.2.023.236.072a.378.378,0,0,1,.052.224.386.386,0,0,1-.052.216c-.035.053-.113.08-.236.08H200.3v2.464h1.256a.265.265,0,0,1,.229.084.37.37,0,0,1,.06.22.335.335,0,0,1-.06.213.279.279,0,0,1-.229.076h-1.5a7.561,7.561,0,0,0,.765.567,5.877,5.877,0,0,0,.668.368.723.723,0,0,1,.328.232A.272.272,0,0,1,201.824,366.479Zm-.576,1.168a.279.279,0,0,1-.32.312H195.08c-.219,0-.328-.1-.328-.312s.109-.3.328-.3H197.7v-.784h-1.641a.35.35,0,0,1-.252-.071.334.334,0,0,1-.067-.232c0-.208.111-.312.336-.312H197.7v-.488a.32.32,0,0,1,.64,0v.488h1.7a.279.279,0,0,1,.319.313c0,.2-.106.3-.319.3h-1.7v.784h2.592Q201.249,367.342,201.248,367.646Zm-4.92-5.257h3.352v-.384h-3.352Zm0,1.009h3.352v-.433h-3.352Zm0,1.071h3.352v-.5h-3.352Z" fill="#fff"/><path d="M94.492,371.777a.285.285,0,0,1-.186-.054.228.228,0,0,1-.066-.187c0-.156.084-.233.252-.233h5.016a.245.245,0,0,1,.186.06.252.252,0,0,1,.054.174.212.212,0,0,1-.24.24h-2.13v2.37a.708.708,0,0,1-.846.834,2.273,2.273,0,0,1-.456-.058,1.769,1.769,0,0,1-.438-.158.235.235,0,0,1-.126-.318.2.2,0,0,1,.135-.138.358.358,0,0,1,.207.03,1.851,1.851,0,0,0,.756.168.27.27,0,0,0,.225-.088.544.544,0,0,0,.057-.3v-2.346Zm1.242.84a8.784,8.784,0,0,1-.417.918,7.663,7.663,0,0,1-.5.822.438.438,0,0,1-.225.2.266.266,0,0,1-.219-.06.175.175,0,0,1-.072-.156.585.585,0,0,1,.138-.271,5.761,5.761,0,0,0,.468-.737,6.811,6.811,0,0,0,.384-.858.608.608,0,0,1,.141-.24.223.223,0,0,1,.213-.03.178.178,0,0,1,.138.147A.5.5,0,0,1,95.734,372.617Zm-.618-2.322a.346.346,0,0,1-.2-.051.2.2,0,0,1-.078-.183c0-.151.092-.228.276-.228h3.768c.176,0,.264.076.264.228a.211.211,0,0,1-.072.177.3.3,0,0,1-.192.057Zm4.416,4.254a.22.22,0,0,1-.234,0,.483.483,0,0,1-.18-.258q-.1-.24-.183-.443t-.177-.387c-.06-.123-.122-.244-.186-.366s-.134-.251-.21-.388a.557.557,0,0,1-.1-.267.2.2,0,0,1,.123-.159.215.215,0,0,1,.21-.035.509.509,0,0,1,.168.2q.114.217.213.408c.066.129.131.256.195.385s.128.26.192.4.134.291.21.459a.586.586,0,0,1,.072.3A.2.2,0,0,1,99.532,374.549Z" fill="#fff"/><path d="M101.242,369.359a.214.214,0,0,1,.15.1.541.541,0,0,1,0,.307c-.04.208-.083.4-.129.591s-.1.369-.153.55v3.947a.214.214,0,0,1-.069.18.237.237,0,0,1-.153.055.234.234,0,0,1-.156-.055.218.218,0,0,1-.066-.18v-2.809c-.016.033-.031.064-.045.1s-.029.063-.045.1a.483.483,0,0,1-.183.23.205.205,0,0,1-.213-.039.175.175,0,0,1-.075-.168.967.967,0,0,1,.111-.312q.144-.3.261-.576t.207-.551c.06-.185.112-.371.156-.562s.082-.392.114-.6a.548.548,0,0,1,.09-.262A.194.194,0,0,1,101.242,369.359Zm.5.721a.224.224,0,0,1-.168-.052.245.245,0,0,1-.048-.171q0-.229.216-.229h2.082a.257.257,0,0,1,.189.055.249.249,0,0,1,.051.174c0,.092-.022.152-.066.18a.317.317,0,0,1-.174.043H102.52c-.008.119-.017.234-.027.344s-.021.218-.033.322h.978a.5.5,0,0,1,.357.123.533.533,0,0,1,.135.387,4.331,4.331,0,0,1-.462,2.105,3.956,3.956,0,0,1-1.488,1.536.431.431,0,0,1-.306.093.227.227,0,0,1-.162-.123.189.189,0,0,1,.006-.191.757.757,0,0,1,.21-.18,4.208,4.208,0,0,0,.693-.517,3.088,3.088,0,0,0,.507-.606c-.064-.1-.126-.2-.186-.291s-.123-.178-.189-.264-.137-.171-.213-.255-.16-.172-.252-.265a2.736,2.736,0,0,1-.228.406,3.2,3.2,0,0,1-.282.351.46.46,0,0,1-.234.155.185.185,0,0,1-.2-.1.228.228,0,0,1-.024-.158.6.6,0,0,1,.138-.213,4.18,4.18,0,0,0,.339-.472,2.49,2.49,0,0,0,.237-.524,4.386,4.386,0,0,0,.156-.69q.059-.4.1-.972Zm1.728,1.248c0-.057-.01-.093-.03-.108a.216.216,0,0,0-.126-.024H102.4q-.066.36-.144.648a6.337,6.337,0,0,1,.513.549,5.823,5.823,0,0,1,.4.543,3.55,3.55,0,0,0,.231-.759A4.62,4.62,0,0,0,103.474,371.328Zm2.13,3.06a.651.651,0,0,1-.1.336.575.575,0,0,1-.24.233.875.875,0,0,1-.36.066,1.906,1.906,0,0,1-.381-.042,4.3,4.3,0,0,1-.453-.12c-.212-.068-.288-.184-.228-.348a.2.2,0,0,1,.129-.129.424.424,0,0,1,.243.021c.168.051.3.092.4.119a1.014,1.014,0,0,0,.276.042.236.236,0,0,0,.2-.071.333.333,0,0,0,.051-.192v-4.752a.2.2,0,0,1,.06-.168.25.25,0,0,1,.162-.048.256.256,0,0,1,.168.054.2.2,0,0,1,.066.162Zm-.87-.6a.228.228,0,0,1-.051.172.275.275,0,0,1-.177.045.262.262,0,0,1-.171-.045.226.226,0,0,1-.051-.172v-3.72c0-.088.017-.145.051-.171a.292.292,0,0,1,.171-.039.306.306,0,0,1,.177.039.214.214,0,0,1,.051.171Z" fill="#fff"/><path d="M107.482,370.9a.44.44,0,0,1,.438.438.412.412,0,0,1-.129.306.442.442,0,0,1-.618,0,.412.412,0,0,1-.129-.306.44.44,0,0,1,.438-.438Zm0,2.244a.44.44,0,0,1,.438.438.414.414,0,0,1-.129.306.442.442,0,0,1-.618,0,.414.414,0,0,1-.129-.306.44.44,0,0,1,.438-.438Z" fill="#fff"/><path d="M112.324,372.174a.231.231,0,0,1-.18-.055.245.245,0,0,1-.048-.168.266.266,0,0,1,.045-.162.223.223,0,0,1,.183-.06h.522q.023-.409.045-.795t.039-.711a.5.5,0,0,1,.6-.57h3.1a.939.939,0,0,1,.249.027.322.322,0,0,1,.156.09.354.354,0,0,1,.078.174,1.283,1.283,0,0,1,.015.273c-.008.264-.014.522-.018.774s-.01.5-.018.737h.582a.213.213,0,0,1,.18.06.283.283,0,0,1,.042.162.237.237,0,0,1-.051.168.234.234,0,0,1-.177.055h-.594c-.012.371-.026.711-.042,1.017s-.034.571-.054.795h.582a.259.259,0,0,1,.183.048.246.246,0,0,1,.045.168.236.236,0,0,1-.054.174.242.242,0,0,1-.18.055h-.63a.961.961,0,0,1-.1.291.566.566,0,0,1-.2.2.956.956,0,0,1-.327.11,2.963,2.963,0,0,1-.486.033l-.114,0-.12,0a.335.335,0,0,1-.2-.06.227.227,0,0,1-.045-.156.273.273,0,0,1,.063-.187.263.263,0,0,1,.225-.06c.044,0,.084.006.12.006h.1a1.388,1.388,0,0,0,.393-.042.4.4,0,0,0,.2-.126h-3.258a.52.52,0,0,1-.393-.12.5.5,0,0,1-.093-.384c.02-.217.041-.477.063-.783s.043-.629.063-.969Zm.822,1.638a.152.152,0,0,0,.03.138.221.221,0,0,0,.144.036h3.2q.024-.306.048-.762c.016-.3.032-.654.048-1.05h-3.342q-.03.51-.066.927C113.188,373.379,113.166,373.615,113.146,373.812Zm.24-3.558q-.018.378-.036.75t-.042.726h3.324q.012-.312.021-.651t.021-.705q-.006-.275-.18-.275h-2.916C113.454,370.1,113.39,370.149,113.386,370.254Zm2.568,2.789a.423.423,0,0,1,.216.15.19.19,0,0,1,0,.186.45.45,0,0,1-.06.1.14.14,0,0,1-.072.048.2.2,0,0,1-.1,0c-.042-.01-.1-.026-.171-.051a8.239,8.239,0,0,0-.837-.282,8.543,8.543,0,0,0-.969-.21.427.427,0,0,1-.243-.09.3.3,0,0,1,.057-.369.411.411,0,0,1,.258-.015q.546.1,1.047.24A7.7,7.7,0,0,1,115.954,373.043Zm.306-1.7q-.089.192-.4.1c-.12-.043-.251-.089-.393-.135l-.438-.139q-.225-.067-.45-.129c-.15-.039-.3-.075-.435-.107a.555.555,0,0,1-.285-.123.183.183,0,0,1-.039-.184.217.217,0,0,1,.108-.17.533.533,0,0,1,.288.015c.144.032.3.069.471.114s.338.091.5.141l.471.146c.148.049.272.091.372.127C116.24,371.088,116.316,371.2,116.26,371.346Z" fill="#fff"/><path d="M123.208,369.918a.21.21,0,0,1,.24.233.217.217,0,0,1-.055.165.265.265,0,0,1-.186.051h-.714a.145.145,0,0,1,.054.111.452.452,0,0,1-.042.165c-.056.132-.12.265-.191.4s-.146.259-.223.375h1.53c.16,0,.24.076.24.228s-.08.228-.24.228h-2.37v.654h2.076q.24,0,.24.223c0,.152-.08.228-.24.228h-2.076v1.351a.778.778,0,0,1-.153.545.7.7,0,0,1-.524.162,1.8,1.8,0,0,1-.321-.035,3.673,3.673,0,0,1-.4-.1q-.282-.083-.174-.342a.214.214,0,0,1,.129-.138.416.416,0,0,1,.231.023,1.731,1.731,0,0,0,.516.12c.16,0,.24-.074.24-.222v-1.362h-2.154c-.16,0-.24-.075-.24-.228a.217.217,0,0,1,.06-.172.277.277,0,0,1,.18-.051H120.8v-.654h-2.418c-.16,0-.24-.075-.24-.228a.22.22,0,0,1,.06-.177.269.269,0,0,1,.18-.051h1.506a.324.324,0,0,1-.033-.055.542.542,0,0,1-.027-.06,5.668,5.668,0,0,0-.4-.647c-.084-.117-.088-.213-.012-.289h-.672c-.16,0-.24-.076-.24-.228a.21.21,0,0,1,.06-.177.3.3,0,0,1,.18-.045h2.034c-.012-.041-.025-.078-.039-.114s-.029-.07-.045-.1a.323.323,0,0,1-.054-.24.22.22,0,0,1,.132-.119.264.264,0,0,1,.189-.021c.05.018.1.075.141.172a2.011,2.011,0,0,1,.081.2c.026.072.049.148.069.229Zm-3.348,3.552c-.156.228-.311.435-.465.618a5.209,5.209,0,0,1-.519.533.574.574,0,0,1-.249.16.213.213,0,0,1-.189-.1.18.18,0,0,1-.045-.184.529.529,0,0,1,.159-.194,4.215,4.215,0,0,0,.507-.511,3.859,3.859,0,0,0,.4-.563.352.352,0,0,1,.186-.181.214.214,0,0,1,.2.043.2.2,0,0,1,.1.164A.387.387,0,0,1,119.86,373.47Zm.348-2.358c.068.141.082.242.042.307h1.344c.008-.021.019-.043.03-.069a.729.729,0,0,1,.048-.087c.08-.128.157-.262.231-.4s.137-.264.188-.375a.351.351,0,0,1,.066-.121h-2.406a.6.6,0,0,1,.054.066c.08.12.153.234.219.345S120.152,371,120.208,371.111Zm3.342,3.522q-.186.2-.384-.048c-.06-.072-.137-.157-.231-.256s-.191-.2-.294-.3-.2-.2-.306-.3-.193-.181-.273-.252a.344.344,0,0,1-.119-.171.219.219,0,0,1,.065-.184.229.229,0,0,1,.159-.093.262.262,0,0,1,.2.081l.258.246c.1.1.2.2.306.3s.2.205.3.3.173.187.237.259a.66.66,0,0,1,.15.237A.178.178,0,0,1,123.55,374.634Z" fill="#fff"/><path d="M126.172,374.441a.276.276,0,0,1,.1.186.267.267,0,0,1-.071.211.247.247,0,0,1-.2.1.255.255,0,0,1-.187-.087,4.778,4.778,0,0,0-.491-.447c-.188-.149-.372-.285-.553-.4a.231.231,0,0,1-.065-.373.209.209,0,0,1,.174-.1.4.4,0,0,1,.2.069c.116.076.22.146.312.213s.181.132.265.2.168.135.252.205S126.076,374.357,126.172,374.441Z" fill="#fff"/><path d="M133.36,371.172c-.084.068-.177.136-.276.2a3.76,3.76,0,0,1,.369.444,2.1,2.1,0,0,1,.225.414,5.051,5.051,0,0,0,1.038-.69.56.56,0,0,1,.226-.129.241.241,0,0,1,.171.039.212.212,0,0,1,.1.192.354.354,0,0,1-.156.222c-.116.092-.24.185-.372.276s-.279.187-.443.282a5.8,5.8,0,0,0,.3.552,4,4,0,0,0,.333.465,3.922,3.922,0,0,0,.378.4,4.607,4.607,0,0,0,.435.352.425.425,0,0,1,.181.217.258.258,0,0,1-.061.215c-.088.116-.235.094-.443-.065a5.732,5.732,0,0,1-.808-.828,6.427,6.427,0,0,1-.687-1.092.058.058,0,0,1-.027.015.06.06,0,0,0-.027.016l.013.047.012.049c.012.088.021.189.03.3a3.427,3.427,0,0,1,.006.348c0,.119-.012.231-.024.34a1.418,1.418,0,0,1-.054.275,1.619,1.619,0,0,1-.432.76.966.966,0,0,1-.66.242,1.989,1.989,0,0,1-.822-.18.37.37,0,0,1-.192-.141.217.217,0,0,1,.013-.184.205.205,0,0,1,.117-.135.3.3,0,0,1,.225.027,2.467,2.467,0,0,0,.348.125,1.147,1.147,0,0,0,.3.043.519.519,0,0,0,.413-.2,1.328,1.328,0,0,0,.252-.537,2.262,2.262,0,0,0,.072-.643c-.231.181-.456.342-.672.483s-.436.272-.66.394-.457.231-.7.336-.5.205-.788.306c-.244.08-.381.038-.408-.126a.2.2,0,0,1,.036-.2.586.586,0,0,1,.252-.123c.212-.064.428-.141.647-.23a7.21,7.21,0,0,0,.682-.324q.35-.189.731-.441t.8-.582c-.02-.063-.043-.127-.068-.191a1.66,1.66,0,0,0-.094-.192c-.172.132-.354.261-.549.384s-.395.243-.6.357-.419.221-.633.318-.426.185-.634.261a.613.613,0,0,1-.278.051c-.062-.01-.109-.06-.142-.147q-.072-.221.259-.336.287-.1.591-.24c.2-.092.4-.192.605-.3s.4-.227.591-.351.376-.252.553-.384c-.072-.1-.154-.2-.246-.3a10.166,10.166,0,0,1-.909.52,9.3,9.3,0,0,1-1,.43.582.582,0,0,1-.268.051c-.062-.01-.108-.06-.141-.147a.222.222,0,0,1,.012-.188.427.427,0,0,1,.246-.153,6.308,6.308,0,0,0,.963-.4,10.976,10.976,0,0,0,1-.57H131.23a.367.367,0,0,1-.214-.051.2.2,0,0,1-.068-.172.215.215,0,0,1,.068-.18.344.344,0,0,1,.214-.055h3.348a.392.392,0,0,1,.213.049.19.19,0,0,1,.075.174c0,.156-.1.234-.288.234Zm-.7-1.332a.416.416,0,0,0-.033-.081c-.014-.026-.027-.054-.039-.081a.385.385,0,0,1-.057-.24.2.2,0,0,1,.123-.126.273.273,0,0,1,.194-.021c.051.018.1.078.142.183a1.358,1.358,0,0,1,.063.153c.022.062.047.133.075.213H135q.624,0,.624.558a1.15,1.15,0,0,1-.042.3,1.733,1.733,0,0,1-.108.3.584.584,0,0,1-.174.23.265.265,0,0,1-.312-.18.487.487,0,0,1,.078-.262.768.768,0,0,0,.107-.33c0-.1-.086-.156-.258-.156H130.9c-.08,0-.12.055-.12.162v.535a.257.257,0,0,1-.063.186.225.225,0,0,1-.171.066.229.229,0,0,1-.183-.061.27.27,0,0,1-.052-.18v-.534a.653.653,0,0,1,.156-.462.531.531,0,0,1,.408-.168Z" fill="#fff"/><path d="M140.44,370.229a.446.446,0,0,1,.183-.123.192.192,0,0,1,.177.069.236.236,0,0,1,.087.168.363.363,0,0,1-.135.229q-.69.63-1.428,1.193t-1.506,1.057l.639-.063c.222-.022.445-.043.669-.063s.448-.041.672-.062l.648-.063a5.329,5.329,0,0,0,.426-.563,5.44,5.44,0,0,0,.348-.618.469.469,0,0,1,.174-.226.243.243,0,0,1,.187-.015.2.2,0,0,1,.138.123.451.451,0,0,1-.054.3,5.6,5.6,0,0,1-.78,1.262,5.42,5.42,0,0,1-1.067.99,6.9,6.9,0,0,1-1.354.738,10.1,10.1,0,0,1-1.623.508.475.475,0,0,1-.264.008c-.052-.021-.082-.076-.09-.164a.263.263,0,0,1,.057-.219.352.352,0,0,1,.189-.094,7.1,7.1,0,0,0,3.245-1.555l-2.394.246a.871.871,0,0,1-.414-.029.293.293,0,0,1-.186-.162.267.267,0,0,1,.039-.23.739.739,0,0,1,.261-.244q.486-.293.918-.59c.288-.2.57-.4.846-.615l-1.452.054a.751.751,0,0,1-.354-.045.222.222,0,0,1-.139-.153.337.337,0,0,1,.058-.225,1.066,1.066,0,0,1,.237-.268q.341-.281.7-.621t.714-.734H138.8a.447.447,0,0,1,.181-.129.2.2,0,0,1,.186.057c.12.1.11.232-.03.385q-.324.353-.669.687t-.657.6l.433-.015.462-.019.468-.018.45-.015c.14-.116.277-.236.411-.36Z" fill="#fff"/><path d="M144.172,374.441a.276.276,0,0,1,.1.186.267.267,0,0,1-.071.211.247.247,0,0,1-.2.1.255.255,0,0,1-.187-.087,4.778,4.778,0,0,0-.491-.447c-.188-.149-.372-.285-.553-.4a.231.231,0,0,1-.065-.373.209.209,0,0,1,.174-.1.4.4,0,0,1,.2.069c.116.076.22.146.312.213s.181.132.265.2.168.135.252.205S144.076,374.357,144.172,374.441Z" fill="#fff"/><path d="M149.926,372.041a3.807,3.807,0,0,1-.317,1.555,3.307,3.307,0,0,1-1.015,1.266.5.5,0,0,1-.243.127.221.221,0,0,1-.228-.283.413.413,0,0,1,.146-.209,4.27,4.27,0,0,0,.514-.5,2.6,2.6,0,0,0,.363-.564,2.817,2.817,0,0,0,.213-.684,4.873,4.873,0,0,0,.068-.865v-2.226a.468.468,0,0,1,.055-.255.219.219,0,0,1,.2-.081c.1,0,.171.03.2.091a.549.549,0,0,1,.045.245Zm3.732.967c.156,0,.233.1.233.312a5.591,5.591,0,0,1-.071.771,1.2,1.2,0,0,1-.171.466.572.572,0,0,1-.312.228,1.653,1.653,0,0,1-.489.061,3.965,3.965,0,0,1-.647-.042.86.86,0,0,1-.378-.144.475.475,0,0,1-.174-.271,1.722,1.722,0,0,1-.042-.414v-4.392a.355.355,0,0,1,.048-.2c.031-.051.1-.075.21-.075a.217.217,0,0,1,.191.078.329.329,0,0,1,.055.192v4.308a1.324,1.324,0,0,0,.018.237.22.22,0,0,0,.09.144.5.5,0,0,0,.21.072,2.705,2.705,0,0,0,.378.021,1.208,1.208,0,0,0,.294-.029.294.294,0,0,0,.181-.142.865.865,0,0,0,.093-.333c.018-.148.031-.348.039-.6a.277.277,0,0,1,.057-.18A.226.226,0,0,1,153.658,373.008Z" fill="#fff"/><path d="M156.358,374.16a.689.689,0,0,1-.108.446.532.532,0,0,1-.408.123h-1.008a.956.956,0,0,1-.246-.026.315.315,0,0,1-.153-.094.394.394,0,0,1-.081-.174,1.338,1.338,0,0,1-.023-.275v-4.015a1.3,1.3,0,0,1,.021-.252.348.348,0,0,1,.075-.162.306.306,0,0,1,.153-.087,1,1,0,0,1,.255-.027h1.008a1.084,1.084,0,0,1,.265.027.3.3,0,0,1,.155.09.359.359,0,0,1,.075.165,1.259,1.259,0,0,1,.021.246Zm-1.578-2.281H155.9v-1.721a.132.132,0,0,0-.021-.078.078.078,0,0,0-.069-.031h-.947c-.057,0-.084.037-.084.109Zm1.122.438H154.78v1.854a.162.162,0,0,0,.023.09.072.072,0,0,0,.061.035h.947c.061,0,.091-.041.091-.125Zm.905-1.476a.222.222,0,1,1,0-.444h1.92v-.821a.265.265,0,0,1,.063-.2.227.227,0,0,1,.171-.063.245.245,0,0,1,.18.063.258.258,0,0,1,.066.2v.821h.444a.2.2,0,0,1,.233.222.2.2,0,0,1-.233.223h-.444v3.378a1.53,1.53,0,0,1-.039.375.508.508,0,0,1-.135.245.569.569,0,0,1-.249.136,1.326,1.326,0,0,1-.381.036,1.9,1.9,0,0,1-.213-.012c-.07-.008-.146-.02-.229-.033s-.174-.034-.276-.061-.221-.061-.356-.1a.392.392,0,0,1-.222-.13.241.241,0,0,1,0-.213.214.214,0,0,1,.123-.137.439.439,0,0,1,.267.029c.116.036.217.064.3.087s.162.04.229.054.127.024.183.03.114.011.174.015a.345.345,0,0,0,.276-.062.448.448,0,0,0,.065-.285v-3.348Zm1.356,2.292a.638.638,0,0,1,.051.3.174.174,0,0,1-.123.129.222.222,0,0,1-.213-.009.508.508,0,0,1-.146-.249c-.084-.248-.188-.513-.312-.792s-.262-.561-.414-.84c-.1-.187-.088-.316.036-.385a.248.248,0,0,1,.207-.032.386.386,0,0,1,.171.188,8.709,8.709,0,0,1,.426.864C157.966,372.6,158.072,372.869,158.164,373.134Z" fill="#fff"/><path d="M161.686,374.268a1.175,1.175,0,0,0,.55.184c.1-.015.152-.082.152-.2v-1.183h-1.241c-.009.192-.021.365-.036.519a3.751,3.751,0,0,1-.072.441,3.458,3.458,0,0,1-.12.408,4.127,4.127,0,0,1-.18.414.482.482,0,0,1-.192.229.223.223,0,0,1-.216-.006.2.2,0,0,1-.114-.16.606.606,0,0,1,.1-.285,2.615,2.615,0,0,0,.187-.4,3.066,3.066,0,0,0,.117-.43,4,4,0,0,0,.063-.506q.019-.28.019-.64v-2.489a1.042,1.042,0,0,1,.029-.273.328.328,0,0,1,.1-.165.417.417,0,0,1,.191-.084,1.487,1.487,0,0,1,.295-.024h.924a1.4,1.4,0,0,1,.285.024.4.4,0,0,1,.188.087.37.37,0,0,1,.105.171.984.984,0,0,1,.032.276v4.109q0,.486-.312.615a1.447,1.447,0,0,1-1.021-.184.358.358,0,0,1-.213-.17.263.263,0,0,1,.021-.219.179.179,0,0,1,.132-.1A.372.372,0,0,1,161.686,374.268Zm-.527-3.2h1.229v-.918c0-.052-.029-.077-.09-.077h-1.062a.068.068,0,0,0-.078.077Zm1.229,1.566V371.5h-1.229v1.134Zm2.053,1.752a1.164,1.164,0,0,0,.549.183c.1-.014.152-.08.152-.2v-1.3h-1.35c-.008.192-.021.365-.036.519a3.559,3.559,0,0,1-.072.441,3.279,3.279,0,0,1-.119.408,4.145,4.145,0,0,1-.181.414.481.481,0,0,1-.191.229.225.225,0,0,1-.217-.006.2.2,0,0,1-.113-.16.6.6,0,0,1,.1-.285,2.607,2.607,0,0,0,.186-.4,2.821,2.821,0,0,0,.117-.43,3.989,3.989,0,0,0,.063-.506q.018-.28.018-.64v-2.489a1,1,0,0,1,.03-.273.32.32,0,0,1,.1-.165.426.426,0,0,1,.192-.084,1.477,1.477,0,0,1,.294-.024h1.032a1.4,1.4,0,0,1,.285.024.4.4,0,0,1,.188.087.37.37,0,0,1,.105.171.984.984,0,0,1,.032.276V374.4q0,.486-.312.615a1.453,1.453,0,0,1-1.02-.183.363.363,0,0,1-.214-.172.264.264,0,0,1,.021-.219.179.179,0,0,1,.132-.1A.382.382,0,0,1,164.44,374.388Zm-.637-3.312h1.338v-.925c0-.052-.029-.077-.09-.077h-1.17a.069.069,0,0,0-.078.077Zm1.338,1.56v-1.128H163.8v1.128Z" fill="#fff"/><path d="M171.55,370.224a.2.2,0,0,1,.174.075.266.266,0,0,1,.055.158.29.29,0,0,1-.052.166.2.2,0,0,1-.177.074h-3.186c-.021.116-.043.229-.069.34s-.053.219-.081.326h2.395a.708.708,0,0,1,.306.061.511.511,0,0,1,.2.152.43.43,0,0,1,.081.213.567.567,0,0,1-.03.24c-.064.156-.134.3-.21.447a3.968,3.968,0,0,1-.258.417,3.9,3.9,0,0,1-.321.4c-.118.129-.251.258-.4.391.141.1.284.188.433.275s.295.172.44.25.288.149.427.215.265.125.381.178a.43.43,0,0,1,.222.165.2.2,0,0,1-.012.177.225.225,0,0,1-.145.126.482.482,0,0,1-.258-.054q-.444-.174-.93-.424a6.264,6.264,0,0,1-.942-.6,6.367,6.367,0,0,1-.978.582,6.588,6.588,0,0,1-1.225.438.331.331,0,0,1-.249-.01.2.2,0,0,1-.1-.164.183.183,0,0,1,.051-.174.733.733,0,0,1,.237-.1c.191-.056.372-.114.54-.174a5.072,5.072,0,0,0,.479-.2c.152-.072.3-.15.441-.234s.285-.178.429-.281a5.452,5.452,0,0,1-.663-.729,5.926,5.926,0,0,1-.543-.886c-.084.244-.172.472-.264.685s-.192.414-.3.605a6.562,6.562,0,0,1-.354.559q-.192.27-.42.539a.556.556,0,0,1-.213.168.228.228,0,0,1-.219-.054.2.2,0,0,1-.078-.165.392.392,0,0,1,.12-.236c.155-.181.3-.361.429-.543s.25-.369.36-.562a6.039,6.039,0,0,0,.3-.6,6.311,6.311,0,0,0,.243-.666c.06-.191.112-.377.158-.555s.085-.359.117-.543h-1.439a.191.191,0,0,1-.178-.074.326.326,0,0,1-.045-.166.276.276,0,0,1,.052-.158.189.189,0,0,1,.171-.075h1.518c.012-.093.024-.187.036-.285s.024-.2.036-.3a.39.39,0,0,1,.1-.261.229.229,0,0,1,.187-.058.211.211,0,0,1,.171.093.477.477,0,0,1,.026.237c-.023.2-.048.392-.071.576Zm-3.144,1.608a6.246,6.246,0,0,0,.507.828,4.29,4.29,0,0,0,.675.726,3.757,3.757,0,0,0,1.08-1.356c.044-.092.054-.147.03-.168a.375.375,0,0,0-.192-.029Z" fill="#fff"/><path d="M173.818,370.746a6.513,6.513,0,0,1-.126.705q-.091.387-.214.782t-.27.763a6.458,6.458,0,0,1-.291.635.475.475,0,0,1-.189.211.228.228,0,0,1-.225-.03.209.209,0,0,1-.093-.155.5.5,0,0,1,.093-.271,3.479,3.479,0,0,0,.246-.492q.126-.3.24-.663c.076-.242.146-.5.21-.762s.114-.529.149-.789a.427.427,0,0,1,.105-.27.229.229,0,0,1,.188-.043.208.208,0,0,1,.159.094A.482.482,0,0,1,173.818,370.746Zm1.56,3.474a.966.966,0,0,1-.042.291.584.584,0,0,1-.135.231.642.642,0,0,1-.243.149,1.082,1.082,0,0,1-.366.054,3.322,3.322,0,0,1-.96-.186.324.324,0,0,1-.2-.133.237.237,0,0,1,0-.2.191.191,0,0,1,.117-.129.408.408,0,0,1,.237.021q.281.088.477.129a1.792,1.792,0,0,0,.333.039.272.272,0,0,0,.243-.1.516.516,0,0,0,.063-.282v-4.4a.259.259,0,0,1,.065-.191.244.244,0,0,1,.18-.066.227.227,0,0,1,.168.066.255.255,0,0,1,.066.191Zm2.25-.63a.565.565,0,0,1,.019.285.193.193,0,0,1-.169.117.237.237,0,0,1-.2-.024.476.476,0,0,1-.123-.282c-.04-.2-.092-.421-.153-.675s-.131-.515-.207-.783-.153-.53-.23-.786-.153-.484-.226-.684a.344.344,0,0,1-.021-.219.22.22,0,0,1,.129-.129.2.2,0,0,1,.186,0,.3.3,0,0,1,.138.184q.091.246.207.636t.24.815c.082.285.159.564.231.84S177.58,373.394,177.628,373.59Z" fill="#fff"/><path d="M183.67,373.121a.2.2,0,0,1,.171.063.275.275,0,0,1,.045.165.262.262,0,0,1-.045.162.2.2,0,0,1-.171.061h-1.776a1.021,1.021,0,0,1,.1.432,1,1,0,0,1-.321.807,1.317,1.317,0,0,1-.933.249,6.162,6.162,0,0,1-.675-.069,5.1,5.1,0,0,1-.813-.2q-.2-.059-.237-.141a.252.252,0,0,1,0-.189.213.213,0,0,1,.12-.146.48.48,0,0,1,.288.033,5.443,5.443,0,0,0,.727.189,3.445,3.445,0,0,0,.575.057,1.345,1.345,0,0,0,.5-.078.38.38,0,0,0,.24-.252.817.817,0,0,0,.021-.369.85.85,0,0,0-.136-.32h-2.994a.215.215,0,0,1-.171-.061.246.246,0,0,1-.051-.162.258.258,0,0,1,.051-.165.209.209,0,0,1,.171-.063h2.383l-.129-.045-.13-.045a.249.249,0,0,1-.149-.1.258.258,0,0,1-.048-.168.27.27,0,0,1,.084-.172.518.518,0,0,1,.246-.122l.423-.1c.13-.031.259-.062.387-.09.052-.012.076-.023.072-.033s-.024-.015-.061-.015h-2.376c-.151,0-.228-.071-.228-.216a.2.2,0,0,1,.228-.223h3.366a.482.482,0,0,1,.327.108.31.31,0,0,1,.123.233.274.274,0,0,1-.075.187.5.5,0,0,1-.237.132c-.224.057-.46.113-.708.172s-.481.11-.7.158c-.032,0-.049.01-.049.018s.021.023.061.043a2.162,2.162,0,0,1,.4.281Zm-2.9-3.582a.205.205,0,0,1,.057-.17.265.265,0,0,1,.171-.045.256.256,0,0,1,.162.047.205.205,0,0,1,.06.168v.379h2.328a.216.216,0,0,1,.177.057.272.272,0,0,1,.046.171.231.231,0,0,1-.052.159.22.22,0,0,1-.171.057h-1.962c.145.108.291.211.441.307a5.384,5.384,0,0,0,.474.27q.249.126.525.246t.6.234a.349.349,0,0,1,.2.141.241.241,0,0,1,.012.184.178.178,0,0,1-.123.135.515.515,0,0,1-.249-.027q-.39-.144-.7-.288c-.208-.1-.4-.194-.579-.294s-.345-.2-.5-.312-.31-.222-.462-.342v.87a.2.2,0,0,1-.222.228.264.264,0,0,1-.171-.047.23.23,0,0,1-.057-.181v-.858a5.691,5.691,0,0,1-1.012.676,7.59,7.59,0,0,1-1.185.494.551.551,0,0,1-.279.039.179.179,0,0,1-.135-.141.219.219,0,0,1,.015-.207.5.5,0,0,1,.231-.135,6.836,6.836,0,0,0,1.95-.99h-1.9a.22.22,0,0,1-.171-.057.231.231,0,0,1-.051-.159.272.272,0,0,1,.045-.171.216.216,0,0,1,.177-.057h2.316Z" fill="#fff"/><path d="M186.172,374.441a.276.276,0,0,1,.1.186.267.267,0,0,1-.071.211.247.247,0,0,1-.2.1.255.255,0,0,1-.187-.087,4.778,4.778,0,0,0-.491-.447c-.188-.149-.372-.285-.553-.4a.231.231,0,0,1-.065-.373.209.209,0,0,1,.174-.1.4.4,0,0,1,.2.069c.116.076.22.146.312.213s.181.132.265.2.168.135.252.205S186.076,374.357,186.172,374.441Z" fill="#fff"/><path d="M191.644,369.359a.189.189,0,0,1,.159.12.581.581,0,0,1-.026.288,9.765,9.765,0,0,1-.366,1.086v3.99q0,.246-.229.246c-.147,0-.222-.082-.222-.246v-3.061c-.052.092-.1.18-.159.264l-.165.259a.612.612,0,0,1-.21.222.2.2,0,0,1-.2-.029.191.191,0,0,1-.1-.168.516.516,0,0,1,.111-.258,8.215,8.215,0,0,0,.678-1.216,7.707,7.707,0,0,0,.414-1.2.588.588,0,0,1,.12-.271A.2.2,0,0,1,191.644,369.359Zm4.009.732a.193.193,0,0,1,.165.063.286.286,0,0,1,.045.165.282.282,0,0,1-.045.165.19.19,0,0,1-.165.063h-3.744a.2.2,0,0,1-.171-.062.275.275,0,0,1-.045-.165.279.279,0,0,1,.045-.165.207.207,0,0,1,.177-.062h1.644c-.035-.057-.074-.112-.116-.168s-.088-.118-.136-.186a.237.237,0,0,1,.192-.391.306.306,0,0,1,.168.113c.068.084.137.18.207.285s.139.222.207.346Zm-.162,2.052a.285.285,0,0,1-.048.168.2.2,0,0,1-.168.065H192.2a.177.177,0,0,1-.162-.065.306.306,0,0,1-.042-.168.321.321,0,0,1,.039-.171c.025-.042.081-.062.165-.062h3.078a.2.2,0,0,1,.171.063A.3.3,0,0,1,195.49,372.144Zm.006-.888a.258.258,0,0,1-.048.162.207.207,0,0,1-.168.06H192.2a.189.189,0,0,1-.162-.06.277.277,0,0,1-.042-.162.332.332,0,0,1,.039-.174c.025-.045.081-.066.165-.066h3.078a.191.191,0,0,1,.171.066A.3.3,0,0,1,195.5,371.256Zm0,3.15a.644.644,0,0,1-.1.393.454.454,0,0,1-.372.123h-2.521a.454.454,0,0,1-.372-.123.644.644,0,0,1-.1-.393v-1.068a.615.615,0,0,1,.1-.387.468.468,0,0,1,.372-.117h2.521a.468.468,0,0,1,.372.117.615.615,0,0,1,.1.387Zm-.456-1.057c0-.032-.008-.048-.024-.048H192.55c-.036,0-.054.016-.054.048v1.044c0,.044.018.065.054.065h2.466c.017,0,.024-.021.024-.065Z" fill="#fff"/><path d="M197.662,369.359a.191.191,0,0,1,.159.12.584.584,0,0,1-.027.288,9.568,9.568,0,0,1-.366,1.086v3.99c0,.164-.076.246-.228.246s-.223-.082-.223-.246v-3.061q-.078.138-.158.264c-.055.084-.109.171-.165.259a.62.62,0,0,1-.21.222.2.2,0,0,1-.2-.029.187.187,0,0,1-.1-.168.513.513,0,0,1,.11-.258,7.486,7.486,0,0,0,.678-1.216,8.5,8.5,0,0,0,.414-1.2.625.625,0,0,1,.12-.265A.194.194,0,0,1,197.662,369.359Zm1.9,4.213a.226.226,0,0,1,.045.194.408.408,0,0,1-.164.177,4.048,4.048,0,0,1-.369.237q-.177.1-.459.219a.573.573,0,0,1-.427.058c-.1-.043-.149-.174-.149-.394v-3.726a.631.631,0,0,1,.11-.408.6.6,0,0,1,.363-.18,3.717,3.717,0,0,0,.405-.1,3.238,3.238,0,0,0,.333-.12.524.524,0,0,1,.249-.054.184.184,0,0,1,.141.132.238.238,0,0,1,.013.192.371.371,0,0,1-.187.138,3.468,3.468,0,0,1-.411.146,3.528,3.528,0,0,1-.411.1.209.209,0,0,0-.12.055.188.188,0,0,0-.029.119v3.51c0,.072.027.095.084.066a3.09,3.09,0,0,0,.333-.174c.1-.061.19-.124.278-.191a.4.4,0,0,1,.223-.1A.193.193,0,0,1,199.558,373.572Zm2.07-.007a1.965,1.965,0,0,1-.036.42.571.571,0,0,1-.114.255.394.394,0,0,1-.206.129,1.149,1.149,0,0,1-.31.037,1.81,1.81,0,0,1-.342-.033,2.422,2.422,0,0,1-.4-.123.415.415,0,0,1-.051-.024l-.039-.024v.643a.216.216,0,0,1-.062.177.255.255,0,0,1-.165.052.245.245,0,0,1-.174-.052.236.236,0,0,1-.055-.177v-4.555a1.192,1.192,0,0,1,.024-.267.366.366,0,0,1,.081-.168.321.321,0,0,1,.159-.09,1,1,0,0,1,.258-.026h.906a.549.549,0,0,1,.41.119.64.64,0,0,1,.111.432Zm-1.494.252a.28.28,0,0,1,.288,0,2.094,2.094,0,0,0,.273.1.944.944,0,0,0,.23.029.211.211,0,0,0,.189-.084.749.749,0,0,0,.057-.365V370.3c0-.072-.026-.108-.078-.108h-.882c-.052,0-.078.036-.078.108Z" fill="#fff"/></g></svg>