<?xml version="1.0" encoding="utf-8"?>
<!-- Generator: Adobe Illustrator 21.0.0, SVG Export Plug-In . SVG Version: 6.00 Build 0)  -->
<svg version="1.1" id="图层_1" xmlns="http://www.w3.org/2000/svg" xmlns:xlink="http://www.w3.org/1999/xlink" x="0px" y="0px"
	 viewBox="0 0 655 494" style="enable-background:new 0 0 655 494;" xml:space="preserve">
<style type="text/css">
	.st0{fill:#A2BBE6;}
	.st1{fill:#F1D153;}
</style>
<title>Chatbot 08 (STORM)</title>
<path class="st0" d="M58.2,124.1c1.1-1.5,5.8-2.4,5.8-2.4s0.7,4.7-0.3,6.2c-1.1,1.5-3.2,1.9-4.7,0.8
	C57.5,127.7,57.2,125.6,58.2,124.1L58.2,124.1z"/>
<path class="st0" d="M72.3,124.1c1.1-1.5,5.8-2.4,5.8-2.4s0.7,4.7-0.3,6.2c-1.1,1.5-3.2,1.9-4.7,0.8
	C71.6,127.7,71.2,125.6,72.3,124.1L72.3,124.1z"/>
<path class="st0" d="M65.6,136.6c1.1-1.5,5.8-2.4,5.8-2.4s0.7,4.7-0.4,6.2c-1.1,1.5-3.2,1.9-4.7,0.8
	C64.8,140.2,64.5,138.1,65.6,136.6L65.6,136.6z"/>
<path class="st0" d="M86.4,124.1c1.1-1.5,5.8-2.4,5.8-2.4s0.7,4.7-0.3,6.2c-1.1,1.5-3.2,1.9-4.7,0.8
	C85.7,127.7,85.3,125.6,86.4,124.1L86.4,124.1z"/>
<path class="st0" d="M78.4,136.6c1.1-1.5,5.8-2.4,5.8-2.4s0.7,4.7-0.3,6.2c-1.1,1.5-3.2,1.9-4.7,0.8
	C77.7,140.2,77.3,138.1,78.4,136.6L78.4,136.6z"/>
<path class="st0" d="M91.3,136.6c1.1-1.5,5.8-2.4,5.8-2.4s0.7,4.7-0.3,6.2c-1.1,1.5-3.2,1.9-4.7,0.8
	C90.5,140.2,90.2,138.1,91.3,136.6L91.3,136.6L91.3,136.6z"/>
<polygon class="st1" points="129.1,99.2 115.4,124.9 125.6,127.4 96.4,156.5 110.2,130.8 99.9,128.2 "/>
<path d="M123.3,119.3c7.4,0,13.4-6,13.4-13.4s-6-13.4-13.4-13.4H123c1.8-12.8-7.1-24.7-19.9-26.5c-8.8-1.3-17.6,2.6-22.6,9.9
	c-6.7-3.1-14.7-0.1-17.8,6.6c-1.7,3.8-1.6,8.1,0.3,11.8c-6.4,3.6-8.7,11.8-5.1,18.3c2.4,4.2,6.8,6.8,11.7,6.8
	C69.7,119.3,123.3,119.3,123.3,119.3z"/>
</svg>
