<svg id="template" xmlns="http://www.w3.org/2000/svg" width="655" height="493" viewBox="0 0 655 493"><title>04 BRUNCH</title><path d="M304.873,254.266l-1.02-2.729a11.018,11.018,0,0,0-4.664-4.873,25.6,25.6,0,0,0-8.5-2.518,95.552,95.552,0,0,0-17.988-.568,49.456,49.456,0,0,0-17.453,4.27c-3.6,1.626-6.287,4.695-8.467,7.9-1.127,1.658-2.138,3.391-3.126,5.135a20.411,20.411,0,0,0-2.178,4.3c-.212.019-.3-.264-.31-.477a9.942,9.942,0,0,1,.987-4.578,20.8,20.8,0,0,1,1.063-2.058c.234-.4,1.052-1.28,1.045-1.741-.013-.89-.9-.391-1.469-.1a19.144,19.144,0,0,0-2.181,1.3,18.808,18.808,0,0,0-3.747,3.409,43.247,43.247,0,0,0-8.614,15.976,20.917,20.917,0,0,0-.423-2.091,11.1,11.1,0,0,1,.342-2.711,31.454,31.454,0,0,1,3.36-8.283,41.823,41.823,0,0,1,7.2-10.044,23.144,23.144,0,0,1,4.929-3.671c.742-.409,2.779-1.046,1.044-1.357a27.661,27.661,0,0,0-7.457,0,39.288,39.288,0,0,0-8.086,1.659,41.021,41.021,0,0,0-9.836,4.494,29.19,29.19,0,0,0-6.229,5.652c.166-.2.136-1.155.242-1.462a6.471,6.471,0,0,1,.833-1.529,23.27,23.27,0,0,1,2.243-2.707,13.849,13.849,0,0,1,5.574-3.9,4.4,4.4,0,0,0-2-.528,25.975,25.975,0,0,0-8.365.663,42.472,42.472,0,0,0-7.589,3.024.391.391,0,0,1-.162.046.279.279,0,0,1-.231-.33.744.744,0,0,1,.236-.383,17.045,17.045,0,0,1,6.923-3.971c2.755-.922,5.535-2.012,8.342-2.7a62.307,62.307,0,0,1,9.346-1.164c.287-.026.664-.155.632-.441-.036-.32-.725-.908-.964-1.152-.466-.476-1.046-.865-1.539-1.318a13.709,13.709,0,0,1-2.53-2.965,7.1,7.1,0,0,1-1.115-2.129c.467-.062.914.375,1.226.683,1.107,1.107,2.209,2.28,3.421,3.273a11.659,11.659,0,0,0,5.206,2.284c3.49.675,6.655.111,10.11-.444a87.684,87.684,0,0,0,9.622-2.109c.812-.227,8.611-2.4,8.467-2.95a.771.771,0,0,0-.3-.37c-1.739-1.4-3.31-3.121-5.167-4.366-1.93-1.294-3.836-2.614-5.832-3.81-3.88-2.324-8.549-4.491-13.051-5.148a32.239,32.239,0,0,0-13.529.533,38.21,38.21,0,0,0-7.467,2.966c-1.194.619-2.359,1.292-3.5,2.008-.786.494-2.274,1.988-3.284,1.783-.707-.144.017-.965.224-1.171a40.654,40.654,0,0,1,13.549-8.867,3.01,3.01,0,0,0,.52-.2.209.209,0,0,0,.109-.119c.073-.287-.886-.448-1.082-.5q-.707-.2-1.425-.363a23.4,23.4,0,0,0-2.9-.453,25.992,25.992,0,0,0-6.4.129,12.754,12.754,0,0,0-3.444,1.418c-1.726.844-3.41,1.762-5.1,2.633-.128.066-.323.107-.384-.023a.276.276,0,0,1,0-.178c.308-1.309,1.652-2.7,2.585-3.631,2.423-2.411,6.258-3.478,9.58-3.733a53.136,53.136,0,0,1,9.7.148c1.777.19,3.541.476,5.3.779a46.228,46.228,0,0,0,6.506,1.041c.629.017-.157-.822-.307-.993a31.826,31.826,0,0,0-3.371-2.952c-1.124-.969-2.273-1.909-3.382-2.895a35.172,35.172,0,0,1-6.9-8.4,12.88,12.88,0,0,1-1.019-2.274l4.275-.918a42.248,42.248,0,0,0,4.211,5.4,29.326,29.326,0,0,0,7.344,5.983c1.125.616,2.248,1.362,3.426,1.87a15.137,15.137,0,0,0,2.717,1.1c1.267.272.56-1.015.294-1.542-.329-.652-.6-1.334-.862-2.015a30.724,30.724,0,0,1-2.476-8.944,18.724,18.724,0,0,1-.115-3.093c.034-.388.055-1.176.39-1.455.708-.591.825.88.929,1.441.842,4.547,3.44,8.8,6.069,12.528a37.742,37.742,0,0,0,6.775,7.193,28.121,28.121,0,0,0,6.337,4.141,30.1,30.1,0,0,0,8.031,1.851,64.279,64.279,0,0,0,9.469.557q2.424-.037,4.84-.256a19.707,19.707,0,0,0,4.513-.44c.639-.223-1.25-4.152-1.45-4.628-.192-.458-.431-.913-.645-1.365a118.636,118.636,0,0,1-8.106-22.978c-1.6-6.662-2.567-13.73-6.336-19.615a39.656,39.656,0,0,0-10.087-11.107c-3.752-2.693-8.327-4.009-12.662-5.431l-.185-.06a68.469,68.469,0,0,0-11.183-2.765c-9.044-1.328-18.132.738-24.108,8.064-.162.2-.359.419-.616.417a1.276,1.276,0,0,1,.073-.7,12.543,12.543,0,0,1,3.088-5.291,18.04,18.04,0,0,1,4.277-3.338,4.673,4.673,0,0,0,1.035-.6c1.549-1.354-3.576-2.142-4.259-2.216-3.877-.42-7.737-.328-11.646-.459a.623.623,0,0,1-.466-.149c-.231-.266.1-.648.408-.823,2.069-1.184,4.3-1.253,6.6-1.5a29.424,29.424,0,0,1,7.49.228l6.758,1.01c1.575.235,1.849-.841,1.156-2.064-1.3-2.3-3.2-4.746-3.116-7.528.071-2.238.708-1.057,1.24.17a30.183,30.183,0,0,0,2.27,3.9,22.667,22.667,0,0,0,2.539,3.142,7.176,7.176,0,0,0,3.167,2.253,14.4,14.4,0,0,0,3.653.133c1.417.039,2.831.15,4.247.2a51.787,51.787,0,0,1,7.193.765c3.339.593,6.515,1.845,9.943,1.744a.325.325,0,0,0,.258-.087c.1-.126-.027-.3-.144-.408-3.036-2.813-5.267-6.475-7.83-9.632l-4.878-6.007c-.685-.844-1.371-1.688-2.113-2.482a41.143,41.143,0,0,0-5.7-4.965q-1.529-1.127-3.122-2.165c-.279-.183-.858-.413-1.016-.74-.521-1.081,2.472-.391,3.031-.311a23.587,23.587,0,0,1,2.866.6,7.892,7.892,0,0,0,2.4.668.367.367,0,0,0,.216-.065.4.4,0,0,0,.105-.274,11.7,11.7,0,0,1,.82-3.5c.208-.464,1.02-1.629,1.089-.428a8.47,8.47,0,0,0,1.645,5.057c1.064,1.438,2.51,2.5,3.66,3.832,1.325,1.535,2.515,3.193,3.791,4.769a18.049,18.049,0,0,0,1.261,1.437c.62.618,1.229,1.236,1.2-.024-.069-3.355-.286-6.739-.09-10.092a1.581,1.581,0,0,1,.389-1.168.506.506,0,0,1,.258-.213c.322-.085.495.365.516.7a46.083,46.083,0,0,0,2.192,12.311,23.607,23.607,0,0,0,2.8,5.638,50.061,50.061,0,0,0,4.647,5.1c2.282,2.484,4.851,4.681,7.077,7.236,1.965,2.256,4.1,4.53,5.888,7a29,29,0,0,1,2.567,4.411c.905,1.873,1.649,3.809,2.545,5.684.159.333.462.712.813.6.735-.238.929-1.6,1.1-2.219.282-1.041.526-2.092.74-3.149,1.282-6.314,2.077-12.537,1.4-19a4.751,4.751,0,0,1,.151-2.658c.042-.113.108-.241.227-.258a.336.336,0,0,1,.244.1c1.3,1.065,1.612,2.894,1.8,4.562.29,2.63.462,5.272.532,7.917q.053,1.984.032,3.969c-.063,6.282-.72,12.625-.779,18.946a64.723,64.723,0,0,0,.488,8.9c.342,2.647.631,6.037,1.933,8.385a38.943,38.943,0,0,0,12.3,13.187c5.1,3.436,10.966,5.268,15.8,9.2.784.638,1.3,1.184,2.331.425a5.634,5.634,0,0,0,1.479-1.989,32.478,32.478,0,0,0,2.147-4.924,53.741,53.741,0,0,0,2.707-15.4c.2-5.167.346-10.3-.755-15.394a48.011,48.011,0,0,0-6.54-15.329c-4-6.327-9.7-11.831-15.294-16.79-4.336-3.844-8.883-7.69-12.25-12.451-2.368-3.348-4.061-7.111-6.5-10.365a47.919,47.919,0,0,0-4.916-5.772c-1.711-1.664-3.446-3.3-5.277-4.837-1.77-1.482-3.716-2.691-5.516-4.109a10.347,10.347,0,0,1-1.593-1.445c-.148-.178-.879-.877-.225-.865a2.831,2.831,0,0,1,.906.223,21.817,21.817,0,0,1,3.126,1.287c.505.28,1.123.58,1.627.3-2.239-3.525-4.618-6.935-6.9-10.424-1.431-2.184-3.05-5.13-2.444-7.838-.047.209.444.965.517,1.213.123.422.189.822.354,1.243.373.953.8,1.886,1.258,2.8a41.034,41.034,0,0,0,3.085,5.068,119.3,119.3,0,0,0,7.638,9.334,50.83,50.83,0,0,0,4.771,4.843,34.637,34.637,0,0,0,2.729,2.181,13.348,13.348,0,0,0,1.678,1.176c.219.11.639.33.888.175.344-.214.023-1.112-.017-1.457a41.127,41.127,0,0,1,.045-7.588c.12-1.668.255-3.337.29-5.01a18.317,18.317,0,0,0-.613-6.552,14.974,14.974,0,0,0-3.353-5.441c-1.65-1.638-3.21-3.4-4.986-4.881a.312.312,0,0,1-.141-.21c0-.174.242-.214.414-.191a6.744,6.744,0,0,1,4.468,2.111c1.531,1.7,3.228,3.275,4.832,4.906.176-.08.278.1.284-.093a57.835,57.835,0,0,0-.333-8.076,56.789,56.789,0,0,0-.792-5.662c-.041-.27-.44-3.526-.518-3.556a2.263,2.263,0,0,1,1.1,1.487,66.03,66.03,0,0,1,2.718,8.142,102.264,102.264,0,0,1,2.372,11.123,3.514,3.514,0,0,0,.913,1.9c1.772-1.813,3.605-3.557,5.279-5.451a7.771,7.771,0,0,1,3.129-2.492,7.194,7.194,0,0,1-.779,1.52c-.48.472-1,.923-1.458,1.462-2.189,2.557-4.333,5.583-5.064,8.935-.722,3.307-.192,6.746.449,10.02a25.559,25.559,0,0,0,3.4,7.7,53.817,53.817,0,0,0,5.829,7.939c1.985,2.264,4.221,5.029,7.041,6.263a.613.613,0,0,0,.505.056.64.64,0,0,0,.266-.429c.725-2.522,1.155-5.083,1.892-7.6a76.717,76.717,0,0,1,2.7-7.4c2.061-5.053,3.552-10.355,5.534-15.445a20.8,20.8,0,0,0,1.469-10.5c-.757-5-2.757-9.686-4.285-14.477a.206.206,0,0,1-.01-.142c.042-.1.185-.072.277-.022a3.013,3.013,0,0,1,1.122,1.455c1.159,2.407,2.463,4.671,3.384,7.181.114,0,.26.181.319.084a14.761,14.761,0,0,1,3.458-3.923c.226-.179.455-.353.693-.517a.721.721,0,0,1,.49-.154,8.207,8.207,0,0,1-.688,1.426q-.388.883-.7,1.8a25.124,25.124,0,0,0-.929,3.676,41.871,41.871,0,0,0-.531,7.578c.018,2.618.169,5.233.241,7.849a.9.9,0,0,0,.271.761,5.912,5.912,0,0,0,1.4-1.914,58.042,58.042,0,0,1,5.356-8.64c1.894-2.656,3.566-5.4,6.546-6.971a.333.333,0,0,1,.249-.054c.177.058.136.319.057.487-1.388,2.98-3.458,5.547-5.1,8.381l-2.4,4.14a41.649,41.649,0,0,0-1.992,3.712c-.267.59-.353,1.438.606,1.284.706-.113,1.479-.936,2.092-1.31a11.534,11.534,0,0,1,5.336-1.726.95.95,0,0,1-.575.471,24.039,24.039,0,0,0-11.729,11.644,40.069,40.069,0,0,0-3.47,11.319c-.772,5.779-1.171,10.983-.251,16.74a5.6,5.6,0,0,0,1.095,2.907,27.684,27.684,0,0,0,2.941,2.343c1.129.958,2.27,1.908,3.322,2.952a132.081,132.081,0,0,1,9.457,10.633l4.488,5.488a1.482,1.482,0,0,0,.351.343,1.182,1.182,0,0,0,1.418-.418c1.426-1.658,2.56-3.594,3.994-5.278,1.5-1.765,3.042-3.5,4.424-5.362a47.969,47.969,0,0,0,5.325-8.313c1.381-3,2.621-6.14,3.744-9.251a34.953,34.953,0,0,0,2.259-8.319c.268-2.7.264-5.65-1.129-8.067a51.059,51.059,0,0,0-3.052-4.765,23.386,23.386,0,0,0-4.387-4.319,8.544,8.544,0,0,0-.971-.722c-.308-.187-.683-.4-.711-.755a3.2,3.2,0,0,1,1.423.264,6.033,6.033,0,0,1,1.721,1.024,52.672,52.672,0,0,1,6.226,5.623,1.906,1.906,0,0,0,.948.663c.385.074.621-.185.626-.578.037-3-.46-5.958-.688-8.928a40.368,40.368,0,0,0-2.068-9.364,81.5,81.5,0,0,0-4.779-10.927L360.013,95.6c1.222-.124,2.168,1,2.855,2.021,1.8,2.669,3.519,5.455,5.938,7.579a3.057,3.057,0,0,0,1.188.731c1.133.3,2.2-.607,3.008-1.455,3.111-3.264,6.785-5.844,8.5-10.014a16.878,16.878,0,0,0,1.265-6.1,1.926,1.926,0,0,1,.141-.86.965.965,0,0,1,.331.663,27.551,27.551,0,0,1,.466,3.236q.062.8.064,1.605,0,.414-.014.829a2.528,2.528,0,0,0-.022.807c.1.267.491-.107.648-.2q.4-.235.81-.45a17.634,17.634,0,0,1,1.685-.769,35.3,35.3,0,0,1,7.306-1.735c.232-.038.526-.049.642.156-3.949,1.136-7.345,3.656-10.459,6.338a19.177,19.177,0,0,0-4.58,6.006,18.586,18.586,0,0,0-2.295,8.291,15.381,15.381,0,0,0,.056,2.454c.021.158.036.6.2.7.357.223,1.331-1.185,1.583-1.467q1.07-1.2,2.153-2.383c.617-.675,1.238-1.348,1.915-1.963a15.509,15.509,0,0,1,4.73-2.937c.409-.161.814-.312,1.23-.453.243-.083.772-.052.941-.142a15.139,15.139,0,0,0-2.209,1.705c-.817.654-1.586,1.459-2.37,2.162a36.842,36.842,0,0,0-3.8,4.036,21.151,21.151,0,0,0-3.741,6.784l-1.008,2.714c-1,2.687-.536,5.475-.318,8.282.233,3,.487,6.007.682,9.015.3,4.651.774,9.529-.067,14.122l-.6,3.252a5.226,5.226,0,0,0-.253,1.83c.166.866.63.664,1.372.635,1.793-.069,3.587-.068,5.378-.2a19.786,19.786,0,0,0,5.587-1.771c4.27-1.728,7.458-4.559,11.024-7.475a26.042,26.042,0,0,0,8.6-13.691,40.485,40.485,0,0,0,.721-11.994l2.269-.817c.2.87.349,1.751.47,2.645.084.619.188,1.221.308,1.832.124.629.589-.473.642-.584q.392-.832.7-1.7l2.615-2.324c-.336,2.647-1.315,4.881-2.012,7.427a39.124,39.124,0,0,1-3.237,8.255,4.741,4.741,0,0,0-.533,1.237,1.464,1.464,0,0,0,.266,1.275c.3.336.349.34.762.16a15.1,15.1,0,0,0,3.737-2.462c1.694-1.453,3.409-2.916,5.085-4.412a25.877,25.877,0,0,0,3.909-3.846,40.379,40.379,0,0,1,4.241-5.486,33.326,33.326,0,0,1,6.019-4.381c.932-.564,2.412-1.413,3.5-1.32-.307-.026-1.585,1.529-1.91,1.805-.714.609-1.529,1.068-2.276,1.642a30.753,30.753,0,0,0-4.554,4.541,25.346,25.346,0,0,0-3.274,4.9c-.079.154-.154.345-.059.489.136-.006-.073.165.052.109a19.3,19.3,0,0,1,5.7-1.553,14.156,14.156,0,0,1,5.518.136c.167.055.363.229.255.368a.292.292,0,0,1-.2.083,57.209,57.209,0,0,0-5.776.51,28,28,0,0,0-5.813,2.029,25.721,25.721,0,0,0-7.145,4.994,5.2,5.2,0,0,0-1.442,2.072c.24-.05-.13.285.081.16,3.394-2.023,7.471-2.55,11.421-2.607a7.6,7.6,0,0,1,4.741,1.057c.166.124.327.377.169.511a.367.367,0,0,1-.248.057,3.777,3.777,0,0,1-.457-.064,29.715,29.715,0,0,0-20.209,6.157,55.593,55.593,0,0,0-5.793,4.667c-.691.681-1.356,1.389-2.02,2.1a100.306,100.306,0,0,1-7.552,7.745,91.379,91.379,0,0,1-11.607,8.469,67.155,67.155,0,0,1-12.189,6.355c-2.7.976-6.355,1.321-8.256,3.725a15.574,15.574,0,0,0-1.711,2.98c-.7,1.449-5.584,14.035-1.942,14.435,1.315.144,2.5-.693,3.694-1.125a58.956,58.956,0,0,1,18.332-3.311c5.087-.126,9.023.84,14,1.9,5.548,1.182,10.9,3.11,16.379,4.546a57.558,57.558,0,0,0,8.275,1.616,27.832,27.832,0,0,0,7.711-.538c1.229-.222,2.442-.526,3.65-.843a28.136,28.136,0,0,0,8.343-3.262c2.316-1.51,4.479-4.638,6.169-6.826a45.586,45.586,0,0,0,4.059-6c1.667-3.052,1.338-7.256,1.8-10.623.053-.387.164-.848.535-.971a34.894,34.894,0,0,1,.736,4.131c.091.661.181,1.322.208,1.989a23.435,23.435,0,0,1-2.467,10.725c-.757,1.553-1.914,2.9-2.009,4.669a.661.661,0,0,0,.1.468c.433.515,5.037-3.15,5.617-3.625,1.938-1.588,3.736-3.337,5.529-5.085l2.779-2.708c.605.161.494,1.055.221,1.619A16.292,16.292,0,0,1,462,190.626q-2.413,2.427-4.959,4.715c-.434.39-2.733,2.2-2.129,2.936a.691.691,0,0,0,.453.185c6.119.9,12.956,3.1,17.6,7.283.464.417.953.987.785,1.588-4.4-2.825-10.774-3.614-15.888-3.5-1.35.029-10.213.322-6.931,3.4a12.452,12.452,0,0,1,3.746,8.48.447.447,0,0,1-.042.24.314.314,0,0,1-.414.071.936.936,0,0,1-.305-.344c-2.1-3.34-5.51-8.1-9.921-7.905a19.786,19.786,0,0,0-6.427,1.778,35.6,35.6,0,0,1-7.9,2.632c-1.422.212-2.949.166-4.312.452-.192.04-.415.116-.47.3a.57.57,0,0,0,.054.355c1.132,2.947,3.589,5.827,5.26,8.557,3.035,4.959,5.319,10.32,7.982,15.477a66.784,66.784,0,0,0,4.46,7.571c1.654,2.376,3.945,4.268,5.485,6.667.136.212.233.556,0,.661a.441.441,0,0,1-.315-.02,11.687,11.687,0,0,1-3.55-2.091,57.648,57.648,0,0,1-5.014-4.552c-3.131-3.117-6.134-6.418-9.772-8.965a2.68,2.68,0,0,0-2.291-.483c-.77.247-1.056.427-1.048,1.236.067,6.871.014,15.157-4.287,20.92-.169.226-.429.474-.692.37l1.466-7.132c1.308-6.363.16-13.723-1.5-19.919-.1-.374-.41-.847-.753-.665a.629.629,0,0,0-.253.371c-.167.471-.121-.008-.256.474-1.174,4.2-5.322,5.4-8.031,8.364-.749.818-1.556,1.779-2.663,1.841,1.283-2.92,4.253-4.636,5.806-7.388,1.773-3.142,1.722-7.642,1.287-11.147-.449-3.622-2.968-5.808-5.748-7.956a33.058,33.058,0,0,0-40.78.173,45.7,45.7,0,0,0-13.955,19.022q-.528,1.343-.939,2.727-.212.716-.394,1.441l-.565,1.9a74.684,74.684,0,0,0-1.727,14.035Z" fill="#f5f5f5"/><path d="M319.14,413.591l-.028,0C319.125,413.646,319.133,413.625,319.14,413.591Z" fill="none" stroke="#000" stroke-linecap="round" stroke-linejoin="round"/><path d="M319.14,413.591l-.028,0C319.125,413.646,319.133,413.625,319.14,413.591Z" fill="none" stroke="#000" stroke-linecap="round" stroke-linejoin="round" stroke-dasharray="2 4"/><path d="M409.306,125.494a40.485,40.485,0,0,1-.721,11.994,26.042,26.042,0,0,1-8.6,13.691c-3.566,2.916-6.754,5.747-11.024,7.475a19.786,19.786,0,0,1-5.587,1.771c-1.791.13-3.585.128-5.378.2-.742.029-1.206.231-1.372-.635a5.226,5.226,0,0,1,.253-1.83l.6-3.252c.841-4.593.369-9.471.067-14.122-.2-3.007-.449-6.01-.682-9.015-.218-2.808-.68-5.595.318-8.282l1.008-2.714a21.151,21.151,0,0,1,3.741-6.784,36.842,36.842,0,0,1,3.8-4.036c.784-.7,1.553-1.508,2.37-2.162a15.139,15.139,0,0,1,2.209-1.705c-.17.091-.7.06-.941.142-.416.141-.821.292-1.23.453a15.509,15.509,0,0,0-4.73,2.937c-.677.615-1.3,1.288-1.915,1.963q-1.083,1.186-2.153,2.383c-.252.282-1.226,1.69-1.583,1.467-.16-.1-.175-.537-.2-.7a15.381,15.381,0,0,1-.056-2.454,18.586,18.586,0,0,1,2.295-8.291,19.177,19.177,0,0,1,4.58-6.006c3.114-2.681,6.51-5.2,10.459-6.338-.116-.2-.41-.194-.642-.156a35.3,35.3,0,0,0-7.306,1.735,17.634,17.634,0,0,0-1.685.769q-.411.214-.81.45c-.158.093-.549.467-.648.2a2.528,2.528,0,0,1,.022-.807q.014-.414.014-.829,0-.8-.064-1.605a27.551,27.551,0,0,0-.466-3.236.965.965,0,0,0-.331-.663,1.926,1.926,0,0,0-.141.86,16.878,16.878,0,0,1-1.265,6.1c-1.717,4.169-5.391,6.75-8.5,10.014-.808.848-1.875,1.753-3.008,1.455a3.057,3.057,0,0,1-1.188-.731c-2.419-2.124-4.139-4.909-5.938-7.579-.687-1.018-1.633-2.145-2.855-2.021l1.874,3.769a81.5,81.5,0,0,1,4.779,10.927,40.368,40.368,0,0,1,2.068,9.364c.227,2.97.725,5.926.688,8.928,0,.392-.24.652-.626.578a1.906,1.906,0,0,1-.948-.663,52.672,52.672,0,0,0-6.226-5.623,6.033,6.033,0,0,0-1.721-1.024,3.2,3.2,0,0,0-1.423-.264c.029.359.4.568.711.755a8.544,8.544,0,0,1,.971.722,23.386,23.386,0,0,1,4.387,4.319,51.059,51.059,0,0,1,3.052,4.765c1.392,2.417,1.4,5.364,1.129,8.067a34.953,34.953,0,0,1-2.259,8.319c-1.123,3.11-2.363,6.255-3.744,9.251A47.969,47.969,0,0,1,357.4,166.1c-1.382,1.863-2.922,3.6-4.424,5.362-1.433,1.684-2.568,3.62-3.994,5.278a1.182,1.182,0,0,1-1.418.418,1.482,1.482,0,0,1-.351-.343l-4.488-5.488a132.081,132.081,0,0,0-9.457-10.633c-1.052-1.045-2.192-1.994-3.322-2.952a27.684,27.684,0,0,1-2.941-2.343,5.6,5.6,0,0,1-1.095-2.907c-.92-5.757-.52-10.961.251-16.74a40.069,40.069,0,0,1,3.47-11.319,24.039,24.039,0,0,1,11.729-11.644.95.95,0,0,0,.575-.471,11.534,11.534,0,0,0-5.336,1.726c-.612.373-1.385,1.2-2.092,1.31-.959.154-.873-.694-.606-1.284a41.649,41.649,0,0,1,1.992-3.712l2.4-4.14c1.646-2.834,3.717-5.4,5.1-8.381.079-.169.12-.429-.057-.487a.333.333,0,0,0-.249.054c-2.98,1.567-4.652,4.315-6.546,6.971a58.042,58.042,0,0,0-5.356,8.64,5.912,5.912,0,0,1-1.4,1.914.9.9,0,0,1-.271-.761c-.072-2.617-.223-5.231-.241-7.849a41.871,41.871,0,0,1,.531-7.578,25.124,25.124,0,0,1,.929-3.676q.309-.913.7-1.8a8.207,8.207,0,0,0,.688-1.426.721.721,0,0,0-.49.154c-.237.163-.467.338-.693.517a14.761,14.761,0,0,0-3.458,3.923c-.059.1-.205-.087-.319-.084-.92-2.511-2.225-4.775-3.384-7.181a3.013,3.013,0,0,0-1.122-1.455c-.092-.05-.235-.074-.277.022a.206.206,0,0,0,.01.142c1.528,4.791,3.528,9.481,4.285,14.477a20.8,20.8,0,0,1-1.469,10.5c-1.982,5.091-3.473,10.392-5.534,15.445a76.717,76.717,0,0,0-2.7,7.4c-.737,2.52-1.167,5.081-1.892,7.6a.64.64,0,0,1-.266.429.613.613,0,0,1-.505-.056c-2.82-1.234-5.056-4-7.041-6.263a53.817,53.817,0,0,1-5.829-7.939,25.559,25.559,0,0,1-3.4-7.7c-.641-3.274-1.17-6.713-.449-10.02.731-3.352,2.875-6.378,5.064-8.935.462-.539.978-.99,1.458-1.462a7.194,7.194,0,0,0,.779-1.52,7.771,7.771,0,0,0-3.129,2.492c-1.674,1.894-3.507,3.638-5.279,5.451a3.514,3.514,0,0,1-.913-1.9A102.264,102.264,0,0,0,293.2,94.762a66.03,66.03,0,0,0-2.718-8.142,2.263,2.263,0,0,0-1.1-1.487c.078.029.477,3.286.518,3.556a56.789,56.789,0,0,1,.792,5.662,57.835,57.835,0,0,1,.333,8.076c-.006.193-.108.014-.284.093-1.6-1.631-3.3-3.208-4.832-4.906A6.744,6.744,0,0,0,281.44,95.5c-.172-.024-.418.017-.414.191a.312.312,0,0,0,.141.21c1.776,1.483,3.335,3.242,4.986,4.881a14.974,14.974,0,0,1,3.353,5.441,18.317,18.317,0,0,1,.613,6.552c-.035,1.673-.17,3.341-.29,5.01a41.127,41.127,0,0,0-.045,7.588c.039.345.36,1.243.017,1.457-.248.155-.669-.065-.888-.175a13.348,13.348,0,0,1-1.678-1.176,34.637,34.637,0,0,1-2.729-2.181,50.83,50.83,0,0,1-4.771-4.843,119.3,119.3,0,0,1-7.638-9.334,41.034,41.034,0,0,1-3.085-5.068c-.463-.913-.885-1.846-1.258-2.8-.165-.421-.231-.82-.354-1.243-.072-.248-.563-1-.517-1.213-.605,2.708,1.013,5.654,2.444,7.838,2.287,3.49,4.665,6.9,6.9,10.424-.5.282-1.121-.019-1.627-.3a21.817,21.817,0,0,0-3.126-1.287,2.831,2.831,0,0,0-.906-.223c-.654-.013.077.687.225.865a10.347,10.347,0,0,0,1.593,1.445c1.8,1.418,3.746,2.626,5.516,4.109,1.83,1.533,3.566,3.173,5.277,4.837a47.919,47.919,0,0,1,4.916,5.772c2.443,3.254,4.136,7.017,6.5,10.365,3.367,4.761,7.914,8.606,12.25,12.451,5.594,4.959,11.291,10.464,15.294,16.79a48.011,48.011,0,0,1,6.54,15.329c1.1,5.091.952,10.227.755,15.394a53.741,53.741,0,0,1-2.707,15.4,32.478,32.478,0,0,1-2.147,4.924,5.634,5.634,0,0,1-1.479,1.989c-1.034.759-1.547.213-2.331-.425-4.829-3.929-10.691-5.762-15.8-9.2a38.943,38.943,0,0,1-12.3-13.187c-1.3-2.348-1.59-5.738-1.933-8.385a64.723,64.723,0,0,1-.488-8.9c.058-6.321.716-12.664.779-18.946q.02-1.985-.032-3.969c-.071-2.645-.243-5.287-.532-7.917-.184-1.668-.5-3.5-1.8-4.562a.336.336,0,0,0-.244-.1c-.119.017-.185.145-.227.258a4.751,4.751,0,0,0-.151,2.658c.681,6.465-.114,12.688-1.4,19-.215,1.057-.458,2.108-.74,3.149-.168.622-.362,1.981-1.1,2.219-.351.114-.654-.266-.813-.6-.9-1.875-1.64-3.811-2.545-5.684a29,29,0,0,0-2.567-4.411c-1.784-2.465-3.923-4.739-5.888-7-2.226-2.555-4.8-4.753-7.077-7.236a50.061,50.061,0,0,1-4.647-5.1,23.607,23.607,0,0,1-2.8-5.638,46.083,46.083,0,0,1-2.192-12.311c-.021-.332-.194-.783-.516-.7a.506.506,0,0,0-.258.213,1.581,1.581,0,0,0-.389,1.168c-.2,3.353.021,6.737.09,10.092.026,1.26-.583.642-1.2.024a18.049,18.049,0,0,1-1.261-1.437c-1.276-1.576-2.466-3.234-3.791-4.769-1.15-1.332-2.6-2.394-3.66-3.832a8.47,8.47,0,0,1-1.645-5.057c-.069-1.2-.881-.036-1.089.428a11.7,11.7,0,0,0-.82,3.5.4.4,0,0,1-.105.274.367.367,0,0,1-.216.065,7.892,7.892,0,0,1-2.4-.668,23.587,23.587,0,0,0-2.866-.6c-.56-.08-3.552-.77-3.031.311.158.327.736.557,1.016.74q1.589,1.042,3.122,2.165a41.143,41.143,0,0,1,5.7,4.965c.742.794,1.428,1.638,2.113,2.482l4.878,6.007c2.564,3.157,4.794,6.819,7.83,9.632.117.108.241.282.144.408a.325.325,0,0,1-.258.087c-3.429.1-6.6-1.151-9.943-1.744a51.787,51.787,0,0,0-7.193-.765c-1.416-.051-2.83-.162-4.247-.2a14.4,14.4,0,0,1-3.653-.133,7.176,7.176,0,0,1-3.167-2.253,22.667,22.667,0,0,1-2.539-3.142,30.183,30.183,0,0,1-2.27-3.9c-.532-1.227-1.169-2.408-1.24-.17-.089,2.783,1.812,5.225,3.116,7.528.692,1.223.419,2.3-1.156,2.064l-6.758-1.01a29.424,29.424,0,0,0-7.49-.228c-2.3.247-4.527.316-6.6,1.5-.306.175-.639.557-.408.823a.623.623,0,0,0,.466.149c3.909.131,7.769.039,11.646.459.683.074,5.808.862,4.259,2.216a4.673,4.673,0,0,1-1.035.6,18.04,18.04,0,0,0-4.277,3.338,12.543,12.543,0,0,0-3.088,5.291,1.276,1.276,0,0,0-.073.7c.257,0,.453-.217.616-.417,5.976-7.326,15.064-9.393,24.108-8.064a68.469,68.469,0,0,1,11.183,2.765l.185.06c4.334,1.422,8.91,2.738,12.662,5.431a39.656,39.656,0,0,1,10.087,11.107c3.769,5.885,4.733,12.954,6.336,19.615a118.636,118.636,0,0,0,8.106,22.978c.214.452.453.907.645,1.365.2.476,2.088,4.405,1.45,4.628a19.707,19.707,0,0,1-4.513.44q-2.414.22-4.84.256a64.279,64.279,0,0,1-9.469-.557,30.1,30.1,0,0,1-8.031-1.851,28.121,28.121,0,0,1-6.337-4.141,37.742,37.742,0,0,1-6.775-7.193c-2.629-3.73-5.228-7.981-6.069-12.528-.1-.561-.221-2.032-.929-1.441-.335.28-.356,1.067-.39,1.455a18.724,18.724,0,0,0,.115,3.093,30.724,30.724,0,0,0,2.476,8.944c.266.681.533,1.363.862,2.015.266.527.973,1.814-.294,1.542a15.137,15.137,0,0,1-2.717-1.1c-1.177-.508-2.3-1.255-3.426-1.87a29.326,29.326,0,0,1-7.344-5.983,42.248,42.248,0,0,1-4.211-5.4" fill="none" stroke="#000" stroke-linecap="round" stroke-linejoin="round" stroke-dasharray="2 4"/><path d="M413.7,126.87q-.31.866-.7,1.7c-.053.112-.518,1.213-.642.584-.121-.611-.224-1.213-.308-1.832-.121-.894-.274-1.775-.47-2.645" fill="none" stroke="#000" stroke-linecap="round" stroke-linejoin="round" stroke-dasharray="2 4"/><path d="M352.15,254.784a74.684,74.684,0,0,1,1.727-14.035l.565-1.9q.181-.725.394-1.441.41-1.383.939-2.727a45.7,45.7,0,0,1,13.955-19.022,33.058,33.058,0,0,1,40.78-.173c2.78,2.148,5.3,4.334,5.748,7.956.435,3.506.485,8.005-1.287,11.147-1.553,2.753-4.524,4.468-5.806,7.388,1.108-.062,1.914-1.023,2.663-1.841,2.708-2.959,6.856-4.162,8.031-8.364.135-.482.089,0,.256-.474a.629.629,0,0,1,.253-.371c.342-.182.652.291.753.665,1.664,6.2,2.812,13.556,1.5,19.919l-1.466,7.132c.263.1.523-.144.692-.37,4.3-5.762,4.353-14.048,4.287-20.92-.008-.809.277-.989,1.048-1.236a2.68,2.68,0,0,1,2.291.483c3.638,2.547,6.64,5.848,9.772,8.965a57.648,57.648,0,0,0,5.014,4.552,11.687,11.687,0,0,0,3.55,2.091.441.441,0,0,0,.315.02c.229-.1.132-.449,0-.661-1.54-2.4-3.831-4.291-5.485-6.667a66.784,66.784,0,0,1-4.46-7.571c-2.663-5.157-4.947-10.518-7.982-15.477-1.671-2.73-4.128-5.61-5.26-8.557a.57.57,0,0,1-.054-.355c.055-.189.277-.264.47-.3,1.363-.286,2.89-.239,4.312-.452a35.6,35.6,0,0,0,7.9-2.632,19.786,19.786,0,0,1,6.427-1.778c4.412-.191,7.819,4.565,9.921,7.905a.936.936,0,0,0,.305.344.314.314,0,0,0,.414-.071.447.447,0,0,0,.042-.24,12.452,12.452,0,0,0-3.746-8.48c-3.282-3.08,5.581-3.374,6.931-3.4,5.114-.109,11.488.68,15.888,3.5.168-.6-.321-1.171-.785-1.588-4.648-4.179-11.485-6.379-17.6-7.283a.691.691,0,0,1-.453-.185c-.6-.736,1.694-2.546,2.129-2.936q2.545-2.287,4.959-4.715a16.292,16.292,0,0,0,3.214-5.019c.273-.564.384-1.458-.221-1.619l-2.779,2.708c-1.793,1.747-3.591,3.5-5.529,5.085-.58.475-5.184,4.14-5.617,3.625a.661.661,0,0,1-.1-.468c.1-1.765,1.252-3.116,2.009-4.669a23.435,23.435,0,0,0,2.467-10.725c-.027-.666-.117-1.328-.208-1.989a34.894,34.894,0,0,0-.736-4.131c-.371.123-.482.584-.535.971-.461,3.367-.131,7.571-1.8,10.623a45.586,45.586,0,0,1-4.059,6c-1.69,2.188-3.853,5.316-6.169,6.826a28.136,28.136,0,0,1-8.343,3.262c-1.208.317-2.421.621-3.65.843a27.832,27.832,0,0,1-7.711.538,57.558,57.558,0,0,1-8.275-1.616c-5.481-1.437-10.83-3.364-16.379-4.546-4.977-1.061-8.913-2.027-14-1.9a58.956,58.956,0,0,0-18.332,3.311c-1.19.432-2.379,1.27-3.694,1.125-3.642-.4,1.247-12.986,1.942-14.435a15.574,15.574,0,0,1,1.711-2.98c1.9-2.4,5.559-2.749,8.256-3.725a67.155,67.155,0,0,0,12.189-6.355,91.379,91.379,0,0,0,11.607-8.469,100.306,100.306,0,0,0,7.552-7.745c.664-.708,1.328-1.416,2.02-2.1a55.593,55.593,0,0,1,5.793-4.667,29.715,29.715,0,0,1,20.209-6.157,3.777,3.777,0,0,0,.457.064.367.367,0,0,0,.248-.057c.158-.134,0-.386-.169-.511a7.6,7.6,0,0,0-4.741-1.057c-3.951.058-8.028.584-11.421,2.607-.211.126.159-.21-.081-.16a5.2,5.2,0,0,1,1.442-2.072,25.721,25.721,0,0,1,7.145-4.994,28,28,0,0,1,5.813-2.029,57.209,57.209,0,0,1,5.776-.51.292.292,0,0,0,.2-.083c.108-.139-.088-.313-.255-.368a14.156,14.156,0,0,0-5.518-.136,19.3,19.3,0,0,0-5.7,1.553c-.125.056.085-.115-.052-.109-.095-.144-.019-.335.059-.489a25.346,25.346,0,0,1,3.274-4.9,30.753,30.753,0,0,1,4.554-4.541c.747-.574,1.562-1.033,2.276-1.642.324-.277,1.6-1.832,1.91-1.805-1.091-.093-2.571.756-3.5,1.32a33.326,33.326,0,0,0-6.019,4.381,40.379,40.379,0,0,0-4.241,5.486,25.877,25.877,0,0,1-3.909,3.846c-1.675,1.5-3.391,2.959-5.085,4.412a15.1,15.1,0,0,1-3.737,2.462c-.413.18-.461.176-.762-.16a1.464,1.464,0,0,1-.266-1.275,4.741,4.741,0,0,1,.533-1.237,39.124,39.124,0,0,0,3.237-8.255c.7-2.546,1.676-4.781,2.012-7.427" fill="none" stroke="#000" stroke-linecap="round" stroke-linejoin="round" stroke-dasharray="2 4"/><path d="M221.25,201.341a12.88,12.88,0,0,0,1.019,2.274,35.172,35.172,0,0,0,6.9,8.4c1.11.986,2.258,1.926,3.382,2.895a31.826,31.826,0,0,1,3.371,2.952c.151.171.937,1.009.307.993a46.228,46.228,0,0,1-6.506-1.041c-1.76-.3-3.525-.589-5.3-.779a53.136,53.136,0,0,0-9.7-.148c-3.321.255-7.156,1.321-9.58,3.733-.933.929-2.276,2.322-2.585,3.631a.276.276,0,0,0,0,.178c.061.131.256.089.384.023,1.692-.871,3.376-1.789,5.1-2.633a12.754,12.754,0,0,1,3.444-1.418,25.992,25.992,0,0,1,6.4-.129,23.4,23.4,0,0,1,2.9.453q.718.159,1.425.363c.2.056,1.155.217,1.082.5a.209.209,0,0,1-.109.119,3.01,3.01,0,0,1-.52.2,40.641,40.641,0,0,0-13.549,8.867c-.208.206-.932,1.027-.224,1.171,1.01.205,2.5-1.288,3.284-1.783,1.138-.716,2.3-1.389,3.5-2.008a38.21,38.21,0,0,1,7.467-2.966,32.239,32.239,0,0,1,13.529-.533c4.5.657,9.171,2.824,13.051,5.148,2,1.2,3.9,2.516,5.832,3.81,1.857,1.245,3.429,2.963,5.167,4.366a.771.771,0,0,1,.3.37c.144.549-7.655,2.724-8.467,2.95a87.684,87.684,0,0,1-9.622,2.109c-3.455.556-6.62,1.12-10.11.444a11.659,11.659,0,0,1-5.206-2.284c-1.212-.993-2.314-2.166-3.421-3.273-.313-.308-.759-.745-1.226-.683a7.1,7.1,0,0,0,1.115,2.129,13.709,13.709,0,0,0,2.53,2.965c.493.452,1.073.842,1.539,1.318.239.244.928.832.964,1.152.032.286-.345.416-.632.441a62.307,62.307,0,0,0-9.346,1.164c-2.807.688-5.587,1.778-8.342,2.7a17.045,17.045,0,0,0-6.923,3.971.744.744,0,0,0-.236.383.279.279,0,0,0,.231.33.391.391,0,0,0,.162-.046,42.472,42.472,0,0,1,7.589-3.024,25.975,25.975,0,0,1,8.365-.663,4.4,4.4,0,0,1,2,.528,13.849,13.849,0,0,0-5.574,3.9,23.27,23.27,0,0,0-2.243,2.707,6.471,6.471,0,0,0-.833,1.529c-.105.307-.076,1.266-.242,1.462a29.19,29.19,0,0,1,6.229-5.652,41.021,41.021,0,0,1,9.836-4.494,39.288,39.288,0,0,1,8.086-1.659,27.661,27.661,0,0,1,7.457,0c1.735.311-.3.948-1.044,1.357a23.144,23.144,0,0,0-4.929,3.671,41.823,41.823,0,0,0-7.2,10.044,31.454,31.454,0,0,0-3.36,8.283,11.1,11.1,0,0,0-.342,2.711,20.917,20.917,0,0,1,.423,2.091,43.247,43.247,0,0,1,8.614-15.976,18.808,18.808,0,0,1,3.747-3.409,19.144,19.144,0,0,1,2.181-1.3c.572-.291,1.456-.79,1.469.1.007.462-.811,1.338-1.045,1.741a20.8,20.8,0,0,0-1.063,2.058,9.942,9.942,0,0,0-.987,4.578c.01.213.1.5.31.477a20.411,20.411,0,0,1,2.178-4.3c.987-1.744,2-3.477,3.126-5.135,2.18-3.207,4.867-6.276,8.467-7.9a49.456,49.456,0,0,1,17.453-4.27,95.552,95.552,0,0,1,17.988.568,25.6,25.6,0,0,1,8.5,2.518,11.018,11.018,0,0,1,4.664,4.873l1.02,2.729" fill="none" stroke="#000" stroke-linecap="round" stroke-linejoin="round" stroke-dasharray="2 4"/><path d="M319.14,413.591c-.007.034-.015.054-.028,0Z" fill="none" stroke="#000" stroke-linecap="round" stroke-linejoin="round" stroke-dasharray="2 4"/></svg>