<?xml version="1.0" encoding="utf-8"?>
<!-- Generator: Adobe Illustrator 21.0.0, SVG Export Plug-In . SVG Version: 6.00 Build 0)  -->
<svg version="1.1" id="图层_1" xmlns="http://www.w3.org/2000/svg" xmlns:xlink="http://www.w3.org/1999/xlink" x="0px" y="0px"
	 viewBox="0 0 655 494" style="enable-background:new 0 0 655 494;" xml:space="preserve">
<style type="text/css">
	.st0{fill:none;}
</style>
<title>Chatbot 07 (BUG)</title>
<rect x="291.2" y="152.6" transform="matrix(0.9002 -0.4355 0.4355 0.9002 -40.0343 146.3046)" class="st0" width="15.8" height="15.8"/>
<g id="icons_Q2-3">
	<path d="M305.6,160.3c0.3-0.2,0.4-0.6,0.2-0.9c-0.2-0.3-0.5-0.4-0.8-0.3l-1.8,0.9c-0.1-0.2-0.3-0.4-0.5-0.6c1.1-1,1.5-2.6,0.8-3.9
		c-0.2-0.3-0.6-0.4-0.9-0.2c-0.3,0.2-0.4,0.5-0.3,0.8c0.4,0.8,0.2,1.8-0.5,2.4c-0.4-0.4-1-0.7-1.5-0.9c0-0.4-0.1-0.7-0.3-1.1
		c-0.2-0.4-0.5-0.7-0.9-1l0,0c-0.3-0.7,0-1.4,0.6-1.8c0.3-0.2,0.4-0.6,0.2-0.9c-0.2-0.3-0.5-0.4-0.8-0.3c-1,0.5-1.5,1.5-1.5,2.5
		c-0.8,0-1.6,0.3-2.1,1c-0.8-0.7-1.9-0.9-2.9-0.4c-0.3,0.2-0.4,0.6-0.2,0.9c0.2,0.3,0.5,0.4,0.8,0.3c0.7-0.3,1.4,0,1.8,0.6l0,0
		c0,0.5,0.1,0.9,0.3,1.3c0.2,0.3,0.4,0.6,0.7,0.9c-0.2,0.6-0.3,1.2-0.2,1.8c-0.9,0.2-1.8-0.2-2.2-1c-0.2-0.3-0.6-0.4-0.9-0.2
		c-0.3,0.2-0.4,0.5-0.3,0.8c0.7,1.3,2.1,2.1,3.6,1.8c0.1,0.3,0.1,0.5,0.2,0.7l-1.8,0.9c-0.3,0.2-0.4,0.6-0.2,0.9
		c0.2,0.3,0.5,0.4,0.8,0.3l1.8-0.9c0.1,0.2,0.3,0.4,0.5,0.6c-1.1,1-1.5,2.6-0.8,3.9c0.2,0.3,0.6,0.4,0.9,0.2
		c0.3-0.2,0.4-0.5,0.3-0.8c-0.4-0.8-0.2-1.8,0.5-2.4c1.3,1.5,3.5,1.6,4.9,0.4c1-0.8,1.4-2.1,1.2-3.4c0.9-0.2,1.8,0.2,2.2,1.1
		c0.1,0.3,0.5,0.5,0.8,0.4s0.5-0.5,0.4-0.8c0-0.1,0-0.1-0.1-0.1c-0.7-1.3-2.1-2.1-3.6-1.8c-0.1-0.3-0.1-0.5-0.2-0.7L305.6,160.3z
		 M302,164.9c0.2,0.3,0.1,0.7-0.2,0.9s-0.7,0.1-0.9-0.2c0,0-0.1-0.1-0.1-0.1l-2.8-5.9c-0.2-0.3,0-0.7,0.3-0.9c0.3-0.1,0.7,0,0.9,0.3
		L302,164.9z"/>
</g>
<g id="Layer_2">
	<g id="invisible_box">
		
			<rect x="380.5" y="132.6" transform="matrix(0.4531 -0.8915 0.8915 0.4531 86.5027 425.926)" class="st0" width="19.8" height="19.8"/>
	</g>
	<g id="icons_Q2-4">
		<path d="M395.5,148.8c0.4,0.2,0.9,0,1.1-0.4c0.2-0.4,0-0.9-0.4-1.1l0,0l-2.3-1.1c0.1-0.3,0.2-0.6,0.3-0.9c1.8,0.4,3.7-0.5,4.6-2.2
			c0.2-0.4,0-0.9-0.4-1.1c-0.4-0.2-0.9,0-1.1,0.4c-0.5,1-1.7,1.6-2.8,1.3c0.1-0.8,0-1.5-0.2-2.2c0.4-0.3,0.7-0.7,0.9-1.1
			c0.2-0.5,0.4-1.1,0.4-1.6l0,0c0.4-0.8,1.4-1.1,2.2-0.7c0,0,0,0,0,0c0.4,0.2,0.9,0,1.1-0.4c0.2-0.4,0-0.9-0.4-1.1
			c-1.2-0.6-2.6-0.4-3.6,0.4c-0.6-0.9-1.6-1.4-2.6-1.3c0.1-1.3-0.6-2.6-1.8-3.2c-0.4-0.2-0.9,0-1.1,0.4c-0.2,0.4,0,0.9,0.4,1.1
			c0.8,0.4,1.1,1.4,0.7,2.2c0,0,0,0,0,0l0,0c-0.5,0.3-0.8,0.8-1.1,1.3c-0.2,0.4-0.3,0.9-0.4,1.3c-0.7,0.3-1.4,0.6-1.9,1.1
			c-0.9-0.7-1.2-2-0.6-3c0.2-0.4,0-0.9-0.4-1.1c-0.4-0.2-0.9,0-1.1,0.4c-0.8,1.7-0.5,3.7,0.9,5c-0.2,0.2-0.4,0.5-0.6,0.8l-2.3-1.2
			c-0.4-0.2-0.9,0-1.1,0.4c-0.2,0.4,0,0.9,0.4,1.1l2.2,1.1c-0.1,0.3-0.2,0.6-0.3,0.9c-1.8-0.4-3.7,0.5-4.6,2.2
			c-0.2,0.4,0,0.9,0.4,1.1c0.4,0.2,0.9,0,1.1-0.4l0,0c0.5-1,1.7-1.6,2.8-1.3c-0.5,2.4,1,4.7,3.4,5.2c1.5,0.3,3.1-0.2,4.2-1.4
			c0.9,0.7,1.1,2,0.6,3c-0.2,0.4,0,0.9,0.4,1.1c0.4,0.2,0.9,0,1.1-0.4c0.8-1.7,0.5-3.7-0.9-5c0.2-0.2,0.4-0.5,0.6-0.8L395.5,148.8z
			 M388.1,148.8c-0.2,0.4-0.7,0.6-1.1,0.4c-0.4-0.2-0.6-0.7-0.4-1.1l3.7-7.4c0.2-0.4,0.7-0.6,1.1-0.4c0,0,0,0,0,0
			c0.4,0.2,0.5,0.7,0.4,1.1L388.1,148.8z"/>
	</g>
</g>
</svg>
