<svg id="template" xmlns="http://www.w3.org/2000/svg" width="655" height="493" viewBox="0 0 655 493"><title>03 TRUNK</title><path d="M294.272,352.769a26.7,26.7,0,0,0,4.114-8.625c3.184-12.585,3.142-25.442,3.026-38.345-.042-4.636-.254-9.163.484-13.812.654-4.119,1.282-8.274,2.217-12.34,1.675-7.28,2.692-15.7,1.2-23.136l46.831-.743c-.128,3.363-.12,6.736-.1,10.09.1,16.341,1.69,32.428-.328,48.715Q351.04,320,350.6,325.446a32.085,32.085,0,0,0,1.786,14.322,46.1,46.1,0,0,0,2.414,5.581l4.74,6.822q.289.308.587.6Z" fill="#f5f5f5"/><path d="M319.14,413.591l-.028,0C319.125,413.646,319.133,413.625,319.14,413.591Z" fill="none" stroke="#000" stroke-linecap="round" stroke-linejoin="round"/><path d="M319.14,413.591l-.028,0C319.125,413.646,319.133,413.625,319.14,413.591Z" fill="none" stroke="#000" stroke-linecap="round" stroke-linejoin="round" stroke-dasharray="2 4"/><path d="M360.125,352.031q-.3-.3-.587-.6l-4.74-6.822a46.1,46.1,0,0,1-2.414-5.581A32.085,32.085,0,0,1,350.6,324.7q.442-5.448,1.114-10.874c2.017-16.287.423-32.374.328-48.715-.02-3.354-.027-6.726.1-10.09" fill="none" stroke="#000" stroke-linecap="round" stroke-linejoin="round" stroke-dasharray="2 4"/><path d="M305.309,255.768c1.5,7.435.479,15.857-1.2,23.136-.935,4.066-1.563,8.221-2.217,12.34-.738,4.649-.526,9.176-.484,13.812.116,12.9.158,25.76-3.026,38.345a26.7,26.7,0,0,1-4.114,8.625" fill="none" stroke="#000" stroke-linecap="round" stroke-linejoin="round" stroke-dasharray="2 4"/><path d="M319.14,413.591c-.007.034-.015.054-.028,0Z" fill="none" stroke="#000" stroke-linecap="round" stroke-linejoin="round" stroke-dasharray="2 4"/></svg>