<?xml version="1.0" encoding="utf-8"?>
<!-- Generator: Adobe Illustrator 21.0.0, SVG Export Plug-In . SVG Version: 6.00 Build 0)  -->
<svg version="1.1" id="图层_1" xmlns="http://www.w3.org/2000/svg" xmlns:xlink="http://www.w3.org/1999/xlink" x="0px" y="0px"
	 viewBox="0 0 655 494" style="enable-background:new 0 0 655 494;" xml:space="preserve">
<style type="text/css">
	.st0{fill:#87B26B;}
</style>
<title>Chatbot 03 (TRUNK)</title>
<path class="st0" d="M317.7,420L317.7,420C317.7,420,317.7,420,317.7,420z"/>
<path d="M352.4,339c-1.7-4.6-2.3-9.5-1.8-14.3c0.3-3.6,0.7-7.3,1.1-10.9c2-16.3,0.4-32.4,0.3-48.7c0-8.1,0-16.4,1.8-24.4
	c0.1-0.2,0.1-0.5,0.2-0.7l0,0l-49,14.4c0,0,0,0,0,0.1c0,0,0,0,0,0.1c0,0.1,0,0.2,0.1,0.3c1.7,7.6,0.7,16.4-1,23.9
	c-0.9,4.1-1.6,8.2-2.2,12.3c-0.7,4.6-0.5,9.2-0.5,13.8c0.1,12.9,0.2,25.8-3,38.3c-1.2,4.1-3.2,7.9-6,11.2l67.2-3.1
	C356.4,347.8,353.9,343.6,352.4,339z"/>
<path d="M319.1,413.6L319.1,413.6C319.1,413.6,319.1,413.6,319.1,413.6z"/>
</svg>
