<?xml version="1.0" encoding="utf-8"?>
<!-- Generator: Adobe Illustrator 21.0.0, SVG Export Plug-In . SVG Version: 6.00 Build 0)  -->
<svg version="1.1" id="图层_1" xmlns="http://www.w3.org/2000/svg" xmlns:xlink="http://www.w3.org/1999/xlink" x="0px" y="0px"
	 viewBox="0 0 655 494" style="enable-background:new 0 0 655 494;" xml:space="preserve">
<style type="text/css">
	.st0{fill:#CBCBCB;}
</style>
<title>Chatbot 05 (LEAVES)</title>
<g id="base">
	<path class="st0" d="M480.3,225.7c-0.3-1.8-0.4-3.7-1.4-5.1c1.8-0.2,3.4,0.3,5.1,0.5c0.7,0.1,1.4,0,2.1-0.1
		c0.4-0.1,1.6-0.7,1.9-0.6c-1.4-0.4-2.7-1.3-3.7-2.4c1.5,0.1,3,0.1,4.5-0.2c1.5-0.3,2.9-1,3.9-2.2c0.1-0.1,0.2-0.3,0.3-0.5
		c0-0.2,0-0.5-0.1-0.7c-0.9-2.4-1.7-4.9-3.9-6.2c2.3-0.4,4.3-1.5,5.9-3.2c0.4-0.4,0.8-1,1.1-1.5c1.1-2.1,0.6-4.7,0.1-7
		c-3.7-0.7-7.5-0.8-11.3-0.3c-1.6,0.1-3.2,0.4-4.8,0.8c-1.3,0.4-1.8,1.2-2.8-0.2c-1.1-1.5-1.7-3.2-0.3-4.5c1.4-1.3,3-2.3,4.9-2.9
		c-0.5-2.7-2.6-4.9-4.5-6.9c-1.5-1.6-3-3.2-4.6-4.7c-3.1-2.5-6.2-4.9-9.3-7.4c-0.9-0.7-1.7-1.4-2.5-2.3c-1.8-2.1-2.5-5.1-4.6-6.9
		c1.6-0.1,3.3-0.4,4.8-1.1c0.3-0.1,0.6-0.3,0.8-0.5c-1-1.5-2.1-3-3.4-4.3c-0.6-0.7-1.4-1.2-2.2-1.6c0.9,0.1,1.9,0,2.8-0.3
		c0.6-0.3,1.2-0.5,1.9-0.6c-0.4-1.3-1.1-2.6-2-3.6c1.1,0.4,2.2,0.4,3.3,0.2c0.3-0.1,0.6-0.2,0.9-0.4l0.6-0.4
		c-1.3-2.2-2.8-4.3-4.6-6.1c1.6-0.6,2.5-2.6,3.1-4.1c0-0.1,0-0.2,0-0.2c0-0.1-0.1-0.1-0.2-0.2c-1.9-1-3.7-2.2-5.3-3.8
		c-0.2-0.1-0.4-0.4-0.4-0.6c-0.2-1,2.2-0.6,2.7-0.7c3.7-0.7,6.7-3.5,7.6-7.2c0.2-0.7,0.1-6.3,0.2-6.4c-0.2,0-0.2-0.1-0.3,0
		c-3.6,1.9-7.7,0.4-11.6,1.1c-3.3,0.6-6.9,3.3-6.8,7c0.1,1.4,0.4,2.7,1,4c0,0.1,0,0.1,0,0.2c0,0.1-0.1,0.1-0.2,0.1
		c-0.9,0.2-1.8,0.2-2.6-0.1c-0.5-0.2-1-0.5-1.3-0.9c-0.3-0.6-0.5-1.4-0.4-2.1c0-0.8-0.1-1.8,0.5-2.3c3.7-3.4,5-8.7,3.2-13.4
		c0-0.1-0.1-0.3-0.2-0.4c-0.1-0.1-0.3-0.1-0.5-0.1c-3,0.2-5.9,1-8.6,2.2c-1.6,0.7-3,1.8-4.2,3.1c-0.9,0.9-1.3,2.2-1,3.5
		c-2-1.6-4.6-2.4-7.2-2.3c-0.2,0-0.3,0-0.5,0c-0.1-0.1-0.3-0.2-0.4-0.3c-1.1-1.5-1.6-3.2-1.6-5.1c-0.1-1.4,0-2.7,0.3-4.1
		c0.4-1.3,0.6-3,1.9-3.3c3-0.8,5.6-2.7,7.2-5.3c0.1-0.1,0.1-0.2,0.1-0.3c0-0.2-0.2-0.3-0.4-0.4c-2.3-1.2-4.5-2.7-6.4-4.3
		c-3.6-3.4-12.5-4.3-13.6,2c-0.2,1.6,0.3,3.2,1.3,4.4c0.4,0.2,0.6,0.8,0.4,1.2c0,0,0,0.1-0.1,0.1c-0.3,0.4-0.8,0.7-1.3,0.8
		c-1.3,0.3-2.7,0.2-4,0.6c-1.2,0.5-2.3,1.4-3.1,2.4c-0.4,0.4-0.4,0.1-0.6,0.6c-1.6,3.7-2.1,7.9-1.5,11.9c-2,0-4,0.3-5.9,0.8
		c-1.7,0.3-3.4,0.8-5,1.4c1.6-0.8,2.7-2.2,3.1-3.9c-2.7-0.8-5.3-1.8-8-2.4c-0.7-0.2-8.1-1.7-8.3-1.1c0.1-0.6,1.1-0.9,1-1.6
		c0-0.4-0.4-0.6-0.7-0.8l-2.3-1.3c-1.9-1-2.1-3.4,0.1-4.2c3.1-1,6.6,0,8.7,2.5c1.2,1.4,2.9,2.3,4.7,2.7c1.8,0.4,3.7,0.4,5.5,0.2
		c1.9-0.1,3.7-0.8,5.2-2.1c0.5-0.6,1-1.2,1.3-1.9c1.2-2.3,2.1-4.8,2.6-7.4c-0.7-0.9-1.6-1.7-2.6-2.3c-1.1-0.6-2.3-1.1-3.5-1.4
		c1.9-0.6,3.9-0.9,5.8-1.4c1.7-0.6,3.4-1.4,4.8-2.5c1.6-1.1,2.4-3,2.1-4.8c-0.2-0.8-0.4-1.6-0.9-2.3c-1.8-3.3-4.8-5.8-6.6-9.1
		c-1,0.7-2,1.4-3,2.2c-3.3,3.2-6,7-8.1,11.1c-1.6-0.1-3.1-0.1-4.7,0.1c-0.1,0-0.2,0-0.3,0.1c0,0.1-0.1,0.1-0.1,0.2
		c-0.3,1.8-1.5,2.5-2.9,3.3c-4.1,2.3-6.6,5.9-9.5,9.7c-1.5,1.9-3.2,3.7-5.1,5.2c-0.2,0.2-0.4,0.3-0.6,0.4c-0.3,0.1-0.6,0.1-0.9,0.1
		c-1.1,0.1-1.8,1-2.8,1.3c-0.8,0.2-1.6-0.2-2.3,0.5c-0.5,0.5-0.6,0.4-0.7,1.1c-0.2,0.7-0.3,1.5-0.2,2.3c0.1,0.8,0.6,1.5,1.4,1.8
		c0.8,0.3,1.8-0.1,2.5,0.3c0.9,0.5,0.8,1.8,0.6,2.8c-0.6-0.3-1.2-0.4-1.8-0.6c0.6,2.2,0.9,4.5,0.8,6.8c-2.2-1.8-4.2-3.8-5.9-6
		c-1.6-2.2-2.8-4.6-4.5-6.7c-1.5-1.9-3.4-3.4-5.6-4.4c-1.7-0.9-3.3-0.9-5.2-1.1c0-1.3,0.1-2.6,0.1-3.8c1.4,0.6,2.9,0.8,4.4,0.5
		c1.5-0.1,2.9-0.3,4.4-0.5c0.7-0.1,1.5-0.2,2.2-0.5c0.9-0.4,1.7-1.1,2.2-2c0.4,0.6,1.2,0.7,1.8,0.3c1.2-0.8,2.7-1.2,4.1-1.1
		c1.5,0,2.9,0.4,4.3,0.5c3.4,0.2,6.8-0.6,9.7-2.5c1.2-0.6,2.1-1.7,2.4-3c0.5-1.8,0.7-3.6,0.4-5.4c-0.6-2.7-3.3-4.9-5.9-5.5
		c-0.8-0.2-3.5-0.7-4.1,0.1c1.2-1.4,1.5-3.4,0.8-5.1c-2.5-0.2-5-0.6-7.5-0.8c-4-0.3-8,0-11,2.8c-0.8,0.8-1.5,1.6-2.1,2.5
		c-0.4,0.8-1.1,1.5-1.9,2c-0.1,0-0.2,0.1-0.2,0.1c-0.2,0-0.2-0.2-0.3-0.4c-0.4-1.5-1-2.8-1.9-4.1c-2.7-3.9-6.7-6.7-11.3-7.8
		c-0.3,2.6,0,5.2-0.7,7.8c-0.3,1.1-0.9,2-1.7,2.8c-0.8,0.7-1.7,1.4-2.6,2c-0.4,0.2-0.3,0.4-0.8,0.4c-2.4-0.3-4.7,0.5-6.5,2.1
		c-0.4,0.4-0.8,0.8-0.9,1.4c-0.1,0.3-0.1,0.7,0,1c0.1,0.9,0.3,1.8,0.6,2.6c0.2,0.6,0.7,1.2,0.3,1.8c-1.2,0.4-2.1,1.3-2.6,2.5
		c-1.3,2.1-1.6,4.6-1,7c-1.4-0.1-2.8-0.1-4.2,0.1c0-0.2,0-0.4,0-0.7c0.1-1.9-0.5-3.7-1.6-5.2c-0.7-0.9-1.7-1.6-2.4-2.5
		c-1.4-1.7-2.5-3.5-3.5-5.5c-0.9-1.8-2.4-4.8-4.7-4.8c0.2-0.6,0.5-1.2,0.7-1.8c0.3-0.8,0.6-1.7,0.7-2.5c0,0,3.1-0.2,3.3-0.2
		c1-0.1,1.9-0.6,2.4-1.4c0.8,1,1.5,1.3,2.3,2.3c0.9,1.2,2.6,1.5,4.1,1.5c1.3,0.1,2.6,0,3.9-0.3c1.3-0.3,2.4-1,3.2-2
		c1.7-2.2,2-6.2,1.2-8.8c-4.2-1.6-8.9-0.2-11.5,3.6c-0.3,0.4-0.5,0.8-0.7,1.3c-0.1,0.3-0.2,0.5-0.4,0.7c-0.2,0.2-0.5-0.1-0.6-0.3
		c1.1-1.7,1.4-3.8,0.9-5.7c-0.5-1.9-1.7-2.3-3-3.8c-1-1.1-2.4-1.9-3.9-2.2c-2.5-0.7-5.1-0.9-7.7-0.7c-0.7,0-1.3,0.2-1.8,0.6
		c0.5,0.5,0.4,0.7,0.8,1.2c0.8,1,1,2.4,0.5,3.6c-0.5,1.2-1.1,2.3-1.9,3.3c-1.9,3-3.1,6.5-3.4,10.1c-0.1,1.6,0,3.3-0.1,4.9
		s-0.2,3.1,1,4.3c0.7,0.7,1.5,1.2,2.3,1.6c0.3,0.1,0.7,0.1,0.7,0.4c-0.7,1.2-0.8,2.7-0.3,4c0,0.1,0,0.3-0.1,0.3
		c-0.9-0.1-1.8-0.2-2.7-0.1c-0.9,0-1.8,0.3-2.6,0.7c0,0-0.1,0-0.1,0c0,0,0-0.1,0-0.1s0,0,0-0.1c0.1-1.7-0.8-3.4-2.3-4.2
		c-1.5-0.8-3.2-1.1-4.9-0.9c-1.2,0-2.4,0.3-3.5,0.8c-1.3,0.7-2.4,1.6-3.3,2.7c-2.5,2.5-5,5.3-5.6,8.8c-0.1,1.1-0.2,2.2-0.1,3.2
		c-0.8-1-1.1-2.2-0.9-3.4c0.3-1.1,0.8-2.1,1.5-3c2.5-3.5,5.4-6.4,7.1-10.4c1-2.1,0.9-4.6-0.2-6.7c-3.8-6.1-12.7-4.9-18.1-1.9
		c-0.6,0.3-1.2,0.8-1.2,1.5c0,0.5,0.4,1.1,0.1,1.5c-0.1-0.1-0.1,0.3-0.1,0.2c-0.4-1.3-1.1-2.5-2-3.5c-1.3-1.5-2.9-2.8-4.7-3.7
		c-0.6-0.3-3.9-2.2-4.4-1.3c0,0,0,0.1,0,0.1c0.2,1.4,0.1,2.9-0.4,4.2c-0.5,1.5-1.3,2.9-1.7,4.5c-0.4,1.6-0.3,3.3,0.2,4.8
		c0.9,2.8,3.6,4.3,6.4,4.5c0.4,0,0.7,0.1,1,0.3c0.3,0.2,0.4,0.6,0.2,0.9c-0.2,0.2-0.4,0.3-0.7,0.3c-1.8,0.1-3.7-0.6-5.4,0
		c-0.5,0.3-1,0.4-1.5,0.5c-0.4-0.1-0.7-0.2-1.1-0.5c-4.2-2.5-9.6-1.6-12.9,2c-0.3,0.3-0.6,0.8-0.7,1.2c-0.1,0.4-0.1,0.8,0,1.2
		c0.2,1.3,0.1,2.1,0.7,3.2l4.7,8.3c1.4,2.5,3.1,4.5,4.2,7.1c1,1.9,1.2,4.1,0.5,6.1c-1,4.6-0.4,9.1-4,12.2c-1.6,1.3-3.5,2.2-5.4,2.8
		c-0.3,0.1-0.7,0.2-1.1,0.3c-0.2,0-0.3,0-0.4-0.1c-0.1-0.1-0.1-0.2-0.1-0.3c-0.4-1.3-0.6-1.9,0.1-3.1l2.3-3.8
		c0.7-1.1,1.3-2.3,1.7-3.6c0.3-1.6,0.4-3.2,0.2-4.7c-0.3-3.3-0.4-7.1-1.8-10.2c-1.4-2.7-3.5-5-6-6.8c-0.2-0.1-0.3-0.2-0.6-0.2
		c-0.5,0-0.7,0.6-0.7,1.1c0,1.6-0.3,3.2-1,4.7c-0.7,1.2-1.4,2.3-2.2,3.4c-0.9,1.2-2.3,2-3.8,2.3c-3.8,1-6.4,2.7-9.5,5.1
		c-0.6,0.6-0.7,1.5-0.2,2.2c0.5,0.7,1.1,1.2,1.8,1.6c0.8,0.5,1.4,1.1,1.9,1.9c-2.6-0.7-5.3-1-7.9-0.9c-0.9,0-1.7,0.2-2.6,0.4
		c-0.3,3-0.1,6.1,0.4,9.1c0.2,1.3,0.7,2.6,0.2,3.9c-0.5,1.2-0.8,2.4-1,3.6c-0.4,2.8,0.6,5.6,1.6,8.2l3.4,9.2
		c0.5,1.4,1.2,2.9,1.7,4.4s0.5,2.8,0.8,4.1c0.2,0.6,0.8,0.8,1.4,0.9c0.9,0.1,1.9,0.1,2.8,0.2c0.4,0,2.3,0.1,2.5,0.6
		s-1.8,1.4-2.1,1.7c-0.8,0.5-1.6,1-2.4,1.6c-0.1,0.1-0.1,0.1-0.2,0.1c-0.1,0-0.2-0.1-0.3-0.3c-0.2-0.5-0.3-1.1-0.2-1.7
		c-1.1,0.6-2.1,1.3-3,2.2c-1,1-1.9,2.1-2.6,3.2c-1.1,1.7-1.7,3.6-2.7,5.4c-0.6,1.3-1.7,2.4-3,3c-1.4,0.6-2.7,1.4-3.8,2.5
		c-1.7,1.6-3.1,3.4-4.2,5.4c-0.2,0.2-0.3,0.5-0.3,0.8c0,0.3-0.1,0.6,0.2,0.7c1.6,2.3,4.1,3.8,6.9,4.2c0.5,0.1,1.2,0,1.4,0.4
		c0.9,1.5,2.3,2.7,3.9,3.5c0.8,0.4,1.6,0.7,2.4,0.9c-0.6,1.1-1,2.3-1.2,3.5c0,1.3,0.1,2.6,0.5,3.9c0.2,1,1.2,2.3,2.3,1.3
		c0.7-0.5,1.5-0.9,2.3-1.1c0.6-0.2,1.2-0.3,1.8-0.2c0.9,0.2,0.9,1,1.1,1.8c0.1,0.9,0.6,1.6,1.2,2.2c0.6,0.5,1.3,0.8,1.7,1.5
		c0,0.1,0.1,0.1,0.1,0.2c0,0.1-0.1,0.1-0.1,0.2c-1.2,1.3-3,0.5-4.5,0.2c-1.6-0.4-3.2-1-4.8-1.6c-0.6-0.2-1.3-0.5-1.9-0.8
		c-3.4-1.8-3.2-5.6-5.6-8.2c-1.4-1.4-3.2-2.3-5.2-2.4c-1,0-2,0.1-3,0.3c-1.1,0.1-2.1,0-3.2-0.3c-1.3-0.3-2.2-1.3-3.5-1.8
		c-3.1-1.2-6.5-0.6-9.8-1.1c-1.1-0.3-2.2-0.4-3.3-0.1c-0.2-0.1-0.5,0-0.6,0.3c-0.1,0.2-0.2,0.5-0.1,0.7c-0.1,2.1-0.2,4.4,0.9,6.3
		c1.6,2.3,3.6,4.2,6.1,5.5c-0.2,0.6-0.5,1.1-0.9,1.5c-0.6,0.9-1.2,1.8-1.6,2.8c-0.4,0.6-0.6,1.4-0.7,2.1c0,0.8,0.4,1,1,1.5
		c0.7,0.4,1.4,0.7,2.1,0.9l3.9,1.1l-2.4,1.7c-0.1,0-0.1,0.1-0.1,0.2c0,0.1,0.1,0.2,0.3,0.3c1.3,0.4,2.7,0.6,4.1,0.6
		c1.2,0.1,2.4,0,3.7,0c0.1,0,0.3,0,0.4,0.1c0.1,0.1,0.2,0.3,0.1,0.5c-0.1,0.4-0.2,0.8-0.4,1.2c-1.3,3.3-1.5,7.1-0.4,10.5
		c0,0.1,0.1,0.3,0.2,0.3c0.1,0,0.2,0,0.3,0c0.6-0.2,1.2-0.6,1.8-0.8c2.4-1,5.1-0.6,7.5-1.4c0.2-0.1,0.5-0.1,0.7-0.2
		c0.8-0.3,1.6-0.9,2.1-1.6c0.3-0.4,0.7-0.6,1.2-0.7c0.3-0.1,0.5-0.1,0.8-0.1c0.4,0.1,0.7,0.3,1,0.6c0.8,1,1.2,2.3,1.2,3.5
		c0.1,2.2,0.3,4.4,0.7,6.6c0.1,0.5,0.3,0.9,0.6,1.3c0.7,0.5,1.5,0.7,2.3,0.5c0.5-0.1,1.1-0.4,1.5-0.6c1.6-0.9,3.1-1.9,4.6-3
		c1.7-1.2,3.3-2.6,4.7-4.2c0.5-0.8,1.2-1.5,2-1.9c1-0.2,2-0.1,2.9,0.4c1.5,0.7,1.5,2.5,0.8,3.8c-0.6,1-1.5,1.9-2.5,2.6
		c-1,0.7-1.9,1.6-2.6,2.6c-0.7,1-0.8,2.3-0.3,3.4c1.1,2,0.9,4.8,2.6,6.5c-1.1,0.6-2,1.4-2.8,2.4c-0.5,0.7-0.9,1.4-1.3,2.1
		c-0.9,1.6-1.5,3.3-1.8,5.1c-0.6,2.6-0.6,5.4-0.1,8c0,0.1,0.1,0.1,0.1,0.1c1,0.1,2,0.2,3,0.1c1.1,0,2.2-0.1,3.3-0.2
		c2.2-0.2,4.3-0.7,6.4-1.4c0.8-0.2,1.5-0.4,2.3-0.5c0.8-0.2,1.5-0.4,2.3-0.7c0.1,0,0.2-0.1,0.3-0.1c0.7-0.1,1,0.5,1.4,1
		s0.8,1,1.2,1.5c0.8,1,1.7,1.9,2.8,2.7l0.2,0.1c1.8-0.6,3.3-1.6,4.6-3c0.4-0.4,0.7-0.9,1.1-1.4c1.7,1.5,3.7,2.6,5.8,3.3
		c1.5,0.7,3.1,1.2,4.7,1.6c0.3,0.1,0.6,0.1,0.8,0.1c0-0.2-0.1-0.4-0.1-0.5c-0.2-0.6-0.3-1.2-0.3-1.8c0.1-2.3,0.5-4.2,0.6-6.5
		c0.1-1.1,0.1-2.3,0-3.4c-0.1-1.2-0.6-2.4-1.4-3.4c-1.1-0.8-2.3-1.4-3.6-1.6c-0.9-0.2-1.8-0.3-2.7-0.3c-0.7,0-1.8,0.5-2.4,0
		c-0.1-0.1-0.2-0.2-0.3-0.3c-1.5-2.2-2.5-4.5-4.9-6c-1-0.7-2.1-1-3.2-1.1c-0.3,0-0.6,0-0.8-0.2c-0.9-0.8,1.2-2.7,1.7-3.2
		c0.9-1,2.1-1.7,3.3-2c1.2-0.2,2.4-0.1,3.6,0.2c1.5,0.3,2.9,0.8,4.1,1.7c1.3,1.1,2.4,2.4,3.1,4c0.8,1.5,1.3,3.2,2.1,4.7
		c0.3,0.9,0.8,1.6,1.5,2.3c1.7,1.6,3.7,2.6,6,2.9c0.4,0.1,1.1,0.2,1.4,0c0.6-0.4,1-1.1,1.2-1.8c0.6-2,0.7-4.1,0.3-6.1
		c-0.4-2.1-1.6-3.9-3.4-5.2c-1-0.7-2-1.2-3-2c-0.3-0.2-0.5-0.5-0.7-0.8c-0.1-0.3-0.3-0.8,0-0.9c2.4-0.7,4.7-1.7,6.8-3
		c0.3-0.2,0.7-0.5,0.9-0.8c0.2-0.3,0.5-0.6,0.2-0.9c-0.5-0.7-1-1.4-1.6-2.1c-1.2-1.2-2.8-1.9-4.1-3.1c-1.3-1.5-2.4-3.2-3.4-4.9
		c-0.6-1.3-1.6-2.3-2.9-3c-1.3-0.6-2.8-0.7-4.2-0.4c-0.9,0.1-1.7,0.4-2.3,1c-0.6,0.7-1,1.5-1,2.4c0,0.9,0.1,1.8,0.3,2.7
		c0.1,0.7,0.3,1.9-0.6,2.2s-1.2-0.8-1.3-1.4c-0.3-2.5-1.9-3.7-4.2-4.2c-2-0.4-4.3-0.6-5.8-2.1c-0.3-0.4-0.6-0.8-0.9-1.2
		c-0.9-1.3-2-2-2.8-3.3c-0.7-0.9-1.9-1.3-3-1c-0.9,0.2-1.9,0.6-2.7,0.1c-0.2-0.2-0.4-0.4-0.6-0.6c-0.8-1-1.9-1.9-3-2.6
		c-0.8-0.5-3-1-2.9-2.2c0-0.5,0.5-0.8,0.9-1.1c1-0.6,2-1,3.1-1.4c2.1-0.7,3.6-2.3,5-3.9s2.9-3.5,5.2-4.1c2.5-0.7,5.6,0.1,8,1.1
		c0.6,0.3,1.3,0.6,2,0.7c0.7,0.1,1.4-0.2,1.8-0.8c0.1-0.4,0.1-0.9,0-1.3c-0.1-1.4-0.7-2.7-1.6-3.7c-1-0.9-1.4-2.3-2.7-2.8
		c-1.3-0.5-2.8-0.1-3.6,1c-0.3,0.6-0.5,1.2-0.6,1.8l-0.2,1.3c0.1,0.2,0,0.3-0.3,0.4c-0.3,0.1-0.6,0.1-0.8,0.1
		c-1-0.1-1.9-0.8-2.2-1.8c-0.1-0.5-0.1-1,0-1.5c0.1-1.6-0.3-3.2,0-4.9c0.2-1.1,0.9-2,1.1-3c0.2-1.2,0-2.5-0.6-3.6
		c-0.5-1-1.2-1.9-2.1-2.7c-1.7-1.4-2.1-3.9-2.1-5.9c0-1.1,0.2-2.2,0.6-3.2c0.7-1.1,1.2-2.3,1.7-3.5c0.2-0.9,0.2-1.8,0.1-2.7
		c0-0.4-0.1-0.2,0.2-0.5c0.3-0.3,0.6-0.6,1-0.8c0.2-0.1,0.5-0.2,0.7-0.2c1.7-0.1,2.8,3,3.9,4c1.2,1.1,2.6,2,4.2,2.5
		c1.7,0.4,3.5,0.2,5.1-0.5c1.6-0.4,2.9-1.6,3.5-3.1c4.5,1.5,9.6-1.7,9.3-6.6c-0.1-1.5-0.3-3-0.4-4.5c-0.2-1.8,0.2-3.5,1-5.1
		c-1.6,0.1-3.2,0.3-4.9,0.5c-1.1,0.1-2.1,0.3-3.1,0.6c-0.2-0.1,0.4-0.3,0.2-0.2c-0.1,0-0.2,0.1-0.3,0.1c-0.2,0-0.3-0.4-0.2-0.6
		c0.2-1,0.6-1.9,0.7-2.9c0.2-1,0.1-2-0.4-2.9c-0.5-1.1-1.4-2-2.6-2.4c-0.6-0.2-1.1-0.3-1.7-0.5c-1.1-0.4-2-1.2-3.1-1.6
		c-1.9-0.5-3.9,0.2-5,1.8c-1.1,1.6-1.1,3.7-0.2,5.5c1.4,2.6,4.4,3.8,6.1,6.2c0.4,0.5,0.6,1,0.6,1.6c0,0.6-0.5,1.1-1.1,1.2
		c-0.4,0-0.8-0.2-1.1-0.5c-1.6-1.1-3.6-1.7-5.5-1.8c-2.1,0-3.7,0.1-4.4-2.3c-0.2-1.1-0.3-2.2-0.3-3.3c-0.1-1.5-0.5-3.1-1.1-4.5
		c-0.7-1.7-2-3.3-3.8-3.6c-0.9-0.2,0-1.4,0.6-2c0.7-0.5,1.6-0.8,2.5-0.7c1.2,0,2.4,0,3.6,0.2c1.9,0.2,3.7,0.7,5.6,1
		c1.9,0.3,3.8,0.1,5.5-0.6c2.3-1.1,3.4-3.4,4.6-5.4c2.1-3.4,2.3-7.1,2-11c-0.1-0.7-0.3-1.5-0.3-2.2c0-0.3,0.3-0.6,0.6-0.6
		c0.3,0,0.6,0,0.9,0.1c2.2,0.3,4.5,0.3,6.6-0.1c1.7-0.4,3.6,0.2,4.8,1.5c0.4,0.4,0.7,0.9,0.8,1.5c0,1-1,1.6-1.9,2l-1.8,0.9
		c-0.5,0.2-1,0.5-0.9,1c0,0.2,0.1,0.4,0.2,0.5c2.1,3.7,5.1,6.8,8.9,8.8c0,0.1-0.2,0.2-0.2,0.3c-1,0.2-1.9,0.4-2.9,0.5
		c0,0.8,0.1,1.6,0.5,2.4c0.9,2.5,2,4.9,3.4,7.2c1.7,2.4,4,4.5,7,4.8c3.7,0.4,7.1-2.8,9.1-5.6c2.1,0.5,4.3,0.8,6.5,0.7
		c3-0.2,5.8-1.1,8.3-2.8c1.1-0.9,1.9-2.1,2.4-3.4c0.7-1.3,1.8-1.7,3.3-1.7c1.3,0,2.5,0.2,3.7,0.5c1.1,0.3,2.2,1.1,3.2,1.5
		c1.4,0.2,2.7,0.3,4.1,0.3c1.4,0.1,2.8,0.1,4.2-0.1c2.9-0.3,5.9-1.1,8-3.2c1.6-1.6,2.4-3.8,2.4-6c-0.1-2-1-5.2-3.1-5.9
		c-0.1,0-0.2,0-0.3,0c-0.1,0-0.2,0.1-0.3,0.2c-1,0.8-2,1.7-3,2.6c-0.6,0.6-1.4,1.1-2.2,1.2c-0.4,0-0.8-0.1-1.2-0.2
		c-3-1.1-5.6-3-7.5-5.5c-1.2-1.5-2.2-2.8-4.2-3.1c-1.6-0.2-3.3,0.2-4.6,1.2c-0.6,0.6-1.3,1-2.1,1.3c-1.4,0.2-5.1-3.2-3.3-4.1
		c0.2-0.1,0.4-0.1,0.6-0.1l5.6,0.1c1.3,0.1,2.6-0.1,3.8-0.4c1.2-0.4,2.1-1.6,2.2-2.9c-0.1-0.9-0.4-1.7-1-2.3
		c-1.9-2.2-4.6-3.5-7.5-3.5c-1.7,0-3.3,0.5-5,0.4c-1.6-0.2-3.1-0.8-4.4-1.9c-1.8-1.2-4.3-1.8-6.3-2.6c-1.8-0.8-3.7-1.3-5.6-1.4
		c-2-0.1-3.9,0.7-5.1,2.3c-1,1.6-0.9,3.6-0.7,5.4c0.1,1.4,0.6,2.7,1.4,3.8c0.2,0.3,0.3,0.6,0.4,0.9c0,0.4-0.1,0.7-0.3,1
		c-0.5,1-1.2,1.8-2,2.6c-0.3,0.2-0.6,0.5-0.8,0.8c-0.2,0.3-0.3,0.6-0.3,1c-0.2,1.5,0.3,2.9,1.4,4c0.5,0.5,1.1,1,0.9,1.6
		c-0.5,0.3-1.2,0.3-1.7-0.1c-0.5-0.4-0.9-0.9-1.2-1.4l-2.4-3.8c-1-1.5,0.3-2.8,0.6-4.6c0.6-3.6,1.2-7.3,3-10.5
		c0.9-1.4,1.6-2.9,2.3-4.5c0.2-0.5,1.4-3.9,1.1-4.1c0.5,0.2,0.6,0.7,0.9,1c0.3,0.4,0.7,0.7,1.1,1c0.8,0.6,1.7,1,2.6,1.3
		c1.6,0.5,3.3,0.8,5,0.9c1.3,0.1,2.7,0.1,4,0c1.1,2.2,2.2,4.5,4.5,5.3c0.7,0.2,1.4,0.4,2.1,0.4c1.7,0.4,3.5,0.3,5.3-0.1
		c1.7-0.6,3.1-2.2,2.9-4c0.2,1.4,2.1,1.9,3.1,2.4c1.5,0.8,3.2,1.4,4.9,1.8c1.3,0.1,2.6-0.1,3.9-0.4c1.5-0.1,3,0,4.5,0.3
		c3,0.6,6,1.5,8.9,2.7c2,0.8,3.6,3.6,4.5,5.5c0.2,0.5,0.4,1,0.7,1.5c0.5,0.8,1.2,1.4,1.9,2c1.5,1.2,3.4,2.5,5.3,2
		c2.7-0.7,5.2,1.3,8,1.1c2.8-0.1,5.5-1.5,7.2-3.8c0.5-0.9,0.9-1.8,1.2-2.8c0.1-0.5,0.1-2.4,0.5-2.7c0.9-0.9,1.9,0.9,2.4,1.5
		s0.8,0.8,1.2,1.3c0.7,0.9,0.9,2,0.6,3.1c-1.7,0.4-3.3,1.2-4.7,2.2c-0.1,0.1-0.2,0.2-0.3,0.3c0,0.1,0,0.3,0,0.4
		c0.7,2.3,2.3,4.3,4.4,5.6c0.4,0.2,0.1,1.1-0.2,1.5c-0.3,0.4-0.9,0.5-1.3,0.2c-0.3-0.2-0.6-0.5-0.8-0.9c-0.4-0.6-1-1.1-1.7-1.4
		c-0.7-0.2-1.4-0.4-2.1-0.4c-2.8-0.3-5.6-0.5-8.4-0.5c-0.2-0.2-0.6-0.1-0.8,0.2c-0.2,0.3-0.3,0.7-0.2,1c-0.1,1.2,0,2.4,0.1,3.6
		c0.3,1.6,1.1,3,2.2,4.2c1.6,1.5,3.8,2.5,6,2.7c1.3,0.1,2.9-0.3,4.2-0.1s1.8,1.5,2.4,2.6c4,7,12.8,9.5,19.8,5.5
		c0.7-0.4,1.3-0.8,1.9-1.3c0.4-0.3,0.8-0.6,1-1.1c0.2-0.5,0.2-1,0.1-1.5c-0.3-2.1-1.4-4-3-5.3c0.4-0.3,0.7-0.7,0.9-1.1
		c0.8-1.2,0.9-2.8,1.2-4.2c0.2-0.9,0.6-1.7,1-2.5c0.5-1.2,1.3-2.3,2.4-3.2c0.3-0.2,0.5-0.5,0.4-0.8c0-0.1-0.1-0.2-0.2-0.2
		c-1.1-1-2.6-1.1-4-1.4c-1.6-0.3-3.3-0.4-5-0.2c-0.6,0.1-2,0.6-2.4,0c-0.3-0.4,0.1-1.2,0.3-1.6c0.2-0.3,0.6-0.6,0.9-0.9
		c1.7-1.1,4-2.3,6.1-1.9c0.8,0.2,1.6,0.5,2.4,0.6c0.9,0.1,1.8,0.1,2.7,0c1.9-0.2,3.7-0.7,5.5-1.4c3.6-1.3,7.6,0.1,9.7,3.4
		c0.2,0.3,0.4,0.8,0.4,1.2c-0.1,1-1.4,1.3-2.4,1.7c-2.3,0.8-3.8,2.9-4,5.2c-0.1,2.7,2.6,5.2,4.3,7l7,7.7c1,1.2,1.9,2.4,2.6,3.8
		c1.8,3.1,0.7,6.6,3.2,9.6c1.5,1.7,3.5,3.1,5.6,3.9c1,0.4,1,0.7,2.1,0.8c0.3,0,0.6,0.3,0.9,0.2c0.1-0.1,0.2-0.2,0.3-0.3
		c0.8-1.2,1.4-2.6,1.7-4c0.5-1.5,0.9-3,1.1-4.5c0.2-1.5,0.2-3.1,0-4.6c1.2,1,2.7,1.6,4.3,1.6c0-0.1-0.1,0.1-0.1,0.1
		c-0.9,1-1.5,2.3-1.8,3.6c-0.4,1.3-0.2,2.8,0.5,4c0.8,1.3,2.2,2.4,3.2,3.6s2,2.7,1.7,4.3c-0.8,0.7-1.5,1.5-2,2.4
		c-1.4,1.9-2.2,4-2.6,6.3c-0.3,2.3,0.7,4.6,2.6,6c-1.1,0.8-1.8,2-2,3.4c-0.3,0.8-0.2,1.6,0.3,2.3c-1.9,0.7-4,1.1-6,1.2
		c1.1-1.2,1.9-2.7,2.3-4.4c0.8-2.6,1.1-5.4,1.1-8.2c-2-0.8-4.3-0.9-6.4-0.3c-2.1,0.6-3.9,2-5.1,3.8c-0.5-2.8-2.5-4.9-5.1-6.3
		c-2.6-1.3-5.4-2-8.3-2.1c0.5,2.9-0.2,6.1-0.5,9.1c-0.3,1.9-0.1,3.9,0.5,5.8c0.2,0.7,0.5,1.3,1,1.9c0.5,0.6,1.1,0.9,1.9,1
		c3.2,0.2,6.4-1.1,8.4-3.7c0.2,1.6,0.9,3.1,2.1,4.3c-1,0.5-2,1-3,1.3c-3.9,1.4-8,2.8-12.1,2.6c-2.8-0.1-5.5-0.9-8.2-0.7
		c-1.5-0.1-2.7,0.9-3.6,2.2c-0.8,1.3-1.4,2.7-1.7,4.2c-0.3,1.5-0.7,3-1.4,4.4c-0.2,0.3-0.3,0.6-0.5,0.9c0.8,0.7,1.9,1.1,3,1.1
		c1.6,0.1,3.3,0.2,4.7-0.6c2.2-1.4,2.4-4.4,3.9-6.5c0.9-1.1,2.2-1.9,3.6-2c1.4-0.1,2.7,0.4,3.7,1.4c1.9,1.7,4,3.2,5.4,5.5
		c1.5,2.3,2.3,5,2.3,7.7c0.1,1.5-0.3,2.9-1.2,4.1c-1.2,1.1-2.7,1.8-4.2,2c-3.6,0.9-7.3,1.1-11,0.5c0.4,3.6,2.7,6.7,6.1,8.2
		c-2.6,1.5-4.8,3.5-6.5,5.9c-1.6,2.4-2.1,5.6-0.8,8.1c0.4,0.9,1,1.7,1.8,2.3c2.1-1.7,4.7-2.5,7.3-2.3c0.3,0,0.5,0,0.8,0.1
		c-1.7,2.7-2.6,5.9-2.6,9.1c0.1,1.9,0.1,3.8,0,5.7c-0.1,0.5-0.4,0.9-0.8,1.2c0.3,0.3,0.7,0.4,1.2,0.4c1.9,0.3,3.9,0.1,5.8-0.4
		c1.9-0.5,3.5-1.7,4.6-3.3c-0.3,3.3,0.9,6.5,3.1,8.9c2.2,2.5,5.4,3.9,8.7,3.9c0.2-1.2,0.1-2.5-0.1-3.7c0.7,1.3,1.8,2.4,3.1,3.2
		c1.3,0.7,2.7,1.4,4.1,1.9c0.6,0.2,1.2,0.5,1.7,0.9c1.2,0.8,2.1,1.9,2.8,3.1c2-2.5,3.8-5.4,4-8.5c0-1.1,0-2.2-0.2-3.2
		c-0.4-2.4-1.4-4.7-2.9-6.6c0.9-0.2,1.8-0.7,2.6-1.2c1,1.5,2.5,2.6,4.3,3.1c3.1,1,6.4,0.8,9.4-0.4c0.4-0.1,0.5-0.1,0.8-0.5
		c-0.3,0.3-1.1-2.5-1.2-2.6c-0.2-0.9-0.4-1.8-0.6-2.7c-0.1-0.9-0.3-1.7-0.6-2.5c2.7,1,5.8,0.9,8.4-0.4c0.8-0.4,1.6-0.9,2.4-1.2
		c0.9-0.3,1.8-0.5,2.7-0.5c0.8,0,1.6,0.5,2.4,0.4c0.5-0.1,0.4-0.2,0.4-0.6c-0.1-0.4-0.2-0.8-0.3-1.1c-0.9-3-2.8-5.7-5.4-7.5
		c-3.1-2.1-7.2-2.3-10.5-0.4c-0.8,0.5-1.4,1.1-2,1.8c-0.1-0.7-0.6-1-1-1.6l-1.2-1.8c-0.4-0.5-0.8-1-1.4-1.4c1-0.8,1.5-2.1,1.1-3.4
		c2.5-0.8,5.2-0.2,7.1,1.5c0-2.1,0.2-4.3,0.7-6.3c0.5-1.7,1.4-3.4,1.5-5.2c0-0.9-0.1-1.8-0.4-2.7c-0.2-0.5-1-1.6,0.1-1.7
		c0.4,0,0.7,0.1,1,0.4c0.2,0.3,0.5,0.5,0.7,0.8c0.8,0.9,1.8,1.6,2.9,1.9c1.2,0.5,2.5,0.8,3.8,1c1.1,0.1,2.2,0.1,3.3,0.4
		c0.9,0.1,1.8,0.4,2.7,0.8l2.1,1.2c0.3,0.2,0.8,0.9,1.2,0.8c0.6-0.2,0.5-1.9,0.5-2.4C480.8,230.2,480.6,227.9,480.3,225.7z"/>
</g>
<path d="M196.9,244.2c5.5,1.3,12.4-0.4,14.8-4.9c0.3-0.7,0.4-1.5,0.3-2.3c-0.3-1.2-0.9-2.3-1.9-3.2c-0.3-0.3-0.7-0.6-1.1-0.8
	c-0.5-0.3-1.1-0.5-1.7-0.7c0-0.1-0.1-0.2-0.1-0.3c-0.2-0.4-0.4-0.9-0.7-1.3c-0.7-0.9-1.6-1.6-2.6-2c-1.3-0.6-2.7-0.6-3.9,0.1
	C195.8,231.8,195,238.9,196.9,244.2z M199.5,234.9l5,0.1l1.6-1.8c0.2-0.2,0.5-0.2,0.7,0.1c0.1,0.2,0.2,0.4,0,0.6l-1,1.1l-0.9,1
	l-2,2.2l0.8,2.9c0.1,0.3-0.1,0.6-0.4,0.6c-0.3,0.1-0.6-0.1-0.6-0.4l0,0l-0.6-2.3l-2.7,3.1c-0.2,0.2-0.5,0.2-0.7-0.1
	c-0.1-0.2-0.2-0.4,0-0.6l3.1-3.6l0.8-0.9l1-1.1l-4.2-0.1c-0.3,0-0.5-0.2-0.5-0.5s0.2-0.5,0.5-0.5L199.5,234.9z"/>
<path d="M242.1,179.1c-5.5,2.5-10.3,8.4-9.4,13.8c0.2,0.8,0.6,1.6,1.3,2.1c1,0.9,2.3,1.4,3.6,1.5c0.5,0.1,1,0.1,1.5,0
	c0.6-0.1,1.2-0.3,1.9-0.5c0.1,0.1,0.2,0.1,0.2,0.2c0.4,0.3,0.9,0.5,1.4,0.6c1.2,0.3,2.4,0.3,3.5,0c1.5-0.3,2.7-1.3,3.2-2.7
	C251.1,188.9,247.2,182.4,242.1,179.1z M246,188.7l-4.4,3.1l-0.2,2.5c0,0.3-0.3,0.5-0.6,0.5c-0.3,0-0.5-0.3-0.5-0.6l0,0l0.1-1.6
	l0.1-1.4l0.2-3.1l-2.6-1.9c-0.2-0.2-0.3-0.5-0.2-0.7c0.2-0.2,0.5-0.3,0.7-0.2c0,0,0,0,0.1,0l2,1.5l0.3-4.4c0-0.3,0.3-0.5,0.6-0.5
	c0.3,0,0.5,0.3,0.5,0.6l-0.4,5.1l-0.1,1.3l-0.1,1.6l3.6-2.6c0.2-0.2,0.6-0.1,0.7,0.1C246.3,188.2,246.2,188.5,246,188.7L246,188.7
	L246,188.7z"/>
<path d="M272,143.7c1.1,5.5,5.4,11.2,10.5,11.4c0.8,0,1.5-0.2,2.2-0.7c1-0.7,1.7-1.8,2.1-3c0.2-0.4,0.3-0.9,0.3-1.4
	c0-0.6,0-1.2-0.1-1.8c0.1-0.1,0.1-0.1,0.2-0.2c0.3-0.3,0.6-0.7,0.9-1.1c0.5-1,0.8-2.1,0.8-3.2c0-1.4-0.6-2.7-1.7-3.5
	C282.8,137.6,276,139.7,272,143.7z M281.5,142.2l1.9,4.6l2.2,0.7c0.3,0.1,0.4,0.4,0.3,0.7c-0.1,0.2-0.3,0.3-0.6,0.3L284,148
	l-1.2-0.4l-2.8-0.9l-2.3,1.9c-0.2,0.2-0.5,0.2-0.7,0c-0.2-0.2-0.2-0.5,0-0.7c0,0,0.1-0.1,0.1-0.1l1.8-1.5l-3.9-1.2
	c-0.3-0.1-0.4-0.4-0.3-0.7c0.1-0.2,0.3-0.3,0.6-0.3l4.5,1.4l1.1,0.4l1.4,0.4l-1.6-3.9c-0.1-0.3,0.1-0.5,0.3-0.6
	C281.2,141.9,281.4,142,281.5,142.2L281.5,142.2z"/>
<path d="M321.4,87c-6.5-2.9-15.5-2.5-19.5,2.6c-0.6,0.8-0.9,1.8-0.9,2.8c0,1.6,0.6,3.1,1.6,4.4c0.3,0.5,0.7,0.9,1.2,1.3
	c0.6,0.4,1.3,0.9,1.9,1.2c0,0.1,0,0.2,0.1,0.3c0.1,0.6,0.3,1.2,0.5,1.7c0.7,1.2,1.6,2.3,2.8,3.1c1.4,1.1,3.3,1.3,4.9,0.8
	C319.9,102.7,322.5,94.1,321.4,87z M316,98l-6.2-1.3l-2.4,1.8c-0.3,0.2-0.7,0.2-0.9-0.1c-0.2-0.3-0.2-0.7,0.1-0.9l0,0l1.5-1.2l1.3-1
	l3-2.3l-0.3-3.8c-0.1-0.3,0.2-0.7,0.5-0.7c0.3-0.1,0.7,0.2,0.7,0.5c0,0,0,0.1,0,0.1l0.3,3l4.1-3.2c0.3-0.2,0.7-0.2,0.9,0.1
	c0.2,0.3,0.2,0.7-0.1,0.9l-4.8,3.7l-1.2,0.9l-1.5,1.2l5.2,1.1c0.3,0.2,0.4,0.6,0.2,0.9C316.4,97.9,316.2,98,316,98z"/>
<path d="M306.8,113c-0.6,5.6,1.8,12.3,6.6,14.1c0.7,0.2,1.5,0.2,2.3,0c1.2-0.4,2.2-1.2,2.9-2.2c0.3-0.4,0.5-0.8,0.7-1.2
	c0.2-0.6,0.3-1.2,0.5-1.7c0.1,0,0.2-0.1,0.2-0.1c0.4-0.2,0.8-0.5,1.2-0.8c0.8-0.8,1.3-1.8,1.7-2.8c0.5-1.3,0.2-2.8-0.6-3.9
	C318.9,110.4,311.8,110.4,306.8,113z M316.3,114.4l0.5,5l1.9,1.3c0.2,0.2,0.2,0.5,0,0.7c-0.2,0.2-0.4,0.2-0.6,0.1l-1.2-0.9l-1.1-0.7
	l-2.4-1.7l-2.8,1.2c-0.2,0.1-0.5,0.1-0.7-0.2s-0.1-0.5,0.2-0.7c0,0,0.1-0.1,0.2-0.1l2.2-0.9l-3.4-2.4c-0.2-0.2-0.2-0.5,0-0.7
	c0.2-0.2,0.4-0.2,0.6-0.1l3.9,2.7l1,0.7l1.2,0.8l-0.4-4.2c0-0.3,0.2-0.5,0.5-0.5C316,114,316.3,114.2,316.3,114.4L316.3,114.4z"/>
<path d="M344.6,79.9c-5.4-1.7-12.4-0.5-15.1,3.8c-0.4,0.7-0.5,1.5-0.5,2.2c0.2,1.2,0.8,2.4,1.6,3.3c0.3,0.3,0.6,0.7,1,0.9
	c0.5,0.3,1.1,0.6,1.6,0.8c0,0.1,0,0.2,0.1,0.3c0.2,0.5,0.3,0.9,0.6,1.3c0.6,0.9,1.5,1.7,2.5,2.2c1.2,0.7,2.7,0.8,3.9,0.1
	C344.8,92.4,346.1,85.4,344.6,79.9z M341.4,89l-5-0.5l-1.7,1.7c-0.2,0.2-0.5,0.1-0.7-0.1c-0.1-0.2-0.1-0.4,0-0.6l1.1-1.1l0.9-0.9
	l2.1-2.1l-0.6-2.9c-0.1-0.3,0.1-0.5,0.4-0.6c0.3-0.1,0.5,0.1,0.6,0.4l0.5,2.3l2.9-2.9c0.2-0.2,0.5-0.1,0.7,0.1
	c0.1,0.2,0.1,0.4,0,0.6l-3.4,3.3l-0.8,0.8l-1.1,1l4.2,0.4c0.3,0,0.5,0.3,0.5,0.6C341.9,88.8,341.7,89,341.4,89L341.4,89z"/>
<path d="M351.8,80.1c-3,4.8-3.8,11.8-0.2,15.6c0.5,0.5,1.2,0.9,2,1c1.2,0.1,2.5-0.1,3.6-0.7c0.4-0.2,0.8-0.5,1.2-0.8
	c0.4-0.4,0.8-0.9,1.2-1.4c0.1,0,0.2,0,0.3,0c0.5,0,0.9-0.1,1.4-0.2c1.1-0.4,2-1,2.8-1.8c1-1,1.4-2.4,1.2-3.8
	C363.9,83.1,357.5,80,351.8,80.1z M359.8,85.6l-1.8,4.7l1.1,2.1c0.1,0.3,0,0.5-0.3,0.7c-0.2,0.1-0.5,0-0.6-0.2l-0.7-1.3l-0.6-1.1
	l-1.4-2.6l-3-0.2c-0.3,0-0.5-0.3-0.5-0.5s0.3-0.5,0.5-0.5l2.4,0.1l-2-3.6c-0.1-0.3,0-0.5,0.3-0.7c0.2-0.1,0.5,0,0.6,0.2l2.3,4.1
	l0.6,1l0.7,1.3l1.5-3.9c0.1-0.2,0.4-0.3,0.7-0.2C359.7,85.1,359.8,85.3,359.8,85.6L359.8,85.6z"/>
<path d="M413.1,90.7c-3.3-5.1-9.8-9-15-7.3c-0.8,0.3-1.5,0.8-1.9,1.5c-0.7,1.1-1,2.5-0.9,3.8c0,0.5,0.1,1,0.2,1.5
	c0.2,0.6,0.5,1.2,0.8,1.8c-0.1,0.1-0.1,0.2-0.1,0.3c-0.2,0.5-0.3,1-0.4,1.5c-0.1,1.2,0.1,2.4,0.5,3.5c0.5,1.4,1.7,2.5,3.1,2.8
	C404.7,101,410.6,96.2,413.1,90.7z M404.1,95.9l-3.8-3.9l-2.5,0.2c-0.3,0-0.5-0.2-0.6-0.5c0-0.3,0.2-0.5,0.5-0.6l1.6-0.1l1.4-0.1
	l3.1-0.2l1.5-2.8c0.1-0.3,0.5-0.4,0.7-0.2c0.3,0.1,0.4,0.5,0.2,0.7l-1.2,2.2l4.4-0.3c0.3,0,0.5,0.2,0.6,0.5c0,0.3-0.2,0.5-0.5,0.6
	l-5.1,0.4l-1.3,0.1l-1.6,0.1l3.1,3.2c0.2,0.2,0.2,0.5,0,0.8C404.7,96.1,404.3,96.1,404.1,95.9L404.1,95.9z"/>
<path d="M454.4,132.6c-2.9-4.5-8.7-8-13.4-6.4c-0.7,0.3-1.3,0.7-1.7,1.4c-0.6,1-0.9,2.2-0.8,3.4c0,0.4,0.1,0.9,0.2,1.3
	c0.2,0.5,0.4,1.1,0.7,1.6c-0.1,0.1-0.1,0.2-0.1,0.2c-0.2,0.4-0.3,0.9-0.4,1.3c-0.1,1.1,0.1,2.1,0.5,3.1c0.5,1.2,1.5,2.2,2.8,2.5
	C447,141.9,452.2,137.6,454.4,132.6z M446.5,137.3l-3.3-3.4l-2.2,0.2c-0.3,0-0.5-0.2-0.5-0.4s0.2-0.5,0.4-0.5l1.5-0.1l1.2-0.1
	l2.8-0.2l1.4-2.5c0.1-0.2,0.4-0.3,0.6-0.2c0.2,0.1,0.3,0.4,0.2,0.6l0,0l-1.1,2l3.9-0.3c0.3,0,0.5,0.2,0.5,0.4s-0.2,0.5-0.4,0.5l0,0
	l-4.5,0.3l-1.1,0.1l-1.4,0.1l2.8,2.9c0.2,0.2,0.2,0.5,0,0.7C447,137.6,446.7,137.5,446.5,137.3L446.5,137.3L446.5,137.3z"/>
<path d="M480.5,193.6c-4.2-1.2-9.7-0.2-11.7,3.2c-0.3,0.5-0.4,1.1-0.3,1.8c0.2,1,0.6,1.9,1.3,2.5c0.2,0.3,0.5,0.5,0.8,0.7
	c0.4,0.2,0.8,0.4,1.3,0.6c0,0.1,0,0.1,0.1,0.2c0.1,0.3,0.3,0.7,0.5,1c0.5,0.7,1.2,1.3,2,1.7c0.9,0.5,2.1,0.5,3.1,0.1
	C480.9,203.2,481.8,197.8,480.5,193.6z M478.2,200.7l-3.9-0.3l-1.3,1.3c-0.2,0.1-0.4,0.1-0.5-0.1c-0.1-0.1-0.1-0.3,0-0.5l0.8-0.8
	l0.7-0.7l1.6-1.6l-0.5-2.3c-0.1-0.2,0-0.4,0.2-0.5s0.4,0,0.5,0.2c0,0,0,0.1,0,0.1l0.4,1.8l2.3-2.3c0.2-0.1,0.4-0.1,0.5,0.1
	c0.1,0.1,0.1,0.3,0,0.5l-2.6,2.6l-0.6,0.6l-0.8,0.8l3.2,0.3c0.2,0,0.3,0.3,0.3,0.5C478.5,200.5,478.4,200.7,478.2,200.7L478.2,200.7
	z"/>
<path d="M459.9,233c4.3-4.1,6.8-11.1,4.1-15.8c-0.4-0.7-1.1-1.2-1.8-1.6c-1.2-0.5-2.6-0.5-3.9-0.2c-0.5,0.1-1,0.3-1.4,0.5
	c-0.5,0.3-1.1,0.7-1.5,1.1c-0.1,0-0.2-0.1-0.3-0.1c-0.5-0.1-1-0.1-1.5-0.1c-1.2,0.1-2.3,0.5-3.2,1.1c-1.3,0.7-2.1,2.1-2.1,3.5
	C448.4,226.9,454.1,231.7,459.9,233z M453.2,225.4l3-4.3l-0.6-2.4c0-0.3,0.1-0.6,0.4-0.6c0.2,0,0.5,0.1,0.6,0.3l0.5,1.5l0.4,1.3
	l0.8,3l3,0.9c0.3,0.1,0.4,0.4,0.3,0.7s-0.4,0.4-0.7,0.3l-2.4-0.7l1.1,4.1c0,0.3-0.1,0.6-0.4,0.6c-0.2,0-0.5-0.1-0.6-0.3l-1.3-4.8
	l-0.3-1.2l-0.4-1.5L454,226c-0.2,0.2-0.5,0.2-0.7,0.1C453.1,225.9,453,225.6,453.2,225.4L453.2,225.4z"/>
<path d="M400.6,257.2c5.9,0,12.6-3.2,14-8.4c0.2-0.8,0.1-1.6-0.2-2.4c-0.6-1.2-1.5-2.2-2.6-2.8c-0.4-0.3-0.9-0.5-1.3-0.6
	c-0.6-0.1-1.2-0.2-1.9-0.3c0-0.1-0.1-0.2-0.2-0.2c-0.3-0.4-0.6-0.8-1-1.1c-0.9-0.7-2-1.2-3.1-1.4c-1.4-0.3-2.9,0.1-4,1.1
	C396.6,244.9,397.4,252.3,400.6,257.2z M401.1,247.1l5.2-1l1.2-2.2c0.2-0.2,0.5-0.3,0.7-0.2c0.2,0.1,0.3,0.4,0.2,0.7l-0.8,1.4
	l-0.6,1.2l-1.5,2.7l1.5,2.7c0.2,0.2,0.1,0.6-0.2,0.7c-0.2,0.2-0.6,0.1-0.7-0.2c0,0,0,0,0-0.1l-1.2-2.2l-2.1,3.8
	c-0.2,0.2-0.5,0.3-0.7,0.2c-0.2-0.1-0.3-0.4-0.2-0.7l2.4-4.4l0.6-1.1l0.8-1.4l-4.3,0.9c-0.3,0-0.5-0.2-0.5-0.5
	C400.7,247.4,400.9,247.3,401.1,247.1L401.1,247.1z"/>
<path d="M464.1,258.3c-0.9-5.8-5.2-11.9-10.6-12.4c-0.8,0-1.6,0.2-2.3,0.6c-1.1,0.7-1.9,1.8-2.4,3.1c-0.2,0.5-0.3,0.9-0.4,1.4
	c0,0.6,0,1.3,0,1.9c-0.1,0.1-0.2,0.1-0.2,0.2c-0.4,0.3-0.7,0.7-1,1.1c-0.6,1-0.9,2.2-0.9,3.3c-0.1,1.5,0.5,2.9,1.7,3.8
	C452.6,264.3,459.7,262.3,464.1,258.3z M454.1,259.5l-1.8-4.9l-2.3-0.8c-0.3-0.1-0.4-0.4-0.3-0.7c0.1-0.3,0.4-0.4,0.7-0.3l0,0
	l1.5,0.5l1.3,0.4l2.9,1l2.5-1.9c0.2-0.2,0.6-0.1,0.7,0.1s0.1,0.6-0.1,0.7l-1.9,1.5l4.1,1.4c0.3,0.1,0.4,0.4,0.3,0.7
	c-0.1,0.3-0.4,0.4-0.7,0.3l-4.7-1.7l-1.2-0.4l-1.5-0.5l1.5,4.1c0.1,0.3,0,0.6-0.3,0.7S454.2,259.7,454.1,259.5L454.1,259.5z"/>
<path d="M228.4,292.9c5.1-2.5,9.6-8.2,8.5-13.3c-0.2-0.8-0.6-1.5-1.2-2c-1-0.8-2.2-1.3-3.5-1.3c-0.5-0.1-1-0.1-1.4,0
	c-0.6,0.1-1.2,0.3-1.7,0.5c-0.1-0.1-0.2-0.1-0.2-0.1c-0.4-0.2-0.9-0.4-1.3-0.6c-1.1-0.2-2.2-0.2-3.3,0.1c-1.4,0.3-2.5,1.3-3,2.6
	C219.7,283.8,223.6,289.9,228.4,292.9z M224.5,283.9l4-3.1l0.1-2.4c0-0.3,0.2-0.5,0.5-0.5s0.5,0.2,0.5,0.5l-0.1,1.5l-0.1,1.3l-0.1,3
	l2.5,1.7c0.2,0.2,0.3,0.5,0.1,0.7c-0.2,0.2-0.5,0.3-0.7,0.1l-1.9-1.4l-0.2,4.2c0,0.3-0.2,0.5-0.5,0.5s-0.5-0.2-0.5-0.5l0.2-4.8
	l0.1-1.2l0.1-1.5l-3.4,2.6c-0.2,0.2-0.5,0.1-0.7-0.1C224.2,284.4,224.3,284,224.5,283.9L224.5,283.9z"/>
<path d="M218.4,257.9c1,4.3,4.5,8.6,8.5,8.7c0.6,0,1.2-0.2,1.7-0.6c0.8-0.6,1.3-1.4,1.6-2.4c0.1-0.4,0.2-0.7,0.2-1.1
	c0-0.5,0-0.9-0.1-1.4c0.1,0,0.1-0.1,0.1-0.2c0.2-0.3,0.5-0.6,0.6-0.9c0.4-0.8,0.5-1.6,0.5-2.5c0-1.1-0.5-2.1-1.4-2.7
	C226.6,252.9,221.4,254.8,218.4,257.9z M225.8,256.5l1.6,3.6l1.8,0.5c0.2,0.1,0.3,0.3,0.2,0.5c-0.1,0.2-0.2,0.2-0.4,0.2l-1.1-0.3
	l-1-0.3l-2.2-0.6l-1.7,1.5c-0.2,0.2-0.4,0.2-0.6,0c-0.2-0.2-0.2-0.4,0-0.6c0,0,0,0,0,0l1.4-1.2l-3.1-0.9c-0.2-0.1-0.3-0.3-0.2-0.5
	c0.1-0.2,0.2-0.2,0.4-0.2l3.6,1l0.9,0.2l1.1,0.3l-1.4-3c-0.1-0.2,0.1-0.4,0.3-0.5C225.5,256.3,225.6,256.3,225.8,256.5L225.8,256.5z
	"/>
<path d="M236.3,227.5c-4.6,1.8-8.9,6.4-8.3,10.9c0.1,0.7,0.4,1.3,0.9,1.8c0.8,0.8,1.8,1.2,2.9,1.4c0.4,0.1,0.8,0.1,1.2,0.1
	c0.5-0.1,1-0.2,1.5-0.4c0.1,0.1,0.1,0.1,0.2,0.1c0.4,0.2,0.7,0.4,1.1,0.6c0.9,0.3,1.9,0.3,2.9,0.1c1.2-0.2,2.3-1,2.8-2.1
	C243.3,235.9,240.3,230.4,236.3,227.5z M239.1,235.5l-3.7,2.4l-0.3,2.1c-0.1,0.2-0.3,0.4-0.5,0.3c-0.2,0-0.4-0.2-0.3-0.4l0.2-1.3
	l0.1-1.1l0.3-2.6l-2-1.7c-0.2-0.1-0.3-0.4-0.1-0.6c0.1-0.2,0.4-0.3,0.6-0.1c0,0,0.1,0,0.1,0.1l1.6,1.4l0.4-3.6
	c0.1-0.2,0.3-0.4,0.5-0.3c0.2,0,0.4,0.2,0.3,0.4l-0.5,4.1l-0.1,1l-0.2,1.3l3.1-2c0.2-0.1,0.5,0,0.6,0.2
	C239.3,235.2,239.2,235.4,239.1,235.5L239.1,235.5z"/>
<path d="M185.2,219.1c1.6,5.6,6.5,11.1,11.8,11c0.8,0,1.6-0.3,2.2-0.9c1-0.8,1.7-2,2-3.3c0.1-0.5,0.2-1,0.2-1.4
	c0-0.6-0.1-1.2-0.2-1.9c0.1-0.1,0.1-0.1,0.2-0.2c0.3-0.4,0.6-0.8,0.8-1.2c0.4-1.1,0.6-2.2,0.5-3.4c-0.1-1.4-0.8-2.8-2.1-3.5
	C195.9,212,189.1,214.8,185.2,219.1z M194.9,216.8l2.4,4.6l2.4,0.5c0.3,0.1,0.4,0.3,0.4,0.6c-0.1,0.3-0.3,0.4-0.6,0.4l-1.5-0.4
	l-1.3-0.3l-3-0.7l-2.2,2.2c-0.2,0.2-0.5,0.2-0.7,0c-0.2-0.2-0.2-0.5,0-0.7l0,0l1.7-1.7l-4.1-0.9c-0.3-0.1-0.4-0.3-0.4-0.6
	c0.1-0.3,0.3-0.4,0.6-0.4l4.8,1.1l1.2,0.3l1.5,0.3l-2-3.9c-0.1-0.3,0-0.6,0.2-0.7S194.8,216.6,194.9,216.8L194.9,216.8z"/>
<path d="M260.5,203.7c-4.1-2.7-10.3-3.5-13.6-0.5c-0.5,0.5-0.8,1.1-0.9,1.8c-0.2,1.1,0,2.2,0.6,3.2c0.2,0.4,0.4,0.7,0.6,1.1
	c0.4,0.4,0.8,0.7,1.2,1.1c0,0.1,0,0.2,0,0.2c0,0.4,0.1,0.8,0.2,1.2c0.3,0.9,0.8,1.8,1.5,2.4c0.8,0.9,2.1,1.3,3.3,1.1
	C257.6,214.2,260.4,208.7,260.5,203.7z M255.5,210.6l-4.1-1.6l-1.8,1c-0.2,0.1-0.5,0-0.6-0.2c-0.1-0.2,0-0.5,0.2-0.6l0,0l1.2-0.6
	l1-0.5l2.3-1.2l0.2-2.6c0-0.2,0.2-0.4,0.5-0.4s0.4,0.2,0.4,0.5l-0.2,2.1l3.2-1.7c0.2-0.1,0.5,0,0.6,0.2c0.1,0.2,0,0.5-0.2,0.6
	l-3.7,2l-0.9,0.5l-1.1,0.6l3.4,1.4c0.2,0.1,0.3,0.4,0.2,0.6C255.9,210.6,255.7,210.7,255.5,210.6L255.5,210.6z"/>
<path d="M218.6,124.2c-4.2,4.4-6.4,11.6-3.5,16.3c0.5,0.7,1.1,1.2,1.9,1.5c1.3,0.4,2.7,0.4,3.9,0c0.5-0.1,1-0.3,1.4-0.6
	c0.5-0.4,1-0.8,1.5-1.2c0.1,0,0.2,0.1,0.3,0.1c0.5,0.1,1,0.1,1.5,0.1c1.2-0.2,2.3-0.6,3.3-1.3c1.2-0.8,2-2.2,2-3.7
	C230.6,129.9,224.5,125.3,218.6,124.2z M225.8,131.6l-2.9,4.6l0.8,2.4c0.1,0.3-0.1,0.6-0.4,0.6c-0.2,0-0.5-0.1-0.6-0.3l-0.5-1.6
	l-0.4-1.3l-1-3l-3.1-0.8c-0.3,0-0.5-0.3-0.5-0.6c0-0.3,0.3-0.5,0.6-0.5c0.1,0,0.1,0,0.2,0.1l2.4,0.6l-1.4-4.2
	c-0.1-0.3,0.1-0.6,0.4-0.6c0.2,0,0.5,0.1,0.6,0.3l1.6,4.8l0.4,1.2l0.5,1.5l2.4-3.8c0.2-0.2,0.5-0.3,0.7-0.2
	C225.8,131.1,225.9,131.4,225.8,131.6L225.8,131.6z"/>
<path d="M207.4,135.9c-3.8,2.8-6.4,8.1-4.8,12c0.3,0.6,0.7,1.1,1.3,1.4c0.9,0.5,2,0.7,3,0.5c0.4,0,0.8-0.1,1.1-0.2
	c0.5-0.2,0.9-0.4,1.3-0.7c0.1,0,0.1,0.1,0.2,0.1c0.4,0.1,0.8,0.2,1.2,0.2c0.9,0,1.8-0.2,2.7-0.6c1.1-0.5,1.8-1.4,2-2.6
	C215.9,141.8,211.8,137.5,207.4,135.9z M212,142.5l-2.8,3.1l0.3,1.9c0,0.2-0.1,0.4-0.4,0.5s-0.4-0.1-0.5-0.4l-0.2-1.3l-0.2-1.1
	l-0.4-2.4l-2.3-1c-0.2-0.1-0.3-0.3-0.2-0.5s0.3-0.3,0.5-0.2l0,0l1.8,0.8l-0.5-3.4c0-0.2,0.1-0.4,0.4-0.5s0.4,0.1,0.5,0.4l0.6,3.9
	l0.1,1l0.2,1.2l2.3-2.6c0.2-0.2,0.4-0.2,0.6,0C212.1,142.1,212.2,142.4,212,142.5L212,142.5z"/>
<path d="M233.4,146.8c4.4,1.6,10.3,1,12.7-2.6c0.3-0.6,0.5-1.2,0.5-1.9c-0.1-1-0.5-2-1.2-2.8c-0.2-0.3-0.5-0.6-0.8-0.8
	c-0.4-0.3-0.9-0.5-1.3-0.7c0-0.1,0-0.2-0.1-0.2c-0.1-0.4-0.3-0.8-0.4-1.1c-0.5-0.8-1.2-1.4-2-1.9c-1-0.6-2.2-0.7-3.3-0.3
	C233.7,136.5,232.4,142.3,233.4,146.8z M236.4,139.4l4.1,0.6l1.5-1.3c0.2-0.2,0.4-0.1,0.6,0c0.2,0.2,0.1,0.4,0,0.6l-1,0.8l-0.8,0.7
	l-1.8,1.6l0.4,2.4c0,0.2-0.1,0.4-0.3,0.5s-0.4-0.1-0.5-0.3l-0.3-1.9l-2.6,2.3c-0.2,0.2-0.4,0.1-0.6,0c-0.2-0.2-0.1-0.4,0-0.6l0,0
	l3-2.6l0.7-0.6l0.9-0.8l-3.4-0.5c-0.2,0-0.4-0.2-0.4-0.5S236.3,139.4,236.4,139.4L236.4,139.4z"/>
<path d="M228.4,109.4c-3.6,4.3-5.3,11.3-2.2,15.4c0.5,0.6,1.1,1.1,1.9,1.3c1.2,0.3,2.5,0.2,3.7-0.2c0.4-0.2,0.9-0.4,1.3-0.6
	c0.5-0.4,0.9-0.8,1.3-1.2c0.1,0,0.2,0,0.3,0c0.5,0,1,0,1.4,0c1.1-0.2,2.1-0.7,3-1.4c1.1-0.8,1.7-2.2,1.6-3.6
	C240,113.9,234,110.1,228.4,109.4z M235.6,115.9l-2.4,4.4l0.9,2.2c0.1,0.3-0.1,0.5-0.4,0.6c-0.2,0.1-0.4,0-0.6-0.2l-0.6-1.4
	l-0.5-1.2l-1.1-2.7l-2.9-0.6c-0.3,0-0.5-0.3-0.4-0.6s0.3-0.5,0.6-0.4l2.3,0.4l-1.5-3.8c-0.1-0.3,0.1-0.5,0.4-0.6
	c0.2-0.1,0.4,0,0.6,0.2l1.8,4.4l0.4,1.1l0.6,1.4l2-3.7c0.2-0.2,0.5-0.3,0.7-0.1C235.6,115.4,235.7,115.6,235.6,115.9L235.6,115.9z"
	/>
<path d="M255.4,87c-2,5.3-1.3,12.4,3,15.3c0.7,0.4,1.4,0.6,2.2,0.6c1.3-0.1,2.4-0.6,3.4-1.4c0.4-0.3,0.7-0.6,1-1
	c0.3-0.5,0.6-1,0.9-1.6c0.1,0,0.2,0,0.3-0.1c0.5-0.1,0.9-0.3,1.3-0.5c0.9-0.6,1.7-1.3,2.3-2.3c0.8-1.2,0.9-2.6,0.4-3.9
	C267.8,87.5,260.9,85.8,255.4,87z M264.3,90.7l-0.8,5l1.5,1.8c0.2,0.2,0.1,0.5-0.1,0.7c-0.2,0.1-0.4,0.1-0.6,0l-1-1.2l-0.9-1
	l-1.9-2.2l-3,0.4c-0.3,0-0.5-0.1-0.6-0.4c0-0.3,0.1-0.5,0.4-0.6l0,0l2.3-0.3l-2.6-3.1c-0.2-0.2-0.1-0.5,0.1-0.7
	c0.2-0.1,0.4-0.1,0.6,0l3.1,3.6l0.8,0.9l1,1.1l0.6-4.1c0-0.3,0.3-0.5,0.6-0.4C264.1,90.2,264.3,90.5,264.3,90.7L264.3,90.7z"/>
<path d="M381.9,68.5c-5.3,3-9.6,9.3-8.1,14.6c0.3,0.8,0.7,1.5,1.4,2c1.1,0.8,2.4,1.2,3.8,1.2c0.5,0,1,0,1.5-0.1
	c0.6-0.2,1.2-0.4,1.8-0.7c0.1,0.1,0.2,0.1,0.3,0.1c0.5,0.2,1,0.4,1.5,0.5c1.2,0.2,2.4,0.1,3.5-0.3c1.4-0.4,2.6-1.6,3-3
	C391.8,77.4,387.3,71.3,381.9,68.5z M386.7,77.7l-4.1,3.5v2.5c0,0.3-0.2,0.5-0.5,0.5s-0.5-0.2-0.5-0.5v-1.6v-1.4l-0.1-3.2l-2.7-1.7
	c-0.3-0.2-0.3-0.5-0.2-0.7c0.2-0.3,0.5-0.3,0.7-0.2l0,0l2.1,1.3l-0.1-4.4c0-0.3,0.2-0.5,0.5-0.5s0.5,0.2,0.5,0.5l0.1,5.1v1.3v1.6
	l3.4-3c0.2-0.2,0.6-0.2,0.8,0S386.9,77.4,386.7,77.7L386.7,77.7L386.7,77.7z"/>
<path d="M451.2,105.9c-6.5-1.3-14.5,0.7-17.1,6.1c-0.4,0.8-0.5,1.8-0.3,2.7c0.3,1.4,1.1,2.7,2.3,3.7c0.4,0.4,0.8,0.7,1.3,1
	c0.7,0.3,1.3,0.5,2,0.7c0,0.1,0.1,0.2,0.1,0.3c0.2,0.5,0.5,1,0.8,1.4c0.8,1,1.9,1.8,3.1,2.3c1.5,0.7,3.2,0.6,4.6-0.3
	C452.9,120.3,453.6,112,451.2,105.9z M448.5,116.8h-5.9l-1.8,2.1c-0.2,0.2-0.6,0.2-0.8,0c-0.2-0.2-0.2-0.5-0.1-0.7l1.1-1.4l1-1.2
	l2.2-2.7l-1-3.3c-0.1-0.3,0.1-0.6,0.4-0.7c0.3-0.1,0.6,0.1,0.7,0.4l0,0l0.8,2.6l3.1-3.7c0.2-0.2,0.6-0.2,0.8,0
	c0.2,0.2,0.2,0.5,0.1,0.7l-3.6,4.2l-0.9,1l-1.1,1.3h4.9c0.3,0,0.6,0.3,0.6,0.6S448.8,116.8,448.5,116.8L448.5,116.8z"/>
<path d="M435.2,180.1c-0.6,5.4,1.8,11.7,6.3,13.4c0.7,0.2,1.5,0.2,2.2,0c1.1-0.4,2.1-1.1,2.8-2.1c0.3-0.4,0.5-0.7,0.7-1.1
	c0.2-0.5,0.3-1.1,0.4-1.7c0.1,0,0.2-0.1,0.2-0.1c0.4-0.2,0.8-0.5,1.1-0.8c0.7-0.8,1.3-1.7,1.6-2.7c0.4-1.3,0.2-2.6-0.6-3.7
	C446.8,177.6,440,177.7,435.2,180.1z M444.3,181.5l0.5,4.8l1.9,1.3c0.2,0.1,0.3,0.4,0.1,0.7s-0.4,0.3-0.7,0.1l0,0l-1.2-0.8l-1-0.7
	l-2.3-1.6l-2.6,1.1c-0.2,0.1-0.5,0-0.6-0.2s0-0.5,0.2-0.6l2.1-0.9l-3.2-2.2c-0.2-0.1-0.3-0.4-0.1-0.7s0.4-0.3,0.7-0.1l0,0l3.7,2.6
	l0.9,0.6l1.2,0.8l-0.4-4c0-0.3,0.2-0.5,0.4-0.5C444,181,444.3,181.2,444.3,181.5L444.3,181.5L444.3,181.5z"/>
<path d="M484.1,172.2c-6.9-3.2-16.4-3-20.8,2.3c-0.6,0.8-1,1.9-1,2.9c0,1.7,0.6,3.3,1.6,4.7c0.4,0.5,0.8,1,1.2,1.4
	c0.6,0.5,1.3,0.9,2,1.3c0,0.1,0,0.3,0,0.4c0.1,0.6,0.3,1.2,0.5,1.8c0.7,1.3,1.7,2.5,2.9,3.4c1.5,1.1,3.4,1.5,5.2,0.9
	C482.2,188.8,485.2,179.7,484.1,172.2z M478.1,183.8l-6.5-1.6l-2.5,1.9c-0.3,0.2-0.7,0.1-0.9-0.3c-0.2-0.3-0.1-0.6,0.1-0.8l1.6-1.2
	l1.4-1l3.2-2.4l-0.3-4c-0.1-0.4,0.2-0.7,0.5-0.8c0.4-0.1,0.7,0.2,0.8,0.5c0,0,0,0.1,0,0.1l0.2,3.1l4.4-3.3c0.3-0.2,0.7-0.1,0.9,0.3
	c0.2,0.3,0.1,0.6-0.1,0.8l-5.1,3.7l-1.3,0.9l-1.6,1.2l5.5,1.3c0.4,0.1,0.5,0.5,0.4,0.8C478.9,183.6,478.5,183.8,478.1,183.8
	L478.1,183.8z"/>
</svg>
