<?xml version="1.0" encoding="utf-8"?>
<!-- Generator: Adobe Illustrator 21.0.0, SVG Export Plug-In . SVG Version: 6.00 Build 0)  -->
<svg version="1.1" id="图层_1" xmlns="http://www.w3.org/2000/svg" xmlns:xlink="http://www.w3.org/1999/xlink" x="0px" y="0px"
	 viewBox="0 0 655 494" style="enable-background:new 0 0 655 494;" xml:space="preserve">
<title>Chatbot 06 (FLOWER)</title>
<path d="M195.1,158.3c-0.3-0.2-0.6-0.3-0.9-0.3c-1.8-0.4-3.9,0.8-5.1,2.8c-0.7,1.1-1,2.5-0.9,3.8c0.1,1.1,0.7,2.1,1.6,2.7
	c0.7,0.4,1.4,0.6,2.2,0.8c2.6,0.6,5.7,0.4,6.9-0.9c-2.6-1.1-3.7-5.9-3.5-8.6L195.1,158.3z"/>
<path d="M206.2,160.4c0-0.1,0.1-0.2,0.1-0.3c0.2-1.1-0.1-2.2-0.9-3c-0.9-1-2.1-1.7-3.4-1.9c-2.8-0.6-5.4,0.6-5.9,2.7
	c-0.2,1.7,0,3.4,0.5,5c0.3,1.1,0.8,2.1,1.6,2.9c-0.9-1.8-1.1-3.8-0.8-5.7V160c-0.3-0.3-0.5-0.6-0.6-0.9c-0.1-0.2,0.1-0.4,0.3-0.4
	c0.2,0,0.3,0,0.4,0.2c0.4,1,1,0.9,1,0.9c0.2,0,0.4,0.1,0.4,0.3c0,0.2-0.1,0.4-0.3,0.4c0,0-0.1,0-0.1,0c-0.1,0-0.3,0-0.4,0h-0.1
	c-0.3,1.6-0.1,3.2,0.6,4.6c-0.1-1.9,0.1-5.3,1.6-7.4c-0.2-0.2-0.3-0.4-0.4-0.6c-0.1-0.2,0.1-0.4,0.3-0.4c0.2,0,0.3,0,0.4,0.2
	c0.4,1,1,0.9,1,0.9c0.2,0,0.4,0.1,0.4,0.3c0,0.2-0.1,0.4-0.3,0.4c0,0-0.1,0-0.1,0c-0.1,0-0.3,0-0.4,0c-0.2,0-0.3-0.1-0.5-0.2
	c-0.9,1.7-1.4,3.6-1.4,5.5c0.3-1.2,0.9-2.4,1.7-3.4c-0.2-0.2-0.3-0.5-0.4-0.7c-0.1-0.2-0.1-0.4,0.1-0.5s0.4-0.1,0.5,0.1
	c0,0,0,0.1,0,0.1c0.4,1,1,0.9,1,0.9c0.2,0,0.4,0.1,0.4,0.3c0,0.2-0.1,0.4-0.3,0.4c0,0-0.1,0-0.1,0c-0.1,0-0.3,0-0.4,0
	c-0.1,0-0.3-0.1-0.4-0.1c-0.9,1.1-1.4,2.4-1.6,3.7c0.5-0.6,1.1-1.2,1.7-1.7C203,161.7,204.5,160.9,206.2,160.4z"/>
<path d="M200.6,178.4c1.3,0.2,2.6,0.1,3.7-0.4c2.6-1.1,4-3.7,3.2-5.7c-0.7-1.7-3.7-4.6-6.2-5.2c-0.4-0.1-0.8-0.1-1.2,0
	c1.4,2.4-0.5,7-2.2,9c0,0.1,0.1,0.2,0.1,0.3C198.5,177.5,199.5,178.2,200.6,178.4z"/>
<path d="M211.5,165.7c-0.2-2.4-1.7-4.3-3.5-4.7c-0.3-0.1-0.6-0.1-0.9-0.1c-0.3,0-0.5,0.1-0.8,0.2l0,0c-2.3,0.6-6.2,3-6.4,5.3
	c0.5-0.1,1.1-0.1,1.6,0c2.4,0.5,5.1,3,6.3,4.9h0.4C210.3,171,211.8,168.5,211.5,165.7z"/>
<path d="M190.5,174.9c0.8,1,1.9,1.7,3.2,2c1.1,0.3,2.3,0.1,3.2-0.7c1.2-1.2,2-2.7,2.5-4.4c0.4-1.1,0.8-3.1,0.1-4.3
	c-0.9,0.8-2,1.3-3.2,1.4c-1.5,0.2-3,0.1-4.5-0.2l0,0c-0.5-0.1-1.1-0.3-1.6-0.5l-0.3,0.2c-0.8,0.8-1.2,1.8-1.1,2.9
	C189,172.7,189.6,173.9,190.5,174.9z"/>
<path d="M249.6,105.9c-0.3-0.2-0.6-0.3-0.9-0.4c-1.8-0.4-3.9,0.7-5.2,2.7c-0.7,1.1-1,2.4-0.9,3.8c0.1,1.1,0.6,2.1,1.6,2.7
	c0.7,0.4,1.4,0.6,2.1,0.8c2.6,0.6,5.7,0.5,7-0.8c-2.6-1.2-3.6-6-3.4-8.7L249.6,105.9z"/>
<path d="M260.7,108.2c0-0.1,0.1-0.2,0.1-0.3c0.2-1.1-0.1-2.2-0.8-3c-0.9-1-2-1.7-3.3-2c-2.8-0.7-5.4,0.5-6,2.6
	c-0.2,1.7-0.1,3.4,0.4,5c0.3,1.1,0.8,2.1,1.5,3c-0.8-1.8-1.1-3.8-0.7-5.7v-0.1c-0.3-0.3-0.5-0.6-0.6-0.9c-0.1-0.2,0-0.4,0.1-0.5
	c0.2-0.1,0.4,0,0.5,0.1c0,0,0,0,0,0.1c0.4,1,1,0.9,1,0.9c0.2,0,0.4,0.1,0.4,0.3c0,0.2-0.1,0.4-0.3,0.4c0,0-0.1,0-0.1,0
	c-0.1,0-0.3,0-0.4,0h-0.1c-0.3,1.6-0.1,3.2,0.5,4.6c0-1.8,0.2-5.3,1.8-7.4c-0.1-0.2-0.3-0.4-0.4-0.7c-0.1-0.2,0-0.4,0.2-0.5
	c0.2-0.1,0.3,0,0.4,0.2c0.4,1,1,0.9,1,0.9c0.2,0,0.4,0.1,0.4,0.3c0,0.2-0.1,0.4-0.3,0.4c0,0-0.1,0-0.1,0c-0.1,0-0.3,0-0.4,0
	c-0.2,0-0.3-0.1-0.5-0.2c-1,1.7-1.5,3.5-1.5,5.5c0.3-1.2,0.9-2.4,1.7-3.4c-0.2-0.2-0.3-0.5-0.4-0.7c-0.1-0.2,0-0.4,0.1-0.5
	c0.2-0.1,0.4,0,0.5,0.1c0,0,0,0,0,0.1c0.4,1,1,0.9,1,0.9c0.2,0,0.4,0.1,0.4,0.3c0,0.2-0.1,0.4-0.3,0.4c0,0-0.1,0-0.1,0
	c-0.1,0-0.3,0-0.4,0c-0.1,0-0.3-0.1-0.4-0.2c-0.9,1.1-1.5,2.3-1.7,3.7c0.5-0.6,1.1-1.2,1.7-1.6C257.5,109.4,259,108.7,260.7,108.2z"
	/>
<path d="M254.8,126.1c1.3,0.3,2.6,0.1,3.7-0.4c2.6-1.1,4.1-3.6,3.3-5.6c-0.7-1.7-3.6-4.7-6.1-5.3c-0.4-0.1-0.8-0.1-1.2-0.1
	c1.4,2.4-0.6,7-2.4,9c0,0.1,0.1,0.2,0.1,0.3C252.7,125.1,253.7,125.9,254.8,126.1z"/>
<path d="M265.9,113.6c-0.2-2.4-1.6-4.3-3.4-4.8c-0.3-0.1-0.6-0.1-0.9-0.1c-0.3,0-0.6,0.1-0.8,0.2l0,0c-2.4,0.6-6.2,2.9-6.5,5.2
	c0.5-0.1,1.1-0.1,1.6,0.1c2.4,0.6,5,3.1,6.2,5h0.4C264.6,118.9,266.1,116.5,265.9,113.6z"/>
<path d="M244.7,122.4c0.8,1,1.9,1.7,3.2,2c1.1,0.3,2.3,0.1,3.2-0.6c1.2-1.2,2.1-2.7,2.6-4.3c0.4-1.1,0.9-3,0.2-4.3
	c-0.9,0.8-2,1.3-3.2,1.3c-1.5,0.1-3,0-4.5-0.3l0,0c-0.5-0.1-1.1-0.3-1.6-0.5l-0.3,0.2c-0.8,0.7-1.2,1.8-1.1,2.9
	C243.3,120.1,243.8,121.4,244.7,122.4z"/>
<path d="M449.6,158c-0.2-0.1-0.5-0.2-0.8-0.2c-1.8,0.1-3.3,1.3-3.8,3c-0.4,1-0.5,2.1-0.2,3.2c0.2,0.9,0.8,1.6,1.6,2
	c0.6,0.2,1.2,0.3,1.8,0.3c2.2,0.1,4.7-0.4,5.5-1.6c-2.2-0.6-3.7-4.4-4-6.5L449.6,158z"/>
<path d="M458.9,158.3c0-0.1,0-0.2,0-0.3c0-0.9-0.4-1.8-1.1-2.3c-0.8-0.7-1.9-1.1-3-1.1c-2.3-0.1-4.3,1.2-4.4,3c0,1.4,0.4,2.8,1,4
	c0.4,0.8,1,1.6,1.7,2.2c-0.9-1.3-1.4-2.9-1.4-4.6c0,0,0,0,0-0.1c-0.3-0.2-0.5-0.4-0.6-0.7c-0.1-0.1-0.1-0.3,0.1-0.4s0.3-0.1,0.4,0.1
	c0.5,0.7,1,0.6,1,0.6c0.2,0,0.3,0,0.4,0.2c0,0.2,0,0.3-0.2,0.4c-0.1,0-0.2,0-0.3,0h-0.1c0,1.3,0.3,2.6,1,3.7
	c-0.3-1.5-0.6-4.3,0.4-6.2c-0.1-0.1-0.3-0.3-0.4-0.5c-0.1-0.1-0.1-0.3,0.1-0.4s0.3-0.1,0.4,0.1c0.5,0.7,1,0.6,1,0.6
	c0.2,0,0.3,0,0.4,0.2c0,0.2,0,0.3-0.2,0.4l0,0c-0.1,0-0.2,0-0.3,0c-0.1,0-0.3,0-0.4-0.1c-0.6,1.5-0.7,3.1-0.5,4.7
	c0.1-1.1,0.4-2.1,0.9-3c-0.2-0.2-0.3-0.3-0.5-0.5c-0.1-0.1-0.1-0.3,0.1-0.4s0.3-0.1,0.4,0.1c0.5,0.7,1,0.6,1,0.6
	c0.2,0,0.3,0,0.4,0.2c0,0.2,0,0.3-0.2,0.4c-0.1,0-0.2,0-0.3,0c-0.1,0-0.2,0-0.3-0.1c-0.6,1-0.9,2.1-0.9,3.2c0.3-0.6,0.7-1.1,1.2-1.6
	C456.5,159.6,457.7,158.8,458.9,158.3z"/>
<path d="M456.7,173.6c1.1,0,2.1-0.2,3-0.8c2-1.3,2.8-3.5,1.9-5c-1.4-1.8-3.4-3-5.7-3.4c-0.3,0-0.7,0-1,0.1c1.5,1.8,0.5,5.7-0.6,7.6
	c0,0.1,0.1,0.2,0.1,0.3C454.9,173.1,455.8,173.6,456.7,173.6z"/>
<path d="M463.9,161.9c-0.3-1.7-1.7-3.1-3.4-3.4c-0.3,0-0.5,0-0.8,0.1c-0.2,0.1-0.4,0.1-0.6,0.2l0,0c-1.8,0.8-4.6,3.2-4.5,5.1
	c0.4-0.2,0.9-0.2,1.3-0.2c2,0.1,4.5,1.8,5.7,3.1l0.3-0.1C463.6,166.4,464.5,164.2,463.9,161.9z"/>
<path d="M448,172.1c0.8,0.7,1.8,1.1,2.8,1.2c0.9,0.1,1.9-0.3,2.5-1c0.8-1.2,1.3-2.5,1.5-3.9c0.2-1,0.3-2.6-0.5-3.5
	c-0.6,0.8-1.4,1.3-2.4,1.6c-1.2,0.3-2.4,0.5-3.7,0.4l0,0c-0.5,0-0.9-0.1-1.3-0.2l-0.2,0.2c-0.6,0.7-0.7,1.6-0.5,2.5
	C446.5,170.4,447.1,171.4,448,172.1z"/>
<path d="M207.7,260.7c-1.9-0.8-4.1-0.7-5.9,0.3l-1.4,0.6c0.2-1.2,0.6-2.3,1.3-3.3c0.6-0.8,1.3-1.6,2.2-2.2c0.4-0.3,0.4-0.9,0.1-1.3
	c-0.3-0.3-0.7-0.4-1.1-0.2c-1,0.7-1.9,1.6-2.6,2.6c-0.3,0.4-0.5,0.7-0.7,1.1c-0.2-0.3-0.3-0.6-0.6-0.9c0.4-1.6-0.5-3.3-2-3.9
	c-2.7-1-5.7-1-8.4,0c-0.3,0.1-0.5,0.4-0.6,0.7c-0.1,0.3,0,0.6,0.3,0.7c2.4,0.8,4.5,2.3,6.2,4.2c0.9,1,2.3,0.7,3.3-0.1
	c0.5,0.8,0.7,1.7,0.7,2.6c-0.4-0.2-0.8-0.4-1.4-0.7c-1.8-1-4-1.1-5.9-0.3c-3.2,1.3-4.1,6.5-2,11.5s6.4,8,9.6,6.6l0,0
	c0.4-0.2,0.8-0.2,1.2,0l0,0c3.2,1.3,7.5-1.6,9.6-6.6S210.9,262,207.7,260.7z"/>
<path d="M240.8,162.1c-1.8-0.4-3.6,0.1-5,1.3l-1,0.8c-0.1-1,0.1-2.1,0.6-3c0.4-0.8,0.9-1.6,1.5-2.2c0.3-0.3,0.3-0.8,0-1.1
	c-0.3-0.3-0.8-0.3-1.1,0c-0.7,0.8-1.3,1.7-1.8,2.7c-0.2,0.4-0.3,0.7-0.4,1.1c-0.2-0.2-0.4-0.4-0.6-0.6c0.1-1.5-1-2.8-2.4-3
	c-2.5-0.4-5,0.1-7.2,1.4c-0.2,0.2-0.4,0.4-0.4,0.7c0,0.3,0.1,0.5,0.4,0.5c2.2,0.3,4.3,1.2,6,2.5c1,0.7,2.1,0.2,2.8-0.7
	c0.5,0.6,0.9,1.3,1,2.1c-0.3-0.1-0.8-0.2-1.4-0.3c-1.7-0.5-3.6-0.2-5.1,0.8c-2.5,1.7-2.4,6.3,0.3,10.2s6.9,5.7,9.4,4l0,0
	c0.3-0.2,0.7-0.3,1-0.2l0,0c3,0.6,6.1-2.7,7-7.3S243.8,162.7,240.8,162.1z"/>
<path d="M277.8,125.1c-1.3-0.7-2.9-0.7-4.2,0l-1,0.4c0.2-0.8,0.5-1.6,1.1-2.3c0.5-0.6,1-1.1,1.6-1.5c0.3-0.2,0.4-0.6,0.2-0.9
	c-0.2-0.3-0.6-0.4-0.9-0.2c-0.8,0.5-1.4,1.1-2,1.8c-0.2,0.2-0.4,0.5-0.5,0.8c-0.1-0.2-0.2-0.4-0.4-0.6c0.4-1.1-0.2-2.4-1.3-2.9
	c-1.9-0.8-4-0.9-6-0.4c-0.2,0.1-0.4,0.3-0.4,0.5c-0.1,0.2,0,0.4,0.2,0.5c1.7,0.7,3.2,1.8,4.3,3.3c0.7,0.7,1.7,0.7,2.4,0
	c0.3,0.6,0.4,1.2,0.4,1.9l-1-0.6c-1.3-0.8-2.8-1-4.2-0.4c-2.4,0.8-3.2,4.5-1.9,8.2s4.3,6,6.6,5.1l0,0c0.3-0.1,0.6-0.1,0.9,0l0,0
	c2.2,1.1,5.5-0.9,7.2-4.4S280,126.2,277.8,125.1z"/>
<path d="M362.9,105.1c-1.6-1-3.6-1.2-5.4-0.5l-1.3,0.4c0.3-1.1,0.8-2,1.6-2.8c0.6-0.7,1.4-1.3,2.2-1.7c0.4-0.2,0.6-0.7,0.3-1.1
	c-0.2-0.4-0.7-0.5-1.1-0.4c-1,0.5-1.9,1.2-2.6,2c-0.3,0.3-0.5,0.6-0.8,0.9c-0.1-0.3-0.2-0.6-0.4-0.8c0.6-1.4,0-3-1.4-3.8
	c-2.3-1.2-5-1.6-7.6-1c-0.3,0.1-0.5,0.3-0.6,0.6c-0.1,0.2,0,0.5,0.2,0.7c2.1,1,3.8,2.6,5.1,4.6c0.7,1,2,0.9,3,0.3
	c0.3,0.8,0.4,1.6,0.3,2.4c-0.3-0.2-0.7-0.4-1.2-0.8c-1.5-1.2-3.5-1.5-5.3-1c-3.1,0.8-4.5,5.4-3.2,10.2s4.8,8,7.9,7.2l0,0
	c0.4-0.1,0.8,0,1.1,0.2l0,0c2.7,1.6,7-0.6,9.5-4.8S365.6,106.7,362.9,105.1z"/>
<path d="M382.9,123.4c1.8,3.9,5.3,6.1,7.8,4.9l0,0c0.3-0.1,0.6-0.1,1,0l0,0c2.6,1,5.9-1.5,7.4-5.5s0.7-8-1.9-9
	c-1.5-0.6-3.2-0.5-4.6,0.4c-0.5,0.3-0.9,0.5-1.1,0.6c-0.1-0.7,0.1-1.4,0.5-2c0.7,0.7,1.9,0.7,2.6,0c1.3-1.6,2.9-2.8,4.8-3.5
	c0.2-0.1,0.3-0.3,0.2-0.6c0-0.2-0.2-0.5-0.5-0.5c-2.2-0.7-4.5-0.6-6.6,0.3c-1.2,0.5-1.9,1.8-1.5,3.1c-0.2,0.2-0.3,0.4-0.4,0.7
	c-0.2-0.3-0.4-0.6-0.6-0.9c-0.6-0.8-1.3-1.5-2.1-2c-0.3-0.2-0.8-0.1-1,0.3c-0.2,0.3-0.1,0.7,0.2,0.9c0.7,0.5,1.3,1,1.8,1.7
	c0.6,0.7,1,1.6,1.1,2.5l-1.1-0.5c-1.5-0.7-3.2-0.7-4.6,0C381.6,115.5,381.1,119.6,382.9,123.4z"/>
<path d="M415.3,162.9c2.1,4.5,6.1,7.1,9,5.8l0,0c0.4-0.1,0.7-0.1,1.1,0l0,0c3,1.1,6.8-1.7,8.6-6.4s0.8-9.3-2.2-10.5
	c-1.8-0.7-3.8-0.5-5.4,0.4c-0.6,0.3-1,0.5-1.3,0.7c-0.1-0.8,0.1-1.7,0.5-2.4c1,0.7,2.2,1,3,0c1.5-1.8,3.4-3.2,5.5-4.1
	c0.2-0.1,0.3-0.4,0.3-0.6c-0.1-0.3-0.3-0.5-0.5-0.6c-2.5-0.8-5.2-0.7-7.7,0.3c-1.4,0.6-2.2,2.1-1.7,3.6c-0.2,0.3-0.3,0.5-0.5,0.8
	c-0.2-0.3-0.4-0.7-0.7-1c-0.7-0.9-1.5-1.7-2.5-2.3c-0.4-0.2-0.9-0.1-1.1,0.3c-0.2,0.4-0.1,0.9,0.3,1.1c0.8,0.5,1.4,1.2,2,1.9
	c0.7,0.9,1.1,1.9,1.3,3l-1.3-0.6c-1.7-0.9-3.7-0.9-5.4-0.1C413.9,153.6,413.2,158.4,415.3,162.9z"/>
<path d="M470.9,221c1.7,3.5,4.8,5.4,7,4.4l0,0c0.3-0.1,0.6-0.1,0.9,0l0,0c2.3,0.8,5.3-1.4,6.6-5s0.5-7.2-1.8-8.1
	c-1.4-0.5-2.9-0.4-4.2,0.4l-1,0.5c-0.1-0.6,0.1-1.3,0.4-1.9c0.7,0.7,1.7,0.7,2.4,0c1.1-1.5,2.6-2.7,4.3-3.4c0.2-0.1,0.3-0.3,0.2-0.5
	c0-0.2-0.2-0.4-0.4-0.5c-2-0.6-4.1-0.5-6,0.3c-1.1,0.5-1.7,1.7-1.3,2.8c-0.1,0.2-0.3,0.4-0.4,0.6c-0.2-0.3-0.3-0.5-0.5-0.8
	c-0.5-0.7-1.2-1.3-1.9-1.8c-0.3-0.2-0.7,0-0.9,0.3c-0.1,0.3-0.1,0.6,0.2,0.8c0.6,0.4,1.2,0.9,1.6,1.5c0.5,0.7,0.9,1.4,1.1,2.3
	l-1-0.4c-1.3-0.7-2.9-0.7-4.2,0C469.7,213.8,469.2,217.5,470.9,221z"/>
<path d="M406,219c-1.7-1-3.8-1.2-5.6-0.4L399,219c0.3-1.1,0.9-2.1,1.6-2.9c0.7-0.7,1.4-1.3,2.3-1.8c0.4-0.2,0.5-0.8,0.3-1.2
	c-0.2-0.4-0.7-0.5-1.1-0.4c-1,0.6-2,1.3-2.8,2.1c-0.3,0.3-0.5,0.6-0.8,1c-0.1-0.3-0.3-0.6-0.4-0.9c0.6-1.5-0.1-3.2-1.5-3.9
	c-2.4-1.3-5.3-1.6-7.9-1c-0.3,0.1-0.5,0.3-0.6,0.6c-0.1,0.3,0,0.5,0.2,0.7c2.2,1.1,4,2.7,5.4,4.7c0.7,1.1,2.1,0.9,3.2,0.3
	c0.4,0.8,0.5,1.7,0.3,2.5c-0.3-0.2-0.7-0.5-1.3-0.8c-1.6-1.2-3.6-1.6-5.5-1c-3.2,0.9-4.6,5.6-3.3,10.6s5.1,8.3,8.3,7.4l0,0
	c0.4-0.1,0.8-0.1,1.1,0.1l0,0c2.9,1.7,7.3-0.6,9.9-5.1S408.9,220.6,406,219z"/>
<path d="M208.4,179.8c-0.4-0.1-0.8-0.2-1.2-0.2c-2.4,0-4.6,2-5.6,4.9c-0.5,1.6-0.5,3.3,0,4.9c0.4,1.3,1.4,2.4,2.7,2.9
	c0.9,0.3,1.9,0.4,2.9,0.3c3.4,0,7.2-1,8.4-3c-3.5-0.7-6.2-6.4-6.7-9.7L208.4,179.8z"/>
<path d="M222.8,179.4c0-0.2,0-0.3,0-0.4c0-1.4-0.7-2.7-1.9-3.5c-1.4-1-3-1.5-4.7-1.5c-3.6,0-6.6,2.2-6.6,5c0.2,2.2,0.9,4.2,2,6.1
	c0.7,1.3,1.6,2.4,2.8,3.2c-1.6-2-2.4-4.4-2.5-6.9c0,0,0-0.1,0-0.1c-0.4-0.3-0.8-0.6-1.1-1c-0.1-0.2-0.1-0.5,0.1-0.6s0.5-0.1,0.6,0.1
	c0.8,1.1,1.5,0.9,1.5,0.9c0.2-0.1,0.5,0,0.6,0.3s0,0.5-0.3,0.6l0,0c-0.2,0-0.3,0.1-0.5,0.1h-0.1c0.1,2,0.8,3.9,1.9,5.6
	c-0.6-2.3-1.3-6.6,0-9.6c-0.2-0.2-0.5-0.4-0.6-0.7c-0.1-0.2-0.1-0.5,0.1-0.6s0.5-0.1,0.6,0.1c0.8,1.1,1.5,0.9,1.5,0.9
	c0.2-0.1,0.5,0,0.6,0.3s0,0.5-0.3,0.6c-0.2,0-0.3,0.1-0.5,0.1c-0.2,0-0.4,0-0.6-0.1c-0.9,2.1-0.6,5-0.3,7.2c0-1.6,0.4-3.2,1.1-4.7
	c-0.3-0.2-0.5-0.5-0.8-0.8c-0.1-0.2-0.1-0.5,0.1-0.6s0.5-0.1,0.6,0.1c0.8,1.1,1.5,0.9,1.5,0.9c0.2-0.1,0.5,0,0.6,0.3s0,0.5-0.3,0.6
	c-0.2,0-0.3,0.1-0.5,0.1c-0.2,0-0.4,0-0.5-0.1c-0.8,1.6-1.1,3.3-1,5.1c0.4-0.9,1-1.8,1.6-2.5C219.3,181.8,220.9,180.4,222.8,179.4z"
	/>
<path d="M220.8,203.3c1.6,0,3.2-0.6,4.5-1.6c2.9-2.1,4-5.7,2.4-7.9c-1.4-1.9-5.9-4.7-9.1-4.7c-0.5,0-1.1,0.1-1.6,0.3
	c2.4,2.6,1.3,8.8-0.3,11.8c0.1,0.1,0.2,0.3,0.2,0.4C217.9,202.7,219.3,203.3,220.8,203.3z"/>
<path d="M230.9,184.6c-0.9-2.9-3.2-4.9-5.6-4.9c-0.4,0-0.8,0.1-1.2,0.2c-0.3,0.1-0.7,0.3-1,0.4l0,0c-2.7,1.4-6.9,5.4-6.6,8.3
	c0.6-0.3,1.3-0.4,2-0.4c3.1,0,7.2,2.3,9.1,4.3l0.4-0.1C230.8,191.5,232,188,230.9,184.6z"/>
<path d="M207.2,201.7c1.3,1,2.9,1.5,4.5,1.6c1.5,0.1,2.9-0.6,3.8-1.7c1.1-1.9,1.8-3.9,2-6.1c0.2-1.5,0.2-4-1-5.4
	c-0.8,1.3-2.1,2.2-3.6,2.6c-1.8,0.6-3.7,0.9-5.6,0.9l0,0c-0.7,0-1.4,0-2.1-0.1c-0.1,0.1-0.2,0.2-0.3,0.4c-0.8,1.2-1,2.6-0.5,3.9
	C204.9,199.3,205.9,200.7,207.2,201.7z"/>
<path d="M272.5,68.7c-0.4-0.2-0.7-0.3-1.1-0.3c-2.3-0.3-4.7,1.3-6,4c-0.7,1.4-1,3.1-0.7,4.7c0.2,1.3,1,2.5,2.2,3.1
	c0.9,0.4,1.8,0.6,2.7,0.7c3.3,0.5,7.1,0,8.5-1.8c-3.3-1.1-5.1-7-5.1-10.2L272.5,68.7z"/>
<path d="M286.4,70.2c0-0.2,0.1-0.3,0.1-0.4c0.1-1.3-0.4-2.7-1.3-3.6c-1.2-1.1-2.7-1.9-4.3-2.1c-3.5-0.5-6.6,1.3-7,3.9
	c-0.1,2.1,0.3,4.2,1.1,6.1c0.5,1.3,1.2,2.5,2.2,3.5c-1.2-2.1-1.8-4.6-1.5-7c0,0,0-0.1,0-0.1c-0.4-0.3-0.7-0.7-0.9-1.1
	c-0.1-0.2,0-0.5,0.2-0.6s0.5,0,0.6,0.2l0,0c0.6,1.2,1.4,1,1.4,1c0.3,0,0.5,0.2,0.6,0.4S277.3,71,277,71l0,0c-0.2,0-0.3,0-0.5,0h-0.1
	c-0.2,1.9,0.2,3.9,1.1,5.6c-0.2-2.3-0.4-6.5,1.3-9.3c-0.2-0.2-0.4-0.5-0.5-0.8c-0.1-0.2,0-0.5,0.2-0.6s0.5,0,0.6,0.2
	c0.6,1.2,1.4,1,1.4,1c0.2-0.1,0.5,0.1,0.5,0.3c0.1,0.2-0.1,0.5-0.3,0.5c0,0,0,0,0,0c-0.2,0-0.3,0-0.5,0c-0.2,0-0.4-0.1-0.6-0.2
	c-1.1,1.9-1.3,4.7-1.2,6.9c0.2-1.6,0.8-3,1.7-4.3c-0.2-0.3-0.5-0.5-0.6-0.8c-0.1-0.2,0-0.5,0.2-0.6s0.5,0,0.6,0.2l0,0
	c0.6,1.2,1.4,1,1.4,1c0.2-0.1,0.5,0.1,0.5,0.3c0.1,0.2-0.1,0.5-0.3,0.5c0,0,0,0,0,0c-0.2,0-0.3,0-0.5,0c-0.2,0-0.3-0.1-0.5-0.1
	c-1,1.4-1.5,3-1.7,4.7c0.5-0.8,1.2-1.5,1.9-2.2C282.6,72,284.4,70.9,286.4,70.2z"/>
<path d="M281.1,92.9c1.6,0.2,3.2-0.1,4.6-0.9c3.1-1.7,4.6-4.9,3.4-7.3c-1-2-5-5.3-8.1-5.8c-0.5-0.1-1-0.1-1.5,0.1
	c2,2.8,0,8.6-1.8,11.3c0.1,0.2,0.1,0.3,0.2,0.4C278.5,92,279.7,92.8,281.1,92.9z"/>
<path d="M293.4,76.2c-0.5-2.9-2.5-5.2-4.7-5.5c-0.4-0.1-0.8-0.1-1.2,0c-0.3,0.1-0.7,0.2-1,0.3l0,0c-2.8,1-7.3,4.2-7.4,7.1
	c0.6-0.2,1.3-0.2,2-0.1c3,0.4,6.6,3.2,8.2,5.4l0.5-0.1C292.4,82.9,294,79.7,293.4,76.2z"/>
<path d="M268.3,89.6c1.1,1.1,2.6,1.8,4.1,2.1c1.4,0.3,2.8-0.2,3.8-1.1c1.3-1.6,2.2-3.6,2.7-5.6c0.4-1.4,0.7-3.8-0.3-5.3
	c-1,1.1-2.3,1.8-3.8,2c-1.8,0.3-3.7,0.4-5.6,0.1l0,0c-0.7-0.1-1.3-0.2-2-0.4l-0.3,0.3c-0.9,1-1.3,2.4-1,3.7
	C266.3,86.9,267.1,88.4,268.3,89.6z"/>
<path d="M418.2,104.6c-0.2-0.3-0.4-0.5-0.7-0.7c-1.6-1.2-4.2-1-6.4,0.5c-1.2,0.8-2.1,2-2.6,3.4c-0.4,1.1-0.3,2.4,0.4,3.4
	c0.5,0.7,1.1,1.2,1.8,1.7c2.4,1.8,5.5,3,7.3,2.3c-2.1-2.3-1-7.6,0.4-10.2C418.4,104.8,418.3,104.7,418.2,104.6z"/>
<path d="M428.4,111.7l0.2-0.3c0.7-1,0.9-2.2,0.5-3.4c-0.4-1.4-1.3-2.6-2.5-3.5c-2.5-1.9-5.7-1.9-7.1,0c-1,1.6-1.6,3.4-1.8,5.2
	c-0.2,1.2-0.1,2.5,0.2,3.7c-0.1-2.2,0.6-4.3,1.8-6.1v-0.1c-0.2-0.4-0.2-0.8-0.2-1.2c0-0.2,0.2-0.4,0.4-0.4s0.4,0.2,0.4,0.4
	c0,0,0,0,0,0c0,1.2,0.6,1.4,0.6,1.4c0.2,0.1,0.3,0.3,0.3,0.5c-0.1,0.2-0.3,0.3-0.5,0.3c-0.1,0-0.3-0.1-0.4-0.2l-0.1-0.1
	c-1,1.4-1.5,3.1-1.5,4.8c0.8-1.9,2.5-5.2,5-6.7c-0.1-0.3-0.1-0.5-0.1-0.8c0-0.2,0.2-0.4,0.4-0.4c0.2,0,0.4,0.2,0.4,0.4
	c0,1.2,0.6,1.4,0.6,1.4c0.2,0.1,0.3,0.3,0.3,0.5c-0.1,0.2-0.3,0.3-0.5,0.3c-0.1,0-0.3-0.1-0.4-0.2c-0.2-0.1-0.3-0.3-0.4-0.4
	c-1.7,1.2-3.1,2.9-3.9,4.8c0.9-1.1,1.9-2,3.2-2.6c-0.1-0.3-0.1-0.6-0.1-0.9c0-0.2,0.2-0.4,0.4-0.4s0.4,0.2,0.4,0.4c0,0,0,0,0,0
	c0,1.2,0.6,1.4,0.6,1.4c0.2,0.1,0.3,0.3,0.3,0.5c-0.1,0.2-0.3,0.3-0.5,0.3c-0.1,0-0.3-0.1-0.4-0.2c-0.1-0.1-0.2-0.2-0.3-0.3
	c-1.4,0.7-2.5,1.7-3.3,3c0.8-0.4,1.6-0.7,2.5-0.9C424.6,111.5,426.5,111.4,428.4,111.7z"/>
<path d="M414.6,127.1c1.1,0.8,2.5,1.3,3.9,1.3c3.1,0,5.7-1.8,5.8-4.2c0-2-1.6-6.3-3.8-8c-0.4-0.3-0.8-0.5-1.2-0.6
	c0.3,3.1-3.7,6.7-6.3,8c0,0.2,0,0.3,0,0.4C412.9,125.2,413.5,126.4,414.6,127.1z"/>
<path d="M431.2,119.4c0.9-2.5,0.3-5.1-1.3-6.3c-0.3-0.2-0.6-0.4-0.9-0.5c-0.3-0.1-0.6-0.2-0.9-0.2l0,0c-2.6-0.4-7.5,0.2-8.8,2.4
	c0.6,0.1,1.1,0.4,1.6,0.8c2.1,1.6,3.7,5.3,4.1,7.7l0.4,0.2C427.6,124.2,430.2,122.4,431.2,119.4z"/>
<path d="M406,119c0.4,1.3,1.2,2.5,2.3,3.4c1,0.8,2.3,1.1,3.5,0.8c1.7-0.7,3.3-1.8,4.5-3.2c0.9-0.9,2.2-2.7,2.1-4.2
	c-1.2,0.5-2.6,0.5-3.8,0c-1.6-0.5-3.1-1.3-4.4-2.3l0,0c-0.5-0.4-0.9-0.8-1.4-1.2l-0.4,0.1c-1.1,0.4-2,1.3-2.4,2.4
	C405.6,116.2,405.6,117.6,406,119z"/>
<path d="M424.2,260.1c-0.4-0.2-0.7-0.3-1.1-0.3c-2.3-0.3-4.7,1.3-6,4c-0.7,1.5-1,3.1-0.7,4.7c0.2,1.3,1,2.5,2.2,3.1
	c0.9,0.4,1.8,0.6,2.7,0.7c3.3,0.5,7.1,0,8.5-1.8c-3.3-1.1-5.1-7-5.1-10.2L424.2,260.1z"/>
<path d="M438.1,261.6c0-0.1,0.1-0.3,0.1-0.4c0.1-1.3-0.4-2.7-1.3-3.6c-1.2-1.1-2.7-1.9-4.3-2.1c-3.5-0.5-6.6,1.3-7,3.9
	c-0.1,2.1,0.3,4.2,1.1,6.1c0.5,1.3,1.2,2.5,2.2,3.5c-1.2-2.1-1.8-4.6-1.5-7c0,0,0-0.1,0-0.1c-0.4-0.3-0.7-0.7-0.9-1.1
	c-0.1-0.2,0-0.5,0.2-0.6s0.5,0,0.6,0.2l0,0c0.6,1.1,1.4,1,1.4,1c0.2-0.1,0.5,0.1,0.5,0.3c0.1,0.2-0.1,0.5-0.3,0.5c0,0,0,0,0,0
	c-0.2,0-0.3,0-0.5,0h-0.1c-0.2,2,0.2,4,1.1,5.7c-0.2-2.3-0.4-6.5,1.3-9.3c-0.2-0.2-0.4-0.5-0.6-0.7c-0.1-0.2,0-0.5,0.2-0.6
	s0.5,0,0.6,0.2l0,0c0.6,1.1,1.4,1,1.4,1c0.2-0.1,0.5,0.1,0.5,0.3c0.1,0.2-0.1,0.5-0.3,0.5c0,0,0,0,0,0c-0.2,0-0.3,0-0.5,0
	c-0.2,0-0.4-0.1-0.6-0.2c-1.1,1.9-1.3,4.7-1.2,6.9c0.2-1.6,0.8-3,1.7-4.3c-0.2-0.3-0.5-0.5-0.6-0.9c-0.1-0.2,0-0.5,0.2-0.6
	s0.5,0,0.6,0.2c0.6,1.1,1.4,1,1.4,1c0.2-0.1,0.5,0.1,0.5,0.3c0.1,0.2-0.1,0.5-0.3,0.5c0,0,0,0,0,0c-0.2,0-0.3,0-0.5,0
	c-0.2,0-0.3-0.1-0.5-0.1c-1,1.4-1.5,3-1.7,4.7c0.5-0.8,1.2-1.6,1.9-2.2C434.3,263.4,436.1,262.3,438.1,261.6z"/>
<path d="M432.9,284.3c1.6,0.2,3.2-0.1,4.5-0.9c3.1-1.7,4.6-4.9,3.4-7.3c-1-2-5-5.3-8.1-5.8c-0.5-0.1-1-0.1-1.5,0.1
	c2,2.8,0,8.6-1.8,11.3c0.1,0.1,0.1,0.3,0.2,0.4C430.2,283.4,431.5,284.2,432.9,284.3z"/>
<path d="M445.1,267.7c-0.5-2.9-2.5-5.2-4.7-5.5c-0.4-0.1-0.8-0.1-1.2,0c-0.3,0.1-0.7,0.2-1,0.3l0,0c-2.8,1-7.3,4.2-7.4,7.1
	c0.6-0.2,1.3-0.2,2-0.1c3,0.4,6.6,3.2,8.2,5.4l0.5-0.1C444.1,274.3,445.7,271.1,445.1,267.7z"/>
<path d="M420.1,281c1.1,1.1,2.6,1.8,4.1,2.1c1.4,0.3,2.8-0.2,3.8-1.1c1.3-1.6,2.2-3.6,2.7-5.6c0.4-1.4,0.7-3.8-0.3-5.3
	c-1,1.1-2.3,1.8-3.8,2c-1.8,0.3-3.7,0.4-5.6,0.1l0,0c-0.7-0.1-1.3-0.2-2-0.4l-0.3,0.3c-0.9,1-1.3,2.4-1,3.7
	C418.1,278.4,418.9,279.9,420.1,281z"/>
<path d="M246.5,260.4c-0.3,0-0.7,0.1-1,0.2c-1.9,0.7-3.2,2.9-3.1,5.5c0,1.4,0.5,2.9,1.4,4c0.7,1,1.8,1.5,3,1.5
	c0.8-0.1,1.6-0.2,2.4-0.5c2.8-1,5.5-2.9,5.9-4.8c-3,0.4-6.8-3.4-8.1-5.9L246.5,260.4z"/>
<path d="M258,256c0-0.1-0.1-0.3-0.1-0.4c-0.4-1.1-1.4-2-2.5-2.3c-1.4-0.4-2.9-0.4-4.2,0.1c-2.9,1-4.7,3.7-3.9,5.9
	c0.8,1.7,1.9,3.2,3.3,4.4c0.9,0.8,2,1.5,3.1,1.8c-1.8-1.1-3.2-2.8-4-4.8v-0.1c-0.4-0.1-0.8-0.2-1.1-0.5c-0.2-0.1-0.3-0.3-0.2-0.5
	c0.1-0.2,0.3-0.3,0.5-0.2c0,0,0,0,0.1,0c1,0.6,1.5,0.3,1.5,0.3c0.1-0.2,0.4-0.2,0.6,0c0.2,0.1,0.2,0.4,0,0.6c0,0,0,0-0.1,0.1
	c-0.1,0.1-0.2,0.1-0.4,0.2h-0.1c0.6,1.6,1.7,3,3.1,4c-1.1-1.7-2.9-4.9-2.7-7.8c-0.3-0.1-0.5-0.2-0.7-0.4c-0.2-0.1-0.2-0.4,0-0.5
	c0.1-0.1,0.3-0.2,0.5-0.1c1,0.7,1.5,0.3,1.5,0.3c0.1-0.2,0.4-0.2,0.6,0c0.2,0.1,0.2,0.4,0,0.6c0,0,0,0-0.1,0.1
	c-0.1,0.1-0.2,0.1-0.4,0.2c-0.2,0.1-0.4,0.1-0.6,0.1c0.1,2.1,0.7,4.1,1.8,5.9c-0.4-1.3-0.6-2.7-0.4-4.1c-0.3-0.1-0.6-0.2-0.8-0.4
	c-0.2-0.1-0.3-0.3-0.2-0.5c0.1-0.2,0.3-0.3,0.5-0.2c0,0,0,0,0.1,0c1,0.6,1.5,0.3,1.5,0.3c0.1-0.2,0.4-0.2,0.6,0
	c0.2,0.1,0.2,0.4,0,0.6c0,0,0,0-0.1,0.1c-0.1,0.1-0.2,0.1-0.4,0.2c-0.1,0-0.3,0.1-0.4,0.1c-0.2,1.5,0,3,0.6,4.4
	c0.1-0.9,0.3-1.7,0.6-2.5C255.8,258.9,256.8,257.4,258,256z"/>
<path d="M263.1,275.9c1.3-0.5,2.4-1.4,3.2-2.5c1.8-2.5,1.6-5.7-0.3-7c-1.6-1.1-6.1-2.2-8.7-1.3c-0.4,0.1-0.8,0.4-1.2,0.7
	c2.7,1.4,3.5,6.7,3.1,9.6l0.3,0.2C260.6,276.2,261.9,276.4,263.1,275.9z"/>
<path d="M265.9,257.9c-1.6-2.1-4-3.1-5.9-2.4c-0.3,0.1-0.6,0.3-0.9,0.5c-0.2,0.2-0.5,0.4-0.7,0.6l0,0c-1.8,1.9-4,6.3-2.9,8.6
	c0.4-0.4,0.9-0.7,1.5-0.9c2.5-0.9,6.4-0.1,8.6,0.9l0.4-0.2C267.8,263.6,267.8,260.4,265.9,257.9z"/>
<path d="M251.7,278.4c1.3,0.4,2.8,0.4,4.1,0c1.2-0.3,2.1-1.3,2.5-2.4c0.4-1.8,0.3-3.7-0.1-5.5c-0.3-1.2-1-3.3-2.3-4.1
	c-0.3,1.3-1.1,2.4-2.1,3.1c-1.3,1-2.8,1.8-4.3,2.3l0,0c-0.6,0.2-1.1,0.4-1.7,0.5c-0.1,0.1-0.1,0.2-0.1,0.4c-0.3,1.2-0.1,2.4,0.7,3.3
	C249.1,277.2,250.3,278.1,251.7,278.4z"/>
<path d="M337.1,127.2c-0.2-0.2-0.5-0.4-0.9-0.6c-1.8-0.9-4.5-0.1-6.4,2c-1.1,1.1-1.8,2.6-2,4.1c-0.2,1.2,0.1,2.5,1,3.4
	c0.6,0.6,1.3,1,2.1,1.4c2.7,1.3,6.1,1.8,7.8,0.6c-2.5-1.9-2.3-7.7-1.4-10.6L337.1,127.2z"/>
<path d="M348.6,132.2c0.1-0.1,0.1-0.3,0.2-0.4c0.5-1.2,0.5-2.5-0.1-3.6c-0.7-1.3-1.7-2.4-3.1-3c-2.9-1.4-6.1-0.6-7.2,1.7
	c-0.7,1.9-1,3.9-0.9,5.9c0,1.3,0.3,2.6,0.9,3.8c-0.4-2.3-0.2-4.6,0.8-6.7v-0.1c-0.2-0.4-0.4-0.8-0.4-1.2c0-0.2,0.1-0.4,0.3-0.5
	c0.2,0,0.4,0.1,0.5,0.3c0,0,0,0,0,0c0.2,1.2,0.9,1.3,0.9,1.3c0.2,0,0.4,0.2,0.3,0.4c0,0,0,0,0,0c0,0.2-0.2,0.4-0.5,0.4
	c-0.1,0-0.3-0.1-0.4-0.1l-0.1-0.1c-0.7,1.7-1,3.6-0.7,5.4c0.5-2.1,1.6-6,3.9-8.1c-0.1-0.3-0.2-0.5-0.2-0.8c0-0.2,0.1-0.4,0.3-0.5
	c0.2,0,0.4,0.1,0.5,0.3c0,0,0,0,0,0c0.2,1.2,0.9,1.3,0.9,1.3c0.2,0,0.4,0.2,0.3,0.4c0,0,0,0,0,0c0,0.2-0.2,0.4-0.5,0.4
	c-0.1,0-0.3-0.1-0.4-0.1c-0.2-0.1-0.3-0.2-0.5-0.3c-1.5,1.7-2.6,3.7-3.1,5.9c0.7-1.3,1.6-2.5,2.8-3.5c-0.1-0.3-0.2-0.6-0.3-0.9
	c0-0.2,0.1-0.4,0.3-0.5c0.2,0,0.4,0.1,0.5,0.3c0,0,0,0,0,0c0.2,1.2,0.9,1.3,0.9,1.3c0.2,0,0.4,0.2,0.3,0.4c0,0,0,0,0,0
	c0,0.2-0.2,0.4-0.5,0.4c-0.1,0-0.3-0.1-0.4-0.1c-0.1-0.1-0.3-0.1-0.4-0.2c-1.2,1-2.2,2.4-2.8,3.9c0.7-0.6,1.5-1.1,2.3-1.5
	C344.7,132.9,346.6,132.4,348.6,132.2z"/>
<path d="M337.4,151.5c1.3,0.6,2.8,0.7,4.2,0.4c3.2-0.7,5.4-3.2,5.1-5.7c-0.3-2.1-2.7-6.2-5.2-7.4c-0.4-0.2-0.9-0.3-1.4-0.3
	c0.9,3.1-2.5,7.8-4.9,9.8c0,0.1,0,0.3,0,0.4C335.3,149.9,336.2,151,337.4,151.5z"/>
<path d="M352.8,139.6c0.4-2.8-0.6-5.3-2.4-6.2c-0.3-0.2-0.7-0.2-1-0.3c-0.3,0-0.6,0-0.9,0l0,0c-2.7,0.2-7.5,1.9-8.5,4.5
	c0.6,0,1.2,0.1,1.7,0.4c2.4,1.2,4.7,4.6,5.4,7l0.4,0.1C349.9,145.4,352.3,142.9,352.8,139.6z"/>
<path d="M327.4,145.1c0.6,1.3,1.6,2.3,2.9,3c1.1,0.6,2.5,0.6,3.6,0c1.6-1.2,3-2.6,4-4.4c0.7-1.2,1.8-3.3,1.4-4.9
	c-1.1,0.7-2.5,1.1-3.8,0.9c-1.7-0.2-3.3-0.6-4.8-1.4l0,0c-0.6-0.3-1.1-0.6-1.6-0.9l-0.4,0.2c-1.1,0.7-1.8,1.8-2,3.1
	C326.5,142.2,326.7,143.7,327.4,145.1z"/>
</svg>
