<svg id="template" xmlns="http://www.w3.org/2000/svg" width="655" height="493" viewBox="0 0 655 493"><title>02 ROOT</title><path d="M319.14,413.591l-.028,0C319.125,413.646,319.133,413.625,319.14,413.591Z" fill="none" stroke="#000" stroke-linecap="round" stroke-linejoin="round"/><path d="M319.14,413.591l-.028,0C319.125,413.646,319.133,413.625,319.14,413.591Z" fill="none" stroke="#000" stroke-linecap="round" stroke-linejoin="round" stroke-dasharray="2 4"/><path d="M292.341,354.573c-2.623,3.2-5.809,6.086-9.894,7.091-5.478,1.347-10.659,3.577-16.081,5.071-2.131.587-4.228,1.228-6.3,1.977a30.7,30.7,0,0,0-5.552,2.3,35.356,35.356,0,0,0-4.252,3.41,58.175,58.175,0,0,1-9.138,6.6c-7.1,3.9-14.136,6.765-22.191,7.583-6.035.614-12.1,1.538-17.753,3.732A30.543,30.543,0,0,0,187.077,402.8a.233.233,0,0,0,.173.129c.02.216.093.135.309.115a1.221,1.221,0,0,0,.577-.278,51.239,51.239,0,0,1,5.826-4.106,31.082,31.082,0,0,1,8.2-2.886,48.87,48.87,0,0,1,8.817-1.26,26.612,26.612,0,0,1,4.669.236.72.72,0,0,1,.449.182,8.66,8.66,0,0,1-2.519,2.419,26.372,26.372,0,0,0-2.961,2.777c-.911.987-1.713,2.077-2.6,3.088a26.729,26.729,0,0,0-2.316,3.19,14,14,0,0,0-1.521,3.563c-.069.229.26.076.5.078,2.08-4.591,6.493-7.736,11.13-9.709s9.622-2.981,14.389-4.617a86.6,86.6,0,0,0,14.88-6.59c4.617-2.637,8.618-6.539,12.336-10.345-.3.309-.363,1.9-.52,2.38a15.629,15.629,0,0,1-1.056,2.445c-.785,1.487-1.748,2.782-2.427,4.32a24.432,24.432,0,0,1-6.059,8.334,31.573,31.573,0,0,1-3.473,2.654q-1.627,1.09-3.345,2.035c-2.595,1.427-5.365,2.621-7.593,4.572-4.061,3.554-8.362,6.928-12.182,10.747-3.9,3.9-7.046,8.965-10.418,13.34a27.373,27.373,0,0,1-2.2,2.768c-3.659,3.831-7.357,8.363-12.428,10.339a14.259,14.259,0,0,0,4.922-.56,20.826,20.826,0,0,0,3.53-1.469,38.823,38.823,0,0,0,9.272-6.616c.908-.875,1.834-1.732,2.793-2.55.571-.487,2.017-2.148,2.79-2.123.012,2.074-.394,4.126-.39,6.2a35.394,35.394,0,0,0,.55,6.167c.149.832.262,1.67.429,2.5a12.878,12.878,0,0,0,.311,1.261,11.789,11.789,0,0,0,.528,1.195.364.364,0,0,0,.126.177.051.051,0,0,0,.031.009c.022,0,.033-.029.038-.051a4.375,4.375,0,0,0-.056-1.052c.011-.464.035-.927.069-1.389.038-.526.033-1.036.069-1.561.083-1.2.193-2.405.352-3.6a41.831,41.831,0,0,1,1.777-8.631,48.053,48.053,0,0,1,3.989-9.355c1.9-3.055,4.778-5.384,7.533-7.634a22.187,22.187,0,0,1,5.9-3.254c3.724-1.475,7.476-2.887,11.121-4.552,3.524-1.609,7.428-3.437,10.356-6.027a5.872,5.872,0,0,0,.611-.676c.178-.215.461-.452.7-.309a1.558,1.558,0,0,1,.288,1,9.233,9.233,0,0,1-.717,3.832c-2.136,5.757-4.445,11.417-8.223,16.328A73.346,73.346,0,0,0,249.089,427a24.4,24.4,0,0,0-2.787,7.888,28.4,28.4,0,0,0-.238,11.931q.028.12.057.24c.03.124.076.266.195.312.456.178.554-.886.55-1.1a18.889,18.889,0,0,1,2.73-10.127c.255-.419.63-.88,1.117-.822.335,6.5,1.1,13.666,5.368,18.862a1.589,1.589,0,0,0,.581.5,1.51,1.51,0,0,0-.275-1.151,20.779,20.779,0,0,1-2.1-11.574c.626-7.445,4.625-12.9,9.753-17.972,2.83-2.8,5.886-5.518,7.636-9.2,1.644-3.458,1.748-7.3,2.131-11.022a35.784,35.784,0,0,1,2.983-11.313,30.975,30.975,0,0,1,7.877-10.512,2.441,2.441,0,0,1,1.9-.809,23.3,23.3,0,0,0-.98,15.344,20.146,20.146,0,0,1-.135,11.906,39.993,39.993,0,0,1-7.805,14.933,29.921,29.921,0,0,0-5.923,10.537,27.4,27.4,0,0,0-1.175,12.1,10.226,10.226,0,0,0,1.046,3.77.436.436,0,0,0,.194.207c.346.136.176-1.036.17-1.229-.015-.532-.022-1.064-.02-1.6.005-1.037.049-2.074.156-3.106a28.485,28.485,0,0,1,2.651-9.076,20.63,20.63,0,0,1,3.72-5.611c.256-.269.632-.552.962-.382.275.141.326.5.348.813a34.321,34.321,0,0,0,1.845,8.976,2.127,2.127,0,0,0,.778,1.2c.181.108.25.062.418.189.347-.155.362-.634.331-1.013-.576-7.119,2.081-14.475,6.075-20.244q2.919-4.217,6.226-8.148a8.018,8.018,0,0,1,1.391-1.278.892.892,0,0,1,.666-.261c.271.047.44.313.57.556A30.831,30.831,0,0,1,302.05,422.7c.32,5.042-.053,10.192-.184,15.261a32.882,32.882,0,0,0,2.672,13.212c2.484,6.036,7.907,12.32,14.444,13.883a1.412,1.412,0,0,0,1.2-.094c.172.25.172.2.1-.094s-.389-.447-.666-.57c-2.633-1.168-4.514-3.917-6.152-6.239a41.131,41.131,0,0,1-4.4-8.118c-2.489-6.073-1.323-11.816-1.044-18.1a1.486,1.486,0,0,1,1.206.617c2.7,2.85,3.991,6.641,5.073,10.336,1.073,3.665,2.095,7.486,5.116,10.1a8.88,8.88,0,0,0,5.57,2.231c.189,0,.433-.045.463-.232s-.165-.3-.326-.373a12.932,12.932,0,0,1-5.641-5.147c-1.392-2.363-1.511-5.177-2.089-7.822-.4-1.835-.9-3.643-1.385-5.458a42.5,42.5,0,0,0-2.326-7.067A14.952,14.952,0,0,0,310,423.937c-.68-.586-1.05-.766-1.211-1.679-.19-1.079-.085-2.279-.184-3.377a50.094,50.094,0,0,0-3.357-13.07c-1.561-4.213-4.021-8.01-5.681-12.18-2.337-5.871-.341-12.575,6.078-14.663,3.076-1,6.917.012,8.492,2.837,1.476,2.648.677,5.963-.473,8.768a38.912,38.912,0,0,0-2.941,13.964c-.159,4.918,2.125,9.252,4.951,13.117,3.388,4.634,6.825,8.836,8.1,14.587.091.411.058-.045.419.173-.261-.158.168-2.436.2-2.811a12.277,12.277,0,0,0-.184-3.582,28.713,28.713,0,0,0-2.575-6.694c-.363-.748-2.988-5-2.48-5.734a4.262,4.262,0,0,1,2.1,1.233,6.8,6.8,0,0,0,2.3,1.183,2.249,2.249,0,0,0-.5-1.179,33.137,33.137,0,0,1-3.73-7.672c-.723-2.122-1.277-5.166.367-7.021,3.855-4.346,8.574,5.859,9.192,8.555a43.492,43.492,0,0,1,.752,9.4,99.185,99.185,0,0,0,.337,9.979,16.906,16.906,0,0,0,3.592,8.983,138.634,138.634,0,0,1,10.615,17.973,34.712,34.712,0,0,1,1.585,4.177.282.282,0,0,0,.083.135c.168.123.317-.18.307-.388a42.85,42.85,0,0,0-3.135-14.235c-1.006-2.443-2.336-4.715-3.214-7.238l-.487-1.4c-.165-.474-.7-1.664-.314-2.122.651-.781,2.221.812,2.681,1.159a19.133,19.133,0,0,0,5.3,2.817c2.091.718,4.139.624,6.322.772.029-.255-.268-.409-.511-.492a22.069,22.069,0,0,1-13.408-13.072c-1-2.71-1.941-5.44-2.7-8.229a59.253,59.253,0,0,1-1.071-8.077c-.767-6.155-1.565-12.421-4.148-18.061-.412-.9-.851-1.784-1.312-2.66a9.954,9.954,0,0,1-.991-2.185c1.007-.241,3.342,1.641,4.188,2.207a31.055,31.055,0,0,1,4.027,3.213,30.673,30.673,0,0,1,6.129,8.067c2.6,4.98,3.6,11.16,5.155,16.562a60.71,60.71,0,0,0,9.945,19.548c2.893,3.858,4.733,7.6,4.941,12.56a10.3,10.3,0,0,1-.254,3.037,5.632,5.632,0,0,1-.533,1.349,11.34,11.34,0,0,0-.771,1.1c1.516-.031,2.418-1.909,2.985-3.045a9.889,9.889,0,0,0,1.279-4.4,21.143,21.143,0,0,0-1.01-6.254,72.039,72.039,0,0,0-3.97-9.363c-1.417-2.917-3.341-5.9-4-9.074a1.445,1.445,0,0,1,1.188.428,32.367,32.367,0,0,0,6.994,4c2.438,1.013,4.994,1.913,7.658,1.5.12-.018.268-.074.27-.2,0-.1-.107-.167-.2-.209a31.108,31.108,0,0,1-6-3.049,44.578,44.578,0,0,1-5.375-4.627,50.243,50.243,0,0,1-7.085-8.657,13.41,13.41,0,0,1-.672-1.293,46.627,46.627,0,0,1-2.756-7.263c-.861-2.967-1.81-5.995-2.921-8.884a47.581,47.581,0,0,0-6.658-12.048,25.375,25.375,0,0,0-6.264-5.7c-1.816-1.193.849-1.264,1.616-1.3a24.268,24.268,0,0,1,3.816.126c5.27.589,9.63,2.935,13.829,6.027,6.337,4.666,11.206,11.142,14.893,18.115a43.85,43.85,0,0,1,1.97,4.373c.571,1.442,1.268,2.8,1.814,4.234a46.1,46.1,0,0,1,2.7,9.48,124.684,124.684,0,0,1,.936,16.482A42.734,42.734,0,0,0,380,447.33a44.071,44.071,0,0,0,3.7,7.382,25.854,25.854,0,0,0,3.834,5.155c1.43,1.4,3.689,3.1,5.809,2.939a.221.221,0,0,0,.119-.034.193.193,0,0,0,.039-.21,1.019,1.019,0,0,0-.172-.3c-.823-1.122-1.807-2.1-2.641-3.219-.862-1.154-1.674-2.347-2.419-3.579a25.779,25.779,0,0,1-3.789-10.322,41.46,41.46,0,0,1-.2-5.736c.029-1.075.189-2.366,1.161-2.828a2.735,2.735,0,0,1,1.013-.2c8.372-.524,15.04,4.118,22.525,7.031,5.871,2.285,12.187,4.4,18.363,3.159a21.173,21.173,0,0,0,2.448-.607,9.062,9.062,0,0,0,1.493-.567,1.672,1.672,0,0,0,.68-.49.135.135,0,0,0,.026-.088c-.011-.067-.1-.085-.166-.087-.724-.021-1.437.026-2.169-.017q-1.176-.068-2.348-.2a43.012,43.012,0,0,1-15.02-4.63,41.887,41.887,0,0,1-6.615-4.3l-.154-.123a35.392,35.392,0,0,0-9.565-5.327,61.235,61.235,0,0,0-6.562-2.154q-1.622-.419-3.273-.686c-.9-.146-.939-.6-.95-1.53-.031-2.459.164-4.917.171-7.366.007-2.593-.025-5.188-.19-7.777a41.336,41.336,0,0,0-3.405-15.074,118.39,118.39,0,0,0-6.04-11.017,38.229,38.229,0,0,0-4.522-6.39c-.7-.744-1.354-1.525-2.052-2.269-.4-.427-.876-.778-1.257-1.226-.741-.869.16-.639.871-.526a43.114,43.114,0,0,1,5.141,1.134,34.179,34.179,0,0,1,9.492,4.281,26.537,26.537,0,0,1,5.986,4.993,81.152,81.152,0,0,1,11.035,18.164c1.633,3.73,2.995,7.6,5.1,11.085a59.054,59.054,0,0,0,4.821,6.529c4.426,5.452,10.583,9.553,16.88,12.57a40.545,40.545,0,0,0,21.614,3.775,24.837,24.837,0,0,0,4.644-.855c.474-.144,1.494-.848.4-.929-.51-.037-1.006-.133-1.512-.183a63.323,63.323,0,0,1-24.306-7.718,4.193,4.193,0,0,1-1.294-.958c-.543-.738.676-.527,1.182-.533,1.881-.023,3.741.311,5.615.411a37.262,37.262,0,0,0,9.081-.18c.235-.046,2.3-.741,1.638-1.036a.419.419,0,0,0-.2-.018,17.16,17.16,0,0,1-4.411-.5,41.7,41.7,0,0,1-4.761-1.11,19.676,19.676,0,0,1-7.327-3.863c-5.009-4.41-9.182-8.175-11.091-14.57-2.309-7.735-3.567-14.833-8.331-21.35-.544-.744-.776-1.2-1.284-1.972a.746.746,0,0,1-.174-.668.732.732,0,0,1,.535-.333,34.935,34.935,0,0,1,15.554-.012c5.085,1.036,9.927,2.656,14.038,5.868A65.062,65.062,0,0,1,449.644,399c2.892,4.014,4.824,9.016,6.853,13.492,2.241,4.944,5.749,8.934,9.071,13.151a41.456,41.456,0,0,0,4.967,5.389,24.84,24.84,0,0,0,2.919,2.248c.337.22,2.678,1.762,2.9,1.439a.308.308,0,0,0-.014-.325.907.907,0,0,0-.245-.237,42.129,42.129,0,0,1-3.984-3.342,49.075,49.075,0,0,1-4.553-5.02,47.245,47.245,0,0,1-4.538-7.521,23.662,23.662,0,0,1-2.188-5.426c-.344-1.48-.638-3.365.1-4.773a.246.246,0,0,1,.1-.119c.09-.042.19.028.265.094,3.381,2.984,5.516,7,8.36,10.471a80.957,80.957,0,0,0,10.761,10.5,53.237,53.237,0,0,0,10.6,7.216c2,.988,5.267,2.8,7.566,2.517a.392.392,0,0,0,.218-.077c.189-.168-.036-.466-.253-.6-2.236-1.363-4.394-2.922-6.543-4.459a45.14,45.14,0,0,1-10.883-10.269c-2.523-3.545-4.824-7.261-7.292-10.876-2.561-3.752-5.036-7.562-7.5-11.378a70.016,70.016,0,0,0-15.784-16.638,86.4,86.4,0,0,0-9.7-6.292,31.991,31.991,0,0,0-7.492-3.444,88.51,88.51,0,0,0-8.679-1.745q-5.773-1.032-11.626-1.516c-10.811-.893-19.894-4.252-29.976-8.256-.9-.356-1.8-.687-2.71-1.007-6.505-2.288-13.393-4.332-18.72-8.795" fill="#f5f5f5" stroke="#000" stroke-linecap="round" stroke-linejoin="round" stroke-dasharray="2 4"/><path d="M319.14,413.591c-.007.034-.015.054-.028,0Z" fill="none" stroke="#000" stroke-linecap="round" stroke-linejoin="round" stroke-dasharray="2 4"/></svg>