<?xml version="1.0" encoding="UTF-8"?><svg id="frame" xmlns="http://www.w3.org/2000/svg" viewBox="0 0 655 493"><path d="M139.144,88.123h-.254c.305-1.567.466-3.186.466-4.843,0-13.926-11.289-25.214-25.214-25.214-10.8,0-20.013,6.791-23.605,16.336-3.802-2.299-8.26-3.622-13.027-3.622-11.177,0-20.653,7.273-23.96,17.343h-2.705c-12.045,0-21.81,9.765-21.81,21.81h0c0,12.045,9.765,21.81,21.81,21.81h6.113c5.217,6.517,13.238,10.691,22.235,10.691,8.766,0,16.605-3.963,21.827-10.193,4.157,3.021,9.272,4.804,14.805,4.804,5.83,0,11.198-1.98,15.469-5.302h7.85c12.045,0,21.81-9.765,21.81-21.81h0c0-12.045-9.765-21.81-21.81-21.81Z" fill="#f2f2f2"/><path d="M114.142,58.066c-.006,0-.012,0-.018,0h-.006s-.009,0-.013,0c-.002,0-.004,0-.006,0-.005,0-.009,0-.014,0h-.005c-.006,0-.012,0-.018,0h-.004s-.009,0-.014,0c-.002,0-.004,0-.006,0-.004,0-.009,0-.013,0-.001,0-.004,0-.006,0-.005,0-.01,0-.016,0-.001,0-.002,0-.003,0-.006,0-.012,0-.018,0-.002,0-.004,0-.006,0-.004,0-.009,0-.013,0-.003,0-.004,0-.006,0-.004,0-.009,0-.013,0-.002,0-.003,0-.005,0-.006,0-.012,0-.018,0-.001,0-.002,0-.003,0-.005,0-.01,0-.016,0-.002,0-.004,0-.006,0-.005,0-.009,0-.014,0-.002,0-.003,0-.005,0-.005,0-.01,0-.015,0-.001,0-.002,0-.003,0-.006,0-.012,0-.018,0-.001,0-.004,0-.005,0-.004,0-.009,0-.013,0-.002,0-.005,0-.007,0-.004,0-.009,0-.013,0-.002,0-.004,0-.006,0-.006,0-.012,0-.018,0,0,0-.001,0-.002,0-.006,0-.011,0-.017,0-.002,0-.003,0-.005,0-.004,0-.009,0-.013,0-.002,0-.004,0-.006,0-.005,0-.009,0-.014,0-.001,0-.003,0-.005,0-.006,0-.012,0-.018,0-.001,0-.003,0-.005,0-.005,0-.009,0-.014,0-.002,0-.004,0-.006,0-.004,0-.009,0-.013,0-.002,0-.004,0-.006,0-.012,0-.024,0-.036,0-.002,0-.004,0-.005,0-.004,0-.009,0-.013,0-.002,0-.004,0-.006,0-.004,0-.009,0-.013,0-.002,0-.003,0-.005,0-.006,0-.012,0-.018,0-.001,0-.003,0-.004,0-.005,0-.01,0-.014,0-.002,0-.004,0-.006,0-.004,0-.008,0-.013,0-.002,0-.004,0-.006,0-.005,0-.01,0-.015,0-.001,0-.003,0-.004,0-.006,0-.012,0-.018,0-.002,0-.003,0-.005,0-.004,0-.009,0-.013,0-.002,0-.004,0-.006,0-.005,0-.009,0-.014,0-.002,0-.003,0-.005,0-.006,0-.012,0-.018,0,0,0,0,0-.002,0-.006,0-.011,0-.017,0-.001,0-.004,0-.005,0-.005,0-.009,0-.014,0-.002,0-.004,0-.006,0-.005,0-.01,0-.015,0,0,0-.003,0-.003,0-.006,0-.012,0-.018,0-.001,0-.003,0-.004,0-.005,0-.009,0-.014,0-.002,0-.004,0-.006,0-.004,0-.009,0-.013,0-.002,0-.003,0-.005,0-.012,0-.025,0-.037.001-.002,0-.003,0-.005,0-.005,0-.009,0-.014,0-.002,0-.003,0-.005,0-.005,0-.01,0-.015,0-.001,0-.003,0-.004,0-.006,0-.013,0-.019,0,0,0-.002,0-.003,0-.005,0-.01,0-.015,0-.002,0-.004,0-.006,0h-.013s-.004,0-.005,0c-.012,0-.025,0-.037.001-.001,0-.003,0-.004,0-.005,0-.01,0-.014,0-.001,0-.004,0-.006,0-.005,0-.009,0-.014,0-.001,0-.003,0-.004,0-.006,0-.012,0-.018,0-.001,0-.002,0-.003,0-.005,0-.01,0-.015,0-.002,0-.004,0-.006,0-.004,0-.008,0-.012,0-.002,0-.004,0-.006,0-.005,0-.01,0-.015,0-.001,0-.002,0-.004,0-.006,0-.012,0-.018,0-.001,0-.003,0-.004,0-.005,0-.009,0-.014,0-.002,0-.003,0-.005,0-.004,0-.009,0-.014,0-.002,0-.003,0-.005,0-.012,0-.024.001-.036.002-.002,0-.003,0-.005,0-.004,0-.009,0-.013,0-.002,0-.004,0-.006,0h-.014s-.003,0-.005,0c-.006,0-.012,0-.018,0-.001,0-.003,0-.004,0-.005,0-.01,0-.014,0-.002,0-.004,0-.006,0-.004,0-.008,0-.013,0-.002,0-.004,0-.006,0-.005,0-.01,0-.016,0,0,0-.002,0-.003,0-.006,0-.012,0-.018,0-.002,0-.003,0-.005,0-.005,0-.009,0-.014,0h-.006s-.009,0-.014.001c-.001,0-.004,0-.005,0-.006,0-.012,0-.018.001-.001,0-.002,0-.003,0-.005,0-.01,0-.015,0-.002,0-.004,0-.006,0-.004,0-.009,0-.013,0-.002,0-.004,0-.006,0-.005,0-.011,0-.016,0h-.001c-.006,0-.012,0-.018.001-.001,0-.004,0-.005,0-.004,0-.009,0-.014,0-.002,0-.004,0-.006,0-.004,0-.009,0-.013,0-.002,0-.003,0-.005,0-.006,0-.012,0-.018.001,0,0,0,0-.002,0-.006,0-.011,0-.016.001-.003,0-.004,0-.006,0-.004,0-.008,0-.012,0-.002,0-.004,0-.006,0-.005,0-.01,0-.014,0-.001,0-.003,0-.004,0-.006,0-.012,0-.018.001-.001,0-.003,0-.004,0-.005,0-.009,0-.014,0-.002,0-.004,0-.006,0-.004,0-.009,0-.013,0-.002,0-.003,0-.005,0-.012,0-.024.002-.036.002-.002,0-.003,0-.005,0-.005,0-.009,0-.014,0-.002,0-.004,0-.006,0-.005,0-.009,0-.014,0-.001,0-.003,0-.004,0-.006,0-.012,0-.018.001,0,0-.002,0-.002,0-.005,0-.01,0-.016.001-.002,0-.003,0-.005,0-.004,0-.009,0-.013,0-.001,0-.004,0-.006,0-.005,0-.011,0-.016.001,0,0-.001,0-.002,0-.006,0-.012,0-.018.001-.002,0-.003,0-.005,0-.004,0-.009,0-.013,0-.002,0-.004,0-.006,0-.004,0-.009,0-.013,0-.002,0-.003,0-.005,0-.006,0-.012,0-.018.001,0,0,0,0-.001,0-.006,0-.011,0-.017.001-.001,0-.004,0-.005,0-.005,0-.009,0-.014.001-.001,0-.003,0-.005,0-.006,0-.011,0-.017.001,0,0,0,0-.002,0-.006,0-.012,0-.019.001,0,0-.002,0-.003,0-.005,0-.01,0-.016.001-.001,0-.003,0-.005,0-.005,0-.01,0-.015.001-.002,0-.002,0-.004,0-.006,0-.012.001-.019.002h0c-.006,0-.012,0-.018.002-.001,0-.003,0-.004,0-.005,0-.01,0-.014.001-.002,0-.003,0-.005,0-.005,0-.01,0-.016.001,0,0-.002,0-.002,0-.006,0-.012.001-.019.002,0,0-.002,0-.003,0-.005,0-.01,0-.015.001-.002,0-.003,0-.005,0-.005,0-.009,0-.014.001-.001,0-.003,0-.005,0-.012.001-.024.002-.037.003-.002,0-.003,0-.005,0-.005,0-.009,0-.014.001-.001,0-.004,0-.005,0-.005,0-.01,0-.014.001-.001,0-.003,0-.004,0-.006,0-.013.001-.019.002h0c-.006,0-.012.001-.018.002-.001,0-.003,0-.005,0-.005,0-.009,0-.014.001-.001,0-.003,0-.004,0-.006,0-.011.001-.017.002h0c-.006,0-.013.001-.019.002-.001,0-.002,0-.003,0-.005,0-.01,0-.015.001-.001,0-.004,0-.005,0-.005,0-.009,0-.014.001-.001,0-.002,0-.004,0-.012.001-.025.002-.037.004-.001,0-.003,0-.004,0h-.014s-.003.002-.005.002c-.006,0-.011.001-.016.002,0,0-.001,0-.002,0-.006,0-.012.001-.019.002-.001,0-.002,0-.004,0-.005,0-.01,0-.015.001-.002,0-.004,0-.005,0-.004,0-.009,0-.013.001-.002,0-.004,0-.005,0-.012.001-.024.002-.036.004-.002,0-.003,0-.005,0-.005,0-.009,0-.014.001-.002,0-.003,0-.005,0-.005,0-.01.001-.015.002-.001,0-.002,0-.003,0-.006,0-.012.001-.019.002h-.001c-.006,0-.011.001-.017.002-.001,0-.003,0-.004,0-.005,0-.01.001-.015.002-.001,0-.003,0-.004,0-.006,0-.012.001-.017.002,0,0,0,0-.001,0-.006,0-.012.001-.019.002-.001,0-.002,0-.003,0-.005,0-.01.001-.015.002-.001,0-.003,0-.004,0-.005,0-.01.001-.015.002-.001,0-.002,0-.003,0-.013.001-.025.003-.037.004-.001,0-.002,0-.004,0-.005,0-.01.001-.015.002-.001,0-.003,0-.004,0-.006,0-.011.001-.017.002h-.001c-.006,0-.012.002-.019.002-.001,0-.002,0-.003,0-.005,0-.01.001-.015.002-.002,0-.003,0-.005,0-.005,0-.01.001-.015.002-.001,0-.002,0-.004,0-.012.001-.024.003-.037.004-.001,0-.003,0-.004,0-.005,0-.01.001-.014.002-.002,0-.002,0-.004,0-.005,0-.011.001-.017.002,0,0,0,0-.001,0-.007,0-.013.001-.019.002h0c-.006,0-.012.001-.017.002-.001,0-.003,0-.004,0-.005,0-.01.001-.015.002-.001,0-.002,0-.004,0-.012.002-.025.003-.037.005-.001,0-.002,0-.003,0-.005,0-.01.001-.016.002-.001,0-.003,0-.004,0-.005,0-.011.001-.016.002,0,0-.001,0-.002,0-.012.002-.025.003-.037.005-.001,0-.003,0-.004,0-.005,0-.01.001-.015.002-.001,0-.003,0-.004,0-.012.002-.025.003-.037.005,0,0-.002,0-.002,0-.005,0-.011.001-.016.002-.001,0-.002,0-.004,0-.005,0-.011.001-.016.002,0,0-.002,0-.003,0-.013.002-.025.003-.038.005,0,0-.002,0-.002,0-.005,0-.011.001-.016.002,0,0-.002,0-.003,0-.006,0-.012.002-.018.002h0c-.013.002-.025.003-.038.005,0,0-.002,0-.003,0-.005,0-.011.001-.016.002,0,0-.002,0-.002,0-.013.002-.025.003-.038.005,0,0,0,0-.001,0-.006,0-.011.002-.017.002,0,0-.002,0-.002,0-.019.003-.038.005-.056.008-.001,0-.001,0-.003,0-.005,0-.011.002-.016.002-.001,0-.001,0-.003,0-.012.002-.025.004-.038.005,0,0,0,0-.002,0-.006,0-.011.002-.017.002-.001,0-.001,0-.003,0-.006,0-.011.002-.017.002h-.002c-.012.002-.025.004-.037.006-.001,0-.002,0-.003,0l-.016.002s-.002,0-.002,0c-.019.003-.038.006-.056.008,0,0-.002,0-.002,0-.006,0-.011.002-.017.003,0,0-.001,0-.002,0-.013.002-.025.004-.038.006,0,0,0,0-.001,0-.006,0-.011.002-.017.003,0,0-.002,0-.003,0-.019.003-.037.006-.056.009,0,0-.001,0-.002,0-.006,0-.012.002-.018.003,0,0,0,0-.001,0-.013.002-.025.004-.038.006h0c-.006.001-.012.002-.018.003,0,0,0,0-.002,0-.019.003-.038.006-.057.009h-.001c-.006.001-.012.002-.018.003h-.001c-.019.003-.038.006-.057.009,0,0,0,0-.001,0-.006.001-.012.002-.018.003h0c-.013.002-.026.004-.038.006h-.001c-.006.001-.012.002-.018.003,0,0,0,0-.001,0-.019.003-.038.006-.057.01,0,0,0,0,0,0-.006.001-.012.002-.018.003,0,0,0,0,0,0-.019.003-.038.006-.057.01,0,0,0,0-.001,0-.019.003-.038.007-.057.01h0c-.006.001-.012.002-.019.003h0c-.019.003-.038.007-.057.01h-.001c-.025.005-.051.009-.076.014h0c-.045.008-.089.016-.134.025h0c-1.773.33-3.48.845-5.101,1.525-.255.107-.375.4-.268.654.08.192.266.307.461.307.064,0,.13-.013.193-.039,2.964-1.243,6.111-1.873,9.354-1.873.276,0,.5-.224.5-.5s-.224-.5-.5-.5h0ZM96.533,65.441c-.129,0-.258.05-.356.149-1.758,1.786-3.252,3.832-4.419,6.076h0c-.003.006-.006.011-.009.017h0c-.009.018-.018.035-.027.052h0c-.006.012-.012.023-.018.035h0c-.003.006-.006.012-.009.017h0c-.006.012-.012.024-.017.035v.002s-.006.01-.008.015c0,0,0,.002-.001.002-.003.005-.006.011-.008.016h0c-.003.006-.006.011-.008.017,0,.001,0,.001-.001.003-.002.005-.004.009-.007.013,0,.002-.001.003-.002.004-.003.005-.005.01-.007.015,0,0,0,0,0,.001-.003.005-.006.011-.008.016,0,.001-.001.003-.002.004-.002.004-.004.008-.006.013l-.002.004s-.004.009-.006.013l-.002.004c-.003.005-.005.011-.008.016,0,.001-.001.003-.002.004-.002.004-.004.008-.006.012-.001.002-.002.003-.003.005-.002.004-.004.008-.006.012,0,.001-.002.003-.002.005-.002.005-.005.01-.007.015-.001.002-.002.004-.003.006-.002.003-.003.006-.005.01-.001.002-.002.004-.003.006-.002.003-.003.007-.005.01,0,.002-.002.004-.003.006-.002.005-.005.01-.007.015-.001.002-.002.004-.003.006-.002.003-.003.006-.005.009-.001.002-.003.005-.004.007-.001.003-.003.006-.004.009-.001.002-.002.005-.003.007-.002.005-.005.01-.007.014-.001.002-.003.005-.004.007-.001.003-.003.005-.004.008-.001.003-.003.005-.004.008-.001.002-.002.005-.004.007-.001.003-.003.006-.004.009-.001.002-.002.005-.004.007-.002.005-.005.009-.007.014-.001.002-.002.005-.003.007-.001.003-.003.006-.004.009-.001.002-.002.005-.004.007-.001.003-.003.006-.004.008-.001.002-.002.004-.003.006-.003.006-.006.012-.009.018,0,.002-.002.003-.002.005-.001.003-.003.007-.005.01,0,.002-.002.004-.003.005-.002.003-.003.007-.005.01,0,0,0,.001,0,.001-.004.008-.008.016-.012.024,0,0,0,.001,0,.002-.002.004-.004.007-.005.011,0,.001-.001.003-.002.004-.002.004-.004.007-.005.011h0c-.006.013-.012.026-.019.039,0,0,0,.002-.001.002-.008.017-.017.034-.025.051,0,0,0,.001-.001.002-.008.017-.017.035-.025.052h0c-.221.465-.428.939-.62,1.419-.101.256.024.545.279.647.061.024.124.036.186.036.198,0,.386-.119.464-.314,1.199-2.989,2.958-5.675,5.229-7.981.194-.197.191-.513-.005-.707-.097-.096-.224-.144-.351-.144h0ZM77.511,70.78h-.019s-.007,0-.011,0h-.003s-.01,0-.014,0h-.003s-.007,0-.011,0c-.001,0-.003,0-.004,0-.005,0-.01,0-.014,0,0,0-.001,0-.001,0-.004,0-.009,0-.013,0-.001,0-.003,0-.004,0-.004,0-.009,0-.013,0,0,0-.001,0-.001,0-.005,0-.01,0-.014,0-.001,0-.003,0-.004,0-.004,0-.008,0-.012,0,0,0-.002,0-.003,0-.005,0-.009,0-.015,0,0,0-.002,0-.003,0-.004,0-.008,0-.012,0,0,0-.002,0-.003,0-.005,0-.01,0-.015,0h0s-.009,0-.014,0c-.001,0-.003,0-.004,0-.004,0-.008,0-.012,0,0,0-.002,0-.003,0-.005,0-.009,0-.014,0-.001,0-.003,0-.004,0-.004,0-.007,0-.011,0-.002,0-.003,0-.005,0-.005,0-.009,0-.014,0-.001,0-.002,0-.003,0-.004,0-.007,0-.012,0-.001,0-.003,0-.004,0-.004,0-.009,0-.013,0,0,0,0,0-.001,0-.005,0-.01,0-.014,0-.001,0-.003,0-.004,0-.004,0-.008,0-.012,0,0,0-.002,0-.003,0-.005,0-.01,0-.015,0-.001,0-.002,0-.003,0-.004,0-.008,0-.012,0-.001,0-.002,0-.003,0-.005,0-.01,0-.014,0,0,0-.001,0-.002,0-.004,0-.008,0-.013,0-.001,0-.003,0-.004,0-.004,0-.009,0-.013,0,0,0-.001,0-.002,0-.005,0-.01,0-.015,0-.001,0-.002,0-.004,0-.004,0-.007,0-.011,0-.001,0-.003,0-.004,0-.005,0-.009,0-.014,0-.001,0-.002,0-.004,0-.004,0-.007,0-.011,0-.002,0-.003,0-.005,0-.005,0-.009,0-.014,0h0s-.009,0-.014,0c-.002,0-.003,0-.005,0-.004,0-.007,0-.011,0-.001,0-.002,0-.004,0-.005,0-.009,0-.014,0-.001,0-.003,0-.004,0-.004,0-.007,0-.011,0-.001,0-.003,0-.004,0-.005,0-.009,0-.014,0-.001,0-.003,0-.004,0-.004,0-.007,0-.011,0-.002,0-.003,0-.005,0-.004,0-.008,0-.012,0-.001,0-.002,0-.003,0-.005,0-.009,0-.014,0-.002,0-.003,0-.005,0-.003,0-.007,0-.01,0-.002,0-.003,0-.005,0-.004,0-.009,0-.013,0-.002,0-.003,0-.005,0-.003,0-.007,0-.01,0-.002,0-.003,0-.005,0-.005,0-.009,0-.014,0,0,0-.001,0-.002,0-.004,0-.008,0-.013,0-.002,0-.003,0-.005,0-.004,0-.007,0-.011,0-.001,0-.002,0-.003,0-.005,0-.009,0-.014,0-.002,0-.003,0-.005,0-.003,0-.007,0-.01,0-.002,0-.003,0-.005,0-.004,0-.009,0-.013,0-.002,0-.003,0-.005,0-.003,0-.007,0-.009,0-.002,0-.004,0-.006,0h-.01s-.004,0-.006,0c-.004,0-.008,0-.012,0-.002,0-.003,0-.005,0-.003,0-.006,0-.009,0-.002,0-.004,0-.005,0-.004,0-.009,0-.013,0-.002,0-.003,0-.005,0-.003,0-.007,0-.01,0-.002,0-.004,0-.005,0-.004,0-.008,0-.012,0-.002,0-.004,0-.006,0-.003,0-.007,0-.009,0-.002,0-.004,0-.006,0-.003,0-.006,0-.009,0-.002,0-.004,0-.007,0-.004,0-.007,0-.012,0-.002,0-.004,0-.006,0-.003,0-.005,0-.008,0-.002,0-.004,0-.006,0-.004,0-.008,0-.012,0-.003,0-.005,0-.008,0-.002,0-.005,0-.007,0-.003,0-.005,0-.007,0-.003,0-.005,0-.008,0-.003,0-.007,0-.01,0-.002,0-.005,0-.007,0-.003,0-.005,0-.008,0-.002,0-.004,0-.006,0-.004,0-.008,0-.012,0-.003,0-.005,0-.008,0-.002,0-.005,0-.007,0-.003,0-.004,0-.007,0-.002,0-.005,0-.007,0-.003,0-.006,0-.01,0-.003,0-.006,0-.009,0-.003,0-.005,0-.008,0-.003,0-.005,0-.007,0-.002,0-.004,0-.006,0-.004,0-.008,0-.012,0-.002,0-.005,0-.007,0-.002,0-.005,0-.008,0-.002,0-.004,0-.006,0-.003,0-.005,0-.008,0,0,0-.002,0-.003,0-.006,0-.012,0-.017,0-.002,0-.003,0-.005,0-.003,0-.005,0-.008,0-.002,0-.004,0-.006,0-.005,0-.009,0-.014,0-.001,0-.004,0-.005,0-.003,0-.006,0-.008,0-.002,0-.003,0-.005,0-.006,0-.012,0-.018,0h-.001s-.006,0-.009,0c-.001,0-.003,0-.004,0-.003,0-.006,0-.009,0h0c-.006,0-.013,0-.02,0-.002,0-.003,0-.005,0-.003,0-.006,0-.009,0-.001,0-.003,0-.004,0-.005,0-.011,0-.017,0-.001,0-.003,0-.004,0-.003,0-.006,0-.009,0-.001,0-.003,0-.005,0-.009,0-.019.001-.029.002-.001,0-.004,0-.005,0-.003,0-.006,0-.008,0-.001,0-.003,0-.004,0-.005,0-.011,0-.016,0-.001,0-.003,0-.004,0-.003,0-.006,0-.009,0-.001,0-.003,0-.005,0-.005,0-.011,0-.016,0,0,0-.003,0-.004,0-.003,0-.006,0-.009,0-.001,0-.004,0-.005,0-.003,0-.006,0-.009,0-.001,0-.001,0-.002,0-.006,0-.012,0-.018.001-.001,0-.003,0-.004,0-.003,0-.006,0-.009,0,0,0-.002,0-.003,0-.006,0-.012,0-.018.001-.001,0-.002,0-.003,0-.003,0-.006,0-.009,0,0,0-.003,0-.004,0-.01,0-.02.001-.03.002-.001,0-.001,0-.003,0-.01,0-.021.001-.031.002,0,0-.001,0-.002,0-.003,0-.007,0-.01,0h-.001c-.007,0-.014,0-.021.001h0s-.006,0-.009,0c-.001,0-.003,0-.004,0-.01,0-.021.001-.031.002,0,0,0,0,0,0-.015,0-.03.002-.045.003h0c-.011,0-.022.002-.034.002h0c-.831.057-1.651.155-2.458.291h0c-.01.002-.021.004-.031.005,0,0-.001,0-.002,0-.003,0-.006.001-.01.002,0,0-.002,0-.002,0-.006.001-.012.002-.018.003,0,0-.002,0-.003,0-.003,0-.006.001-.009.002-.001,0-.003,0-.004,0-.006.001-.012.002-.018.003,0,0,0,0-.001,0-.003,0-.005,0-.008.001-.002,0-.004,0-.006.001-.003,0-.005,0-.007.001-.001,0-.004,0-.005,0-.004,0-.009.002-.013.002-.002,0-.004,0-.006.001-.002,0-.005,0-.007.001-.002,0-.005,0-.007.001-.003,0-.006.001-.009.002-.003,0-.005,0-.009.002-.002,0-.004,0-.006.001-.003,0-.005,0-.007.001-.002,0-.004,0-.007.001-.004,0-.008.001-.012.002-.002,0-.004,0-.006.001-.003,0-.005,0-.008.001-.002,0-.004,0-.006.001-.004,0-.007.001-.011.002-.001,0-.003,0-.004,0-.004,0-.006.001-.01.002-.002,0-.004,0-.006.001-.003,0-.006.001-.009.002-.001,0-.003,0-.004,0-.004,0-.009.002-.013.002-.001,0-.002,0-.003,0-.004,0-.007.001-.011.002-.001,0-.002,0-.004,0-.005,0-.009.002-.013.002-.001,0-.002,0-.003,0-.004,0-.008.001-.011.002-.001,0-.002,0-.004,0-.005,0-.008.002-.013.002,0,0,0,0-.001,0-.005,0-.009.002-.014.003-.001,0-.002,0-.003,0-.004,0-.008.001-.011.002-.001,0-.002,0-.003,0-.005,0-.009.002-.014.003,0,0-.001,0-.002,0-.005,0-.009.002-.013.002,0,0-.001,0-.002,0-.01.002-.019.004-.03.006,0,0-.001,0-.002,0-.357.067-.71.141-1.061.222-.267.064-.434.331-.371.599.054.231.259.387.487.387.037,0,.075-.004.113-.013,1.791-.416,3.64-.626,5.497-.626,1.356,0,2.717.113,4.043.336.028.005.056.007.083.007.24,0,.451-.173.492-.417.046-.272-.137-.529-.408-.576-.174-.029-.349-.057-.524-.082h0c-.018-.003-.035-.005-.053-.008,0,0,0,0,0,0-.004,0-.007-.001-.011-.002-.001,0-.003,0-.004,0-.003,0-.007,0-.01-.001-.001,0-.003,0-.004,0-.003,0-.007,0-.01-.001-.001,0-.003,0-.004,0-.011-.002-.022-.003-.033-.005-.002,0-.004,0-.006,0-.003,0-.005,0-.008-.001-.002,0-.005,0-.007,0-.003,0-.005,0-.008-.001-.002,0-.005,0-.007-.001-.003,0-.005,0-.007-.001-.003,0-.005,0-.008-.001-.002,0-.005,0-.007,0-.005,0-.009-.001-.014-.002-.003,0-.005,0-.007,0-.003,0-.005,0-.008-.001-.003,0-.005,0-.007-.001-.003,0-.005,0-.008-.001-.003,0-.005,0-.007-.001-.003,0-.005,0-.007-.001-.002,0-.005,0-.007-.001-.003,0-.006,0-.009-.001-.002,0-.004,0-.006,0-.005,0-.01-.001-.015-.002-.001,0-.003,0-.004,0-.004,0-.007,0-.011-.001-.002,0-.004,0-.005,0-.003,0-.007,0-.01-.001-.002,0-.003,0-.005,0-.004,0-.007,0-.011-.001-.001,0-.003,0-.004,0-.005,0-.01-.001-.015-.002h0c-.005,0-.011-.001-.016-.002,0,0,0,0-.001,0-.005,0-.009-.001-.014-.002-.001,0-.002,0-.004,0-.004,0-.008-.001-.012-.002-.001,0-.002,0-.003,0-.004,0-.009-.001-.013-.002,0,0-.001,0-.002,0-.011-.001-.021-.003-.032-.004h0c-.005,0-.01-.001-.015-.002,0,0-.002,0-.003,0-.004,0-.009-.001-.013-.002,0,0-.002,0-.003,0-.005,0-.01-.001-.014-.002,0,0,0,0,0,0-.016-.002-.032-.004-.048-.006,0,0,0,0-.001,0-.005,0-.01-.001-.015-.002,0,0,0,0-.001,0-.027-.003-.054-.007-.081-.01h0c-.586-.071-1.178-.121-1.775-.151h0c-.022-.001-.044-.002-.066-.003h0c-.005,0-.011,0-.016,0h0c-.022-.001-.044-.002-.066-.003h0c-.005,0-.011,0-.016,0,0,0,0,0,0,0-.022,0-.044-.002-.065-.003,0,0-.001,0-.002,0-.005,0-.01,0-.014,0,0,0-.001,0-.002,0-.016,0-.033-.001-.049-.002,0,0,0,0,0,0-.005,0-.01,0-.015,0h-.003s-.009,0-.014,0c0,0-.002,0-.002,0-.005,0-.01,0-.015,0h0c-.011,0-.022,0-.033-.001,0,0,0,0,0,0-.005,0-.01,0-.015,0,0,0-.002,0-.003,0-.004,0-.009,0-.013,0-.001,0-.002,0-.003,0-.005,0-.01,0-.015,0,0,0,0,0,0,0-.011,0-.022,0-.033-.001,0,0-.002,0-.002,0-.005,0-.009,0-.014,0,0,0-.002,0-.003,0-.004,0-.009,0-.013,0-.001,0-.002,0-.003,0-.005,0-.01,0-.015,0,0,0,0,0,0,0-.011,0-.022,0-.033,0,0,0-.002,0-.003,0-.004,0-.009,0-.013,0-.001,0-.003,0-.004,0-.004,0-.008,0-.012,0-.001,0-.003,0-.004,0-.005,0-.009,0-.014,0,0,0-.001,0-.001,0h-.032s-.002,0-.004,0c-.004,0-.008,0-.012,0-.001,0-.003,0-.004,0-.004,0-.008,0-.011,0-.002,0-.003,0-.005,0-.004,0-.009,0-.013,0,0,0-.001,0-.002,0-.005,0-.011,0-.016,0,0,0,0,0-.001,0-.005,0-.009,0-.014,0-.001,0-.003,0-.004,0-.003,0-.007,0-.011,0-.002,0-.004,0-.006,0-.003,0-.007,0-.01,0-.002,0-.003,0-.005,0-.004,0-.009,0-.013,0,0,0-.001,0-.002,0-.005,0-.011,0-.016,0,0,0-.001,0-.002,0-.005,0-.009,0-.014,0-.001,0-.003,0-.004,0-.004,0-.008,0-.012,0-.001,0-.003,0-.004,0-.004,0-.008,0-.012,0-.001,0-.003,0-.004,0-.005,0-.01,0-.015,0h0c-.005,0-.011,0-.016,0-.001,0-.003,0-.004,0-.004,0-.008,0-.012,0-.002,0-.003,0-.005,0-.004,0-.007,0-.011,0-.002,0-.004,0-.005,0-.004,0-.008,0-.011,0-.001,0-.003,0-.004,0-.005,0-.009,0-.014,0,0,0-.001,0-.002,0-.005,0-.01,0-.016,0-.001,0-.003,0-.004,0-.004,0-.008,0-.012,0-.002,0-.004,0-.005,0-.004,0-.007,0-.01,0-.002,0-.003,0-.005,0-.004,0-.007,0-.01,0-.002,0-.004,0-.006,0-.004,0-.008,0-.012,0-.001,0-.002,0-.003,0-.005,0-.01,0-.016,0-.001,0-.003,0-.004,0-.004,0-.008,0-.012,0-.001,0-.004,0-.005,0h-.01s-.004,0-.006,0c-.003,0-.007,0-.01,0-.002,0-.003,0-.005,0-.005,0-.01,0-.015,0h0c-.005,0-.01,0-.016,0-.001,0-.003,0-.004,0-.004,0-.007,0-.011,0-.002,0-.004,0-.006,0-.003,0-.007,0-.01,0-.002,0-.004,0-.005,0-.004,0-.007,0-.011,0-.001,0-.003,0-.005,0-.005,0-.01,0-.015,0h0c-.005,0-.01,0-.015,0-.002,0-.003,0-.005,0-.004,0-.007,0-.011,0h-.006s-.007,0-.01,0c-.002,0-.004,0-.006,0-.003,0-.007,0-.01,0h-.021ZM63.041,75.457c-.102,0-.204.031-.293.095-2.703,1.956-5.003,4.435-6.752,7.289-.144.235-.07.543.165.688.082.05.172.074.261.074.168,0,.333-.085.427-.239,1.686-2.752,3.868-5.107,6.485-7.001.224-.162.274-.474.112-.698-.098-.135-.251-.207-.406-.207h0ZM49.419,88.17c-.011,0-.022,0-.033.001-1.504.099-2.967.351-4.373.741h-.001c-.037.011-.075.021-.112.032h0c-.031.009-.062.018-.093.027h0c-.006.002-.012.003-.017.005,0,0-.002,0-.002,0-.005.002-.011.003-.016.005,0,0-.002,0-.002,0-.006.002-.012.003-.017.005h0c-.019.006-.037.011-.056.016h-.001c-.005.002-.011.004-.016.005,0,0-.002,0-.003,0-.005.001-.01.003-.015.004,0,0-.002,0-.003,0-.005.002-.01.003-.016.005,0,0-.002,0-.003,0-.018.005-.037.011-.055.016,0,0-.001,0-.002,0-.005.002-.01.003-.016.005-.001,0-.003,0-.004.001-.005.001-.009.003-.014.004-.001,0-.003,0-.004.001-.005.001-.009.003-.014.004-.001,0-.002,0-.004.001-.005.002-.011.003-.016.005,0,0,0,0-.001,0-.012.004-.024.007-.036.011,0,0-.002,0-.003,0-.005.001-.01.003-.015.005-.001,0-.003.001-.005.001l-.013.004s-.004.001-.005.002c-.004.001-.008.003-.012.004-.002,0-.004.001-.006.002-.004.001-.009.003-.013.004-.001,0-.003,0-.004.001-.012.004-.024.007-.036.011-.001,0-.002,0-.003.001-.005.001-.009.003-.014.004-.002,0-.004.001-.006.002-.004.001-.008.002-.012.004-.002,0-.004.001-.006.002-.004.001-.008.002-.011.004-.002,0-.004.001-.006.002-.004.001-.008.002-.012.004-.002,0-.004.001-.006.002-.004.001-.009.003-.014.004-.001,0-.003,0-.004.001-.006.002-.011.004-.017.005-.002,0-.003,0-.005.002-.004.001-.008.003-.013.004-.002,0-.004.001-.006.002-.004.001-.007.002-.011.003-.002,0-.005.002-.007.002-.003.001-.007.002-.01.003-.002,0-.006.002-.008.002-.003.001-.007.002-.01.003-.003,0-.005.002-.007.002-.003.001-.007.002-.01.003-.003,0-.004.001-.007.002-.005.002-.011.004-.016.005-.003,0-.005.002-.008.003-.003.001-.006.002-.009.003-.003,0-.006.002-.009.003-.003,0-.006.002-.009.003-.003.001-.005.002-.008.003-.003,0-.006.002-.009.003-.003,0-.006.002-.009.003-.003,0-.006.002-.008.003-.003,0-.006.002-.009.003-.003,0-.005.002-.008.003-.003.001-.006.002-.009.003-.003,0-.005.002-.007.002-.006.002-.012.004-.018.006-.003,0-.005.002-.007.002-.003.001-.007.002-.01.003-.002,0-.005.002-.007.002-.003.001-.007.002-.01.003-.003,0-.005.002-.007.002-.003.001-.007.002-.01.003-.002,0-.004.001-.007.002-.003.001-.007.002-.01.003l-.006.002s-.007.002-.011.004c0,0,0,0,0,0-.01.003-.02.007-.029.01,0,0-.002,0-.002,0-.004.001-.008.003-.012.004-.002,0-.004.001-.005.002-.003.001-.008.003-.011.004-.002,0-.004.001-.006.002-.004.001-.007.002-.011.004-.002,0-.004.001-.006.002-.003.001-.008.003-.011.004-.002,0-.003,0-.004.001-.019.006-.038.013-.057.02-.001,0-.002,0-.003.001-.005.002-.008.003-.012.004-.002,0-.003,0-.004.001-.004.001-.008.003-.012.004-.002,0-.003,0-.004.002-.004.001-.008.003-.012.004-.002,0-.003.001-.005.002-.004.001-.009.003-.013.004h0c-.015.005-.031.011-.046.016,0,0,0,0-.001,0-.005.002-.009.003-.014.005,0,0-.002,0-.003,0-.005.002-.008.003-.013.005-.001,0-.002,0-.003.001-.005.002-.009.003-.013.005,0,0-.002,0-.002,0-.026.009-.051.018-.076.027,0,0,0,0,0,0-.005.002-.009.003-.015.005,0,0,0,0-.001,0-.005.002-.009.003-.015.005,0,0,0,0-.001,0-.031.011-.061.022-.093.033,0,0,0,0-.001,0-.005.002-.01.003-.015.005,0,0,0,0,0,0-1.218.443-2.385.991-3.491,1.634-.236.14-.316.444-.178.682.093.16.26.249.433.249.085,0,.172-.022.251-.068,2.783-1.617,5.826-2.544,9.044-2.757.276-.018.484-.256.466-.532-.017-.264-.237-.467-.498-.467h0ZM33.1,97.631c-.162,0-.32.078-.417.223-.213.319-.417.644-.613.975,0,0,0,0,0,0-.013.022-.026.044-.039.066h0c-.003.005-.006.011-.009.016h0c-.003.006-.006.011-.009.016,0,0,0,.001-.001.002-.003.005-.006.01-.009.015h0c-.01.017-.019.033-.029.05h0c-.003.006-.006.011-.009.016,0,0,0,.001-.001.002-.003.005-.005.009-.008.014,0,0-.001.002-.002.003-.003.005-.006.01-.009.015h0c-.009.017-.019.034-.028.05,0,0,0,0,0,.001-.003.005-.006.01-.008.015,0,0-.001.002-.001.002-.003.005-.005.009-.008.014,0,0-.001.002-.002.003-.003.005-.005.009-.008.014,0,0,0,.001-.001.002-.009.016-.019.033-.028.049,0,0,0,.002-.001.002-.003.005-.005.009-.008.014,0,0-.001.003-.002.003-.002.004-.005.009-.007.013,0,.001-.001.002-.002.003-.003.005-.005.009-.008.014,0,0,0,.001-.001.002-.009.016-.018.033-.027.049,0,0-.001.003-.002.003-.002.004-.005.009-.007.013,0,.001-.001.002-.002.004-.002.004-.005.008-.007.013,0,.001-.001.003-.002.004-.002.004-.005.009-.007.013,0,.001,0,.001-.001.003-.006.011-.012.022-.018.033,0,0,0,.001,0,.002-.003.005-.005.009-.008.014,0,.001-.001.003-.002.004-.002.004-.004.008-.007.012,0,.001-.002.003-.003.005-.002.004-.004.008-.006.012-.001.002-.002.003-.003.005-.002.004-.005.008-.007.012,0,.001-.001.002-.002.003-.006.011-.012.022-.018.033,0,0-.001.002-.001.003l-.007.013s-.002.004-.003.005c-.002.004-.004.008-.006.011-.001.002-.002.003-.003.005-.002.004-.004.008-.006.012,0,.001-.002.003-.002.004-.002.004-.005.009-.007.013,0,.001,0,.001-.001.003-.006.011-.012.022-.018.033,0,0-.001.002-.002.003-.002.004-.005.009-.007.013,0,.001-.002.003-.002.005-.002.004-.004.008-.006.012,0,.001-.002.004-.003.005-.002.004-.004.008-.006.011,0,.002-.002.003-.003.005-.002.004-.004.008-.006.012,0,.001-.001.003-.002.004-.006.011-.012.022-.017.032,0,.001-.002.004-.003.005-.002.004-.004.007-.006.011-.001.002-.002.004-.004.007-.002.003-.003.006-.005.01-.001.002-.002.004-.003.006-.002.003-.003.007-.005.01-.001.002-.002.004-.003.007-.002.004-.004.007-.005.01,0,.002-.002.004-.003.005-.003.005-.006.011-.008.016h0c-.003.006-.005.011-.008.016,0,.002-.002.004-.003.005-.002.004-.004.007-.006.011,0,.002-.002.005-.003.006-.002.003-.003.006-.005.01-.001.002-.002.004-.004.007-.002.003-.003.006-.005.009-.001.002-.003.005-.004.007-.002.003-.003.006-.005.009-.001.002-.002.004-.003.007-.003.005-.005.01-.008.014,0,.002-.002.004-.003.005-.002.004-.004.008-.006.012,0,.002-.003.005-.003.007-.002.003-.003.006-.005.009-.001.002-.003.005-.004.008-.001.003-.003.006-.004.008-.001.002-.003.005-.004.008-.001.003-.003.006-.004.008-.001.002-.003.005-.004.008-.001.003-.003.006-.005.009-.001.002-.003.005-.004.007-.001.003-.003.006-.004.009-.002.004-.005.009-.007.014-.002.003-.003.006-.004.009-.001.002-.002.005-.004.007-.002.003-.003.006-.005.009s-.002.005-.004.008c-.001.003-.003.006-.004.008-.001.002-.003.005-.004.008-.001.003-.003.006-.004.008-.001.002-.003.005-.004.008-.001.003-.003.006-.004.009-.001.002-.002.005-.004.007-.002.004-.005.009-.007.014-.002.003-.003.006-.004.009-.001.003-.003.006-.005.009-.001.002-.003.005-.004.008-.001.003-.003.006-.004.008-.002.003-.002.005-.004.008-.001.003-.003.006-.004.009-.001.002-.003.005-.004.008-.001.003-.003.006-.004.008-.001.002-.003.005-.004.008-.002.003-.003.006-.004.009-.001.002-.002.005-.004.007-.003.005-.005.01-.008.015-.001.002-.002.004-.003.007-.002.003-.003.006-.005.009-.001.002-.003.005-.004.007-.001.003-.003.006-.004.009-.002.003-.003.005-.004.008-.001.003-.003.005-.004.008-.002.003-.003.005-.004.008-.001.003-.003.005-.004.008-.001.002-.003.006-.004.008-.001.003-.003.005-.004.008-.002.003-.003.005-.004.008-.003.005-.005.01-.007.015-.001.002-.003.005-.004.008-.001.003-.003.005-.004.008-.001.002-.003.006-.004.008-.001.003-.003.005-.004.008-.002.003-.002.005-.004.008-.001.003-.003.006-.004.008-.002.003-.002.005-.004.008-.001.003-.003.005-.004.008-.001.002-.003.005-.004.008-.001.003-.003.006-.004.009-.001.002-.002.005-.004.008-.003.005-.005.01-.007.015-.001.002-.003.005-.004.008-.001.003-.003.006-.004.008-.001.002-.003.005-.004.008-.001.003-.003.006-.004.008-.001.002-.003.005-.004.008-.001.003-.003.006-.004.008-.001.003-.002.005-.004.008-.001.003-.003.006-.004.008-.001.002-.003.005-.004.008-.001.003-.003.006-.004.009-.001.003-.003.007-.005.01-.002.004-.004.009-.006.013-.001.003-.003.005-.004.008-.001.003-.002.005-.004.008-.001.003-.003.006-.004.009-.001.003-.002.005-.004.007-.001.003-.003.006-.004.009-.001.003-.002.005-.004.008-.001.003-.002.005-.004.008-.001.003-.003.005-.004.008-.001.002-.003.006-.004.008-.001.003-.003.006-.004.009-.002.004-.003.007-.005.011-.002.004-.004.008-.006.012-.001.003-.002.005-.003.007-.001.003-.003.006-.004.009-.001.003-.003.005-.004.008-.001.003-.003.005-.004.008-.001.002-.003.006-.004.008-.001.003-.002.005-.004.008-.001.003-.002.005-.004.008-.001.003-.003.005-.004.008-.001.002-.003.006-.004.008-.001.003-.003.006-.004.009-.002.004-.004.009-.006.014-.001.003-.003.006-.004.009-.001.003-.002.005-.004.008-.001.003-.003.006-.004.008-.001.002-.003.006-.004.008-.001.003-.003.005-.004.008-.001.003-.003.006-.004.009-.001.003-.002.005-.004.008-.001.003-.003.006-.004.009-.001.003-.002.005-.004.008-.001.003-.003.006-.004.009-.001.003-.002.005-.004.008-.002.005-.005.011-.007.016-.001.003-.002.005-.003.008-.001.003-.002.005-.004.009-.001.003-.002.005-.004.008-.001.003-.003.006-.004.008-.001.003-.002.005-.004.008-.001.003-.003.006-.004.008-.001.003-.003.006-.004.008-.001.003-.002.005-.004.008-.001.003-.002.005-.004.008-.001.003-.002.005-.004.009-.001.003-.003.006-.004.009-.002.004-.004.009-.006.013-.001.003-.003.006-.004.01-.001.003-.002.005-.004.008-.001.003-.003.006-.004.008-.001.003-.003.006-.004.008-.001.003-.002.005-.004.008-.001.003-.003.006-.004.008-.001.003-.002.005-.004.008-.001.003-.003.006-.004.008-.001.003-.003.006-.004.008-.001.003-.002.005-.004.008-.001.003-.003.006-.004.009-.002.005-.004.01-.007.015-.001.003-.002.006-.004.008-.001.003-.002.005-.004.009-.001.003-.002.005-.004.008-.001.003-.002.005-.004.009-.001.003-.002.005-.003.008-.001.003-.003.006-.004.009-.001.003-.002.005-.004.008-.001.003-.003.006-.004.008-.001.003-.002.005-.003.008l-.004.009s-.002.005-.003.007c-.003.006-.005.012-.008.017-.001.002-.002.005-.003.008-.001.003-.002.006-.004.009-.001.003-.002.005-.003.008-.001.003-.002.006-.004.009-.001.003-.002.005-.003.008-.001.003-.003.006-.004.008l-.004.008s-.002.006-.004.008c-.001.003-.003.006-.004.009-.001.003-.002.005-.003.008-.002.004-.004.008-.005.012-.002.004-.003.007-.005.011-.001.003-.003.006-.004.009-.001.003-.003.006-.004.008-.001.003-.002.005-.004.008-.001.003-.002.005-.004.008-.001.003-.003.006-.004.009-.001.003-.002.005-.003.008-.001.003-.003.006-.004.009-.001.003-.002.005-.003.008-.001.003-.003.006-.004.009-.001.003-.002.005-.003.007-.002.005-.005.011-.007.016-.001.003-.002.005-.003.007-.001.003-.003.006-.004.009-.001.003-.003.006-.004.008-.001.003-.002.005-.004.008-.001.003-.002.005-.004.008-.001.003-.002.005-.004.008-.001.003-.003.006-.004.008-.001.003-.002.006-.003.008-.001.003-.003.006-.004.009-.001.003-.002.006-.003.008-.001.003-.002.006-.004.008-.002.005-.004.01-.007.016-.001.003-.002.005-.003.007-.001.003-.003.006-.004.009-.001.003-.002.006-.003.008-.001.003-.002.006-.004.008-.001.003-.002.005-.004.008-.001.003-.002.006-.003.008-.001.003-.002.005-.004.009-.001.003-.002.005-.003.008-.001.003-.003.006-.004.009-.001.003-.002.006-.004.009-.001.003-.002.005-.003.008-.002.005-.004.011-.007.016-.001.003-.002.004-.003.007-.001.003-.003.007-.004.01-.001.003-.002.005-.003.008-.001.003-.003.006-.004.009-.001.003-.002.005-.003.008-.001.003-.002.006-.004.009-.001.003-.002.005-.003.008-.001.003-.003.006-.004.009-.001.003-.002.005-.003.008-.001.003-.003.007-.004.01-.001.003-.002.005-.003.007-.002.005-.004.011-.007.016-.001.003-.002.005-.003.008-.001.003-.002.006-.004.009-.001.003-.002.006-.003.008-.001.003-.002.006-.004.009-.001.003-.002.005-.003.008-.001.003-.003.006-.004.009-.001.003-.002.005-.003.008-.001.003-.003.006-.004.009-.001.003-.002.005-.003.007-.002.004-.003.007-.004.011,0,.002-.002.004-.002.006-.002.005-.004.011-.007.016-.001.003-.002.004-.003.007-.001.003-.003.007-.004.01-.001.003-.002.005-.003.007-.001.003-.003.006-.004.01-.001.003-.002.005-.003.007-.001.003-.003.006-.004.009,0,.002-.002.005-.003.007-.001.003-.003.007-.004.01,0,.002-.002.005-.003.006-.002.004-.004.009-.005.013,0,.001,0,.002-.001.004-.002.005-.004.011-.007.017-.001.003-.001.003-.002.006-.001.004-.003.007-.004.011-.001.003-.002.005-.003.007-.001.003-.003.007-.004.01-.001.003-.002.005-.003.007-.001.003-.003.007-.004.01-.001.003-.002.005-.003.007-.001.003-.003.007-.004.01,0,.002-.002.004-.003.006-.002.004-.004.009-.005.013,0,.001,0,.002-.001.004-.002.005-.004.011-.007.017,0,.002-.002.004-.002.006-.001.004-.003.007-.004.011-.001.003-.002.004-.003.007-.001.003-.003.007-.004.01-.001.003-.002.004-.003.007-.001.003-.003.007-.004.01-.001.003-.002.005-.003.007-.001.003-.003.007-.004.01,0,.002-.002.005-.003.006-.002.005-.004.01-.006.015,0,0,0,0,0,.001-.002.006-.004.011-.007.017,0,.002-.001.004-.002.006-.001.004-.003.007-.004.011-.001.003-.002.004-.003.007-.001.003-.003.007-.004.01-.001.003-.002.004-.003.007-.001.003-.003.007-.004.01,0,.003-.002.004-.003.007-.001.004-.003.007-.004.011,0,.002-.002.004-.002.006-.002.005-.004.011-.006.017,0,0,0,.001,0,.002-.002.005-.004.01-.006.016,0,.002-.001.004-.002.006-.001.004-.003.008-.004.011,0,.003-.002.004-.003.007-.001.003-.003.007-.004.01-.001.003-.002.005-.003.007-.001.003-.003.007-.004.01,0,.003-.002.004-.003.007-.001.004-.003.008-.004.011,0,.002-.001.004-.002.006-.002.006-.004.011-.006.017,0,0,0,0,0,0-.002.006-.004.011-.006.016,0,.002-.001.004-.002.006-.001.004-.003.008-.004.012,0,.002-.002.004-.002.006-.001.004-.003.007-.004.011,0,.003-.001.004-.002.007-.001.004-.003.007-.004.011,0,.003-.001.004-.002.006l-.005.013s-.001.003-.002.005c-.002.006-.004.011-.006.017,0,0,0,.001,0,.002-.002.005-.004.01-.006.015,0,.002-.001.003-.002.005-.001.004-.003.008-.005.012,0,.002-.001.004-.002.006-.001.004-.003.008-.004.012,0,.002-.001.004-.002.006-.002.004-.003.008-.004.012,0,.002-.001.003-.002.005-.002.005-.003.009-.005.014,0,0-.001.003-.001.003-.002.006-.004.012-.006.018,0,0,0,0,0,.001-.002.005-.004.011-.006.016,0,.002-.001.003-.002.005-.001.004-.003.008-.004.012,0,.002-.001.004-.002.006-.001.004-.003.008-.004.012,0,.002-.001.004-.002.006-.002.004-.003.008-.004.012,0,.002-.001.003-.002.005-.002.005-.003.009-.005.014,0,0,0,.002-.001.003-.002.006-.004.012-.006.018,0,0,0,0,0,0-.002.006-.004.011-.006.016,0,.001,0,.003-.001.004-.002.004-.003.009-.005.013,0,.002-.001.003-.002.005-.001.004-.003.009-.005.013,0,.002-.001.003-.002.005-.002.004-.003.009-.005.013,0,.002,0,.002-.002.004-.002.006-.004.011-.006.017h0c-.004.012-.008.024-.013.036,0,.001,0,.002-.001.004-.002.005-.003.009-.005.014,0,.002,0,.003-.002.005-.002.004-.003.009-.005.013,0,.002,0,.002-.002.004-.002.005-.003.009-.005.014,0,.001,0,.002-.001.003-.004.012-.008.024-.012.036h0c-.002.007-.004.012-.006.018,0,0-.001.003-.001.004-.001.004-.003.009-.005.014,0,.002,0,.003-.002.005-.002.005-.003.009-.005.013,0,.001-.001.003-.001.004-.002.005-.003.01-.005.014,0,.001,0,.002-.001.003-.006.018-.012.036-.018.054,0,0,0,.002,0,.003-.002.005-.003.01-.005.015,0,.001,0,.003-.001.004-.002.005-.003.01-.005.014,0,.001,0,.002-.001.004-.002.005-.003.01-.005.015,0,.001,0,.001,0,.002-.004.012-.008.024-.012.036h0c-.002.006-.004.012-.006.018,0,0,0,.002,0,.003-.002.005-.003.01-.005.015,0,.001,0,.002-.001.004-.002.005-.003.01-.005.015,0,.001,0,.002-.001.003-.002.005-.004.011-.005.016,0,0,0,0,0,.001-.006.018-.012.037-.018.055,0,0,0,.001,0,.002-.002.005-.004.011-.005.016,0,0,0,.002,0,.003-.002.005-.003.011-.005.016,0,.001,0,0,0,.002-.008.024-.016.049-.024.073,0,0,0,0,0,.002-.002.005-.004.011-.005.017,0,0,0,.001,0,.002-.002.005-.004.011-.005.017,0,0,0,0,0,.001-.008.025-.016.049-.023.074,0,0,0,.001,0,.002-.002.005-.003.011-.005.016,0,.001,0,.001,0,.002-.002.006-.004.011-.005.017,0,0,0,0,0,.001-.008.025-.015.05-.023.074h0c-.002.007-.004.012-.005.018h0c-.009.032-.019.063-.028.094h0c-.002.006-.004.012-.005.018h0c-.011.038-.022.076-.033.113h0c-.011.038-.022.075-.033.113,0,0,0,0,0,0-.305,1.057-.532,2.147-.675,3.263-.035.274.159.524.433.559.022.003.043.004.064.004.248,0,.463-.184.495-.437.403-3.149,1.548-6.211,3.311-8.857.153-.23.091-.54-.139-.693-.085-.057-.182-.084-.277-.084h0ZM30.679,116.34c-.054,0-.108.009-.162.027-.261.089-.401.374-.311.635,1.096,3.201,2.916,6.066,5.264,8.4.098.097.225.145.352.145.128,0,.257-.049.355-.148.195-.196.194-.512-.002-.707-2.26-2.246-3.996-5.017-5.022-8.015-.071-.208-.265-.338-.473-.338h0ZM44.06,129.641c-.209,0-.404.132-.474.341-.088.262.053.545.315.633.852.286,1.727.521,2.623.701h0c.022.005.044.009.066.013h0c.022.004.044.009.066.013,0,0,0,0,.002,0,.004,0,.008.002.013.002h0c.018.004.035.007.052.01,0,0,.001,0,.002,0,.004,0,.008.001.012.002,0,0,.002,0,.002,0,.017.003.034.006.051.01,0,0,.002,0,.002,0,.004,0,.008.001.012.002,0,0,.001,0,.002,0,.017.003.034.006.052.01,0,0,.001,0,.002,0,.004,0,.008.001.012.002h.003c.017.004.034.007.051.01.001,0,0,0,.002,0,.004,0,.008.001.012.002,0,0,.002,0,.003,0,.004,0,.008.001.012.002h0c.013.003.026.005.04.007,0,0,0,0,0,0,.004,0,.008.001.012.002,0,0,.002,0,.002,0,.004,0,.008.001.012.002,0,0,0,0,0,0,.013.002.025.004.038.007,0,0,.002,0,.003,0,.004,0,.008.001.011.002.001,0,.001,0,.003,0,.004,0,.008.001.012.002,0,0,0,0,.002,0,.013.002.026.005.039.007h0s.008.001.012.002c0,0,.002,0,.003,0,.004,0,.008.001.011.002.001,0,.001,0,.003,0,.013.002.026.004.038.006h0s.008.001.011.002c0,0,.003,0,.004,0,.004,0,.007.001.011.002.001,0,.002,0,.004,0,.013.002.025.004.038.006h0s.007.001.011.002c.001,0,.003,0,.004,0,.003,0,.007.001.01.002.001,0,.003,0,.004,0,.004,0,.007.001.011.002,0,0,.002,0,.002,0,.012.002.024.004.036.006.001,0,.003,0,.004,0,.004,0,.007.001.01.002.001,0,.003,0,.004,0,.004,0,.007.001.011.002,0,0,.002,0,.002,0,.012.002.024.004.036.006.001,0,.002,0,.004,0,.004,0,.007.001.011.002.001,0,.003,0,.004,0,.004,0,.007.001.011.002,0,0,.002,0,.003,0,.012.002.025.004.037.006,0,0,.002,0,.003,0,.004,0,.007.001.011.002.001,0,.003,0,.004,0,.004,0,.007.001.011.002,0,0,.002,0,.002,0,.012.002.025.004.037.006,0,0,.002,0,.003,0,.004,0,.007.001.011.002.001,0,.002,0,.004,0,.004,0,.007.001.011.002.001,0,.002,0,.004,0,.012.002.025.004.037.006h.002s.007.001.011.002c.001,0,.003,0,.004,0,.004,0,.007.001.011.002.001,0,.002,0,.004,0,.004,0,.008.001.011.002,0,0,0,0,0,0,.009.001.017.003.026.004h.002s.007.001.011.002c.001,0,.003,0,.004,0,.003,0,.007,0,.01.001.002,0,.003,0,.005,0,.003,0,.007.001.01.001h.002c.012.002.024.004.036.005.001,0,.003,0,.004,0,.004,0,.007.001.011.001.001,0,.002,0,.004,0,.004,0,.007.001.011.002,0,0,.002,0,.003,0,.012.002.024.003.036.005.001,0,.002,0,.004,0,.003,0,.007.001.011.001.001,0,.003,0,.004,0,.003,0,.007,0,.011.001,0,0,.003,0,.003,0,.012.002.024.003.035.005.001,0,.003,0,.004,0,.003,0,.007,0,.01.001.001,0,.004,0,.005,0,.003,0,.007,0,.01.001.001,0,.004,0,.005,0,.011.001.022.003.034.004.001,0,.003,0,.005,0,.003,0,.006,0,.01.001.001,0,.004,0,.005,0,.003,0,.007,0,.01.001.001,0,.004,0,.005,0,.003,0,.007,0,.01.001,0,0,0,0,.001,0,.007,0,.015.002.022.003.002,0,.003,0,.005,0,.003,0,.006,0,.01.001.001,0,.004,0,.005,0,.003,0,.007,0,.01.001.002,0,.003,0,.005,0,.003,0,.007,0,.01.001,0,0,0,0,.002,0,.007,0,.014.002.022.003.002,0,.003,0,.005,0,.003,0,.006,0,.009.001.002,0,.004,0,.006,0,.003,0,.006,0,.009.001.002,0,.005,0,.007,0,.003,0,.005,0,.008,0,.003,0,.005,0,.008.001.005,0,.01.001.015.002.002,0,.005,0,.007,0,.003,0,.006,0,.009.001.002,0,.004,0,.006,0,.003,0,.006,0,.009.001.002,0,.004,0,.006,0,.003,0,.006,0,.009.001.002,0,.003,0,.005,0,.006,0,.011.001.017.002.002,0,.004,0,.007,0,.003,0,.005,0,.008,0,.002,0,.005,0,.007,0,.003,0,.006,0,.009.001.002,0,.005,0,.007,0,.003,0,.006,0,.009.001.002,0,.004,0,.006,0,.006,0,.012.001.018.002.001,0,.003,0,.005,0,.003,0,.006,0,.009.001.002,0,.004,0,.006,0,.003,0,.006,0,.01.001.001,0,.005,0,.006,0,.003,0,.006,0,.009.001.002,0,.004,0,.006,0,.003,0,.006,0,.009.001.001,0,.004,0,.005,0,.006,0,.012.001.017.002.002,0,.004,0,.006,0,.003,0,.006,0,.009.001.002,0,.005,0,.007,0,.003,0,.006,0,.008,0,.002,0,.005,0,.007,0,.003,0,.006,0,.008,0,.002,0,.005,0,.007,0,.005,0,.01.001.015.002.003,0,.004,0,.007,0,.003,0,.006,0,.008,0,.003,0,.005,0,.008,0,.003,0,.005,0,.008,0,.002,0,.005,0,.008,0,.003,0,.005,0,.008,0,.003,0,.006,0,.009,0,.004,0,.008,0,.012.001.003,0,.006,0,.009,0,.003,0,.005,0,.008,0,.002,0,.005,0,.007,0,.003,0,.005,0,.008,0,.002,0,.005,0,.007,0,.003,0,.006,0,.008,0,.003,0,.005,0,.008,0,.005,0,.01.001.014.001.003,0,.004,0,.007,0,.003,0,.006,0,.009,0,.002,0,.005,0,.007,0,.003,0,.006,0,.008,0,.002,0,.005,0,.007,0,.003,0,.005,0,.008,0,.003,0,.006,0,.009,0,.003,0,.007,0,.01.001.004,0,.007,0,.011.001.003,0,.005,0,.008,0,.002,0,.006,0,.008,0,.003,0,.005,0,.008,0,.003,0,.005,0,.008,0,.003,0,.005,0,.008,0,.003,0,.005,0,.008,0,.003,0,.006,0,.009,0,.004,0,.009,0,.013.001.003,0,.005,0,.008,0,.003,0,.005,0,.008,0,.002,0,.005,0,.008,0,.003,0,.005,0,.008,0,.003,0,.005,0,.008,0,.003,0,.005,0,.008,0,.002,0,.005,0,.007,0,.004,0,.01,0,.015.001.002,0,.005,0,.007,0,.003,0,.006,0,.009,0,.002,0,.005,0,.007,0,.003,0,.005,0,.008,0,.003,0,.005,0,.008,0,.002,0,.006,0,.008,0,.002,0,.005,0,.007,0,.003,0,.007,0,.01,0,.004,0,.009,0,.013.001.003,0,.004,0,.007,0,.003,0,.005,0,.008,0,.003,0,.005,0,.008,0,.002,0,.005,0,.007,0,.004,0,.006,0,.009,0,.002,0,.004,0,.007,0,.004,0,.008,0,.012.001.003,0,.006,0,.009,0,.004,0,.006,0,.01,0,.002,0,.004,0,.007,0,.003,0,.007,0,.01,0,.002,0,.004,0,.007,0,.004,0,.006,0,.01,0,.002,0,.004,0,.006,0,.004,0,.008,0,.012,0,.002,0,.004,0,.007,0,.004,0,.009,0,.012.001.002,0,.004,0,.006,0,.003,0,.007,0,.01,0,.002,0,.005,0,.007,0,.003,0,.007,0,.01,0,.002,0,.004,0,.006,0,.004,0,.008,0,.012,0,.001,0,.003,0,.004,0,.005,0,.01,0,.015.001.002,0,.004,0,.006,0,.004,0,.006,0,.009,0,.002,0,.004,0,.007,0,.003,0,.007,0,.009,0,.002,0,.004,0,.006,0,.004,0,.007,0,.011,0,.002,0,.004,0,.005,0,.005,0,.01,0,.015.001.002,0,.004,0,.006,0,.004,0,.006,0,.01,0,.002,0,.004,0,.006,0,.003,0,.007,0,.01,0,.002,0,.004,0,.006,0,.004,0,.007,0,.011,0,.002,0,.003,0,.005,0,.006,0,.01,0,.016.001.001,0,.003,0,.004,0,.004,0,.008,0,.012,0,.002,0,.004,0,.005,0,.003,0,.008,0,.01,0,.002,0,.004,0,.006,0,.004,0,.007,0,.011,0,.002,0,.003,0,.005,0,.005,0,.011,0,.016.001.001,0,.002,0,.003,0,.004,0,.008,0,.012,0,.002,0,.004,0,.006,0,.004,0,.007,0,.01,0,.002,0,.004,0,.006,0,.004,0,.007,0,.011,0,.002,0,.004,0,.005,0,.005,0,.01,0,.016.001.001,0,.002,0,.003,0,.004,0,.008,0,.013,0h.006s.007,0,.011.001c.002,0,.004,0,.006,0,.004,0,.007,0,.011,0,.002,0,.004,0,.006,0,.005,0,.01,0,.016.001,0,0,0,0,.001,0,.005,0,.01,0,.015,0,.002,0,.003,0,.005,0,.004,0,.007,0,.011,0,.002,0,.004,0,.006,0,.004,0,.007,0,.011,0,.002,0,.004,0,.005,0,.004,0,.01,0,.014,0,0,0,.001,0,.002,0,.005,0,.011,0,.016,0,.002,0,.003,0,.005,0,.004,0,.007,0,.011,0,.002,0,.004,0,.006,0,.004,0,.006,0,.01,0,.002,0,.004,0,.006,0,.004,0,.008,0,.012,0,.001,0,.003,0,.004,0,.005,0,.011,0,.016,0,.002,0,.003,0,.005,0,.004,0,.008,0,.011,0,.002,0,.004,0,.006,0,.003,0,.007,0,.01,0,.002,0,.004,0,.006,0,.004,0,.008,0,.011,0,.002,0,.003,0,.005,0,.006,0,.01,0,.016,0,.002,0,.003,0,.005,0,.004,0,.008,0,.011,0,.002,0,.004,0,.006,0,.003,0,.007,0,.01,0,.002,0,.004,0,.007,0,.004,0,.007,0,.011,0,.002,0,.003,0,.005,0,.006,0,.01,0,.016,0,.001,0,.003,0,.004,0,.004,0,.008,0,.012,0,.002,0,.004,0,.006,0,.003,0,.007,0,.01,0,.002,0,.004,0,.007,0,.004,0,.008,0,.011,0,.001,0,.003,0,.004,0,.006,0,.01,0,.016,0,0,0,.001,0,.002,0,.004,0,.01,0,.014,0,.002,0,.004,0,.005,0,.004,0,.007,0,.011,0,.002,0,.004,0,.006,0,.004,0,.008,0,.011,0,.002,0,.003,0,.005,0,.005,0,.011,0,.016,0t0,0c.005,0,.01,0,.016,0,.002,0,.003,0,.005,0,.004,0,.007,0,.011,0,.002,0,.004,0,.005,0,.004,0,.008,0,.012,0,.001,0,.003,0,.004,0,.005,0,.01,0,.015,0,0,0,0,0,0,0,.005,0,.011,0,.016,0,.002,0,.003,0,.005,0,.004,0,.008,0,.011,0,.002,0,.004,0,.006,0,.004,0,.007,0,.011,0,.002,0,.003,0,.005,0,.004,0,.009,0,.013,0,.001,0,.002,0,.003,0,.006,0,.01,0,.016,0,.001,0,.003,0,.004,0,.004,0,.007,0,.012,0,.002,0,.004,0,.006,0,.003,0,.008,0,.011,0,.002,0,.004,0,.006,0,.004,0,.008,0,.013,0,.001,0,.002,0,.003,0,.006,0,.01,0,.016,0,.002,0,.003,0,.005,0,.004,0,.008,0,.011,0h.006s.007,0,.01,0c.002,0,.004,0,.006,0,.004,0,.008,0,.012,0,.001,0,.003,0,.004,0,.006,0,.01,0,.016,0,.001,0,.003,0,.004,0,.004,0,.008,0,.012,0,.002,0,.004,0,.006,0,.004,0,.007,0,.011,0,.002,0,.004,0,.006,0,.004,0,.007,0,.011,0,.002,0,.004,0,.005,0,.005,0,.011,0,.016,0,.001,0,.003,0,.004,0,.004,0,.009,0,.012,0,.002,0,.004,0,.006,0,.004,0,.007,0,.01,0,.002,0,.004,0,.006,0,.004,0,.007,0,.011,0,.002,0,.004,0,.005,0,.005,0,.011,0,.016,0,0,0,.001,0,.002,0,.004,0,.01,0,.014,0,.002,0,.004,0,.006,0,.004,0,.007,0,.011,0,.002,0,.004,0,.006,0,.004,0,.008,0,.011,0,.002,0,.003,0,.005,0,.005,0,.011,0,.016,0h0c.005,0,.011,0,.016,0,.002,0,.004,0,.005,0,.004,0,.007,0,.011,0,.002,0,.004,0,.006,0,.004,0,.007,0,.011,0,.002,0,.004,0,.005,0,.004,0,.009,0,.014,0,0,0,.001,0,.002,0,.005,0,.011,0,.016,0,.002,0,.003,0,.005,0,.004,0,.008,0,.012,0,.002,0,.004,0,.005,0,.004,0,.007,0,.011,0,.002,0,.004,0,.006,0,.004,0,.009,0,.012,0,.001,0,.003,0,.004,0,.005,0,.011,0,.016,0,.002,0,.003,0,.005,0,.004,0,.008,0,.011,0,.002,0,.004,0,.006,0,.004,0,.007,0,.011,0,.002,0,.004,0,.006,0,.004,0,.008,0,.012,0,.001,0,.002,0,.004,0,.006,0,.01,0,.016,0,.001,0,.003,0,.005,0,.004,0,.008,0,.012,0,.002,0,.004,0,.006,0,.003,0,.008,0,.01,0,.002,0,.004,0,.006,0,.004,0,.008,0,.011,0,.002,0,.003,0,.005,0,.005,0,.011,0,.016,0,.001,0,.003,0,.004,0,.004,0,.008,0,.013,0,.002,0,.004,0,.005,0,.004,0,.008,0,.011,0,.002,0,.004,0,.006,0,.004,0,.008,0,.011,0h.005c.005,0,.011,0,.016,0,0,0,.002,0,.002,0,.004,0,.01,0,.014,0h.005s.008,0,.011,0h.005s.008,0,.011,0h2.955c.276,0,.5-.224.5-.5s-.224-.5-.5-.5h-2.934c-2.268,0-4.497-.362-6.626-1.077-.053-.018-.106-.026-.159-.026h0ZM62.118,135.617c-.15,0-.298.067-.396.194-.169.218-.128.532.09.701,2.616,2.02,5.594,3.595,8.819,4.612.049.015.099.022.147.022.212,0,.409-.136.477-.35.083-.263-.063-.544-.327-.627-3.077-.97-5.939-2.467-8.505-4.448-.091-.07-.199-.104-.305-.104h0ZM90.008,139.267c-.065,0-.13.013-.193.039-2.974,1.248-6.124,1.955-9.365,2.101-.276.012-.489.246-.477.522.012.268.233.478.499.478.007,0,.015,0,.022,0,.001,0,.002,0,.003,0,.005,0,.009,0,.014,0,.003,0,.005,0,.008,0,.004,0,.007,0,.011,0,.003,0,.007,0,.01,0,.003,0,.007,0,.01,0,.003,0,.006,0,.008,0,.004,0,.008,0,.012,0,.004,0,.007,0,.01,0,.003,0,.006,0,.009,0,.003,0,.006,0,.008,0,.005,0,.01,0,.014,0,.002,0,.006,0,.008,0,.004,0,.007,0,.01,0,.004,0,.007,0,.011,0,.004,0,.007,0,.01,0,.003,0,.006,0,.009,0,.003,0,.006,0,.01,0,.004,0,.008,0,.012,0,.003,0,.006,0,.008,0,.003,0,.006,0,.009,0,.004,0,.008,0,.013,0,.004,0,.006,0,.01,0,.003,0,.005,0,.008,0,.005,0,.009,0,.014,0,.003,0,.005,0,.008,0,.003,0,.007,0,.01,0,.002,0,.005,0,.007,0,.005,0,.01,0,.015,0,.003,0,.005,0,.008,0,.003,0,.006,0,.009,0,.003,0,.005,0,.007,0,.005,0,.01,0,.015,0,.003,0,.005,0,.008,0,.003,0,.006,0,.009,0,.004,0,.009,0,.013,0,.003,0,.007,0,.01,0,.002,0,.005,0,.007,0,.005,0,.01,0,.015,0,.002,0,.005,0,.007,0,.003,0,.007,0,.01,0,.002,0,.005,0,.007,0,.005,0,.01,0,.015,0,.002,0,.004,0,.007,0,.004,0,.006,0,.01,0,.002,0,.003,0,.005,0,.006,0,.012,0,.018-.001.002,0,.004,0,.006,0,.006,0,.013,0,.019-.001.001,0,.003,0,.004,0,.004,0,.007,0,.01,0,.002,0,.004,0,.005,0,.006,0,.012,0,.018-.001.002,0,.003,0,.005,0,.004,0,.007,0,.011,0,.001,0,.002,0,.004,0,.007,0,.013,0,.02-.001.001,0,.002,0,.003,0,.012,0,.024-.002.035-.002.001,0,.002,0,.003,0,.02-.001.041-.003.061-.004,0,0,0,0,.001,0,.012,0,.024-.002.036-.003,0,0,.002,0,.002,0,.012,0,.024-.002.036-.003,0,0,.001,0,.002,0,.008,0,.015-.001.023-.002,0,0,0,0,0,0,.004,0,.008,0,.012,0h0c.008,0,.016-.001.024-.002,0,0,.001,0,.002,0,.013,0,.024-.002.037-.003,0,0,0,0,0,0,.034-.003.066-.005.1-.008,0,0,0,0,0,0,.013-.001.025-.002.038-.003h0c.99-.079,1.965-.208,2.924-.386h0c.069-.013.138-.026.206-.039,0,0,0,0,.001,0,.007-.001.015-.003.022-.004,0,0,.001,0,.002,0,.012-.002.023-.004.035-.007,0,0,.001,0,.002,0,.012-.002.023-.005.035-.007,0,0,.001,0,.001,0,.019-.004.039-.008.058-.012,0,0,.002,0,.002,0,.011-.002.023-.005.034-.007,0,0,.002,0,.002,0,.012-.002.023-.005.034-.007,0,0,.001,0,.002,0,.007-.001.014-.003.021-.004,0,0,.001,0,.002,0,.012-.002.023-.005.035-.007,0,0,.001,0,.002,0,.011-.002.023-.005.034-.007.001,0,.002,0,.004,0,.007-.001.013-.003.02-.004,0,0,.002,0,.002,0,.004,0,.007-.002.011-.002,0,0,0,0,.002,0,.007-.001.014-.003.021-.004.001,0,.002,0,.004,0,.011-.002.022-.005.033-.007.001,0,.003,0,.004,0,.007-.001.014-.003.021-.004,0,0,0,0,.002,0,.004,0,.007-.001.011-.002.002,0,.003,0,.005,0,.006-.001.011-.002.017-.004.002,0,.003,0,.005-.001.004,0,.007-.001.01-.002,0,0,.001,0,.002,0,.007-.001.013-.003.02-.004.002,0,.003,0,.005-.001.007-.001.013-.003.02-.004,0,0,.002,0,.002,0,.004,0,.007-.001.01-.002.002,0,.004,0,.005-.001.006-.001.011-.002.016-.003.002,0,.004,0,.005-.001.003,0,.007-.002.01-.002.002,0,.003,0,.005-.001.006-.001.011-.002.017-.004.002,0,.004,0,.006-.001.004,0,.006-.001.01-.002.001,0,.003,0,.005-.001.006-.001.011-.002.017-.004.002,0,.004,0,.006-.001.005,0,.009-.002.014-.003.003,0,.005-.001.008-.002.003,0,.006-.001.009-.002.002,0,.004,0,.007-.001.005-.001.009-.002.014-.003.002,0,.005-.001.007-.002.003,0,.006-.001.009-.002.002,0,.005-.001.007-.002.005,0,.009-.002.014-.003.002,0,.005-.001.007-.002l.008-.002s.009-.002.013-.003c.003,0,.006-.001.009-.002.002,0,.005-.001.007-.002.005-.001.009-.002.013-.003.003,0,.005-.001.008-.002.003,0,.006-.001.009-.002.003,0,.006-.001.008-.002.004,0,.008-.002.012-.003.003,0,.006-.001.008-.002.003,0,.005-.001.008-.002.005-.001.009-.002.013-.003.003,0,.005-.001.008-.002.003,0,.005-.001.008-.002.003,0,.006-.001.009-.002.004,0,.008-.002.012-.003.003,0,.005-.001.008-.002.003,0,.006-.001.009-.002.004,0,.007-.002.01-.002.004,0,.007-.001.01-.002.003,0,.005-.001.007-.002.004,0,.008-.002.012-.003.003,0,.006-.001.009-.002.003,0,.006-.001.009-.002.002,0,.005-.001.007-.002.005-.001.009-.002.014-.003.002,0,.005-.001.007-.002.003,0,.007-.002.01-.002.003,0,.006-.001.008-.002.004,0,.008-.002.012-.003.003,0,.005-.001.007-.002.004,0,.007-.002.011-.003.003,0,.006-.001.009-.002.003,0,.007-.002.01-.002.003,0,.005-.001.007-.002.005-.001.009-.002.014-.003.003,0,.005-.001.007-.002.003,0,.006-.001.009-.002.003,0,.005-.001.007-.002.005-.001.009-.002.014-.003.003,0,.005-.001.007-.002.004,0,.007-.002.011-.003.003,0,.006-.001.008-.002.004,0,.007-.002.011-.003.003,0,.005-.001.007-.002.004,0,.008-.002.012-.003.002,0,.006-.001.009-.002.003,0,.006-.001.01-.002.002,0,.005-.001.007-.002.005-.001.009-.002.014-.003.002,0,.005-.001.007-.002.003,0,.007-.002.01-.002.003,0,.004-.001.007-.002.005-.001.009-.002.013-.003.002,0,.004-.001.007-.002.004,0,.008-.002.012-.003.002,0,.005-.001.008-.002.004,0,.007-.002.011-.003.003,0,.004,0,.007-.002.005-.001.01-.002.014-.004.002,0,.003,0,.005-.001.004,0,.008-.002.011-.003.002,0,.004,0,.006-.001.005-.001.01-.002.014-.004.002,0,.004,0,.006-.001.004,0,.008-.002.012-.003.002,0,.003,0,.005-.001.005-.001.009-.002.014-.003.002,0,.004,0,.006-.001.005-.001.01-.002.015-.004.001,0,.003,0,.005-.001.004,0,.008-.002.012-.003.002,0,.004,0,.006-.001.005-.001.01-.002.015-.004.002,0,.003,0,.005-.001.004,0,.008-.002.012-.003.001,0,.003,0,.005-.001.005-.001.01-.002.015-.004.002,0,.004,0,.006-.001.005-.001.009-.002.014-.004.001,0,.002,0,.003,0,.005-.001.01-.002.014-.004.001,0,.003,0,.005-.001.005-.001.01-.003.015-.004h.004s.009-.003.013-.004c.001,0,.003,0,.004-.001.005-.001.01-.003.016-.004.001,0,.003,0,.004-.001.005-.001.009-.002.014-.004,0,0,.002,0,.003,0,.005-.001.011-.003.016-.004.001,0,.003,0,.004-.001.005-.001.011-.003.016-.004,0,0,.002,0,.003,0,.004-.001.009-.002.014-.004.001,0,.003,0,.004-.001.005-.001.01-.003.016-.004.001,0,.003,0,.004-.001.005-.001.009-.002.014-.004,0,0,.002,0,.003,0,.005-.001.011-.003.016-.004.001,0,.003,0,.004-.001.005-.001.011-.003.016-.004h0c.005-.002.011-.003.016-.004.001,0,.002,0,.004,0,.005-.001.011-.003.016-.004,0,0,.002,0,.003,0,.005-.001.009-.002.014-.004.001,0,.002,0,.004,0,.005-.001.011-.003.016-.004,0,0,.003,0,.004-.001.005-.001.01-.003.015-.004,0,0,0,0,.002,0,.005-.001.011-.003.017-.004,0,0,.003,0,.004,0,.005-.001.011-.003.017-.004,0,0,.001,0,.002,0,.005-.001.01-.003.016-.004,0,0,.002,0,.003,0,.006-.001.011-.003.017-.004,0,0,.001,0,.002,0,.005-.001.011-.003.016-.004,0,0,.002,0,.002,0,.005-.001.011-.003.017-.004.001,0,.002,0,.004,0,.011-.003.022-.006.034-.009.001,0,.002,0,.003,0,.006-.002.011-.003.017-.005,0,0,0,0,0,0,.005-.001.011-.003.016-.004,0,0,.002,0,.003,0,.005-.001.011-.003.017-.004,0,0,.002,0,.003,0,.005-.001.011-.003.016-.004h.001c.006-.002.011-.003.017-.005,0,0,.002,0,.003,0,.011-.003.023-.006.034-.009.001,0,.002,0,.003,0,.006-.002.011-.003.017-.005,0,0,0,0,.002,0,.005-.001.011-.003.016-.005,0,0,.001,0,.002,0,.006-.002.011-.003.017-.005,0,0,.001,0,.002,0,.012-.003.023-.006.034-.01,0,0,.002,0,.003,0,.006-.002.011-.003.017-.005h0c.006-.002.011-.003.017-.005,0,0,.002,0,.002,0,.006-.002.011-.003.017-.005,0,0,0,0,.001,0,.012-.003.024-.007.036-.01,0,0,0,0,.001,0,.012-.003.024-.007.036-.01h.001c.006-.002.012-.004.018-.005h0c.006-.002.012-.004.018-.005h0c.006-.002.012-.003.018-.005,0,0,0,0,.001,0,.012-.003.024-.007.036-.01h0c.031-.009.062-.018.093-.027h0c.056-.016.111-.033.167-.049h0c.988-.293,1.954-.639,2.894-1.033.255-.107.374-.4.268-.655-.08-.191-.266-.307-.461-.307h0ZM101.022,131.242c-.286,0-.57.123-.767.358-.736.878-1.536,1.719-2.376,2.499-.202.188-.214.504-.026.707.099.106.232.16.367.16.121,0,.242-.044.338-.132.508-.471.998-.961,1.47-1.468h0c.022-.023.043-.046.065-.07,0,0,0,0,0,0,.016-.017.032-.035.048-.052,0,0,0,0,0,0,.016-.017.032-.034.047-.052,0,0,0,0,.001-.001.002-.003.005-.005.007-.008,0,0,0,0,.001-.001.002-.002.005-.005.007-.008,0,0,.001-.001.002-.002.01-.011.02-.022.03-.033,0,0,.001-.001.002-.002.002-.002.004-.004.006-.007,0,0,.002-.002.002-.003.002-.002.004-.004.006-.007,0,0,.002-.002.003-.003.002-.002.004-.004.006-.007,0,0,.001-.002.002-.002.002-.002.004-.004.006-.007,0,0,.002-.002.002-.003.007-.007.014-.015.02-.023,0,0,.001-.001.002-.002.002-.002.004-.004.006-.006.001-.001.002-.002.003-.003.002-.002.004-.004.006-.006,0,0,.002-.002.003-.003.002-.002.004-.004.006-.006,0-.001.002-.002.003-.003.002-.002.004-.004.006-.006,0,0,0,0,0-.001.005-.005.01-.011.015-.016,0,0,0,0,0,0,.002-.002.004-.004.006-.007,0,0,.002-.002.003-.003.002-.002.004-.004.006-.007,0,0,.002-.002.002-.003.002-.002.004-.004.006-.006.001-.001.002-.002.003-.003.002-.002.004-.004.006-.006,0-.001.002-.002.003-.003.002-.002.004-.004.006-.006l.002-.003s.006-.007.01-.011c.001-.002.003-.003.004-.005.001-.001.003-.004.005-.005.001-.001.003-.003.004-.004.002-.002.003-.003.005-.005.001-.001.003-.003.004-.004.002-.002.003-.004.005-.006.001-.001.002-.002.003-.004.002-.002.004-.004.005-.006.001-.001.002-.002.003-.003.006-.007.012-.014.019-.021.001-.001.002-.003.003-.004.001-.001.003-.003.004-.005.002-.002.003-.003.005-.005.001-.001.003-.003.004-.005.001-.002.003-.003.004-.004.002-.002.003-.003.005-.005.001-.002.003-.003.004-.005.001-.001.003-.003.004-.005.002-.002.004-.004.006-.006.001-.001.002-.002.003-.003.003-.003.006-.006.008-.009.001-.001.002-.003.004-.004.002-.002.003-.004.005-.005.001-.001.003-.003.004-.005.002-.002.003-.004.005-.006,0-.001.002-.002.003-.003.002-.002.004-.005.006-.007.001-.001.002-.002.003-.003.002-.002.004-.005.006-.007,0-.001.002-.002.003-.003.002-.002.004-.005.006-.007.001-.001.003-.003.004-.004.002-.003.005-.005.007-.008,0,0,.002-.002.003-.003.002-.002.004-.004.006-.006.001-.001.003-.003.004-.004.002-.002.003-.004.005-.006.001-.001.002-.003.004-.004.002-.002.003-.004.005-.006.001-.001.002-.003.004-.004.002-.002.004-.004.006-.007,0,0,.002-.002.003-.003.003-.003.006-.006.008-.01,0,0,0-.001.002-.002.002-.003.005-.005.007-.008,0-.001.002-.002.003-.003.002-.002.004-.005.006-.007,0-.001.002-.002.003-.004.002-.002.004-.004.006-.006.001-.001.002-.002.003-.003l.006-.007s.001-.002.002-.003c.003-.003.005-.006.008-.009h0s.006-.007.009-.011c0,0,0-.001.002-.002.002-.003.005-.005.007-.008,0-.001.002-.002.003-.003.002-.002.004-.004.006-.006,0-.001.002-.003.003-.004.002-.002.004-.004.005-.006,0-.001.002-.003.003-.004.002-.002.003-.004.005-.006.001-.001.002-.003.004-.004.002-.002.004-.005.006-.007,0,0,.001-.002.002-.002.003-.003.006-.007.009-.01,0,0,.002-.002.002-.002.002-.002.004-.005.006-.007.001-.001.003-.003.004-.005.001-.002.003-.003.004-.005.001-.001.003-.003.004-.005.002-.002.003-.004.005-.006,0-.001.002-.003.003-.004.002-.002.004-.004.006-.007,0-.001.002-.003.003-.004.003-.003.005-.006.008-.009,0,0,0,0,0,0,.003-.003.006-.007.009-.01,0,0,0-.001.001-.001.003-.003.005-.006.008-.009,0,0,0,0,.001-.001.002-.003.005-.006.007-.008,0,0,.002-.002.002-.003.002-.002.004-.005.006-.007,0,0,.002-.002.003-.003.002-.002.004-.005.006-.007,0,0,.002-.002.002-.003.006-.007.011-.013.017-.02,0-.001.002-.002.003-.003.002-.002.004-.005.006-.007,0-.001.002-.002.003-.003l.006-.007s.002-.002.003-.004c.002-.002.004-.005.006-.007,0,0,.002-.002.003-.003.002-.003.005-.005.007-.008,0,0,.001-.002.002-.002.003-.003.006-.007.009-.01,0,0,0,0,0,0,.003-.003.005-.006.008-.01,0-.001.002-.002.003-.004.002-.002.004-.004.006-.007,0-.001.002-.002.003-.004.002-.002.004-.004.006-.007,0-.001.002-.002.003-.003.002-.003.004-.005.006-.007,0-.001.001-.002.002-.003.002-.003.005-.006.007-.008,0,0,0,0,.001-.002.003-.003.006-.007.009-.01,0,0,.001-.001.002-.002.002-.003.004-.005.007-.008,0-.001.002-.002.003-.003.002-.002.004-.004.006-.007,0-.001.002-.003.003-.004.002-.002.004-.004.005-.006,0-.001.003-.003.003-.004.002-.002.004-.005.006-.007,0,0,.001-.001.002-.002.003-.003.005-.006.008-.01,0,0,0,0,0,0,.003-.003.006-.007.008-.01,0-.001.002-.002.003-.004.002-.002.003-.004.005-.006.001-.002.003-.003.004-.005.002-.002.003-.004.005-.006.001-.002.002-.003.004-.004.002-.002.003-.004.005-.005.001-.002.002-.003.004-.004.002-.002.004-.004.005-.006,0-.001.002-.002.003-.004.003-.003.006-.007.008-.01h0s.008.005.011.008c.001,0,.002.001.003.002.003.002.006.004.009.006.001,0,.002.002.003.002.003.002.006.004.009.006,0,0,.002.001.003.002.004.003.007.005.011.008,0,0,0,0,0,0,.008.006.016.012.024.017h0s.008.006.012.009c0,0,0,0,0,0,.004.003.008.006.012.008h0c1.548,1.114,3.228,2.057,5.011,2.801,0,0,0,0,0,0,.005.002.009.004.014.006h0c.019.008.037.016.056.023,0,0,0,0,0,0,.004.002.009.004.013.005,0,0,0,0,0,0,.014.006.028.012.042.017h0s.009.004.014.006c0,0,0,0,0,0,.004.002.009.004.013.006,0,0,0,0,0,0,.014.006.028.011.042.017,0,0,0,0,.001,0,.004.002.008.003.012.005h.002s.009.004.013.006c0,0,0,0,0,0,.014.006.027.011.041.017,0,0,.002,0,.003.001.004.001.007.003.011.004.001,0,.002,0,.003.001.004.001.007.003.011.004,0,0,.002,0,.002,0,.009.004.018.007.027.011,0,0,.001,0,.002,0,.004.001.007.003.011.004.001,0,.002,0,.004.002.003.001.007.003.01.004.001,0,.003.001.004.002.004.001.007.003.01.004,0,0,.002,0,.003.001.009.004.018.007.027.011.001,0,.002,0,.004.001.003.001.006.003.01.004.001,0,.003.001.004.002.003.001.007.003.009.004.001,0,.003.001.004.002.004.001.008.003.011.004,0,0,.001,0,.002,0,.005.002.009.004.014.005,0,0,0,0,0,0,.004.002.008.003.013.005.001,0,.003.001.004.002.003.001.006.002.009.003.002,0,.003.001.005.002.003.001.006.002.008.003.002,0,.003.001.005.002.003.001.006.002.009.004.001,0,.002,0,.004.001,0,0,0,0,0,0,.06.023.121.034.182.034.2,0,.388-.121.466-.318.101-.257-.026-.547-.283-.648-1.913-.749-3.728-1.743-5.397-2.956-.177-.129-.383-.191-.587-.191h0ZM125.913,133.9c-.068,0-.138.014-.204.044-2.937,1.315-6.068,2.02-9.306,2.096-.276.006-.495.235-.488.512.006.272.229.488.5.488.003,0,.007,0,.01,0,2.292-.053,4.509-.413,6.61-1.039,0,0,0,0,0,0,.031-.009.061-.018.092-.028,0,0,.001,0,.002,0,.005-.001.009-.003.014-.004,0,0,.001,0,.002,0,.025-.008.05-.015.075-.023,0,0,.002,0,.002,0,.005-.001.009-.003.014-.004,0,0,0,0,.001,0,.025-.008.051-.016.076-.023,0,0,.001,0,.001,0,.005-.001.009-.003.014-.004,0,0,.001,0,.002,0,.005-.001.01-.003.014-.004,0,0,.001,0,.002,0,.02-.006.039-.012.059-.018,0,0,.002,0,.003,0,.004-.001.009-.003.013-.004.001,0,.002,0,.004-.001.004-.001.009-.003.013-.004.001,0,.002,0,.003-.001.005-.001.009-.003.013-.004h0c.015-.005.03-.01.045-.014,0,0,0,0,.002,0,.005-.001.009-.003.013-.004.001,0,.002,0,.003-.001.004-.001.008-.003.012-.004.001,0,.003,0,.004-.001.005-.001.009-.003.013-.004,0,0,0,0,0,0,.015-.005.029-.009.045-.014,0,0,0,0,.002,0,.005-.001.008-.003.013-.004.001,0,.003,0,.004-.001.004-.001.008-.003.012-.004.002,0,.003,0,.005-.001.004-.001.008-.003.012-.004.002,0,.003-.001.005-.002.004-.001.008-.003.012-.004,0,0,.002,0,.002,0,.014-.004.028-.009.041-.014.001,0,.003,0,.004-.001.004-.001.008-.003.011-.004.002,0,.004-.001.005-.002.004-.001.008-.003.011-.004.002,0,.003-.001.005-.002.004-.001.008-.003.012-.004,0,0,.002,0,.003,0,.014-.005.027-.009.041-.014.001,0,.003,0,.004-.001.004-.001.008-.003.012-.004.002,0,.003-.001.005-.002.004-.001.008-.003.012-.004.001,0,.003,0,.004-.001.004-.001.008-.003.012-.004.001,0,.002,0,.003-.001.013-.004.026-.009.039-.013.002,0,.004-.001.006-.002.003-.001.007-.002.01-.003.002,0,.005-.002.007-.002.003-.001.007-.002.01-.003.002,0,.004-.001.007-.002.003-.001.007-.002.01-.003.002,0,.005-.002.007-.002.004-.001.006-.002.01-.003.002,0,.003-.001.005-.002.007-.002.014-.005.021-.007.002,0,.003-.001.005-.002.003-.001.007-.002.01-.004.002,0,.004-.001.007-.002.003-.001.006-.002.01-.003.002,0,.005-.002.007-.002.003,0,.006-.002.009-.003.002,0,.005-.002.008-.003.003,0,.006-.002.009-.003.002,0,.004-.001.006-.002.007-.002.014-.005.021-.007.001,0,.003-.001.005-.002.003-.001.006-.002.009-.003.002,0,.005-.002.008-.003.003,0,.006-.002.009-.003.003,0,.005-.002.008-.003.003-.001.006-.002.009-.003.003,0,.005-.002.008-.003.003-.001.006-.002.009-.003.003-.001.006-.002.009-.003.003,0,.004-.002.007-.002.005-.002.011-.004.016-.006.003-.001.005-.002.008-.003.003,0,.006-.002.009-.003s.005-.002.008-.003c.003-.001.006-.002.009-.003.003-.001.005-.002.008-.003.003-.001.006-.002.009-.003.003-.001.005-.002.008-.003.003-.001.006-.002.009-.003.003,0,.005-.002.008-.003.005-.002.011-.004.016-.006.002,0,.004-.001.006-.002.004-.001.007-.003.011-.004.003,0,.005-.002.008-.003l.009-.003s.005-.002.008-.003c.003-.001.006-.002.009-.003.003,0,.005-.002.007-.003.003-.001.007-.002.01-.004.002,0,.004-.002.006-.002.004-.001.009-.003.013-.005.002,0,.005-.002.007-.003.005-.002.009-.003.013-.005.002,0,.004-.001.006-.002.004-.001.007-.003.011-.004.002,0,.005-.002.007-.002.003-.001.007-.002.01-.004.002,0,.005-.002.007-.003.003-.001.007-.002.01-.004.002,0,.005-.002.007-.003.004-.001.008-.003.012-.004.002,0,.003-.001.005-.002.005-.002.011-.004.016-.006.002,0,.004-.001.006-.002.004-.001.007-.003.011-.004.002,0,.004-.002.007-.002.003-.001.007-.003.01-.004.003,0,.004-.002.007-.002.004-.001.007-.003.011-.004.002,0,.004-.001.005-.002.004-.002.009-.003.013-.005.001,0,.002,0,.004-.001.006-.002.011-.004.017-.006,0,0,.002,0,.003-.001.005-.002.009-.003.014-.005.002,0,.004-.001.006-.002.004-.001.008-.003.012-.004.002,0,.004-.001.006-.002.004-.001.008-.003.012-.004.002,0,.004-.001.005-.002.004-.002.009-.003.013-.005.001,0,.003-.001.004-.001.011-.004.023-.008.034-.013.001,0,.003-.001.004-.001.004-.002.008-.003.013-.005.002,0,.003-.001.005-.002.004-.001.008-.003.012-.004.002,0,.003-.001.005-.002.004-.001.008-.003.012-.005.002,0,.003-.001.005-.002.011-.004.023-.009.034-.013,0,0,.002,0,.003-.001.005-.002.009-.004.014-.005.001,0,.003-.001.004-.002.004-.002.008-.003.012-.005.002,0,.003-.001.005-.002.004-.002.008-.003.012-.005.002,0,.003-.001.005-.002.005-.002.01-.004.015-.006,0,0,0,0,.001,0,.006-.002.012-.004.018-.007,0,0,0,0,.001,0,.005-.002.01-.004.016-.006.002,0,.003-.001.004-.002.004-.002.009-.003.013-.005.002,0,.002,0,.004-.001.004-.002.009-.003.013-.005.001,0,.003-.001.004-.002.005-.002.01-.004.014-.006,0,0,.002,0,.002,0,.012-.004.023-.009.034-.013,0,0,.002,0,.003-.001.005-.002.009-.004.014-.005.001,0,.003-.001.005-.002.004-.002.009-.003.013-.005.002,0,.003-.001.004-.002.004-.002.009-.004.013-.005.001,0,.002,0,.003-.001.011-.004.023-.009.034-.013,0,0,0,0,.002,0,.005-.002.01-.004.015-.006.001,0,.002,0,.003-.001l.014-.005s.002,0,.004-.001c.005-.002.01-.004.015-.006,0,0,.001,0,.002,0,.017-.007.035-.014.052-.021,0,0,.002,0,.002,0,.005-.002.01-.004.015-.006,0,0,.002,0,.003-.001.005-.002.01-.004.015-.006,0,0,.001,0,.002,0,.018-.007.035-.014.052-.021h0c.005-.002.011-.005.016-.007,0,0,.002,0,.002,0,.005-.002.01-.004.015-.006,0,0,.002,0,.002,0,.005-.002.011-.004.016-.006,0,0,0,0,.001,0,.012-.005.023-.009.035-.014h0c.006-.003.011-.005.016-.007,0,0,.001,0,.002,0,.005-.002.01-.004.015-.006,0,0,.002,0,.002,0,.005-.002.011-.005.016-.007h0c.018-.007.035-.014.052-.022,0,0,.001,0,.002,0,.005-.002.01-.004.015-.006,0,0,.002,0,.002,0,.005-.002.01-.004.016-.006,0,0,0,0,.001,0,.017-.007.035-.014.052-.022h0c.006-.002.011-.005.017-.007,0,0,.001,0,.002,0,.005-.002.01-.004.016-.007,0,0,0,0,.001,0,.023-.01.046-.019.07-.029,0,0,0,0,.001,0,.005-.002.011-.004.016-.007,0,0,.001,0,.002,0,.023-.01.046-.02.069-.029,0,0,0,0,0,0,.005-.002.011-.005.017-.007,0,0,0,0,0,0,.029-.012.058-.025.087-.037,0,0,0,0,0,0,.029-.013.058-.025.087-.038,0,0,0,0,0,0,.005-.002.011-.005.017-.007h0c.07-.031.14-.062.209-.093.252-.113.365-.409.252-.661-.083-.186-.266-.296-.457-.296h0ZM145.024,129.922c-.046,0-.092.006-.138.019-1.858.532-3.79.802-5.742.802h-3.905c-.276,0-.5.224-.5.5s.224.5.5.5h3.925s.009,0,.013,0h.002c.005,0,.01,0,.016,0h.004s.008,0,.012,0c.001,0,.003,0,.004,0,.005,0,.01,0,.015,0h.003s.008,0,.013,0c.001,0,.003,0,.004,0,.005,0,.01,0,.016,0,0,0,.001,0,.002,0,.004,0,.009,0,.013,0,.002,0,.003,0,.005,0,.004,0,.01,0,.014,0,0,0,.001,0,.002,0,.005,0,.01,0,.015,0,.001,0,.003,0,.004,0,.004,0,.009,0,.013,0,0,0,.002,0,.002,0,.005,0,.01,0,.015,0,.002,0,.003,0,.005,0,.004,0,.007,0,.012,0,.002,0,.003,0,.005,0,.005,0,.01,0,.015,0,.001,0,.002,0,.004,0,.004,0,.008,0,.013,0,.001,0,.003,0,.004,0h.015s.002,0,.003,0c.004,0,.009,0,.013,0,.001,0,.003,0,.004,0,.005,0,.01,0,.015,0h0c.005,0,.011,0,.016,0,.001,0,.003,0,.004,0,.004,0,.009,0,.013,0,0,0,.002,0,.003,0,.005,0,.011,0,.016,0,.001,0,.002,0,.003,0,.004,0,.009,0,.014,0,0,0,.002,0,.003,0,.006,0,.01,0,.016,0,0,0,.002,0,.002,0,.004,0,.009,0,.013,0,.001,0,.003,0,.004,0,.005,0,.01,0,.016,0,0,0,0,0,.001,0,.005,0,.009,0,.014,0,.002,0,.003,0,.004,0,.005,0,.009,0,.014,0h.001c.005,0,.01,0,.016,0,.001,0,.003,0,.004,0,.004,0,.009,0,.013,0,0,0,.002,0,.003,0,.005,0,.01,0,.015,0,.001,0,.003,0,.004,0,.004,0,.008,0,.013,0,.001,0,.002,0,.004,0,.005,0,.01,0,.015,0,.001,0,.002,0,.003,0,.004,0,.008,0,.013,0,.001,0,.003,0,.004,0,.005,0,.011,0,.016,0,0,0,0,0,.001,0,.005,0,.01,0,.015,0,.001,0,.003,0,.004,0,.005,0,.01,0,.015,0h.001c.005,0,.011,0,.016,0,.001,0,.003,0,.004,0,.004,0,.009,0,.013,0h.003c.006,0,.01,0,.016,0,0,0,.002,0,.003,0,.004,0,.009,0,.014,0,.001,0,.002,0,.003,0,.005,0,.011,0,.016,0,0,0,.001,0,.002,0,.004,0,.01,0,.014,0,.001,0,.002,0,.003,0,.01,0,.022,0,.032-.001.001,0,.002,0,.003,0,.005,0,.011,0,.016,0h0c.005,0,.011,0,.016,0,.001,0,.002,0,.003,0,.004,0,.01,0,.014,0,0,0,.001,0,.002,0,.006,0,.01,0,.016,0,.001,0,.002,0,.003,0,.004,0,.009,0,.014,0,0,0,.002,0,.003,0,.006,0,.01,0,.016,0,0,0,0,0,.001,0,.005,0,.01,0,.015,0,.001,0,.002,0,.003,0,.01,0,.022,0,.032-.001,0,0,.002,0,.003,0,.011,0,.022,0,.033-.001,0,0,.002,0,.002,0,.004,0,.011,0,.015,0,0,0,.001,0,.002,0,.006,0,.01,0,.016,0,0,0,.001,0,.002,0,.004,0,.01,0,.014,0,0,0,.002,0,.002,0,.006,0,.011,0,.017,0h0c.005,0,.01,0,.015,0,.001,0,.002,0,.004,0,.01,0,.022-.001.032-.002.001,0,.002,0,.003,0,.005,0,.01,0,.015,0,0,0,0,0,.001,0,.005,0,.011,0,.016,0,.001,0,.002,0,.003,0,.004,0,.01,0,.014,0,0,0,.001,0,.002,0,.006,0,.011,0,.017,0,0,0,0,0,0,0,.005,0,.011,0,.016,0,0,0,.001,0,.002,0,.012,0,.022-.001.033-.002,0,0,0,0,.001,0,.012,0,.022-.001.033-.002,0,0,.002,0,.002,0,.011,0,.022-.001.033-.002,0,0,.001,0,.002,0,.006,0,.01,0,.016,0,0,0,0,0,.001,0,.006,0,.011,0,.017-.001,0,0,0,0,0,0,.006,0,.01,0,.016,0,0,0,.001,0,.002,0,.012,0,.022-.001.033-.002,0,0,0,0,.001,0,.012,0,.022-.001.033-.002,0,0,.001,0,.002,0,.011,0,.022-.001.033-.002,0,0,0,0,.001,0,.006,0,.011,0,.017-.001h0c.012,0,.023-.002.034-.002,0,0,0,0,0,0,.012,0,.023-.002.034-.002,0,0,0,0,0,0,.012,0,.023-.002.034-.002h0c.017-.001.034-.002.052-.004,0,0,0,0,0,0,.012,0,.023-.002.034-.003,0,0,0,0,0,0,.012,0,.022-.002.034-.003,0,0,.001,0,.002,0,.012,0,.022-.002.033-.003,0,0,0,0,.001,0,.029-.002.056-.004.085-.007,0,0,0,0,0,0,.012,0,.022-.002.034-.003,0,0,0,0,0,0,.04-.003.08-.007.12-.01,0,0,0,0,0,0,.012-.001.023-.002.034-.003h0c.08-.007.161-.015.241-.023h0c1.301-.132,2.567-.378,3.79-.729.264-.077.416-.353.34-.617-.063-.219-.263-.362-.48-.362h0ZM158.983,117.23c-.199,0-.388.12-.465.317-1.16,2.949-3.018,5.641-5.374,7.784-.204.186-.219.502-.033.706.099.108.234.164.37.164.119,0,.239-.043.335-.129,2.455-2.233,4.399-5.019,5.634-8.161.1-.257-.027-.546-.283-.647-.06-.024-.122-.035-.183-.035h0ZM157.398,98.432c-.088,0-.177.023-.258.072-.236.143-.312.45-.169.686,1.665,2.757,2.645,5.783,2.911,8.996.022.261.24.459.498.459.014,0,.028,0,.042-.002.275-.023.479-.264.457-.539v-.002c0-.006-.001-.012-.002-.018,0,0,0,0,0-.001,0-.006-.001-.013-.002-.019,0,0,0-.003,0-.004,0-.005,0-.01-.001-.015,0-.001,0-.004,0-.005,0-.005,0-.009-.001-.014,0-.002,0-.004,0-.006,0-.005,0-.009-.001-.013,0-.002,0-.003,0-.005,0-.005,0-.01-.001-.015,0-.001,0-.003,0-.004,0-.006-.001-.012-.002-.019,0,0,0,0,0,0,0-.006-.001-.013-.002-.02,0,0,0-.002,0-.002,0-.006-.001-.011-.002-.017,0-.002,0-.003,0-.005,0-.005,0-.009-.001-.014,0-.002,0-.003,0-.006,0-.005,0-.009-.001-.014,0-.002,0-.003,0-.005,0-.005,0-.01-.001-.014,0-.001,0-.003,0-.005-.001-.013-.002-.026-.004-.039h0c0-.006-.001-.013-.002-.019,0-.001,0-.002,0-.004,0-.005,0-.01-.001-.015,0-.002,0-.003,0-.005,0-.005,0-.01-.001-.015,0-.002,0-.002,0-.005,0-.005-.001-.01-.002-.015,0,0,0-.003,0-.004-.002-.019-.004-.039-.006-.058v-.002c0-.006-.001-.011-.002-.017,0-.001,0-.002,0-.004l-.002-.016s0-.003,0-.004c0-.005-.001-.01-.002-.016,0,0,0-.003,0-.004-.002-.019-.004-.039-.006-.058h0c0-.007-.001-.013-.002-.019,0-.001,0-.003,0-.004,0-.005-.001-.01-.002-.015,0-.001,0-.003,0-.004,0-.005-.001-.01-.002-.016,0,0,0-.003,0-.003,0-.006-.001-.012-.002-.019h0c-.001-.014-.003-.027-.004-.04,0,0,0,0,0-.001,0-.006-.001-.012-.002-.018,0-.001,0-.002,0-.003,0-.005-.001-.011-.002-.016,0-.001,0-.002,0-.003,0-.005-.001-.011-.002-.016,0,0,0-.002,0-.003-.003-.026-.006-.052-.009-.078t0-.003c0-.006-.001-.011-.002-.017,0-.001,0-.002,0-.003,0-.006-.001-.011-.002-.017,0-.001,0-.001,0-.003,0-.006-.002-.012-.002-.018,0,0,0,0,0,0-.002-.02-.005-.039-.007-.059,0,0,0-.002,0-.002,0-.006-.001-.011-.002-.017,0,0,0-.002,0-.003,0-.006-.001-.011-.002-.017,0-.001,0-.001,0-.003-.003-.026-.007-.052-.01-.078,0,0,0-.001,0-.002,0-.006-.002-.012-.002-.017,0,0,0-.002,0-.002,0-.006-.001-.011-.002-.017,0,0,0-.002,0-.002,0-.006-.002-.012-.003-.019h0c-.003-.02-.005-.04-.008-.059,0,0,0,0,0-.001,0-.006-.002-.012-.002-.018,0,0,0-.002,0-.002,0-.006-.002-.011-.002-.017,0,0,0-.002,0-.002,0-.006-.002-.012-.003-.019h0c-.003-.02-.005-.04-.008-.059,0,0,0,0,0-.002,0-.006-.002-.012-.003-.018,0,0,0-.002,0-.002,0-.006-.002-.011-.002-.017,0,0,0-.001,0-.002,0-.006-.002-.012-.003-.019h0c-.003-.02-.006-.04-.009-.059h0c0-.007-.002-.013-.003-.019,0,0,0-.001,0-.002,0-.006-.002-.012-.003-.017,0,0,0-.002,0-.002,0-.006-.002-.012-.003-.018h0c-.004-.027-.008-.052-.012-.078,0,0,0,0,0-.002,0-.006-.002-.012-.003-.018,0,0,0-.001,0-.002-.001-.006-.002-.012-.003-.019h0c-.004-.026-.008-.052-.012-.078v-.002c-.001-.006-.002-.012-.003-.017,0,0,0-.001,0-.002,0-.006-.002-.012-.003-.018,0,0,0,0,0,0-.004-.026-.008-.052-.013-.078h0c0-.007-.002-.013-.003-.019,0,0,0-.001,0-.002,0-.006-.002-.012-.003-.018,0,0,0,0,0-.001-.004-.026-.009-.052-.013-.077h0c-.001-.007-.002-.013-.003-.019,0-.001,0-.001,0-.003-.001-.006-.002-.011-.003-.017,0,0,0,0,0-.002-.004-.026-.009-.052-.014-.077,0,0,0,0,0-.001-.001-.006-.002-.012-.003-.018,0,0,0-.001,0-.002-.001-.006-.002-.012-.003-.017v-.002c-.001-.006-.003-.012-.004-.019h0c-.003-.019-.007-.039-.011-.058v-.002c-.001-.006-.002-.011-.003-.017,0,0,0-.002,0-.003-.001-.005-.002-.011-.003-.017,0,0,0-.002,0-.002-.001-.006-.002-.012-.003-.018h0c-.004-.02-.007-.039-.011-.058,0,0,0-.001,0-.002-.001-.006-.002-.011-.003-.017,0,0,0-.002,0-.003-.001-.005-.002-.011-.003-.016,0,0,0-.002,0-.003-.001-.006-.002-.012-.003-.018h0c-.004-.02-.007-.039-.011-.059,0,0,0,0,0-.002-.001-.006-.002-.011-.003-.017,0,0,0-.002,0-.003-.001-.005-.002-.011-.003-.016,0,0,0-.002,0-.003-.001-.006-.002-.011-.003-.017,0,0,0-.001,0-.002-.004-.019-.008-.038-.011-.057h0c-.001-.007-.002-.013-.003-.018,0,0,0-.002,0-.003-.001-.005-.002-.011-.003-.016,0,0,0-.002,0-.003-.001-.006-.002-.011-.003-.017,0,0,0-.001,0-.002-.004-.019-.008-.038-.012-.057h0c-.001-.007-.002-.013-.004-.019,0,0,0-.002,0-.003-.001-.005-.002-.011-.003-.016,0,0,0-.002,0-.003-.001-.006-.002-.011-.003-.017,0,0,0-.001,0-.002-.004-.019-.008-.038-.012-.057h0c-.001-.006-.003-.012-.004-.018,0-.001,0-.002,0-.003-.001-.005-.002-.011-.003-.016,0-.001,0-.002,0-.003-.001-.005-.002-.011-.003-.016,0,0,0-.002,0-.003-.001-.006-.003-.012-.004-.018h0c-.003-.013-.005-.026-.008-.039,0,0,0,0,0-.001-.001-.006-.002-.011-.004-.017,0-.001,0-.002,0-.003-.001-.005-.002-.01-.003-.015,0-.001,0-.002,0-.004-.001-.005-.002-.01-.003-.015,0-.001,0-.002,0-.004-.001-.006-.003-.012-.004-.017,0,0,0,0,0,0-.003-.013-.006-.025-.008-.038,0,0,0,0,0,0-.001-.006-.003-.012-.004-.017,0-.001,0-.002,0-.003-.001-.005-.002-.01-.003-.015,0-.001,0-.002,0-.004-.001-.005-.002-.01-.003-.015,0-.001,0-.003,0-.004-.001-.006-.003-.011-.004-.017,0,0,0,0,0-.002-.003-.013-.006-.025-.009-.038h0c-.001-.006-.003-.012-.004-.018,0-.001,0-.002,0-.003-.001-.005-.002-.01-.003-.015,0-.001,0-.002,0-.004-.001-.005-.002-.01-.003-.015,0-.001,0-.003,0-.004-.001-.005-.002-.01-.004-.016,0-.001,0-.001,0-.003-.003-.013-.006-.025-.009-.038h0c-.001-.006-.003-.012-.004-.018,0-.001,0-.003,0-.004-.001-.005-.002-.01-.003-.014,0-.002,0-.003-.001-.005-.001-.004-.002-.009-.003-.014,0-.001,0-.003-.001-.005-.001-.005-.002-.01-.003-.015,0-.001,0-.002,0-.004-.003-.012-.006-.025-.009-.037h0c-.001-.007-.003-.012-.004-.018,0-.002,0-.002-.001-.004-.001-.005-.002-.009-.003-.014,0-.002,0-.003-.001-.005-.001-.004-.002-.009-.003-.013,0-.002,0-.003-.001-.005-.001-.005-.002-.01-.003-.014,0-.001,0-.003,0-.004-.001-.006-.003-.012-.004-.017h0c-.002-.007-.003-.013-.005-.02h0c-.001-.007-.003-.012-.004-.018,0-.002,0-.003-.001-.005-.001-.004-.002-.009-.003-.013,0-.002,0-.003-.001-.006-.001-.004-.002-.008-.003-.013,0-.002,0-.004-.001-.006-.001-.004-.002-.009-.003-.013,0-.002,0-.003-.001-.005-.001-.005-.003-.01-.004-.016,0,0,0-.002,0-.002-.002-.006-.003-.012-.005-.019,0,0,0,0,0,0-.001-.006-.003-.011-.004-.017,0-.002,0-.003-.001-.005-.001-.004-.002-.009-.003-.013,0-.002,0-.003-.001-.005-.001-.004-.002-.008-.003-.013,0-.002,0-.004-.001-.006-.001-.004-.002-.009-.003-.013,0-.001,0-.004-.001-.005-.001-.005-.003-.01-.004-.015,0,0,0-.003,0-.003-.003-.012-.006-.024-.009-.036,0-.001,0-.003-.001-.005-.001-.004-.002-.009-.003-.013,0-.002,0-.004-.001-.006-.001-.004-.002-.008-.003-.012,0-.002-.001-.004-.002-.006-.001-.004-.002-.008-.003-.012,0-.002,0-.004-.002-.006-.001-.005-.002-.009-.004-.014,0-.001,0-.003-.001-.004-.002-.006-.003-.012-.005-.018h0c-.001-.006-.003-.012-.005-.018,0-.001-.001-.004-.001-.005-.001-.004-.002-.008-.003-.013,0-.002-.001-.004-.002-.006,0-.004-.002-.008-.003-.012,0-.002-.001-.004-.002-.006-.001-.004-.002-.008-.003-.012,0-.001-.001-.004-.002-.006-.001-.005-.002-.009-.004-.013,0-.001,0-.003-.001-.005-.003-.012-.006-.024-.01-.036,0-.001,0-.004-.001-.005-.001-.004-.002-.009-.003-.013,0-.002-.001-.004-.002-.006-.001-.004-.002-.007-.003-.011,0-.003-.001-.005-.002-.007-.001-.004-.002-.007-.003-.011,0-.002-.001-.005-.002-.007-.001-.004-.002-.008-.003-.012,0-.002,0-.004-.002-.006-.002-.006-.003-.011-.005-.017h0c-.002-.007-.003-.012-.005-.018,0-.001-.001-.004-.002-.006-.001-.004-.002-.008-.003-.012,0-.003-.001-.004-.002-.007,0-.004-.002-.007-.003-.011,0-.003-.001-.004-.002-.007-.001-.004-.002-.007-.003-.011,0-.002-.001-.005-.002-.007-.001-.004-.002-.007-.003-.011,0-.002-.001-.005-.002-.007-.001-.005-.003-.01-.004-.015,0,0,0-.002,0-.003-.002-.006-.003-.012-.005-.017,0-.001-.001-.005-.002-.006-.001-.004-.002-.008-.003-.012,0-.003-.001-.004-.002-.007-.001-.004-.002-.007-.003-.011,0-.003-.001-.005-.002-.007-.001-.004-.002-.007-.003-.011,0-.002-.001-.005-.002-.007-.001-.004-.002-.008-.003-.011,0-.002-.001-.005-.002-.007-.001-.005-.003-.009-.004-.014,0-.001,0-.003-.001-.004-.002-.006-.003-.012-.005-.017,0-.002-.001-.004-.002-.006-.001-.004-.002-.008-.003-.012,0-.003-.001-.004-.002-.007-.001-.004-.002-.007-.003-.01,0-.003-.001-.005-.002-.008,0-.003-.002-.007-.003-.01,0-.002-.002-.006-.002-.008-.001-.004-.002-.007-.003-.01,0-.003-.001-.005-.002-.007-.001-.004-.002-.008-.003-.011,0-.002-.001-.004-.002-.006-.002-.006-.003-.011-.005-.017l-.002-.007s-.002-.007-.003-.011c0-.003-.002-.006-.002-.008,0-.003-.002-.006-.003-.009,0-.003-.002-.006-.003-.009,0-.003-.002-.006-.003-.009,0-.003-.002-.006-.002-.008,0-.003-.002-.006-.003-.01,0-.003-.001-.005-.002-.008-.001-.004-.002-.007-.003-.011,0-.003-.001-.004-.002-.007-.002-.005-.003-.011-.005-.017,0-.003-.001-.005-.002-.007-.001-.003-.002-.007-.003-.01,0-.003-.002-.006-.002-.008,0-.003-.002-.006-.003-.009l-.003-.009s-.002-.006-.003-.009c0-.003-.002-.006-.003-.009,0-.003-.002-.006-.003-.009,0-.003-.002-.006-.003-.009,0-.003-.002-.006-.003-.009,0-.003-.002-.006-.003-.008-.001-.004-.003-.009-.004-.013-.001-.004-.002-.008-.004-.012,0-.003-.002-.006-.003-.009,0-.003-.002-.006-.003-.009,0-.003-.002-.005-.003-.008-.001-.003-.002-.006-.003-.009,0-.003-.002-.005-.003-.008-.001-.003-.002-.006-.003-.009,0-.003-.002-.005-.002-.008-.001-.003-.002-.006-.003-.009,0-.003-.002-.005-.003-.008-.001-.003-.002-.006-.003-.009,0-.003-.002-.006-.003-.009-.002-.006-.003-.011-.005-.017,0-.003-.002-.005-.002-.008-.001-.003-.002-.006-.003-.009,0-.003-.002-.005-.002-.008-.001-.003-.002-.006-.003-.009,0-.003-.002-.005-.002-.008,0-.003-.002-.007-.003-.009,0-.003-.002-.005-.002-.008-.001-.003-.002-.006-.003-.01,0-.002-.001-.005-.002-.007-.001-.003-.002-.007-.003-.01,0-.002-.001-.004-.002-.006-.002-.007-.004-.014-.006-.02,0-.002-.001-.004-.002-.007-.001-.003-.002-.007-.003-.01,0-.003-.002-.005-.002-.007-.001-.003-.002-.007-.003-.01,0-.002-.002-.005-.002-.007-.001-.003-.002-.007-.003-.01,0-.003-.002-.005-.002-.007-.001-.003-.002-.007-.003-.01,0-.002-.002-.005-.002-.007-.001-.003-.002-.007-.003-.01,0-.002-.001-.004-.002-.005-.003-.008-.005-.015-.007-.023,0-.001,0-.003-.001-.004-.001-.003-.002-.007-.003-.01,0-.002-.001-.004-.002-.007-.001-.003-.002-.007-.003-.01,0-.002-.001-.005-.002-.007-.001-.004-.002-.006-.003-.01,0-.002-.001-.004-.002-.006-.001-.003-.002-.008-.004-.011,0-.002-.001-.004-.002-.006-.001-.004-.002-.007-.004-.011,0-.001,0-.003-.001-.004-.003-.009-.006-.018-.009-.028,0,0,0,0,0,0-.001-.004-.003-.008-.004-.012,0-.002-.001-.004-.002-.005-.001-.003-.002-.007-.004-.011,0-.002-.001-.004-.002-.006-.001-.004-.002-.007-.004-.011l-.002-.006s-.003-.008-.004-.011c0-.002-.001-.003-.002-.005-.001-.004-.003-.008-.004-.012,0,0,0-.001,0-.002-.005-.014-.009-.028-.014-.042,0-.002-.001-.003-.002-.005-.001-.003-.003-.008-.004-.011,0-.002-.001-.004-.002-.005-.001-.004-.002-.007-.004-.011,0-.002-.001-.004-.002-.006-.001-.003-.003-.008-.004-.011,0-.002-.001-.003-.002-.005-.001-.004-.003-.008-.004-.012,0-.001,0-.002-.001-.004-.005-.014-.009-.028-.014-.041,0-.001,0-.002-.001-.003-.001-.004-.003-.008-.004-.012,0-.002-.001-.003-.002-.005-.001-.004-.003-.008-.004-.011,0-.002-.001-.003-.002-.005-.001-.004-.003-.008-.004-.011,0-.002-.001-.003-.002-.005-.001-.004-.003-.008-.004-.012,0,0,0-.001,0-.002-.005-.014-.01-.029-.015-.043,0,0,0-.002,0-.003-.002-.005-.003-.008-.004-.013,0-.001,0-.003-.001-.004-.001-.004-.003-.008-.004-.012,0-.002-.001-.003-.002-.005-.001-.004-.003-.008-.004-.012,0-.001-.001-.003-.001-.004-.002-.005-.003-.008-.004-.013,0,0,0-.002,0-.003-.005-.015-.01-.029-.016-.044,0,0,0,0,0-.001-.002-.005-.003-.008-.005-.013,0-.001,0-.003-.001-.004-.001-.004-.003-.008-.004-.012,0-.001-.001-.003-.002-.004-.001-.004-.003-.008-.004-.012,0-.001,0-.003-.001-.004-.002-.005-.003-.008-.005-.013,0,0,0,0,0-.002-.007-.02-.014-.04-.021-.059,0,0,0-.002-.001-.003-.002-.005-.003-.008-.004-.012,0-.002-.001-.003-.002-.004-.001-.004-.003-.008-.004-.012,0-.001-.001-.003-.001-.004-.002-.005-.003-.008-.005-.013,0,0,0-.002,0-.002-.007-.02-.014-.04-.022-.059,0,0,0-.002,0-.002-.002-.005-.003-.009-.005-.013,0-.001,0-.002-.001-.003-.001-.004-.003-.009-.005-.013,0-.001,0-.002-.001-.003-.002-.005-.003-.009-.005-.013v-.002c-.008-.02-.016-.04-.023-.06,0,0,0-.001,0-.002-.002-.005-.003-.009-.005-.013,0-.001,0-.002-.001-.003-.001-.004-.003-.009-.005-.013,0,0,0-.002-.001-.003-.002-.005-.003-.009-.005-.013,0,0,0-.001,0-.002-.007-.02-.015-.04-.023-.06,0,0,0,0,0-.001-.002-.005-.003-.009-.005-.014,0,0,0-.002,0-.003-.001-.004-.004-.01-.005-.013,0,0,0-.002-.001-.003-.002-.005-.004-.009-.005-.014,0,0,0,0,0,0-.008-.021-.016-.041-.024-.061h0s-.004-.01-.005-.014c0,0,0-.002,0-.002-.002-.005-.003-.009-.005-.014,0,0,0-.001,0-.002-.002-.005-.004-.01-.006-.014,0,0,0,0,0,0-.01-.025-.02-.051-.03-.076,0,0,0-.001,0-.002-.002-.005-.004-.009-.005-.014,0,0,0-.002-.001-.003-.002-.005-.004-.009-.005-.014,0,0,0-.001,0-.002-.01-.025-.02-.05-.03-.075,0,0,0,0,0-.001-.002-.005-.004-.009-.006-.014,0,0,0-.001,0-.002-.002-.005-.004-.009-.006-.014,0,0,0,0,0-.001-.01-.026-.02-.05-.031-.076,0,0,0,0,0,0-.002-.005-.004-.01-.006-.015,0,0,0,0,0-.001-.002-.005-.004-.01-.006-.015h0c-.01-.026-.021-.051-.031-.077,0,0,0,0,0,0-.002-.005-.004-.01-.006-.015,0,0,0,0,0-.001-.002-.005-.004-.009-.006-.015,0,0,0,0,0,0-.013-.031-.025-.06-.038-.091,0,0,0,0,0-.001-.002-.005-.004-.01-.006-.015h0c-.013-.031-.026-.061-.039-.092h0c-.002-.005-.004-.01-.006-.015,0,0,0,0,0,0-.013-.031-.026-.061-.039-.091h0c-.002-.005-.004-.01-.007-.015h0c-.013-.03-.026-.061-.04-.091h0c-.002-.005-.004-.01-.007-.015t0,0c-.016-.035-.031-.07-.047-.106,0,0,0,0,0,0-.016-.035-.031-.07-.047-.105,0,0,0,0,0,0-.016-.035-.032-.07-.048-.105h0c-.099-.216-.201-.429-.307-.641,0,0,0,0,0,0-.015-.03-.029-.059-.044-.088,0,0,0,0,0,0-.002-.005-.005-.01-.007-.014,0,0,0,0,0,0-.017-.034-.034-.068-.052-.102,0,0,0,0,0-.001-.003-.005-.005-.009-.007-.014,0,0,0,0,0,0-.013-.024-.025-.048-.038-.073,0,0,0,0,0,0-.003-.005-.005-.009-.007-.014,0,0,0,0,0-.001-.003-.005-.005-.009-.007-.014,0,0,0,0,0,0-.013-.024-.025-.048-.038-.072h0c-.003-.005-.005-.009-.007-.014,0,0,0,0,0-.001-.003-.005-.005-.009-.007-.014,0,0,0,0,0-.001-.013-.024-.025-.047-.038-.072,0,0,0,0,0,0-.003-.005-.005-.009-.007-.014,0,0,0,0,0-.001-.003-.005-.004-.008-.007-.013,0,0,0-.001,0-.002-.012-.023-.025-.048-.038-.071,0,0,0,0,0-.001-.002-.004-.004-.008-.007-.012,0-.001-.001-.002-.002-.003-.002-.004-.004-.008-.006-.012,0-.001-.001-.002-.002-.003-.002-.004-.004-.008-.006-.012,0,0,0-.002-.001-.002-.01-.018-.02-.036-.029-.054,0,0,0-.002-.001-.003-.002-.004-.004-.008-.007-.012,0-.001-.001-.002-.002-.003-.002-.004-.004-.008-.006-.012,0-.001-.001-.002-.002-.004-.002-.004-.004-.008-.007-.012,0,0,0-.001-.001-.002-.01-.018-.02-.036-.03-.054,0,0-.001-.002-.001-.003-.002-.004-.004-.007-.006-.012,0-.001-.001-.002-.002-.004-.002-.004-.004-.008-.006-.011,0-.001-.001-.002-.002-.004-.002-.004-.004-.008-.006-.011,0-.001-.001-.002-.002-.003-.01-.017-.019-.035-.029-.052,0-.001-.001-.002-.002-.004-.002-.004-.004-.007-.006-.011,0-.002-.002-.003-.002-.004-.002-.004-.004-.007-.006-.011,0-.002-.002-.003-.003-.005-.002-.004-.004-.007-.006-.011,0-.001-.001-.003-.002-.004-.002-.004-.004-.007-.006-.011,0,0-.001-.002-.002-.003-.007-.013-.014-.025-.022-.038,0,0-.001-.002-.002-.003-.002-.004-.004-.007-.006-.011,0-.002-.002-.003-.003-.005-.002-.004-.004-.006-.006-.01,0-.002-.002-.003-.003-.005-.002-.004-.004-.007-.006-.01-.001-.002-.002-.003-.003-.005-.002-.004-.004-.007-.006-.01,0-.001-.001-.003-.002-.004-.007-.012-.013-.023-.02-.035-.001-.002-.002-.003-.003-.005-.002-.003-.004-.007-.005-.01-.001-.002-.002-.004-.003-.006-.002-.003-.004-.006-.005-.009-.001-.002-.002-.004-.004-.006-.002-.003-.004-.006-.005-.009-.001-.002-.002-.004-.003-.006-.002-.003-.004-.007-.006-.01-.001-.002-.002-.003-.003-.005-.007-.011-.013-.022-.019-.034-.001-.002-.002-.004-.003-.006-.002-.004-.003-.006-.005-.009-.001-.002-.003-.004-.004-.006-.002-.003-.003-.006-.005-.009-.001-.002-.003-.004-.004-.007-.002-.003-.003-.006-.005-.008-.001-.002-.003-.005-.004-.007-.001-.002-.004-.006-.005-.008-.001-.002-.002-.004-.004-.006-.002-.003-.004-.006-.005-.009,0,0,0,0,0-.001-.004-.007-.008-.014-.012-.021-.002-.003-.003-.005-.004-.008-.001-.002-.003-.005-.005-.008-.002-.003-.003-.005-.004-.008-.002-.003-.003-.005-.005-.008-.002-.003-.003-.005-.004-.008-.001-.002-.003-.006-.005-.008-.002-.003-.003-.005-.005-.008-.001-.002-.003-.005-.004-.007-.002-.003-.003-.006-.005-.009-.001-.002-.003-.004-.004-.007-.002-.004-.005-.008-.007-.012-.002-.004-.003-.006-.006-.009-.002-.003-.003-.006-.005-.008-.001-.002-.003-.005-.005-.008-.002-.003-.003-.005-.005-.008-.002-.003-.003-.004-.004-.007-.002-.003-.003-.005-.005-.008-.001-.002-.003-.005-.004-.007-.002-.003-.003-.006-.005-.008-.001-.002-.003-.005-.004-.007-.002-.003-.004-.006-.005-.009-.001-.002-.003-.005-.004-.006-.003-.004-.005-.009-.008-.013-.001-.002-.002-.004-.003-.006-.002-.004-.005-.008-.007-.011-.001-.002-.003-.005-.004-.006-.002-.003-.004-.006-.005-.009-.001-.002-.003-.004-.004-.006-.002-.003-.004-.006-.005-.009,0-.001-.002-.003-.002-.004-.094-.155-.259-.241-.428-.241h0ZM141.515,88.254c-.251,0-.468.189-.496.445-.03.274.167.522.442.552,3.156.349,6.238,1.442,8.912,3.159.084.054.177.079.27.079.165,0,.326-.081.421-.23.149-.232.082-.542-.151-.691-2.688-1.726-5.78-2.878-9.102-3.283h0c-.033-.004-.066-.008-.099-.012h0c-.006,0-.013-.002-.019-.002,0,0,0,0-.001,0-.033-.004-.066-.008-.099-.011,0,0-.001,0-.002,0-.006,0-.012-.001-.017-.002h-.002c-.019-.002-.037-.003-.055-.003h0ZM135.913,71.074c-.08,0-.161.019-.237.06-.243.131-.334.434-.203.677,1.53,2.84,2.463,5.91,2.771,9.127.025.259.242.452.497.452.016,0,.032,0,.048-.002.274-.026.475-.269.45-.543-.146-1.526-.429-3.012-.835-4.447,0,0,0,0,0,0-.002-.006-.003-.012-.005-.018,0,0,0,0,0,0-.002-.006-.003-.011-.005-.017,0,0,0,0,0-.001-.002-.006-.003-.012-.005-.018,0,0,0,0,0,0-.002-.006-.003-.011-.005-.017,0,0,0,0,0-.001-.002-.005-.003-.011-.005-.016,0,0,0-.002,0-.002-.002-.005-.003-.01-.005-.016,0,0,0-.002,0-.003-.002-.005-.003-.01-.005-.016,0,0,0-.002,0-.003-.002-.005-.003-.01-.004-.015,0-.001,0-.002,0-.003-.002-.005-.003-.009-.004-.015,0-.001,0-.003-.001-.004-.002-.005-.003-.009-.004-.015,0-.001,0-.003-.001-.004-.002-.005-.003-.009-.004-.015,0-.001,0-.003-.001-.004-.001-.005-.003-.01-.004-.014,0-.002,0-.003-.001-.005-.001-.005-.003-.009-.004-.013,0-.002-.001-.004-.002-.006-.001-.004-.003-.009-.004-.013,0-.002-.001-.004-.002-.006-.001-.004-.003-.009-.004-.013,0-.002-.001-.004-.002-.006-.001-.004-.003-.009-.004-.013,0-.002-.001-.004-.002-.006-.001-.004-.002-.008-.004-.012,0-.002-.001-.005-.002-.007-.001-.004-.002-.008-.004-.012,0-.002-.001-.004-.002-.007-.001-.004-.002-.008-.004-.012,0-.002-.001-.005-.002-.007-.001-.004-.002-.008-.003-.012,0-.002-.001-.005-.002-.007-.001-.004-.002-.007-.003-.011,0-.003-.002-.005-.002-.008,0-.003-.002-.008-.003-.011,0-.003-.002-.005-.002-.008,0-.003-.002-.008-.003-.011,0-.003-.002-.005-.002-.008,0-.003-.002-.008-.003-.011,0-.003-.002-.005-.002-.008,0-.003-.002-.007-.003-.01,0-.003-.002-.006-.003-.009,0-.003-.002-.007-.003-.01,0-.003-.002-.006-.003-.009,0-.003-.002-.007-.003-.01,0-.003-.002-.005-.003-.008,0-.003-.002-.007-.003-.01,0-.003-.002-.006-.003-.008,0-.003-.002-.006-.003-.009-.001-.003-.002-.006-.003-.01,0-.003-.002-.006-.003-.009-.001-.003-.002-.006-.003-.01,0-.003-.002-.005-.003-.008-.001-.003-.002-.007-.003-.01,0-.003-.001-.005-.002-.008-.001-.004-.002-.007-.003-.011,0-.002-.001-.005-.002-.007-.001-.004-.002-.008-.004-.012,0-.002-.001-.005-.002-.007-.001-.004-.002-.007-.004-.011,0-.002-.002-.005-.002-.008-.001-.004-.002-.007-.003-.011,0-.003-.001-.005-.002-.008-.001-.004-.002-.007-.003-.011,0-.002-.001-.005-.002-.007-.001-.004-.002-.008-.004-.012,0-.002-.001-.005-.002-.007-.001-.004-.003-.008-.004-.012,0-.002-.001-.004-.002-.006-.001-.004-.003-.008-.004-.012,0-.002-.001-.004-.002-.007-.001-.004-.003-.008-.004-.012,0-.002-.001-.004-.002-.007-.001-.004-.003-.008-.004-.012,0-.002-.001-.004-.002-.007-.001-.004-.002-.008-.004-.012,0-.002-.001-.005-.002-.007-.001-.004-.002-.008-.004-.012,0-.002-.002-.005-.002-.007-.001-.004-.002-.008-.004-.012,0-.002-.001-.004-.002-.006-.001-.004-.003-.008-.004-.012,0-.002-.001-.004-.002-.006-.001-.004-.003-.008-.004-.012,0-.002-.001-.004-.002-.006-.001-.004-.003-.008-.004-.012,0-.002-.001-.004-.002-.006-.001-.004-.003-.008-.004-.013,0-.002-.001-.003-.002-.005-.002-.005-.003-.009-.004-.014,0-.002-.001-.003-.001-.005-.002-.005-.003-.009-.005-.014,0-.002,0-.003-.001-.005-.001-.005-.003-.009-.004-.014,0-.002,0-.003-.002-.005-.001-.005-.003-.009-.004-.014,0,0-.001-.003-.001-.004-.002-.005-.003-.01-.005-.015,0,0,0-.003-.001-.004-.002-.005-.003-.01-.005-.015,0,0,0-.003-.001-.004-.002-.005-.003-.01-.005-.015,0,0-.001-.003-.001-.004-.002-.005-.003-.01-.005-.015,0,0,0-.003-.001-.003-.002-.005-.003-.01-.005-.015,0,0,0-.002-.001-.003-.002-.005-.003-.01-.005-.015,0,0,0-.002-.001-.003-.002-.005-.003-.01-.005-.015,0,0,0-.003-.001-.003-.002-.005-.003-.01-.005-.015,0,0,0-.002,0-.002-.002-.005-.004-.011-.005-.016,0,0,0-.001,0-.002-.002-.006-.004-.011-.006-.016v-.002c-.002-.006-.004-.011-.006-.017,0,0,0,0,0-.002-.002-.006-.004-.011-.006-.017h0c-.002-.007-.004-.013-.006-.018h0c-.002-.007-.004-.013-.006-.018h0c-.002-.007-.004-.012-.006-.018h0c-.002-.007-.004-.013-.006-.019h0c-.002-.006-.004-.012-.006-.018h0c-.002-.006-.004-.012-.006-.018h0c-.002-.006-.004-.012-.006-.018h0c-.008-.025-.017-.049-.025-.073h0c-.442-1.271-.982-2.496-1.612-3.665-.09-.168-.263-.263-.441-.263h0ZM121.076,59.052c-.217,0-.416.142-.48.36-.077.265.075.543.34.62,3.091.902,5.934,2.393,8.447,4.432.093.075.204.112.315.112.146,0,.29-.063.389-.185.173-.214.141-.527-.071-.702-2.565-2.081-5.547-3.668-8.8-4.617-.046-.013-.093-.02-.139-.02h0Z" fill="#b3b3b3"/><line x1="61.542" y1="149.694" x2="51.315" y2="165.814" fill="none" stroke="#b3b3b3" stroke-linecap="round" stroke-linejoin="round"/><line x1="77.48" y1="149.694" x2="67.253" y2="165.814" fill="none" stroke="#b3b3b3" stroke-linecap="round" stroke-linejoin="round"/><line x1="93.419" y1="149.694" x2="83.191" y2="165.814" fill="none" stroke="#b3b3b3" stroke-linecap="round" stroke-linejoin="round"/><line x1="109.357" y1="149.694" x2="99.13" y2="165.814" fill="none" stroke="#b3b3b3" stroke-linecap="round" stroke-linejoin="round"/><polyline points="134.35 140.527 120.395 169.11 143.249 171.521 112.561 219.898" fill="none" stroke="#b3b3b3" stroke-dasharray="10 10" stroke-linecap="round" stroke-linejoin="round"/></svg>