<?xml version="1.0" encoding="UTF-8"?><svg id="template" xmlns="http://www.w3.org/2000/svg" viewBox="0 0 655 493"><path d="M359.283,338.388c-4.638.303-9.313.023-13.882-.831-7.123-1.331-14.179-6.816-16.893-13.535-4.392,6.087-12.227,10.161-17.56,12.372-19.346,8.022-41.262,2.11-55.741-15.162-3.475-4.146-6.39-8.519-8.972-13.516-.53-1.025-2.391-5.905-2.864-6.297-.598-.495-4.517-.311-5.546-.404-2.106-.191-4.26-.562-6.312-1.166-19.853-5.842-33.563-28.221-33.568-52.408-.003-15.198,5.179-29.515,14.181-40.192,2.864-3.395,6.18-6.667,9.551-9.315-2.686-17.73-.016-36.246,8.642-51.174,7.895-13.613,19.461-23.235,33.234-26.187l6.127-.925c.686-4.704,1.345-9.44,2.632-13.975,3.607-12.704,11.121-24.568,20.314-32.221,12.152-10.116,26.857-13.837,41.406-10.596l9.699,2.928.192-.542c5.811-16.205,18.645-29.722,32.21-36.115,14.74-6.946,31.561-6.684,46.11.89,9.021,4.696,16.505,11.546,22.729,20.637,3.096,4.523,5.548,9.298,7.712,14.533.063.152.06.385.188.457.11.061,3.449-1.25,3.827-1.385,2.682-.958,5.324-1.869,8.108-2.294,26.676-4.074,51.714,12.923,61.611,42.925,1.438,4.356,2.929,10.005,3.135,14.672,14.494,1.921,27.002,8.284,36.297,22.256,8.281,12.448,12.7,28.763,11.2,44.637-.361,3.797-1.024,7.347-1.924,10.999,12.272,8.197,20.89,18.75,24.799,35.217,3.034,12.773,1.491,28.13-3.943,39.683-6.28,13.35-16.47,22.735-28.781,26.77-4.155,1.361-8.228,1.811-12.522,1.826-6.819,16.016-17.798,29.933-32.417,35.58-13.961,5.394-28.461,4.61-41.611-3.505-4.043-2.494-5.654-2.9-10.654-7.684-.705,4.319-6.068,7.48-8.878,10.835-3.622,4.323-20.622,8.323-25.622,6.323" fill="none" stroke="#b3b3b3" stroke-dasharray="10 10" stroke-linecap="round" stroke-linejoin="round"/><path d="M230.615,266.031c.351.222.707.431,1.092.628.547.28,1.1.548,1.658.803.683.313,1.374.608,2.072.886.801.319,1.612.614,2.43.884.902.298,1.814.565,2.735.798.986.25,1.981.461,2.984.628,1.053.176,2.114.303,3.179.375,1.104.075,2.213.09,3.319.038,1.141-.054,2.28-.18,3.404-.384,1.165-.211,2.314-.507,3.434-.889,1.174-.4,2.316-.895,3.41-1.478,1.168-.622,2.282-1.345,3.331-2.151,1.144-.879,2.21-1.856,3.198-2.908,1.098-1.169,2.098-2.429,3.009-3.748,1.029-1.491,1.945-3.059,2.766-4.673.813-1.598,1.533-3.241,2.178-4.913,0-.003-33.988-21.079-44.527,13.644-.18.592-.329,1.208-.517,1.806-.006.019-.012.039-.008.059.006.031.035.053.061.07.269.183.53.357.794.523Z" fill="none" stroke="#b3b3b3" stroke-dasharray="10 10" stroke-linecap="round" stroke-linejoin="round"/><path d="M258.569,184.519c-.322.495-.626.995-.916,1.537-.412.77-.808,1.549-1.189,2.335-.465.962-.907,1.935-1.326,2.918-.481,1.129-.93,2.271-1.347,3.424-.459,1.271-.878,2.556-1.251,3.853-.4,1.389-.749,2.792-1.04,4.206-.305,1.484-.545,2.98-.711,4.481-.172,1.557-.265,3.12-.267,4.679-.002,1.61.093,3.215.295,4.801.209,1.643.531,3.264.972,4.846.462,1.657,1.053,3.268,1.766,4.813.761,1.649,1.66,3.222,2.676,4.704,1.108,1.616,2.353,3.123,3.703,4.518,1.501,1.552,3.13,2.966,4.846,4.255,1.939,1.456,3.988,2.752,6.106,3.915,2.096,1.151,4.26,2.171,6.467,3.087.003.001,30.565-47.859-15.456-62.83-.785-.255-1.603-.468-2.396-.735-.025-.009-.052-.017-.079-.012-.043.008-.073.049-.099.086-.263.379-.514.746-.756,1.117Z" fill="none" stroke="#b3b3b3" stroke-dasharray="10 10" stroke-linecap="round" stroke-linejoin="round"/></svg>