<?xml version="1.0" encoding="UTF-8"?><svg xmlns="http://www.w3.org/2000/svg" viewBox="0 0 655 493"><g id="_树冠"><path d="M357.369,447.042c1.68-3.045,3.14-6.19,4.449-9.341,9.56-23.014,11.496-49.191,12.139-73.565.161-6.087.395-12.181.236-18.267l49.85-.319c-.159,5.23.131,10.495.266,15.434.547,19.947,1.783,40.275,6.724,59.78,2.159,8.521,4.794,16.867,8.966,24.786" fill="#f2f2f2"/></g><g id="template"><path d="M424.042,345.23c-.159,5.23.131,10.495.266,15.434.547,19.947,1.783,40.275,6.724,59.78,2.159,8.521,4.794,16.867,8.966,24.786" fill="none" stroke="#b3b3b3" stroke-dasharray="10 15" stroke-linecap="round" stroke-linejoin="round"/><path d="M357.369,446.723c1.68-3.045,3.14-6.19,4.449-9.341,9.56-23.014,11.496-49.191,12.139-73.565.161-6.087.395-12.181.236-18.267" fill="none" stroke="#b3b3b3" stroke-dasharray="10 15" stroke-linecap="round" stroke-linejoin="round"/></g></svg>