<?xml version="1.0" encoding="UTF-8"?><svg id="template" xmlns="http://www.w3.org/2000/svg" viewBox="0 0 655 493"><path d="M374.045,341.887c-.064-1.158-.146-2.317-.248-3.474-.874-9.866-5.848-17.74-12.319-25.433-7.059-8.392-15.468-15.953-24.364-22.759l-16.422-11.962c-2.261-1.998-5.038-3.704-7.529-5.473-11.667-8.289-24.905-15.509-38.678-20.566,13.547,1.776,26.569,4.493,39.364,8.964,21.524,7.521,39.884,17.895,54.849,33.829,2.316-9.373-.006-20.04-4.326-30.016-3.504-8.092-8.322-15.73-13.044-21.855-5.603-7.267-12.233-13.864-19.433-19.869-3.523-2.938-7.19-5.736-10.964-8.409-3.115-2.206-7.671-6.545-11.48-7.565,4.02,1.077,7.989,3.007,11.738,4.705,18.71,8.474,35.734,20.122,50.081,33.856,5.413,5.182,9.927,11.183,15.441,16.213,1.134-20.881,5.099-40.962,17.435-59.039,1.69-2.476,3.36-5.382,5.432-7.604-1.079,3.038-2.615,5.894-3.601,8.963-4.495,13.989-5.962,31.039,1.712,44.412,1.934,3.372,4.408,6.351,6.942,9.363,14.931-16.398,31.045-30.301,51.344-41.233,4.79-2.579,9.658-5.236,14.911-6.991-5.782,4.59-11.693,9.084-17.052,14.084-14.567,13.59-31.136,32.541-32.46,51.949-.41,6.009-.82,12.018-1.23,18.027.247-3.615,7.613-8.468,10.625-10.321,7.572-4.66,14.312-10.438,22.314-14.227,15.194-7.196,31.476-12.34,48.314-15.34,3.721-.663,9.062-1.953,12.843-1.74-12.821,5.049-24.871,11.64-36.395,18.756-3.3,2.038-7.332,4.25-10.035,6.905-19.674,13.241-42.255,29.001-50.817,50.57-1.672,4.211-2.458,8.763-2.788,13.4" fill="#f2f2f2" stroke="#b3b3b3" stroke-dasharray="10 10" stroke-linecap="round" stroke-linejoin="round"/></svg>