<svg id="template" xmlns="http://www.w3.org/2000/svg" width="655" height="493" viewBox="0 0 655 493"><title>06 FLOWER</title><path d="M319.14,413.591l-.028,0C319.125,413.646,319.133,413.625,319.14,413.591Z" fill="none" stroke="#000" stroke-linecap="round" stroke-linejoin="round"/><path d="M319.14,413.591l-.028,0C319.125,413.646,319.133,413.625,319.14,413.591Z" fill="none" stroke="#000" stroke-linecap="round" stroke-linejoin="round" stroke-dasharray="2 4"/><path d="M319.14,413.591c-.007.034-.015.054-.028,0Z" fill="none" stroke="#000" stroke-linecap="round" stroke-linejoin="round" stroke-dasharray="2 4"/><path d="M208.828,266.887a5.986,5.986,0,0,0-5.986-10.367,5.986,5.986,0,0,0-11.971,0,5.986,5.986,0,0,0-5.986,10.367,5.986,5.986,0,0,0,5.986,10.367,5.986,5.986,0,0,0,11.971,0,5.986,5.986,0,0,0,5.986-10.368Z" fill="#f5f5f5" stroke="#000" stroke-linecap="round" stroke-linejoin="round" stroke-dasharray="1 3"/><path d="M226.493,187.535a5.986,5.986,0,0,0-5.986-10.367,5.986,5.986,0,0,0-11.971,0,5.986,5.986,0,0,0-5.986,10.367,5.986,5.986,0,0,0,5.986,10.367,5.986,5.986,0,0,0,11.971,0,5.986,5.986,0,0,0,5.986-10.368Z" fill="#f5f5f5" stroke="#000" stroke-linecap="round" stroke-linejoin="round" stroke-dasharray="1 3"/><path d="M201.29,153.157a4.564,4.564,0,0,0-4.563-7.9,4.564,4.564,0,0,0-9.127,0,4.564,4.564,0,0,0-4.563,7.9,4.564,4.564,0,0,0,4.563,7.9,4.564,4.564,0,0,0,9.126,0,4.564,4.564,0,0,0,4.563-7.9Z" fill="#f5f5f5" stroke="#000" stroke-linecap="round" stroke-linejoin="round" stroke-dasharray="1 3"/><path d="M250.049,112.237a4.564,4.564,0,0,0-2.642-8.736,4.564,4.564,0,0,0-8.886-2.08,4.564,4.564,0,0,0-6.244,6.656,4.564,4.564,0,0,0,2.642,8.736,4.564,4.564,0,0,0,8.886,2.08,4.564,4.564,0,0,0,6.244-6.656Z" fill="#f5f5f5" stroke="#000" stroke-linecap="round" stroke-linejoin="round" stroke-dasharray="1 3"/><path d="M293.327,73.165a5.466,5.466,0,0,0-5.843-9.237,5.466,5.466,0,0,0-10.921.442,5.466,5.466,0,0,0-5.078,9.679,5.466,5.466,0,0,0,5.844,9.237,5.466,5.466,0,0,0,10.921-.442,5.466,5.466,0,0,0,5.078-9.679Z" fill="#f5f5f5" stroke="#000" stroke-linecap="round" stroke-linejoin="round" stroke-dasharray="1 3"/><path d="M351.565,81.017a5,5,0,0,0-5-8.652,5,5,0,0,0-9.991,0,5,5,0,0,0-5,8.652,5,5,0,0,0,5,8.652,5,5,0,0,0,9.991,0,5,5,0,0,0,5-8.652Z" fill="#f5f5f5" stroke="#000" stroke-linecap="round" stroke-linejoin="round" stroke-dasharray="1 3"/><path d="M428.325,113.629a4.975,4.975,0,0,0-4.975-8.617,4.975,4.975,0,0,0-9.95,0,4.975,4.975,0,0,0-4.975,8.617,4.976,4.976,0,0,0,4.975,8.617,4.975,4.975,0,0,0,9.95,0,4.976,4.976,0,0,0,4.975-8.617Z" fill="#f5f5f5" stroke="#000" stroke-linecap="round" stroke-linejoin="round" stroke-dasharray="1 3"/><path d="M460.99,167.387a3.6,3.6,0,0,0,.012-7.2,3.6,3.6,0,0,0-6.227-3.609,3.6,3.6,0,0,0-6.239,3.588,3.6,3.6,0,0,0-.012,7.2,3.6,3.6,0,0,0,6.227,3.609,3.6,3.6,0,0,0,6.239-3.588Z" fill="#f5f5f5" stroke="#000" stroke-linecap="round" stroke-linejoin="round" stroke-dasharray="1 3"/><path d="M449.781,265.355a5.807,5.807,0,0,0-7-9.27,5.807,5.807,0,0,0-11.526,1.424,5.807,5.807,0,0,0-4.53,10.693,5.807,5.807,0,0,0,7,9.27,5.807,5.807,0,0,0,11.526-1.423,5.807,5.807,0,0,0,4.53-10.693Z" fill="#f5f5f5" stroke="#000" stroke-linecap="round" stroke-linejoin="round" stroke-dasharray="1 3"/><path id="primary" d="M477.565,212.31a4.023,4.023,0,0,0-1.241-1.689A.977.977,0,0,1,477.4,209a5.928,5.928,0,0,1,2.252,3.476l.009.074a3.984,3.984,0,0,0,.443-.182,5.293,5.293,0,0,1,4.463-.215c2.353.977,3.349,3.32,2.93,6.923-.469,4.5-2.6,9.287-5.566,9.287a3.711,3.711,0,0,1-1.953-.6,2.07,2.07,0,0,0-1.162-.381,2.041,2.041,0,0,0-1.133.371,3.75,3.75,0,0,1-1.953.6c-2.93,0-5.1-4.785-5.586-9.287s1.309-6.23,2.93-6.914a5.3,5.3,0,0,1,4.463.215Z" fill="#f5f5f5" stroke="#000" stroke-linecap="round" stroke-linejoin="round" stroke-dasharray="1 3"/><path id="primary-2" data-name="primary" d="M394.79,215.381a6.228,6.228,0,0,1,5.225.489c1.772,1.063,3.575,3.371,2.262,8.525s-4.626,10.36-8.033,9.874a4.4,4.4,0,0,1-2.173-1.016,2.4,2.4,0,0,0-1.256-.619,2.432,2.432,0,0,0-1.414.25,4.359,4.359,0,0,1-2.37.369c-3.452-.492-5.135-6.408-4.935-11.721.108-4.26,1.655-6.82,4.553-7.566a6.217,6.217,0,0,1,5.154.989,4.68,4.68,0,0,0,.485.285l.023-.085a6.963,6.963,0,0,1,3.195-3.67,1.147,1.147,0,0,1,.981,2.063,4.725,4.725,0,0,0-1.723,1.758Z" fill="#f5f5f5" stroke="#000" stroke-linecap="round" stroke-linejoin="round" stroke-dasharray="1 3"/><path id="primary-3" data-name="primary" d="M422.622,150.863a4.536,4.536,0,0,0-1.4-1.9,1.1,1.1,0,0,1,1.211-1.828,6.685,6.685,0,0,1,2.54,3.92l.011.084a4.493,4.493,0,0,0,.5-.205,5.969,5.969,0,0,1,5.033-.242c2.654,1.1,3.777,3.744,3.3,7.808-.529,5.077-2.929,10.473-6.277,10.473a4.185,4.185,0,0,1-2.2-.672,2.335,2.335,0,0,0-1.31-.429,2.3,2.3,0,0,0-1.277.418,4.229,4.229,0,0,1-2.2.672c-3.3,0-5.748-5.4-6.3-10.473s1.476-7.026,3.3-7.8a5.98,5.98,0,0,1,5.033.242Z" fill="#f5f5f5" stroke="#000" stroke-linecap="round" stroke-linejoin="round" stroke-dasharray="1 3"/><path id="primary-4" data-name="primary" d="M393.1,110.749a3.717,3.717,0,0,0-1.147-1.56.9.9,0,0,1,.993-1.5,5.477,5.477,0,0,1,2.081,3.212l.009.069a3.681,3.681,0,0,0,.409-.168,4.89,4.89,0,0,1,4.124-.2c2.175.9,3.095,3.068,2.707,6.4-.433,4.16-2.4,8.581-5.143,8.581a3.429,3.429,0,0,1-1.8-.55,1.913,1.913,0,0,0-1.074-.352,1.886,1.886,0,0,0-1.047.343,3.465,3.465,0,0,1-1.8.55c-2.707,0-4.71-4.421-5.161-8.581s1.209-5.757,2.707-6.388a4.9,4.9,0,0,1,4.124.2Z" fill="#f5f5f5" stroke="#000" stroke-linecap="round" stroke-linejoin="round" stroke-dasharray="1 3"/><path id="primary-5" data-name="primary" d="M267.763,120.53a4.465,4.465,0,0,1,3.758-.181c1.365.576,2.878,2.031,2.467,5.822s-2.237,7.821-4.7,7.821a3.158,3.158,0,0,1-1.645-.5,1.719,1.719,0,0,0-.954-.312,1.743,1.743,0,0,0-.979.321,3.125,3.125,0,0,1-1.645.5c-2.5,0-4.293-4.03-4.688-7.821-.354-3.035.485-5.008,2.467-5.831a4.457,4.457,0,0,1,3.758.181,3.355,3.355,0,0,0,.373.153l.008-.063a4.992,4.992,0,0,1,1.9-2.928.822.822,0,0,1,.9,1.365,3.388,3.388,0,0,0-1.045,1.422Z" fill="#f5f5f5" stroke="#000" stroke-linecap="round" stroke-linejoin="round" stroke-dasharray="1 3"/><path id="primary-6" data-name="primary" d="M246.588,266.837a4.981,4.981,0,0,0-1.537-2.091,1.209,1.209,0,0,1,1.33-2.007,7.34,7.34,0,0,1,2.789,4.3l.012.092a4.933,4.933,0,0,0,.549-.225,6.554,6.554,0,0,1,5.526-.266c2.914,1.209,4.148,4.111,3.628,8.573-.58,5.574-3.216,11.5-6.892,11.5a4.6,4.6,0,0,1-2.418-.738,2.563,2.563,0,0,0-1.439-.472,2.527,2.527,0,0,0-1.4.459,4.643,4.643,0,0,1-2.418.738c-3.628,0-6.312-5.925-6.917-11.5s1.62-7.715,3.628-8.561a6.566,6.566,0,0,1,5.526.266Z" fill="#f5f5f5" stroke="#000" stroke-linecap="round" stroke-linejoin="round" stroke-dasharray="1 3"/></svg>