<svg id="template" xmlns="http://www.w3.org/2000/svg" width="655" height="493" viewBox="0 0 655 493"><title>05 LEAF</title><path d="M319.14,413.591l-.028,0C319.125,413.646,319.133,413.625,319.14,413.591Z" fill="none" stroke="#000" stroke-linecap="round" stroke-linejoin="round"/><path d="M319.14,413.591l-.028,0C319.125,413.646,319.133,413.625,319.14,413.591Z" fill="none" stroke="#000" stroke-linecap="round" stroke-linejoin="round" stroke-dasharray="2 4"/><path d="M319.14,413.591c-.007.034-.015.054-.028,0Z" fill="none" stroke="#000" stroke-linecap="round" stroke-linejoin="round" stroke-dasharray="2 4"/><path d="M225.879,297.974c.157-.1.309-.2.463-.317q.327-.248.642-.51.386-.32.755-.66.423-.39.823-.8.44-.456.848-.943.436-.521.828-1.075c.274-.388.529-.789.764-1.2a12.892,12.892,0,0,0,.655-1.324,11.527,11.527,0,0,0,.5-1.439,10.618,10.618,0,0,0,.306-1.549,10.289,10.289,0,0,0,.065-1.653,10.667,10.667,0,0,0-.22-1.751,11.921,11.921,0,0,0-.549-1.843,14.291,14.291,0,0,0-.923-1.93,18.108,18.108,0,0,0-1.34-2.011,23.408,23.408,0,0,0-1.55-1.821s-15.011,9.563-3.12,20.49c.2.186.421.365.625.556a.041.041,0,0,0,.062,0C225.641,298.118,225.761,298.047,225.879,297.974Z" fill="#f5f5f5" stroke="#000" stroke-linecap="round" stroke-linejoin="round" stroke-dasharray="1 3"/><path d="M191.554,247.169c.181.037.362.069.553.09q.407.046.817.074.5.035,1,.043.575.01,1.151-.014.633-.027,1.264-.1.674-.076,1.341-.207c.466-.092.928-.206,1.383-.343a12.892,12.892,0,0,0,1.388-.506,11.527,11.527,0,0,0,1.357-.694,10.618,10.618,0,0,0,1.291-.909,10.289,10.289,0,0,0,1.188-1.151,10.667,10.667,0,0,0,1.049-1.419,11.921,11.921,0,0,0,.875-1.713,14.291,14.291,0,0,0,.664-2.033,18.108,18.108,0,0,0,.418-2.38,23.408,23.408,0,0,0,.135-2.388s-17.463-3.44-16.4,12.674c.018.275.053.555.068.833a.041.041,0,0,0,.042.046C191.282,247.109,191.418,247.141,191.554,247.169Z" fill="#f5f5f5" stroke="#000" stroke-linecap="round" stroke-linejoin="round" stroke-dasharray="1 3"/><path d="M180.608,218.626c.077.168.159.333.254.5q.2.356.423.7.268.424.557.833.332.47.692.92.4.5.826.962.46.5.96.959c.35.321.715.626,1.094.912a12.892,12.892,0,0,0,1.228.82,11.527,11.527,0,0,0,1.362.684,10.618,10.618,0,0,0,1.5.5,10.289,10.289,0,0,0,1.631.277,10.667,10.667,0,0,0,1.765.007,11.921,11.921,0,0,0,1.9-.308,14.291,14.291,0,0,0,2.033-.667A18.108,18.108,0,0,0,199,224.66a23.408,23.408,0,0,0,2.006-1.3s-7.554-16.116-19.918-5.728c-.211.177-.416.37-.632.548a.041.041,0,0,0-.012.061C180.495,218.371,180.55,218.5,180.608,218.626Z" fill="#f5f5f5" stroke="#000" stroke-linecap="round" stroke-linejoin="round" stroke-dasharray="1 3"/><path d="M240.7,196.662c.137-.021.272-.046.411-.08q.3-.073.592-.16.36-.106.714-.229.406-.142.8-.308.437-.183.861-.4.453-.228.887-.493c.3-.186.6-.385.881-.6a9.639,9.639,0,0,0,.842-.714,8.618,8.618,0,0,0,.772-.839,7.939,7.939,0,0,0,.669-.973,7.693,7.693,0,0,0,.535-1.115,7.976,7.976,0,0,0,.368-1.267,8.913,8.913,0,0,0,.169-1.428,10.685,10.685,0,0,0-.062-1.6,13.539,13.539,0,0,0-.324-1.778,17.5,17.5,0,0,0-.525-1.71s-13.138,2.118-8.212,13.141c.084.188.181.375.264.567a.031.031,0,0,0,.042.021C240.492,196.69,240.6,196.677,240.7,196.662Z" fill="#f5f5f5" stroke="#000" stroke-linecap="round" stroke-linejoin="round" stroke-dasharray="1 3"/><path d="M243.355,199.125c.066.193.137.381.224.574q.184.412.386.815.247.493.518.973.312.551.656,1.082.379.585.8,1.143.449.6.945,1.155c.348.39.713.764,1.1,1.118a14.176,14.176,0,0,0,1.254,1.032,12.675,12.675,0,0,0,1.416.9,11.676,11.676,0,0,0,1.582.714,11.314,11.314,0,0,0,1.754.482,11.73,11.73,0,0,0,1.93.2,13.109,13.109,0,0,0,2.111-.128,15.714,15.714,0,0,0,2.3-.507,19.912,19.912,0,0,0,2.488-.934,25.739,25.739,0,0,0,2.337-1.206s-6.5-18.462-21.165-8.452c-.25.171-.5.36-.751.53a.045.045,0,0,0-.02.066C243.26,198.834,243.306,198.98,243.355,199.125Z" fill="#f5f5f5" stroke="#000" stroke-linecap="round" stroke-linejoin="round" stroke-dasharray="1 3"/><path d="M200.9,126.007c0,.2.015.4.038.615q.05.448.12.894.085.545.2,1.085.129.619.3,1.231.183.673.412,1.332.246.7.549,1.388c.212.477.447.945.705,1.4a14.176,14.176,0,0,0,.881,1.365,12.675,12.675,0,0,0,1.075,1.286,11.676,11.676,0,0,0,1.29,1.162,11.314,11.314,0,0,0,1.524.993,11.73,11.73,0,0,0,1.777.779,13.109,13.109,0,0,0,2.05.52,15.714,15.714,0,0,0,2.342.216,19.912,19.912,0,0,0,2.654-.132,25.739,25.739,0,0,0,2.593-.437s-.571-19.563-17.589-14.492c-.29.087-.582.192-.877.277a.045.045,0,0,0-.039.057C200.9,125.7,200.9,125.854,200.9,126.007Z" fill="#f5f5f5" stroke="#000" stroke-linecap="round" stroke-linejoin="round" stroke-dasharray="1 3"/><path d="M247.3,77.466c-.043.228-.078.456-.1.7q-.048.512-.074,1.026-.032.628-.031,1.258,0,.722.044,1.443.048.794.151,1.583.111.844.291,1.678c.127.582.28,1.159.463,1.726a16.174,16.174,0,0,0,.667,1.729,14.462,14.462,0,0,0,.9,1.686,13.322,13.322,0,0,0,1.171,1.6,12.909,12.909,0,0,0,1.472,1.463,13.384,13.384,0,0,0,1.8,1.283,14.957,14.957,0,0,0,2.169,1.057,17.929,17.929,0,0,0,2.566.786,22.719,22.719,0,0,0,3,.468,29.368,29.368,0,0,0,3,.114s3.906-21.987-16.283-20.274c-.344.029-.694.079-1.044.105a.052.052,0,0,0-.056.054C247.37,77.123,247.333,77.295,247.3,77.466Z" fill="#f5f5f5" stroke="#000" stroke-linecap="round" stroke-linejoin="round" stroke-dasharray="1 3"/><path d="M314.117,70.106c-.066.148-.127.3-.182.455q-.117.339-.219.683-.125.421-.228.847-.118.49-.207.986-.1.546-.157,1.1-.063.591-.078,1.185c-.01.416,0,.832.03,1.246a11.283,11.283,0,0,0,.168,1.282,10.089,10.089,0,0,0,.335,1.292,9.294,9.294,0,0,0,.531,1.276,9.006,9.006,0,0,0,.757,1.234,9.337,9.337,0,0,0,1.012,1.166,10.434,10.434,0,0,0,1.3,1.073,12.508,12.508,0,0,0,1.611.954,15.849,15.849,0,0,0,1.954.81,20.488,20.488,0,0,0,2.014.57S329.016,72,315.047,69.844c-.238-.037-.484-.061-.725-.1a.036.036,0,0,0-.047.027C314.219,69.885,314.166,70,314.117,70.106Z" fill="#f5f5f5" stroke="#000" stroke-linecap="round" stroke-linejoin="round" stroke-dasharray="1 3"/><path d="M358.9,120.1c0-.162-.013-.322-.033-.49q-.041-.356-.1-.711-.07-.433-.161-.863-.105-.493-.24-.978-.148-.535-.333-1.058-.2-.56-.442-1.1c-.171-.379-.359-.75-.566-1.111a11.283,11.283,0,0,0-.706-1.083,10.089,10.089,0,0,0-.861-1.02,9.294,9.294,0,0,0-1.031-.92,9.006,9.006,0,0,0-1.217-.785,9.337,9.337,0,0,0-1.417-.614,10.434,10.434,0,0,0-1.634-.407,12.508,12.508,0,0,0-1.865-.164,15.849,15.849,0,0,0-2.112.115,20.488,20.488,0,0,0-2.063.358s.526,15.569,14.053,11.471c.231-.07.462-.155.7-.223a.036.036,0,0,0,.031-.045C358.906,120.343,358.906,120.221,358.9,120.1Z" fill="#f5f5f5" stroke="#000" stroke-linecap="round" stroke-linejoin="round" stroke-dasharray="1 3"/><path d="M396.537,91.9c.1.131.194.257.305.384q.237.27.485.529.3.317.624.617.367.345.754.668.426.355.876.681.482.348.991.655c.356.214.722.413,1.1.591a11.283,11.283,0,0,0,1.2.489,10.089,10.089,0,0,0,1.288.349,9.294,9.294,0,0,0,1.371.17,9.006,9.006,0,0,0,1.447-.047,9.337,9.337,0,0,0,1.515-.3,10.434,10.434,0,0,0,1.575-.6,12.508,12.508,0,0,0,1.627-.927,15.849,15.849,0,0,0,1.671-1.3,20.488,20.488,0,0,0,1.493-1.468s-9.292-12.5-18.083-1.436c-.15.189-.292.39-.446.58a.036.036,0,0,0,0,.055C396.4,91.7,396.465,91.8,396.537,91.9Z" fill="#f5f5f5" stroke="#000" stroke-linecap="round" stroke-linejoin="round" stroke-dasharray="1 3"/><path d="M438.549,133.194c.1.131.194.257.305.384q.237.27.485.529.3.317.624.617.367.345.754.668.426.355.876.681.482.348.991.655c.356.214.722.413,1.1.591a11.283,11.283,0,0,0,1.2.489,10.089,10.089,0,0,0,1.288.349,9.294,9.294,0,0,0,1.371.17,9.006,9.006,0,0,0,1.447-.047,9.337,9.337,0,0,0,1.515-.3,10.434,10.434,0,0,0,1.575-.6,12.508,12.508,0,0,0,1.627-.927,15.849,15.849,0,0,0,1.671-1.3,20.488,20.488,0,0,0,1.493-1.468s-9.292-12.5-18.083-1.436c-.15.189-.292.39-.446.58a.036.036,0,0,0,0,.055C438.408,133,438.477,133.1,438.549,133.194Z" fill="#f5f5f5" stroke="#000" stroke-linecap="round" stroke-linejoin="round" stroke-dasharray="1 3"/><path d="M439.462,120.333c.215.015.429.024.653.02q.478-.009.955-.039.583-.037,1.164-.1.666-.076,1.327-.192.728-.128,1.445-.306.767-.191,1.518-.444c.524-.178,1.04-.38,1.544-.608a15.021,15.021,0,0,0,1.526-.8,13.431,13.431,0,0,0,1.461-1.01,12.372,12.372,0,0,0,1.352-1.248,11.989,11.989,0,0,0,1.2-1.511,12.429,12.429,0,0,0,1-1.8,13.891,13.891,0,0,0,.749-2.112,16.651,16.651,0,0,0,.456-2.45,21.1,21.1,0,0,0,.119-2.813,27.275,27.275,0,0,0-.209-2.779s-20.7-1.3-17,17.149c.063.315.146.632.206.952a.048.048,0,0,0,.056.046C439.139,120.306,439.3,120.321,439.462,120.333Z" fill="#f5f5f5" stroke="#000" stroke-linecap="round" stroke-linejoin="round" stroke-dasharray="1 3"/><path d="M408.812,243.947c-.162,0-.322.008-.49.025q-.357.036-.712.088-.434.063-.865.148-.494.1-.982.225-.537.14-1.063.317-.563.19-1.109.425c-.382.165-.756.348-1.119.549a11.283,11.283,0,0,0-1.094.689,10.089,10.089,0,0,0-1.032.845,9.294,9.294,0,0,0-.936,1.017,9.006,9.006,0,0,0-.8,1.2,9.337,9.337,0,0,0-.635,1.408,10.434,10.434,0,0,0-.431,1.627,12.508,12.508,0,0,0-.192,1.862,15.849,15.849,0,0,0,.083,2.114,20.488,20.488,0,0,0,.326,2.068s15.576-.29,11.683-13.877c-.066-.232-.148-.465-.213-.7a.036.036,0,0,0-.045-.031C409.055,243.948,408.933,243.946,408.812,243.947Z" fill="#f5f5f5" stroke="#000" stroke-linecap="round" stroke-linejoin="round" stroke-dasharray="1 3"/><path d="M468.211,184.055c.252.055.5.1.768.135q.566.071,1.135.117.7.056,1.393.077.8.024,1.6,0,.882-.027,1.76-.115.94-.095,1.87-.266c.65-.121,1.294-.271,1.929-.455a17.94,17.94,0,0,0,1.939-.681,16.04,16.04,0,0,0,1.9-.944,14.777,14.777,0,0,0,1.811-1.245,14.319,14.319,0,0,0,1.672-1.582,14.845,14.845,0,0,0,1.483-1.957,16.59,16.59,0,0,0,1.245-2.369,19.887,19.887,0,0,0,.958-2.819,25.2,25.2,0,0,0,.62-3.305,32.575,32.575,0,0,0,.227-3.321s-24.244-5.07-23.025,17.37c.021.383.064.772.082,1.161a.057.057,0,0,0,.058.064C467.833,183.967,468.022,184.013,468.211,184.055Z" fill="#f5f5f5" stroke="#000" stroke-linecap="round" stroke-linejoin="round" stroke-dasharray="1 3"/><path d="M455.05,218.143c-.114.112-.223.226-.331.353q-.229.269-.446.549-.265.341-.513.7-.284.407-.544.83-.286.466-.539.952-.27.519-.5,1.06c-.158.378-.3.763-.42,1.155a11.119,11.119,0,0,0-.306,1.237,9.942,9.942,0,0,0-.156,1.306,9.159,9.159,0,0,0,.03,1.361,8.875,8.875,0,0,0,.252,1.4,9.2,9.2,0,0,0,.511,1.434,10.282,10.282,0,0,0,.805,1.45,12.326,12.326,0,0,0,1.136,1.454,15.619,15.619,0,0,0,1.5,1.444,20.19,20.19,0,0,0,1.644,1.246s10.865-10.846-1.182-17.838c-.206-.119-.422-.229-.629-.352a.036.036,0,0,0-.053.008C455.224,217.977,455.136,218.059,455.05,218.143Z" fill="#f5f5f5" stroke="#000" stroke-linecap="round" stroke-linejoin="round" stroke-dasharray="1 3"/><path d="M382.646,84.869c.117-.111.23-.226.341-.352q.237-.27.462-.55.275-.342.532-.7.3-.408.566-.834.3-.468.562-.957.283-.523.522-1.067c.167-.381.316-.769.445-1.165a11.283,11.283,0,0,0,.331-1.25,10.089,10.089,0,0,0,.18-1.322,9.294,9.294,0,0,0-.008-1.382,9.006,9.006,0,0,0-.233-1.429,9.337,9.337,0,0,0-.495-1.463,10.434,10.434,0,0,0-.793-1.485,12.508,12.508,0,0,0-1.129-1.494,15.849,15.849,0,0,0-1.5-1.49,20.488,20.488,0,0,0-1.648-1.291s-11.2,10.826.906,18.118c.207.124.425.239.633.368a.036.036,0,0,0,.054-.008C382.467,85.035,382.558,84.953,382.646,84.869Z" fill="#f5f5f5" stroke="#000" stroke-linecap="round" stroke-linejoin="round" stroke-dasharray="1 3"/><path d="M317.587,114.322c.048-.155.09-.31.124-.475q.074-.351.132-.705.071-.433.121-.869.056-.5.083-1,.029-.554.02-1.109-.011-.594-.069-1.186-.063-.62-.185-1.233a11.283,11.283,0,0,0-.326-1.251,10.089,10.089,0,0,0-.493-1.24,9.294,9.294,0,0,0-.686-1.2,9.006,9.006,0,0,0-.9-1.13,9.337,9.337,0,0,0-1.15-1.032,10.434,10.434,0,0,0-1.42-.9,12.508,12.508,0,0,0-1.717-.747,15.849,15.849,0,0,0-2.04-.561,20.488,20.488,0,0,0-2.07-.315s-4.44,14.932,9.689,15.336c.241.007.488,0,.732.009a.036.036,0,0,0,.043-.033C317.513,114.554,317.552,114.438,317.587,114.322Z" fill="#f5f5f5" stroke="#000" stroke-linecap="round" stroke-linejoin="round" stroke-dasharray="1 3"/></svg>