<?xml version="1.0" encoding="UTF-8"?><svg id="template" xmlns="http://www.w3.org/2000/svg" viewBox="0 0 655 493"><path d="M390.433,295.757c-.234,0-.443.165-.49.404l-.779,4.032s0,.002,0,.004l-.006.033s0,.002,0,.002v.005s-.001.002-.001.002v.005s-.002.008-.003.011v.002s-.001.005-.002.008l-.002.008c-.003.018-.007.036-.01.054h0c-.004.019-.007.037-.011.056v.003c-.515,2.661-1.082,5.597-1.082,5.597-.052.271.125.533.396.586.032.006.064.009.095.009.235,0,.444-.166.49-.405l1.897-9.818c.052-.271-.125-.533-.396-.586-.032-.006-.064-.009-.095-.009h0ZM389.316,314.901c-.087,0-.175.023-.255.071-.237.141-.315.447-.174.684,1.315,2.207,3.431,3.926,6.035,4.696h0c.035.01.069.02.104.03h0s.005.001.008.002c0,0,0,0,0,0,.003,0,.005.001.008.002h0s.005.001.008.002h0c.027.008.053.015.08.022,0,0,0,0,0,0,.003,0,.005.001.008.002,0,0,0,0,0,0,.003,0,.005.001.008.002,0,0,0,0,0,0,.003,0,.005.001.007.002,0,0,0,0,0,0,.003,0,.005.001.007.002,0,0,0,0,0,0,.003,0,.005.001.008.002,0,0,0,0,0,0,.024.007.048.013.072.019h0s.005.001.007.002c0,0,0,0,.001,0,.002,0,.004.001.007.002,0,0,.001,0,.002,0,.002,0,.005.001.007.002h.001s.005.002.007.002h.001s.005.002.007.002c0,0,0,0,.001,0,.002,0,.005.001.007.002,0,0,0,0,.001,0,.021.005.043.011.064.016h0s.004.001.007.002h.002s.004.001.006.002c0,0,.001,0,.002,0,.002,0,.004.001.006.002,0,0,.002,0,.002,0,.002,0,.004,0,.006.001,0,0,.002,0,.003,0,.002,0,.004,0,.006.001,0,0,.001,0,.002,0,.002,0,.004.001.006.002,0,0,.001,0,.002,0,.002,0,.004.001.007.002h.001s.005.001.007.002h0c.014.003.027.007.041.01h0s.005.001.007.002c0,0,0,0,.001,0,.002,0,.004.001.007.002,0,0,.001,0,.002,0,.002,0,.004.001.006.001,0,0,.001,0,.002,0,.002,0,.004,0,.006.001,0,0,.001,0,.002,0,.002,0,.004,0,.006.001,0,0,.002,0,.003,0,.002,0,.004,0,.006.001,0,0,.002,0,.003,0,.002,0,.004,0,.006.001,0,0,.002,0,.003,0,.002,0,.004,0,.006.001,0,0,.001,0,.002,0,.002,0,.004,0,.006.001,0,0,.001,0,.002,0,.002,0,.004.001.006.001,0,0,0,0,0,0,.011.002.021.005.032.007h0s.004.001.006.002c0,0,.002,0,.002,0,.002,0,.004,0,.006.001,0,0,.001,0,.002,0,.002,0,.004,0,.006.001h.003s.004.001.006.002c0,0,.002,0,.003,0,.002,0,.003,0,.005.001.001,0,.002,0,.003,0,.002,0,.004,0,.006.001,0,0,.002,0,.003,0,.002,0,.004,0,.006.001,0,0,.002,0,.003,0,.002,0,.004,0,.006.001.001,0,.002,0,.003,0,.002,0,.004,0,.005.001.001,0,.002,0,.003,0,.002,0,.003,0,.005.001,0,0,.002,0,.002,0,.002,0,.004,0,.006.001,0,0,0,0,0,0,.008.002.015.003.022.005,0,0,.002,0,.003,0,.002,0,.004,0,.006.001,0,0,.002,0,.003,0,.002,0,.003,0,.005.001.001,0,.002,0,.003,0,.002,0,.003,0,.005.001.001,0,.003,0,.004,0,.002,0,.003,0,.005.001.001,0,.003,0,.004,0,.002,0,.003,0,.005.001.001,0,.003,0,.004,0,.001,0,.003,0,.005.001.001,0,.002,0,.004,0,.002,0,.003,0,.005.001.001,0,.003,0,.004,0,.002,0,.003,0,.005,0,.001,0,.002,0,.004,0,.001,0,.003,0,.005.001.001,0,.002,0,.004,0,.001,0,.004,0,.005.001.001,0,.003,0,.004,0,.002,0,.003,0,.005,0,.001,0,.003,0,.005,0,.001,0,.003,0,.004,0,.003,0,.006.001.008.002.001,0,.003,0,.004,0,.002,0,.003,0,.005,0,.001,0,.003,0,.004,0,.002,0,.003,0,.004,0,.001,0,.003,0,.004,0,.002,0,.003,0,.004,0,.001,0,.003,0,.005,0,.001,0,.003,0,.004,0,.001,0,.003,0,.004,0,.002,0,.003,0,.004,0,.002,0,.003,0,.004,0,.001,0,.003,0,.004,0,.001,0,.003,0,.004,0,.002,0,.003,0,.004,0,.001,0,.003,0,.004,0,.002,0,.003,0,.004,0,.001,0,.003,0,.004,0,.001,0,.003,0,.005,0,.001,0,.003,0,.004,0,.002,0,.003,0,.005,0,.001,0,.003,0,.004,0,.002,0,.003,0,.005.001.001,0,.002,0,.003,0,.002,0,.004,0,.006.001.001,0,.001,0,.002,0,.003,0,.006.001.009.002.003,0,.006.001.008.002.001,0,.002,0,.003,0,.002,0,.003,0,.005.001.001,0,.003,0,.004,0,.002,0,.003,0,.005,0,.001,0,.003,0,.004,0,.001,0,.003,0,.005,0,.001,0,.003,0,.004,0s.003,0,.004,0c.001,0,.003,0,.004,0,.001,0,.003,0,.004,0,.001,0,.003,0,.004,0,.001,0,.003,0,.004,0,.001,0,.003,0,.004,0,.001,0,.002,0,.003,0,.003,0,.007.001.01.002,0,0,.002,0,.003,0,.002,0,.003,0,.005,0,.001,0,.002,0,.003,0,.002,0,.003,0,.005,0h.003s.003.001.005.002c.001,0,.002,0,.003,0,.002,0,.003,0,.005,0,.001,0,.002,0,.003,0,.002,0,.003,0,.005,0h.003s.003.001.005.001c0,0,.002,0,.003,0,.007.001.013.002.02.004,0,0,.001,0,.002,0,.002,0,.004,0,.005,0,0,0,.002,0,.003,0,.002,0,.004,0,.005,0,0,0,.002,0,.003,0,.002,0,.004,0,.005,0,0,0,.002,0,.003,0,.002,0,.004,0,.005,0,0,0,.002,0,.003,0,.002,0,.004,0,.006,0,0,0,.002,0,.002,0,.009.002.019.003.028.005,0,0,.001,0,.002,0,.002,0,.004,0,.006.001,0,0,.001,0,.002,0,.002,0,.004,0,.006,0h.003s.004.001.006.001c0,0,.002,0,.003,0,.002,0,.004,0,.006,0,0,0,.002,0,.003,0,.002,0,.004,0,.006,0,0,0,0,0,.001,0,.01.002.019.003.029.005,0,0,.001,0,.002,0,.002,0,.004,0,.006,0,0,0,.002,0,.002,0,.002,0,.004,0,.006,0,0,0,.002,0,.003,0,.002,0,.004,0,.006,0,0,0,.002,0,.003,0,.002,0,.004,0,.006,0,0,0,.001,0,.002,0,.002,0,.004,0,.007.001,0,0,0,0,0,0,.007.001.015.002.022.004,0,0,0,0,.001,0,.002,0,.004,0,.006,0,0,0,.002,0,.003,0,.002,0,.004,0,.005,0,.001,0,.002,0,.003,0,.002,0,.003,0,.005,0,.001,0,.002,0,.003,0,.002,0,.003,0,.005,0,0,0,.002,0,.003,0,.002,0,.003,0,.005,0,0,0,.002,0,.003,0,.002,0,.004,0,.006,0h.001s.009.002.014.002c0,0,0,0,0,0,.002,0,.004,0,.006,0,0,0,.002,0,.003,0,.002,0,.003,0,.005,0,.001,0,.002,0,.003,0,.001,0,.003,0,.005,0,.001,0,.003,0,.004,0,.001,0,.003,0,.004,0,.001,0,.003,0,.004,0,.001,0,.003,0,.004,0,.001,0,.003,0,.004,0,.002,0,.003,0,.005,0,.001,0,.003,0,.004,0,.001,0,.003,0,.004,0,.002,0,.005,0,.007.001.001,0,.003,0,.004,0,.002,0,.003,0,.005,0,.001,0,.003,0,.004,0,.001,0,.003,0,.004,0,.001,0,.003,0,.004,0,.002,0,.003,0,.005,0,.001,0,.002,0,.004,0,.002,0,.003,0,.005,0,.001,0,.002,0,.004,0,.002,0,.003,0,.005,0,.001,0,.002,0,.003,0,.002,0,.004,0,.005,0,.001,0,.002,0,.003,0h.007s0,.001.001.001c.003,0,.006,0,.008.001,0,0,.001,0,.002,0,.002,0,.004,0,.006,0h.003s.004,0,.006.001c.001,0,.002,0,.003,0h.005s.002.001.003.001c.002,0,.004,0,.005,0,0,0,.002,0,.003,0h.006s.002.001.002.001c.002,0,.005,0,.007,0,0,0,0,0,.001,0,.009.001.017.002.026.003,0,0,0,0,0,0,.003,0,.005,0,.008.001,0,0,0,0,.002,0,.002,0,.005,0,.007,0,0,0,0,0,.001,0,.003,0,.005,0,.008.001,0,0,0,0,0,0,.003,0,.006,0,.008.001,0,0,0,0,0,0,.157.02.313.037.47.05.014.001.028.002.042.002.257,0,.476-.198.498-.459.023-.275-.182-.517-.457-.54-.343-.028-.69-.076-1.03-.142-2.656-.513-4.975-2.142-6.361-4.467-.094-.157-.26-.244-.43-.244h0ZM408.612,307.115c-.235,0-.444.166-.49.405l-.882,4.565c-.308,1.594-1.021,3.089-2.061,4.321-.178.211-.151.526.06.705.094.079.208.118.322.118.142,0,.283-.06.381-.176.729-.864,1.326-1.853,1.75-2.943,0,0,0,0,0,0,.002-.004.003-.009.005-.013h0s.002-.004.003-.007c0,0,0,0,0,0,.002-.004.003-.009.005-.013,0,0,0,0,0,0,0-.002.002-.004.002-.006,0,0,0,0,0,0,.002-.004.003-.009.005-.013,0,0,0,0,0,0,.003-.007.005-.013.008-.02,0,0,0,0,0,0,.002-.004.003-.009.005-.013h0c.003-.007.005-.013.008-.02,0,0,0,0,0,0,.002-.005.003-.009.005-.013h0s.001-.004.002-.006c0,0,0,0,0,0,.002-.005.003-.009.005-.013,0,0,0,0,0,0,.003-.007.005-.013.007-.02,0,0,0,0,0,0,.002-.005.003-.009.005-.013,0,0,0,0,0,0,0-.002.001-.004.002-.006,0,0,0,0,0,0,.002-.005.003-.009.005-.013,0,0,0,0,0,0,0-.002.001-.004.002-.006,0,0,0,0,0,0,.002-.004.003-.009.005-.013,0,0,0,0,0-.001.002-.004.003-.009.005-.013,0,0,0,0,0,0,0-.002.001-.004.002-.005,0,0,0,0,0-.001.002-.004.003-.008.005-.013,0,0,0,0,0,0,0-.002.001-.004.002-.006,0,0,0,0,0,0,.002-.004.003-.009.005-.013,0,0,0,0,0-.001.002-.004.003-.009.005-.013,0,0,0,0,0,0,0-.002.001-.004.002-.006,0,0,0,0,0,0,.002-.005.003-.008.005-.013,0,0,0,0,0,0,0-.002.001-.004.002-.006,0,0,0,0,0,0,0-.002.002-.004.002-.007h0s.001-.004.002-.006c0,0,0,0,0-.001.001-.004.003-.009.005-.013,0,0,0,0,0,0,0-.002.001-.004.002-.006,0,0,0,0,0,0,.002-.005.003-.008.005-.013,0,0,0,0,0,0,0-.002.001-.004.002-.006,0,0,0,0,0,0,.001-.004.003-.008.004-.013,0,0,0,0,0-.001,0-.002.001-.004.002-.006h0s.001-.004.002-.007c0,0,0,0,0-.001,0-.002.001-.003.002-.005,0,0,0,0,0-.001,0-.002.001-.004.002-.006,0,0,0,0,0,0,0-.002.001-.004.002-.006,0,0,0,0,0-.001,0-.002.001-.003.002-.005,0,0,0,0,0-.001,0-.002.001-.004.002-.006,0,0,0,0,0,0,0-.002.001-.004.002-.005,0,0,0-.001,0-.002,0-.002.001-.004.002-.006,0,0,0,0,0,0,0-.002.001-.004.002-.006,0,0,0-.001,0-.002,0-.002.001-.003.002-.005,0,0,0-.001,0-.002,0-.002.001-.004.002-.006,0,0,0,0,0,0,0-.002.001-.004.002-.006,0,0,0-.001,0-.002,0-.002.001-.003.002-.005,0,0,0-.001,0-.001,0-.002.001-.004.002-.006,0,0,0,0,0,0,0-.002.001-.004.002-.006,0,0,0-.001,0-.002,0-.002.001-.004.002-.006,0,0,0,0,0,0,0-.002.001-.004.002-.007,0,0,0,0,0,0,0-.002.001-.004.002-.006,0,0,0,0,0-.001,0-.002.001-.004.002-.006,0,0,0,0,0,0,0-.002.001-.004.002-.006,0,0,0,0,0-.001,0-.002.001-.003.002-.005,0,0,0-.001,0-.001,0-.002.001-.004.002-.006,0,0,0,0,0,0,0-.002.001-.004.002-.006,0,0,0-.001,0-.002,0-.002.001-.003.002-.005,0,0,0,0,0-.001,0-.002.001-.004.002-.006,0,0,0-.001,0-.002,0-.002,0-.003.002-.005,0,0,0-.001,0-.002,0-.002.001-.003.002-.005,0,0,0-.001,0-.002,0-.002.001-.004.002-.005,0,0,0-.001,0-.002,0-.002,0-.003.001-.005,0,0,0-.001,0-.002,0-.002.001-.004.002-.006,0,0,0,0,0-.001,0-.002.001-.003.002-.005,0,0,0-.001,0-.002l.002-.005s0,0,0-.001c0-.002.001-.004.002-.006,0,0,0-.001,0-.002,0-.002,0-.003.002-.005,0,0,0-.001,0-.002,0-.002.001-.004.002-.006,0,0,0,0,0-.001,0-.002.001-.004.002-.006,0,0,0-.001,0-.002,0-.002,0-.003.002-.005,0,0,0-.001,0-.002,0-.002.001-.004.002-.006,0,0,0-.001,0-.002v-.005s.002-.001.002-.002c0-.002.001-.003.002-.005,0,0,0,0,0-.001,0-.002.001-.004.002-.006,0,0,0-.001,0-.002,0-.002,0-.003.001-.004,0,0,0-.001,0-.002,0-.001.001-.003.001-.005,0,0,0-.002,0-.003,0-.002,0-.003.001-.005,0,0,0-.002,0-.002,0-.001,0-.003.001-.004,0,0,0-.002,0-.002,0-.002.001-.004.002-.006,0,0,0,0,0-.001,0-.002,0-.003.001-.005,0,0,0-.002,0-.002,0-.001,0-.003.001-.004,0,0,0-.001,0-.002,0-.002.001-.004.002-.006,0,0,0-.001,0-.002,0-.001,0-.003.001-.004,0,0,0-.002,0-.002,0-.002,0-.003.001-.005,0,0,0-.001,0-.002,0-.002.001-.004.002-.005,0,0,0-.001,0-.002,0-.001,0-.003.001-.005,0,0,0-.001,0-.002,0-.002.001-.004.002-.006,0,0,0-.001,0-.002,0-.002,0-.003.001-.005v-.002s.002-.003.002-.004c0,0,0-.001,0-.002,0-.002.001-.004.002-.006,0,0,0-.001,0-.002,0-.001,0-.003.001-.005,0,0,0-.001,0-.002,0-.001,0-.003.001-.005,0,0,0-.002,0-.003,0-.001,0-.003.001-.005,0,0,0-.001,0-.002,0-.001,0-.003.001-.004,0,0,0-.001,0-.002,0-.002.001-.004.002-.006,0,0,0,0,0-.001,0-.002,0-.003.001-.005,0,0,0-.001,0-.002,0-.002,0-.003.001-.005,0,0,0-.001,0-.002,0-.002.001-.004.002-.006,0,0,0-.001,0-.002,0-.001,0-.003.001-.004,0,0,0-.002,0-.002,0-.001,0-.003.001-.004,0-.001,0-.003.001-.004,0-.001,0-.002.001-.004,0,0,0-.002,0-.003,0-.001,0-.002.001-.004,0,0,0-.002,0-.003,0-.002.001-.004.002-.006,0,0,0-.001,0-.002,0-.001,0-.003.001-.004,0,0,0-.002,0-.003,0-.001,0-.003.001-.004,0,0,0-.002,0-.002,0-.002.001-.004.002-.006,0,0,0-.002,0-.002,0-.001,0-.003.001-.004,0,0,0-.002,0-.003,0-.001,0-.002.001-.004,0-.001,0-.003.001-.004,0-.001,0-.002.001-.004,0,0,0-.002,0-.003,0-.001,0-.002,0-.003,0,0,0-.002,0-.003,0-.002.001-.004.002-.006v-.003s.001-.002.002-.003c0-.001,0-.002,0-.003,0-.001,0-.002,0-.003,0,0,0-.002,0-.003,0-.002.001-.004.002-.006,0,0,0-.002,0-.003,0-.001,0-.003.001-.004,0,0,0-.002,0-.003,0-.001,0-.002.001-.004,0-.001,0-.003.001-.004,0-.001,0-.003.001-.004v-.003s.001-.003.002-.004c0,0,0-.002,0-.003,0-.002.001-.004.002-.006,0,0,0-.001,0-.002,0-.001,0-.003.001-.004,0,0,0-.002,0-.003,0-.001,0-.003.001-.004,0,0,0-.002,0-.002,0-.002.001-.004.002-.006,0,0,0-.002,0-.003,0-.001,0-.003.001-.004,0,0,0-.002,0-.003,0-.001,0-.002,0-.003,0-.002,0-.003.001-.005,0-.001,0-.002,0-.003,0,0,0-.002,0-.003,0-.001,0-.003,0-.004,0,0,0-.002,0-.003,0-.002.001-.004.002-.005,0,0,0-.002,0-.003,0-.001,0-.002,0-.003,0,0,0-.002,0-.003,0-.001,0-.002,0-.004,0,0,0-.002,0-.003,0-.002.001-.004.002-.006,0,0,0-.002,0-.003,0-.001,0-.002,0-.003,0,0,0-.002,0-.003,0-.001,0-.002.001-.004,0-.002,0-.003.001-.004,0-.001,0-.002.001-.004,0,0,0-.002,0-.003v-.004s.001-.002.002-.003c0-.002.001-.004.002-.006,0,0,0-.002,0-.002,0-.001,0-.003.001-.004,0-.001,0-.002,0-.003,0-.001,0-.003,0-.004,0,0,0-.002,0-.002,0-.002.001-.004.002-.006,0,0,0-.002,0-.003,0-.001,0-.003,0-.004,0,0,0-.002,0-.003,0-.001,0-.002.001-.004,0-.001,0-.003.001-.004,0-.001,0-.003.001-.004,0,0,0-.002,0-.003,0-.001,0-.003.001-.004,0,0,0-.002,0-.003,0-.002.001-.004.002-.006,0,0,0-.001,0-.002,0-.002,0-.003.001-.005,0,0,0-.002,0-.003,0-.001,0-.003.001-.004,0,0,0-.001,0-.002,0-.002.001-.004.002-.006,0,0,0-.002,0-.003,0-.001,0-.002,0-.004,0,0,0-.002,0-.003,0-.001,0-.003.001-.004,0-.001,0-.003,0-.004,0-.001,0-.003.001-.004,0,0,0-.002,0-.003,0-.001,0-.002,0-.004,0,0,0-.002,0-.003,0-.002.001-.004.001-.006,0,0,0-.002,0-.003,0-.001,0-.002,0-.004,0-.001,0-.002,0-.003,0-.001,0-.002,0-.004,0,0,0-.002,0-.003,0-.002,0-.004.001-.006,0,0,0-.002,0-.003,0-.001,0-.003,0-.004,0,0,0-.002,0-.003,0-.001,0-.002,0-.004,0-.002,0-.003.001-.005,0,0,0-.002,0-.003,0-.001,0-.002,0-.003,0-.001,0-.002,0-.003,0-.001,0-.002,0-.003,0-.002,0-.004.001-.006,0,0,0-.002,0-.003,0-.001,0-.002,0-.003,0-.001,0-.002,0-.003,0-.001,0-.002,0-.004,0,0,0-.002,0-.003,0-.002,0-.004.001-.006,0-.001,0-.002,0-.003,0-.001,0-.002,0-.003,0-.001,0-.002,0-.003,0-.001,0-.002,0-.003,0-.002,0-.003.001-.005,0-.001,0-.002,0-.004,0,0,0-.002,0-.003,0-.001,0-.002,0-.004,0,0,0-.002,0-.003,0-.002,0-.004.001-.006,0-.001,0-.002,0-.003,0-.001,0-.002,0-.003,0-.001,0-.002,0-.003,0-.001,0-.002,0-.003,0,0,0-.002,0-.003,0-.002,0-.004.001-.006,0-.001,0-.002,0-.003,0,0,0-.002,0-.003,0-.001,0-.002,0-.003,0,0,0-.002,0-.003,0-.002,0-.004.001-.005,0-.001,0-.002,0-.003,0-.001,0-.002,0-.003,0-.001,0-.002,0-.003,0,0,0-.002,0-.003,0-.002,0-.004.001-.006,0,0,0-.002,0-.003,0-.001,0-.002,0-.003,0-.001,0-.002,0-.003,0-.001,0-.002,0-.003,0,0,0-.002,0-.003,0-.002,0-.004.001-.006,0,0,0-.002,0-.003,0-.001,0-.003,0-.004,0,0,0-.002,0-.003,0-.001,0-.002,0-.004,0-.002,0-.003.001-.005s0-.002,0-.004c0,0,0-.002,0-.003,0-.001,0-.002,0-.004,0,0,0-.002,0-.003,0-.002,0-.004.001-.006,0,0,0-.001,0-.002,0-.001,0-.003,0-.004,0,0,0-.002,0-.003,0-.001,0-.003,0-.004,0,0,0-.002,0-.003,0-.002,0-.004.001-.006,0,0,0-.002,0-.003,0-.001,0-.003,0-.004,0,0,0-.002,0-.003,0-.001,0-.003.001-.004,0-.001,0-.002,0-.003,0-.001,0-.003.001-.005,0,0,0-.002,0-.002,0-.002,0-.003.001-.004,0,0,0-.002,0-.002,0-.002,0-.004.001-.006,0,0,0-.002,0-.002,0-.001,0-.003,0-.004,0,0,0-.002,0-.003,0-.001,0-.003,0-.004,0,0,0-.002,0-.002,0-.002,0-.004.001-.006,0,0,0-.002,0-.003,0-.001,0-.003,0-.004,0,0,0-.002,0-.003,0-.001,0-.003.001-.005v-.003s.001-.003.002-.005c0,0,0-.002,0-.003,0-.001,0-.003,0-.004,0,0,0-.002,0-.002,0-.002,0-.004.001-.006,0,0,0-.001,0-.002,0-.002,0-.003,0-.005,0,0,0-.002,0-.003,0-.002,0-.003,0-.005v-.002s.001-.004.002-.006c0,0,0-.002,0-.003,0-.001,0-.003,0-.004,0,0,0-.002,0-.003,0-.002,0-.003,0-.004,0-.001,0-.002,0-.004,0-.002,0-.003,0-.004,0,0,0-.002,0-.003,0-.001,0-.003,0-.004v-.003s.001-.004.002-.006c0,0,0-.001,0-.002,0-.002,0-.003,0-.005,0,0,0-.002,0-.002,0-.002,0-.003.001-.005,0,0,0-.001,0-.002,0-.002,0-.004.001-.006,0,0,0-.001,0-.002,0-.001,0-.003,0-.004,0,0,0-.002,0-.002,0-.002,0-.003.001-.005,0,0,0-.001,0-.002,0-.002,0-.004.001-.005,0,0,0-.001,0-.002,0-.002,0-.003,0-.004,0,0,0-.001,0-.002,0-.002,0-.004.001-.006,0,0,0-.001,0-.002,0-.002,0-.003,0-.005,0,0,0-.002,0-.002,0-.002,0-.003.001-.005,0,0,0-.001,0-.002,0-.002,0-.004.001-.006,0,0,0-.001,0-.002v-.005s.001-.001.001-.002c0-.002,0-.004.001-.005,0,0,0-.001,0-.002,0-.002,0-.004.001-.006,0,0,0-.001,0-.002,0-.002,0-.003,0-.005,0,0,0-.001,0-.002,0-.002,0-.004.001-.006,0,0,0-.001,0-.001,0-.002,0-.003.001-.005,0,0,0-.001,0-.002,0-.002,0-.003.001-.005,0,0,0-.001,0-.002,0-.002,0-.004.001-.006,0,0,0-.001,0-.002v-.005s.001-.001.001-.002c0-.002,0-.003.001-.005,0,0,0-.002,0-.003,0-.002,0-.003,0-.005,0,0,0-.001,0-.002,0-.002,0-.003,0-.005,0,0,0-.001,0-.002,0-.002,0-.004.001-.006,0,0,0-.001,0-.002,0-.002,0-.003,0-.005,0,0,0-.002,0-.002v-.005s.001,0,.001-.001c0-.002,0-.004.001-.007,0,0,0-.001,0-.002,0-.002,0-.003,0-.005,0,0,0-.001,0-.002,0-.002,0-.004.001-.006h0s.008-.04.022-.113h0c.002-.012.005-.025.007-.038v-.003s.002-.006.002-.009h0s.001-.007.002-.01v-.002s.002-.006.002-.009v-.005s.001,0,.001-.001l.002-.013s0-.004.001-.006h0s.001-.008.002-.012h0s.001-.008.002-.012h0s.001-.008.002-.012v-.002s0,0,0-.001v-.002s0,0,0,0v-.002s0-.003.001-.004v-.006s.001,0,.001-.001v-.002s0,0,0-.001l.002-.009s0,0,0,0v-.002s0-.001,0-.002v-.002s0,0,0,0l.01-.053s0,0,0,0l.817-4.229c.051-.271-.126-.532-.396-.584-.032-.006-.064-.009-.095-.009h0ZM410.288,287.846c-.074,0-.149.016-.22.051-.248.121-.351.421-.229.669.913,1.864,1.186,3.93.791,5.974l-.611,3.163c-.052.271.125.533.396.586.032.006.064.009.095.009.234,0,.444-.166.49-.404l.557-2.882h0s.008-.04.008-.04c0,0,0,0,0,0l.005-.025v-.002s.002-.01.002-.01c0-.002,0-.004.001-.007h0s0-.003,0-.005v-.002h0l.002-.009s0,0,0,0v-.004s0,0,0-.001l.002-.012s0,0,0,0v-.006s.001,0,.001,0v-.002s0,0,0,0v-.005s.001-.003.002-.004v-.004s0,0,0-.001l.002-.01v-.003s0-.002,0-.002c0,0,0-.002,0-.002h0s0-.003,0-.004h0s0-.002,0-.003h0s.002-.008.002-.013v-.002c.002-.009.004-.018.005-.026h0c.003-.017.006-.031.008-.043h0c.004-.023.007-.035.007-.036h0s.001-.005.001-.008c0,0,0-.001,0-.002,0-.002,0-.004.001-.005,0,0,0-.002,0-.003,0-.002,0-.003.001-.005,0,0,0-.002,0-.002,0-.002,0-.004.001-.006,0,0,0-.001,0-.002,0-.003,0-.005.001-.008,0,0,0,0,0-.001,0-.002,0-.004.001-.006,0,0,0-.001,0-.002,0-.002,0-.003.001-.006,0,0,0-.002,0-.002,0-.002,0-.004.001-.006,0,0,0-.001,0-.002,0-.005.002-.01.003-.016,0,0,0-.001,0-.002,0-.002,0-.004.001-.006v-.002s.001-.004.001-.006c0,0,0-.001,0-.002,0-.002,0-.005.001-.007h0s0-.006.001-.008c0,0,0,0,0-.001,0-.002,0-.005.001-.007,0,0,0-.001,0-.002,0-.002,0-.004.001-.006,0,0,0-.001,0-.002,0-.002,0-.004.001-.006,0,0,0-.001,0-.002,0-.006.002-.01.003-.016,0,0,0,0,0-.001,0-.002,0-.005.001-.007,0,0,0-.001,0-.002,0-.002,0-.004.001-.006,0,0,0,0,0-.001.001-.008.003-.016.004-.024,0,0,0-.001,0-.002,0-.002,0-.004.001-.006,0,0,0,0,0-.002,0-.002,0-.005.001-.007,0,0,0,0,0,0,0-.006.002-.011.003-.016,0,0,0,0,0,0,0-.002,0-.005.001-.007h0s0-.006.001-.008c0,0,0,0,0-.001,0-.006.002-.011.003-.016h0s0-.005.001-.008c0,0,0,0,0,0,0-.002,0-.005.001-.007,0,0,0,0,0-.001,0-.002,0-.005.001-.008h0c0-.006.002-.011.003-.017h0s0-.005.001-.008c0,0,0,0,0,0,0-.003,0-.005.001-.008h0c.001-.008.003-.017.004-.025,0,0,0,0,0,0,0-.003,0-.005.001-.008,0,0,0,0,0,0,.002-.011.003-.022.005-.033,0,0,0,0,0,0,0-.003,0-.005.001-.008,0,0,0,0,0,0,.001-.008.003-.016.004-.025h0s0-.005.001-.008h0c.002-.011.003-.022.005-.033,0,0,0,0,0,0,.002-.011.003-.022.005-.033h0s0-.005.001-.008c0,0,0,0,0,0,.001-.008.002-.016.004-.025h0s0-.005.001-.008c0,0,0,0,0,0,.002-.011.003-.022.005-.033h0s0-.005.001-.008c0,0,0,0,0,0,.046-.335.075-.67.088-1.002h0c0-.011,0-.022.001-.033h0c0-.011,0-.022.001-.033h0s0-.005,0-.008h0c0-.011,0-.022,0-.033,0,0,0,0,0,0,0-.011,0-.022,0-.033h0s0-.006,0-.008h0c0-.011,0-.022,0-.033h0c0-.011,0-.022,0-.033h0s0-.005,0-.008h0c0-.011,0-.022,0-.033h0c0-.011,0-.022,0-.033h0s0-.005,0-.008h0c0-.009,0-.017,0-.025h0s0-.005,0-.008h0s0-.005,0-.008h0c0-.009,0-.017,0-.025h0s0-.005,0-.008h0c0-.009,0-.017,0-.025h0v-.008h0s0-.006,0-.008h0c0-.009,0-.016,0-.025h0v-.008h0v-.009h0c0-.006,0-.011,0-.016h0s0-.006,0-.008h0s0-.006,0-.008h0c0-.007,0-.012,0-.017h0s0-.006,0-.008h0s0-.006,0-.008v-.002s0-.005,0-.007h0s0-.006,0-.009h0s0-.005,0-.008v-.002s0-.004,0-.006v-.002s0-.004,0-.006c0,0,0,0,0-.001,0-.005,0-.01,0-.016h0s0-.005,0-.008c0,0,0-.001,0-.002,0-.002,0-.004,0-.006,0,0,0-.001,0-.002,0-.002,0-.005,0-.007h0c0-.006,0-.012,0-.017,0,0,0-.001,0-.002,0-.002,0-.004,0-.006v-.002s0-.004,0-.006c0,0,0-.001,0-.002,0-.005,0-.01,0-.016,0,0,0,0,0-.001,0-.002,0-.004,0-.006,0,0,0-.001,0-.002,0-.002,0-.004,0-.006,0,0,0-.002,0-.002,0-.002,0-.004,0-.006,0,0,0,0,0-.001,0-.003,0-.005,0-.008h0s0-.005,0-.008c0,0,0-.001,0-.002,0-.002,0-.004,0-.006,0,0,0-.002,0-.002,0-.002,0-.003,0-.005,0,0,0-.001,0-.002,0-.005,0-.01,0-.015,0,0,0-.001,0-.002,0-.002,0-.004,0-.006,0,0,0-.002,0-.003,0-.002,0-.003,0-.005,0,0,0-.002,0-.002,0-.002,0-.004,0-.006,0,0,0-.001,0-.002,0-.003,0-.005,0-.008,0,0,0,0,0,0,0-.002,0-.005,0-.007,0,0,0-.002,0-.002,0-.002,0-.004,0-.005,0,0,0-.002,0-.002,0-.002,0-.004,0-.005,0,0,0-.002,0-.002,0-.002,0-.005,0-.007h0s0-.006,0-.008c0,0,0-.002,0-.002,0-.002,0-.003,0-.005,0,0,0-.002,0-.003,0-.001,0-.004,0-.005,0,0,0-.002,0-.003,0-.002,0-.004,0-.006,0,0,0-.001,0-.002,0-.003,0-.005,0-.008,0,0,0-.001,0-.002,0-.002,0-.004,0-.006,0,0,0-.002,0-.002,0-.002,0-.004,0-.005,0,0,0-.002,0-.003,0-.002,0-.003,0-.005,0,0,0-.002,0-.003,0-.002,0-.004,0-.006,0,0,0-.001,0-.002,0-.002,0-.005,0-.007,0,0,0-.002,0-.003,0-.002,0-.003,0-.005,0,0,0-.002,0-.003,0-.001,0-.003,0-.005,0,0,0-.002,0-.003,0-.002,0-.003,0-.005,0,0,0-.002,0-.002,0-.002,0-.005,0-.007,0,0,0-.001,0-.002,0-.002,0-.004,0-.006,0,0,0-.002,0-.003,0-.001,0-.003,0-.005,0,0,0-.002,0-.003,0-.001,0-.003,0-.004v-.003s0-.003,0-.005c0,0,0-.002,0-.003,0-.002,0-.004,0-.006,0,0,0-.002,0-.003,0-.002,0-.003,0-.005,0,0,0-.002,0-.003,0-.001,0-.003,0-.005,0,0,0-.002,0-.003,0-.002,0-.003,0-.005,0,0,0-.002,0-.003,0-.002,0-.005,0-.007,0,0,0-.002,0-.003,0-.002,0-.003,0-.005,0-.001,0-.002,0-.003,0-.001,0-.003,0-.004,0-.001,0-.002,0-.003,0-.001,0-.003,0-.005,0,0,0-.002,0-.003,0-.002,0-.004,0-.006,0,0,0,0,0,0,0-.002,0-.005,0-.007,0-.001,0-.002,0-.003,0-.001,0-.003,0-.004,0-.001,0-.002,0-.004,0-.001,0-.003,0-.004,0-.001,0-.002,0-.004,0-.001,0-.003,0-.004,0-.001,0-.002,0-.003,0-.002,0-.005,0-.007,0-.001,0-.003,0-.004,0-.001,0-.002,0-.004,0-.001,0-.003,0-.004,0-.001,0-.003,0-.004,0-.001,0-.003,0-.004,0-.001,0-.002,0-.003,0-.001,0-.003,0-.004,0-.001,0-.002,0-.003,0-.003,0-.005,0-.007,0-.001,0-.002,0-.003,0-.001,0-.003,0-.004,0-.001,0-.002,0-.003,0-.002,0-.003,0-.004,0-.001,0-.002,0-.003,0-.001,0-.003,0-.004,0-.001,0-.002,0-.003,0-.001,0-.003,0-.004,0,0,0-.002,0-.003,0-.003,0-.006,0-.009,0-.001,0-.002,0-.003,0-.002,0-.003,0-.004,0-.001,0-.002,0-.003,0-.001,0-.003,0-.004,0-.001,0-.002,0-.003,0-.001,0-.003,0-.004,0-.001,0-.001,0-.002,0-.003,0-.006,0-.009,0-.001,0-.001,0-.002,0-.001,0-.003,0-.004,0-.001,0-.002,0-.003,0-.001,0-.003,0-.004,0-.001,0-.002,0-.003,0-.002,0-.003,0-.004,0,0,0-.002,0-.003,0-.005,0-.01-.001-.016,0,0,0-.002,0-.003,0-.001,0-.003,0-.004v-.003s0-.003,0-.004c0-.001,0-.002,0-.003,0-.002,0-.003,0-.004,0-.001,0-.001,0-.002,0-.003,0-.006,0-.01,0,0,0-.001,0-.002,0-.002,0-.003,0-.005,0-.001,0-.002,0-.003,0-.002,0-.003,0-.005,0-.001,0-.002,0-.003,0-.002,0-.003,0-.005,0,0,0-.001,0-.002,0-.005,0-.011-.001-.016,0,0,0-.002,0-.002,0-.002,0-.003,0-.005,0,0,0-.002,0-.002,0-.002,0-.003,0-.005,0,0,0-.001,0-.002,0-.002,0-.003,0-.005,0,0,0,0,0,0,0-.004,0-.008-.001-.013,0,0,0,0,0,0,0-.002,0-.004,0-.005,0,0,0-.001,0-.002,0-.002,0-.004,0-.005,0,0,0-.001,0-.002,0-.002,0-.003,0-.005,0,0,0-.001,0-.002,0-.006-.001-.012-.002-.017,0,0,0-.001,0-.001,0-.002,0-.004,0-.005,0,0,0-.001,0-.002,0-.002,0-.003,0-.005,0,0,0-.001,0-.002,0-.008-.001-.016-.002-.024,0,0,0,0,0-.002,0-.002,0-.003,0-.005,0,0,0-.001,0-.002,0-.002,0-.003,0-.005,0,0,0,0,0,0,0-.006-.001-.012-.002-.018,0,0,0-.001,0-.001,0-.002,0-.004,0-.005,0,0,0-.001,0-.002,0-.002,0-.003,0-.005,0,0,0-.001,0-.002,0-.008-.002-.016-.002-.024,0,0,0,0,0-.002,0-.002,0-.004,0-.005,0,0,0-.001,0-.002,0-.002,0-.004,0-.006,0,0,0,0,0,0,0-.006-.001-.013-.002-.019h0s0-.004,0-.006c0,0,0,0,0,0,0-.002,0-.004,0-.006h0c0-.009-.002-.017-.003-.026,0,0,0,0,0,0,0-.002,0-.004,0-.006,0,0,0,0,0-.001-.002-.022-.005-.043-.007-.065h0s0-.004,0-.007h0c-.001-.011-.003-.022-.004-.032h0c-.002-.014-.003-.027-.005-.04,0,0,0,0,0,0-.143-1.174-.483-2.301-.991-3.34-.087-.177-.265-.28-.449-.28h0ZM401.289,282.233h-.012s-.005,0-.007,0h-.011s-.001,0-.002,0h-.007s-.002,0-.003,0c-.003,0-.005,0-.008,0h-.001s-.006,0-.009,0h-.003s-.005,0-.007,0h-.002s-.006,0-.009,0c0,0-.001,0-.002,0-.003,0-.005,0-.007,0h-.002s-.006,0-.008,0h0s-.006,0-.009,0c0,0-.002,0-.002,0-.003,0-.005,0-.007,0,0,0-.001,0-.002,0-.003,0-.006,0-.009,0h-.001s-.005,0-.008,0c0,0-.002,0-.003,0-.003,0-.005,0-.008,0,0,0,0,0,0,0-.003,0-.006,0-.009,0,0,0-.002,0-.003,0-.002,0-.005,0-.007,0,0,0-.001,0-.002,0-.003,0-.006,0-.009,0,0,0,0,0-.001,0-.003,0-.005,0-.008,0,0,0-.002,0-.002,0-.003,0-.005,0-.008,0,0,0,0,0-.001,0-.003,0-.006,0-.009,0,0,0-.001,0-.002,0-.003,0-.005,0-.008,0,0,0-.001,0-.002,0-.006,0-.012,0-.018,0,0,0-.001,0-.002,0-.003,0-.005,0-.008,0,0,0-.001,0-.001,0-.003,0-.006,0-.009,0,0,0,0,0-.002,0-.003,0-.005,0-.008,0,0,0-.001,0-.002,0-.006,0-.012,0-.018,0,0,0-.001,0-.002,0-.003,0-.005,0-.008,0,0,0-.001,0-.002,0-.003,0-.006,0-.009,0,0,0-.001,0-.002,0-.003,0-.005,0-.008,0,0,0-.001,0-.002,0-.006,0-.012,0-.018,0,0,0-.001,0-.002,0-.003,0-.005,0-.008,0,0,0,0,0-.002,0-.003,0-.006,0-.009,0,0,0,0,0-.001,0-.003,0-.005,0-.008,0,0,0-.001,0-.002,0-.006,0-.012,0-.018,0,0,0-.001,0-.002,0-.003,0-.005,0-.008,0,0,0-.001,0-.002,0-.003,0-.006,0-.009,0,0,0,0,0,0,0-.003,0-.006,0-.008,0,0,0-.001,0-.002,0-.006,0-.012,0-.018,0,0,0,0,0-.002,0-.003,0-.005,0-.008,0,0,0,0,0-.001,0-.003,0-.006,0-.01,0h0s-.006,0-.009,0c0,0-.001,0-.002,0-.003,0-.006,0-.009,0h0s-.006,0-.009,0c0,0-.001,0-.001,0-.003,0-.005,0-.008,0,0,0-.001,0-.002,0-.006,0-.012,0-.019,0,0,0-.001,0-.002,0-.003,0-.006,0-.009,0,0,0,0,0,0,0-.003,0-.006,0-.009,0,0,0,0,0-.001,0-.003,0-.005,0-.008,0,0,0,0,0-.001,0h-.019s-.001.001-.002.001c-.003,0-.006,0-.009,0,0,0,0,0,0,0-.003,0-.006,0-.009,0,0,0,0,0-.001,0-.003,0-.006,0-.008,0,0,0-.001,0-.002,0-.006,0-.012,0-.018.001,0,0-.001,0-.002,0-.003,0-.006,0-.008,0,0,0,0,0,0,0-.003,0-.006,0-.01,0,0,0,0,0,0,0-.003,0-.006,0-.008,0,0,0-.001,0-.001,0-.006,0-.013,0-.019.001,0,0,0,0-.001,0-.003,0-.006,0-.009,0h0c-.006,0-.013,0-.019.001,0,0,0,0-.001,0-.006,0-.013,0-.019.001,0,0,0,0-.001,0-.003,0-.006,0-.009,0,0,0,0,0,0,0-.006,0-.013,0-.019.001,0,0,0,0,0,0-.006,0-.013,0-.019.001,0,0,0,0,0,0-.003,0-.006,0-.009,0,0,0,0,0,0,0-.006,0-.013,0-.019.001t-.001,0c-.006,0-.013,0-.019.001t0,0s-.006,0-.009,0c0,0,0,0,0,0l-.019.002s0,0,0,0c-.006,0-.013.001-.019.002h0s-.006,0-.009,0c0,0,0,0,0,0-.006,0-.013.001-.019.002,0,0,0,0,0,0-.009,0-.019.002-.029.003,0,0,0,0,0,0l-.019.002s0,0,0,0c-.003,0-.006,0-.009,0h0c-.006,0-.013.001-.019.002,0,0,0,0,0,0-.007,0-.013.001-.019.002h0c-.01,0-.019.002-.029.003,0,0,0,0,0,0-.007,0-.013.001-.019.002h0c-.01.001-.019.002-.029.003h0c-.016.002-.033.003-.049.005h0c-.01.001-.02.002-.029.003h0c-.039.004-.079.009-.118.014h0c-2.724.335-5.196,1.732-6.894,3.836h0c-.006.008-.012.015-.018.023h0c-.004.005-.008.01-.012.015,0,0,0,0,0,0-.006.008-.012.015-.018.023h0c-.004.005-.008.01-.012.015,0,0,0,0,0,0-.006.007-.012.015-.018.022,0,0,0,0,0,0-.004.005-.008.01-.011.015,0,0,0,0,0,0-.002.002-.004.005-.005.007h0s-.004.005-.006.008h0s-.004.005-.005.007c0,0,0,0,0,.001-.004.005-.008.01-.011.015,0,0,0,0,0,.001-.002.002-.003.004-.005.006,0,0,0,0,0,.001-.004.005-.008.01-.011.015,0,0,0,0,0,.001-.004.005-.007.01-.011.014,0,0,0,0-.001.001-.002.002-.003.004-.005.006,0,0,0,0,0,.001-.002.002-.004.005-.006.007h0s-.004.005-.005.007c0,0,0,0,0,.001-.002.002-.003.005-.005.007,0,0,0,0,0,0-.002.002-.004.005-.005.007,0,0,0,.001,0,.001-.001.002-.003.004-.005.006,0,0,0,.001-.001.002-.002.002-.004.005-.005.007,0,0,0,0,0,0-.002.002-.003.004-.005.006,0,0,0,.001-.001.002-.001.002-.003.004-.005.006,0,0,0,0,0,.001l-.005.007s0,.001-.001.002c-.002.002-.003.004-.004.006,0,0-.001.001-.001.002-.002.002-.004.005-.005.007,0,0,0,0,0,0-.002.002-.003.005-.005.007,0,0,0,.001-.001.002-.001.002-.003.004-.004.006,0,0,0,0-.001.001-.002.002-.004.005-.005.007,0,0,0,.001-.001.001-.001.002-.003.004-.004.005,0,0-.001.002-.002.002-.002.002-.003.004-.005.006,0,0,0,0,0,.001-.002.002-.003.004-.005.006,0,0-.001.002-.002.002-.001.002-.003.003-.004.005,0,0-.001.001-.002.002-.002.002-.003.004-.005.007,0,0,0,.001-.002.002-.001.002-.003.004-.004.005,0,0-.001.002-.002.002-.001.002-.003.004-.004.006,0,0,0,0-.001.001-.002.002-.003.004-.005.007,0,0-.001.002-.002.002-.001.001-.002.003-.003.005,0,0-.001.002-.002.003-.002.002-.003.004-.005.007,0,0,0,.001-.002.002-.001.002-.002.003-.004.005,0,0-.001.001-.002.002-.001.002-.003.004-.004.006,0,0,0,.001-.001.002-.002.002-.003.004-.005.007,0,0-.001.002-.002.003-.001.002-.002.003-.003.005,0,0-.001.002-.002.002-.002.002-.003.004-.005.007,0,0-.001.002-.002.002-.001.001-.002.003-.003.005,0,0-.002.002-.002.003-.001.001-.002.003-.003.004,0,0-.001.002-.002.003-.002.002-.003.004-.005.006,0,0-.002.002-.002.003,0,.001-.002.003-.003.004,0,0-.002.002-.002.003-.001.002-.003.004-.004.006,0,.001-.002.002-.002.003,0,.001-.002.003-.003.004,0,.001-.002.002-.003.004,0,.001-.002.003-.003.004,0,0-.002.002-.002.003-.002.002-.003.004-.004.006,0,0-.002.002-.002.003,0,.001-.002.002-.002.003,0,.001-.002.002-.003.004,0,.001-.002.002-.003.004,0,.001-.002.002-.002.003-.16.225-.107.537.118.697.088.063.189.093.289.093.156,0,.31-.073.408-.21,1.782-2.505,4.674-4,7.738-4h0c.52,0,1.047.044,1.564.13.028.005.055.007.083.007.24,0,.452-.173.493-.418.045-.272-.139-.53-.411-.575-.569-.094-1.135-.141-1.694-.143h0s-.004,0-.005,0h-.009s-.003,0-.004,0h-.014Z" fill="#b3b3b3"/><line x1="410.25" y1="303.112" x2="414.709" y2="303.973" fill="none" stroke="#b3b3b3" stroke-dasharray="10 10" stroke-linecap="round" stroke-linejoin="round"/><line x1="384.683" y1="298.172" x2="389.152" y2="299.035" fill="none" stroke="#b3b3b3" stroke-dasharray="10 10" stroke-linecap="round" stroke-linejoin="round"/><line x1="407.891" y1="315.317" x2="412.35" y2="316.179" fill="none" stroke="#b3b3b3" stroke-dasharray="10 10" stroke-linecap="round" stroke-linejoin="round"/><line x1="381.744" y1="310.265" x2="386.794" y2="311.241" fill="none" stroke="#b3b3b3" stroke-dasharray="10 10" stroke-linecap="round" stroke-linejoin="round"/><line x1="412.608" y1="290.906" x2="417.067" y2="291.768" fill="none" stroke="#b3b3b3" stroke-dasharray="10 10" stroke-linecap="round" stroke-linejoin="round"/><line x1="387.041" y1="285.966" x2="391.51" y2="286.83" fill="none" stroke="#b3b3b3" stroke-dasharray="10 10" stroke-linecap="round" stroke-linejoin="round"/><circle cx="405.778" cy="291.77" r="1.621" fill="#b3b3b3"/><circle cx="397.506" cy="290.172" r="1.621" fill="#b3b3b3"/></svg>